<?xml version="1.0" encoding="utf-8" standalone="no"?>
<!DOCTYPE svg PUBLIC "-//W3C//DTD SVG 1.1//EN"
  "http://www.w3.org/Graphics/SVG/1.1/DTD/svg11.dtd">
<!-- Created with matplotlib (http://matplotlib.org/) -->
<svg height="432pt" version="1.1" viewBox="0 0 576 432" width="576pt" xmlns="http://www.w3.org/2000/svg" xmlns:xlink="http://www.w3.org/1999/xlink">
 <defs>
  <style type="text/css">
*{stroke-linecap:butt;stroke-linejoin:round;stroke-miterlimit:100000;}
  </style>
 </defs>
 <g id="figure_1">
  <g id="patch_1">
   <path d="M 0 432 
L 576 432 
L 576 0 
L 0 0 
z
" style="fill:#ffffff;"/>
  </g>
  <g id="axes_1">
   <g id="patch_2">
    <path d="M 54.525 384.9 
L 503.88 384.9 
L 503.88 22.4 
L 54.525 22.4 
z
" style="fill:#ffffff;"/>
   </g>
   <g id="line2d_1">
    <path d="M 102.640097 384.9 
L 102.640097 377.862532 
L 104.782955 377.862532 
L 104.782955 370.825063 
L 107.497766 370.825063 
L 107.497766 363.787595 
L 110.205001 363.787595 
L 110.205001 356.750126 
L 127.515841 356.750126 
L 127.515841 349.712658 
L 132.862776 349.712658 
L 132.862776 342.675189 
L 133.675503 342.675189 
L 133.675503 335.637721 
L 138.397838 335.637721 
L 138.397838 328.600252 
L 154.724293 328.600252 
L 154.724293 321.562784 
L 156.467646 321.562784 
L 156.467646 314.525315 
L 158.297859 314.525315 
L 158.297859 307.487847 
L 159.907539 307.487847 
L 159.907539 300.450379 
L 161.312557 300.450379 
L 161.312557 293.41291 
L 162.790314 293.41291 
L 162.790314 286.375442 
L 163.953104 286.375442 
L 163.953104 279.337973 
L 165.230986 279.337973 
L 165.230986 272.300505 
L 166.440126 272.300505 
L 166.440126 265.263036 
L 167.565455 265.263036 
L 167.565455 258.225568 
L 168.679236 258.225568 
L 168.679236 251.188099 
L 169.633182 251.188099 
L 169.633182 244.150631 
L 170.689778 244.150631 
L 170.689778 237.113162 
L 171.809002 237.113162 
L 171.809002 230.075694 
L 176.094416 230.075694 
L 176.094416 223.038226 
L 199.115153 223.038226 
L 199.115153 216.000757 
L 207.593977 216.000757 
L 207.593977 208.963289 
L 208.379809 208.963289 
L 208.379809 201.92582 
L 209.041504 201.92582 
L 209.041504 194.888352 
L 209.601524 194.888352 
L 209.601524 187.850883 
L 210.36305 187.850883 
L 210.36305 180.813415 
L 211.062407 180.813415 
L 211.062407 173.775946 
L 211.684832 173.775946 
L 211.684832 166.738478 
L 212.247115 166.738478 
L 212.247115 159.70101 
L 212.795678 159.70101 
L 212.795678 152.663541 
L 213.336947 152.663541 
L 213.336947 145.626073 
L 213.854214 145.626073 
L 213.854214 138.588604 
L 214.353412 138.588604 
L 214.353412 131.551136 
L 214.907343 131.551136 
L 214.907343 124.513667 
L 215.42868 124.513667 
L 215.42868 117.476199 
L 215.961324 117.476199 
L 215.961324 110.43873 
L 216.453187 110.43873 
L 216.453187 103.401262 
L 216.93124 103.401262 
L 216.93124 96.363793 
L 217.389703 96.363793 
L 217.389703 89.326325 
L 217.826404 89.326325 
L 217.826404 82.288857 
L 218.201389 82.288857 
L 218.201389 75.251388 
L 218.666048 75.251388 
L 218.666048 68.21392 
L 219.098231 68.21392 
L 219.098231 61.176451 
L 219.53687 61.176451 
L 219.53687 54.138983 
L 219.885315 54.138983 
L 219.885315 47.101514 
L 220.28995 47.101514 
L 220.28995 40.064046 
L 220.654807 40.064046 
L 220.654807 33.026577 
L 220.992634 33.026577 
L 220.992634 25.989109 
L 416.908065 25.989109 
" style="fill:none;stroke:#f5deb3;stroke-linecap:square;stroke-width:6.0;"/>
   </g>
   <g id="line2d_2">
    <defs>
     <path d="M -0 7.778175 
L 7.778175 0 
L 0 -7.778175 
L -7.778175 -0 
z
" id="m699e3abb9a" style="stroke:#f5deb3;stroke-linejoin:miter;stroke-width:1.5;"/>
    </defs>
    <g>
     <use style="fill:#f5deb3;stroke:#f5deb3;stroke-linejoin:miter;stroke-width:1.5;" x="156.4676455887457" xlink:href="#m699e3abb9a" y="314.5253154727237"/>
     <use style="fill:#f5deb3;stroke:#f5deb3;stroke-linejoin:miter;stroke-width:1.5;" x="212.24711493110226" xlink:href="#m699e3abb9a" y="159.70100951271596"/>
     <use style="fill:#f5deb3;stroke:#f5deb3;stroke-linejoin:miter;stroke-width:1.5;" x="220.9926336698133" xlink:href="#m699e3abb9a" y="33.026577363618685"/>
     <use style="fill:#f5deb3;stroke:#f5deb3;stroke-linejoin:miter;stroke-width:1.5;" x="220.9926336698133" xlink:href="#m699e3abb9a" y="25.989108910891048"/>
     <use style="fill:#f5deb3;stroke:#f5deb3;stroke-linejoin:miter;stroke-width:1.5;" x="416.908064516129" xlink:href="#m699e3abb9a" y="25.989108910891048"/>
    </g>
   </g>
   <g id="line2d_3">
    <path d="M -15527.946774 743.810891 
" style="fill:none;stroke:#f5deb3;stroke-linecap:square;stroke-width:6.0;"/>
    <g>
     <use style="fill:#f5deb3;stroke:#f5deb3;stroke-linejoin:miter;stroke-width:1.5;" x="-15527.946774193548" xlink:href="#m699e3abb9a" y="743.810891089109"/>
    </g>
   </g>
   <g id="line2d_4">
    <path d="M 416.908065 25.989109 
L 456.770202 33.167327 
" style="fill:none;stroke:#f5deb3;stroke-linecap:square;stroke-width:6.0;"/>
    <g>
     <use style="fill:#f5deb3;stroke:#f5deb3;stroke-linejoin:miter;stroke-width:1.5;" x="416.908064516129" xlink:href="#m699e3abb9a" y="25.989108910891048"/>
     <use style="fill:#f5deb3;stroke:#f5deb3;stroke-linejoin:miter;stroke-width:1.5;" x="456.77020161290324" xlink:href="#m699e3abb9a" y="33.167326732673246"/>
    </g>
   </g>
   <g id="line2d_5">
    <defs>
     <path d="M 0 1.5 
C 0.397805 1.5 0.77937 1.341951 1.06066 1.06066 
C 1.341951 0.77937 1.5 0.397805 1.5 0 
C 1.5 -0.397805 1.341951 -0.77937 1.06066 -1.06066 
C 0.77937 -1.341951 0.397805 -1.5 0 -1.5 
C -0.397805 -1.5 -0.77937 -1.341951 -1.06066 -1.06066 
C -1.341951 -0.77937 -1.5 -0.397805 -1.5 0 
C -1.5 0.397805 -1.341951 0.77937 -1.06066 1.06066 
C -0.77937 1.341951 -0.397805 1.5 0 1.5 
z
" id="mdc4c486549" style="stroke:#f5deb3;stroke-width:0.5;"/>
    </defs>
    <g>
     <use style="fill:#f5deb3;stroke:#f5deb3;stroke-width:0.5;" x="220.9926336698133" xlink:href="#mdc4c486549" y="25.989108910891048"/>
     <use style="fill:#f5deb3;stroke:#f5deb3;stroke-width:0.5;" x="220.9926336698133" xlink:href="#mdc4c486549" y="25.989108910891048"/>
    </g>
   </g>
   <g id="line2d_6">
    <defs>
     <path d="M 0 1.5 
C 0.397805 1.5 0.77937 1.341951 1.06066 1.06066 
C 1.341951 0.77937 1.5 0.397805 1.5 0 
C 1.5 -0.397805 1.341951 -0.77937 1.06066 -1.06066 
C 0.77937 -1.341951 0.397805 -1.5 0 -1.5 
C -0.397805 -1.5 -0.77937 -1.341951 -1.06066 -1.06066 
C -1.341951 -0.77937 -1.5 -0.397805 -1.5 0 
C -1.5 0.397805 -1.341951 0.77937 -1.06066 1.06066 
C -0.77937 1.341951 -0.397805 1.5 0 1.5 
z
" id="m78f2783c77" style="stroke:#000080;stroke-width:0.5;"/>
    </defs>
    <g>
     <use style="fill:#000080;stroke:#000080;stroke-width:0.5;" x="297.9428094985018" xlink:href="#m78f2783c77" y="25.989108910891048"/>
     <use style="fill:#000080;stroke:#000080;stroke-width:0.5;" x="297.9428094985018" xlink:href="#m78f2783c77" y="25.989108910891048"/>
    </g>
   </g>
   <g id="line2d_7">
    <path d="M 142.298407 384.9 
L 142.298407 384.196253 
L 145.757699 384.196253 
L 145.757699 381.381266 
L 146.708898 381.381266 
L 146.76471 379.973772 
L 147.477936 379.973772 
L 147.477936 377.862532 
L 148.151767 377.862532 
L 148.151767 377.158785 
L 149.008692 377.158785 
L 149.008692 376.455038 
L 149.720396 376.455038 
L 149.720396 375.751291 
L 149.915055 375.751291 
L 149.915055 374.343797 
L 150.124051 374.343797 
L 150.219859 372.936304 
L 150.331122 372.936304 
L 150.331122 372.232557 
L 151.262871 372.232557 
L 151.262871 370.121316 
L 151.714655 370.121316 
L 151.714655 369.417569 
L 152.098989 369.417569 
L 152.098989 368.713823 
L 152.317767 368.713823 
L 152.317767 368.010076 
L 153.833103 368.010076 
L 153.833103 367.306329 
L 154.369395 367.306329 
L 154.369395 366.602582 
L 154.554116 366.602582 
L 154.554116 365.195088 
L 154.983616 365.195088 
L 154.983616 363.787595 
L 155.290905 363.787595 
L 155.290905 362.380101 
L 155.905541 362.380101 
L 155.905541 360.972607 
L 156.407224 360.972607 
L 156.407224 359.565114 
L 156.707723 359.565114 
L 156.707723 358.861367 
L 157.378204 358.861367 
L 157.436076 357.453873 
L 159.095638 357.453873 
L 159.138545 355.342632 
L 159.234786 355.342632 
L 159.234786 353.935139 
L 159.415459 353.935139 
L 159.499981 352.527645 
L 159.689004 352.527645 
L 159.689004 351.823898 
L 161.0975 351.823898 
L 161.185727 349.008911 
L 161.215059 349.008911 
L 161.215059 348.305164 
L 161.765217 348.305164 
L 161.793803 346.89767 
L 162.255638 346.89767 
L 162.255638 346.193924 
L 162.413675 346.193924 
L 162.413675 345.490177 
L 162.689882 345.490177 
L 162.689882 344.78643 
L 162.998869 344.78643 
L 163.043952 343.378936 
L 163.542803 343.378936 
L 163.648275 341.971442 
L 164.491593 341.971442 
L 164.491593 339.860202 
L 165.271812 339.860202 
L 165.271812 339.156455 
L 165.86753 339.156455 
L 165.86753 337.748961 
L 166.494274 337.748961 
L 166.494274 336.341468 
L 166.915245 336.341468 
L 166.915245 334.933974 
L 170.05916 334.933974 
L 170.05916 334.230227 
L 170.944763 334.230227 
L 170.944763 332.118987 
L 172.641246 332.118987 
L 172.641246 331.41524 
L 173.506083 331.41524 
L 173.506083 330.711493 
L 173.976245 330.711493 
L 173.976245 329.303999 
L 174.235085 329.303999 
L 174.235085 328.600252 
L 184.186011 328.600252 
L 184.186011 327.896506 
L 184.562713 327.896506 
L 184.562713 326.489012 
L 185.119564 326.489012 
L 185.119564 325.785265 
L 186.154888 325.785265 
L 186.154888 325.081518 
L 186.503419 325.081518 
L 186.503419 323.674024 
L 187.03334 323.674024 
L 187.03334 322.970278 
L 188.79405 322.970278 
L 188.79405 322.266531 
L 189.070303 322.266531 
L 189.169154 320.859037 
L 189.284401 320.859037 
L 189.379526 318.747797 
L 189.47981 318.747797 
L 189.47981 318.04405 
L 189.634923 318.04405 
L 189.709329 315.932809 
L 189.830058 315.932809 
L 189.830058 314.525315 
L 190.193789 314.525315 
L 190.261003 313.117822 
L 190.357439 313.117822 
L 190.357439 312.414075 
L 190.644291 312.414075 
L 190.644291 311.710328 
L 190.875345 311.710328 
L 190.875345 311.006581 
L 191.253525 311.006581 
L 191.253525 310.302834 
L 191.491145 310.302834 
L 191.491145 308.895341 
L 192.885542 308.895341 
L 192.885542 308.191594 
L 193.151504 308.191594 
L 193.151504 306.7841 
L 193.577092 306.7841 
L 193.577092 306.080353 
L 193.71795 306.080353 
L 193.71795 304.67286 
L 193.835043 304.67286 
L 193.848779 303.265366 
L 194.056081 303.265366 
L 194.056081 302.561619 
L 194.184962 302.561619 
L 194.184962 301.857872 
L 194.467264 301.857872 
L 194.467264 301.154125 
L 194.908207 301.154125 
L 194.908207 300.450379 
L 195.209648 300.450379 
L 195.209648 299.746632 
L 195.456022 299.746632 
L 195.528348 298.339138 
L 195.575025 298.339138 
L 195.575025 297.635391 
L 195.74815 297.635391 
L 195.758664 295.524151 
L 195.917866 295.524151 
L 195.926213 293.41291 
L 196.251444 293.41291 
L 196.251444 292.709163 
L 196.576092 292.709163 
L 196.576092 292.005416 
L 196.76584 292.005416 
L 196.799986 289.894176 
L 196.98388 289.894176 
L 196.9998 288.486682 
L 197.191939 288.486682 
L 197.191939 287.782935 
L 197.321739 287.782935 
L 197.321739 287.079189 
L 197.61979 287.079189 
L 197.61979 286.375442 
L 197.797126 286.375442 
L 197.797126 285.671695 
L 198.071917 285.671695 
L 198.162773 283.560454 
L 198.305881 283.560454 
L 198.347138 280.745467 
L 198.438756 280.745467 
L 198.438756 280.04172 
L 198.556006 280.04172 
L 198.556006 279.337973 
L 199.102475 279.337973 
L 199.102475 278.634226 
L 199.401221 278.634226 
L 199.433378 276.522986 
L 199.554446 276.522986 
L 199.554446 275.819239 
L 199.681929 275.819239 
L 199.681929 275.115492 
L 199.894557 275.115492 
L 199.898054 273.004252 
L 200.162297 273.004252 
L 200.162297 272.300505 
L 200.339607 272.300505 
L 200.430303 270.893011 
L 200.696839 270.893011 
L 200.696839 270.189264 
L 200.901796 270.189264 
L 200.901796 269.485517 
L 201.142988 269.485517 
L 201.177706 268.078024 
L 202.288023 268.078024 
L 202.393125 265.263036 
L 202.822507 265.263036 
L 202.822507 264.559289 
L 203.141139 264.559289 
L 203.141139 263.151796 
L 203.519417 263.151796 
L 203.519417 262.448049 
L 204.309196 262.448049 
L 204.309196 261.744302 
L 204.431025 261.744302 
L 204.431025 260.336808 
L 204.77712 260.336808 
L 204.77712 259.633062 
L 205.119355 259.633062 
L 205.144295 256.114327 
L 205.40724 256.114327 
L 205.40724 254.706834 
L 205.532806 254.706834 
L 205.532806 253.29934 
L 205.684728 253.29934 
L 205.706347 249.780606 
L 205.827572 249.780606 
L 205.827572 248.373112 
L 206.045472 248.373112 
L 206.045472 247.669365 
L 206.172825 247.669365 
L 206.172825 246.965618 
L 206.583107 246.965618 
L 206.583107 246.261871 
L 206.918315 246.261871 
L 206.918315 245.558125 
L 207.749904 245.558125 
L 207.779482 242.03939 
L 207.932908 242.03939 
L 208.037861 240.631897 
L 208.162918 240.631897 
L 208.168971 239.224403 
L 208.3378 239.224403 
L 208.3378 237.816909 
L 208.517291 237.816909 
L 208.517291 237.113162 
L 208.639717 237.113162 
L 208.644458 234.298175 
L 208.984377 234.298175 
L 209.065943 230.779441 
L 209.171538 230.779441 
L 209.277791 227.260707 
L 209.296219 227.260707 
L 209.329581 224.445719 
L 209.538971 224.445719 
L 209.621957 219.519491 
L 209.755455 219.519491 
L 209.798278 217.408251 
L 209.949755 217.408251 
L 210.036812 214.593263 
L 210.075766 214.593263 
L 210.184482 210.370782 
L 210.203287 210.370782 
L 210.283862 208.963289 
L 210.348773 208.963289 
L 210.42226 205.444554 
L 210.629357 205.444554 
L 210.683541 202.629567 
L 210.74731 202.629567 
L 210.789364 199.110833 
L 210.985648 199.110833 
L 211.061343 196.295845 
L 211.15587 196.295845 
L 211.266881 193.480858 
L 211.311133 193.480858 
L 211.311133 192.777111 
L 211.665154 192.777111 
L 211.665154 192.073364 
L 212.00042 192.073364 
L 212.07278 190.665871 
L 220.284301 190.665871 
L 220.368885 187.850883 
L 220.468566 187.850883 
L 220.468566 186.44339 
L 220.615873 186.44339 
L 220.704073 182.924655 
L 220.814011 182.924655 
L 220.814011 182.220909 
L 221.116831 182.220909 
L 221.116831 181.517162 
L 221.557542 181.517162 
L 221.557542 180.813415 
L 224.029093 180.813415 
L 224.029093 180.109668 
L 225.225831 180.109668 
L 225.32989 178.702174 
L 225.688685 178.702174 
L 225.688685 177.294681 
L 227.17965 177.294681 
L 227.17965 175.887187 
L 230.999116 175.887187 
L 230.999116 175.18344 
L 231.592801 175.18344 
L 231.592801 174.479693 
L 237.142234 174.479693 
L 237.142234 173.0722 
L 237.263686 173.0722 
L 237.324332 170.960959 
L 237.495116 170.960959 
L 237.495116 169.553465 
L 238.300649 169.553465 
L 238.408765 166.738478 
L 238.488098 166.738478 
L 238.488098 165.330984 
L 238.805138 165.330984 
L 238.870115 161.81225 
L 239.011791 161.81225 
L 239.057491 160.404756 
L 239.407118 160.404756 
L 239.407118 159.70101 
L 240.26276 159.70101 
L 240.34711 157.589769 
L 240.420766 157.589769 
L 240.521471 155.478528 
L 240.584541 155.478528 
L 240.658565 151.959794 
L 240.78036 151.959794 
L 240.856289 149.144807 
L 240.935627 149.144807 
L 241.021987 147.033566 
L 242.910005 147.033566 
L 242.963893 144.218579 
L 243.029981 144.218579 
L 243.10202 142.107338 
L 243.2599 142.107338 
L 243.2599 141.403592 
L 243.383085 141.403592 
L 243.418445 139.996098 
L 243.532231 139.996098 
L 243.613692 138.588604 
L 243.816929 138.588604 
L 243.844187 136.477364 
L 243.987117 136.477364 
L 244.084841 132.254883 
L 244.114223 132.254883 
L 244.114223 130.847389 
L 247.14734 130.847389 
L 247.215867 128.736148 
L 247.285036 128.736148 
L 247.351874 126.624908 
L 249.187414 126.624908 
L 249.249227 125.217414 
L 249.342694 125.217414 
L 249.39054 123.106174 
L 249.487855 123.106174 
L 249.598367 117.476199 
L 249.649691 117.476199 
L 249.694216 113.957465 
L 250.880179 113.957465 
L 250.905337 112.549971 
L 253.028502 112.549971 
L 253.124257 109.734983 
L 253.16503 109.734983 
L 253.222706 108.32749 
L 253.518231 108.32749 
L 253.518231 107.623743 
L 254.363585 107.623743 
L 254.454757 105.512502 
L 254.638757 105.512502 
L 254.638757 104.105009 
L 254.901972 104.105009 
L 255.001849 100.586275 
L 255.091225 100.586275 
L 255.175909 98.475034 
L 255.32873 98.475034 
L 255.38942 94.9563 
L 255.48288 94.9563 
L 255.526519 93.548806 
L 255.764158 93.548806 
L 255.764158 92.845059 
L 257.884482 92.845059 
L 257.886206 90.733819 
L 261.587543 90.733819 
L 261.682278 82.992603 
L 261.702207 82.992603 
L 261.702207 81.58511 
L 264.882268 81.58511 
L 264.988203 77.362629 
L 265.000963 77.362629 
L 265.013619 75.251388 
L 266.114882 75.251388 
L 266.114882 73.140148 
L 266.568455 73.140148 
L 266.634064 71.028907 
L 267.398717 71.028907 
L 267.43595 67.510173 
L 271.106641 67.510173 
L 271.194781 62.583945 
L 271.756955 62.583945 
L 271.849715 54.84273 
L 271.905586 54.84273 
L 271.955006 53.435236 
L 274.142692 53.435236 
L 274.231451 47.805261 
L 274.289193 47.805261 
L 274.289193 47.101514 
L 274.683953 47.101514 
L 274.767225 43.58278 
L 275.221692 43.58278 
L 275.269177 39.360299 
L 287.251572 39.360299 
L 287.278281 36.545312 
L 289.993126 36.545312 
L 289.993126 35.841565 
L 292.13697 35.841565 
L 292.141305 34.434071 
L 296.011618 34.434071 
L 296.022199 33.026577 
L 297.348202 33.026577 
L 297.369603 28.804096 
L 297.928762 28.804096 
L 297.942809 25.989109 
L 416.908065 25.989109 
L 416.908065 25.989109 
" style="fill:none;stroke:#000080;stroke-linecap:square;stroke-width:1.5;"/>
   </g>
   <g id="line2d_8">
    <defs>
     <path d="M 0 6 
C 1.591219 6 3.117479 5.367802 4.242641 4.242641 
C 5.367802 3.117479 6 1.591219 6 0 
C 6 -1.591219 5.367802 -3.117479 4.242641 -4.242641 
C 3.117479 -5.367802 1.591219 -6 0 -6 
C -1.591219 -6 -3.117479 -5.367802 -4.242641 -4.242641 
C -5.367802 -3.117479 -6 -1.591219 -6 0 
C -6 1.591219 -5.367802 3.117479 -4.242641 4.242641 
C -3.117479 5.367802 -1.591219 6 0 6 
z
" id="m9281142b74" style="stroke:#000080;stroke-width:1.5;"/>
    </defs>
    <g>
     <use style="fill:none;stroke:#000080;stroke-width:1.5;" x="192.88554202624067" xlink:href="#m9281142b74" y="308.1915938652688"/>
     <use style="fill:none;stroke:#000080;stroke-width:1.5;" x="255.38942038989637" xlink:href="#m9281142b74" y="96.3637934381673"/>
     <use style="fill:none;stroke:#000080;stroke-width:1.5;" x="297.9428094985018" xlink:href="#m9281142b74" y="26.692855756163794"/>
     <use style="fill:none;stroke:#000080;stroke-width:1.5;" x="297.9428094985018" xlink:href="#m9281142b74" y="25.989108910891048"/>
     <use style="fill:none;stroke:#000080;stroke-width:1.5;" x="416.908064516129" xlink:href="#m9281142b74" y="25.989108910891048"/>
    </g>
   </g>
   <g id="line2d_9">
    <path d="M -15527.946774 743.810891 
" style="fill:none;stroke:#000080;stroke-linecap:square;stroke-width:1.5;"/>
    <g>
     <use style="fill:none;stroke:#000080;stroke-width:1.5;" x="-15527.946774193548" xlink:href="#m9281142b74" y="743.810891089109"/>
    </g>
   </g>
   <g id="line2d_10">
    <path clip-path="url(#pbe88149655)" d="M 313.370091 25.989109 
" style="fill:none;stroke:#000080;stroke-linecap:square;"/>
    <defs>
     <path d="M -12 12 
L 12 -12 
M -12 -12 
L 12 12 
" id="mf7b508e488" style="stroke:#000080;stroke-width:3.0;"/>
    </defs>
    <g clip-path="url(#pbe88149655)">
     <use style="fill:#000080;stroke:#000080;stroke-width:3.0;" x="313.3700910488944" xlink:href="#mf7b508e488" y="25.989108910891048"/>
    </g>
   </g>
   <g id="line2d_11">
    <defs>
     <path d="M 0 1.5 
C 0.397805 1.5 0.77937 1.341951 1.06066 1.06066 
C 1.341951 0.77937 1.5 0.397805 1.5 0 
C 1.5 -0.397805 1.341951 -0.77937 1.06066 -1.06066 
C 0.77937 -1.341951 0.397805 -1.5 0 -1.5 
C -0.397805 -1.5 -0.77937 -1.341951 -1.06066 -1.06066 
C -1.341951 -0.77937 -1.5 -0.397805 -1.5 0 
C -1.5 0.397805 -1.341951 0.77937 -1.06066 1.06066 
C -0.77937 1.341951 -0.397805 1.5 0 1.5 
z
" id="m317e77bba8" style="stroke:#ff00ff;stroke-width:0.5;"/>
    </defs>
    <g>
     <use style="fill:#ff00ff;stroke:#ff00ff;stroke-width:0.5;" x="410.93803555139294" xlink:href="#m317e77bba8" y="138.58860415453307"/>
     <use style="fill:#ff00ff;stroke:#ff00ff;stroke-width:0.5;" x="410.93803555139294" xlink:href="#m317e77bba8" y="138.58860415453307"/>
    </g>
   </g>
   <g id="line2d_12">
    <path d="M 178.591917 384.9 
L 178.591917 384.196253 
L 179.319816 384.196253 
L 179.402642 381.381266 
L 179.974038 381.381266 
L 179.974038 380.677519 
L 181.159693 380.677519 
L 181.159693 379.973772 
L 181.447582 379.973772 
L 181.447582 379.270025 
L 181.931021 379.270025 
L 181.931021 378.566278 
L 182.373804 378.566278 
L 182.373804 377.862532 
L 184.2352 377.862532 
L 184.2352 377.158785 
L 185.001152 377.158785 
L 185.001152 375.047544 
L 185.347854 375.047544 
L 185.424548 372.936304 
L 185.954203 372.936304 
L 185.954203 372.232557 
L 186.145218 372.232557 
L 186.145218 371.52881 
L 186.503419 371.52881 
L 186.503419 370.825063 
L 187.698964 370.825063 
L 187.698964 368.713823 
L 188.160521 368.713823 
L 188.160521 367.306329 
L 188.354214 367.306329 
L 188.354214 366.602582 
L 188.914082 366.602582 
L 188.914082 365.898835 
L 189.35159 365.898835 
L 189.35159 365.195088 
L 189.532558 365.195088 
L 189.532558 364.491341 
L 191.250956 364.491341 
L 191.250956 363.787595 
L 191.926597 363.787595 
L 191.926597 363.083848 
L 193.241031 363.083848 
L 193.241031 361.676354 
L 193.82359 361.676354 
L 193.864793 358.861367 
L 194.491742 358.861367 
L 194.536179 357.453873 
L 194.675585 357.453873 
L 194.675585 356.750126 
L 195.513477 356.750126 
L 195.598326 355.342632 
L 196.123571 355.342632 
L 196.123571 354.638886 
L 197.083196 354.638886 
L 197.083196 353.935139 
L 197.559719 353.935139 
L 197.575236 351.823898 
L 197.750999 351.823898 
L 197.750999 350.416405 
L 198.546723 350.416405 
L 198.546723 349.712658 
L 199.950454 349.712658 
L 199.950454 349.008911 
L 200.578391 349.008911 
L 200.578391 348.305164 
L 200.723825 348.305164 
L 200.723825 346.89767 
L 201.21072 346.89767 
L 201.223913 344.082683 
L 201.969739 344.082683 
L 201.969739 343.378936 
L 202.226618 343.378936 
L 202.226618 341.971442 
L 203.581849 341.971442 
L 203.676652 339.156455 
L 204.064994 339.156455 
L 204.064994 338.452708 
L 204.316381 338.452708 
L 204.415296 337.045215 
L 204.486702 337.045215 
L 204.486702 336.341468 
L 205.160906 336.341468 
L 205.160906 335.637721 
L 205.27271 335.637721 
L 205.27271 334.933974 
L 205.737389 334.933974 
L 205.737389 334.230227 
L 206.515462 334.230227 
L 206.61426 331.41524 
L 206.893988 331.41524 
L 206.893988 330.007746 
L 207.500648 330.007746 
L 207.602668 327.896506 
L 207.762233 327.896506 
L 207.779482 325.081518 
L 208.045165 325.081518 
L 208.045165 324.377771 
L 208.526824 324.377771 
L 208.526824 322.970278 
L 209.534415 322.970278 
L 209.534415 322.266531 
L 209.848884 322.266531 
L 209.848884 321.562784 
L 210.025669 321.562784 
L 210.025669 320.859037 
L 210.485681 320.859037 
L 210.485681 320.15529 
L 210.668382 320.15529 
L 210.760258 318.747797 
L 210.976035 318.747797 
L 210.976035 318.04405 
L 211.376298 318.04405 
L 211.376298 317.340303 
L 211.52901 317.340303 
L 211.52901 315.932809 
L 211.64131 315.932809 
L 211.64131 313.821569 
L 212.038158 313.821569 
L 212.038158 313.117822 
L 212.551974 313.117822 
L 212.551974 311.710328 
L 212.818329 311.710328 
L 212.910666 310.302834 
L 213.463558 310.302834 
L 213.4951 308.191594 
L 213.606574 308.191594 
L 213.606574 307.487847 
L 214.363523 307.487847 
L 214.383731 306.080353 
L 215.106487 306.080353 
L 215.126038 303.969113 
L 215.435691 303.969113 
L 215.435691 302.561619 
L 215.632835 302.561619 
L 215.632835 301.857872 
L 215.890171 301.857872 
L 215.890171 301.154125 
L 216.248775 301.154125 
L 216.248775 300.450379 
L 216.360044 300.450379 
L 216.378535 298.339138 
L 216.627523 298.339138 
L 216.716256 296.227897 
L 216.961551 296.227897 
L 216.961551 295.524151 
L 217.457073 295.524151 
L 217.457073 294.820404 
L 217.663534 294.820404 
L 217.663534 293.41291 
L 218.124559 293.41291 
L 218.213782 292.005416 
L 218.375034 292.005416 
L 218.375034 291.30167 
L 218.867765 291.30167 
L 218.884305 288.486682 
L 219.230354 288.486682 
L 219.31604 284.967948 
L 219.446159 284.967948 
L 219.531028 283.560454 
L 219.631578 283.560454 
L 219.631578 282.856707 
L 219.992167 282.856707 
L 219.992167 281.449214 
L 220.262399 281.449214 
L 220.262399 280.745467 
L 220.394901 280.745467 
L 220.394901 280.04172 
L 220.665918 280.04172 
L 220.665918 279.337973 
L 220.913116 279.337973 
L 220.96319 277.93048 
L 221.196311 277.93048 
L 221.196311 275.819239 
L 221.938008 275.819239 
L 222.023795 273.707998 
L 222.202175 273.707998 
L 222.202175 273.004252 
L 222.334071 273.004252 
L 222.411297 271.596758 
L 222.574526 271.596758 
L 222.629946 270.189264 
L 223.128275 270.189264 
L 223.128275 269.485517 
L 223.38997 269.485517 
L 223.38997 268.781771 
L 223.532829 268.781771 
L 223.626755 266.67053 
L 223.706345 266.67053 
L 223.781424 263.855543 
L 223.871911 263.855543 
L 223.936236 262.448049 
L 224.01474 262.448049 
L 224.01474 261.744302 
L 224.162612 261.744302 
L 224.162612 261.040555 
L 224.469544 261.040555 
L 224.570736 258.929315 
L 224.713848 258.929315 
L 224.805287 255.41058 
L 225.245662 255.41058 
L 225.245662 254.706834 
L 225.426167 254.706834 
L 225.426167 253.29934 
L 225.761312 253.29934 
L 225.776252 251.891846 
L 226.019968 251.891846 
L 226.019968 249.780606 
L 226.200901 249.780606 
L 226.200901 248.373112 
L 226.554182 248.373112 
L 226.632059 246.965618 
L 226.783836 246.965618 
L 226.837191 245.558125 
L 226.906207 245.558125 
L 226.94615 243.446884 
L 227.05406 243.446884 
L 227.05406 242.03939 
L 227.386048 242.03939 
L 227.475467 239.92815 
L 227.583424 239.92815 
L 227.583424 239.224403 
L 227.781106 239.224403 
L 227.781106 238.520656 
L 227.932884 238.520656 
L 227.979573 237.113162 
L 228.124541 237.113162 
L 228.146952 235.001922 
L 228.445131 235.001922 
L 228.445131 234.298175 
L 228.743285 234.298175 
L 228.743285 232.186935 
L 228.919529 232.186935 
L 228.921453 230.075694 
L 229.102036 230.075694 
L 229.178716 228.6682 
L 229.265556 228.6682 
L 229.347817 226.55696 
L 229.380354 226.55696 
L 229.428837 223.741972 
L 229.645957 223.741972 
L 229.645957 223.038226 
L 229.804658 223.038226 
L 229.871145 219.519491 
L 230.261464 219.519491 
L 230.261464 218.815745 
L 230.434337 218.815745 
L 230.434337 217.408251 
L 230.717612 217.408251 
L 230.805353 215.29701 
L 230.857481 215.29701 
L 230.9438 212.482023 
L 231.256775 212.482023 
L 231.354098 211.074529 
L 231.371787 211.074529 
L 231.436814 209.667036 
L 231.638023 209.667036 
L 231.638023 208.259542 
L 231.802358 208.259542 
L 231.904934 206.148301 
L 232.023809 206.148301 
L 232.051861 204.037061 
L 232.447532 204.037061 
L 232.453287 201.92582 
L 232.676182 201.92582 
L 232.683506 199.110833 
L 232.805629 199.110833 
L 232.874714 195.592099 
L 232.941576 195.592099 
L 232.941576 194.888352 
L 233.329141 194.888352 
L 233.421848 192.073364 
L 233.517311 192.073364 
L 233.517311 191.369618 
L 233.6541 191.369618 
L 233.6541 190.665871 
L 233.88012 190.665871 
L 233.943678 189.258377 
L 234.205253 189.258377 
L 234.255005 187.147136 
L 234.424321 187.147136 
L 234.45179 185.035896 
L 234.594613 185.035896 
L 234.662519 182.924655 
L 234.769188 182.924655 
L 234.769188 181.517162 
L 234.919225 181.517162 
L 235.021752 177.294681 
L 235.087652 177.294681 
L 235.172669 175.18344 
L 235.658672 175.18344 
L 235.755051 172.368453 
L 235.780942 172.368453 
L 235.842535 169.553465 
L 236.094577 169.553465 
L 236.122874 168.145972 
L 236.321343 168.145972 
L 236.324111 166.738478 
L 236.770161 166.738478 
L 236.873721 163.923491 
L 236.990247 163.923491 
L 236.990247 163.219744 
L 237.369297 163.219744 
L 237.369297 162.515997 
L 237.667546 162.515997 
L 237.667546 161.81225 
L 238.489983 161.81225 
L 238.509771 159.70101 
L 238.649049 159.70101 
L 238.721632 157.589769 
L 238.965382 157.589769 
L 239.025296 154.774782 
L 239.841524 154.774782 
L 239.841524 154.071035 
L 239.961045 154.071035 
L 239.961045 153.367288 
L 247.24803 153.367288 
L 247.24803 152.663541 
L 251.663741 152.663541 
L 251.663741 151.959794 
L 267.448781 151.959794 
L 267.448781 151.256047 
L 268.160396 151.256047 
L 268.160396 149.848554 
L 273.657295 149.848554 
L 273.657295 149.144807 
L 277.434082 149.144807 
L 277.434082 148.44106 
L 279.00093 148.44106 
L 279.00093 147.033566 
L 281.341502 147.033566 
L 281.341502 145.626073 
L 325.027887 145.626073 
L 325.027887 144.922326 
L 368.629613 144.922326 
L 368.629613 144.218579 
L 369.094298 144.218579 
L 369.094298 143.514832 
L 376.967693 143.514832 
L 376.967693 142.811085 
L 382.536031 142.811085 
L 382.536031 141.403592 
L 387.406492 141.403592 
L 387.406492 140.699845 
L 399.896245 140.699845 
L 399.896245 139.996098 
L 405.991915 139.996098 
L 405.991915 139.292351 
L 410.938036 139.292351 
L 410.938036 138.588604 
L 416.908065 138.588604 
L 416.908065 138.588604 
" style="fill:none;stroke:#ff00ff;stroke-linecap:square;stroke-width:1.5;"/>
   </g>
   <g id="line2d_13">
    <defs>
     <path d="M -0 8.485281 
L 5.091169 0 
L 0 -8.485281 
L -5.091169 -0 
z
" id="m9d64ff9f75" style="stroke:#ff00ff;stroke-linejoin:miter;stroke-width:1.5;"/>
    </defs>
    <g>
     <use style="fill:none;stroke:#ff00ff;stroke-linejoin:miter;stroke-width:1.5;" x="233.6541000095565" xlink:href="#m9d64ff9f75" y="191.36961754999027"/>
     <use style="fill:none;stroke:#ff00ff;stroke-linejoin:miter;stroke-width:1.5;" x="387.4064918187784" xlink:href="#m9d64ff9f75" y="140.69984469035134"/>
     <use style="fill:none;stroke:#ff00ff;stroke-linejoin:miter;stroke-width:1.5;" x="410.93803555139294" xlink:href="#m9d64ff9f75" y="138.58860415453307"/>
     <use style="fill:none;stroke:#ff00ff;stroke-linejoin:miter;stroke-width:1.5;" x="416.908064516129" xlink:href="#m9d64ff9f75" y="138.58860415453307"/>
    </g>
   </g>
   <g id="line2d_14">
    <path d="M -15527.946774 743.810891 
" style="fill:none;stroke:#ff00ff;stroke-linecap:square;stroke-width:1.5;"/>
    <g>
     <use style="fill:none;stroke:#ff00ff;stroke-linejoin:miter;stroke-width:1.5;" x="-15527.946774193548" xlink:href="#m9d64ff9f75" y="743.810891089109"/>
    </g>
   </g>
   <g id="line2d_15">
    <path clip-path="url(#pbe88149655)" d="M 349.555031 144.922326 
" style="fill:none;stroke:#ff00ff;stroke-linecap:square;"/>
    <defs>
     <path d="M -12 12 
L 12 -12 
M -12 -12 
L 12 12 
" id="m0ff76eaecf" style="stroke:#ff00ff;stroke-width:3.0;"/>
    </defs>
    <g clip-path="url(#pbe88149655)">
     <use style="fill:#ff00ff;stroke:#ff00ff;stroke-width:3.0;" x="349.5550306795405" xlink:href="#m0ff76eaecf" y="144.92232576198793"/>
    </g>
   </g>
   <g id="line2d_16">
    <path d="M 416.908065 138.588604 
L 456.770202 377.721782 
" style="fill:none;stroke:#ff00ff;stroke-linecap:square;stroke-width:1.5;"/>
    <g>
     <use style="fill:none;stroke:#ff00ff;stroke-linejoin:miter;stroke-width:1.5;" x="416.908064516129" xlink:href="#m9d64ff9f75" y="138.58860415453307"/>
     <use style="fill:none;stroke:#ff00ff;stroke-linejoin:miter;stroke-width:1.5;" x="456.77020161290324" xlink:href="#m9d64ff9f75" y="377.7217821782178"/>
    </g>
   </g>
   <g id="line2d_17">
    <path d="M 416.908065 25.989109 
L 456.770202 205.444554 
" style="fill:none;stroke:#000080;stroke-linecap:square;stroke-width:1.5;"/>
    <g>
     <use style="fill:none;stroke:#000080;stroke-width:1.5;" x="416.908064516129" xlink:href="#m9281142b74" y="25.989108910891048"/>
     <use style="fill:none;stroke:#000080;stroke-width:1.5;" x="456.77020161290324" xlink:href="#m9281142b74" y="205.4445544554455"/>
    </g>
   </g>
   <g id="line2d_18">
    <path d="M 416.908065 384.9 
L 416.908065 25.989109 
" style="fill:none;stroke:#000000;stroke-linecap:square;"/>
   </g>
   <g id="patch_3">
    <path d="M 54.525 22.4 
L 503.88 22.4 
" style="fill:none;stroke:#000000;stroke-linecap:square;stroke-linejoin:miter;"/>
   </g>
   <g id="patch_4">
    <path d="M 503.88 384.9 
L 503.88 22.4 
" style="fill:none;stroke:#000000;stroke-linecap:square;stroke-linejoin:miter;"/>
   </g>
   <g id="patch_5">
    <path d="M 54.525 384.9 
L 503.88 384.9 
" style="fill:none;stroke:#000000;stroke-linecap:square;stroke-linejoin:miter;"/>
   </g>
   <g id="patch_6">
    <path d="M 54.525 384.9 
L 54.525 22.4 
" style="fill:none;stroke:#000000;stroke-linecap:square;stroke-linejoin:miter;"/>
   </g>
   <g id="matplotlib.axis_1">
    <g id="xtick_1">
     <g id="line2d_19">
      <path clip-path="url(#pbe88149655)" d="M 54.525 384.9 
L 54.525 22.4 
" style="fill:none;stroke:#000000;stroke-dasharray:1.000000,3.000000;stroke-dashoffset:0.0;stroke-width:0.5;"/>
     </g>
     <g id="line2d_20">
      <defs>
       <path d="M 0 0 
L 0 -4 
" id="m025e29a286" style="stroke:#000000;stroke-width:0.5;"/>
      </defs>
      <g>
       <use style="stroke:#000000;stroke-width:0.5;" x="54.52500000000001" xlink:href="#m025e29a286" y="384.9"/>
      </g>
     </g>
     <g id="line2d_21">
      <defs>
       <path d="M 0 0 
L 0 4 
" id="m957948ce30" style="stroke:#000000;stroke-width:0.5;"/>
      </defs>
      <g>
       <use style="stroke:#000000;stroke-width:0.5;" x="54.52500000000001" xlink:href="#m957948ce30" y="22.399999999999977"/>
      </g>
     </g>
     <g id="text_1">
      <!-- 0 -->
      <defs>
       <path d="M 31.78125 66.40625 
Q 24.171875 66.40625 20.328125 58.90625 
Q 16.5 51.421875 16.5 36.375 
Q 16.5 21.390625 20.328125 13.890625 
Q 24.171875 6.390625 31.78125 6.390625 
Q 39.453125 6.390625 43.28125 13.890625 
Q 47.125 21.390625 47.125 36.375 
Q 47.125 51.421875 43.28125 58.90625 
Q 39.453125 66.40625 31.78125 66.40625 
M 31.78125 74.21875 
Q 44.046875 74.21875 50.515625 64.515625 
Q 56.984375 54.828125 56.984375 36.375 
Q 56.984375 17.96875 50.515625 8.265625 
Q 44.046875 -1.421875 31.78125 -1.421875 
Q 19.53125 -1.421875 13.0625 8.265625 
Q 6.59375 17.96875 6.59375 36.375 
Q 6.59375 54.828125 13.0625 64.515625 
Q 19.53125 74.21875 31.78125 74.21875 
" id="BitstreamVeraSans-Roman-30"/>
      </defs>
      <g transform="translate(48.16250000000001 404.09687499999995)scale(0.2 -0.2)">
       <use xlink:href="#BitstreamVeraSans-Roman-30"/>
      </g>
     </g>
    </g>
    <g id="xtick_2">
     <g id="line2d_22">
      <path clip-path="url(#pbe88149655)" d="M 106.294009 384.9 
L 106.294009 22.4 
" style="fill:none;stroke:#000000;stroke-dasharray:1.000000,3.000000;stroke-dashoffset:0.0;stroke-width:0.5;"/>
     </g>
     <g id="line2d_23">
      <g>
       <use style="stroke:#000000;stroke-width:0.5;" x="106.29400921658987" xlink:href="#m025e29a286" y="384.9"/>
      </g>
     </g>
     <g id="line2d_24">
      <g>
       <use style="stroke:#000000;stroke-width:0.5;" x="106.29400921658987" xlink:href="#m957948ce30" y="22.399999999999977"/>
      </g>
     </g>
     <g id="text_2">
      <!-- 1 -->
      <defs>
       <path d="M 12.40625 8.296875 
L 28.515625 8.296875 
L 28.515625 63.921875 
L 10.984375 60.40625 
L 10.984375 69.390625 
L 28.421875 72.90625 
L 38.28125 72.90625 
L 38.28125 8.296875 
L 54.390625 8.296875 
L 54.390625 0 
L 12.40625 0 
z
" id="BitstreamVeraSans-Roman-31"/>
      </defs>
      <g transform="translate(99.93150921658987 404.09687499999995)scale(0.2 -0.2)">
       <use xlink:href="#BitstreamVeraSans-Roman-31"/>
      </g>
     </g>
    </g>
    <g id="xtick_3">
     <g id="line2d_25">
      <path clip-path="url(#pbe88149655)" d="M 158.063018 384.9 
L 158.063018 22.4 
" style="fill:none;stroke:#000000;stroke-dasharray:1.000000,3.000000;stroke-dashoffset:0.0;stroke-width:0.5;"/>
     </g>
     <g id="line2d_26">
      <g>
       <use style="stroke:#000000;stroke-width:0.5;" x="158.0630184331797" xlink:href="#m025e29a286" y="384.9"/>
      </g>
     </g>
     <g id="line2d_27">
      <g>
       <use style="stroke:#000000;stroke-width:0.5;" x="158.0630184331797" xlink:href="#m957948ce30" y="22.399999999999977"/>
      </g>
     </g>
     <g id="text_3">
      <!-- 2 -->
      <defs>
       <path d="M 19.1875 8.296875 
L 53.609375 8.296875 
L 53.609375 0 
L 7.328125 0 
L 7.328125 8.296875 
Q 12.9375 14.109375 22.625 23.890625 
Q 32.328125 33.6875 34.8125 36.53125 
Q 39.546875 41.84375 41.421875 45.53125 
Q 43.3125 49.21875 43.3125 52.78125 
Q 43.3125 58.59375 39.234375 62.25 
Q 35.15625 65.921875 28.609375 65.921875 
Q 23.96875 65.921875 18.8125 64.3125 
Q 13.671875 62.703125 7.8125 59.421875 
L 7.8125 69.390625 
Q 13.765625 71.78125 18.9375 73 
Q 24.125 74.21875 28.421875 74.21875 
Q 39.75 74.21875 46.484375 68.546875 
Q 53.21875 62.890625 53.21875 53.421875 
Q 53.21875 48.921875 51.53125 44.890625 
Q 49.859375 40.875 45.40625 35.40625 
Q 44.1875 33.984375 37.640625 27.21875 
Q 31.109375 20.453125 19.1875 8.296875 
" id="BitstreamVeraSans-Roman-32"/>
      </defs>
      <g transform="translate(151.7005184331797 404.09687499999995)scale(0.2 -0.2)">
       <use xlink:href="#BitstreamVeraSans-Roman-32"/>
      </g>
     </g>
    </g>
    <g id="xtick_4">
     <g id="line2d_28">
      <path clip-path="url(#pbe88149655)" d="M 209.832028 384.9 
L 209.832028 22.4 
" style="fill:none;stroke:#000000;stroke-dasharray:1.000000,3.000000;stroke-dashoffset:0.0;stroke-width:0.5;"/>
     </g>
     <g id="line2d_29">
      <g>
       <use style="stroke:#000000;stroke-width:0.5;" x="209.8320276497696" xlink:href="#m025e29a286" y="384.9"/>
      </g>
     </g>
     <g id="line2d_30">
      <g>
       <use style="stroke:#000000;stroke-width:0.5;" x="209.8320276497696" xlink:href="#m957948ce30" y="22.399999999999977"/>
      </g>
     </g>
     <g id="text_4">
      <!-- 3 -->
      <defs>
       <path d="M 40.578125 39.3125 
Q 47.65625 37.796875 51.625 33 
Q 55.609375 28.21875 55.609375 21.1875 
Q 55.609375 10.40625 48.1875 4.484375 
Q 40.765625 -1.421875 27.09375 -1.421875 
Q 22.515625 -1.421875 17.65625 -0.515625 
Q 12.796875 0.390625 7.625 2.203125 
L 7.625 11.71875 
Q 11.71875 9.328125 16.59375 8.109375 
Q 21.484375 6.890625 26.8125 6.890625 
Q 36.078125 6.890625 40.9375 10.546875 
Q 45.796875 14.203125 45.796875 21.1875 
Q 45.796875 27.640625 41.28125 31.265625 
Q 36.765625 34.90625 28.71875 34.90625 
L 20.21875 34.90625 
L 20.21875 43.015625 
L 29.109375 43.015625 
Q 36.375 43.015625 40.234375 45.921875 
Q 44.09375 48.828125 44.09375 54.296875 
Q 44.09375 59.90625 40.109375 62.90625 
Q 36.140625 65.921875 28.71875 65.921875 
Q 24.65625 65.921875 20.015625 65.03125 
Q 15.375 64.15625 9.8125 62.3125 
L 9.8125 71.09375 
Q 15.4375 72.65625 20.34375 73.4375 
Q 25.25 74.21875 29.59375 74.21875 
Q 40.828125 74.21875 47.359375 69.109375 
Q 53.90625 64.015625 53.90625 55.328125 
Q 53.90625 49.265625 50.4375 45.09375 
Q 46.96875 40.921875 40.578125 39.3125 
" id="BitstreamVeraSans-Roman-33"/>
      </defs>
      <g transform="translate(203.4695276497696 404.09687499999995)scale(0.2 -0.2)">
       <use xlink:href="#BitstreamVeraSans-Roman-33"/>
      </g>
     </g>
    </g>
    <g id="xtick_5">
     <g id="line2d_31">
      <path clip-path="url(#pbe88149655)" d="M 261.601037 384.9 
L 261.601037 22.4 
" style="fill:none;stroke:#000000;stroke-dasharray:1.000000,3.000000;stroke-dashoffset:0.0;stroke-width:0.5;"/>
     </g>
     <g id="line2d_32">
      <g>
       <use style="stroke:#000000;stroke-width:0.5;" x="261.60103686635944" xlink:href="#m025e29a286" y="384.9"/>
      </g>
     </g>
     <g id="line2d_33">
      <g>
       <use style="stroke:#000000;stroke-width:0.5;" x="261.60103686635944" xlink:href="#m957948ce30" y="22.399999999999977"/>
      </g>
     </g>
     <g id="text_5">
      <!-- 4 -->
      <defs>
       <path d="M 37.796875 64.3125 
L 12.890625 25.390625 
L 37.796875 25.390625 
z
M 35.203125 72.90625 
L 47.609375 72.90625 
L 47.609375 25.390625 
L 58.015625 25.390625 
L 58.015625 17.1875 
L 47.609375 17.1875 
L 47.609375 0 
L 37.796875 0 
L 37.796875 17.1875 
L 4.890625 17.1875 
L 4.890625 26.703125 
z
" id="BitstreamVeraSans-Roman-34"/>
      </defs>
      <g transform="translate(255.23853686635942 404.09687499999995)scale(0.2 -0.2)">
       <use xlink:href="#BitstreamVeraSans-Roman-34"/>
      </g>
     </g>
    </g>
    <g id="xtick_6">
     <g id="line2d_34">
      <path clip-path="url(#pbe88149655)" d="M 313.370046 384.9 
L 313.370046 22.4 
" style="fill:none;stroke:#000000;stroke-dasharray:1.000000,3.000000;stroke-dashoffset:0.0;stroke-width:0.5;"/>
     </g>
     <g id="line2d_35">
      <g>
       <use style="stroke:#000000;stroke-width:0.5;" x="313.3700460829493" xlink:href="#m025e29a286" y="384.9"/>
      </g>
     </g>
     <g id="line2d_36">
      <g>
       <use style="stroke:#000000;stroke-width:0.5;" x="313.3700460829493" xlink:href="#m957948ce30" y="22.399999999999977"/>
      </g>
     </g>
     <g id="text_6">
      <!-- 5 -->
      <defs>
       <path d="M 10.796875 72.90625 
L 49.515625 72.90625 
L 49.515625 64.59375 
L 19.828125 64.59375 
L 19.828125 46.734375 
Q 21.96875 47.46875 24.109375 47.828125 
Q 26.265625 48.1875 28.421875 48.1875 
Q 40.625 48.1875 47.75 41.5 
Q 54.890625 34.8125 54.890625 23.390625 
Q 54.890625 11.625 47.5625 5.09375 
Q 40.234375 -1.421875 26.90625 -1.421875 
Q 22.3125 -1.421875 17.546875 -0.640625 
Q 12.796875 0.140625 7.71875 1.703125 
L 7.71875 11.625 
Q 12.109375 9.234375 16.796875 8.0625 
Q 21.484375 6.890625 26.703125 6.890625 
Q 35.15625 6.890625 40.078125 11.328125 
Q 45.015625 15.765625 45.015625 23.390625 
Q 45.015625 31 40.078125 35.4375 
Q 35.15625 39.890625 26.703125 39.890625 
Q 22.75 39.890625 18.8125 39.015625 
Q 14.890625 38.140625 10.796875 36.28125 
z
" id="BitstreamVeraSans-Roman-35"/>
      </defs>
      <g transform="translate(307.00754608294926 404.09687499999995)scale(0.2 -0.2)">
       <use xlink:href="#BitstreamVeraSans-Roman-35"/>
      </g>
     </g>
    </g>
    <g id="xtick_7">
     <g id="line2d_37">
      <path clip-path="url(#pbe88149655)" d="M 365.139055 384.9 
L 365.139055 22.4 
" style="fill:none;stroke:#000000;stroke-dasharray:1.000000,3.000000;stroke-dashoffset:0.0;stroke-width:0.5;"/>
     </g>
     <g id="line2d_38">
      <g>
       <use style="stroke:#000000;stroke-width:0.5;" x="365.13905529953917" xlink:href="#m025e29a286" y="384.9"/>
      </g>
     </g>
     <g id="line2d_39">
      <g>
       <use style="stroke:#000000;stroke-width:0.5;" x="365.13905529953917" xlink:href="#m957948ce30" y="22.399999999999977"/>
      </g>
     </g>
     <g id="text_7">
      <!-- 6 -->
      <defs>
       <path d="M 33.015625 40.375 
Q 26.375 40.375 22.484375 35.828125 
Q 18.609375 31.296875 18.609375 23.390625 
Q 18.609375 15.53125 22.484375 10.953125 
Q 26.375 6.390625 33.015625 6.390625 
Q 39.65625 6.390625 43.53125 10.953125 
Q 47.40625 15.53125 47.40625 23.390625 
Q 47.40625 31.296875 43.53125 35.828125 
Q 39.65625 40.375 33.015625 40.375 
M 52.59375 71.296875 
L 52.59375 62.3125 
Q 48.875 64.0625 45.09375 64.984375 
Q 41.3125 65.921875 37.59375 65.921875 
Q 27.828125 65.921875 22.671875 59.328125 
Q 17.53125 52.734375 16.796875 39.40625 
Q 19.671875 43.65625 24.015625 45.921875 
Q 28.375 48.1875 33.59375 48.1875 
Q 44.578125 48.1875 50.953125 41.515625 
Q 57.328125 34.859375 57.328125 23.390625 
Q 57.328125 12.15625 50.6875 5.359375 
Q 44.046875 -1.421875 33.015625 -1.421875 
Q 20.359375 -1.421875 13.671875 8.265625 
Q 6.984375 17.96875 6.984375 36.375 
Q 6.984375 53.65625 15.1875 63.9375 
Q 23.390625 74.21875 37.203125 74.21875 
Q 40.921875 74.21875 44.703125 73.484375 
Q 48.484375 72.75 52.59375 71.296875 
" id="BitstreamVeraSans-Roman-36"/>
      </defs>
      <g transform="translate(358.77655529953915 404.09687499999995)scale(0.2 -0.2)">
       <use xlink:href="#BitstreamVeraSans-Roman-36"/>
      </g>
     </g>
    </g>
    <g id="xtick_8">
     <g id="line2d_40">
      <path clip-path="url(#pbe88149655)" d="M 416.908065 384.9 
L 416.908065 22.4 
" style="fill:none;stroke:#000000;stroke-dasharray:1.000000,3.000000;stroke-dashoffset:0.0;stroke-width:0.5;"/>
     </g>
     <g id="line2d_41">
      <g>
       <use style="stroke:#000000;stroke-width:0.5;" x="416.908064516129" xlink:href="#m025e29a286" y="384.9"/>
      </g>
     </g>
     <g id="line2d_42">
      <g>
       <use style="stroke:#000000;stroke-width:0.5;" x="416.908064516129" xlink:href="#m957948ce30" y="22.399999999999977"/>
      </g>
     </g>
     <g id="text_8">
      <!-- 7 -->
      <defs>
       <path d="M 8.203125 72.90625 
L 55.078125 72.90625 
L 55.078125 68.703125 
L 28.609375 0 
L 18.3125 0 
L 43.21875 64.59375 
L 8.203125 64.59375 
z
" id="BitstreamVeraSans-Roman-37"/>
      </defs>
      <g transform="translate(410.545564516129 404.09687499999995)scale(0.2 -0.2)">
       <use xlink:href="#BitstreamVeraSans-Roman-37"/>
      </g>
     </g>
    </g>
    <g id="xtick_9">
     <g id="line2d_43">
      <path clip-path="url(#pbe88149655)" d="M 468.677074 384.9 
L 468.677074 22.4 
" style="fill:none;stroke:#000000;stroke-dasharray:1.000000,3.000000;stroke-dashoffset:0.0;stroke-width:0.5;"/>
     </g>
     <g id="line2d_44">
      <g>
       <use style="stroke:#000000;stroke-width:0.5;" x="468.67707373271884" xlink:href="#m025e29a286" y="384.9"/>
      </g>
     </g>
     <g id="line2d_45">
      <g>
       <use style="stroke:#000000;stroke-width:0.5;" x="468.67707373271884" xlink:href="#m957948ce30" y="22.399999999999977"/>
      </g>
     </g>
     <g id="text_9">
      <!-- 8 -->
      <defs>
       <path d="M 31.78125 34.625 
Q 24.75 34.625 20.71875 30.859375 
Q 16.703125 27.09375 16.703125 20.515625 
Q 16.703125 13.921875 20.71875 10.15625 
Q 24.75 6.390625 31.78125 6.390625 
Q 38.8125 6.390625 42.859375 10.171875 
Q 46.921875 13.96875 46.921875 20.515625 
Q 46.921875 27.09375 42.890625 30.859375 
Q 38.875 34.625 31.78125 34.625 
M 21.921875 38.8125 
Q 15.578125 40.375 12.03125 44.71875 
Q 8.5 49.078125 8.5 55.328125 
Q 8.5 64.0625 14.71875 69.140625 
Q 20.953125 74.21875 31.78125 74.21875 
Q 42.671875 74.21875 48.875 69.140625 
Q 55.078125 64.0625 55.078125 55.328125 
Q 55.078125 49.078125 51.53125 44.71875 
Q 48 40.375 41.703125 38.8125 
Q 48.828125 37.15625 52.796875 32.3125 
Q 56.78125 27.484375 56.78125 20.515625 
Q 56.78125 9.90625 50.3125 4.234375 
Q 43.84375 -1.421875 31.78125 -1.421875 
Q 19.734375 -1.421875 13.25 4.234375 
Q 6.78125 9.90625 6.78125 20.515625 
Q 6.78125 27.484375 10.78125 32.3125 
Q 14.796875 37.15625 21.921875 38.8125 
M 18.3125 54.390625 
Q 18.3125 48.734375 21.84375 45.5625 
Q 25.390625 42.390625 31.78125 42.390625 
Q 38.140625 42.390625 41.71875 45.5625 
Q 45.3125 48.734375 45.3125 54.390625 
Q 45.3125 60.0625 41.71875 63.234375 
Q 38.140625 66.40625 31.78125 66.40625 
Q 25.390625 66.40625 21.84375 63.234375 
Q 18.3125 60.0625 18.3125 54.390625 
" id="BitstreamVeraSans-Roman-38"/>
      </defs>
      <g transform="translate(462.3145737327188 404.09687499999995)scale(0.2 -0.2)">
       <use xlink:href="#BitstreamVeraSans-Roman-38"/>
      </g>
     </g>
    </g>
    <g id="xtick_10">
     <g id="line2d_46">
      <defs>
       <path d="M 0 0 
L 0 -2 
" id="mb5332016ac" style="stroke:#000000;stroke-width:0.5;"/>
      </defs>
      <g>
       <use style="stroke:#000000;stroke-width:0.5;" x="70.10902461999866" xlink:href="#mb5332016ac" y="384.9"/>
      </g>
     </g>
     <g id="line2d_47">
      <defs>
       <path d="M 0 0 
L 0 2 
" id="mf7854d2974" style="stroke:#000000;stroke-width:0.5;"/>
      </defs>
      <g>
       <use style="stroke:#000000;stroke-width:0.5;" x="70.10902461999866" xlink:href="#mf7854d2974" y="22.399999999999977"/>
      </g>
     </g>
    </g>
    <g id="xtick_11">
     <g id="line2d_48">
      <g>
       <use style="stroke:#000000;stroke-width:0.5;" x="85.69304923999731" xlink:href="#mb5332016ac" y="384.9"/>
      </g>
     </g>
     <g id="line2d_49">
      <g>
       <use style="stroke:#000000;stroke-width:0.5;" x="85.69304923999731" xlink:href="#mf7854d2974" y="22.399999999999977"/>
      </g>
     </g>
    </g>
    <g id="xtick_12">
     <g id="line2d_50">
      <g>
       <use style="stroke:#000000;stroke-width:0.5;" x="94.80911925301179" xlink:href="#mb5332016ac" y="384.9"/>
      </g>
     </g>
     <g id="line2d_51">
      <g>
       <use style="stroke:#000000;stroke-width:0.5;" x="94.80911925301179" xlink:href="#mf7854d2974" y="22.399999999999977"/>
      </g>
     </g>
    </g>
    <g id="xtick_13">
     <g id="line2d_52">
      <g>
       <use style="stroke:#000000;stroke-width:0.5;" x="101.27707385999595" xlink:href="#mb5332016ac" y="384.9"/>
      </g>
     </g>
     <g id="line2d_53">
      <g>
       <use style="stroke:#000000;stroke-width:0.5;" x="101.27707385999595" xlink:href="#mf7854d2974" y="22.399999999999977"/>
      </g>
     </g>
    </g>
    <g id="xtick_14">
     <g id="line2d_54">
      <g>
       <use style="stroke:#000000;stroke-width:0.5;" x="121.87803383658851" xlink:href="#mb5332016ac" y="384.9"/>
      </g>
     </g>
     <g id="line2d_55">
      <g>
       <use style="stroke:#000000;stroke-width:0.5;" x="121.87803383658851" xlink:href="#mf7854d2974" y="22.399999999999977"/>
      </g>
     </g>
    </g>
    <g id="xtick_15">
     <g id="line2d_56">
      <g>
       <use style="stroke:#000000;stroke-width:0.5;" x="137.46205845658716" xlink:href="#mb5332016ac" y="384.9"/>
      </g>
     </g>
     <g id="line2d_57">
      <g>
       <use style="stroke:#000000;stroke-width:0.5;" x="137.46205845658716" xlink:href="#mf7854d2974" y="22.399999999999977"/>
      </g>
     </g>
    </g>
    <g id="xtick_16">
     <g id="line2d_58">
      <g>
       <use style="stroke:#000000;stroke-width:0.5;" x="146.5781284696016" xlink:href="#mb5332016ac" y="384.9"/>
      </g>
     </g>
     <g id="line2d_59">
      <g>
       <use style="stroke:#000000;stroke-width:0.5;" x="146.5781284696016" xlink:href="#mf7854d2974" y="22.399999999999977"/>
      </g>
     </g>
    </g>
    <g id="xtick_17">
     <g id="line2d_60">
      <g>
       <use style="stroke:#000000;stroke-width:0.5;" x="153.04608307658583" xlink:href="#mb5332016ac" y="384.9"/>
      </g>
     </g>
     <g id="line2d_61">
      <g>
       <use style="stroke:#000000;stroke-width:0.5;" x="153.04608307658583" xlink:href="#mf7854d2974" y="22.399999999999977"/>
      </g>
     </g>
    </g>
    <g id="xtick_18">
     <g id="line2d_62">
      <g>
       <use style="stroke:#000000;stroke-width:0.5;" x="173.64704305317838" xlink:href="#mb5332016ac" y="384.9"/>
      </g>
     </g>
     <g id="line2d_63">
      <g>
       <use style="stroke:#000000;stroke-width:0.5;" x="173.64704305317838" xlink:href="#mf7854d2974" y="22.399999999999977"/>
      </g>
     </g>
    </g>
    <g id="xtick_19">
     <g id="line2d_64">
      <g>
       <use style="stroke:#000000;stroke-width:0.5;" x="189.23106767317705" xlink:href="#mb5332016ac" y="384.9"/>
      </g>
     </g>
     <g id="line2d_65">
      <g>
       <use style="stroke:#000000;stroke-width:0.5;" x="189.23106767317705" xlink:href="#mf7854d2974" y="22.399999999999977"/>
      </g>
     </g>
    </g>
    <g id="xtick_20">
     <g id="line2d_66">
      <g>
       <use style="stroke:#000000;stroke-width:0.5;" x="198.3471376861915" xlink:href="#mb5332016ac" y="384.9"/>
      </g>
     </g>
     <g id="line2d_67">
      <g>
       <use style="stroke:#000000;stroke-width:0.5;" x="198.3471376861915" xlink:href="#mf7854d2974" y="22.399999999999977"/>
      </g>
     </g>
    </g>
    <g id="xtick_21">
     <g id="line2d_68">
      <g>
       <use style="stroke:#000000;stroke-width:0.5;" x="204.81509229317567" xlink:href="#mb5332016ac" y="384.9"/>
      </g>
     </g>
     <g id="line2d_69">
      <g>
       <use style="stroke:#000000;stroke-width:0.5;" x="204.81509229317567" xlink:href="#mf7854d2974" y="22.399999999999977"/>
      </g>
     </g>
    </g>
    <g id="xtick_22">
     <g id="line2d_70">
      <g>
       <use style="stroke:#000000;stroke-width:0.5;" x="225.41605226976822" xlink:href="#mb5332016ac" y="384.9"/>
      </g>
     </g>
     <g id="line2d_71">
      <g>
       <use style="stroke:#000000;stroke-width:0.5;" x="225.41605226976822" xlink:href="#mf7854d2974" y="22.399999999999977"/>
      </g>
     </g>
    </g>
    <g id="xtick_23">
     <g id="line2d_72">
      <g>
       <use style="stroke:#000000;stroke-width:0.5;" x="241.0000768897669" xlink:href="#mb5332016ac" y="384.9"/>
      </g>
     </g>
     <g id="line2d_73">
      <g>
       <use style="stroke:#000000;stroke-width:0.5;" x="241.0000768897669" xlink:href="#mf7854d2974" y="22.399999999999977"/>
      </g>
     </g>
    </g>
    <g id="xtick_24">
     <g id="line2d_74">
      <g>
       <use style="stroke:#000000;stroke-width:0.5;" x="250.11614690278134" xlink:href="#mb5332016ac" y="384.9"/>
      </g>
     </g>
     <g id="line2d_75">
      <g>
       <use style="stroke:#000000;stroke-width:0.5;" x="250.11614690278134" xlink:href="#mf7854d2974" y="22.399999999999977"/>
      </g>
     </g>
    </g>
    <g id="xtick_25">
     <g id="line2d_76">
      <g>
       <use style="stroke:#000000;stroke-width:0.5;" x="256.58410150976556" xlink:href="#mb5332016ac" y="384.9"/>
      </g>
     </g>
     <g id="line2d_77">
      <g>
       <use style="stroke:#000000;stroke-width:0.5;" x="256.58410150976556" xlink:href="#mf7854d2974" y="22.399999999999977"/>
      </g>
     </g>
    </g>
    <g id="xtick_26">
     <g id="line2d_78">
      <g>
       <use style="stroke:#000000;stroke-width:0.5;" x="277.18506148635805" xlink:href="#mb5332016ac" y="384.9"/>
      </g>
     </g>
     <g id="line2d_79">
      <g>
       <use style="stroke:#000000;stroke-width:0.5;" x="277.18506148635805" xlink:href="#mf7854d2974" y="22.399999999999977"/>
      </g>
     </g>
    </g>
    <g id="xtick_27">
     <g id="line2d_80">
      <g>
       <use style="stroke:#000000;stroke-width:0.5;" x="292.7690861063567" xlink:href="#mb5332016ac" y="384.9"/>
      </g>
     </g>
     <g id="line2d_81">
      <g>
       <use style="stroke:#000000;stroke-width:0.5;" x="292.7690861063567" xlink:href="#mf7854d2974" y="22.399999999999977"/>
      </g>
     </g>
    </g>
    <g id="xtick_28">
     <g id="line2d_82">
      <g>
       <use style="stroke:#000000;stroke-width:0.5;" x="301.88515611937123" xlink:href="#mb5332016ac" y="384.9"/>
      </g>
     </g>
     <g id="line2d_83">
      <g>
       <use style="stroke:#000000;stroke-width:0.5;" x="301.88515611937123" xlink:href="#mf7854d2974" y="22.399999999999977"/>
      </g>
     </g>
    </g>
    <g id="xtick_29">
     <g id="line2d_84">
      <g>
       <use style="stroke:#000000;stroke-width:0.5;" x="308.3531107263554" xlink:href="#mb5332016ac" y="384.9"/>
      </g>
     </g>
     <g id="line2d_85">
      <g>
       <use style="stroke:#000000;stroke-width:0.5;" x="308.3531107263554" xlink:href="#mf7854d2974" y="22.399999999999977"/>
      </g>
     </g>
    </g>
    <g id="xtick_30">
     <g id="line2d_86">
      <g>
       <use style="stroke:#000000;stroke-width:0.5;" x="328.95407070294794" xlink:href="#mb5332016ac" y="384.9"/>
      </g>
     </g>
     <g id="line2d_87">
      <g>
       <use style="stroke:#000000;stroke-width:0.5;" x="328.95407070294794" xlink:href="#mf7854d2974" y="22.399999999999977"/>
      </g>
     </g>
    </g>
    <g id="xtick_31">
     <g id="line2d_88">
      <g>
       <use style="stroke:#000000;stroke-width:0.5;" x="344.53809532294656" xlink:href="#mb5332016ac" y="384.9"/>
      </g>
     </g>
     <g id="line2d_89">
      <g>
       <use style="stroke:#000000;stroke-width:0.5;" x="344.53809532294656" xlink:href="#mf7854d2974" y="22.399999999999977"/>
      </g>
     </g>
    </g>
    <g id="xtick_32">
     <g id="line2d_90">
      <g>
       <use style="stroke:#000000;stroke-width:0.5;" x="353.65416533596107" xlink:href="#mb5332016ac" y="384.9"/>
      </g>
     </g>
     <g id="line2d_91">
      <g>
       <use style="stroke:#000000;stroke-width:0.5;" x="353.65416533596107" xlink:href="#mf7854d2974" y="22.399999999999977"/>
      </g>
     </g>
    </g>
    <g id="xtick_33">
     <g id="line2d_92">
      <g>
       <use style="stroke:#000000;stroke-width:0.5;" x="360.12211994294523" xlink:href="#mb5332016ac" y="384.9"/>
      </g>
     </g>
     <g id="line2d_93">
      <g>
       <use style="stroke:#000000;stroke-width:0.5;" x="360.12211994294523" xlink:href="#mf7854d2974" y="22.399999999999977"/>
      </g>
     </g>
    </g>
    <g id="xtick_34">
     <g id="line2d_94">
      <g>
       <use style="stroke:#000000;stroke-width:0.5;" x="380.7230799195378" xlink:href="#mb5332016ac" y="384.9"/>
      </g>
     </g>
     <g id="line2d_95">
      <g>
       <use style="stroke:#000000;stroke-width:0.5;" x="380.7230799195378" xlink:href="#mf7854d2974" y="22.399999999999977"/>
      </g>
     </g>
    </g>
    <g id="xtick_35">
     <g id="line2d_96">
      <g>
       <use style="stroke:#000000;stroke-width:0.5;" x="396.30710453953645" xlink:href="#mb5332016ac" y="384.9"/>
      </g>
     </g>
     <g id="line2d_97">
      <g>
       <use style="stroke:#000000;stroke-width:0.5;" x="396.30710453953645" xlink:href="#mf7854d2974" y="22.399999999999977"/>
      </g>
     </g>
    </g>
    <g id="xtick_36">
     <g id="line2d_98">
      <g>
       <use style="stroke:#000000;stroke-width:0.5;" x="405.4231745525509" xlink:href="#mb5332016ac" y="384.9"/>
      </g>
     </g>
     <g id="line2d_99">
      <g>
       <use style="stroke:#000000;stroke-width:0.5;" x="405.4231745525509" xlink:href="#mf7854d2974" y="22.399999999999977"/>
      </g>
     </g>
    </g>
    <g id="xtick_37">
     <g id="line2d_100">
      <g>
       <use style="stroke:#000000;stroke-width:0.5;" x="411.89112915953507" xlink:href="#mb5332016ac" y="384.9"/>
      </g>
     </g>
     <g id="line2d_101">
      <g>
       <use style="stroke:#000000;stroke-width:0.5;" x="411.89112915953507" xlink:href="#mf7854d2974" y="22.399999999999977"/>
      </g>
     </g>
    </g>
    <g id="xtick_38">
     <g id="line2d_102">
      <g>
       <use style="stroke:#000000;stroke-width:0.5;" x="432.4920891361277" xlink:href="#mb5332016ac" y="384.9"/>
      </g>
     </g>
     <g id="line2d_103">
      <g>
       <use style="stroke:#000000;stroke-width:0.5;" x="432.4920891361277" xlink:href="#mf7854d2974" y="22.399999999999977"/>
      </g>
     </g>
    </g>
    <g id="xtick_39">
     <g id="line2d_104">
      <g>
       <use style="stroke:#000000;stroke-width:0.5;" x="448.0761137561263" xlink:href="#mb5332016ac" y="384.9"/>
      </g>
     </g>
     <g id="line2d_105">
      <g>
       <use style="stroke:#000000;stroke-width:0.5;" x="448.0761137561263" xlink:href="#mf7854d2974" y="22.399999999999977"/>
      </g>
     </g>
    </g>
    <g id="xtick_40">
     <g id="line2d_106">
      <g>
       <use style="stroke:#000000;stroke-width:0.5;" x="457.1921837691408" xlink:href="#mb5332016ac" y="384.9"/>
      </g>
     </g>
     <g id="line2d_107">
      <g>
       <use style="stroke:#000000;stroke-width:0.5;" x="457.1921837691408" xlink:href="#mf7854d2974" y="22.399999999999977"/>
      </g>
     </g>
    </g>
    <g id="xtick_41">
     <g id="line2d_108">
      <g>
       <use style="stroke:#000000;stroke-width:0.5;" x="463.66013837612496" xlink:href="#mb5332016ac" y="384.9"/>
      </g>
     </g>
     <g id="line2d_109">
      <g>
       <use style="stroke:#000000;stroke-width:0.5;" x="463.66013837612496" xlink:href="#mf7854d2974" y="22.399999999999977"/>
      </g>
     </g>
    </g>
    <g id="xtick_42">
     <g id="line2d_110">
      <g>
       <use style="stroke:#000000;stroke-width:0.5;" x="484.2610983527175" xlink:href="#mb5332016ac" y="384.9"/>
      </g>
     </g>
     <g id="line2d_111">
      <g>
       <use style="stroke:#000000;stroke-width:0.5;" x="484.2610983527175" xlink:href="#mf7854d2974" y="22.399999999999977"/>
      </g>
     </g>
    </g>
    <g id="xtick_43">
     <g id="line2d_112">
      <g>
       <use style="stroke:#000000;stroke-width:0.5;" x="499.8451229727162" xlink:href="#mb5332016ac" y="384.9"/>
      </g>
     </g>
     <g id="line2d_113">
      <g>
       <use style="stroke:#000000;stroke-width:0.5;" x="499.8451229727162" xlink:href="#mf7854d2974" y="22.399999999999977"/>
      </g>
     </g>
    </g>
    <g id="text_10">
     <!-- log10(# f-evals / dimension) -->
     <defs>
      <path id="BitstreamVeraSans-Roman-20"/>
      <path d="M 51.125 44 
L 36.921875 44 
L 32.8125 27.6875 
L 47.125 27.6875 
z
M 43.796875 71.78125 
L 38.71875 51.515625 
L 52.984375 51.515625 
L 58.109375 71.78125 
L 65.921875 71.78125 
L 60.890625 51.515625 
L 76.125 51.515625 
L 76.125 44 
L 58.984375 44 
L 54.984375 27.6875 
L 70.515625 27.6875 
L 70.515625 20.21875 
L 53.078125 20.21875 
L 48 0 
L 40.1875 0 
L 45.21875 20.21875 
L 30.90625 20.21875 
L 25.875 0 
L 18.015625 0 
L 23.09375 20.21875 
L 7.71875 20.21875 
L 7.71875 27.6875 
L 24.90625 27.6875 
L 29 44 
L 13.28125 44 
L 13.28125 51.515625 
L 30.90625 51.515625 
L 35.890625 71.78125 
z
" id="BitstreamVeraSans-Roman-23"/>
      <path d="M 52 44.1875 
Q 55.375 50.25 60.0625 53.125 
Q 64.75 56 71.09375 56 
Q 79.640625 56 84.28125 50.015625 
Q 88.921875 44.046875 88.921875 33.015625 
L 88.921875 0 
L 79.890625 0 
L 79.890625 32.71875 
Q 79.890625 40.578125 77.09375 44.375 
Q 74.3125 48.1875 68.609375 48.1875 
Q 61.625 48.1875 57.5625 43.546875 
Q 53.515625 38.921875 53.515625 30.90625 
L 53.515625 0 
L 44.484375 0 
L 44.484375 32.71875 
Q 44.484375 40.625 41.703125 44.40625 
Q 38.921875 48.1875 33.109375 48.1875 
Q 26.21875 48.1875 22.15625 43.53125 
Q 18.109375 38.875 18.109375 30.90625 
L 18.109375 0 
L 9.078125 0 
L 9.078125 54.6875 
L 18.109375 54.6875 
L 18.109375 46.1875 
Q 21.1875 51.21875 25.484375 53.609375 
Q 29.78125 56 35.6875 56 
Q 41.65625 56 45.828125 52.96875 
Q 50 49.953125 52 44.1875 
" id="BitstreamVeraSans-Roman-6d"/>
      <path d="M 54.890625 33.015625 
L 54.890625 0 
L 45.90625 0 
L 45.90625 32.71875 
Q 45.90625 40.484375 42.875 44.328125 
Q 39.84375 48.1875 33.796875 48.1875 
Q 26.515625 48.1875 22.3125 43.546875 
Q 18.109375 38.921875 18.109375 30.90625 
L 18.109375 0 
L 9.078125 0 
L 9.078125 54.6875 
L 18.109375 54.6875 
L 18.109375 46.1875 
Q 21.34375 51.125 25.703125 53.5625 
Q 30.078125 56 35.796875 56 
Q 45.21875 56 50.046875 50.171875 
Q 54.890625 44.34375 54.890625 33.015625 
" id="BitstreamVeraSans-Roman-6e"/>
      <path d="M 31 75.875 
Q 24.46875 64.65625 21.28125 53.65625 
Q 18.109375 42.671875 18.109375 31.390625 
Q 18.109375 20.125 21.3125 9.0625 
Q 24.515625 -2 31 -13.1875 
L 23.1875 -13.1875 
Q 15.875 -1.703125 12.234375 9.375 
Q 8.59375 20.453125 8.59375 31.390625 
Q 8.59375 42.28125 12.203125 53.3125 
Q 15.828125 64.359375 23.1875 75.875 
z
" id="BitstreamVeraSans-Roman-28"/>
      <path d="M 30.609375 48.390625 
Q 23.390625 48.390625 19.1875 42.75 
Q 14.984375 37.109375 14.984375 27.296875 
Q 14.984375 17.484375 19.15625 11.84375 
Q 23.34375 6.203125 30.609375 6.203125 
Q 37.796875 6.203125 41.984375 11.859375 
Q 46.1875 17.53125 46.1875 27.296875 
Q 46.1875 37.015625 41.984375 42.703125 
Q 37.796875 48.390625 30.609375 48.390625 
M 30.609375 56 
Q 42.328125 56 49.015625 48.375 
Q 55.71875 40.765625 55.71875 27.296875 
Q 55.71875 13.875 49.015625 6.21875 
Q 42.328125 -1.421875 30.609375 -1.421875 
Q 18.84375 -1.421875 12.171875 6.21875 
Q 5.515625 13.875 5.515625 27.296875 
Q 5.515625 40.765625 12.171875 48.375 
Q 18.84375 56 30.609375 56 
" id="BitstreamVeraSans-Roman-6f"/>
      <path d="M 9.421875 75.984375 
L 18.40625 75.984375 
L 18.40625 0 
L 9.421875 0 
z
" id="BitstreamVeraSans-Roman-6c"/>
      <path d="M 2.984375 54.6875 
L 12.5 54.6875 
L 29.59375 8.796875 
L 46.6875 54.6875 
L 56.203125 54.6875 
L 35.6875 0 
L 23.484375 0 
z
" id="BitstreamVeraSans-Roman-76"/>
      <path d="M 9.421875 54.6875 
L 18.40625 54.6875 
L 18.40625 0 
L 9.421875 0 
z
M 9.421875 75.984375 
L 18.40625 75.984375 
L 18.40625 64.59375 
L 9.421875 64.59375 
z
" id="BitstreamVeraSans-Roman-69"/>
      <path d="M 4.890625 31.390625 
L 31.203125 31.390625 
L 31.203125 23.390625 
L 4.890625 23.390625 
z
" id="BitstreamVeraSans-Roman-2d"/>
      <path d="M 25.390625 72.90625 
L 33.6875 72.90625 
L 8.296875 -9.28125 
L 0 -9.28125 
z
" id="BitstreamVeraSans-Roman-2f"/>
      <path d="M 56.203125 29.59375 
L 56.203125 25.203125 
L 14.890625 25.203125 
Q 15.484375 15.921875 20.484375 11.0625 
Q 25.484375 6.203125 34.421875 6.203125 
Q 39.59375 6.203125 44.453125 7.46875 
Q 49.3125 8.734375 54.109375 11.28125 
L 54.109375 2.78125 
Q 49.265625 0.734375 44.1875 -0.34375 
Q 39.109375 -1.421875 33.890625 -1.421875 
Q 20.796875 -1.421875 13.15625 6.1875 
Q 5.515625 13.8125 5.515625 26.8125 
Q 5.515625 40.234375 12.765625 48.109375 
Q 20.015625 56 32.328125 56 
Q 43.359375 56 49.78125 48.890625 
Q 56.203125 41.796875 56.203125 29.59375 
M 47.21875 32.234375 
Q 47.125 39.59375 43.09375 43.984375 
Q 39.0625 48.390625 32.421875 48.390625 
Q 24.90625 48.390625 20.390625 44.140625 
Q 15.875 39.890625 15.1875 32.171875 
z
" id="BitstreamVeraSans-Roman-65"/>
      <path d="M 45.40625 46.390625 
L 45.40625 75.984375 
L 54.390625 75.984375 
L 54.390625 0 
L 45.40625 0 
L 45.40625 8.203125 
Q 42.578125 3.328125 38.25 0.953125 
Q 33.9375 -1.421875 27.875 -1.421875 
Q 17.96875 -1.421875 11.734375 6.484375 
Q 5.515625 14.40625 5.515625 27.296875 
Q 5.515625 40.1875 11.734375 48.09375 
Q 17.96875 56 27.875 56 
Q 33.9375 56 38.25 53.625 
Q 42.578125 51.265625 45.40625 46.390625 
M 14.796875 27.296875 
Q 14.796875 17.390625 18.875 11.75 
Q 22.953125 6.109375 30.078125 6.109375 
Q 37.203125 6.109375 41.296875 11.75 
Q 45.40625 17.390625 45.40625 27.296875 
Q 45.40625 37.203125 41.296875 42.84375 
Q 37.203125 48.484375 30.078125 48.484375 
Q 22.953125 48.484375 18.875 42.84375 
Q 14.796875 37.203125 14.796875 27.296875 
" id="BitstreamVeraSans-Roman-64"/>
      <path d="M 45.40625 27.984375 
Q 45.40625 37.75 41.375 43.109375 
Q 37.359375 48.484375 30.078125 48.484375 
Q 22.859375 48.484375 18.828125 43.109375 
Q 14.796875 37.75 14.796875 27.984375 
Q 14.796875 18.265625 18.828125 12.890625 
Q 22.859375 7.515625 30.078125 7.515625 
Q 37.359375 7.515625 41.375 12.890625 
Q 45.40625 18.265625 45.40625 27.984375 
M 54.390625 6.78125 
Q 54.390625 -7.171875 48.1875 -13.984375 
Q 42 -20.796875 29.203125 -20.796875 
Q 24.46875 -20.796875 20.265625 -20.09375 
Q 16.0625 -19.390625 12.109375 -17.921875 
L 12.109375 -9.1875 
Q 16.0625 -11.328125 19.921875 -12.34375 
Q 23.78125 -13.375 27.78125 -13.375 
Q 36.625 -13.375 41.015625 -8.765625 
Q 45.40625 -4.15625 45.40625 5.171875 
L 45.40625 9.625 
Q 42.625 4.78125 38.28125 2.390625 
Q 33.9375 0 27.875 0 
Q 17.828125 0 11.671875 7.65625 
Q 5.515625 15.328125 5.515625 27.984375 
Q 5.515625 40.671875 11.671875 48.328125 
Q 17.828125 56 27.875 56 
Q 33.9375 56 38.28125 53.609375 
Q 42.625 51.21875 45.40625 46.390625 
L 45.40625 54.6875 
L 54.390625 54.6875 
z
" id="BitstreamVeraSans-Roman-67"/>
      <path d="M 37.109375 75.984375 
L 37.109375 68.5 
L 28.515625 68.5 
Q 23.6875 68.5 21.796875 66.546875 
Q 19.921875 64.59375 19.921875 59.515625 
L 19.921875 54.6875 
L 34.71875 54.6875 
L 34.71875 47.703125 
L 19.921875 47.703125 
L 19.921875 0 
L 10.890625 0 
L 10.890625 47.703125 
L 2.296875 47.703125 
L 2.296875 54.6875 
L 10.890625 54.6875 
L 10.890625 58.5 
Q 10.890625 67.625 15.140625 71.796875 
Q 19.390625 75.984375 28.609375 75.984375 
z
" id="BitstreamVeraSans-Roman-66"/>
      <path d="M 34.28125 27.484375 
Q 23.390625 27.484375 19.1875 25 
Q 14.984375 22.515625 14.984375 16.5 
Q 14.984375 11.71875 18.140625 8.90625 
Q 21.296875 6.109375 26.703125 6.109375 
Q 34.1875 6.109375 38.703125 11.40625 
Q 43.21875 16.703125 43.21875 25.484375 
L 43.21875 27.484375 
z
M 52.203125 31.203125 
L 52.203125 0 
L 43.21875 0 
L 43.21875 8.296875 
Q 40.140625 3.328125 35.546875 0.953125 
Q 30.953125 -1.421875 24.3125 -1.421875 
Q 15.921875 -1.421875 10.953125 3.296875 
Q 6 8.015625 6 15.921875 
Q 6 25.140625 12.171875 29.828125 
Q 18.359375 34.515625 30.609375 34.515625 
L 43.21875 34.515625 
L 43.21875 35.40625 
Q 43.21875 41.609375 39.140625 45 
Q 35.0625 48.390625 27.6875 48.390625 
Q 23 48.390625 18.546875 47.265625 
Q 14.109375 46.140625 10.015625 43.890625 
L 10.015625 52.203125 
Q 14.9375 54.109375 19.578125 55.046875 
Q 24.21875 56 28.609375 56 
Q 40.484375 56 46.34375 49.84375 
Q 52.203125 43.703125 52.203125 31.203125 
" id="BitstreamVeraSans-Roman-61"/>
      <path d="M 44.28125 53.078125 
L 44.28125 44.578125 
Q 40.484375 46.53125 36.375 47.5 
Q 32.28125 48.484375 27.875 48.484375 
Q 21.1875 48.484375 17.84375 46.4375 
Q 14.5 44.390625 14.5 40.28125 
Q 14.5 37.15625 16.890625 35.375 
Q 19.28125 33.59375 26.515625 31.984375 
L 29.59375 31.296875 
Q 39.15625 29.25 43.1875 25.515625 
Q 47.21875 21.78125 47.21875 15.09375 
Q 47.21875 7.46875 41.1875 3.015625 
Q 35.15625 -1.421875 24.609375 -1.421875 
Q 20.21875 -1.421875 15.453125 -0.5625 
Q 10.6875 0.296875 5.421875 2 
L 5.421875 11.28125 
Q 10.40625 8.6875 15.234375 7.390625 
Q 20.0625 6.109375 24.8125 6.109375 
Q 31.15625 6.109375 34.5625 8.28125 
Q 37.984375 10.453125 37.984375 14.40625 
Q 37.984375 18.0625 35.515625 20.015625 
Q 33.0625 21.96875 24.703125 23.78125 
L 21.578125 24.515625 
Q 13.234375 26.265625 9.515625 29.90625 
Q 5.8125 33.546875 5.8125 39.890625 
Q 5.8125 47.609375 11.28125 51.796875 
Q 16.75 56 26.8125 56 
Q 31.78125 56 36.171875 55.265625 
Q 40.578125 54.546875 44.28125 53.078125 
" id="BitstreamVeraSans-Roman-73"/>
      <path d="M 8.015625 75.875 
L 15.828125 75.875 
Q 23.140625 64.359375 26.78125 53.3125 
Q 30.421875 42.28125 30.421875 31.390625 
Q 30.421875 20.453125 26.78125 9.375 
Q 23.140625 -1.703125 15.828125 -13.1875 
L 8.015625 -13.1875 
Q 14.5 -2 17.703125 9.0625 
Q 20.90625 20.125 20.90625 31.390625 
Q 20.90625 42.671875 17.703125 53.65625 
Q 14.5 64.65625 8.015625 75.875 
" id="BitstreamVeraSans-Roman-29"/>
     </defs>
     <g transform="translate(158.36171874999997 426.17359374999995)scale(0.17 -0.17)">
      <use xlink:href="#BitstreamVeraSans-Roman-6c"/>
      <use x="27.783203125" xlink:href="#BitstreamVeraSans-Roman-6f"/>
      <use x="88.96484375" xlink:href="#BitstreamVeraSans-Roman-67"/>
      <use x="152.44140625" xlink:href="#BitstreamVeraSans-Roman-31"/>
      <use x="216.064453125" xlink:href="#BitstreamVeraSans-Roman-30"/>
      <use x="279.6875" xlink:href="#BitstreamVeraSans-Roman-28"/>
      <use x="318.701171875" xlink:href="#BitstreamVeraSans-Roman-23"/>
      <use x="402.490234375" xlink:href="#BitstreamVeraSans-Roman-20"/>
      <use x="434.27734375" xlink:href="#BitstreamVeraSans-Roman-66"/>
      <use x="469.404296875" xlink:href="#BitstreamVeraSans-Roman-2d"/>
      <use x="505.48828125" xlink:href="#BitstreamVeraSans-Roman-65"/>
      <use x="567.01171875" xlink:href="#BitstreamVeraSans-Roman-76"/>
      <use x="626.19140625" xlink:href="#BitstreamVeraSans-Roman-61"/>
      <use x="687.470703125" xlink:href="#BitstreamVeraSans-Roman-6c"/>
      <use x="715.25390625" xlink:href="#BitstreamVeraSans-Roman-73"/>
      <use x="767.353515625" xlink:href="#BitstreamVeraSans-Roman-20"/>
      <use x="799.140625" xlink:href="#BitstreamVeraSans-Roman-2f"/>
      <use x="832.83203125" xlink:href="#BitstreamVeraSans-Roman-20"/>
      <use x="864.619140625" xlink:href="#BitstreamVeraSans-Roman-64"/>
      <use x="928.095703125" xlink:href="#BitstreamVeraSans-Roman-69"/>
      <use x="955.87890625" xlink:href="#BitstreamVeraSans-Roman-6d"/>
      <use x="1053.29101562" xlink:href="#BitstreamVeraSans-Roman-65"/>
      <use x="1114.81445312" xlink:href="#BitstreamVeraSans-Roman-6e"/>
      <use x="1178.19335938" xlink:href="#BitstreamVeraSans-Roman-73"/>
      <use x="1230.29296875" xlink:href="#BitstreamVeraSans-Roman-69"/>
      <use x="1258.07617188" xlink:href="#BitstreamVeraSans-Roman-6f"/>
      <use x="1319.2578125" xlink:href="#BitstreamVeraSans-Roman-6e"/>
      <use x="1382.63671875" xlink:href="#BitstreamVeraSans-Roman-29"/>
     </g>
    </g>
   </g>
   <g id="matplotlib.axis_2">
    <g id="ytick_1">
     <g id="line2d_114">
      <path clip-path="url(#pbe88149655)" d="M 54.525 384.9 
L 503.88 384.9 
" style="fill:none;stroke:#000000;stroke-dasharray:1.000000,3.000000;stroke-dashoffset:0.0;stroke-width:0.5;"/>
     </g>
     <g id="line2d_115">
      <defs>
       <path d="M 0 0 
L 4 0 
" id="m4042f3ebf1" style="stroke:#000000;stroke-width:0.5;"/>
      </defs>
      <g>
       <use style="stroke:#000000;stroke-width:0.5;" x="54.52500000000001" xlink:href="#m4042f3ebf1" y="384.9"/>
      </g>
     </g>
     <g id="line2d_116">
      <defs>
       <path d="M 0 0 
L -4 0 
" id="m3782f9692e" style="stroke:#000000;stroke-width:0.5;"/>
      </defs>
      <g>
       <use style="stroke:#000000;stroke-width:0.5;" x="503.88" xlink:href="#m3782f9692e" y="384.9"/>
      </g>
     </g>
     <g id="text_11">
      <!-- 0.0 -->
      <defs>
       <path d="M 10.6875 12.40625 
L 21 12.40625 
L 21 0 
L 10.6875 0 
z
" id="BitstreamVeraSans-Roman-2e"/>
      </defs>
      <g transform="translate(25.080000000000013 389.315)scale(0.16 -0.16)">
       <use xlink:href="#BitstreamVeraSans-Roman-30"/>
       <use x="63.623046875" xlink:href="#BitstreamVeraSans-Roman-2e"/>
       <use x="95.41015625" xlink:href="#BitstreamVeraSans-Roman-30"/>
      </g>
     </g>
    </g>
    <g id="ytick_2">
     <g id="line2d_117">
      <path clip-path="url(#pbe88149655)" d="M 54.525 313.117822 
L 503.88 313.117822 
" style="fill:none;stroke:#000000;stroke-dasharray:1.000000,3.000000;stroke-dashoffset:0.0;stroke-width:0.5;"/>
     </g>
     <g id="line2d_118">
      <g>
       <use style="stroke:#000000;stroke-width:0.5;" x="54.52500000000001" xlink:href="#m4042f3ebf1" y="313.11782178217817"/>
      </g>
     </g>
     <g id="line2d_119">
      <g>
       <use style="stroke:#000000;stroke-width:0.5;" x="503.88" xlink:href="#m3782f9692e" y="313.11782178217817"/>
      </g>
     </g>
     <g id="text_12">
      <!-- 0.2 -->
      <g transform="translate(25.080000000000013 317.5328217821782)scale(0.16 -0.16)">
       <use xlink:href="#BitstreamVeraSans-Roman-30"/>
       <use x="63.623046875" xlink:href="#BitstreamVeraSans-Roman-2e"/>
       <use x="95.41015625" xlink:href="#BitstreamVeraSans-Roman-32"/>
      </g>
     </g>
    </g>
    <g id="ytick_3">
     <g id="line2d_120">
      <path clip-path="url(#pbe88149655)" d="M 54.525 241.335644 
L 503.88 241.335644 
" style="fill:none;stroke:#000000;stroke-dasharray:1.000000,3.000000;stroke-dashoffset:0.0;stroke-width:0.5;"/>
     </g>
     <g id="line2d_121">
      <g>
       <use style="stroke:#000000;stroke-width:0.5;" x="54.52500000000001" xlink:href="#m4042f3ebf1" y="241.3356435643564"/>
      </g>
     </g>
     <g id="line2d_122">
      <g>
       <use style="stroke:#000000;stroke-width:0.5;" x="503.88" xlink:href="#m3782f9692e" y="241.3356435643564"/>
      </g>
     </g>
     <g id="text_13">
      <!-- 0.4 -->
      <g transform="translate(25.080000000000013 245.75064356435638)scale(0.16 -0.16)">
       <use xlink:href="#BitstreamVeraSans-Roman-30"/>
       <use x="63.623046875" xlink:href="#BitstreamVeraSans-Roman-2e"/>
       <use x="95.41015625" xlink:href="#BitstreamVeraSans-Roman-34"/>
      </g>
     </g>
    </g>
    <g id="ytick_4">
     <g id="line2d_123">
      <path clip-path="url(#pbe88149655)" d="M 54.525 169.553465 
L 503.88 169.553465 
" style="fill:none;stroke:#000000;stroke-dasharray:1.000000,3.000000;stroke-dashoffset:0.0;stroke-width:0.5;"/>
     </g>
     <g id="line2d_124">
      <g>
       <use style="stroke:#000000;stroke-width:0.5;" x="54.52500000000001" xlink:href="#m4042f3ebf1" y="169.55346534653458"/>
      </g>
     </g>
     <g id="line2d_125">
      <g>
       <use style="stroke:#000000;stroke-width:0.5;" x="503.88" xlink:href="#m3782f9692e" y="169.55346534653458"/>
      </g>
     </g>
     <g id="text_14">
      <!-- 0.6 -->
      <g transform="translate(25.080000000000013 173.96846534653463)scale(0.16 -0.16)">
       <use xlink:href="#BitstreamVeraSans-Roman-30"/>
       <use x="63.623046875" xlink:href="#BitstreamVeraSans-Roman-2e"/>
       <use x="95.41015625" xlink:href="#BitstreamVeraSans-Roman-36"/>
      </g>
     </g>
    </g>
    <g id="ytick_5">
     <g id="line2d_126">
      <path clip-path="url(#pbe88149655)" d="M 54.525 97.771287 
L 503.88 97.771287 
" style="fill:none;stroke:#000000;stroke-dasharray:1.000000,3.000000;stroke-dashoffset:0.0;stroke-width:0.5;"/>
     </g>
     <g id="line2d_127">
      <g>
       <use style="stroke:#000000;stroke-width:0.5;" x="54.52500000000001" xlink:href="#m4042f3ebf1" y="97.7712871287128"/>
      </g>
     </g>
     <g id="line2d_128">
      <g>
       <use style="stroke:#000000;stroke-width:0.5;" x="503.88" xlink:href="#m3782f9692e" y="97.7712871287128"/>
      </g>
     </g>
     <g id="text_15">
      <!-- 0.8 -->
      <g transform="translate(25.080000000000013 102.18628712871282)scale(0.16 -0.16)">
       <use xlink:href="#BitstreamVeraSans-Roman-30"/>
       <use x="63.623046875" xlink:href="#BitstreamVeraSans-Roman-2e"/>
       <use x="95.41015625" xlink:href="#BitstreamVeraSans-Roman-38"/>
      </g>
     </g>
    </g>
    <g id="ytick_6">
     <g id="line2d_129">
      <path clip-path="url(#pbe88149655)" d="M 54.525 25.989109 
L 503.88 25.989109 
" style="fill:none;stroke:#000000;stroke-dasharray:1.000000,3.000000;stroke-dashoffset:0.0;stroke-width:0.5;"/>
     </g>
     <g id="line2d_130">
      <g>
       <use style="stroke:#000000;stroke-width:0.5;" x="54.52500000000001" xlink:href="#m4042f3ebf1" y="25.989108910891048"/>
      </g>
     </g>
     <g id="line2d_131">
      <g>
       <use style="stroke:#000000;stroke-width:0.5;" x="503.88" xlink:href="#m3782f9692e" y="25.989108910891048"/>
      </g>
     </g>
     <g id="text_16">
      <!-- 1.0 -->
      <g transform="translate(25.080000000000013 30.40410891089107)scale(0.16 -0.16)">
       <use xlink:href="#BitstreamVeraSans-Roman-31"/>
       <use x="63.623046875" xlink:href="#BitstreamVeraSans-Roman-2e"/>
       <use x="95.41015625" xlink:href="#BitstreamVeraSans-Roman-30"/>
      </g>
     </g>
    </g>
    <g id="text_17">
     <!-- Fraction of function,target pairs -->
     <defs>
      <path d="M 9.8125 72.90625 
L 51.703125 72.90625 
L 51.703125 64.59375 
L 19.671875 64.59375 
L 19.671875 43.109375 
L 48.578125 43.109375 
L 48.578125 34.8125 
L 19.671875 34.8125 
L 19.671875 0 
L 9.8125 0 
z
" id="BitstreamVeraSans-Roman-46"/>
      <path d="M 11.71875 12.40625 
L 22.015625 12.40625 
L 22.015625 4 
L 14.015625 -11.625 
L 7.71875 -11.625 
L 11.71875 4 
z
" id="BitstreamVeraSans-Roman-2c"/>
      <path d="M 18.109375 8.203125 
L 18.109375 -20.796875 
L 9.078125 -20.796875 
L 9.078125 54.6875 
L 18.109375 54.6875 
L 18.109375 46.390625 
Q 20.953125 51.265625 25.265625 53.625 
Q 29.59375 56 35.59375 56 
Q 45.5625 56 51.78125 48.09375 
Q 58.015625 40.1875 58.015625 27.296875 
Q 58.015625 14.40625 51.78125 6.484375 
Q 45.5625 -1.421875 35.59375 -1.421875 
Q 29.59375 -1.421875 25.265625 0.953125 
Q 20.953125 3.328125 18.109375 8.203125 
M 48.6875 27.296875 
Q 48.6875 37.203125 44.609375 42.84375 
Q 40.53125 48.484375 33.40625 48.484375 
Q 26.265625 48.484375 22.1875 42.84375 
Q 18.109375 37.203125 18.109375 27.296875 
Q 18.109375 17.390625 22.1875 11.75 
Q 26.265625 6.109375 33.40625 6.109375 
Q 40.53125 6.109375 44.609375 11.75 
Q 48.6875 17.390625 48.6875 27.296875 
" id="BitstreamVeraSans-Roman-70"/>
      <path d="M 18.3125 70.21875 
L 18.3125 54.6875 
L 36.8125 54.6875 
L 36.8125 47.703125 
L 18.3125 47.703125 
L 18.3125 18.015625 
Q 18.3125 11.328125 20.140625 9.421875 
Q 21.96875 7.515625 27.59375 7.515625 
L 36.8125 7.515625 
L 36.8125 0 
L 27.59375 0 
Q 17.1875 0 13.234375 3.875 
Q 9.28125 7.765625 9.28125 18.015625 
L 9.28125 47.703125 
L 2.6875 47.703125 
L 2.6875 54.6875 
L 9.28125 54.6875 
L 9.28125 70.21875 
z
" id="BitstreamVeraSans-Roman-74"/>
      <path d="M 8.5 21.578125 
L 8.5 54.6875 
L 17.484375 54.6875 
L 17.484375 21.921875 
Q 17.484375 14.15625 20.5 10.265625 
Q 23.53125 6.390625 29.59375 6.390625 
Q 36.859375 6.390625 41.078125 11.03125 
Q 45.3125 15.671875 45.3125 23.6875 
L 45.3125 54.6875 
L 54.296875 54.6875 
L 54.296875 0 
L 45.3125 0 
L 45.3125 8.40625 
Q 42.046875 3.421875 37.71875 1 
Q 33.40625 -1.421875 27.6875 -1.421875 
Q 18.265625 -1.421875 13.375 4.4375 
Q 8.5 10.296875 8.5 21.578125 
" id="BitstreamVeraSans-Roman-75"/>
      <path d="M 41.109375 46.296875 
Q 39.59375 47.171875 37.8125 47.578125 
Q 36.03125 48 33.890625 48 
Q 26.265625 48 22.1875 43.046875 
Q 18.109375 38.09375 18.109375 28.8125 
L 18.109375 0 
L 9.078125 0 
L 9.078125 54.6875 
L 18.109375 54.6875 
L 18.109375 46.1875 
Q 20.953125 51.171875 25.484375 53.578125 
Q 30.03125 56 36.53125 56 
Q 37.453125 56 38.578125 55.875 
Q 39.703125 55.765625 41.0625 55.515625 
z
" id="BitstreamVeraSans-Roman-72"/>
      <path d="M 48.78125 52.59375 
L 48.78125 44.1875 
Q 44.96875 46.296875 41.140625 47.34375 
Q 37.3125 48.390625 33.40625 48.390625 
Q 24.65625 48.390625 19.8125 42.84375 
Q 14.984375 37.3125 14.984375 27.296875 
Q 14.984375 17.28125 19.8125 11.734375 
Q 24.65625 6.203125 33.40625 6.203125 
Q 37.3125 6.203125 41.140625 7.25 
Q 44.96875 8.296875 48.78125 10.40625 
L 48.78125 2.09375 
Q 45.015625 0.34375 40.984375 -0.53125 
Q 36.96875 -1.421875 32.421875 -1.421875 
Q 20.0625 -1.421875 12.78125 6.34375 
Q 5.515625 14.109375 5.515625 27.296875 
Q 5.515625 40.671875 12.859375 48.328125 
Q 20.21875 56 33.015625 56 
Q 37.15625 56 41.109375 55.140625 
Q 45.0625 54.296875 48.78125 52.59375 
" id="BitstreamVeraSans-Roman-63"/>
     </defs>
     <g transform="translate(16.544531250000006 338.78937499999995)rotate(-90.0)scale(0.17 -0.17)">
      <use xlink:href="#BitstreamVeraSans-Roman-46"/>
      <use x="57.41015625" xlink:href="#BitstreamVeraSans-Roman-72"/>
      <use x="98.5234375" xlink:href="#BitstreamVeraSans-Roman-61"/>
      <use x="159.802734375" xlink:href="#BitstreamVeraSans-Roman-63"/>
      <use x="214.783203125" xlink:href="#BitstreamVeraSans-Roman-74"/>
      <use x="253.9921875" xlink:href="#BitstreamVeraSans-Roman-69"/>
      <use x="281.775390625" xlink:href="#BitstreamVeraSans-Roman-6f"/>
      <use x="342.95703125" xlink:href="#BitstreamVeraSans-Roman-6e"/>
      <use x="406.3359375" xlink:href="#BitstreamVeraSans-Roman-20"/>
      <use x="438.123046875" xlink:href="#BitstreamVeraSans-Roman-6f"/>
      <use x="499.3046875" xlink:href="#BitstreamVeraSans-Roman-66"/>
      <use x="534.509765625" xlink:href="#BitstreamVeraSans-Roman-20"/>
      <use x="566.296875" xlink:href="#BitstreamVeraSans-Roman-66"/>
      <use x="601.501953125" xlink:href="#BitstreamVeraSans-Roman-75"/>
      <use x="664.880859375" xlink:href="#BitstreamVeraSans-Roman-6e"/>
      <use x="728.259765625" xlink:href="#BitstreamVeraSans-Roman-63"/>
      <use x="783.240234375" xlink:href="#BitstreamVeraSans-Roman-74"/>
      <use x="822.44921875" xlink:href="#BitstreamVeraSans-Roman-69"/>
      <use x="850.232421875" xlink:href="#BitstreamVeraSans-Roman-6f"/>
      <use x="911.4140625" xlink:href="#BitstreamVeraSans-Roman-6e"/>
      <use x="974.79296875" xlink:href="#BitstreamVeraSans-Roman-2c"/>
      <use x="1006.58007812" xlink:href="#BitstreamVeraSans-Roman-74"/>
      <use x="1045.7890625" xlink:href="#BitstreamVeraSans-Roman-61"/>
      <use x="1107.06835938" xlink:href="#BitstreamVeraSans-Roman-72"/>
      <use x="1148.16601562" xlink:href="#BitstreamVeraSans-Roman-67"/>
      <use x="1211.64257812" xlink:href="#BitstreamVeraSans-Roman-65"/>
      <use x="1273.16601562" xlink:href="#BitstreamVeraSans-Roman-74"/>
      <use x="1312.375" xlink:href="#BitstreamVeraSans-Roman-20"/>
      <use x="1344.16210938" xlink:href="#BitstreamVeraSans-Roman-70"/>
      <use x="1407.63867188" xlink:href="#BitstreamVeraSans-Roman-61"/>
      <use x="1468.91796875" xlink:href="#BitstreamVeraSans-Roman-69"/>
      <use x="1496.70117188" xlink:href="#BitstreamVeraSans-Roman-72"/>
      <use x="1537.81445312" xlink:href="#BitstreamVeraSans-Roman-73"/>
     </g>
    </g>
   </g>
   <g id="text_18">
    <!-- DES -->
    <defs>
     <path d="M 9.8125 72.90625 
L 55.90625 72.90625 
L 55.90625 64.59375 
L 19.671875 64.59375 
L 19.671875 43.015625 
L 54.390625 43.015625 
L 54.390625 34.71875 
L 19.671875 34.71875 
L 19.671875 8.296875 
L 56.78125 8.296875 
L 56.78125 0 
L 9.8125 0 
z
" id="BitstreamVeraSans-Roman-45"/>
     <path d="M 19.671875 64.796875 
L 19.671875 8.109375 
L 31.59375 8.109375 
Q 46.6875 8.109375 53.6875 14.9375 
Q 60.6875 21.78125 60.6875 36.53125 
Q 60.6875 51.171875 53.6875 57.984375 
Q 46.6875 64.796875 31.59375 64.796875 
z
M 9.8125 72.90625 
L 30.078125 72.90625 
Q 51.265625 72.90625 61.171875 64.09375 
Q 71.09375 55.28125 71.09375 36.53125 
Q 71.09375 17.671875 61.125 8.828125 
Q 51.171875 0 30.078125 0 
L 9.8125 0 
z
" id="BitstreamVeraSans-Roman-44"/>
     <path d="M 53.515625 70.515625 
L 53.515625 60.890625 
Q 47.90625 63.578125 42.921875 64.890625 
Q 37.9375 66.21875 33.296875 66.21875 
Q 25.25 66.21875 20.875 63.09375 
Q 16.5 59.96875 16.5 54.203125 
Q 16.5 49.359375 19.40625 46.890625 
Q 22.3125 44.4375 30.421875 42.921875 
L 36.375 41.703125 
Q 47.40625 39.59375 52.65625 34.296875 
Q 57.90625 29 57.90625 20.125 
Q 57.90625 9.515625 50.796875 4.046875 
Q 43.703125 -1.421875 29.984375 -1.421875 
Q 24.8125 -1.421875 18.96875 -0.25 
Q 13.140625 0.921875 6.890625 3.21875 
L 6.890625 13.375 
Q 12.890625 10.015625 18.65625 8.296875 
Q 24.421875 6.59375 29.984375 6.59375 
Q 38.421875 6.59375 43.015625 9.90625 
Q 47.609375 13.234375 47.609375 19.390625 
Q 47.609375 24.75 44.3125 27.78125 
Q 41.015625 30.8125 33.5 32.328125 
L 27.484375 33.5 
Q 16.453125 35.6875 11.515625 40.375 
Q 6.59375 45.0625 6.59375 53.421875 
Q 6.59375 63.09375 13.40625 68.65625 
Q 20.21875 74.21875 32.171875 74.21875 
Q 37.3125 74.21875 42.625 73.28125 
Q 47.953125 72.359375 53.515625 70.515625 
" id="BitstreamVeraSans-Roman-53"/>
    </defs>
    <g transform="translate(464.01786290322576 382.4127196782178)scale(0.17 -0.17)">
     <use xlink:href="#BitstreamVeraSans-Roman-44"/>
     <use x="77.001953125" xlink:href="#BitstreamVeraSans-Roman-45"/>
     <use x="140.185546875" xlink:href="#BitstreamVeraSans-Roman-53"/>
    </g>
   </g>
   <g id="text_19">
    <!-- CMA-ES-py -->
    <defs>
     <path d="M 9.8125 72.90625 
L 24.515625 72.90625 
L 43.109375 23.296875 
L 61.8125 72.90625 
L 76.515625 72.90625 
L 76.515625 0 
L 66.890625 0 
L 66.890625 64.015625 
L 48.09375 14.015625 
L 38.1875 14.015625 
L 19.390625 64.015625 
L 19.390625 0 
L 9.8125 0 
z
" id="BitstreamVeraSans-Roman-4d"/>
     <path d="M 64.40625 67.28125 
L 64.40625 56.890625 
Q 59.421875 61.53125 53.78125 63.8125 
Q 48.140625 66.109375 41.796875 66.109375 
Q 29.296875 66.109375 22.65625 58.46875 
Q 16.015625 50.828125 16.015625 36.375 
Q 16.015625 21.96875 22.65625 14.328125 
Q 29.296875 6.6875 41.796875 6.6875 
Q 48.140625 6.6875 53.78125 8.984375 
Q 59.421875 11.28125 64.40625 15.921875 
L 64.40625 5.609375 
Q 59.234375 2.09375 53.4375 0.328125 
Q 47.65625 -1.421875 41.21875 -1.421875 
Q 24.65625 -1.421875 15.125 8.703125 
Q 5.609375 18.84375 5.609375 36.375 
Q 5.609375 53.953125 15.125 64.078125 
Q 24.65625 74.21875 41.21875 74.21875 
Q 47.75 74.21875 53.53125 72.484375 
Q 59.328125 70.75 64.40625 67.28125 
" id="BitstreamVeraSans-Roman-43"/>
     <path d="M 34.1875 63.1875 
L 20.796875 26.90625 
L 47.609375 26.90625 
z
M 28.609375 72.90625 
L 39.796875 72.90625 
L 67.578125 0 
L 57.328125 0 
L 50.6875 18.703125 
L 17.828125 18.703125 
L 11.1875 0 
L 0.78125 0 
z
" id="BitstreamVeraSans-Roman-41"/>
     <path d="M 32.171875 -5.078125 
Q 28.375 -14.84375 24.75 -17.8125 
Q 21.140625 -20.796875 15.09375 -20.796875 
L 7.90625 -20.796875 
L 7.90625 -13.28125 
L 13.1875 -13.28125 
Q 16.890625 -13.28125 18.9375 -11.515625 
Q 21 -9.765625 23.484375 -3.21875 
L 25.09375 0.875 
L 2.984375 54.6875 
L 12.5 54.6875 
L 29.59375 11.921875 
L 46.6875 54.6875 
L 56.203125 54.6875 
z
" id="BitstreamVeraSans-Roman-79"/>
    </defs>
    <g transform="translate(464.01786290322576 210.1354919554455)scale(0.17 -0.17)">
     <use xlink:href="#BitstreamVeraSans-Roman-43"/>
     <use x="69.82421875" xlink:href="#BitstreamVeraSans-Roman-4d"/>
     <use x="156.103515625" xlink:href="#BitstreamVeraSans-Roman-41"/>
     <use x="224.48046875" xlink:href="#BitstreamVeraSans-Roman-2d"/>
     <use x="260.564453125" xlink:href="#BitstreamVeraSans-Roman-45"/>
     <use x="323.748046875" xlink:href="#BitstreamVeraSans-Roman-53"/>
     <use x="387.224609375" xlink:href="#BitstreamVeraSans-Roman-2d"/>
     <use x="423.30859375" xlink:href="#BitstreamVeraSans-Roman-70"/>
     <use x="486.78515625" xlink:href="#BitstreamVeraSans-Roman-79"/>
    </g>
   </g>
   <g id="text_20">
    <!-- best 2009 -->
    <defs>
     <path d="M 10.984375 1.515625 
L 10.984375 10.5 
Q 14.703125 8.734375 18.5 7.8125 
Q 22.3125 6.890625 25.984375 6.890625 
Q 35.75 6.890625 40.890625 13.453125 
Q 46.046875 20.015625 46.78125 33.40625 
Q 43.953125 29.203125 39.59375 26.953125 
Q 35.25 24.703125 29.984375 24.703125 
Q 19.046875 24.703125 12.671875 31.3125 
Q 6.296875 37.9375 6.296875 49.421875 
Q 6.296875 60.640625 12.9375 67.421875 
Q 19.578125 74.21875 30.609375 74.21875 
Q 43.265625 74.21875 49.921875 64.515625 
Q 56.59375 54.828125 56.59375 36.375 
Q 56.59375 19.140625 48.40625 8.859375 
Q 40.234375 -1.421875 26.421875 -1.421875 
Q 22.703125 -1.421875 18.890625 -0.6875 
Q 15.09375 0.046875 10.984375 1.515625 
M 30.609375 32.421875 
Q 37.25 32.421875 41.125 36.953125 
Q 45.015625 41.5 45.015625 49.421875 
Q 45.015625 57.28125 41.125 61.84375 
Q 37.25 66.40625 30.609375 66.40625 
Q 23.96875 66.40625 20.09375 61.84375 
Q 16.21875 57.28125 16.21875 49.421875 
Q 16.21875 41.5 20.09375 36.953125 
Q 23.96875 32.421875 30.609375 32.421875 
" id="BitstreamVeraSans-Roman-39"/>
     <path d="M 48.6875 27.296875 
Q 48.6875 37.203125 44.609375 42.84375 
Q 40.53125 48.484375 33.40625 48.484375 
Q 26.265625 48.484375 22.1875 42.84375 
Q 18.109375 37.203125 18.109375 27.296875 
Q 18.109375 17.390625 22.1875 11.75 
Q 26.265625 6.109375 33.40625 6.109375 
Q 40.53125 6.109375 44.609375 11.75 
Q 48.6875 17.390625 48.6875 27.296875 
M 18.109375 46.390625 
Q 20.953125 51.265625 25.265625 53.625 
Q 29.59375 56 35.59375 56 
Q 45.5625 56 51.78125 48.09375 
Q 58.015625 40.1875 58.015625 27.296875 
Q 58.015625 14.40625 51.78125 6.484375 
Q 45.5625 -1.421875 35.59375 -1.421875 
Q 29.59375 -1.421875 25.265625 0.953125 
Q 20.953125 3.328125 18.109375 8.203125 
L 18.109375 0 
L 9.078125 0 
L 9.078125 75.984375 
L 18.109375 75.984375 
z
" id="BitstreamVeraSans-Roman-62"/>
    </defs>
    <g transform="translate(464.01786290322576 37.858264232673264)scale(0.17 -0.17)">
     <use xlink:href="#BitstreamVeraSans-Roman-62"/>
     <use x="63.4765625" xlink:href="#BitstreamVeraSans-Roman-65"/>
     <use x="125.0" xlink:href="#BitstreamVeraSans-Roman-73"/>
     <use x="177.099609375" xlink:href="#BitstreamVeraSans-Roman-74"/>
     <use x="216.30859375" xlink:href="#BitstreamVeraSans-Roman-20"/>
     <use x="248.095703125" xlink:href="#BitstreamVeraSans-Roman-32"/>
     <use x="311.71875" xlink:href="#BitstreamVeraSans-Roman-30"/>
     <use x="375.341796875" xlink:href="#BitstreamVeraSans-Roman-30"/>
     <use x="438.96484375" xlink:href="#BitstreamVeraSans-Roman-39"/>
    </g>
   </g>
   <g id="text_21">
    <!-- bbob f13, 20-D -->
    <g transform="translate(59.01855000000001 33.77540625)scale(0.102 -0.102)">
     <use xlink:href="#BitstreamVeraSans-Roman-62"/>
     <use x="63.4765625" xlink:href="#BitstreamVeraSans-Roman-62"/>
     <use x="126.953125" xlink:href="#BitstreamVeraSans-Roman-6f"/>
     <use x="188.134765625" xlink:href="#BitstreamVeraSans-Roman-62"/>
     <use x="251.611328125" xlink:href="#BitstreamVeraSans-Roman-20"/>
     <use x="283.3984375" xlink:href="#BitstreamVeraSans-Roman-66"/>
     <use x="318.603515625" xlink:href="#BitstreamVeraSans-Roman-31"/>
     <use x="382.2265625" xlink:href="#BitstreamVeraSans-Roman-33"/>
     <use x="445.849609375" xlink:href="#BitstreamVeraSans-Roman-2c"/>
     <use x="477.63671875" xlink:href="#BitstreamVeraSans-Roman-20"/>
     <use x="509.423828125" xlink:href="#BitstreamVeraSans-Roman-32"/>
     <use x="573.046875" xlink:href="#BitstreamVeraSans-Roman-30"/>
     <use x="636.669921875" xlink:href="#BitstreamVeraSans-Roman-2d"/>
     <use x="672.75390625" xlink:href="#BitstreamVeraSans-Roman-44"/>
    </g>
    <!-- 51 targets: 100..1e-08 -->
    <defs>
     <path d="M 11.71875 12.40625 
L 22.015625 12.40625 
L 22.015625 0 
L 11.71875 0 
z
M 11.71875 51.703125 
L 22.015625 51.703125 
L 22.015625 39.3125 
L 11.71875 39.3125 
z
" id="BitstreamVeraSans-Roman-3a"/>
    </defs>
    <g transform="translate(59.01855000000001 45.19717499999996)scale(0.102 -0.102)">
     <use xlink:href="#BitstreamVeraSans-Roman-35"/>
     <use x="63.623046875" xlink:href="#BitstreamVeraSans-Roman-31"/>
     <use x="127.24609375" xlink:href="#BitstreamVeraSans-Roman-20"/>
     <use x="159.033203125" xlink:href="#BitstreamVeraSans-Roman-74"/>
     <use x="198.2421875" xlink:href="#BitstreamVeraSans-Roman-61"/>
     <use x="259.521484375" xlink:href="#BitstreamVeraSans-Roman-72"/>
     <use x="300.619140625" xlink:href="#BitstreamVeraSans-Roman-67"/>
     <use x="364.095703125" xlink:href="#BitstreamVeraSans-Roman-65"/>
     <use x="425.619140625" xlink:href="#BitstreamVeraSans-Roman-74"/>
     <use x="464.828125" xlink:href="#BitstreamVeraSans-Roman-73"/>
     <use x="516.927734375" xlink:href="#BitstreamVeraSans-Roman-3a"/>
     <use x="550.619140625" xlink:href="#BitstreamVeraSans-Roman-20"/>
     <use x="582.40625" xlink:href="#BitstreamVeraSans-Roman-31"/>
     <use x="646.029296875" xlink:href="#BitstreamVeraSans-Roman-30"/>
     <use x="709.65234375" xlink:href="#BitstreamVeraSans-Roman-30"/>
     <use x="773.275390625" xlink:href="#BitstreamVeraSans-Roman-2e"/>
     <use x="805.0625" xlink:href="#BitstreamVeraSans-Roman-2e"/>
     <use x="836.849609375" xlink:href="#BitstreamVeraSans-Roman-31"/>
     <use x="900.47265625" xlink:href="#BitstreamVeraSans-Roman-65"/>
     <use x="961.99609375" xlink:href="#BitstreamVeraSans-Roman-2d"/>
     <use x="998.080078125" xlink:href="#BitstreamVeraSans-Roman-30"/>
     <use x="1061.703125" xlink:href="#BitstreamVeraSans-Roman-38"/>
    </g>
    <!-- 15 instances -->
    <g transform="translate(59.01855000000001 56.61894374999997)scale(0.102 -0.102)">
     <use xlink:href="#BitstreamVeraSans-Roman-31"/>
     <use x="63.623046875" xlink:href="#BitstreamVeraSans-Roman-35"/>
     <use x="127.24609375" xlink:href="#BitstreamVeraSans-Roman-20"/>
     <use x="159.033203125" xlink:href="#BitstreamVeraSans-Roman-69"/>
     <use x="186.81640625" xlink:href="#BitstreamVeraSans-Roman-6e"/>
     <use x="250.1953125" xlink:href="#BitstreamVeraSans-Roman-73"/>
     <use x="302.294921875" xlink:href="#BitstreamVeraSans-Roman-74"/>
     <use x="341.50390625" xlink:href="#BitstreamVeraSans-Roman-61"/>
     <use x="402.783203125" xlink:href="#BitstreamVeraSans-Roman-6e"/>
     <use x="466.162109375" xlink:href="#BitstreamVeraSans-Roman-63"/>
     <use x="521.142578125" xlink:href="#BitstreamVeraSans-Roman-65"/>
     <use x="582.666015625" xlink:href="#BitstreamVeraSans-Roman-73"/>
    </g>
   </g>
   <g id="text_22">
    <!-- v2.2.1.10 -->
    <g style="fill:#808080;" transform="translate(255.5696875 379.1953125)scale(0.1 -0.1)">
     <use xlink:href="#BitstreamVeraSans-Roman-76"/>
     <use x="59.1796875" xlink:href="#BitstreamVeraSans-Roman-32"/>
     <use x="122.802734375" xlink:href="#BitstreamVeraSans-Roman-2e"/>
     <use x="154.58984375" xlink:href="#BitstreamVeraSans-Roman-32"/>
     <use x="218.212890625" xlink:href="#BitstreamVeraSans-Roman-2e"/>
     <use x="250.0" xlink:href="#BitstreamVeraSans-Roman-31"/>
     <use x="313.623046875" xlink:href="#BitstreamVeraSans-Roman-2e"/>
     <use x="345.41015625" xlink:href="#BitstreamVeraSans-Roman-31"/>
     <use x="409.033203125" xlink:href="#BitstreamVeraSans-Roman-30"/>
    </g>
   </g>
   <g id="text_23">
    <!-- 13 Sharp ridge -->
    <defs>
     <path d="M 54.890625 33.015625 
L 54.890625 0 
L 45.90625 0 
L 45.90625 32.71875 
Q 45.90625 40.484375 42.875 44.328125 
Q 39.84375 48.1875 33.796875 48.1875 
Q 26.515625 48.1875 22.3125 43.546875 
Q 18.109375 38.921875 18.109375 30.90625 
L 18.109375 0 
L 9.078125 0 
L 9.078125 75.984375 
L 18.109375 75.984375 
L 18.109375 46.1875 
Q 21.34375 51.125 25.703125 53.5625 
Q 30.078125 56 35.796875 56 
Q 45.21875 56 50.046875 50.171875 
Q 54.890625 44.34375 54.890625 33.015625 
" id="BitstreamVeraSans-Roman-68"/>
    </defs>
    <g transform="translate(205.10875 17.399999999999977)scale(0.2 -0.2)">
     <use xlink:href="#BitstreamVeraSans-Roman-31"/>
     <use x="63.623046875" xlink:href="#BitstreamVeraSans-Roman-33"/>
     <use x="127.24609375" xlink:href="#BitstreamVeraSans-Roman-20"/>
     <use x="159.033203125" xlink:href="#BitstreamVeraSans-Roman-53"/>
     <use x="222.509765625" xlink:href="#BitstreamVeraSans-Roman-68"/>
     <use x="285.888671875" xlink:href="#BitstreamVeraSans-Roman-61"/>
     <use x="347.16796875" xlink:href="#BitstreamVeraSans-Roman-72"/>
     <use x="388.28125" xlink:href="#BitstreamVeraSans-Roman-70"/>
     <use x="451.7578125" xlink:href="#BitstreamVeraSans-Roman-20"/>
     <use x="483.544921875" xlink:href="#BitstreamVeraSans-Roman-72"/>
     <use x="524.658203125" xlink:href="#BitstreamVeraSans-Roman-69"/>
     <use x="552.44140625" xlink:href="#BitstreamVeraSans-Roman-64"/>
     <use x="615.91796875" xlink:href="#BitstreamVeraSans-Roman-67"/>
     <use x="679.39453125" xlink:href="#BitstreamVeraSans-Roman-65"/>
    </g>
   </g>
  </g>
 </g>
 <defs>
  <clipPath id="pbe88149655">
   <rect height="362.5" width="449.35499999999996" x="54.52500000000001" y="22.399999999999977"/>
  </clipPath>
 </defs>
</svg>
