<?xml version="1.0" encoding="utf-8" standalone="no"?>
<!DOCTYPE svg PUBLIC "-//W3C//DTD SVG 1.1//EN"
  "http://www.w3.org/Graphics/SVG/1.1/DTD/svg11.dtd">
<!-- Created with matplotlib (http://matplotlib.org/) -->
<svg height="432pt" version="1.1" viewBox="0 0 576 432" width="576pt" xmlns="http://www.w3.org/2000/svg" xmlns:xlink="http://www.w3.org/1999/xlink">
 <defs>
  <style type="text/css">
*{stroke-linecap:butt;stroke-linejoin:round;stroke-miterlimit:100000;}
  </style>
 </defs>
 <g id="figure_1">
  <g id="patch_1">
   <path d="M 0 432 
L 576 432 
L 576 0 
L 0 0 
z
" style="fill:#ffffff;"/>
  </g>
  <g id="axes_1">
   <g id="patch_2">
    <path d="M 54.525 384.9 
L 503.88 384.9 
L 503.88 7.678218 
L 54.525 7.678218 
z
" style="fill:#ffffff;"/>
   </g>
   <g id="line2d_1">
    <path d="M 2.755991 384.9 
L 2.755991 381.238364 
L 81.367953 381.238364 
L 81.367953 379.407545 
L 93.257953 379.407545 
L 93.257953 377.576727 
L 98.908254 377.576727 
L 98.908254 375.745909 
L 99.826055 375.745909 
L 99.826055 373.915091 
L 101.832238 373.915091 
L 101.832238 372.084273 
L 106.739232 372.084273 
L 106.739232 370.253454 
L 111.310945 370.253454 
L 111.310945 368.422636 
L 112.536002 368.422636 
L 112.536002 366.591818 
L 113.207186 366.591818 
L 113.207186 364.761 
L 115.10829 364.761 
L 115.10829 362.930182 
L 118.487084 362.930182 
L 118.487084 361.099363 
L 119.509214 361.099363 
L 119.509214 359.268545 
L 121.878034 359.268545 
L 121.878034 357.437727 
L 122.212774 357.437727 
L 122.212774 355.606909 
L 124.823942 355.606909 
L 124.823942 353.776091 
L 125.020301 353.776091 
L 125.020301 351.945272 
L 126.804857 351.945272 
L 126.804857 348.283636 
L 128.873717 348.283636 
L 128.873717 346.452818 
L 129.682545 346.452818 
L 129.682545 344.622 
L 132.862776 344.622 
L 132.862776 342.791181 
L 133.741922 342.791181 
L 133.741922 340.960363 
L 135.830452 340.960363 
L 135.830452 337.298727 
L 138.126629 337.298727 
L 138.126629 335.467909 
L 138.719029 335.467909 
L 138.719029 333.63709 
L 140.604326 333.63709 
L 140.604326 331.806272 
L 141.701275 331.806272 
L 141.701275 329.975454 
L 142.658142 329.975454 
L 142.658142 328.144636 
L 144.621852 328.144636 
L 144.621852 326.313818 
L 145.147085 326.313818 
L 145.147085 324.482999 
L 145.660328 324.482999 
L 145.660328 322.652181 
L 147.423868 322.652181 
L 147.423868 320.821363 
L 148.308443 320.821363 
L 148.308443 318.990545 
L 148.720987 318.990545 
L 148.720987 317.159727 
L 149.325947 317.159727 
L 149.325947 315.328908 
L 149.58968 315.328908 
L 149.58968 313.49809 
L 149.882728 313.49809 
L 149.882728 311.667272 
L 150.894792 311.667272 
L 150.894792 309.836454 
L 151.018156 309.836454 
L 151.018156 308.005636 
L 151.504952 308.005636 
L 151.504952 306.174817 
L 152.591866 306.174817 
L 152.620525 302.513181 
L 152.706283 302.513181 
L 152.706283 300.682363 
L 153.408495 300.682363 
L 153.408495 298.851545 
L 153.765158 298.851545 
L 153.765158 297.020726 
L 154.116251 297.020726 
L 154.116251 295.189908 
L 154.593502 295.189908 
L 154.593502 293.35909 
L 154.983616 293.35909 
L 154.983616 291.528272 
L 155.341714 291.528272 
L 155.341714 289.697454 
L 155.793902 289.697454 
L 155.793902 287.866635 
L 155.917912 287.866635 
L 155.917912 286.035817 
L 156.212775 286.035817 
L 156.212775 284.204999 
L 156.358769 284.204999 
L 156.358769 282.374181 
L 156.503821 282.374181 
L 156.503821 280.543363 
L 156.814926 280.543363 
L 156.814926 278.712544 
L 157.098329 278.712544 
L 157.098329 276.881726 
L 157.262013 276.881726 
L 157.285299 273.22009 
L 157.905084 273.22009 
L 157.905084 271.389272 
L 158.018007 271.389272 
L 158.040524 267.727635 
L 158.242167 267.727635 
L 158.308981 264.065999 
L 158.57427 264.065999 
L 158.57427 262.235181 
L 158.923189 262.235181 
L 158.988013 258.573544 
L 159.138545 258.573544 
L 159.138545 256.742726 
L 159.478881 256.742726 
L 159.478881 254.911908 
L 159.87645 254.911908 
L 159.897181 249.419453 
L 160.267111 249.419453 
L 160.267111 245.757817 
L 160.38908 245.757817 
L 160.490218 236.603726 
L 160.671128 236.603726 
L 160.711134 232.942089 
L 160.810837 232.942089 
L 160.810837 231.111271 
L 160.969448 231.111271 
L 161.008926 227.449635 
L 161.087676 227.449635 
L 161.087676 225.618816 
L 161.361147 225.618816 
L 161.361147 221.95718 
L 161.477339 221.95718 
L 161.554468 216.464725 
L 161.803324 216.464725 
L 161.879344 205.479816 
L 161.917258 205.479816 
L 161.992895 201.81818 
L 162.049456 201.81818 
L 162.105875 194.494907 
L 162.162153 194.494907 
L 162.162153 192.664089 
L 162.478427 192.664089 
L 162.478427 190.833271 
L 162.753845 190.833271 
L 162.753845 189.002452 
L 162.9356 189.002452 
L 162.953695 185.340816 
L 163.115898 185.340816 
L 163.223386 181.67918 
L 163.383662 181.67918 
L 163.489881 178.017543 
L 163.648275 178.017543 
L 163.718315 174.355907 
L 163.80556 174.355907 
L 163.875113 168.863452 
L 163.979041 168.863452 
L 163.979041 167.032634 
L 164.116868 167.032634 
L 164.219687 159.709361 
L 164.287972 159.709361 
L 164.373039 154.216907 
L 164.457784 154.216907 
L 164.559059 148.724452 
L 164.592716 148.724452 
L 164.693387 139.570361 
L 164.726844 139.570361 
L 164.826916 130.41627 
L 165.595781 130.41627 
L 165.595781 128.585452 
L 166.60218 128.585452 
L 166.60218 126.754634 
L 167.253907 126.754634 
L 167.253907 124.923815 
L 168.233172 124.923815 
L 168.233172 123.092997 
L 168.784149 123.092997 
L 168.784149 121.262179 
L 169.020157 121.262179 
L 169.020157 119.431361 
L 169.860487 119.431361 
L 169.860487 117.600543 
L 170.670538 117.600543 
L 170.670538 115.769724 
L 171.228205 115.769724 
L 171.228205 113.938906 
L 171.78459 113.938906 
L 171.78459 112.108088 
L 172.327539 112.108088 
L 172.327539 110.27727 
L 172.915824 110.27727 
L 172.915824 108.446452 
L 173.691964 108.446452 
L 173.691964 106.615633 
L 174.256977 106.615633 
L 174.256977 104.784815 
L 174.604379 104.784815 
L 174.604379 102.953997 
L 175.283483 102.953997 
L 175.283483 101.123179 
L 176.023731 101.123179 
L 176.023731 99.292361 
L 176.494124 99.292361 
L 176.494124 97.461542 
L 177.032372 97.461542 
L 177.032372 95.630724 
L 177.463369 95.630724 
L 177.463369 93.799906 
L 177.783618 93.799906 
L 177.783618 91.969088 
L 178.200582 91.969088 
L 178.200582 90.13827 
L 178.627977 90.13827 
L 178.627977 88.307451 
L 179.100382 88.307451 
L 179.100382 86.476633 
L 179.743791 86.476633 
L 179.743791 84.645815 
L 180.872147 84.645815 
L 180.872147 82.814997 
L 183.995266 82.814997 
L 183.995266 80.984179 
L 184.535024 80.984179 
L 184.535024 79.15336 
L 189.824584 79.15336 
L 189.824584 77.322542 
L 190.301235 77.322542 
L 190.301235 75.491724 
L 191.343246 75.491724 
L 191.343246 73.660906 
L 192.275369 73.660906 
L 192.275369 71.830088 
L 192.708075 71.830088 
L 192.708075 69.999269 
L 193.320832 69.999269 
L 193.320832 68.168451 
L 194.688817 68.168451 
L 194.79878 64.506815 
L 194.873248 64.506815 
L 194.873248 26.059633 
L 195.676528 26.059633 
L 195.739736 22.397996 
L 195.932472 22.397996 
L 195.932472 20.567178 
L 197.162334 20.567178 
L 197.162334 18.73636 
L 197.464439 18.73636 
L 197.464439 16.905542 
L 197.631398 16.905542 
L 197.739452 13.243905 
L 197.942573 13.243905 
L 197.942573 11.413087 
L 416.908065 11.413087 
L 416.908065 11.413087 
" style="fill:none;stroke:#f5deb3;stroke-linecap:square;stroke-width:6.0;"/>
   </g>
   <g id="line2d_2">
    <defs>
     <path d="M -0 7.778175 
L 7.778175 0 
L 0 -7.778175 
L -7.778175 -0 
z
" id="m35539468a3" style="stroke:#f5deb3;stroke-linejoin:miter;stroke-width:1.5;"/>
    </defs>
    <g>
     <use style="fill:#f5deb3;stroke:#f5deb3;stroke-linejoin:miter;stroke-width:1.5;" x="93.25795286582618" xlink:href="#m35539468a3" y="377.5767271951423"/>
     <use style="fill:#f5deb3;stroke:#f5deb3;stroke-linejoin:miter;stroke-width:1.5;" x="158.92318886780595" xlink:href="#m35539468a3" y="260.40436231741984"/>
     <use style="fill:#f5deb3;stroke:#f5deb3;stroke-linejoin:miter;stroke-width:1.5;" x="164.79360825401136" xlink:href="#m35539468a3" y="135.9087246348397"/>
     <use style="fill:#f5deb3;stroke:#f5deb3;stroke-linejoin:miter;stroke-width:1.5;" x="197.94257275210953" xlink:href="#m35539468a3" y="13.243905153473975"/>
     <use style="fill:#f5deb3;stroke:#f5deb3;stroke-linejoin:miter;stroke-width:1.5;" x="197.94257275210953" xlink:href="#m35539468a3" y="11.413086952259562"/>
     <use style="fill:#f5deb3;stroke:#f5deb3;stroke-linejoin:miter;stroke-width:1.5;" x="416.908064516129" xlink:href="#m35539468a3" y="11.413086952259562"/>
    </g>
   </g>
   <g id="line2d_3">
    <path d="M -15527.946774 758.386913 
" style="fill:none;stroke:#f5deb3;stroke-linecap:square;stroke-width:6.0;"/>
    <g>
     <use style="fill:#f5deb3;stroke:#f5deb3;stroke-linejoin:miter;stroke-width:1.5;" x="-15527.946774193548" xlink:href="#m35539468a3" y="758.3869130477403"/>
    </g>
   </g>
   <g id="line2d_4">
    <path d="M 416.908065 11.413087 
L 456.770202 18.882825 
" style="fill:none;stroke:#f5deb3;stroke-linecap:square;stroke-width:6.0;"/>
    <g>
     <use style="fill:#f5deb3;stroke:#f5deb3;stroke-linejoin:miter;stroke-width:1.5;" x="416.908064516129" xlink:href="#m35539468a3" y="11.413086952259562"/>
     <use style="fill:#f5deb3;stroke:#f5deb3;stroke-linejoin:miter;stroke-width:1.5;" x="456.77020161290324" xlink:href="#m35539468a3" y="18.882825213214403"/>
    </g>
   </g>
   <g id="line2d_5">
    <defs>
     <path d="M 0 1.5 
C 0.397805 1.5 0.77937 1.341951 1.06066 1.06066 
C 1.341951 0.77937 1.5 0.397805 1.5 0 
C 1.5 -0.397805 1.341951 -0.77937 1.06066 -1.06066 
C 0.77937 -1.341951 0.397805 -1.5 0 -1.5 
C -0.397805 -1.5 -0.77937 -1.341951 -1.06066 -1.06066 
C -1.341951 -0.77937 -1.5 -0.397805 -1.5 0 
C -1.5 0.397805 -1.341951 0.77937 -1.06066 1.06066 
C -0.77937 1.341951 -0.397805 1.5 0 1.5 
z
" id="m8c15c962f8" style="stroke:#f5deb3;stroke-width:0.5;"/>
    </defs>
    <g>
     <use style="fill:#f5deb3;stroke:#f5deb3;stroke-width:0.5;" x="197.94257275210953" xlink:href="#m8c15c962f8" y="11.413086952259562"/>
     <use style="fill:#f5deb3;stroke:#f5deb3;stroke-width:0.5;" x="197.94257275210953" xlink:href="#m8c15c962f8" y="11.413086952259562"/>
    </g>
   </g>
   <g id="line2d_6">
    <defs>
     <path d="M 0 1.5 
C 0.397805 1.5 0.77937 1.341951 1.06066 1.06066 
C 1.341951 0.77937 1.5 0.397805 1.5 0 
C 1.5 -0.397805 1.341951 -0.77937 1.06066 -1.06066 
C 0.77937 -1.341951 0.397805 -1.5 0 -1.5 
C -0.397805 -1.5 -0.77937 -1.341951 -1.06066 -1.06066 
C -1.341951 -0.77937 -1.5 -0.397805 -1.5 0 
C -1.5 0.397805 -1.341951 0.77937 -1.06066 1.06066 
C -0.77937 1.341951 -0.397805 1.5 0 1.5 
z
" id="m9d31264ecb" style="stroke:#ff00ff;stroke-width:0.5;"/>
    </defs>
    <g>
     <use style="fill:#ff00ff;stroke:#ff00ff;stroke-width:0.5;" x="251.0339476029547" xlink:href="#m9d31264ecb" y="11.413086952259562"/>
     <use style="fill:#ff00ff;stroke:#ff00ff;stroke-width:0.5;" x="251.0339476029547" xlink:href="#m9d31264ecb" y="11.413086952259562"/>
    </g>
   </g>
   <g id="line2d_7">
    <path d="M 86.248213 384.9 
L 86.248213 384.716918 
L 88.835316 384.716918 
L 88.835316 384.533836 
L 93.655892 384.533836 
L 93.655892 384.350755 
L 94.431245 384.350755 
L 94.431245 383.069182 
L 95.906068 383.069182 
L 95.906068 382.8861 
L 96.260139 382.8861 
L 96.260139 382.703018 
L 97.623162 382.703018 
L 97.623162 382.153773 
L 97.951386 382.153773 
L 97.951386 381.970691 
L 101.556369 381.970691 
L 101.556369 381.787609 
L 103.67398 381.787609 
L 103.67398 381.604527 
L 104.173623 381.604527 
L 104.173623 380.8722 
L 105.140782 380.8722 
L 105.140782 380.689118 
L 105.609195 380.689118 
L 105.609195 380.506036 
L 105.839792 380.506036 
L 105.839792 380.322954 
L 108.231542 380.322954 
L 108.231542 380.139873 
L 110.393144 380.139873 
L 110.393144 379.956791 
L 110.948308 379.956791 
L 110.948308 379.773709 
L 113.371898 379.773709 
L 113.371898 379.407545 
L 113.535411 379.407545 
L 113.535411 379.224464 
L 115.10829 379.224464 
L 115.10829 379.041382 
L 122.433198 379.041382 
L 122.433198 378.8583 
L 123.188093 378.8583 
L 123.188093 378.492136 
L 123.712196 378.492136 
L 123.712196 378.309054 
L 124.020892 378.309054 
L 124.122856 377.942891 
L 124.823942 377.942891 
L 124.823942 377.759809 
L 125.311661 377.759809 
L 125.311661 377.393645 
L 125.977168 377.393645 
L 125.977168 377.027482 
L 126.348797 377.027482 
L 126.348797 376.8444 
L 127.340192 376.8444 
L 127.428188 376.478236 
L 128.7084 376.478236 
L 128.7084 376.295154 
L 129.037827 376.295154 
L 129.037827 376.112073 
L 129.200748 376.112073 
L 129.281768 375.562827 
L 130.768142 375.562827 
L 130.768142 375.379745 
L 132.233351 375.379745 
L 132.233351 375.196664 
L 132.793704 375.196664 
L 132.793704 375.013582 
L 133.874176 375.013582 
L 133.874176 374.8305 
L 135.155605 374.8305 
L 135.155605 374.464336 
L 137.405781 374.464336 
L 137.405781 374.281254 
L 138.126629 374.281254 
L 138.126629 373.915091 
L 138.289747 373.915091 
L 138.289747 373.548927 
L 139.808384 373.548927 
L 139.808384 373.182764 
L 140.160081 373.182764 
L 140.160081 372.999682 
L 141.135635 372.999682 
L 141.135635 372.633518 
L 144.167635 372.633518 
L 144.167635 372.450436 
L 144.70346 372.450436 
L 144.70346 372.084273 
L 145.107115 372.084273 
L 145.107115 371.901191 
L 145.306258 371.901191 
L 145.385423 371.351945 
L 146.42774 371.351945 
L 146.42774 370.985782 
L 148.099298 370.985782 
L 148.099298 370.8027 
L 148.515661 370.8027 
L 148.584312 369.887291 
L 149.292762 369.887291 
L 149.292762 369.704209 
L 150.140047 369.704209 
L 150.140047 369.521127 
L 150.863845 369.521127 
L 150.863845 369.338045 
L 151.048891 369.338045 
L 151.048891 369.154963 
L 151.444675 369.154963 
L 151.444675 368.971882 
L 152.215935 368.971882 
L 152.215935 368.7888 
L 153.017962 368.7888 
L 153.017962 368.605718 
L 153.518841 368.605718 
L 153.573812 368.239554 
L 153.710653 368.239554 
L 153.710653 368.056473 
L 154.593502 368.056473 
L 154.593502 367.873391 
L 155.137786 367.873391 
L 155.137786 367.690309 
L 155.54381 367.690309 
L 155.54381 367.507227 
L 155.893164 367.507227 
L 155.893164 367.324145 
L 156.237173 367.324145 
L 156.28589 366.7749 
L 156.600005 366.7749 
L 156.600005 366.591818 
L 157.262013 366.591818 
L 157.285299 365.859491 
L 157.746032 365.859491 
L 157.746032 365.493327 
L 157.950321 365.493327 
L 157.995468 364.944082 
L 159.45776 364.944082 
L 159.45776 364.761 
L 159.83493 364.761 
L 159.83493 364.394836 
L 160.041767 364.394836 
L 160.041767 364.211754 
L 160.711134 364.211754 
L 160.771009 363.662509 
L 160.870447 363.662509 
L 160.870447 363.479427 
L 160.989196 363.479427 
L 161.048335 362.7471 
L 161.166151 362.7471 
L 161.166151 362.564018 
L 161.380554 362.564018 
L 161.380554 362.380936 
L 161.631333 362.380936 
L 161.631333 362.197854 
L 161.765217 362.197854 
L 161.765217 362.014772 
L 162.011765 362.014772 
L 162.011765 361.831691 
L 162.199594 361.831691 
L 162.199594 361.648609 
L 163.043952 361.648609 
L 163.133848 361.099363 
L 163.187614 361.099363 
L 163.259102 360.550118 
L 163.436834 360.550118 
L 163.507536 360.183954 
L 163.595601 360.183954 
L 163.595601 359.817791 
L 163.718315 359.817791 
L 163.718315 359.451627 
L 163.840363 359.451627 
L 163.840363 359.085463 
L 164.202583 359.085463 
L 164.236778 358.7193 
L 164.322038 358.7193 
L 164.322038 358.536218 
L 164.457784 358.536218 
L 164.559059 357.620809 
L 164.693387 357.620809 
L 164.693387 357.437727 
L 164.926546 357.437727 
L 164.926546 357.071563 
L 165.418176 357.071563 
L 165.418176 356.888482 
L 165.724072 356.888482 
L 165.756031 356.339236 
L 165.962663 356.339236 
L 165.962663 356.156154 
L 166.23004 356.156154 
L 166.23004 355.973072 
L 167.447278 355.973072 
L 167.550717 355.606909 
L 167.785375 355.606909 
L 167.872744 355.057663 
L 167.959775 355.057663 
L 168.017609 354.6915 
L 168.218865 354.6915 
L 168.233172 353.776091 
L 168.700258 353.776091 
L 168.798101 353.043763 
L 168.89552 353.043763 
L 168.89552 352.860681 
L 169.033963 352.860681 
L 169.130368 352.311436 
L 169.633182 352.311436 
L 169.740435 351.762191 
L 169.820541 351.762191 
L 169.887079 351.396027 
L 170.098685 351.396027 
L 170.177527 350.6637 
L 170.334385 350.6637 
L 170.334385 350.297536 
L 170.46427 350.297536 
L 170.46427 350.114454 
L 170.580528 350.114454 
L 170.593409 349.565209 
L 170.86221 349.565209 
L 170.86221 349.382127 
L 171.365487 349.382127 
L 171.365487 348.283636 
L 171.674409 348.283636 
L 171.686679 347.368227 
L 171.857746 347.368227 
L 171.967034 346.818981 
L 172.160022 346.818981 
L 172.160022 345.903572 
L 172.552904 345.903572 
L 172.552904 345.72049 
L 172.904208 345.72049 
L 172.915824 344.805081 
L 173.135398 344.805081 
L 173.135398 344.622 
L 173.272979 344.622 
L 173.295828 344.255836 
L 173.635799 344.255836 
L 173.669515 343.889672 
L 173.870756 343.889672 
L 173.915233 343.157345 
L 174.081242 343.157345 
L 174.081242 342.791181 
L 174.387882 342.791181 
L 174.387882 342.6081 
L 174.636674 342.6081 
L 174.636674 342.425018 
L 175.031217 342.425018 
L 175.031217 342.241936 
L 175.439724 342.241936 
L 175.522611 341.875772 
L 175.861325 341.875772 
L 175.912203 341.326527 
L 176.14477 341.326527 
L 176.235124 340.5942 
L 176.315134 340.5942 
L 176.315134 339.861872 
L 176.434619 339.861872 
L 176.434619 339.495709 
L 176.710972 339.495709 
L 176.769751 338.397218 
L 176.847885 338.397218 
L 176.847885 338.214136 
L 177.032372 338.214136 
L 177.032372 338.031054 
L 177.196166 338.031054 
L 177.196166 337.847972 
L 177.586356 337.847972 
L 177.642894 337.298727 
L 177.736808 337.298727 
L 177.811658 336.749481 
L 178.090146 336.749481 
L 178.16383 336.383318 
L 178.356111 336.383318 
L 178.356111 336.017154 
L 178.53772 336.017154 
L 178.582894 335.467909 
L 178.717873 335.467909 
L 178.780587 334.735581 
L 178.896594 334.735581 
L 178.896594 334.552499 
L 179.118016 334.552499 
L 179.170834 333.820172 
L 179.25859 333.820172 
L 179.25859 333.63709 
L 179.502499 333.63709 
L 179.597602 333.270927 
L 179.760927 333.270927 
L 179.820802 332.721681 
L 179.889036 332.721681 
L 179.889036 332.538599 
L 180.075618 332.538599 
L 180.168331 331.806272 
L 180.210348 331.806272 
L 180.319225 331.440109 
L 180.427577 331.440109 
L 180.535409 331.073945 
L 180.568484 331.073945 
L 180.568484 330.890863 
L 180.77411 330.890863 
L 180.863993 330.524699 
L 180.888445 330.524699 
L 180.929138 329.792372 
L 181.123447 329.792372 
L 181.195882 329.243127 
L 181.324082 329.243127 
L 181.324082 328.876963 
L 181.617774 328.876963 
L 181.720059 328.510799 
L 181.853118 328.510799 
L 181.899892 327.961554 
L 182.024151 327.961554 
L 182.101465 327.59539 
L 182.186205 327.59539 
L 182.293596 327.046145 
L 182.324185 327.046145 
L 182.324185 326.863063 
L 182.468918 326.863063 
L 182.468918 326.496899 
L 183.156845 326.496899 
L 183.223025 325.58149 
L 183.281689 325.58149 
L 183.376693 325.215327 
L 183.507578 325.215327 
L 183.616069 324.849163 
L 183.623284 324.849163 
L 183.623284 324.666081 
L 183.881464 324.666081 
L 183.881464 324.482999 
L 184.037794 324.482999 
L 184.037794 324.299918 
L 184.22818 324.299918 
L 184.22818 324.116836 
L 184.638681 324.116836 
L 184.638681 323.933754 
L 184.789851 323.933754 
L 184.789851 323.750672 
L 184.940011 323.750672 
L 184.940011 323.201427 
L 185.055361 323.201427 
L 185.163387 322.286018 
L 185.244068 322.286018 
L 185.244068 322.102936 
L 185.820502 322.102936 
L 185.846652 321.370608 
L 185.937941 321.370608 
L 186.02886 320.272117 
L 186.061242 320.272117 
L 186.151665 319.905954 
L 186.190307 319.905954 
L 186.286621 319.173627 
L 186.369761 319.173627 
L 186.369761 318.990545 
L 186.535125 318.990545 
L 186.573114 318.624381 
L 186.680401 318.624381 
L 186.680401 318.441299 
L 186.843504 318.441299 
L 186.843504 318.258217 
L 187.042635 318.258217 
L 187.135374 317.892054 
L 187.466102 317.892054 
L 187.484334 317.52589 
L 187.599461 317.52589 
L 187.635695 316.976645 
L 187.792036 316.976645 
L 187.810006 316.427399 
L 188.071923 316.427399 
L 188.125124 316.061236 
L 188.295695 316.061236 
L 188.40092 315.328908 
L 188.494042 315.328908 
L 188.494042 315.145827 
L 188.656082 315.145827 
L 188.684895 314.596581 
L 189.027805 314.596581 
L 189.027805 314.413499 
L 189.287205 314.413499 
L 189.287205 314.230417 
L 189.939252 314.230417 
L 190.037075 313.131927 
L 190.139873 313.131927 
L 190.139873 312.399599 
L 190.301235 312.399599 
L 190.40817 311.667272 
L 190.456125 311.667272 
L 190.472088 311.301108 
L 190.76799 311.301108 
L 190.867508 310.751863 
L 190.940555 310.751863 
L 190.940555 310.568781 
L 191.1686 310.568781 
L 191.1686 310.385699 
L 191.312525 310.385699 
L 191.312525 310.202617 
L 191.763975 310.202617 
L 191.763975 308.005636 
L 192.068242 308.005636 
L 192.068242 304.893245 
L 192.402641 304.893245 
L 192.402641 304.710163 
L 192.543753 304.710163 
L 192.640559 301.597772 
L 192.655044 301.597772 
L 192.655044 301.231608 
L 193.033159 301.231608 
L 193.047394 300.499281 
L 193.269228 300.499281 
L 193.269228 299.766954 
L 193.38634 299.766954 
L 193.442337 295.556072 
L 193.512139 295.556072 
L 193.590986 293.35909 
L 193.632617 293.35909 
L 193.632617 292.992926 
L 193.793786 292.992926 
L 193.903638 286.035817 
L 194.067416 286.035817 
L 194.08554 285.120408 
L 194.279457 285.120408 
L 194.310867 284.571163 
L 194.569449 284.571163 
L 194.591602 284.204999 
L 194.697633 284.204999 
L 194.697633 283.838835 
L 194.921303 283.838835 
L 194.995368 282.557263 
L 195.095186 282.557263 
L 195.181626 279.078708 
L 195.314955 279.078708 
L 195.366354 276.149399 
L 195.490087 276.149399 
L 195.587738 270.840026 
L 196.226751 270.840026 
L 196.284326 268.276881 
L 196.415375 268.276881 
L 196.464322 267.544553 
L 196.553782 267.544553 
L 196.634802 266.995308 
L 196.759809 266.995308 
L 196.795971 262.967508 
L 196.963965 262.967508 
L 197.035579 258.939708 
L 197.087159 258.939708 
L 197.087159 258.20738 
L 197.237257 258.20738 
L 197.237257 257.841217 
L 197.425433 257.841217 
L 197.425433 257.475053 
L 197.557778 257.475053 
L 197.650731 256.925808 
L 197.697064 256.925808 
L 197.793285 254.17958 
L 197.808643 254.17958 
L 197.808643 253.813417 
L 197.927307 253.813417 
L 198.007338 253.08109 
L 198.04155 253.08109 
L 198.121176 252.714926 
L 198.155215 252.714926 
L 198.208063 251.799517 
L 198.29086 251.799517 
L 198.31714 251.067189 
L 198.50397 251.067189 
L 198.552293 250.334862 
L 198.656021 250.334862 
L 198.656021 249.968699 
L 198.82173 249.968699 
L 198.884015 249.419453 
L 198.975298 249.419453 
L 199.015346 248.870208 
L 199.142297 248.870208 
L 199.142297 248.504044 
L 199.257743 248.504044 
L 199.279323 247.405553 
L 199.447655 247.405553 
L 199.547342 245.940899 
L 199.579291 245.940899 
L 199.643053 245.574735 
L 199.717213 245.574735 
L 199.717213 245.391653 
L 199.88581 245.391653 
L 199.931255 245.025489 
L 200.073983 245.025489 
L 200.157112 244.659326 
L 200.219258 244.659326 
L 200.219258 244.476244 
L 200.384145 244.476244 
L 200.404671 244.11008 
L 200.530837 244.11008 
L 200.55123 243.377753 
L 200.831448 243.377753 
L 200.941897 242.462344 
L 200.978593 242.462344 
L 200.978593 242.279262 
L 201.138024 242.279262 
L 201.227209 241.730017 
L 201.371795 241.730017 
L 201.371795 241.546935 
L 201.567471 241.546935 
L 201.567471 241.363853 
L 201.713118 241.363853 
L 201.803269 240.814608 
L 201.96655 240.814608 
L 201.96655 240.631526 
L 202.09696 240.631526 
L 202.185588 239.716117 
L 202.308455 239.716117 
L 202.408769 239.349953 
L 202.728652 239.349953 
L 202.728652 239.166871 
L 202.842459 239.166871 
L 202.900677 238.617626 
L 203.101746 238.617626 
L 203.101746 238.434544 
L 203.258907 238.434544 
L 203.337077 238.06838 
L 203.373064 238.06838 
L 203.373064 237.885298 
L 203.599655 237.885298 
L 203.599655 237.519135 
L 203.97036 237.519135 
L 204.072257 236.603726 
L 204.280435 236.603726 
L 204.329308 235.322153 
L 204.421017 235.322153 
L 204.421017 235.139071 
L 204.862818 235.139071 
L 204.862818 234.955989 
L 205.030456 234.955989 
L 205.049933 234.406744 
L 205.149833 234.406744 
L 205.171973 234.04058 
L 205.301606 234.04058 
L 205.403134 233.674417 
L 205.51783 233.674417 
L 205.523277 233.125171 
L 205.659028 233.125171 
L 205.758958 232.392844 
L 205.898655 232.392844 
L 205.898655 232.209762 
L 206.082691 232.209762 
L 206.172825 231.477435 
L 206.307351 231.477435 
L 206.32838 230.378944 
L 206.488086 230.378944 
L 206.50634 229.829698 
L 206.8863 229.829698 
L 206.929829 229.280453 
L 207.077711 229.280453 
L 207.077711 229.097371 
L 207.277583 229.097371 
L 207.277583 228.731207 
L 207.525574 228.731207 
L 207.592736 228.365044 
L 207.741269 228.365044 
L 207.817629 227.632717 
L 207.861848 227.632717 
L 207.86921 227.266553 
L 207.979343 227.266553 
L 208.028118 226.900389 
L 208.135053 226.900389 
L 208.135053 226.717307 
L 208.280058 226.717307 
L 208.280058 226.534226 
L 208.448058 226.534226 
L 208.548258 224.886489 
L 208.614811 224.886489 
L 208.614811 224.520326 
L 208.813296 224.520326 
L 208.909543 223.604916 
L 208.932955 223.604916 
L 208.932955 223.421835 
L 209.177325 223.421835 
L 209.177325 223.238753 
L 209.361745 223.238753 
L 209.414487 222.506426 
L 209.510481 222.506426 
L 209.601524 221.774098 
L 209.640105 221.774098 
L 209.676357 221.407935 
L 209.780257 221.407935 
L 209.854499 220.675607 
L 209.948636 220.675607 
L 210.033469 219.94328 
L 210.062418 219.94328 
L 210.062418 219.760198 
L 210.211026 219.760198 
L 210.211026 219.394035 
L 210.378416 219.394035 
L 210.406924 218.478626 
L 210.651046 218.478626 
L 210.757022 217.197053 
L 210.858205 217.197053 
L 210.93968 216.464725 
L 211.112373 216.464725 
L 211.203513 215.366235 
L 211.260553 215.366235 
L 211.37 213.352335 
L 211.462195 213.352335 
L 211.549848 212.436925 
L 211.599783 212.436925 
L 211.643385 211.704598 
L 211.777809 211.704598 
L 211.796359 211.338435 
L 211.970798 211.338435 
L 211.993274 209.690698 
L 212.139836 209.690698 
L 212.239036 208.592207 
L 212.275368 208.592207 
L 212.297541 208.226044 
L 212.390031 208.226044 
L 212.390031 208.042962 
L 212.581836 208.042962 
L 212.675147 207.493716 
L 212.692971 207.493716 
L 212.781879 206.944471 
L 212.842924 206.944471 
L 212.921446 206.212144 
L 212.964517 206.212144 
L 213.023118 204.930571 
L 213.10879 204.930571 
L 213.207684 204.564407 
L 213.228958 204.564407 
L 213.331175 203.83208 
L 213.342718 203.83208 
L 213.442506 202.916671 
L 213.463558 202.916671 
L 213.557098 202.001262 
L 213.673005 202.001262 
L 213.777001 201.085853 
L 213.816582 201.085853 
L 213.921792 199.438116 
L 213.96112 199.438116 
L 214.032109 198.705789 
L 214.086134 198.705789 
L 214.132604 198.156543 
L 214.293574 198.156543 
L 214.354332 197.058053 
L 214.422259 197.058053 
L 214.524679 194.861071 
L 214.572073 194.861071 
L 214.682876 193.030253 
L 214.710039 193.030253 
L 214.814763 191.74868 
L 214.865145 191.74868 
L 214.970939 189.551698 
L 214.990608 189.551698 
L 215.092257 188.087043 
L 215.172182 188.087043 
L 215.27125 186.256225 
L 215.285367 186.256225 
L 215.380425 184.242325 
L 215.397984 184.242325 
L 215.468085 182.594589 
L 215.520517 182.594589 
L 215.626754 181.313016 
L 215.631966 181.313016 
L 215.723843 180.214525 
L 215.749778 180.214525 
L 215.8515 179.116034 
L 215.887595 179.116034 
L 215.981856 176.919052 
L 216.029692 176.919052 
L 216.133556 175.454398 
L 216.143746 175.454398 
L 216.238632 173.806661 
L 216.260603 173.806661 
L 216.365089 172.158925 
L 216.380216 172.158925 
L 216.470765 169.412698 
L 216.504209 169.412698 
L 216.594261 168.314207 
L 216.627523 168.314207 
L 216.730321 166.849552 
L 216.753469 166.849552 
L 216.847468 165.018734 
L 216.868851 165.018734 
L 216.959095 163.370998 
L 216.993456 163.370998 
L 217.104363 160.62477 
L 217.10599 160.62477 
L 217.179079 159.709361 
L 217.2212 159.709361 
L 217.277777 158.793952 
L 217.343873 158.793952 
L 217.437044 154.949234 
L 217.457874 154.949234 
L 217.560142 152.935334 
L 217.582451 152.935334 
L 217.677813 151.104516 
L 217.693667 151.104516 
L 217.793293 148.907534 
L 217.816948 148.907534 
L 217.908183 146.893634 
L 217.928581 146.893634 
L 218.038102 144.696652 
L 218.066179 144.696652 
L 218.156409 143.415079 
L 218.216879 143.415079 
L 218.298796 141.035016 
L 218.345031 141.035016 
L 218.437219 138.47187 
L 218.473989 138.47187 
L 218.573272 135.359479 
L 218.611341 135.359479 
L 218.694867 134.44407 
L 218.72365 134.44407 
L 218.832388 132.613252 
L 218.836907 132.613252 
L 218.90609 130.782434 
L 218.963081 130.782434 
L 219.058741 128.768534 
L 219.085572 128.768534 
L 219.19406 126.205388 
L 219.205918 126.205388 
L 219.304978 124.557652 
L 219.322674 124.557652 
L 219.42856 122.726834 
L 219.452022 122.726834 
L 219.561678 120.529852 
L 219.567511 120.529852 
L 219.659187 118.515952 
L 219.680959 118.515952 
L 219.773619 116.685134 
L 219.792394 116.685134 
L 219.903279 114.488152 
L 219.909024 114.488152 
L 220.01362 113.206579 
L 220.037908 113.206579 
L 220.149013 111.009597 
L 220.153275 111.009597 
L 220.2525 109.544943 
L 220.273706 109.544943 
L 220.383655 107.531043 
L 220.387873 107.531043 
L 220.498664 103.869406 
L 220.502861 103.869406 
L 220.613089 102.587833 
L 220.627004 102.587833 
L 220.728319 101.123179 
L 220.81677 101.123179 
L 220.907621 99.658524 
L 220.93508 99.658524 
L 221.041849 97.461542 
L 221.060959 97.461542 
L 221.120913 96.363051 
L 221.205124 96.363051 
L 221.311971 95.264561 
L 221.317367 95.264561 
L 221.425025 93.250661 
L 221.457222 93.250661 
L 221.553538 92.15217 
L 221.581553 92.15217 
L 221.691936 90.687515 
L 221.697242 90.687515 
L 221.79782 89.039779 
L 221.84794 89.039779 
L 221.955716 86.293551 
L 221.96096 86.293551 
L 222.042089 85.19506 
L 222.089061 85.19506 
L 222.19569 83.364242 
L 222.233279 83.364242 
L 222.297941 82.448833 
L 222.346961 82.448833 
L 222.43698 79.519524 
L 222.479293 79.519524 
L 222.53942 78.604115 
L 222.631219 78.604115 
L 222.739112 76.224051 
L 222.761894 76.224051 
L 222.861608 73.294742 
L 222.890556 73.294742 
L 222.982187 71.463924 
L 223.024738 71.463924 
L 223.130764 68.717697 
L 223.143204 68.717697 
L 223.253625 66.703797 
L 223.283309 66.703797 
L 223.384434 65.605306 
L 223.400424 65.605306 
L 223.459367 65.05606 
L 223.513263 65.05606 
L 223.615797 63.225242 
L 223.634057 63.225242 
L 223.742099 61.577506 
L 223.804985 61.577506 
L 223.911009 58.282033 
L 223.944639 58.282033 
L 224.052397 56.451215 
L 224.065532 56.451215 
L 224.144181 54.98656 
L 224.192901 54.98656 
L 224.294752 53.155742 
L 224.33843 53.155742 
L 224.436103 50.95876 
L 224.459576 50.95876 
L 224.553221 47.663287 
L 224.595234 47.663287 
L 224.702246 45.100142 
L 224.735873 45.100142 
L 224.816835 44.184733 
L 224.882546 44.184733 
L 224.968716 43.086242 
L 225.007672 43.086242 
L 225.076252 41.438505 
L 225.126412 41.438505 
L 225.205982 39.241524 
L 225.286402 39.241524 
L 225.390182 36.495296 
L 225.408182 36.495296 
L 225.4834 34.84756 
L 225.534897 34.84756 
L 225.61638 34.115233 
L 225.658679 34.115233 
L 225.757437 32.467496 
L 225.802787 32.467496 
L 225.881104 31.918251 
L 225.916313 31.918251 
L 226.022704 30.636678 
L 226.151452 30.636678 
L 226.242657 29.538187 
L 226.264318 29.538187 
L 226.295689 28.622778 
L 226.375543 28.622778 
L 226.43471 27.890451 
L 226.516213 27.890451 
L 226.60382 26.059633 
L 226.634722 26.059633 
L 226.736715 25.144223 
L 226.753668 25.144223 
L 226.86145 24.594978 
L 226.926713 24.594978 
L 226.995978 23.496487 
L 227.106779 23.496487 
L 227.19108 22.031833 
L 227.232594 22.031833 
L 227.327787 19.651769 
L 227.377293 19.651769 
L 227.486234 18.187114 
L 227.5139 18.187114 
L 227.5139 18.004032 
L 227.630334 18.004032 
L 227.696453 17.637869 
L 227.837197 17.637869 
L 227.837197 17.271705 
L 227.978068 17.271705 
L 227.978068 17.088623 
L 228.106097 17.088623 
L 228.106097 16.905542 
L 228.269075 16.905542 
L 228.35407 15.990132 
L 228.427932 15.990132 
L 228.427932 15.807051 
L 228.559297 15.807051 
L 228.589578 15.074723 
L 228.691843 15.074723 
L 228.691843 14.891642 
L 228.941162 14.891642 
L 228.963255 14.342396 
L 229.658061 14.342396 
L 229.658061 14.159314 
L 240.936473 14.159314 
L 240.936473 13.793151 
L 241.210987 13.793151 
L 241.210987 13.610069 
L 241.571138 13.610069 
L 241.648816 13.060823 
L 241.831016 13.060823 
L 241.883497 12.511578 
L 242.059523 12.511578 
L 242.059523 12.145414 
L 242.331867 12.145414 
L 242.331867 11.962332 
L 242.445475 11.962332 
L 242.488127 11.596169 
L 251.033948 11.596169 
L 251.033948 11.413087 
L 416.908065 11.413087 
L 416.908065 11.413087 
" style="fill:none;stroke:#ff00ff;stroke-linecap:square;stroke-width:1.5;"/>
   </g>
   <g id="line2d_8">
    <defs>
     <path d="M -0 8.485281 
L 5.091169 0 
L 0 -8.485281 
L -5.091169 -0 
z
" id="m8eb1a62dc3" style="stroke:#ff00ff;stroke-linejoin:miter;stroke-width:1.5;"/>
    </defs>
    <g>
     <use style="fill:none;stroke:#ff00ff;stroke-linejoin:miter;stroke-width:1.5;" x="215.03346378191918" xlink:href="#m8eb1a62dc3" y="188.81937064993625"/>
     <use style="fill:none;stroke:#ff00ff;stroke-linejoin:miter;stroke-width:1.5;" x="251.0339476029547" xlink:href="#m8eb1a62dc3" y="11.59616877238102"/>
     <use style="fill:none;stroke:#ff00ff;stroke-linejoin:miter;stroke-width:1.5;" x="251.0339476029547" xlink:href="#m8eb1a62dc3" y="11.413086952259562"/>
     <use style="fill:none;stroke:#ff00ff;stroke-linejoin:miter;stroke-width:1.5;" x="251.0339476029547" xlink:href="#m8eb1a62dc3" y="11.413086952259562"/>
     <use style="fill:none;stroke:#ff00ff;stroke-linejoin:miter;stroke-width:1.5;" x="416.908064516129" xlink:href="#m8eb1a62dc3" y="11.413086952259562"/>
    </g>
   </g>
   <g id="line2d_9">
    <path d="M -15527.946774 758.386913 
" style="fill:none;stroke:#ff00ff;stroke-linecap:square;stroke-width:1.5;"/>
    <g>
     <use style="fill:none;stroke:#ff00ff;stroke-linejoin:miter;stroke-width:1.5;" x="-15527.946774193548" xlink:href="#m8eb1a62dc3" y="758.3869130477403"/>
    </g>
   </g>
   <g id="line2d_10">
    <path d="M 416.908065 11.413087 
L 456.770202 377.430262 
" style="fill:none;stroke:#ff00ff;stroke-linecap:square;stroke-width:1.5;"/>
    <g>
     <use style="fill:none;stroke:#ff00ff;stroke-linejoin:miter;stroke-width:1.5;" x="416.908064516129" xlink:href="#m8eb1a62dc3" y="11.413086952259562"/>
     <use style="fill:none;stroke:#ff00ff;stroke-linejoin:miter;stroke-width:1.5;" x="456.77020161290324" xlink:href="#m8eb1a62dc3" y="377.4302617390452"/>
    </g>
   </g>
   <g id="line2d_11">
    <path d="M 416.908065 384.9 
L 416.908065 11.413087 
" style="fill:none;stroke:#000000;stroke-linecap:square;"/>
   </g>
   <g id="patch_3">
    <path d="M 54.525 7.678218 
L 503.88 7.678218 
" style="fill:none;stroke:#000000;stroke-linecap:square;stroke-linejoin:miter;"/>
   </g>
   <g id="patch_4">
    <path d="M 503.88 384.9 
L 503.88 7.678218 
" style="fill:none;stroke:#000000;stroke-linecap:square;stroke-linejoin:miter;"/>
   </g>
   <g id="patch_5">
    <path d="M 54.525 384.9 
L 503.88 384.9 
" style="fill:none;stroke:#000000;stroke-linecap:square;stroke-linejoin:miter;"/>
   </g>
   <g id="patch_6">
    <path d="M 54.525 384.9 
L 54.525 7.678218 
" style="fill:none;stroke:#000000;stroke-linecap:square;stroke-linejoin:miter;"/>
   </g>
   <g id="matplotlib.axis_1">
    <g id="xtick_1">
     <g id="line2d_12">
      <path clip-path="url(#p206b65380d)" d="M 54.525 384.9 
L 54.525 7.678218 
" style="fill:none;stroke:#000000;stroke-dasharray:1.000000,3.000000;stroke-dashoffset:0.0;stroke-width:0.5;"/>
     </g>
     <g id="line2d_13">
      <defs>
       <path d="M 0 0 
L 0 -4 
" id="mf6e9928c30" style="stroke:#000000;stroke-width:0.5;"/>
      </defs>
      <g>
       <use style="stroke:#000000;stroke-width:0.5;" x="54.52500000000001" xlink:href="#mf6e9928c30" y="384.9"/>
      </g>
     </g>
     <g id="line2d_14">
      <defs>
       <path d="M 0 0 
L 0 4 
" id="m2edb27f44a" style="stroke:#000000;stroke-width:0.5;"/>
      </defs>
      <g>
       <use style="stroke:#000000;stroke-width:0.5;" x="54.52500000000001" xlink:href="#m2edb27f44a" y="7.678217821782141"/>
      </g>
     </g>
     <g id="text_1">
      <!-- 0 -->
      <defs>
       <path d="M 31.78125 66.40625 
Q 24.171875 66.40625 20.328125 58.90625 
Q 16.5 51.421875 16.5 36.375 
Q 16.5 21.390625 20.328125 13.890625 
Q 24.171875 6.390625 31.78125 6.390625 
Q 39.453125 6.390625 43.28125 13.890625 
Q 47.125 21.390625 47.125 36.375 
Q 47.125 51.421875 43.28125 58.90625 
Q 39.453125 66.40625 31.78125 66.40625 
M 31.78125 74.21875 
Q 44.046875 74.21875 50.515625 64.515625 
Q 56.984375 54.828125 56.984375 36.375 
Q 56.984375 17.96875 50.515625 8.265625 
Q 44.046875 -1.421875 31.78125 -1.421875 
Q 19.53125 -1.421875 13.0625 8.265625 
Q 6.59375 17.96875 6.59375 36.375 
Q 6.59375 54.828125 13.0625 64.515625 
Q 19.53125 74.21875 31.78125 74.21875 
" id="BitstreamVeraSans-Roman-30"/>
      </defs>
      <g transform="translate(48.16250000000001 404.09687499999995)scale(0.2 -0.2)">
       <use xlink:href="#BitstreamVeraSans-Roman-30"/>
      </g>
     </g>
    </g>
    <g id="xtick_2">
     <g id="line2d_15">
      <path clip-path="url(#p206b65380d)" d="M 106.294009 384.9 
L 106.294009 7.678218 
" style="fill:none;stroke:#000000;stroke-dasharray:1.000000,3.000000;stroke-dashoffset:0.0;stroke-width:0.5;"/>
     </g>
     <g id="line2d_16">
      <g>
       <use style="stroke:#000000;stroke-width:0.5;" x="106.29400921658987" xlink:href="#mf6e9928c30" y="384.9"/>
      </g>
     </g>
     <g id="line2d_17">
      <g>
       <use style="stroke:#000000;stroke-width:0.5;" x="106.29400921658987" xlink:href="#m2edb27f44a" y="7.678217821782141"/>
      </g>
     </g>
     <g id="text_2">
      <!-- 1 -->
      <defs>
       <path d="M 12.40625 8.296875 
L 28.515625 8.296875 
L 28.515625 63.921875 
L 10.984375 60.40625 
L 10.984375 69.390625 
L 28.421875 72.90625 
L 38.28125 72.90625 
L 38.28125 8.296875 
L 54.390625 8.296875 
L 54.390625 0 
L 12.40625 0 
z
" id="BitstreamVeraSans-Roman-31"/>
      </defs>
      <g transform="translate(99.93150921658987 404.09687499999995)scale(0.2 -0.2)">
       <use xlink:href="#BitstreamVeraSans-Roman-31"/>
      </g>
     </g>
    </g>
    <g id="xtick_3">
     <g id="line2d_18">
      <path clip-path="url(#p206b65380d)" d="M 158.063018 384.9 
L 158.063018 7.678218 
" style="fill:none;stroke:#000000;stroke-dasharray:1.000000,3.000000;stroke-dashoffset:0.0;stroke-width:0.5;"/>
     </g>
     <g id="line2d_19">
      <g>
       <use style="stroke:#000000;stroke-width:0.5;" x="158.0630184331797" xlink:href="#mf6e9928c30" y="384.9"/>
      </g>
     </g>
     <g id="line2d_20">
      <g>
       <use style="stroke:#000000;stroke-width:0.5;" x="158.0630184331797" xlink:href="#m2edb27f44a" y="7.678217821782141"/>
      </g>
     </g>
     <g id="text_3">
      <!-- 2 -->
      <defs>
       <path d="M 19.1875 8.296875 
L 53.609375 8.296875 
L 53.609375 0 
L 7.328125 0 
L 7.328125 8.296875 
Q 12.9375 14.109375 22.625 23.890625 
Q 32.328125 33.6875 34.8125 36.53125 
Q 39.546875 41.84375 41.421875 45.53125 
Q 43.3125 49.21875 43.3125 52.78125 
Q 43.3125 58.59375 39.234375 62.25 
Q 35.15625 65.921875 28.609375 65.921875 
Q 23.96875 65.921875 18.8125 64.3125 
Q 13.671875 62.703125 7.8125 59.421875 
L 7.8125 69.390625 
Q 13.765625 71.78125 18.9375 73 
Q 24.125 74.21875 28.421875 74.21875 
Q 39.75 74.21875 46.484375 68.546875 
Q 53.21875 62.890625 53.21875 53.421875 
Q 53.21875 48.921875 51.53125 44.890625 
Q 49.859375 40.875 45.40625 35.40625 
Q 44.1875 33.984375 37.640625 27.21875 
Q 31.109375 20.453125 19.1875 8.296875 
" id="BitstreamVeraSans-Roman-32"/>
      </defs>
      <g transform="translate(151.7005184331797 404.09687499999995)scale(0.2 -0.2)">
       <use xlink:href="#BitstreamVeraSans-Roman-32"/>
      </g>
     </g>
    </g>
    <g id="xtick_4">
     <g id="line2d_21">
      <path clip-path="url(#p206b65380d)" d="M 209.832028 384.9 
L 209.832028 7.678218 
" style="fill:none;stroke:#000000;stroke-dasharray:1.000000,3.000000;stroke-dashoffset:0.0;stroke-width:0.5;"/>
     </g>
     <g id="line2d_22">
      <g>
       <use style="stroke:#000000;stroke-width:0.5;" x="209.8320276497696" xlink:href="#mf6e9928c30" y="384.9"/>
      </g>
     </g>
     <g id="line2d_23">
      <g>
       <use style="stroke:#000000;stroke-width:0.5;" x="209.8320276497696" xlink:href="#m2edb27f44a" y="7.678217821782141"/>
      </g>
     </g>
     <g id="text_4">
      <!-- 3 -->
      <defs>
       <path d="M 40.578125 39.3125 
Q 47.65625 37.796875 51.625 33 
Q 55.609375 28.21875 55.609375 21.1875 
Q 55.609375 10.40625 48.1875 4.484375 
Q 40.765625 -1.421875 27.09375 -1.421875 
Q 22.515625 -1.421875 17.65625 -0.515625 
Q 12.796875 0.390625 7.625 2.203125 
L 7.625 11.71875 
Q 11.71875 9.328125 16.59375 8.109375 
Q 21.484375 6.890625 26.8125 6.890625 
Q 36.078125 6.890625 40.9375 10.546875 
Q 45.796875 14.203125 45.796875 21.1875 
Q 45.796875 27.640625 41.28125 31.265625 
Q 36.765625 34.90625 28.71875 34.90625 
L 20.21875 34.90625 
L 20.21875 43.015625 
L 29.109375 43.015625 
Q 36.375 43.015625 40.234375 45.921875 
Q 44.09375 48.828125 44.09375 54.296875 
Q 44.09375 59.90625 40.109375 62.90625 
Q 36.140625 65.921875 28.71875 65.921875 
Q 24.65625 65.921875 20.015625 65.03125 
Q 15.375 64.15625 9.8125 62.3125 
L 9.8125 71.09375 
Q 15.4375 72.65625 20.34375 73.4375 
Q 25.25 74.21875 29.59375 74.21875 
Q 40.828125 74.21875 47.359375 69.109375 
Q 53.90625 64.015625 53.90625 55.328125 
Q 53.90625 49.265625 50.4375 45.09375 
Q 46.96875 40.921875 40.578125 39.3125 
" id="BitstreamVeraSans-Roman-33"/>
      </defs>
      <g transform="translate(203.4695276497696 404.09687499999995)scale(0.2 -0.2)">
       <use xlink:href="#BitstreamVeraSans-Roman-33"/>
      </g>
     </g>
    </g>
    <g id="xtick_5">
     <g id="line2d_24">
      <path clip-path="url(#p206b65380d)" d="M 261.601037 384.9 
L 261.601037 7.678218 
" style="fill:none;stroke:#000000;stroke-dasharray:1.000000,3.000000;stroke-dashoffset:0.0;stroke-width:0.5;"/>
     </g>
     <g id="line2d_25">
      <g>
       <use style="stroke:#000000;stroke-width:0.5;" x="261.60103686635944" xlink:href="#mf6e9928c30" y="384.9"/>
      </g>
     </g>
     <g id="line2d_26">
      <g>
       <use style="stroke:#000000;stroke-width:0.5;" x="261.60103686635944" xlink:href="#m2edb27f44a" y="7.678217821782141"/>
      </g>
     </g>
     <g id="text_5">
      <!-- 4 -->
      <defs>
       <path d="M 37.796875 64.3125 
L 12.890625 25.390625 
L 37.796875 25.390625 
z
M 35.203125 72.90625 
L 47.609375 72.90625 
L 47.609375 25.390625 
L 58.015625 25.390625 
L 58.015625 17.1875 
L 47.609375 17.1875 
L 47.609375 0 
L 37.796875 0 
L 37.796875 17.1875 
L 4.890625 17.1875 
L 4.890625 26.703125 
z
" id="BitstreamVeraSans-Roman-34"/>
      </defs>
      <g transform="translate(255.23853686635942 404.09687499999995)scale(0.2 -0.2)">
       <use xlink:href="#BitstreamVeraSans-Roman-34"/>
      </g>
     </g>
    </g>
    <g id="xtick_6">
     <g id="line2d_27">
      <path clip-path="url(#p206b65380d)" d="M 313.370046 384.9 
L 313.370046 7.678218 
" style="fill:none;stroke:#000000;stroke-dasharray:1.000000,3.000000;stroke-dashoffset:0.0;stroke-width:0.5;"/>
     </g>
     <g id="line2d_28">
      <g>
       <use style="stroke:#000000;stroke-width:0.5;" x="313.3700460829493" xlink:href="#mf6e9928c30" y="384.9"/>
      </g>
     </g>
     <g id="line2d_29">
      <g>
       <use style="stroke:#000000;stroke-width:0.5;" x="313.3700460829493" xlink:href="#m2edb27f44a" y="7.678217821782141"/>
      </g>
     </g>
     <g id="text_6">
      <!-- 5 -->
      <defs>
       <path d="M 10.796875 72.90625 
L 49.515625 72.90625 
L 49.515625 64.59375 
L 19.828125 64.59375 
L 19.828125 46.734375 
Q 21.96875 47.46875 24.109375 47.828125 
Q 26.265625 48.1875 28.421875 48.1875 
Q 40.625 48.1875 47.75 41.5 
Q 54.890625 34.8125 54.890625 23.390625 
Q 54.890625 11.625 47.5625 5.09375 
Q 40.234375 -1.421875 26.90625 -1.421875 
Q 22.3125 -1.421875 17.546875 -0.640625 
Q 12.796875 0.140625 7.71875 1.703125 
L 7.71875 11.625 
Q 12.109375 9.234375 16.796875 8.0625 
Q 21.484375 6.890625 26.703125 6.890625 
Q 35.15625 6.890625 40.078125 11.328125 
Q 45.015625 15.765625 45.015625 23.390625 
Q 45.015625 31 40.078125 35.4375 
Q 35.15625 39.890625 26.703125 39.890625 
Q 22.75 39.890625 18.8125 39.015625 
Q 14.890625 38.140625 10.796875 36.28125 
z
" id="BitstreamVeraSans-Roman-35"/>
      </defs>
      <g transform="translate(307.00754608294926 404.09687499999995)scale(0.2 -0.2)">
       <use xlink:href="#BitstreamVeraSans-Roman-35"/>
      </g>
     </g>
    </g>
    <g id="xtick_7">
     <g id="line2d_30">
      <path clip-path="url(#p206b65380d)" d="M 365.139055 384.9 
L 365.139055 7.678218 
" style="fill:none;stroke:#000000;stroke-dasharray:1.000000,3.000000;stroke-dashoffset:0.0;stroke-width:0.5;"/>
     </g>
     <g id="line2d_31">
      <g>
       <use style="stroke:#000000;stroke-width:0.5;" x="365.13905529953917" xlink:href="#mf6e9928c30" y="384.9"/>
      </g>
     </g>
     <g id="line2d_32">
      <g>
       <use style="stroke:#000000;stroke-width:0.5;" x="365.13905529953917" xlink:href="#m2edb27f44a" y="7.678217821782141"/>
      </g>
     </g>
     <g id="text_7">
      <!-- 6 -->
      <defs>
       <path d="M 33.015625 40.375 
Q 26.375 40.375 22.484375 35.828125 
Q 18.609375 31.296875 18.609375 23.390625 
Q 18.609375 15.53125 22.484375 10.953125 
Q 26.375 6.390625 33.015625 6.390625 
Q 39.65625 6.390625 43.53125 10.953125 
Q 47.40625 15.53125 47.40625 23.390625 
Q 47.40625 31.296875 43.53125 35.828125 
Q 39.65625 40.375 33.015625 40.375 
M 52.59375 71.296875 
L 52.59375 62.3125 
Q 48.875 64.0625 45.09375 64.984375 
Q 41.3125 65.921875 37.59375 65.921875 
Q 27.828125 65.921875 22.671875 59.328125 
Q 17.53125 52.734375 16.796875 39.40625 
Q 19.671875 43.65625 24.015625 45.921875 
Q 28.375 48.1875 33.59375 48.1875 
Q 44.578125 48.1875 50.953125 41.515625 
Q 57.328125 34.859375 57.328125 23.390625 
Q 57.328125 12.15625 50.6875 5.359375 
Q 44.046875 -1.421875 33.015625 -1.421875 
Q 20.359375 -1.421875 13.671875 8.265625 
Q 6.984375 17.96875 6.984375 36.375 
Q 6.984375 53.65625 15.1875 63.9375 
Q 23.390625 74.21875 37.203125 74.21875 
Q 40.921875 74.21875 44.703125 73.484375 
Q 48.484375 72.75 52.59375 71.296875 
" id="BitstreamVeraSans-Roman-36"/>
      </defs>
      <g transform="translate(358.77655529953915 404.09687499999995)scale(0.2 -0.2)">
       <use xlink:href="#BitstreamVeraSans-Roman-36"/>
      </g>
     </g>
    </g>
    <g id="xtick_8">
     <g id="line2d_33">
      <path clip-path="url(#p206b65380d)" d="M 416.908065 384.9 
L 416.908065 7.678218 
" style="fill:none;stroke:#000000;stroke-dasharray:1.000000,3.000000;stroke-dashoffset:0.0;stroke-width:0.5;"/>
     </g>
     <g id="line2d_34">
      <g>
       <use style="stroke:#000000;stroke-width:0.5;" x="416.908064516129" xlink:href="#mf6e9928c30" y="384.9"/>
      </g>
     </g>
     <g id="line2d_35">
      <g>
       <use style="stroke:#000000;stroke-width:0.5;" x="416.908064516129" xlink:href="#m2edb27f44a" y="7.678217821782141"/>
      </g>
     </g>
     <g id="text_8">
      <!-- 7 -->
      <defs>
       <path d="M 8.203125 72.90625 
L 55.078125 72.90625 
L 55.078125 68.703125 
L 28.609375 0 
L 18.3125 0 
L 43.21875 64.59375 
L 8.203125 64.59375 
z
" id="BitstreamVeraSans-Roman-37"/>
      </defs>
      <g transform="translate(410.545564516129 404.09687499999995)scale(0.2 -0.2)">
       <use xlink:href="#BitstreamVeraSans-Roman-37"/>
      </g>
     </g>
    </g>
    <g id="xtick_9">
     <g id="line2d_36">
      <path clip-path="url(#p206b65380d)" d="M 468.677074 384.9 
L 468.677074 7.678218 
" style="fill:none;stroke:#000000;stroke-dasharray:1.000000,3.000000;stroke-dashoffset:0.0;stroke-width:0.5;"/>
     </g>
     <g id="line2d_37">
      <g>
       <use style="stroke:#000000;stroke-width:0.5;" x="468.67707373271884" xlink:href="#mf6e9928c30" y="384.9"/>
      </g>
     </g>
     <g id="line2d_38">
      <g>
       <use style="stroke:#000000;stroke-width:0.5;" x="468.67707373271884" xlink:href="#m2edb27f44a" y="7.678217821782141"/>
      </g>
     </g>
     <g id="text_9">
      <!-- 8 -->
      <defs>
       <path d="M 31.78125 34.625 
Q 24.75 34.625 20.71875 30.859375 
Q 16.703125 27.09375 16.703125 20.515625 
Q 16.703125 13.921875 20.71875 10.15625 
Q 24.75 6.390625 31.78125 6.390625 
Q 38.8125 6.390625 42.859375 10.171875 
Q 46.921875 13.96875 46.921875 20.515625 
Q 46.921875 27.09375 42.890625 30.859375 
Q 38.875 34.625 31.78125 34.625 
M 21.921875 38.8125 
Q 15.578125 40.375 12.03125 44.71875 
Q 8.5 49.078125 8.5 55.328125 
Q 8.5 64.0625 14.71875 69.140625 
Q 20.953125 74.21875 31.78125 74.21875 
Q 42.671875 74.21875 48.875 69.140625 
Q 55.078125 64.0625 55.078125 55.328125 
Q 55.078125 49.078125 51.53125 44.71875 
Q 48 40.375 41.703125 38.8125 
Q 48.828125 37.15625 52.796875 32.3125 
Q 56.78125 27.484375 56.78125 20.515625 
Q 56.78125 9.90625 50.3125 4.234375 
Q 43.84375 -1.421875 31.78125 -1.421875 
Q 19.734375 -1.421875 13.25 4.234375 
Q 6.78125 9.90625 6.78125 20.515625 
Q 6.78125 27.484375 10.78125 32.3125 
Q 14.796875 37.15625 21.921875 38.8125 
M 18.3125 54.390625 
Q 18.3125 48.734375 21.84375 45.5625 
Q 25.390625 42.390625 31.78125 42.390625 
Q 38.140625 42.390625 41.71875 45.5625 
Q 45.3125 48.734375 45.3125 54.390625 
Q 45.3125 60.0625 41.71875 63.234375 
Q 38.140625 66.40625 31.78125 66.40625 
Q 25.390625 66.40625 21.84375 63.234375 
Q 18.3125 60.0625 18.3125 54.390625 
" id="BitstreamVeraSans-Roman-38"/>
      </defs>
      <g transform="translate(462.3145737327188 404.09687499999995)scale(0.2 -0.2)">
       <use xlink:href="#BitstreamVeraSans-Roman-38"/>
      </g>
     </g>
    </g>
    <g id="xtick_10">
     <g id="line2d_39">
      <defs>
       <path d="M 0 0 
L 0 -2 
" id="mb9d822eca6" style="stroke:#000000;stroke-width:0.5;"/>
      </defs>
      <g>
       <use style="stroke:#000000;stroke-width:0.5;" x="70.10902461999866" xlink:href="#mb9d822eca6" y="384.9"/>
      </g>
     </g>
     <g id="line2d_40">
      <defs>
       <path d="M 0 0 
L 0 2 
" id="m70937d713c" style="stroke:#000000;stroke-width:0.5;"/>
      </defs>
      <g>
       <use style="stroke:#000000;stroke-width:0.5;" x="70.10902461999866" xlink:href="#m70937d713c" y="7.678217821782141"/>
      </g>
     </g>
    </g>
    <g id="xtick_11">
     <g id="line2d_41">
      <g>
       <use style="stroke:#000000;stroke-width:0.5;" x="85.69304923999731" xlink:href="#mb9d822eca6" y="384.9"/>
      </g>
     </g>
     <g id="line2d_42">
      <g>
       <use style="stroke:#000000;stroke-width:0.5;" x="85.69304923999731" xlink:href="#m70937d713c" y="7.678217821782141"/>
      </g>
     </g>
    </g>
    <g id="xtick_12">
     <g id="line2d_43">
      <g>
       <use style="stroke:#000000;stroke-width:0.5;" x="94.80911925301179" xlink:href="#mb9d822eca6" y="384.9"/>
      </g>
     </g>
     <g id="line2d_44">
      <g>
       <use style="stroke:#000000;stroke-width:0.5;" x="94.80911925301179" xlink:href="#m70937d713c" y="7.678217821782141"/>
      </g>
     </g>
    </g>
    <g id="xtick_13">
     <g id="line2d_45">
      <g>
       <use style="stroke:#000000;stroke-width:0.5;" x="101.27707385999595" xlink:href="#mb9d822eca6" y="384.9"/>
      </g>
     </g>
     <g id="line2d_46">
      <g>
       <use style="stroke:#000000;stroke-width:0.5;" x="101.27707385999595" xlink:href="#m70937d713c" y="7.678217821782141"/>
      </g>
     </g>
    </g>
    <g id="xtick_14">
     <g id="line2d_47">
      <g>
       <use style="stroke:#000000;stroke-width:0.5;" x="121.87803383658851" xlink:href="#mb9d822eca6" y="384.9"/>
      </g>
     </g>
     <g id="line2d_48">
      <g>
       <use style="stroke:#000000;stroke-width:0.5;" x="121.87803383658851" xlink:href="#m70937d713c" y="7.678217821782141"/>
      </g>
     </g>
    </g>
    <g id="xtick_15">
     <g id="line2d_49">
      <g>
       <use style="stroke:#000000;stroke-width:0.5;" x="137.46205845658716" xlink:href="#mb9d822eca6" y="384.9"/>
      </g>
     </g>
     <g id="line2d_50">
      <g>
       <use style="stroke:#000000;stroke-width:0.5;" x="137.46205845658716" xlink:href="#m70937d713c" y="7.678217821782141"/>
      </g>
     </g>
    </g>
    <g id="xtick_16">
     <g id="line2d_51">
      <g>
       <use style="stroke:#000000;stroke-width:0.5;" x="146.5781284696016" xlink:href="#mb9d822eca6" y="384.9"/>
      </g>
     </g>
     <g id="line2d_52">
      <g>
       <use style="stroke:#000000;stroke-width:0.5;" x="146.5781284696016" xlink:href="#m70937d713c" y="7.678217821782141"/>
      </g>
     </g>
    </g>
    <g id="xtick_17">
     <g id="line2d_53">
      <g>
       <use style="stroke:#000000;stroke-width:0.5;" x="153.04608307658583" xlink:href="#mb9d822eca6" y="384.9"/>
      </g>
     </g>
     <g id="line2d_54">
      <g>
       <use style="stroke:#000000;stroke-width:0.5;" x="153.04608307658583" xlink:href="#m70937d713c" y="7.678217821782141"/>
      </g>
     </g>
    </g>
    <g id="xtick_18">
     <g id="line2d_55">
      <g>
       <use style="stroke:#000000;stroke-width:0.5;" x="173.64704305317838" xlink:href="#mb9d822eca6" y="384.9"/>
      </g>
     </g>
     <g id="line2d_56">
      <g>
       <use style="stroke:#000000;stroke-width:0.5;" x="173.64704305317838" xlink:href="#m70937d713c" y="7.678217821782141"/>
      </g>
     </g>
    </g>
    <g id="xtick_19">
     <g id="line2d_57">
      <g>
       <use style="stroke:#000000;stroke-width:0.5;" x="189.23106767317705" xlink:href="#mb9d822eca6" y="384.9"/>
      </g>
     </g>
     <g id="line2d_58">
      <g>
       <use style="stroke:#000000;stroke-width:0.5;" x="189.23106767317705" xlink:href="#m70937d713c" y="7.678217821782141"/>
      </g>
     </g>
    </g>
    <g id="xtick_20">
     <g id="line2d_59">
      <g>
       <use style="stroke:#000000;stroke-width:0.5;" x="198.3471376861915" xlink:href="#mb9d822eca6" y="384.9"/>
      </g>
     </g>
     <g id="line2d_60">
      <g>
       <use style="stroke:#000000;stroke-width:0.5;" x="198.3471376861915" xlink:href="#m70937d713c" y="7.678217821782141"/>
      </g>
     </g>
    </g>
    <g id="xtick_21">
     <g id="line2d_61">
      <g>
       <use style="stroke:#000000;stroke-width:0.5;" x="204.81509229317567" xlink:href="#mb9d822eca6" y="384.9"/>
      </g>
     </g>
     <g id="line2d_62">
      <g>
       <use style="stroke:#000000;stroke-width:0.5;" x="204.81509229317567" xlink:href="#m70937d713c" y="7.678217821782141"/>
      </g>
     </g>
    </g>
    <g id="xtick_22">
     <g id="line2d_63">
      <g>
       <use style="stroke:#000000;stroke-width:0.5;" x="225.41605226976822" xlink:href="#mb9d822eca6" y="384.9"/>
      </g>
     </g>
     <g id="line2d_64">
      <g>
       <use style="stroke:#000000;stroke-width:0.5;" x="225.41605226976822" xlink:href="#m70937d713c" y="7.678217821782141"/>
      </g>
     </g>
    </g>
    <g id="xtick_23">
     <g id="line2d_65">
      <g>
       <use style="stroke:#000000;stroke-width:0.5;" x="241.0000768897669" xlink:href="#mb9d822eca6" y="384.9"/>
      </g>
     </g>
     <g id="line2d_66">
      <g>
       <use style="stroke:#000000;stroke-width:0.5;" x="241.0000768897669" xlink:href="#m70937d713c" y="7.678217821782141"/>
      </g>
     </g>
    </g>
    <g id="xtick_24">
     <g id="line2d_67">
      <g>
       <use style="stroke:#000000;stroke-width:0.5;" x="250.11614690278134" xlink:href="#mb9d822eca6" y="384.9"/>
      </g>
     </g>
     <g id="line2d_68">
      <g>
       <use style="stroke:#000000;stroke-width:0.5;" x="250.11614690278134" xlink:href="#m70937d713c" y="7.678217821782141"/>
      </g>
     </g>
    </g>
    <g id="xtick_25">
     <g id="line2d_69">
      <g>
       <use style="stroke:#000000;stroke-width:0.5;" x="256.58410150976556" xlink:href="#mb9d822eca6" y="384.9"/>
      </g>
     </g>
     <g id="line2d_70">
      <g>
       <use style="stroke:#000000;stroke-width:0.5;" x="256.58410150976556" xlink:href="#m70937d713c" y="7.678217821782141"/>
      </g>
     </g>
    </g>
    <g id="xtick_26">
     <g id="line2d_71">
      <g>
       <use style="stroke:#000000;stroke-width:0.5;" x="277.18506148635805" xlink:href="#mb9d822eca6" y="384.9"/>
      </g>
     </g>
     <g id="line2d_72">
      <g>
       <use style="stroke:#000000;stroke-width:0.5;" x="277.18506148635805" xlink:href="#m70937d713c" y="7.678217821782141"/>
      </g>
     </g>
    </g>
    <g id="xtick_27">
     <g id="line2d_73">
      <g>
       <use style="stroke:#000000;stroke-width:0.5;" x="292.7690861063567" xlink:href="#mb9d822eca6" y="384.9"/>
      </g>
     </g>
     <g id="line2d_74">
      <g>
       <use style="stroke:#000000;stroke-width:0.5;" x="292.7690861063567" xlink:href="#m70937d713c" y="7.678217821782141"/>
      </g>
     </g>
    </g>
    <g id="xtick_28">
     <g id="line2d_75">
      <g>
       <use style="stroke:#000000;stroke-width:0.5;" x="301.88515611937123" xlink:href="#mb9d822eca6" y="384.9"/>
      </g>
     </g>
     <g id="line2d_76">
      <g>
       <use style="stroke:#000000;stroke-width:0.5;" x="301.88515611937123" xlink:href="#m70937d713c" y="7.678217821782141"/>
      </g>
     </g>
    </g>
    <g id="xtick_29">
     <g id="line2d_77">
      <g>
       <use style="stroke:#000000;stroke-width:0.5;" x="308.3531107263554" xlink:href="#mb9d822eca6" y="384.9"/>
      </g>
     </g>
     <g id="line2d_78">
      <g>
       <use style="stroke:#000000;stroke-width:0.5;" x="308.3531107263554" xlink:href="#m70937d713c" y="7.678217821782141"/>
      </g>
     </g>
    </g>
    <g id="xtick_30">
     <g id="line2d_79">
      <g>
       <use style="stroke:#000000;stroke-width:0.5;" x="328.95407070294794" xlink:href="#mb9d822eca6" y="384.9"/>
      </g>
     </g>
     <g id="line2d_80">
      <g>
       <use style="stroke:#000000;stroke-width:0.5;" x="328.95407070294794" xlink:href="#m70937d713c" y="7.678217821782141"/>
      </g>
     </g>
    </g>
    <g id="xtick_31">
     <g id="line2d_81">
      <g>
       <use style="stroke:#000000;stroke-width:0.5;" x="344.53809532294656" xlink:href="#mb9d822eca6" y="384.9"/>
      </g>
     </g>
     <g id="line2d_82">
      <g>
       <use style="stroke:#000000;stroke-width:0.5;" x="344.53809532294656" xlink:href="#m70937d713c" y="7.678217821782141"/>
      </g>
     </g>
    </g>
    <g id="xtick_32">
     <g id="line2d_83">
      <g>
       <use style="stroke:#000000;stroke-width:0.5;" x="353.65416533596107" xlink:href="#mb9d822eca6" y="384.9"/>
      </g>
     </g>
     <g id="line2d_84">
      <g>
       <use style="stroke:#000000;stroke-width:0.5;" x="353.65416533596107" xlink:href="#m70937d713c" y="7.678217821782141"/>
      </g>
     </g>
    </g>
    <g id="xtick_33">
     <g id="line2d_85">
      <g>
       <use style="stroke:#000000;stroke-width:0.5;" x="360.12211994294523" xlink:href="#mb9d822eca6" y="384.9"/>
      </g>
     </g>
     <g id="line2d_86">
      <g>
       <use style="stroke:#000000;stroke-width:0.5;" x="360.12211994294523" xlink:href="#m70937d713c" y="7.678217821782141"/>
      </g>
     </g>
    </g>
    <g id="xtick_34">
     <g id="line2d_87">
      <g>
       <use style="stroke:#000000;stroke-width:0.5;" x="380.7230799195378" xlink:href="#mb9d822eca6" y="384.9"/>
      </g>
     </g>
     <g id="line2d_88">
      <g>
       <use style="stroke:#000000;stroke-width:0.5;" x="380.7230799195378" xlink:href="#m70937d713c" y="7.678217821782141"/>
      </g>
     </g>
    </g>
    <g id="xtick_35">
     <g id="line2d_89">
      <g>
       <use style="stroke:#000000;stroke-width:0.5;" x="396.30710453953645" xlink:href="#mb9d822eca6" y="384.9"/>
      </g>
     </g>
     <g id="line2d_90">
      <g>
       <use style="stroke:#000000;stroke-width:0.5;" x="396.30710453953645" xlink:href="#m70937d713c" y="7.678217821782141"/>
      </g>
     </g>
    </g>
    <g id="xtick_36">
     <g id="line2d_91">
      <g>
       <use style="stroke:#000000;stroke-width:0.5;" x="405.4231745525509" xlink:href="#mb9d822eca6" y="384.9"/>
      </g>
     </g>
     <g id="line2d_92">
      <g>
       <use style="stroke:#000000;stroke-width:0.5;" x="405.4231745525509" xlink:href="#m70937d713c" y="7.678217821782141"/>
      </g>
     </g>
    </g>
    <g id="xtick_37">
     <g id="line2d_93">
      <g>
       <use style="stroke:#000000;stroke-width:0.5;" x="411.89112915953507" xlink:href="#mb9d822eca6" y="384.9"/>
      </g>
     </g>
     <g id="line2d_94">
      <g>
       <use style="stroke:#000000;stroke-width:0.5;" x="411.89112915953507" xlink:href="#m70937d713c" y="7.678217821782141"/>
      </g>
     </g>
    </g>
    <g id="xtick_38">
     <g id="line2d_95">
      <g>
       <use style="stroke:#000000;stroke-width:0.5;" x="432.4920891361277" xlink:href="#mb9d822eca6" y="384.9"/>
      </g>
     </g>
     <g id="line2d_96">
      <g>
       <use style="stroke:#000000;stroke-width:0.5;" x="432.4920891361277" xlink:href="#m70937d713c" y="7.678217821782141"/>
      </g>
     </g>
    </g>
    <g id="xtick_39">
     <g id="line2d_97">
      <g>
       <use style="stroke:#000000;stroke-width:0.5;" x="448.0761137561263" xlink:href="#mb9d822eca6" y="384.9"/>
      </g>
     </g>
     <g id="line2d_98">
      <g>
       <use style="stroke:#000000;stroke-width:0.5;" x="448.0761137561263" xlink:href="#m70937d713c" y="7.678217821782141"/>
      </g>
     </g>
    </g>
    <g id="xtick_40">
     <g id="line2d_99">
      <g>
       <use style="stroke:#000000;stroke-width:0.5;" x="457.1921837691408" xlink:href="#mb9d822eca6" y="384.9"/>
      </g>
     </g>
     <g id="line2d_100">
      <g>
       <use style="stroke:#000000;stroke-width:0.5;" x="457.1921837691408" xlink:href="#m70937d713c" y="7.678217821782141"/>
      </g>
     </g>
    </g>
    <g id="xtick_41">
     <g id="line2d_101">
      <g>
       <use style="stroke:#000000;stroke-width:0.5;" x="463.66013837612496" xlink:href="#mb9d822eca6" y="384.9"/>
      </g>
     </g>
     <g id="line2d_102">
      <g>
       <use style="stroke:#000000;stroke-width:0.5;" x="463.66013837612496" xlink:href="#m70937d713c" y="7.678217821782141"/>
      </g>
     </g>
    </g>
    <g id="xtick_42">
     <g id="line2d_103">
      <g>
       <use style="stroke:#000000;stroke-width:0.5;" x="484.2610983527175" xlink:href="#mb9d822eca6" y="384.9"/>
      </g>
     </g>
     <g id="line2d_104">
      <g>
       <use style="stroke:#000000;stroke-width:0.5;" x="484.2610983527175" xlink:href="#m70937d713c" y="7.678217821782141"/>
      </g>
     </g>
    </g>
    <g id="xtick_43">
     <g id="line2d_105">
      <g>
       <use style="stroke:#000000;stroke-width:0.5;" x="499.8451229727162" xlink:href="#mb9d822eca6" y="384.9"/>
      </g>
     </g>
     <g id="line2d_106">
      <g>
       <use style="stroke:#000000;stroke-width:0.5;" x="499.8451229727162" xlink:href="#m70937d713c" y="7.678217821782141"/>
      </g>
     </g>
    </g>
    <g id="text_10">
     <!-- log10(# f-evals / dimension) -->
     <defs>
      <path id="BitstreamVeraSans-Roman-20"/>
      <path d="M 51.125 44 
L 36.921875 44 
L 32.8125 27.6875 
L 47.125 27.6875 
z
M 43.796875 71.78125 
L 38.71875 51.515625 
L 52.984375 51.515625 
L 58.109375 71.78125 
L 65.921875 71.78125 
L 60.890625 51.515625 
L 76.125 51.515625 
L 76.125 44 
L 58.984375 44 
L 54.984375 27.6875 
L 70.515625 27.6875 
L 70.515625 20.21875 
L 53.078125 20.21875 
L 48 0 
L 40.1875 0 
L 45.21875 20.21875 
L 30.90625 20.21875 
L 25.875 0 
L 18.015625 0 
L 23.09375 20.21875 
L 7.71875 20.21875 
L 7.71875 27.6875 
L 24.90625 27.6875 
L 29 44 
L 13.28125 44 
L 13.28125 51.515625 
L 30.90625 51.515625 
L 35.890625 71.78125 
z
" id="BitstreamVeraSans-Roman-23"/>
      <path d="M 52 44.1875 
Q 55.375 50.25 60.0625 53.125 
Q 64.75 56 71.09375 56 
Q 79.640625 56 84.28125 50.015625 
Q 88.921875 44.046875 88.921875 33.015625 
L 88.921875 0 
L 79.890625 0 
L 79.890625 32.71875 
Q 79.890625 40.578125 77.09375 44.375 
Q 74.3125 48.1875 68.609375 48.1875 
Q 61.625 48.1875 57.5625 43.546875 
Q 53.515625 38.921875 53.515625 30.90625 
L 53.515625 0 
L 44.484375 0 
L 44.484375 32.71875 
Q 44.484375 40.625 41.703125 44.40625 
Q 38.921875 48.1875 33.109375 48.1875 
Q 26.21875 48.1875 22.15625 43.53125 
Q 18.109375 38.875 18.109375 30.90625 
L 18.109375 0 
L 9.078125 0 
L 9.078125 54.6875 
L 18.109375 54.6875 
L 18.109375 46.1875 
Q 21.1875 51.21875 25.484375 53.609375 
Q 29.78125 56 35.6875 56 
Q 41.65625 56 45.828125 52.96875 
Q 50 49.953125 52 44.1875 
" id="BitstreamVeraSans-Roman-6d"/>
      <path d="M 54.890625 33.015625 
L 54.890625 0 
L 45.90625 0 
L 45.90625 32.71875 
Q 45.90625 40.484375 42.875 44.328125 
Q 39.84375 48.1875 33.796875 48.1875 
Q 26.515625 48.1875 22.3125 43.546875 
Q 18.109375 38.921875 18.109375 30.90625 
L 18.109375 0 
L 9.078125 0 
L 9.078125 54.6875 
L 18.109375 54.6875 
L 18.109375 46.1875 
Q 21.34375 51.125 25.703125 53.5625 
Q 30.078125 56 35.796875 56 
Q 45.21875 56 50.046875 50.171875 
Q 54.890625 44.34375 54.890625 33.015625 
" id="BitstreamVeraSans-Roman-6e"/>
      <path d="M 31 75.875 
Q 24.46875 64.65625 21.28125 53.65625 
Q 18.109375 42.671875 18.109375 31.390625 
Q 18.109375 20.125 21.3125 9.0625 
Q 24.515625 -2 31 -13.1875 
L 23.1875 -13.1875 
Q 15.875 -1.703125 12.234375 9.375 
Q 8.59375 20.453125 8.59375 31.390625 
Q 8.59375 42.28125 12.203125 53.3125 
Q 15.828125 64.359375 23.1875 75.875 
z
" id="BitstreamVeraSans-Roman-28"/>
      <path d="M 30.609375 48.390625 
Q 23.390625 48.390625 19.1875 42.75 
Q 14.984375 37.109375 14.984375 27.296875 
Q 14.984375 17.484375 19.15625 11.84375 
Q 23.34375 6.203125 30.609375 6.203125 
Q 37.796875 6.203125 41.984375 11.859375 
Q 46.1875 17.53125 46.1875 27.296875 
Q 46.1875 37.015625 41.984375 42.703125 
Q 37.796875 48.390625 30.609375 48.390625 
M 30.609375 56 
Q 42.328125 56 49.015625 48.375 
Q 55.71875 40.765625 55.71875 27.296875 
Q 55.71875 13.875 49.015625 6.21875 
Q 42.328125 -1.421875 30.609375 -1.421875 
Q 18.84375 -1.421875 12.171875 6.21875 
Q 5.515625 13.875 5.515625 27.296875 
Q 5.515625 40.765625 12.171875 48.375 
Q 18.84375 56 30.609375 56 
" id="BitstreamVeraSans-Roman-6f"/>
      <path d="M 9.421875 75.984375 
L 18.40625 75.984375 
L 18.40625 0 
L 9.421875 0 
z
" id="BitstreamVeraSans-Roman-6c"/>
      <path d="M 2.984375 54.6875 
L 12.5 54.6875 
L 29.59375 8.796875 
L 46.6875 54.6875 
L 56.203125 54.6875 
L 35.6875 0 
L 23.484375 0 
z
" id="BitstreamVeraSans-Roman-76"/>
      <path d="M 9.421875 54.6875 
L 18.40625 54.6875 
L 18.40625 0 
L 9.421875 0 
z
M 9.421875 75.984375 
L 18.40625 75.984375 
L 18.40625 64.59375 
L 9.421875 64.59375 
z
" id="BitstreamVeraSans-Roman-69"/>
      <path d="M 4.890625 31.390625 
L 31.203125 31.390625 
L 31.203125 23.390625 
L 4.890625 23.390625 
z
" id="BitstreamVeraSans-Roman-2d"/>
      <path d="M 25.390625 72.90625 
L 33.6875 72.90625 
L 8.296875 -9.28125 
L 0 -9.28125 
z
" id="BitstreamVeraSans-Roman-2f"/>
      <path d="M 56.203125 29.59375 
L 56.203125 25.203125 
L 14.890625 25.203125 
Q 15.484375 15.921875 20.484375 11.0625 
Q 25.484375 6.203125 34.421875 6.203125 
Q 39.59375 6.203125 44.453125 7.46875 
Q 49.3125 8.734375 54.109375 11.28125 
L 54.109375 2.78125 
Q 49.265625 0.734375 44.1875 -0.34375 
Q 39.109375 -1.421875 33.890625 -1.421875 
Q 20.796875 -1.421875 13.15625 6.1875 
Q 5.515625 13.8125 5.515625 26.8125 
Q 5.515625 40.234375 12.765625 48.109375 
Q 20.015625 56 32.328125 56 
Q 43.359375 56 49.78125 48.890625 
Q 56.203125 41.796875 56.203125 29.59375 
M 47.21875 32.234375 
Q 47.125 39.59375 43.09375 43.984375 
Q 39.0625 48.390625 32.421875 48.390625 
Q 24.90625 48.390625 20.390625 44.140625 
Q 15.875 39.890625 15.1875 32.171875 
z
" id="BitstreamVeraSans-Roman-65"/>
      <path d="M 45.40625 46.390625 
L 45.40625 75.984375 
L 54.390625 75.984375 
L 54.390625 0 
L 45.40625 0 
L 45.40625 8.203125 
Q 42.578125 3.328125 38.25 0.953125 
Q 33.9375 -1.421875 27.875 -1.421875 
Q 17.96875 -1.421875 11.734375 6.484375 
Q 5.515625 14.40625 5.515625 27.296875 
Q 5.515625 40.1875 11.734375 48.09375 
Q 17.96875 56 27.875 56 
Q 33.9375 56 38.25 53.625 
Q 42.578125 51.265625 45.40625 46.390625 
M 14.796875 27.296875 
Q 14.796875 17.390625 18.875 11.75 
Q 22.953125 6.109375 30.078125 6.109375 
Q 37.203125 6.109375 41.296875 11.75 
Q 45.40625 17.390625 45.40625 27.296875 
Q 45.40625 37.203125 41.296875 42.84375 
Q 37.203125 48.484375 30.078125 48.484375 
Q 22.953125 48.484375 18.875 42.84375 
Q 14.796875 37.203125 14.796875 27.296875 
" id="BitstreamVeraSans-Roman-64"/>
      <path d="M 45.40625 27.984375 
Q 45.40625 37.75 41.375 43.109375 
Q 37.359375 48.484375 30.078125 48.484375 
Q 22.859375 48.484375 18.828125 43.109375 
Q 14.796875 37.75 14.796875 27.984375 
Q 14.796875 18.265625 18.828125 12.890625 
Q 22.859375 7.515625 30.078125 7.515625 
Q 37.359375 7.515625 41.375 12.890625 
Q 45.40625 18.265625 45.40625 27.984375 
M 54.390625 6.78125 
Q 54.390625 -7.171875 48.1875 -13.984375 
Q 42 -20.796875 29.203125 -20.796875 
Q 24.46875 -20.796875 20.265625 -20.09375 
Q 16.0625 -19.390625 12.109375 -17.921875 
L 12.109375 -9.1875 
Q 16.0625 -11.328125 19.921875 -12.34375 
Q 23.78125 -13.375 27.78125 -13.375 
Q 36.625 -13.375 41.015625 -8.765625 
Q 45.40625 -4.15625 45.40625 5.171875 
L 45.40625 9.625 
Q 42.625 4.78125 38.28125 2.390625 
Q 33.9375 0 27.875 0 
Q 17.828125 0 11.671875 7.65625 
Q 5.515625 15.328125 5.515625 27.984375 
Q 5.515625 40.671875 11.671875 48.328125 
Q 17.828125 56 27.875 56 
Q 33.9375 56 38.28125 53.609375 
Q 42.625 51.21875 45.40625 46.390625 
L 45.40625 54.6875 
L 54.390625 54.6875 
z
" id="BitstreamVeraSans-Roman-67"/>
      <path d="M 37.109375 75.984375 
L 37.109375 68.5 
L 28.515625 68.5 
Q 23.6875 68.5 21.796875 66.546875 
Q 19.921875 64.59375 19.921875 59.515625 
L 19.921875 54.6875 
L 34.71875 54.6875 
L 34.71875 47.703125 
L 19.921875 47.703125 
L 19.921875 0 
L 10.890625 0 
L 10.890625 47.703125 
L 2.296875 47.703125 
L 2.296875 54.6875 
L 10.890625 54.6875 
L 10.890625 58.5 
Q 10.890625 67.625 15.140625 71.796875 
Q 19.390625 75.984375 28.609375 75.984375 
z
" id="BitstreamVeraSans-Roman-66"/>
      <path d="M 34.28125 27.484375 
Q 23.390625 27.484375 19.1875 25 
Q 14.984375 22.515625 14.984375 16.5 
Q 14.984375 11.71875 18.140625 8.90625 
Q 21.296875 6.109375 26.703125 6.109375 
Q 34.1875 6.109375 38.703125 11.40625 
Q 43.21875 16.703125 43.21875 25.484375 
L 43.21875 27.484375 
z
M 52.203125 31.203125 
L 52.203125 0 
L 43.21875 0 
L 43.21875 8.296875 
Q 40.140625 3.328125 35.546875 0.953125 
Q 30.953125 -1.421875 24.3125 -1.421875 
Q 15.921875 -1.421875 10.953125 3.296875 
Q 6 8.015625 6 15.921875 
Q 6 25.140625 12.171875 29.828125 
Q 18.359375 34.515625 30.609375 34.515625 
L 43.21875 34.515625 
L 43.21875 35.40625 
Q 43.21875 41.609375 39.140625 45 
Q 35.0625 48.390625 27.6875 48.390625 
Q 23 48.390625 18.546875 47.265625 
Q 14.109375 46.140625 10.015625 43.890625 
L 10.015625 52.203125 
Q 14.9375 54.109375 19.578125 55.046875 
Q 24.21875 56 28.609375 56 
Q 40.484375 56 46.34375 49.84375 
Q 52.203125 43.703125 52.203125 31.203125 
" id="BitstreamVeraSans-Roman-61"/>
      <path d="M 44.28125 53.078125 
L 44.28125 44.578125 
Q 40.484375 46.53125 36.375 47.5 
Q 32.28125 48.484375 27.875 48.484375 
Q 21.1875 48.484375 17.84375 46.4375 
Q 14.5 44.390625 14.5 40.28125 
Q 14.5 37.15625 16.890625 35.375 
Q 19.28125 33.59375 26.515625 31.984375 
L 29.59375 31.296875 
Q 39.15625 29.25 43.1875 25.515625 
Q 47.21875 21.78125 47.21875 15.09375 
Q 47.21875 7.46875 41.1875 3.015625 
Q 35.15625 -1.421875 24.609375 -1.421875 
Q 20.21875 -1.421875 15.453125 -0.5625 
Q 10.6875 0.296875 5.421875 2 
L 5.421875 11.28125 
Q 10.40625 8.6875 15.234375 7.390625 
Q 20.0625 6.109375 24.8125 6.109375 
Q 31.15625 6.109375 34.5625 8.28125 
Q 37.984375 10.453125 37.984375 14.40625 
Q 37.984375 18.0625 35.515625 20.015625 
Q 33.0625 21.96875 24.703125 23.78125 
L 21.578125 24.515625 
Q 13.234375 26.265625 9.515625 29.90625 
Q 5.8125 33.546875 5.8125 39.890625 
Q 5.8125 47.609375 11.28125 51.796875 
Q 16.75 56 26.8125 56 
Q 31.78125 56 36.171875 55.265625 
Q 40.578125 54.546875 44.28125 53.078125 
" id="BitstreamVeraSans-Roman-73"/>
      <path d="M 8.015625 75.875 
L 15.828125 75.875 
Q 23.140625 64.359375 26.78125 53.3125 
Q 30.421875 42.28125 30.421875 31.390625 
Q 30.421875 20.453125 26.78125 9.375 
Q 23.140625 -1.703125 15.828125 -13.1875 
L 8.015625 -13.1875 
Q 14.5 -2 17.703125 9.0625 
Q 20.90625 20.125 20.90625 31.390625 
Q 20.90625 42.671875 17.703125 53.65625 
Q 14.5 64.65625 8.015625 75.875 
" id="BitstreamVeraSans-Roman-29"/>
     </defs>
     <g transform="translate(158.36171874999997 426.17359374999995)scale(0.17 -0.17)">
      <use xlink:href="#BitstreamVeraSans-Roman-6c"/>
      <use x="27.783203125" xlink:href="#BitstreamVeraSans-Roman-6f"/>
      <use x="88.96484375" xlink:href="#BitstreamVeraSans-Roman-67"/>
      <use x="152.44140625" xlink:href="#BitstreamVeraSans-Roman-31"/>
      <use x="216.064453125" xlink:href="#BitstreamVeraSans-Roman-30"/>
      <use x="279.6875" xlink:href="#BitstreamVeraSans-Roman-28"/>
      <use x="318.701171875" xlink:href="#BitstreamVeraSans-Roman-23"/>
      <use x="402.490234375" xlink:href="#BitstreamVeraSans-Roman-20"/>
      <use x="434.27734375" xlink:href="#BitstreamVeraSans-Roman-66"/>
      <use x="469.404296875" xlink:href="#BitstreamVeraSans-Roman-2d"/>
      <use x="505.48828125" xlink:href="#BitstreamVeraSans-Roman-65"/>
      <use x="567.01171875" xlink:href="#BitstreamVeraSans-Roman-76"/>
      <use x="626.19140625" xlink:href="#BitstreamVeraSans-Roman-61"/>
      <use x="687.470703125" xlink:href="#BitstreamVeraSans-Roman-6c"/>
      <use x="715.25390625" xlink:href="#BitstreamVeraSans-Roman-73"/>
      <use x="767.353515625" xlink:href="#BitstreamVeraSans-Roman-20"/>
      <use x="799.140625" xlink:href="#BitstreamVeraSans-Roman-2f"/>
      <use x="832.83203125" xlink:href="#BitstreamVeraSans-Roman-20"/>
      <use x="864.619140625" xlink:href="#BitstreamVeraSans-Roman-64"/>
      <use x="928.095703125" xlink:href="#BitstreamVeraSans-Roman-69"/>
      <use x="955.87890625" xlink:href="#BitstreamVeraSans-Roman-6d"/>
      <use x="1053.29101562" xlink:href="#BitstreamVeraSans-Roman-65"/>
      <use x="1114.81445312" xlink:href="#BitstreamVeraSans-Roman-6e"/>
      <use x="1178.19335938" xlink:href="#BitstreamVeraSans-Roman-73"/>
      <use x="1230.29296875" xlink:href="#BitstreamVeraSans-Roman-69"/>
      <use x="1258.07617188" xlink:href="#BitstreamVeraSans-Roman-6f"/>
      <use x="1319.2578125" xlink:href="#BitstreamVeraSans-Roman-6e"/>
      <use x="1382.63671875" xlink:href="#BitstreamVeraSans-Roman-29"/>
     </g>
    </g>
   </g>
   <g id="matplotlib.axis_2">
    <g id="ytick_1">
     <g id="line2d_107">
      <path clip-path="url(#p206b65380d)" d="M 54.525 384.9 
L 503.88 384.9 
" style="fill:none;stroke:#000000;stroke-dasharray:1.000000,3.000000;stroke-dashoffset:0.0;stroke-width:0.5;"/>
     </g>
     <g id="line2d_108">
      <defs>
       <path d="M 0 0 
L 4 0 
" id="m4b60174ef4" style="stroke:#000000;stroke-width:0.5;"/>
      </defs>
      <g>
       <use style="stroke:#000000;stroke-width:0.5;" x="54.52500000000001" xlink:href="#m4b60174ef4" y="384.9"/>
      </g>
     </g>
     <g id="line2d_109">
      <defs>
       <path d="M 0 0 
L -4 0 
" id="mb2ed6d833c" style="stroke:#000000;stroke-width:0.5;"/>
      </defs>
      <g>
       <use style="stroke:#000000;stroke-width:0.5;" x="503.88" xlink:href="#mb2ed6d833c" y="384.9"/>
      </g>
     </g>
     <g id="text_11">
      <!-- 0.0 -->
      <defs>
       <path d="M 10.6875 12.40625 
L 21 12.40625 
L 21 0 
L 10.6875 0 
z
" id="BitstreamVeraSans-Roman-2e"/>
      </defs>
      <g transform="translate(25.080000000000013 389.315)scale(0.16 -0.16)">
       <use xlink:href="#BitstreamVeraSans-Roman-30"/>
       <use x="63.623046875" xlink:href="#BitstreamVeraSans-Roman-2e"/>
       <use x="95.41015625" xlink:href="#BitstreamVeraSans-Roman-30"/>
      </g>
     </g>
    </g>
    <g id="ytick_2">
     <g id="line2d_110">
      <path clip-path="url(#p206b65380d)" d="M 54.525 310.202617 
L 503.88 310.202617 
" style="fill:none;stroke:#000000;stroke-dasharray:1.000000,3.000000;stroke-dashoffset:0.0;stroke-width:0.5;"/>
     </g>
     <g id="line2d_111">
      <g>
       <use style="stroke:#000000;stroke-width:0.5;" x="54.52500000000001" xlink:href="#m4b60174ef4" y="310.2026173904519"/>
      </g>
     </g>
     <g id="line2d_112">
      <g>
       <use style="stroke:#000000;stroke-width:0.5;" x="503.88" xlink:href="#mb2ed6d833c" y="310.2026173904519"/>
      </g>
     </g>
     <g id="text_12">
      <!-- 0.2 -->
      <g transform="translate(25.080000000000013 314.61761739045187)scale(0.16 -0.16)">
       <use xlink:href="#BitstreamVeraSans-Roman-30"/>
       <use x="63.623046875" xlink:href="#BitstreamVeraSans-Roman-2e"/>
       <use x="95.41015625" xlink:href="#BitstreamVeraSans-Roman-32"/>
      </g>
     </g>
    </g>
    <g id="ytick_3">
     <g id="line2d_113">
      <path clip-path="url(#p206b65380d)" d="M 54.525 235.505235 
L 503.88 235.505235 
" style="fill:none;stroke:#000000;stroke-dasharray:1.000000,3.000000;stroke-dashoffset:0.0;stroke-width:0.5;"/>
     </g>
     <g id="line2d_114">
      <g>
       <use style="stroke:#000000;stroke-width:0.5;" x="54.52500000000001" xlink:href="#m4b60174ef4" y="235.5052347809038"/>
      </g>
     </g>
     <g id="line2d_115">
      <g>
       <use style="stroke:#000000;stroke-width:0.5;" x="503.88" xlink:href="#mb2ed6d833c" y="235.5052347809038"/>
      </g>
     </g>
     <g id="text_13">
      <!-- 0.4 -->
      <g transform="translate(25.080000000000013 239.9202347809038)scale(0.16 -0.16)">
       <use xlink:href="#BitstreamVeraSans-Roman-30"/>
       <use x="63.623046875" xlink:href="#BitstreamVeraSans-Roman-2e"/>
       <use x="95.41015625" xlink:href="#BitstreamVeraSans-Roman-34"/>
      </g>
     </g>
    </g>
    <g id="ytick_4">
     <g id="line2d_116">
      <path clip-path="url(#p206b65380d)" d="M 54.525 160.807852 
L 503.88 160.807852 
" style="fill:none;stroke:#000000;stroke-dasharray:1.000000,3.000000;stroke-dashoffset:0.0;stroke-width:0.5;"/>
     </g>
     <g id="line2d_117">
      <g>
       <use style="stroke:#000000;stroke-width:0.5;" x="54.52500000000001" xlink:href="#m4b60174ef4" y="160.8078521713557"/>
      </g>
     </g>
     <g id="line2d_118">
      <g>
       <use style="stroke:#000000;stroke-width:0.5;" x="503.88" xlink:href="#mb2ed6d833c" y="160.8078521713557"/>
      </g>
     </g>
     <g id="text_14">
      <!-- 0.6 -->
      <g transform="translate(25.080000000000013 165.22285217135573)scale(0.16 -0.16)">
       <use xlink:href="#BitstreamVeraSans-Roman-30"/>
       <use x="63.623046875" xlink:href="#BitstreamVeraSans-Roman-2e"/>
       <use x="95.41015625" xlink:href="#BitstreamVeraSans-Roman-36"/>
      </g>
     </g>
    </g>
    <g id="ytick_5">
     <g id="line2d_119">
      <path clip-path="url(#p206b65380d)" d="M 54.525 86.11047 
L 503.88 86.11047 
" style="fill:none;stroke:#000000;stroke-dasharray:1.000000,3.000000;stroke-dashoffset:0.0;stroke-width:0.5;"/>
     </g>
     <g id="line2d_120">
      <g>
       <use style="stroke:#000000;stroke-width:0.5;" x="54.52500000000001" xlink:href="#m4b60174ef4" y="86.11046956180763"/>
      </g>
     </g>
     <g id="line2d_121">
      <g>
       <use style="stroke:#000000;stroke-width:0.5;" x="503.88" xlink:href="#mb2ed6d833c" y="86.11046956180763"/>
      </g>
     </g>
     <g id="text_15">
      <!-- 0.8 -->
      <g transform="translate(25.080000000000013 90.52546956180765)scale(0.16 -0.16)">
       <use xlink:href="#BitstreamVeraSans-Roman-30"/>
       <use x="63.623046875" xlink:href="#BitstreamVeraSans-Roman-2e"/>
       <use x="95.41015625" xlink:href="#BitstreamVeraSans-Roman-38"/>
      </g>
     </g>
    </g>
    <g id="ytick_6">
     <g id="line2d_122">
      <path clip-path="url(#p206b65380d)" d="M 54.525 11.413087 
L 503.88 11.413087 
" style="fill:none;stroke:#000000;stroke-dasharray:1.000000,3.000000;stroke-dashoffset:0.0;stroke-width:0.5;"/>
     </g>
     <g id="line2d_123">
      <g>
       <use style="stroke:#000000;stroke-width:0.5;" x="54.52500000000001" xlink:href="#m4b60174ef4" y="11.413086952259562"/>
      </g>
     </g>
     <g id="line2d_124">
      <g>
       <use style="stroke:#000000;stroke-width:0.5;" x="503.88" xlink:href="#mb2ed6d833c" y="11.413086952259562"/>
      </g>
     </g>
     <g id="text_16">
      <!-- 1.0 -->
      <g transform="translate(25.080000000000013 15.828086952259582)scale(0.16 -0.16)">
       <use xlink:href="#BitstreamVeraSans-Roman-31"/>
       <use x="63.623046875" xlink:href="#BitstreamVeraSans-Roman-2e"/>
       <use x="95.41015625" xlink:href="#BitstreamVeraSans-Roman-30"/>
      </g>
     </g>
    </g>
    <g id="text_17">
     <!-- Fraction of function,target pairs -->
     <defs>
      <path d="M 9.8125 72.90625 
L 51.703125 72.90625 
L 51.703125 64.59375 
L 19.671875 64.59375 
L 19.671875 43.109375 
L 48.578125 43.109375 
L 48.578125 34.8125 
L 19.671875 34.8125 
L 19.671875 0 
L 9.8125 0 
z
" id="BitstreamVeraSans-Roman-46"/>
      <path d="M 11.71875 12.40625 
L 22.015625 12.40625 
L 22.015625 4 
L 14.015625 -11.625 
L 7.71875 -11.625 
L 11.71875 4 
z
" id="BitstreamVeraSans-Roman-2c"/>
      <path d="M 18.109375 8.203125 
L 18.109375 -20.796875 
L 9.078125 -20.796875 
L 9.078125 54.6875 
L 18.109375 54.6875 
L 18.109375 46.390625 
Q 20.953125 51.265625 25.265625 53.625 
Q 29.59375 56 35.59375 56 
Q 45.5625 56 51.78125 48.09375 
Q 58.015625 40.1875 58.015625 27.296875 
Q 58.015625 14.40625 51.78125 6.484375 
Q 45.5625 -1.421875 35.59375 -1.421875 
Q 29.59375 -1.421875 25.265625 0.953125 
Q 20.953125 3.328125 18.109375 8.203125 
M 48.6875 27.296875 
Q 48.6875 37.203125 44.609375 42.84375 
Q 40.53125 48.484375 33.40625 48.484375 
Q 26.265625 48.484375 22.1875 42.84375 
Q 18.109375 37.203125 18.109375 27.296875 
Q 18.109375 17.390625 22.1875 11.75 
Q 26.265625 6.109375 33.40625 6.109375 
Q 40.53125 6.109375 44.609375 11.75 
Q 48.6875 17.390625 48.6875 27.296875 
" id="BitstreamVeraSans-Roman-70"/>
      <path d="M 18.3125 70.21875 
L 18.3125 54.6875 
L 36.8125 54.6875 
L 36.8125 47.703125 
L 18.3125 47.703125 
L 18.3125 18.015625 
Q 18.3125 11.328125 20.140625 9.421875 
Q 21.96875 7.515625 27.59375 7.515625 
L 36.8125 7.515625 
L 36.8125 0 
L 27.59375 0 
Q 17.1875 0 13.234375 3.875 
Q 9.28125 7.765625 9.28125 18.015625 
L 9.28125 47.703125 
L 2.6875 47.703125 
L 2.6875 54.6875 
L 9.28125 54.6875 
L 9.28125 70.21875 
z
" id="BitstreamVeraSans-Roman-74"/>
      <path d="M 8.5 21.578125 
L 8.5 54.6875 
L 17.484375 54.6875 
L 17.484375 21.921875 
Q 17.484375 14.15625 20.5 10.265625 
Q 23.53125 6.390625 29.59375 6.390625 
Q 36.859375 6.390625 41.078125 11.03125 
Q 45.3125 15.671875 45.3125 23.6875 
L 45.3125 54.6875 
L 54.296875 54.6875 
L 54.296875 0 
L 45.3125 0 
L 45.3125 8.40625 
Q 42.046875 3.421875 37.71875 1 
Q 33.40625 -1.421875 27.6875 -1.421875 
Q 18.265625 -1.421875 13.375 4.4375 
Q 8.5 10.296875 8.5 21.578125 
" id="BitstreamVeraSans-Roman-75"/>
      <path d="M 41.109375 46.296875 
Q 39.59375 47.171875 37.8125 47.578125 
Q 36.03125 48 33.890625 48 
Q 26.265625 48 22.1875 43.046875 
Q 18.109375 38.09375 18.109375 28.8125 
L 18.109375 0 
L 9.078125 0 
L 9.078125 54.6875 
L 18.109375 54.6875 
L 18.109375 46.1875 
Q 20.953125 51.171875 25.484375 53.578125 
Q 30.03125 56 36.53125 56 
Q 37.453125 56 38.578125 55.875 
Q 39.703125 55.765625 41.0625 55.515625 
z
" id="BitstreamVeraSans-Roman-72"/>
      <path d="M 48.78125 52.59375 
L 48.78125 44.1875 
Q 44.96875 46.296875 41.140625 47.34375 
Q 37.3125 48.390625 33.40625 48.390625 
Q 24.65625 48.390625 19.8125 42.84375 
Q 14.984375 37.3125 14.984375 27.296875 
Q 14.984375 17.28125 19.8125 11.734375 
Q 24.65625 6.203125 33.40625 6.203125 
Q 37.3125 6.203125 41.140625 7.25 
Q 44.96875 8.296875 48.78125 10.40625 
L 48.78125 2.09375 
Q 45.015625 0.34375 40.984375 -0.53125 
Q 36.96875 -1.421875 32.421875 -1.421875 
Q 20.0625 -1.421875 12.78125 6.34375 
Q 5.515625 14.109375 5.515625 27.296875 
Q 5.515625 40.671875 12.859375 48.328125 
Q 20.21875 56 33.015625 56 
Q 37.15625 56 41.109375 55.140625 
Q 45.0625 54.296875 48.78125 52.59375 
" id="BitstreamVeraSans-Roman-63"/>
     </defs>
     <g transform="translate(16.544531250000006 331.42848391089103)rotate(-90.0)scale(0.17 -0.17)">
      <use xlink:href="#BitstreamVeraSans-Roman-46"/>
      <use x="57.41015625" xlink:href="#BitstreamVeraSans-Roman-72"/>
      <use x="98.5234375" xlink:href="#BitstreamVeraSans-Roman-61"/>
      <use x="159.802734375" xlink:href="#BitstreamVeraSans-Roman-63"/>
      <use x="214.783203125" xlink:href="#BitstreamVeraSans-Roman-74"/>
      <use x="253.9921875" xlink:href="#BitstreamVeraSans-Roman-69"/>
      <use x="281.775390625" xlink:href="#BitstreamVeraSans-Roman-6f"/>
      <use x="342.95703125" xlink:href="#BitstreamVeraSans-Roman-6e"/>
      <use x="406.3359375" xlink:href="#BitstreamVeraSans-Roman-20"/>
      <use x="438.123046875" xlink:href="#BitstreamVeraSans-Roman-6f"/>
      <use x="499.3046875" xlink:href="#BitstreamVeraSans-Roman-66"/>
      <use x="534.509765625" xlink:href="#BitstreamVeraSans-Roman-20"/>
      <use x="566.296875" xlink:href="#BitstreamVeraSans-Roman-66"/>
      <use x="601.501953125" xlink:href="#BitstreamVeraSans-Roman-75"/>
      <use x="664.880859375" xlink:href="#BitstreamVeraSans-Roman-6e"/>
      <use x="728.259765625" xlink:href="#BitstreamVeraSans-Roman-63"/>
      <use x="783.240234375" xlink:href="#BitstreamVeraSans-Roman-74"/>
      <use x="822.44921875" xlink:href="#BitstreamVeraSans-Roman-69"/>
      <use x="850.232421875" xlink:href="#BitstreamVeraSans-Roman-6f"/>
      <use x="911.4140625" xlink:href="#BitstreamVeraSans-Roman-6e"/>
      <use x="974.79296875" xlink:href="#BitstreamVeraSans-Roman-2c"/>
      <use x="1006.58007812" xlink:href="#BitstreamVeraSans-Roman-74"/>
      <use x="1045.7890625" xlink:href="#BitstreamVeraSans-Roman-61"/>
      <use x="1107.06835938" xlink:href="#BitstreamVeraSans-Roman-72"/>
      <use x="1148.16601562" xlink:href="#BitstreamVeraSans-Roman-67"/>
      <use x="1211.64257812" xlink:href="#BitstreamVeraSans-Roman-65"/>
      <use x="1273.16601562" xlink:href="#BitstreamVeraSans-Roman-74"/>
      <use x="1312.375" xlink:href="#BitstreamVeraSans-Roman-20"/>
      <use x="1344.16210938" xlink:href="#BitstreamVeraSans-Roman-70"/>
      <use x="1407.63867188" xlink:href="#BitstreamVeraSans-Roman-61"/>
      <use x="1468.91796875" xlink:href="#BitstreamVeraSans-Roman-69"/>
      <use x="1496.70117188" xlink:href="#BitstreamVeraSans-Roman-72"/>
      <use x="1537.81445312" xlink:href="#BitstreamVeraSans-Roman-73"/>
     </g>
    </g>
   </g>
   <g id="text_18">
    <!-- DES -->
    <defs>
     <path d="M 9.8125 72.90625 
L 55.90625 72.90625 
L 55.90625 64.59375 
L 19.671875 64.59375 
L 19.671875 43.015625 
L 54.390625 43.015625 
L 54.390625 34.71875 
L 19.671875 34.71875 
L 19.671875 8.296875 
L 56.78125 8.296875 
L 56.78125 0 
L 9.8125 0 
z
" id="BitstreamVeraSans-Roman-45"/>
     <path d="M 19.671875 64.796875 
L 19.671875 8.109375 
L 31.59375 8.109375 
Q 46.6875 8.109375 53.6875 14.9375 
Q 60.6875 21.78125 60.6875 36.53125 
Q 60.6875 51.171875 53.6875 57.984375 
Q 46.6875 64.796875 31.59375 64.796875 
z
M 9.8125 72.90625 
L 30.078125 72.90625 
Q 51.265625 72.90625 61.171875 64.09375 
Q 71.09375 55.28125 71.09375 36.53125 
Q 71.09375 17.671875 61.125 8.828125 
Q 51.171875 0 30.078125 0 
L 9.8125 0 
z
" id="BitstreamVeraSans-Roman-44"/>
     <path d="M 53.515625 70.515625 
L 53.515625 60.890625 
Q 47.90625 63.578125 42.921875 64.890625 
Q 37.9375 66.21875 33.296875 66.21875 
Q 25.25 66.21875 20.875 63.09375 
Q 16.5 59.96875 16.5 54.203125 
Q 16.5 49.359375 19.40625 46.890625 
Q 22.3125 44.4375 30.421875 42.921875 
L 36.375 41.703125 
Q 47.40625 39.59375 52.65625 34.296875 
Q 57.90625 29 57.90625 20.125 
Q 57.90625 9.515625 50.796875 4.046875 
Q 43.703125 -1.421875 29.984375 -1.421875 
Q 24.8125 -1.421875 18.96875 -0.25 
Q 13.140625 0.921875 6.890625 3.21875 
L 6.890625 13.375 
Q 12.890625 10.015625 18.65625 8.296875 
Q 24.421875 6.59375 29.984375 6.59375 
Q 38.421875 6.59375 43.015625 9.90625 
Q 47.609375 13.234375 47.609375 19.390625 
Q 47.609375 24.75 44.3125 27.78125 
Q 41.015625 30.8125 33.5 32.328125 
L 27.484375 33.5 
Q 16.453125 35.6875 11.515625 40.375 
Q 6.59375 45.0625 6.59375 53.421875 
Q 6.59375 63.09375 13.40625 68.65625 
Q 20.21875 74.21875 32.171875 74.21875 
Q 37.3125 74.21875 42.625 73.28125 
Q 47.953125 72.359375 53.515625 70.515625 
" id="BitstreamVeraSans-Roman-53"/>
    </defs>
    <g transform="translate(464.01786290322576 382.12119923904515)scale(0.17 -0.17)">
     <use xlink:href="#BitstreamVeraSans-Roman-44"/>
     <use x="77.001953125" xlink:href="#BitstreamVeraSans-Roman-45"/>
     <use x="140.185546875" xlink:href="#BitstreamVeraSans-Roman-53"/>
    </g>
   </g>
   <g id="text_19">
    <!-- best 2009 -->
    <defs>
     <path d="M 10.984375 1.515625 
L 10.984375 10.5 
Q 14.703125 8.734375 18.5 7.8125 
Q 22.3125 6.890625 25.984375 6.890625 
Q 35.75 6.890625 40.890625 13.453125 
Q 46.046875 20.015625 46.78125 33.40625 
Q 43.953125 29.203125 39.59375 26.953125 
Q 35.25 24.703125 29.984375 24.703125 
Q 19.046875 24.703125 12.671875 31.3125 
Q 6.296875 37.9375 6.296875 49.421875 
Q 6.296875 60.640625 12.9375 67.421875 
Q 19.578125 74.21875 30.609375 74.21875 
Q 43.265625 74.21875 49.921875 64.515625 
Q 56.59375 54.828125 56.59375 36.375 
Q 56.59375 19.140625 48.40625 8.859375 
Q 40.234375 -1.421875 26.421875 -1.421875 
Q 22.703125 -1.421875 18.890625 -0.6875 
Q 15.09375 0.046875 10.984375 1.515625 
M 30.609375 32.421875 
Q 37.25 32.421875 41.125 36.953125 
Q 45.015625 41.5 45.015625 49.421875 
Q 45.015625 57.28125 41.125 61.84375 
Q 37.25 66.40625 30.609375 66.40625 
Q 23.96875 66.40625 20.09375 61.84375 
Q 16.21875 57.28125 16.21875 49.421875 
Q 16.21875 41.5 20.09375 36.953125 
Q 23.96875 32.421875 30.609375 32.421875 
" id="BitstreamVeraSans-Roman-39"/>
     <path d="M 48.6875 27.296875 
Q 48.6875 37.203125 44.609375 42.84375 
Q 40.53125 48.484375 33.40625 48.484375 
Q 26.265625 48.484375 22.1875 42.84375 
Q 18.109375 37.203125 18.109375 27.296875 
Q 18.109375 17.390625 22.1875 11.75 
Q 26.265625 6.109375 33.40625 6.109375 
Q 40.53125 6.109375 44.609375 11.75 
Q 48.6875 17.390625 48.6875 27.296875 
M 18.109375 46.390625 
Q 20.953125 51.265625 25.265625 53.625 
Q 29.59375 56 35.59375 56 
Q 45.5625 56 51.78125 48.09375 
Q 58.015625 40.1875 58.015625 27.296875 
Q 58.015625 14.40625 51.78125 6.484375 
Q 45.5625 -1.421875 35.59375 -1.421875 
Q 29.59375 -1.421875 25.265625 0.953125 
Q 20.953125 3.328125 18.109375 8.203125 
L 18.109375 0 
L 9.078125 0 
L 9.078125 75.984375 
L 18.109375 75.984375 
z
" id="BitstreamVeraSans-Roman-62"/>
    </defs>
    <g transform="translate(464.01786290322576 23.57376271321442)scale(0.17 -0.17)">
     <use xlink:href="#BitstreamVeraSans-Roman-62"/>
     <use x="63.4765625" xlink:href="#BitstreamVeraSans-Roman-65"/>
     <use x="125.0" xlink:href="#BitstreamVeraSans-Roman-73"/>
     <use x="177.099609375" xlink:href="#BitstreamVeraSans-Roman-74"/>
     <use x="216.30859375" xlink:href="#BitstreamVeraSans-Roman-20"/>
     <use x="248.095703125" xlink:href="#BitstreamVeraSans-Roman-32"/>
     <use x="311.71875" xlink:href="#BitstreamVeraSans-Roman-30"/>
     <use x="375.341796875" xlink:href="#BitstreamVeraSans-Roman-30"/>
     <use x="438.96484375" xlink:href="#BitstreamVeraSans-Roman-39"/>
    </g>
   </g>
   <g id="text_20">
    <!-- bbob f6-f9, 10-D -->
    <g transform="translate(59.01855000000001 19.20084189356436)scale(0.102 -0.102)">
     <use xlink:href="#BitstreamVeraSans-Roman-62"/>
     <use x="63.4765625" xlink:href="#BitstreamVeraSans-Roman-62"/>
     <use x="126.953125" xlink:href="#BitstreamVeraSans-Roman-6f"/>
     <use x="188.134765625" xlink:href="#BitstreamVeraSans-Roman-62"/>
     <use x="251.611328125" xlink:href="#BitstreamVeraSans-Roman-20"/>
     <use x="283.3984375" xlink:href="#BitstreamVeraSans-Roman-66"/>
     <use x="318.603515625" xlink:href="#BitstreamVeraSans-Roman-36"/>
     <use x="382.2265625" xlink:href="#BitstreamVeraSans-Roman-2d"/>
     <use x="418.310546875" xlink:href="#BitstreamVeraSans-Roman-66"/>
     <use x="453.515625" xlink:href="#BitstreamVeraSans-Roman-39"/>
     <use x="517.138671875" xlink:href="#BitstreamVeraSans-Roman-2c"/>
     <use x="548.92578125" xlink:href="#BitstreamVeraSans-Roman-20"/>
     <use x="580.712890625" xlink:href="#BitstreamVeraSans-Roman-31"/>
     <use x="644.3359375" xlink:href="#BitstreamVeraSans-Roman-30"/>
     <use x="707.958984375" xlink:href="#BitstreamVeraSans-Roman-2d"/>
     <use x="744.04296875" xlink:href="#BitstreamVeraSans-Roman-44"/>
    </g>
    <!-- 51 targets: 100..1e-08 -->
    <defs>
     <path d="M 11.71875 12.40625 
L 22.015625 12.40625 
L 22.015625 0 
L 11.71875 0 
z
M 11.71875 51.703125 
L 22.015625 51.703125 
L 22.015625 39.3125 
L 11.71875 39.3125 
z
" id="BitstreamVeraSans-Roman-3a"/>
    </defs>
    <g transform="translate(59.01855000000001 30.622610643564315)scale(0.102 -0.102)">
     <use xlink:href="#BitstreamVeraSans-Roman-35"/>
     <use x="63.623046875" xlink:href="#BitstreamVeraSans-Roman-31"/>
     <use x="127.24609375" xlink:href="#BitstreamVeraSans-Roman-20"/>
     <use x="159.033203125" xlink:href="#BitstreamVeraSans-Roman-74"/>
     <use x="198.2421875" xlink:href="#BitstreamVeraSans-Roman-61"/>
     <use x="259.521484375" xlink:href="#BitstreamVeraSans-Roman-72"/>
     <use x="300.619140625" xlink:href="#BitstreamVeraSans-Roman-67"/>
     <use x="364.095703125" xlink:href="#BitstreamVeraSans-Roman-65"/>
     <use x="425.619140625" xlink:href="#BitstreamVeraSans-Roman-74"/>
     <use x="464.828125" xlink:href="#BitstreamVeraSans-Roman-73"/>
     <use x="516.927734375" xlink:href="#BitstreamVeraSans-Roman-3a"/>
     <use x="550.619140625" xlink:href="#BitstreamVeraSans-Roman-20"/>
     <use x="582.40625" xlink:href="#BitstreamVeraSans-Roman-31"/>
     <use x="646.029296875" xlink:href="#BitstreamVeraSans-Roman-30"/>
     <use x="709.65234375" xlink:href="#BitstreamVeraSans-Roman-30"/>
     <use x="773.275390625" xlink:href="#BitstreamVeraSans-Roman-2e"/>
     <use x="805.0625" xlink:href="#BitstreamVeraSans-Roman-2e"/>
     <use x="836.849609375" xlink:href="#BitstreamVeraSans-Roman-31"/>
     <use x="900.47265625" xlink:href="#BitstreamVeraSans-Roman-65"/>
     <use x="961.99609375" xlink:href="#BitstreamVeraSans-Roman-2d"/>
     <use x="998.080078125" xlink:href="#BitstreamVeraSans-Roman-30"/>
     <use x="1061.703125" xlink:href="#BitstreamVeraSans-Roman-38"/>
    </g>
    <!-- 15 instances -->
    <g transform="translate(59.01855000000001 42.04437939356433)scale(0.102 -0.102)">
     <use xlink:href="#BitstreamVeraSans-Roman-31"/>
     <use x="63.623046875" xlink:href="#BitstreamVeraSans-Roman-35"/>
     <use x="127.24609375" xlink:href="#BitstreamVeraSans-Roman-20"/>
     <use x="159.033203125" xlink:href="#BitstreamVeraSans-Roman-69"/>
     <use x="186.81640625" xlink:href="#BitstreamVeraSans-Roman-6e"/>
     <use x="250.1953125" xlink:href="#BitstreamVeraSans-Roman-73"/>
     <use x="302.294921875" xlink:href="#BitstreamVeraSans-Roman-74"/>
     <use x="341.50390625" xlink:href="#BitstreamVeraSans-Roman-61"/>
     <use x="402.783203125" xlink:href="#BitstreamVeraSans-Roman-6e"/>
     <use x="466.162109375" xlink:href="#BitstreamVeraSans-Roman-63"/>
     <use x="521.142578125" xlink:href="#BitstreamVeraSans-Roman-65"/>
     <use x="582.666015625" xlink:href="#BitstreamVeraSans-Roman-73"/>
    </g>
   </g>
   <g id="text_21">
    <!-- v2.2.1.10 -->
    <g style="fill:#808080;" transform="translate(255.5696875 379.0480946782178)scale(0.1 -0.1)">
     <use xlink:href="#BitstreamVeraSans-Roman-76"/>
     <use x="59.1796875" xlink:href="#BitstreamVeraSans-Roman-32"/>
     <use x="122.802734375" xlink:href="#BitstreamVeraSans-Roman-2e"/>
     <use x="154.58984375" xlink:href="#BitstreamVeraSans-Roman-32"/>
     <use x="218.212890625" xlink:href="#BitstreamVeraSans-Roman-2e"/>
     <use x="250.0" xlink:href="#BitstreamVeraSans-Roman-31"/>
     <use x="313.623046875" xlink:href="#BitstreamVeraSans-Roman-2e"/>
     <use x="345.41015625" xlink:href="#BitstreamVeraSans-Roman-31"/>
     <use x="409.033203125" xlink:href="#BitstreamVeraSans-Roman-30"/>
    </g>
   </g>
  </g>
 </g>
 <defs>
  <clipPath id="p206b65380d">
   <rect height="377.22178217821784" width="449.35499999999996" x="54.52500000000001" y="7.678217821782141"/>
  </clipPath>
 </defs>
</svg>
