<?xml version="1.0" encoding="utf-8" standalone="no"?>
<!DOCTYPE svg PUBLIC "-//W3C//DTD SVG 1.1//EN"
  "http://www.w3.org/Graphics/SVG/1.1/DTD/svg11.dtd">
<!-- Created with matplotlib (http://matplotlib.org/) -->
<svg height="432pt" version="1.1" viewBox="0 0 576 432" width="576pt" xmlns="http://www.w3.org/2000/svg" xmlns:xlink="http://www.w3.org/1999/xlink">
 <defs>
  <style type="text/css">
*{stroke-linecap:butt;stroke-linejoin:round;stroke-miterlimit:100000;}
  </style>
 </defs>
 <g id="figure_1">
  <g id="patch_1">
   <path d="M 0 432 
L 576 432 
L 576 0 
L 0 0 
z
" style="fill:#ffffff;"/>
  </g>
  <g id="axes_1">
   <g id="patch_2">
    <path d="M 54.525 384.9 
L 503.88 384.9 
L 503.88 7.678218 
L 54.525 7.678218 
z
" style="fill:#ffffff;"/>
   </g>
   <g id="line2d_1">
    <path d="M 29.824905 384.9 
L 29.824905 365.859491 
L 54.525 365.859491 
L 54.525 361.465527 
L 66.00989 361.465527 
L 66.00989 358.536218 
L 70.109025 358.536218 
L 70.109025 357.071563 
L 76.576979 357.071563 
L 76.576979 348.283636 
L 79.225095 348.283636 
L 79.225095 345.354327 
L 87.492649 345.354327 
L 87.492649 342.425018 
L 89.158818 342.425018 
L 89.158818 340.960363 
L 92.161004 340.960363 
L 92.161004 339.495709 
L 94.809119 339.495709 
L 94.809119 338.031054 
L 99.320798 338.031054 
L 99.320798 336.566399 
L 100.320206 336.566399 
L 100.320206 335.101745 
L 108.436868 335.101745 
L 108.436868 333.63709 
L 113.317128 333.63709 
L 113.317128 330.707781 
L 114.904822 330.707781 
L 114.904822 329.243127 
L 116.387755 329.243127 
L 116.387755 327.778472 
L 122.615247 327.778472 
L 122.615247 326.313818 
L 128.06318 326.313818 
L 128.06318 324.849163 
L 129.709012 324.849163 
L 129.709012 323.384508 
L 132.67811 323.384508 
L 132.67811 321.919854 
L 142.328605 321.919854 
L 142.328605 320.455199 
L 144.892735 320.455199 
L 144.892735 318.990545 
L 145.293036 318.990545 
L 145.293036 317.52589 
L 147.07228 317.52589 
L 147.07228 316.061236 
L 148.720987 316.061236 
L 148.720987 314.596581 
L 159.584187 314.596581 
L 159.584187 313.131927 
L 160.341726 313.131927 
L 160.409344 310.202617 
L 161.528787 310.202617 
L 161.528787 308.737963 
L 161.784279 308.737963 
L 161.784279 307.273308 
L 161.910944 307.273308 
L 161.97401 304.343999 
L 162.036899 304.343999 
L 162.099613 301.41469 
L 162.286713 301.41469 
L 162.348735 297.020726 
L 162.410587 297.020726 
L 162.410587 295.556072 
L 162.656305 295.556072 
L 162.656305 294.091417 
L 163.495767 294.091417 
L 163.495767 291.162108 
L 163.613172 291.162108 
L 163.671646 288.232799 
L 163.90403 288.232799 
L 163.961753 285.30349 
L 164.019328 285.30349 
L 164.019328 283.838835 
L 164.134037 283.838835 
L 164.191173 280.909526 
L 164.248164 280.909526 
L 164.305011 276.515562 
L 164.418276 276.515562 
L 164.418276 275.050908 
L 164.58711 275.050908 
L 164.58711 272.121599 
L 164.698966 272.121599 
L 164.698966 270.656944 
L 164.810268 270.656944 
L 164.921022 266.262981 
L 164.976195 266.262981 
L 165.086137 261.869017 
L 165.140907 261.869017 
L 165.250048 257.475053 
L 165.30442 257.475053 
L 165.358661 254.545744 
L 165.466753 254.545744 
L 165.520604 250.15178 
L 165.787944 250.15178 
L 165.893996 245.757817 
L 166.365135 245.757817 
L 166.468506 241.363853 
L 166.520013 241.363853 
L 166.622675 238.434544 
L 167.228995 238.434544 
L 167.328478 235.505235 
L 167.476881 235.505235 
L 167.575275 231.111271 
L 167.722063 231.111271 
L 167.77078 226.717307 
L 167.867899 226.717307 
L 167.9646 222.323344 
L 168.012796 222.323344 
L 168.108877 216.464725 
L 168.299816 216.464725 
L 168.347299 212.070762 
L 168.441964 212.070762 
L 168.536233 207.676798 
L 168.583219 207.676798 
L 168.676899 203.282834 
L 168.723592 203.282834 
L 168.770189 198.888871 
L 168.863094 198.888871 
L 168.955617 194.494907 
L 170.124996 194.494907 
L 170.124996 193.030253 
L 171.772375 193.030253 
L 171.772375 191.565598 
L 175.133165 191.565598 
L 175.133165 190.100943 
L 176.78931 190.100943 
L 176.78931 188.636289 
L 179.974038 188.636289 
L 179.974038 187.171634 
L 181.158352 187.171634 
L 181.158352 185.70698 
L 182.912502 185.70698 
L 182.912502 184.242325 
L 183.931324 184.242325 
L 183.931324 182.777671 
L 184.516547 182.777671 
L 184.516547 181.313016 
L 187.478259 181.313016 
L 187.478259 179.848361 
L 187.959197 179.848361 
L 187.959197 178.383707 
L 189.510363 178.383707 
L 189.510363 176.919052 
L 189.639523 176.919052 
L 189.639523 175.454398 
L 189.877441 175.454398 
L 189.877441 173.989743 
L 192.144082 173.989743 
L 192.144082 172.525089 
L 192.259 172.525089 
L 192.259 171.060434 
L 192.389621 171.060434 
L 192.389621 169.59578 
L 202.950604 169.59578 
L 203.001436 166.66647 
L 203.082529 166.66647 
L 203.193557 163.737161 
L 203.263926 163.737161 
L 203.344079 159.343198 
L 203.39403 159.343198 
L 203.453826 156.413888 
L 203.543221 156.413888 
L 203.602622 152.019925 
L 203.730786 152.019925 
L 203.789694 147.625961 
L 203.848447 147.625961 
L 203.897292 144.696652 
L 204.052884 144.696652 
L 204.149585 140.302688 
L 204.19778 140.302688 
L 204.293861 135.908725 
L 204.332179 135.908725 
L 204.332179 134.44407 
L 204.560725 134.44407 
L 204.655271 130.050106 
L 204.711808 130.050106 
L 204.805722 124.191488 
L 204.861883 124.191488 
L 204.917904 121.262179 
L 204.983086 121.262179 
L 205.057348 116.868215 
L 205.140602 116.868215 
L 205.140602 115.403561 
L 205.35197 115.403561 
L 205.35197 113.938906 
L 205.479663 113.938906 
L 205.56137 111.009597 
L 205.660832 111.009597 
L 205.741884 108.080288 
L 205.777814 108.080288 
L 205.867388 105.150979 
L 205.956606 105.150979 
L 205.956606 103.686324 
L 206.072063 103.686324 
L 206.160475 100.757015 
L 206.20455 100.757015 
L 206.20455 99.292361 
L 206.345015 99.292361 
L 206.379994 96.363051 
L 206.475908 96.363051 
L 206.475908 94.898397 
L 206.597391 94.898397 
L 206.692383 91.969088 
L 206.795556 91.969088 
L 206.898257 89.039779 
L 206.966465 89.039779 
L 207.00899 86.11047 
L 207.321201 86.11047 
L 207.321201 84.645815 
L 207.686921 84.645815 
L 207.686921 83.18116 
L 208.087319 83.18116 
L 208.087319 81.716506 
L 208.472751 81.716506 
L 208.472751 80.251851 
L 208.812511 80.251851 
L 208.867339 77.322542 
L 208.961018 77.322542 
L 209.046549 74.393233 
L 216.662394 74.393233 
L 216.662394 72.928579 
L 224.692574 72.928579 
L 224.692574 71.463924 
L 237.763276 71.463924 
L 237.763276 69.999269 
L 251.879976 69.999269 
L 251.879976 68.534615 
L 260.700404 68.534615 
L 260.700404 67.06996 
L 269.32862 67.06996 
L 269.32862 65.605306 
L 274.514452 65.605306 
L 274.514452 64.140651 
L 289.258869 64.140651 
L 289.258869 62.675997 
L 294.33224 62.675997 
L 294.33224 61.211342 
L 307.760531 61.211342 
L 307.760531 59.746687 
L 317.313699 59.746687 
L 317.314705 11.413087 
L 416.908065 11.413087 
L 416.908065 11.413087 
" style="fill:none;stroke:#f5deb3;stroke-linecap:square;stroke-width:6.0;"/>
   </g>
   <g id="line2d_2">
    <defs>
     <path d="M -0 7.778175 
L 7.778175 0 
L 0 -7.778175 
L -7.778175 -0 
z
" id="m0934a48cd9" style="stroke:#f5deb3;stroke-linejoin:miter;stroke-width:1.5;"/>
    </defs>
    <g>
     <use style="fill:#f5deb3;stroke:#f5deb3;stroke-linejoin:miter;stroke-width:1.5;" x="142.32860532578843" xlink:href="#m0934a48cd9" y="320.4551993172526"/>
     <use style="fill:#f5deb3;stroke:#f5deb3;stroke-linejoin:miter;stroke-width:1.5;" x="168.95561692995943" xlink:href="#m0934a48cd9" y="195.95956163467247"/>
     <use style="fill:#f5deb3;stroke:#f5deb3;stroke-linejoin:miter;stroke-width:1.5;" x="216.6623942395484" xlink:href="#m0934a48cd9" y="74.39323307403538"/>
     <use style="fill:#f5deb3;stroke:#f5deb3;stroke-linejoin:miter;stroke-width:1.5;" x="317.31470520636657" xlink:href="#m0934a48cd9" y="26.059632561974865"/>
     <use style="fill:#f5deb3;stroke:#f5deb3;stroke-linejoin:miter;stroke-width:1.5;" x="317.31470520636657" xlink:href="#m0934a48cd9" y="11.413086952259562"/>
     <use style="fill:#f5deb3;stroke:#f5deb3;stroke-linejoin:miter;stroke-width:1.5;" x="416.908064516129" xlink:href="#m0934a48cd9" y="11.413086952259562"/>
    </g>
   </g>
   <g id="line2d_3">
    <path d="M -15527.946774 758.386913 
" style="fill:none;stroke:#f5deb3;stroke-linecap:square;stroke-width:6.0;"/>
    <g>
     <use style="fill:#f5deb3;stroke:#f5deb3;stroke-linejoin:miter;stroke-width:1.5;" x="-15527.946774193548" xlink:href="#m0934a48cd9" y="758.3869130477403"/>
    </g>
   </g>
   <g id="line2d_4">
    <path d="M 416.908065 11.413087 
L 456.770202 18.882825 
" style="fill:none;stroke:#f5deb3;stroke-linecap:square;stroke-width:6.0;"/>
    <g>
     <use style="fill:#f5deb3;stroke:#f5deb3;stroke-linejoin:miter;stroke-width:1.5;" x="416.908064516129" xlink:href="#m0934a48cd9" y="11.413086952259562"/>
     <use style="fill:#f5deb3;stroke:#f5deb3;stroke-linejoin:miter;stroke-width:1.5;" x="456.77020161290324" xlink:href="#m0934a48cd9" y="18.882825213214403"/>
    </g>
   </g>
   <g id="line2d_5">
    <defs>
     <path d="M 0 1.5 
C 0.397805 1.5 0.77937 1.341951 1.06066 1.06066 
C 1.341951 0.77937 1.5 0.397805 1.5 0 
C 1.5 -0.397805 1.341951 -0.77937 1.06066 -1.06066 
C 0.77937 -1.341951 0.397805 -1.5 0 -1.5 
C -0.397805 -1.5 -0.77937 -1.341951 -1.06066 -1.06066 
C -1.341951 -0.77937 -1.5 -0.397805 -1.5 0 
C -1.5 0.397805 -1.341951 0.77937 -1.06066 1.06066 
C -0.77937 1.341951 -0.397805 1.5 0 1.5 
z
" id="m8a7d7dfdba" style="stroke:#f5deb3;stroke-width:0.5;"/>
    </defs>
    <g>
     <use style="fill:#f5deb3;stroke:#f5deb3;stroke-width:0.5;" x="317.31470520636657" xlink:href="#m8a7d7dfdba" y="11.413086952259562"/>
     <use style="fill:#f5deb3;stroke:#f5deb3;stroke-width:0.5;" x="317.31470520636657" xlink:href="#m8a7d7dfdba" y="11.413086952259562"/>
    </g>
   </g>
   <g id="line2d_6">
    <defs>
     <path d="M 0 1.5 
C 0.397805 1.5 0.77937 1.341951 1.06066 1.06066 
C 1.341951 0.77937 1.5 0.397805 1.5 0 
C 1.5 -0.397805 1.341951 -0.77937 1.06066 -1.06066 
C 0.77937 -1.341951 0.397805 -1.5 0 -1.5 
C -0.397805 -1.5 -0.77937 -1.341951 -1.06066 -1.06066 
C -1.341951 -0.77937 -1.5 -0.397805 -1.5 0 
C -1.5 0.397805 -1.341951 0.77937 -1.06066 1.06066 
C -0.77937 1.341951 -0.397805 1.5 0 1.5 
z
" id="m5efff5a468" style="stroke:#ff00ff;stroke-width:0.5;"/>
    </defs>
    <g>
     <use style="fill:#ff00ff;stroke:#ff00ff;stroke-width:0.5;" x="468.215483562757" xlink:href="#m5efff5a468" y="78.78719675694998"/>
     <use style="fill:#ff00ff;stroke:#ff00ff;stroke-width:0.5;" x="468.215483562757" xlink:href="#m5efff5a468" y="78.78719675694998"/>
    </g>
   </g>
   <g id="line2d_7">
    <path d="M 29.824905 384.9 
L 29.824905 369.667593 
L 45.40893 369.667593 
L 45.40893 364.541302 
L 54.525 364.541302 
L 54.525 359.12208 
L 60.992955 359.12208 
L 60.992955 358.536218 
L 66.00989 358.536218 
L 66.00989 356.192771 
L 70.109025 356.192771 
L 70.109025 352.824065 
L 73.574794 352.824065 
L 73.574794 352.091738 
L 76.576979 352.091738 
L 76.576979 351.505876 
L 79.225095 351.505876 
L 79.225095 351.212945 
L 81.593915 351.212945 
L 81.593915 347.551309 
L 83.736773 347.551309 
L 83.736773 346.379585 
L 85.693049 346.379585 
L 85.693049 346.23312 
L 87.492649 346.23312 
L 87.492649 346.086654 
L 89.158818 346.086654 
L 89.158818 344.329069 
L 90.709985 344.329069 
L 90.709985 341.546225 
L 92.161004 341.546225 
L 92.161004 341.106829 
L 93.524027 341.106829 
L 93.524027 339.78864 
L 94.809119 339.78864 
L 94.809119 339.495709 
L 96.024712 339.495709 
L 96.024712 339.056312 
L 97.177939 339.056312 
L 97.177939 338.323985 
L 98.274888 338.323985 
L 98.274888 337.152261 
L 99.320798 337.152261 
L 99.320798 336.273469 
L 100.320206 336.273469 
L 100.320206 335.980538 
L 103.076674 335.980538 
L 103.076674 335.687607 
L 103.925189 335.687607 
L 103.925189 335.541141 
L 104.742843 335.541141 
L 104.742843 335.24821 
L 108.436868 335.24821 
L 108.436868 335.101745 
L 109.108052 335.101745 
L 109.108052 334.369418 
L 110.393144 334.369418 
L 110.393144 334.076487 
L 113.317128 334.076487 
L 113.317128 333.783556 
L 113.858913 333.783556 
L 113.858913 333.490625 
L 114.904822 333.490625 
L 114.904822 333.051229 
L 115.410079 333.051229 
L 115.410079 330.707781 
L 115.904231 330.707781 
L 115.904231 329.828989 
L 116.387755 329.828989 
L 116.387755 329.536058 
L 118.224122 329.536058 
L 118.224122 329.389592 
L 118.660698 329.389592 
L 118.660698 329.096661 
L 119.088959 329.096661 
L 119.088959 328.950196 
L 119.921757 328.950196 
L 119.921757 328.80373 
L 121.878034 328.80373 
L 121.878034 328.657265 
L 122.974983 328.657265 
L 122.974983 328.364334 
L 123.677634 328.364334 
L 123.677634 328.071403 
L 124.692076 328.071403 
L 124.692076 327.924938 
L 125.020301 327.924938 
L 125.020301 327.485541 
L 125.343803 327.485541 
L 125.343803 327.339076 
L 125.662716 327.339076 
L 125.662716 327.046145 
L 126.894969 327.046145 
L 126.894969 326.753214 
L 127.486661 326.753214 
L 127.486661 326.606748 
L 129.709012 326.606748 
L 129.709012 326.167352 
L 130.742895 326.167352 
L 130.742895 325.58149 
L 131.242537 325.58149 
L 131.242537 325.288559 
L 131.488256 325.288559 
L 131.488256 323.97037 
L 131.731317 323.97037 
L 131.731317 323.677439 
L 132.209697 323.677439 
L 132.209697 322.945112 
L 133.362924 322.945112 
L 133.362924 322.652181 
L 135.093239 322.652181 
L 135.093239 322.505716 
L 135.70925 322.505716 
L 135.70925 322.212785 
L 135.910892 322.212785 
L 135.910892 322.066319 
L 136.69985 322.066319 
L 136.69985 321.919854 
L 138.199272 321.919854 
L 138.199272 321.773388 
L 141.087849 321.773388 
L 141.087849 321.333992 
L 141.246741 321.333992 
L 141.246741 321.041061 
L 143.504455 321.041061 
L 143.504455 320.601665 
L 144.209309 320.601665 
L 144.209309 320.162268 
L 144.621852 320.162268 
L 144.621852 320.015803 
L 148.492731 320.015803 
L 148.492731 319.722872 
L 148.834251 319.722872 
L 148.834251 319.429941 
L 148.946948 319.429941 
L 148.946948 319.13701 
L 149.502112 319.13701 
L 149.611519 318.844079 
L 149.720396 318.844079 
L 149.720396 318.551148 
L 150.043897 318.551148 
L 150.043897 318.404683 
L 150.468117 318.404683 
L 150.468117 318.111752 
L 151.191771 318.111752 
L 151.293274 317.672356 
L 151.494917 317.672356 
L 151.494917 317.52589 
L 152.763274 317.52589 
L 152.763274 316.207701 
L 152.952208 316.207701 
L 152.952208 316.061236 
L 153.692456 316.061236 
L 153.692456 315.768305 
L 154.497102 315.768305 
L 154.497102 315.475374 
L 154.672068 315.475374 
L 154.672068 315.328908 
L 155.694198 315.328908 
L 155.694198 315.035977 
L 156.024837 315.035977 
L 156.024837 314.743047 
L 156.269663 314.743047 
L 156.269663 314.157185 
L 156.830765 314.157185 
L 156.830765 314.010719 
L 156.988541 314.010719 
L 157.067016 313.424857 
L 159.016763 313.424857 
L 159.016763 313.131927 
L 159.514038 313.131927 
L 159.514038 312.838996 
L 160.409344 312.838996 
L 160.409344 312.546065 
L 160.677801 312.546065 
L 160.677801 312.253134 
L 161.656896 312.253134 
L 161.656896 312.106668 
L 162.838847 312.106668 
L 162.899367 311.813737 
L 163.436834 311.813737 
L 163.436834 311.520806 
L 163.788138 311.520806 
L 163.788138 310.934945 
L 164.248164 310.934945 
L 164.248164 310.788479 
L 164.754686 310.788479 
L 164.865714 308.884428 
L 166.775795 308.884428 
L 166.775795 308.737963 
L 167.179088 308.737963 
L 167.179088 308.591497 
L 168.299816 308.591497 
L 168.299816 308.445032 
L 170.730344 308.445032 
L 170.730344 308.298566 
L 171.069077 308.298566 
L 171.069077 308.152101 
L 171.278223 308.152101 
L 171.278223 308.005636 
L 172.055693 308.005636 
L 172.095877 307.712705 
L 172.335485 307.712705 
L 172.41479 307.273308 
L 172.923565 307.273308 
L 172.923565 306.980377 
L 173.796432 306.980377 
L 173.796432 306.687446 
L 174.018671 306.687446 
L 174.018671 306.540981 
L 174.42049 306.540981 
L 174.42049 306.394516 
L 174.564844 306.394516 
L 174.672504 304.63693 
L 174.708276 304.63693 
L 174.743992 304.197534 
L 174.992425 304.197534 
L 174.992425 303.904603 
L 175.168212 303.904603 
L 175.168212 303.758137 
L 175.550172 303.758137 
L 175.550172 303.465206 
L 175.925751 303.465206 
L 176.027102 302.439948 
L 176.127998 302.439948 
L 176.228443 302.147017 
L 176.527115 302.147017 
L 176.560057 301.707621 
L 176.821871 301.707621 
L 176.821871 301.41469 
L 177.048483 301.41469 
L 177.048483 301.121759 
L 177.208962 301.121759 
L 177.208962 300.828828 
L 177.336525 300.828828 
L 177.368303 300.242966 
L 177.558034 300.242966 
L 177.620924 299.950035 
L 177.683638 299.950035 
L 177.777382 299.217708 
L 177.994611 299.217708 
L 178.056293 298.485381 
L 178.179151 298.485381 
L 178.179151 298.338915 
L 178.422872 298.338915 
L 178.422872 298.045985 
L 178.813368 298.045985 
L 178.813368 297.606588 
L 179.079792 297.606588 
L 179.079792 296.58133 
L 179.401192 296.58133 
L 179.401192 296.288399 
L 179.66078 296.288399 
L 179.66078 295.556072 
L 179.917406 295.556072 
L 179.917406 295.263141 
L 180.143084 295.263141 
L 180.143084 295.116675 
L 180.310868 295.116675 
L 180.338711 294.530814 
L 180.47741 294.530814 
L 180.53265 293.944952 
L 180.670162 293.944952 
L 180.670162 293.652021 
L 180.861275 293.652021 
L 180.861275 293.212624 
L 181.023803 293.212624 
L 181.023803 292.187366 
L 181.398529 292.187366 
L 181.398529 291.601504 
L 181.923243 291.601504 
L 181.923243 290.869177 
L 182.05253 290.869177 
L 182.155428 290.283315 
L 182.2067 290.283315 
L 182.232293 289.843919 
L 182.986826 289.843919 
L 183.085544 288.818661 
L 183.183831 288.818661 
L 183.183831 288.379264 
L 183.354805 288.379264 
L 183.354805 287.793403 
L 183.500326 287.793403 
L 183.500326 287.646937 
L 183.716858 287.646937 
L 183.740789 286.91461 
L 183.883841 286.91461 
L 183.955027 286.182283 
L 184.260923 286.182283 
L 184.354214 285.30349 
L 184.377476 285.30349 
L 184.470285 284.571163 
L 184.539642 284.571163 
L 184.562713 284.278232 
L 184.654762 284.278232 
L 184.677716 282.227715 
L 185.041821 282.227715 
L 185.041821 282.08125 
L 186.420772 282.08125 
L 186.420772 281.934784 
L 186.966095 281.934784 
L 186.966095 281.788319 
L 187.336025 281.788319 
L 187.336025 281.202457 
L 188.50759 281.202457 
L 188.50759 281.055992 
L 188.967224 281.055992 
L 189.06181 280.616595 
L 189.212324 280.616595 
L 189.212324 280.323664 
L 190.220699 280.323664 
L 190.274422 279.884268 
L 190.961382 279.884268 
L 191.047955 279.298406 
L 191.254381 279.298406 
L 191.254381 279.151941 
L 191.795758 279.151941 
L 191.795758 279.005475 
L 192.012022 279.005475 
L 192.012022 278.566079 
L 192.567994 278.566079 
L 192.567994 278.419613 
L 192.984061 278.419613 
L 192.984061 278.126683 
L 193.252001 278.126683 
L 193.252001 277.980217 
L 193.376993 277.980217 
L 193.376993 277.540821 
L 193.763176 277.540821 
L 193.763176 276.662028 
L 193.900593 276.662028 
L 193.900593 276.515562 
L 194.27796 276.515562 
L 194.27796 276.369097 
L 194.530999 276.369097 
L 194.530999 276.222632 
L 195.072079 276.222632 
L 195.072079 276.076166 
L 195.273464 276.076166 
L 195.273464 275.63677 
L 195.515602 275.63677 
L 195.515602 275.343839 
L 195.699022 275.343839 
L 195.699022 274.904442 
L 197.246441 274.904442 
L 197.246441 274.757977 
L 197.52023 274.757977 
L 197.52023 274.611512 
L 197.816317 274.611512 
L 197.816317 274.318581 
L 197.943844 274.318581 
L 197.943844 274.02565 
L 198.108556 274.02565 
L 198.108556 273.586253 
L 198.259533 273.586253 
L 198.272069 273.146857 
L 198.372105 273.146857 
L 198.384578 272.707461 
L 198.508931 272.707461 
L 198.508931 272.560995 
L 198.877917 272.560995 
L 198.963149 271.975133 
L 199.276926 271.975133 
L 199.276926 271.682202 
L 199.432188 271.682202 
L 199.432188 271.389272 
L 199.586385 271.389272 
L 199.598202 270.656944 
L 200.227301 270.656944 
L 200.227301 270.510479 
L 200.816904 270.510479 
L 200.816904 270.071082 
L 201.249176 270.071082 
L 201.358689 268.899359 
L 201.380528 268.899359 
L 201.380528 268.752893 
L 201.500263 268.752893 
L 201.576128 267.727635 
L 201.684064 267.727635 
L 201.684064 267.58117 
L 201.919714 267.58117 
L 201.919714 267.434704 
L 202.331483 267.434704 
L 202.331483 267.141773 
L 202.46708 267.141773 
L 202.46708 266.995308 
L 202.601865 266.995308 
L 202.643175 266.555911 
L 202.735846 266.555911 
L 202.776911 265.530653 
L 203.133064 265.530653 
L 203.163331 264.944791 
L 203.294017 264.944791 
L 203.39403 264.505395 
L 203.563039 264.505395 
L 203.563039 263.919533 
L 203.858225 263.919533 
L 203.936291 263.480137 
L 203.994663 263.480137 
L 204.101286 261.722551 
L 204.332179 261.722551 
L 204.437218 260.404362 
L 204.494306 260.404362 
L 204.560725 259.8185 
L 204.636394 259.8185 
L 204.721217 258.793242 
L 204.777589 258.793242 
L 204.796349 258.353846 
L 204.899246 258.353846 
L 204.936547 257.767984 
L 205.010963 257.767984 
L 205.103638 257.475053 
L 205.122127 257.475053 
L 205.232745 255.278071 
L 205.660832 255.278071 
L 205.660832 254.69221 
L 205.777814 254.69221 
L 205.822646 254.399279 
L 205.894191 254.399279 
L 205.965509 253.813417 
L 206.009968 253.813417 
L 206.009968 253.666951 
L 206.301214 253.666951 
L 206.353765 253.08109 
L 206.441077 253.08109 
L 206.458499 251.909366 
L 206.623338 251.909366 
L 206.623338 251.616435 
L 206.761218 251.616435 
L 206.838405 251.323504 
L 206.949433 251.323504 
L 207.00899 250.884108 
L 207.076864 250.884108 
L 207.152977 250.005315 
L 207.220417 250.005315 
L 207.296047 249.272988 
L 207.404843 249.272988 
L 207.496491 246.636609 
L 207.637399 246.636609 
L 207.686921 245.464886 
L 207.769216 245.464886 
L 207.777429 244.879024 
L 207.883925 244.879024 
L 207.957359 243.414369 
L 208.184299 243.414369 
L 208.192361 242.974973 
L 208.345007 242.974973 
L 208.448855 241.363853 
L 208.552225 241.363853 
L 208.655122 240.924457 
L 208.75755 240.924457 
L 208.859514 239.606268 
L 208.937635 239.606268 
L 208.984377 238.581009 
L 209.139486 238.581009 
L 209.139486 238.288078 
L 209.262807 238.288078 
L 209.262807 238.141613 
L 209.590921 238.141613 
L 209.696723 234.187046 
L 209.794525 234.187046 
L 209.794525 234.04058 
L 210.040896 234.04058 
L 210.040896 233.894115 
L 210.174151 233.894115 
L 210.269901 232.42946 
L 210.365246 232.42946 
L 210.365246 232.136529 
L 210.69941 232.136529 
L 210.69941 231.843598 
L 210.857489 231.843598 
L 210.857489 231.550667 
L 211.021573 231.550667 
L 211.127943 231.111271 
L 211.423128 231.111271 
L 211.45104 230.671875 
L 211.631627 230.671875 
L 211.693802 229.793082 
L 212.279401 229.793082 
L 212.279401 229.646617 
L 212.626223 229.646617 
L 212.626223 229.500151 
L 213.013362 229.500151 
L 213.013362 229.20722 
L 213.496055 229.20722 
L 213.496055 229.060755 
L 214.740785 229.060755 
L 214.740785 228.914289 
L 215.603576 228.914289 
L 215.603576 228.767824 
L 216.028554 228.767824 
L 216.10239 228.181962 
L 216.164678 228.181962 
L 216.164678 228.035497 
L 216.479131 228.035497 
L 216.479131 227.742566 
L 216.926321 227.742566 
L 216.997271 226.277911 
L 217.289614 226.277911 
L 217.343337 225.399118 
L 217.993837 225.399118 
L 217.993837 225.252653 
L 218.345545 225.252653 
L 218.38144 224.813256 
L 218.67667 224.813256 
L 218.742314 224.37386 
L 218.903087 224.37386 
L 218.903087 224.080929 
L 219.112371 224.080929 
L 219.132202 223.641533 
L 219.670801 223.641533 
L 219.670801 223.348602 
L 219.829897 223.348602 
L 219.829897 223.202136 
L 220.002181 223.202136 
L 220.083081 222.909206 
L 220.149486 222.909206 
L 220.149486 222.76274 
L 220.417845 222.76274 
L 220.417845 222.176878 
L 220.539198 222.176878 
L 220.539198 222.030413 
L 220.706152 222.030413 
L 220.779958 220.272827 
L 220.940567 220.272827 
L 220.940567 220.126362 
L 221.451413 220.126362 
L 221.509445 219.686966 
L 221.779767 219.686966 
L 221.854527 219.101104 
L 222.025102 219.101104 
L 222.025102 218.808173 
L 225.636055 218.808173 
L 225.636055 218.222311 
L 226.373388 218.222311 
L 226.373388 217.489984 
L 226.835433 217.489984 
L 226.835433 217.343518 
L 227.059459 217.343518 
L 227.059459 216.904122 
L 227.987428 216.904122 
L 227.987428 216.611191 
L 228.685039 216.611191 
L 228.685039 216.31826 
L 228.933152 216.31826 
L 229.029083 214.853605 
L 229.150011 214.853605 
L 229.150011 214.560675 
L 229.546392 214.560675 
L 229.546392 214.414209 
L 229.664576 214.414209 
L 229.704865 213.535416 
L 229.85608 213.535416 
L 229.85608 212.803089 
L 229.991003 212.803089 
L 230.000172 212.510158 
L 230.122081 212.510158 
L 230.222161 210.752573 
L 230.318784 210.752573 
L 230.318784 210.606107 
L 231.015918 210.606107 
L 231.109197 210.166711 
L 231.173102 210.166711 
L 231.222359 209.580849 
L 231.291715 209.580849 
L 231.401094 208.994987 
L 231.435524 208.994987 
L 231.441257 208.702056 
L 231.558468 208.702056 
L 231.558468 208.555591 
L 232.215978 208.555591 
L 232.298901 207.823264 
L 232.395259 207.823264 
L 232.463834 207.237402 
L 234.054951 207.237402 
L 234.065156 206.65154 
L 234.205 206.65154 
L 234.205 206.358609 
L 234.401844 206.358609 
L 234.401844 205.919213 
L 234.614409 205.919213 
L 234.614409 204.747489 
L 234.928309 204.747489 
L 234.928309 204.308093 
L 235.404311 204.308093 
L 235.404311 204.161627 
L 235.643342 204.161627 
L 235.643342 204.015162 
L 235.863382 204.015162 
L 235.863382 203.722231 
L 236.137183 203.722231 
L 236.137183 203.136369 
L 236.681793 203.136369 
L 236.681793 202.843438 
L 236.851425 202.843438 
L 236.851425 202.696973 
L 236.997412 202.696973 
L 236.997412 202.550507 
L 237.220172 202.550507 
L 237.220172 202.404042 
L 237.808668 202.404042 
L 237.808668 202.111111 
L 239.13966 202.111111 
L 239.233085 201.232318 
L 239.30391 201.232318 
L 239.382568 200.646456 
L 239.624872 200.646456 
L 239.670636 200.353525 
L 239.88429 200.353525 
L 239.935424 197.570682 
L 240.132962 197.570682 
L 240.132962 197.424216 
L 240.270794 197.424216 
L 240.348075 195.959562 
L 240.423169 195.959562 
L 240.522906 194.494907 
L 240.559238 194.494907 
L 240.646958 193.469649 
L 240.726753 193.469649 
L 240.81949 192.590856 
L 240.844029 192.590856 
L 240.898675 192.004994 
L 240.971956 192.004994 
L 241.071161 191.126202 
L 241.190375 191.126202 
L 241.190375 190.833271 
L 241.334817 190.833271 
L 241.334817 190.54034 
L 241.48384 190.54034 
L 241.48384 189.954478 
L 241.710077 189.954478 
L 241.786192 189.515082 
L 242.166509 189.515082 
L 242.166509 189.368616 
L 242.313671 189.368616 
L 242.313671 188.489823 
L 242.451096 188.489823 
L 242.466899 187.171634 
L 242.612115 187.171634 
L 242.699144 184.974652 
L 242.834239 184.974652 
L 242.904927 184.242325 
L 243.06103 184.242325 
L 243.132713 182.777671 
L 243.190576 182.777671 
L 243.272012 181.752412 
L 243.381821 181.752412 
L 243.381821 181.313016 
L 243.507861 181.313016 
L 243.586488 180.287758 
L 243.634865 180.287758 
L 243.634865 179.408965 
L 243.832297 179.408965 
L 243.93941 178.823103 
L 244.047651 178.823103 
L 244.130937 177.504914 
L 244.260962 177.504914 
L 244.35799 176.333191 
L 244.465846 176.333191 
L 244.465846 176.04026 
L 244.597148 176.04026 
L 244.616299 174.575605 
L 244.799004 174.575605 
L 244.799004 174.282674 
L 244.922087 174.282674 
L 244.942535 173.696812 
L 245.561265 173.696812 
L 245.561265 173.11095 
L 246.336981 173.11095 
L 246.336981 172.81802 
L 246.463704 172.81802 
L 246.463704 172.232158 
L 246.645173 172.232158 
L 246.683038 171.49983 
L 246.87574 171.49983 
L 246.946321 170.913969 
L 246.989425 170.913969 
L 247.020982 169.742245 
L 247.250585 169.742245 
L 247.250585 169.59578 
L 247.463816 169.59578 
L 247.547985 167.398798 
L 247.793079 167.398798 
L 247.898095 165.787678 
L 247.999878 165.787678 
L 248.093004 165.05535 
L 249.388799 165.05535 
L 249.388799 164.908885 
L 253.623631 164.908885 
L 253.623631 164.762419 
L 254.371908 164.762419 
L 254.407024 164.469489 
L 254.621693 164.469489 
L 254.621693 164.323023 
L 254.740977 164.323023 
L 254.740977 163.004834 
L 254.880863 163.004834 
L 254.880863 162.858369 
L 254.996773 162.858369 
L 255.048989 162.565438 
L 255.282471 162.565438 
L 255.321151 162.272507 
L 255.458468 162.272507 
L 255.539084 161.979576 
L 255.691658 161.979576 
L 255.727694 160.807852 
L 255.809291 160.807852 
L 255.88093 160.368456 
L 256.08108 160.368456 
L 256.155679 159.343198 
L 256.208132 159.343198 
L 256.291804 158.757336 
L 256.423337 158.757336 
L 256.423337 158.464405 
L 260.554057 158.464405 
L 260.554057 158.317939 
L 260.814006 158.317939 
L 260.814006 158.171474 
L 261.037965 158.171474 
L 261.146055 155.974492 
L 261.153701 155.974492 
L 261.261237 154.949234 
L 261.27949 154.949234 
L 261.312915 154.363372 
L 261.496624 154.363372 
L 261.605533 153.191648 
L 261.693029 153.191648 
L 261.731807 152.605787 
L 261.815102 152.605787 
L 261.886253 152.16639 
L 262.0345 152.16639 
L 262.0345 151.726994 
L 263.045029 151.726994 
L 263.045029 151.434063 
L 265.814792 151.434063 
L 265.833425 150.994667 
L 265.968362 150.994667 
L 265.968362 150.55527 
L 266.13682 150.55527 
L 266.236439 150.262339 
L 266.410171 150.262339 
L 266.433758 149.676478 
L 266.538692 149.676478 
L 266.582571 149.383547 
L 266.730405 149.383547 
L 266.730405 149.237081 
L 268.370481 149.237081 
L 268.44191 148.504754 
L 268.5423 148.504754 
L 268.599465 146.454237 
L 272.266741 146.454237 
L 272.337979 145.868376 
L 272.431224 145.868376 
L 272.505635 144.11079 
L 272.54344 144.11079 
L 272.54344 143.817859 
L 274.36967 143.817859 
L 274.470523 142.206739 
L 274.491653 142.206739 
L 274.53006 141.474412 
L 275.565539 141.474412 
L 275.565539 141.327947 
L 277.251662 141.327947 
L 277.251662 141.035016 
L 278.069383 141.035016 
L 278.173617 139.423896 
L 278.234139 139.423896 
L 278.234139 139.27743 
L 279.443444 139.27743 
L 279.511461 135.615794 
L 280.173003 135.615794 
L 280.173003 135.176397 
L 282.34811 135.176397 
L 282.34811 135.029932 
L 282.461891 135.029932 
L 282.568907 134.737001 
L 282.681579 134.737001 
L 282.737265 133.711743 
L 282.869768 133.711743 
L 282.941531 133.125881 
L 283.006703 133.125881 
L 283.006703 132.979416 
L 283.222588 132.979416 
L 283.226312 132.686485 
L 283.79617 132.686485 
L 283.79617 132.540019 
L 283.9728 132.540019 
L 283.9728 132.393554 
L 285.155529 132.393554 
L 285.155529 132.100623 
L 285.42207 132.100623 
L 285.42207 131.954157 
L 286.254869 131.954157 
L 286.259875 131.075365 
L 286.37844 131.075365 
L 286.43364 129.903641 
L 286.51099 129.903641 
L 286.51099 129.757175 
L 289.139627 129.757175 
L 289.139627 129.464245 
L 289.545697 129.464245 
L 289.629873 127.99959 
L 289.666036 127.99959 
L 289.666036 127.560194 
L 290.403805 127.560194 
L 290.403805 127.267263 
L 290.963756 127.267263 
L 291.067464 126.38847 
L 291.094124 126.38847 
L 291.094124 125.802608 
L 291.45574 125.802608 
L 291.45574 125.509677 
L 291.74055 125.509677 
L 291.74055 125.216746 
L 294.201479 125.216746 
L 294.201479 124.923815 
L 296.226021 124.923815 
L 296.226021 124.77735 
L 299.363992 124.77735 
L 299.363992 124.630885 
L 299.984541 124.630885 
L 300.035455 122.287437 
L 300.426941 122.287437 
L 300.519244 121.848041 
L 301.869912 121.848041 
L 301.869912 121.701575 
L 302.212143 121.701575 
L 302.288459 120.969248 
L 302.382484 120.969248 
L 302.382484 120.822783 
L 302.796361 120.822783 
L 302.902381 119.504594 
L 302.92219 119.504594 
L 303.015032 119.211663 
L 303.583759 119.211663 
L 303.583759 119.065197 
L 304.17323 119.065197 
L 304.17323 118.918732 
L 304.612848 118.918732 
L 304.612848 118.186404 
L 304.886764 118.186404 
L 304.886764 118.039939 
L 305.039693 118.039939 
L 305.039693 117.893474 
L 306.426758 117.893474 
L 306.426758 117.747008 
L 306.709111 117.747008 
L 306.709111 117.600543 
L 309.559087 117.600543 
L 309.559087 117.454077 
L 314.445501 117.454077 
L 314.445501 117.307612 
L 316.256644 117.307612 
L 316.256644 117.161146 
L 316.865794 117.161146 
L 316.865794 117.014681 
L 318.347196 117.014681 
L 318.347196 116.868215 
L 318.835025 116.868215 
L 318.835025 116.575284 
L 322.648703 116.575284 
L 322.655994 116.282354 
L 322.987989 116.282354 
L 322.987989 116.135888 
L 323.228502 116.135888 
L 323.228502 115.989423 
L 323.367147 115.989423 
L 323.367147 115.842957 
L 324.799695 115.842957 
L 324.849809 115.550026 
L 325.262876 115.550026 
L 325.262876 115.11063 
L 330.173734 115.11063 
L 330.173734 114.964164 
L 330.310004 114.964164 
L 330.310004 114.817699 
L 331.518861 114.817699 
L 331.518861 114.671234 
L 335.399981 114.671234 
L 335.483264 114.231837 
L 336.237629 114.231837 
L 336.237629 114.085372 
L 341.576984 114.085372 
L 341.576984 113.938906 
L 343.525949 113.938906 
L 343.551256 113.49951 
L 344.908397 113.49951 
L 344.996521 111.156063 
L 347.412447 111.156063 
L 347.446599 110.716666 
L 348.964078 110.716666 
L 348.964078 110.570201 
L 349.078595 110.570201 
L 349.078595 110.27727 
L 349.711 110.27727 
L 349.711 110.130804 
L 356.990079 110.130804 
L 356.990079 109.984339 
L 358.536922 109.984339 
L 358.536922 109.837873 
L 359.053872 109.837873 
L 359.053872 109.398477 
L 360.885328 109.398477 
L 360.885328 109.252012 
L 363.110242 109.252012 
L 363.125026 108.66615 
L 366.364006 108.66615 
L 366.364006 108.519684 
L 368.294802 108.519684 
L 368.294802 108.226753 
L 369.483905 108.226753 
L 369.554513 107.787357 
L 371.058286 107.787357 
L 371.058563 106.908564 
L 371.529986 106.908564 
L 371.529986 106.615633 
L 379.152831 106.615633 
L 379.152831 106.322703 
L 380.763083 106.322703 
L 380.763083 106.176237 
L 381.985114 106.176237 
L 381.985114 106.029772 
L 392.377909 106.029772 
L 392.461028 101.782273 
L 392.493691 101.782273 
L 392.566855 101.489342 
L 392.608795 101.489342 
L 392.714991 98.852964 
L 393.23626 98.852964 
L 393.23626 98.706499 
L 393.597003 98.706499 
L 393.642914 98.413568 
L 393.942827 98.413568 
L 393.999725 97.974172 
L 394.795986 97.974172 
L 394.79777 96.363051 
L 395.026011 96.363051 
L 395.026011 96.070121 
L 395.554467 96.070121 
L 395.554467 95.923655 
L 395.684706 95.923655 
L 395.684706 95.77719 
L 399.186451 95.77719 
L 399.205314 95.484259 
L 399.750894 95.484259 
L 399.750894 95.191328 
L 403.256662 95.191328 
L 403.256662 95.044862 
L 403.96561 95.044862 
L 403.96561 94.898397 
L 405.628671 94.898397 
L 405.628671 94.751931 
L 407.877959 94.751931 
L 407.918879 92.115553 
L 407.996374 92.115553 
L 408.07487 90.211502 
L 409.123224 90.211502 
L 409.124163 89.479175 
L 409.245138 89.479175 
L 409.245138 89.186244 
L 411.007845 89.186244 
L 411.007845 89.039779 
L 411.550911 89.039779 
L 411.561796 88.746848 
L 411.800645 88.746848 
L 411.87831 88.453917 
L 416.908065 88.453917 
L 416.908065 88.453917 
" style="fill:none;stroke:#ff00ff;stroke-linecap:square;stroke-width:1.5;"/>
   </g>
   <g id="line2d_8">
    <defs>
     <path d="M -0 8.485281 
L 5.091169 0 
L 0 -8.485281 
L -5.091169 -0 
z
" id="meb71e7699a" style="stroke:#ff00ff;stroke-linejoin:miter;stroke-width:1.5;"/>
    </defs>
    <g>
     <use style="fill:none;stroke:#ff00ff;stroke-linejoin:miter;stroke-width:1.5;" x="130.74289458771554" xlink:href="#meb71e7699a" y="325.581490280653"/>
     <use style="fill:none;stroke:#ff00ff;stroke-linejoin:miter;stroke-width:1.5;" x="204.4943055540689" xlink:href="#meb71e7699a" y="260.40436231741984"/>
     <use style="fill:none;stroke:#ff00ff;stroke-linejoin:miter;stroke-width:1.5;" x="278.23413860217727" xlink:href="#meb71e7699a" y="139.4238955811714"/>
     <use style="fill:none;stroke:#ff00ff;stroke-linejoin:miter;stroke-width:1.5;" x="356.9900793860628" xlink:href="#meb71e7699a" y="109.9843389056436"/>
     <use style="fill:none;stroke:#ff00ff;stroke-linejoin:miter;stroke-width:1.5;" x="411.87831019861335" xlink:href="#meb71e7699a" y="88.4539168593621"/>
     <use style="fill:none;stroke:#ff00ff;stroke-linejoin:miter;stroke-width:1.5;" x="416.908064516129" xlink:href="#meb71e7699a" y="88.4539168593621"/>
    </g>
   </g>
   <g id="line2d_9">
    <path d="M -15527.946774 758.386913 
" style="fill:none;stroke:#ff00ff;stroke-linecap:square;stroke-width:1.5;"/>
    <g>
     <use style="fill:none;stroke:#ff00ff;stroke-linejoin:miter;stroke-width:1.5;" x="-15527.946774193548" xlink:href="#meb71e7699a" y="758.3869130477403"/>
    </g>
   </g>
   <g id="line2d_10">
    <path clip-path="url(#p9c2936c51e)" d="M 392.20797 106.029772 
" style="fill:none;stroke:#ff00ff;stroke-linecap:square;"/>
    <defs>
     <path d="M -12 12 
L 12 -12 
M -12 -12 
L 12 12 
" id="m5589bb6eb9" style="stroke:#ff00ff;stroke-width:3.0;"/>
    </defs>
    <g clip-path="url(#p9c2936c51e)">
     <use style="fill:#ff00ff;stroke:#ff00ff;stroke-width:3.0;" x="392.2079698831159" xlink:href="#m5589bb6eb9" y="106.02977159102045"/>
    </g>
   </g>
   <g id="line2d_11">
    <path d="M 416.908065 88.453917 
L 456.770202 377.430262 
" style="fill:none;stroke:#ff00ff;stroke-linecap:square;stroke-width:1.5;"/>
    <g>
     <use style="fill:none;stroke:#ff00ff;stroke-linejoin:miter;stroke-width:1.5;" x="416.908064516129" xlink:href="#meb71e7699a" y="88.4539168593621"/>
     <use style="fill:none;stroke:#ff00ff;stroke-linejoin:miter;stroke-width:1.5;" x="456.77020161290324" xlink:href="#meb71e7699a" y="377.4302617390452"/>
    </g>
   </g>
   <g id="line2d_12">
    <path d="M 416.908065 384.9 
L 416.908065 11.413087 
" style="fill:none;stroke:#000000;stroke-linecap:square;"/>
   </g>
   <g id="patch_3">
    <path d="M 54.525 7.678218 
L 503.88 7.678218 
" style="fill:none;stroke:#000000;stroke-linecap:square;stroke-linejoin:miter;"/>
   </g>
   <g id="patch_4">
    <path d="M 503.88 384.9 
L 503.88 7.678218 
" style="fill:none;stroke:#000000;stroke-linecap:square;stroke-linejoin:miter;"/>
   </g>
   <g id="patch_5">
    <path d="M 54.525 384.9 
L 503.88 384.9 
" style="fill:none;stroke:#000000;stroke-linecap:square;stroke-linejoin:miter;"/>
   </g>
   <g id="patch_6">
    <path d="M 54.525 384.9 
L 54.525 7.678218 
" style="fill:none;stroke:#000000;stroke-linecap:square;stroke-linejoin:miter;"/>
   </g>
   <g id="matplotlib.axis_1">
    <g id="xtick_1">
     <g id="line2d_13">
      <path clip-path="url(#p9c2936c51e)" d="M 54.525 384.9 
L 54.525 7.678218 
" style="fill:none;stroke:#000000;stroke-dasharray:1.000000,3.000000;stroke-dashoffset:0.0;stroke-width:0.5;"/>
     </g>
     <g id="line2d_14">
      <defs>
       <path d="M 0 0 
L 0 -4 
" id="me1356ba6f6" style="stroke:#000000;stroke-width:0.5;"/>
      </defs>
      <g>
       <use style="stroke:#000000;stroke-width:0.5;" x="54.52500000000001" xlink:href="#me1356ba6f6" y="384.9"/>
      </g>
     </g>
     <g id="line2d_15">
      <defs>
       <path d="M 0 0 
L 0 4 
" id="m06f811b0f3" style="stroke:#000000;stroke-width:0.5;"/>
      </defs>
      <g>
       <use style="stroke:#000000;stroke-width:0.5;" x="54.52500000000001" xlink:href="#m06f811b0f3" y="7.678217821782141"/>
      </g>
     </g>
     <g id="text_1">
      <!-- 0 -->
      <defs>
       <path d="M 31.78125 66.40625 
Q 24.171875 66.40625 20.328125 58.90625 
Q 16.5 51.421875 16.5 36.375 
Q 16.5 21.390625 20.328125 13.890625 
Q 24.171875 6.390625 31.78125 6.390625 
Q 39.453125 6.390625 43.28125 13.890625 
Q 47.125 21.390625 47.125 36.375 
Q 47.125 51.421875 43.28125 58.90625 
Q 39.453125 66.40625 31.78125 66.40625 
M 31.78125 74.21875 
Q 44.046875 74.21875 50.515625 64.515625 
Q 56.984375 54.828125 56.984375 36.375 
Q 56.984375 17.96875 50.515625 8.265625 
Q 44.046875 -1.421875 31.78125 -1.421875 
Q 19.53125 -1.421875 13.0625 8.265625 
Q 6.59375 17.96875 6.59375 36.375 
Q 6.59375 54.828125 13.0625 64.515625 
Q 19.53125 74.21875 31.78125 74.21875 
" id="BitstreamVeraSans-Roman-30"/>
      </defs>
      <g transform="translate(48.16250000000001 404.09687499999995)scale(0.2 -0.2)">
       <use xlink:href="#BitstreamVeraSans-Roman-30"/>
      </g>
     </g>
    </g>
    <g id="xtick_2">
     <g id="line2d_16">
      <path clip-path="url(#p9c2936c51e)" d="M 106.294009 384.9 
L 106.294009 7.678218 
" style="fill:none;stroke:#000000;stroke-dasharray:1.000000,3.000000;stroke-dashoffset:0.0;stroke-width:0.5;"/>
     </g>
     <g id="line2d_17">
      <g>
       <use style="stroke:#000000;stroke-width:0.5;" x="106.29400921658987" xlink:href="#me1356ba6f6" y="384.9"/>
      </g>
     </g>
     <g id="line2d_18">
      <g>
       <use style="stroke:#000000;stroke-width:0.5;" x="106.29400921658987" xlink:href="#m06f811b0f3" y="7.678217821782141"/>
      </g>
     </g>
     <g id="text_2">
      <!-- 1 -->
      <defs>
       <path d="M 12.40625 8.296875 
L 28.515625 8.296875 
L 28.515625 63.921875 
L 10.984375 60.40625 
L 10.984375 69.390625 
L 28.421875 72.90625 
L 38.28125 72.90625 
L 38.28125 8.296875 
L 54.390625 8.296875 
L 54.390625 0 
L 12.40625 0 
z
" id="BitstreamVeraSans-Roman-31"/>
      </defs>
      <g transform="translate(99.93150921658987 404.09687499999995)scale(0.2 -0.2)">
       <use xlink:href="#BitstreamVeraSans-Roman-31"/>
      </g>
     </g>
    </g>
    <g id="xtick_3">
     <g id="line2d_19">
      <path clip-path="url(#p9c2936c51e)" d="M 158.063018 384.9 
L 158.063018 7.678218 
" style="fill:none;stroke:#000000;stroke-dasharray:1.000000,3.000000;stroke-dashoffset:0.0;stroke-width:0.5;"/>
     </g>
     <g id="line2d_20">
      <g>
       <use style="stroke:#000000;stroke-width:0.5;" x="158.0630184331797" xlink:href="#me1356ba6f6" y="384.9"/>
      </g>
     </g>
     <g id="line2d_21">
      <g>
       <use style="stroke:#000000;stroke-width:0.5;" x="158.0630184331797" xlink:href="#m06f811b0f3" y="7.678217821782141"/>
      </g>
     </g>
     <g id="text_3">
      <!-- 2 -->
      <defs>
       <path d="M 19.1875 8.296875 
L 53.609375 8.296875 
L 53.609375 0 
L 7.328125 0 
L 7.328125 8.296875 
Q 12.9375 14.109375 22.625 23.890625 
Q 32.328125 33.6875 34.8125 36.53125 
Q 39.546875 41.84375 41.421875 45.53125 
Q 43.3125 49.21875 43.3125 52.78125 
Q 43.3125 58.59375 39.234375 62.25 
Q 35.15625 65.921875 28.609375 65.921875 
Q 23.96875 65.921875 18.8125 64.3125 
Q 13.671875 62.703125 7.8125 59.421875 
L 7.8125 69.390625 
Q 13.765625 71.78125 18.9375 73 
Q 24.125 74.21875 28.421875 74.21875 
Q 39.75 74.21875 46.484375 68.546875 
Q 53.21875 62.890625 53.21875 53.421875 
Q 53.21875 48.921875 51.53125 44.890625 
Q 49.859375 40.875 45.40625 35.40625 
Q 44.1875 33.984375 37.640625 27.21875 
Q 31.109375 20.453125 19.1875 8.296875 
" id="BitstreamVeraSans-Roman-32"/>
      </defs>
      <g transform="translate(151.7005184331797 404.09687499999995)scale(0.2 -0.2)">
       <use xlink:href="#BitstreamVeraSans-Roman-32"/>
      </g>
     </g>
    </g>
    <g id="xtick_4">
     <g id="line2d_22">
      <path clip-path="url(#p9c2936c51e)" d="M 209.832028 384.9 
L 209.832028 7.678218 
" style="fill:none;stroke:#000000;stroke-dasharray:1.000000,3.000000;stroke-dashoffset:0.0;stroke-width:0.5;"/>
     </g>
     <g id="line2d_23">
      <g>
       <use style="stroke:#000000;stroke-width:0.5;" x="209.8320276497696" xlink:href="#me1356ba6f6" y="384.9"/>
      </g>
     </g>
     <g id="line2d_24">
      <g>
       <use style="stroke:#000000;stroke-width:0.5;" x="209.8320276497696" xlink:href="#m06f811b0f3" y="7.678217821782141"/>
      </g>
     </g>
     <g id="text_4">
      <!-- 3 -->
      <defs>
       <path d="M 40.578125 39.3125 
Q 47.65625 37.796875 51.625 33 
Q 55.609375 28.21875 55.609375 21.1875 
Q 55.609375 10.40625 48.1875 4.484375 
Q 40.765625 -1.421875 27.09375 -1.421875 
Q 22.515625 -1.421875 17.65625 -0.515625 
Q 12.796875 0.390625 7.625 2.203125 
L 7.625 11.71875 
Q 11.71875 9.328125 16.59375 8.109375 
Q 21.484375 6.890625 26.8125 6.890625 
Q 36.078125 6.890625 40.9375 10.546875 
Q 45.796875 14.203125 45.796875 21.1875 
Q 45.796875 27.640625 41.28125 31.265625 
Q 36.765625 34.90625 28.71875 34.90625 
L 20.21875 34.90625 
L 20.21875 43.015625 
L 29.109375 43.015625 
Q 36.375 43.015625 40.234375 45.921875 
Q 44.09375 48.828125 44.09375 54.296875 
Q 44.09375 59.90625 40.109375 62.90625 
Q 36.140625 65.921875 28.71875 65.921875 
Q 24.65625 65.921875 20.015625 65.03125 
Q 15.375 64.15625 9.8125 62.3125 
L 9.8125 71.09375 
Q 15.4375 72.65625 20.34375 73.4375 
Q 25.25 74.21875 29.59375 74.21875 
Q 40.828125 74.21875 47.359375 69.109375 
Q 53.90625 64.015625 53.90625 55.328125 
Q 53.90625 49.265625 50.4375 45.09375 
Q 46.96875 40.921875 40.578125 39.3125 
" id="BitstreamVeraSans-Roman-33"/>
      </defs>
      <g transform="translate(203.4695276497696 404.09687499999995)scale(0.2 -0.2)">
       <use xlink:href="#BitstreamVeraSans-Roman-33"/>
      </g>
     </g>
    </g>
    <g id="xtick_5">
     <g id="line2d_25">
      <path clip-path="url(#p9c2936c51e)" d="M 261.601037 384.9 
L 261.601037 7.678218 
" style="fill:none;stroke:#000000;stroke-dasharray:1.000000,3.000000;stroke-dashoffset:0.0;stroke-width:0.5;"/>
     </g>
     <g id="line2d_26">
      <g>
       <use style="stroke:#000000;stroke-width:0.5;" x="261.60103686635944" xlink:href="#me1356ba6f6" y="384.9"/>
      </g>
     </g>
     <g id="line2d_27">
      <g>
       <use style="stroke:#000000;stroke-width:0.5;" x="261.60103686635944" xlink:href="#m06f811b0f3" y="7.678217821782141"/>
      </g>
     </g>
     <g id="text_5">
      <!-- 4 -->
      <defs>
       <path d="M 37.796875 64.3125 
L 12.890625 25.390625 
L 37.796875 25.390625 
z
M 35.203125 72.90625 
L 47.609375 72.90625 
L 47.609375 25.390625 
L 58.015625 25.390625 
L 58.015625 17.1875 
L 47.609375 17.1875 
L 47.609375 0 
L 37.796875 0 
L 37.796875 17.1875 
L 4.890625 17.1875 
L 4.890625 26.703125 
z
" id="BitstreamVeraSans-Roman-34"/>
      </defs>
      <g transform="translate(255.23853686635942 404.09687499999995)scale(0.2 -0.2)">
       <use xlink:href="#BitstreamVeraSans-Roman-34"/>
      </g>
     </g>
    </g>
    <g id="xtick_6">
     <g id="line2d_28">
      <path clip-path="url(#p9c2936c51e)" d="M 313.370046 384.9 
L 313.370046 7.678218 
" style="fill:none;stroke:#000000;stroke-dasharray:1.000000,3.000000;stroke-dashoffset:0.0;stroke-width:0.5;"/>
     </g>
     <g id="line2d_29">
      <g>
       <use style="stroke:#000000;stroke-width:0.5;" x="313.3700460829493" xlink:href="#me1356ba6f6" y="384.9"/>
      </g>
     </g>
     <g id="line2d_30">
      <g>
       <use style="stroke:#000000;stroke-width:0.5;" x="313.3700460829493" xlink:href="#m06f811b0f3" y="7.678217821782141"/>
      </g>
     </g>
     <g id="text_6">
      <!-- 5 -->
      <defs>
       <path d="M 10.796875 72.90625 
L 49.515625 72.90625 
L 49.515625 64.59375 
L 19.828125 64.59375 
L 19.828125 46.734375 
Q 21.96875 47.46875 24.109375 47.828125 
Q 26.265625 48.1875 28.421875 48.1875 
Q 40.625 48.1875 47.75 41.5 
Q 54.890625 34.8125 54.890625 23.390625 
Q 54.890625 11.625 47.5625 5.09375 
Q 40.234375 -1.421875 26.90625 -1.421875 
Q 22.3125 -1.421875 17.546875 -0.640625 
Q 12.796875 0.140625 7.71875 1.703125 
L 7.71875 11.625 
Q 12.109375 9.234375 16.796875 8.0625 
Q 21.484375 6.890625 26.703125 6.890625 
Q 35.15625 6.890625 40.078125 11.328125 
Q 45.015625 15.765625 45.015625 23.390625 
Q 45.015625 31 40.078125 35.4375 
Q 35.15625 39.890625 26.703125 39.890625 
Q 22.75 39.890625 18.8125 39.015625 
Q 14.890625 38.140625 10.796875 36.28125 
z
" id="BitstreamVeraSans-Roman-35"/>
      </defs>
      <g transform="translate(307.00754608294926 404.09687499999995)scale(0.2 -0.2)">
       <use xlink:href="#BitstreamVeraSans-Roman-35"/>
      </g>
     </g>
    </g>
    <g id="xtick_7">
     <g id="line2d_31">
      <path clip-path="url(#p9c2936c51e)" d="M 365.139055 384.9 
L 365.139055 7.678218 
" style="fill:none;stroke:#000000;stroke-dasharray:1.000000,3.000000;stroke-dashoffset:0.0;stroke-width:0.5;"/>
     </g>
     <g id="line2d_32">
      <g>
       <use style="stroke:#000000;stroke-width:0.5;" x="365.13905529953917" xlink:href="#me1356ba6f6" y="384.9"/>
      </g>
     </g>
     <g id="line2d_33">
      <g>
       <use style="stroke:#000000;stroke-width:0.5;" x="365.13905529953917" xlink:href="#m06f811b0f3" y="7.678217821782141"/>
      </g>
     </g>
     <g id="text_7">
      <!-- 6 -->
      <defs>
       <path d="M 33.015625 40.375 
Q 26.375 40.375 22.484375 35.828125 
Q 18.609375 31.296875 18.609375 23.390625 
Q 18.609375 15.53125 22.484375 10.953125 
Q 26.375 6.390625 33.015625 6.390625 
Q 39.65625 6.390625 43.53125 10.953125 
Q 47.40625 15.53125 47.40625 23.390625 
Q 47.40625 31.296875 43.53125 35.828125 
Q 39.65625 40.375 33.015625 40.375 
M 52.59375 71.296875 
L 52.59375 62.3125 
Q 48.875 64.0625 45.09375 64.984375 
Q 41.3125 65.921875 37.59375 65.921875 
Q 27.828125 65.921875 22.671875 59.328125 
Q 17.53125 52.734375 16.796875 39.40625 
Q 19.671875 43.65625 24.015625 45.921875 
Q 28.375 48.1875 33.59375 48.1875 
Q 44.578125 48.1875 50.953125 41.515625 
Q 57.328125 34.859375 57.328125 23.390625 
Q 57.328125 12.15625 50.6875 5.359375 
Q 44.046875 -1.421875 33.015625 -1.421875 
Q 20.359375 -1.421875 13.671875 8.265625 
Q 6.984375 17.96875 6.984375 36.375 
Q 6.984375 53.65625 15.1875 63.9375 
Q 23.390625 74.21875 37.203125 74.21875 
Q 40.921875 74.21875 44.703125 73.484375 
Q 48.484375 72.75 52.59375 71.296875 
" id="BitstreamVeraSans-Roman-36"/>
      </defs>
      <g transform="translate(358.77655529953915 404.09687499999995)scale(0.2 -0.2)">
       <use xlink:href="#BitstreamVeraSans-Roman-36"/>
      </g>
     </g>
    </g>
    <g id="xtick_8">
     <g id="line2d_34">
      <path clip-path="url(#p9c2936c51e)" d="M 416.908065 384.9 
L 416.908065 7.678218 
" style="fill:none;stroke:#000000;stroke-dasharray:1.000000,3.000000;stroke-dashoffset:0.0;stroke-width:0.5;"/>
     </g>
     <g id="line2d_35">
      <g>
       <use style="stroke:#000000;stroke-width:0.5;" x="416.908064516129" xlink:href="#me1356ba6f6" y="384.9"/>
      </g>
     </g>
     <g id="line2d_36">
      <g>
       <use style="stroke:#000000;stroke-width:0.5;" x="416.908064516129" xlink:href="#m06f811b0f3" y="7.678217821782141"/>
      </g>
     </g>
     <g id="text_8">
      <!-- 7 -->
      <defs>
       <path d="M 8.203125 72.90625 
L 55.078125 72.90625 
L 55.078125 68.703125 
L 28.609375 0 
L 18.3125 0 
L 43.21875 64.59375 
L 8.203125 64.59375 
z
" id="BitstreamVeraSans-Roman-37"/>
      </defs>
      <g transform="translate(410.545564516129 404.09687499999995)scale(0.2 -0.2)">
       <use xlink:href="#BitstreamVeraSans-Roman-37"/>
      </g>
     </g>
    </g>
    <g id="xtick_9">
     <g id="line2d_37">
      <path clip-path="url(#p9c2936c51e)" d="M 468.677074 384.9 
L 468.677074 7.678218 
" style="fill:none;stroke:#000000;stroke-dasharray:1.000000,3.000000;stroke-dashoffset:0.0;stroke-width:0.5;"/>
     </g>
     <g id="line2d_38">
      <g>
       <use style="stroke:#000000;stroke-width:0.5;" x="468.67707373271884" xlink:href="#me1356ba6f6" y="384.9"/>
      </g>
     </g>
     <g id="line2d_39">
      <g>
       <use style="stroke:#000000;stroke-width:0.5;" x="468.67707373271884" xlink:href="#m06f811b0f3" y="7.678217821782141"/>
      </g>
     </g>
     <g id="text_9">
      <!-- 8 -->
      <defs>
       <path d="M 31.78125 34.625 
Q 24.75 34.625 20.71875 30.859375 
Q 16.703125 27.09375 16.703125 20.515625 
Q 16.703125 13.921875 20.71875 10.15625 
Q 24.75 6.390625 31.78125 6.390625 
Q 38.8125 6.390625 42.859375 10.171875 
Q 46.921875 13.96875 46.921875 20.515625 
Q 46.921875 27.09375 42.890625 30.859375 
Q 38.875 34.625 31.78125 34.625 
M 21.921875 38.8125 
Q 15.578125 40.375 12.03125 44.71875 
Q 8.5 49.078125 8.5 55.328125 
Q 8.5 64.0625 14.71875 69.140625 
Q 20.953125 74.21875 31.78125 74.21875 
Q 42.671875 74.21875 48.875 69.140625 
Q 55.078125 64.0625 55.078125 55.328125 
Q 55.078125 49.078125 51.53125 44.71875 
Q 48 40.375 41.703125 38.8125 
Q 48.828125 37.15625 52.796875 32.3125 
Q 56.78125 27.484375 56.78125 20.515625 
Q 56.78125 9.90625 50.3125 4.234375 
Q 43.84375 -1.421875 31.78125 -1.421875 
Q 19.734375 -1.421875 13.25 4.234375 
Q 6.78125 9.90625 6.78125 20.515625 
Q 6.78125 27.484375 10.78125 32.3125 
Q 14.796875 37.15625 21.921875 38.8125 
M 18.3125 54.390625 
Q 18.3125 48.734375 21.84375 45.5625 
Q 25.390625 42.390625 31.78125 42.390625 
Q 38.140625 42.390625 41.71875 45.5625 
Q 45.3125 48.734375 45.3125 54.390625 
Q 45.3125 60.0625 41.71875 63.234375 
Q 38.140625 66.40625 31.78125 66.40625 
Q 25.390625 66.40625 21.84375 63.234375 
Q 18.3125 60.0625 18.3125 54.390625 
" id="BitstreamVeraSans-Roman-38"/>
      </defs>
      <g transform="translate(462.3145737327188 404.09687499999995)scale(0.2 -0.2)">
       <use xlink:href="#BitstreamVeraSans-Roman-38"/>
      </g>
     </g>
    </g>
    <g id="xtick_10">
     <g id="line2d_40">
      <defs>
       <path d="M 0 0 
L 0 -2 
" id="m9f9018e96e" style="stroke:#000000;stroke-width:0.5;"/>
      </defs>
      <g>
       <use style="stroke:#000000;stroke-width:0.5;" x="70.10902461999866" xlink:href="#m9f9018e96e" y="384.9"/>
      </g>
     </g>
     <g id="line2d_41">
      <defs>
       <path d="M 0 0 
L 0 2 
" id="me3e411b124" style="stroke:#000000;stroke-width:0.5;"/>
      </defs>
      <g>
       <use style="stroke:#000000;stroke-width:0.5;" x="70.10902461999866" xlink:href="#me3e411b124" y="7.678217821782141"/>
      </g>
     </g>
    </g>
    <g id="xtick_11">
     <g id="line2d_42">
      <g>
       <use style="stroke:#000000;stroke-width:0.5;" x="85.69304923999731" xlink:href="#m9f9018e96e" y="384.9"/>
      </g>
     </g>
     <g id="line2d_43">
      <g>
       <use style="stroke:#000000;stroke-width:0.5;" x="85.69304923999731" xlink:href="#me3e411b124" y="7.678217821782141"/>
      </g>
     </g>
    </g>
    <g id="xtick_12">
     <g id="line2d_44">
      <g>
       <use style="stroke:#000000;stroke-width:0.5;" x="94.80911925301179" xlink:href="#m9f9018e96e" y="384.9"/>
      </g>
     </g>
     <g id="line2d_45">
      <g>
       <use style="stroke:#000000;stroke-width:0.5;" x="94.80911925301179" xlink:href="#me3e411b124" y="7.678217821782141"/>
      </g>
     </g>
    </g>
    <g id="xtick_13">
     <g id="line2d_46">
      <g>
       <use style="stroke:#000000;stroke-width:0.5;" x="101.27707385999595" xlink:href="#m9f9018e96e" y="384.9"/>
      </g>
     </g>
     <g id="line2d_47">
      <g>
       <use style="stroke:#000000;stroke-width:0.5;" x="101.27707385999595" xlink:href="#me3e411b124" y="7.678217821782141"/>
      </g>
     </g>
    </g>
    <g id="xtick_14">
     <g id="line2d_48">
      <g>
       <use style="stroke:#000000;stroke-width:0.5;" x="121.87803383658851" xlink:href="#m9f9018e96e" y="384.9"/>
      </g>
     </g>
     <g id="line2d_49">
      <g>
       <use style="stroke:#000000;stroke-width:0.5;" x="121.87803383658851" xlink:href="#me3e411b124" y="7.678217821782141"/>
      </g>
     </g>
    </g>
    <g id="xtick_15">
     <g id="line2d_50">
      <g>
       <use style="stroke:#000000;stroke-width:0.5;" x="137.46205845658716" xlink:href="#m9f9018e96e" y="384.9"/>
      </g>
     </g>
     <g id="line2d_51">
      <g>
       <use style="stroke:#000000;stroke-width:0.5;" x="137.46205845658716" xlink:href="#me3e411b124" y="7.678217821782141"/>
      </g>
     </g>
    </g>
    <g id="xtick_16">
     <g id="line2d_52">
      <g>
       <use style="stroke:#000000;stroke-width:0.5;" x="146.5781284696016" xlink:href="#m9f9018e96e" y="384.9"/>
      </g>
     </g>
     <g id="line2d_53">
      <g>
       <use style="stroke:#000000;stroke-width:0.5;" x="146.5781284696016" xlink:href="#me3e411b124" y="7.678217821782141"/>
      </g>
     </g>
    </g>
    <g id="xtick_17">
     <g id="line2d_54">
      <g>
       <use style="stroke:#000000;stroke-width:0.5;" x="153.04608307658583" xlink:href="#m9f9018e96e" y="384.9"/>
      </g>
     </g>
     <g id="line2d_55">
      <g>
       <use style="stroke:#000000;stroke-width:0.5;" x="153.04608307658583" xlink:href="#me3e411b124" y="7.678217821782141"/>
      </g>
     </g>
    </g>
    <g id="xtick_18">
     <g id="line2d_56">
      <g>
       <use style="stroke:#000000;stroke-width:0.5;" x="173.64704305317838" xlink:href="#m9f9018e96e" y="384.9"/>
      </g>
     </g>
     <g id="line2d_57">
      <g>
       <use style="stroke:#000000;stroke-width:0.5;" x="173.64704305317838" xlink:href="#me3e411b124" y="7.678217821782141"/>
      </g>
     </g>
    </g>
    <g id="xtick_19">
     <g id="line2d_58">
      <g>
       <use style="stroke:#000000;stroke-width:0.5;" x="189.23106767317705" xlink:href="#m9f9018e96e" y="384.9"/>
      </g>
     </g>
     <g id="line2d_59">
      <g>
       <use style="stroke:#000000;stroke-width:0.5;" x="189.23106767317705" xlink:href="#me3e411b124" y="7.678217821782141"/>
      </g>
     </g>
    </g>
    <g id="xtick_20">
     <g id="line2d_60">
      <g>
       <use style="stroke:#000000;stroke-width:0.5;" x="198.3471376861915" xlink:href="#m9f9018e96e" y="384.9"/>
      </g>
     </g>
     <g id="line2d_61">
      <g>
       <use style="stroke:#000000;stroke-width:0.5;" x="198.3471376861915" xlink:href="#me3e411b124" y="7.678217821782141"/>
      </g>
     </g>
    </g>
    <g id="xtick_21">
     <g id="line2d_62">
      <g>
       <use style="stroke:#000000;stroke-width:0.5;" x="204.81509229317567" xlink:href="#m9f9018e96e" y="384.9"/>
      </g>
     </g>
     <g id="line2d_63">
      <g>
       <use style="stroke:#000000;stroke-width:0.5;" x="204.81509229317567" xlink:href="#me3e411b124" y="7.678217821782141"/>
      </g>
     </g>
    </g>
    <g id="xtick_22">
     <g id="line2d_64">
      <g>
       <use style="stroke:#000000;stroke-width:0.5;" x="225.41605226976822" xlink:href="#m9f9018e96e" y="384.9"/>
      </g>
     </g>
     <g id="line2d_65">
      <g>
       <use style="stroke:#000000;stroke-width:0.5;" x="225.41605226976822" xlink:href="#me3e411b124" y="7.678217821782141"/>
      </g>
     </g>
    </g>
    <g id="xtick_23">
     <g id="line2d_66">
      <g>
       <use style="stroke:#000000;stroke-width:0.5;" x="241.0000768897669" xlink:href="#m9f9018e96e" y="384.9"/>
      </g>
     </g>
     <g id="line2d_67">
      <g>
       <use style="stroke:#000000;stroke-width:0.5;" x="241.0000768897669" xlink:href="#me3e411b124" y="7.678217821782141"/>
      </g>
     </g>
    </g>
    <g id="xtick_24">
     <g id="line2d_68">
      <g>
       <use style="stroke:#000000;stroke-width:0.5;" x="250.11614690278134" xlink:href="#m9f9018e96e" y="384.9"/>
      </g>
     </g>
     <g id="line2d_69">
      <g>
       <use style="stroke:#000000;stroke-width:0.5;" x="250.11614690278134" xlink:href="#me3e411b124" y="7.678217821782141"/>
      </g>
     </g>
    </g>
    <g id="xtick_25">
     <g id="line2d_70">
      <g>
       <use style="stroke:#000000;stroke-width:0.5;" x="256.58410150976556" xlink:href="#m9f9018e96e" y="384.9"/>
      </g>
     </g>
     <g id="line2d_71">
      <g>
       <use style="stroke:#000000;stroke-width:0.5;" x="256.58410150976556" xlink:href="#me3e411b124" y="7.678217821782141"/>
      </g>
     </g>
    </g>
    <g id="xtick_26">
     <g id="line2d_72">
      <g>
       <use style="stroke:#000000;stroke-width:0.5;" x="277.18506148635805" xlink:href="#m9f9018e96e" y="384.9"/>
      </g>
     </g>
     <g id="line2d_73">
      <g>
       <use style="stroke:#000000;stroke-width:0.5;" x="277.18506148635805" xlink:href="#me3e411b124" y="7.678217821782141"/>
      </g>
     </g>
    </g>
    <g id="xtick_27">
     <g id="line2d_74">
      <g>
       <use style="stroke:#000000;stroke-width:0.5;" x="292.7690861063567" xlink:href="#m9f9018e96e" y="384.9"/>
      </g>
     </g>
     <g id="line2d_75">
      <g>
       <use style="stroke:#000000;stroke-width:0.5;" x="292.7690861063567" xlink:href="#me3e411b124" y="7.678217821782141"/>
      </g>
     </g>
    </g>
    <g id="xtick_28">
     <g id="line2d_76">
      <g>
       <use style="stroke:#000000;stroke-width:0.5;" x="301.88515611937123" xlink:href="#m9f9018e96e" y="384.9"/>
      </g>
     </g>
     <g id="line2d_77">
      <g>
       <use style="stroke:#000000;stroke-width:0.5;" x="301.88515611937123" xlink:href="#me3e411b124" y="7.678217821782141"/>
      </g>
     </g>
    </g>
    <g id="xtick_29">
     <g id="line2d_78">
      <g>
       <use style="stroke:#000000;stroke-width:0.5;" x="308.3531107263554" xlink:href="#m9f9018e96e" y="384.9"/>
      </g>
     </g>
     <g id="line2d_79">
      <g>
       <use style="stroke:#000000;stroke-width:0.5;" x="308.3531107263554" xlink:href="#me3e411b124" y="7.678217821782141"/>
      </g>
     </g>
    </g>
    <g id="xtick_30">
     <g id="line2d_80">
      <g>
       <use style="stroke:#000000;stroke-width:0.5;" x="328.95407070294794" xlink:href="#m9f9018e96e" y="384.9"/>
      </g>
     </g>
     <g id="line2d_81">
      <g>
       <use style="stroke:#000000;stroke-width:0.5;" x="328.95407070294794" xlink:href="#me3e411b124" y="7.678217821782141"/>
      </g>
     </g>
    </g>
    <g id="xtick_31">
     <g id="line2d_82">
      <g>
       <use style="stroke:#000000;stroke-width:0.5;" x="344.53809532294656" xlink:href="#m9f9018e96e" y="384.9"/>
      </g>
     </g>
     <g id="line2d_83">
      <g>
       <use style="stroke:#000000;stroke-width:0.5;" x="344.53809532294656" xlink:href="#me3e411b124" y="7.678217821782141"/>
      </g>
     </g>
    </g>
    <g id="xtick_32">
     <g id="line2d_84">
      <g>
       <use style="stroke:#000000;stroke-width:0.5;" x="353.65416533596107" xlink:href="#m9f9018e96e" y="384.9"/>
      </g>
     </g>
     <g id="line2d_85">
      <g>
       <use style="stroke:#000000;stroke-width:0.5;" x="353.65416533596107" xlink:href="#me3e411b124" y="7.678217821782141"/>
      </g>
     </g>
    </g>
    <g id="xtick_33">
     <g id="line2d_86">
      <g>
       <use style="stroke:#000000;stroke-width:0.5;" x="360.12211994294523" xlink:href="#m9f9018e96e" y="384.9"/>
      </g>
     </g>
     <g id="line2d_87">
      <g>
       <use style="stroke:#000000;stroke-width:0.5;" x="360.12211994294523" xlink:href="#me3e411b124" y="7.678217821782141"/>
      </g>
     </g>
    </g>
    <g id="xtick_34">
     <g id="line2d_88">
      <g>
       <use style="stroke:#000000;stroke-width:0.5;" x="380.7230799195378" xlink:href="#m9f9018e96e" y="384.9"/>
      </g>
     </g>
     <g id="line2d_89">
      <g>
       <use style="stroke:#000000;stroke-width:0.5;" x="380.7230799195378" xlink:href="#me3e411b124" y="7.678217821782141"/>
      </g>
     </g>
    </g>
    <g id="xtick_35">
     <g id="line2d_90">
      <g>
       <use style="stroke:#000000;stroke-width:0.5;" x="396.30710453953645" xlink:href="#m9f9018e96e" y="384.9"/>
      </g>
     </g>
     <g id="line2d_91">
      <g>
       <use style="stroke:#000000;stroke-width:0.5;" x="396.30710453953645" xlink:href="#me3e411b124" y="7.678217821782141"/>
      </g>
     </g>
    </g>
    <g id="xtick_36">
     <g id="line2d_92">
      <g>
       <use style="stroke:#000000;stroke-width:0.5;" x="405.4231745525509" xlink:href="#m9f9018e96e" y="384.9"/>
      </g>
     </g>
     <g id="line2d_93">
      <g>
       <use style="stroke:#000000;stroke-width:0.5;" x="405.4231745525509" xlink:href="#me3e411b124" y="7.678217821782141"/>
      </g>
     </g>
    </g>
    <g id="xtick_37">
     <g id="line2d_94">
      <g>
       <use style="stroke:#000000;stroke-width:0.5;" x="411.89112915953507" xlink:href="#m9f9018e96e" y="384.9"/>
      </g>
     </g>
     <g id="line2d_95">
      <g>
       <use style="stroke:#000000;stroke-width:0.5;" x="411.89112915953507" xlink:href="#me3e411b124" y="7.678217821782141"/>
      </g>
     </g>
    </g>
    <g id="xtick_38">
     <g id="line2d_96">
      <g>
       <use style="stroke:#000000;stroke-width:0.5;" x="432.4920891361277" xlink:href="#m9f9018e96e" y="384.9"/>
      </g>
     </g>
     <g id="line2d_97">
      <g>
       <use style="stroke:#000000;stroke-width:0.5;" x="432.4920891361277" xlink:href="#me3e411b124" y="7.678217821782141"/>
      </g>
     </g>
    </g>
    <g id="xtick_39">
     <g id="line2d_98">
      <g>
       <use style="stroke:#000000;stroke-width:0.5;" x="448.0761137561263" xlink:href="#m9f9018e96e" y="384.9"/>
      </g>
     </g>
     <g id="line2d_99">
      <g>
       <use style="stroke:#000000;stroke-width:0.5;" x="448.0761137561263" xlink:href="#me3e411b124" y="7.678217821782141"/>
      </g>
     </g>
    </g>
    <g id="xtick_40">
     <g id="line2d_100">
      <g>
       <use style="stroke:#000000;stroke-width:0.5;" x="457.1921837691408" xlink:href="#m9f9018e96e" y="384.9"/>
      </g>
     </g>
     <g id="line2d_101">
      <g>
       <use style="stroke:#000000;stroke-width:0.5;" x="457.1921837691408" xlink:href="#me3e411b124" y="7.678217821782141"/>
      </g>
     </g>
    </g>
    <g id="xtick_41">
     <g id="line2d_102">
      <g>
       <use style="stroke:#000000;stroke-width:0.5;" x="463.66013837612496" xlink:href="#m9f9018e96e" y="384.9"/>
      </g>
     </g>
     <g id="line2d_103">
      <g>
       <use style="stroke:#000000;stroke-width:0.5;" x="463.66013837612496" xlink:href="#me3e411b124" y="7.678217821782141"/>
      </g>
     </g>
    </g>
    <g id="xtick_42">
     <g id="line2d_104">
      <g>
       <use style="stroke:#000000;stroke-width:0.5;" x="484.2610983527175" xlink:href="#m9f9018e96e" y="384.9"/>
      </g>
     </g>
     <g id="line2d_105">
      <g>
       <use style="stroke:#000000;stroke-width:0.5;" x="484.2610983527175" xlink:href="#me3e411b124" y="7.678217821782141"/>
      </g>
     </g>
    </g>
    <g id="xtick_43">
     <g id="line2d_106">
      <g>
       <use style="stroke:#000000;stroke-width:0.5;" x="499.8451229727162" xlink:href="#m9f9018e96e" y="384.9"/>
      </g>
     </g>
     <g id="line2d_107">
      <g>
       <use style="stroke:#000000;stroke-width:0.5;" x="499.8451229727162" xlink:href="#me3e411b124" y="7.678217821782141"/>
      </g>
     </g>
    </g>
    <g id="text_10">
     <!-- log10(# f-evals / dimension) -->
     <defs>
      <path id="BitstreamVeraSans-Roman-20"/>
      <path d="M 51.125 44 
L 36.921875 44 
L 32.8125 27.6875 
L 47.125 27.6875 
z
M 43.796875 71.78125 
L 38.71875 51.515625 
L 52.984375 51.515625 
L 58.109375 71.78125 
L 65.921875 71.78125 
L 60.890625 51.515625 
L 76.125 51.515625 
L 76.125 44 
L 58.984375 44 
L 54.984375 27.6875 
L 70.515625 27.6875 
L 70.515625 20.21875 
L 53.078125 20.21875 
L 48 0 
L 40.1875 0 
L 45.21875 20.21875 
L 30.90625 20.21875 
L 25.875 0 
L 18.015625 0 
L 23.09375 20.21875 
L 7.71875 20.21875 
L 7.71875 27.6875 
L 24.90625 27.6875 
L 29 44 
L 13.28125 44 
L 13.28125 51.515625 
L 30.90625 51.515625 
L 35.890625 71.78125 
z
" id="BitstreamVeraSans-Roman-23"/>
      <path d="M 52 44.1875 
Q 55.375 50.25 60.0625 53.125 
Q 64.75 56 71.09375 56 
Q 79.640625 56 84.28125 50.015625 
Q 88.921875 44.046875 88.921875 33.015625 
L 88.921875 0 
L 79.890625 0 
L 79.890625 32.71875 
Q 79.890625 40.578125 77.09375 44.375 
Q 74.3125 48.1875 68.609375 48.1875 
Q 61.625 48.1875 57.5625 43.546875 
Q 53.515625 38.921875 53.515625 30.90625 
L 53.515625 0 
L 44.484375 0 
L 44.484375 32.71875 
Q 44.484375 40.625 41.703125 44.40625 
Q 38.921875 48.1875 33.109375 48.1875 
Q 26.21875 48.1875 22.15625 43.53125 
Q 18.109375 38.875 18.109375 30.90625 
L 18.109375 0 
L 9.078125 0 
L 9.078125 54.6875 
L 18.109375 54.6875 
L 18.109375 46.1875 
Q 21.1875 51.21875 25.484375 53.609375 
Q 29.78125 56 35.6875 56 
Q 41.65625 56 45.828125 52.96875 
Q 50 49.953125 52 44.1875 
" id="BitstreamVeraSans-Roman-6d"/>
      <path d="M 54.890625 33.015625 
L 54.890625 0 
L 45.90625 0 
L 45.90625 32.71875 
Q 45.90625 40.484375 42.875 44.328125 
Q 39.84375 48.1875 33.796875 48.1875 
Q 26.515625 48.1875 22.3125 43.546875 
Q 18.109375 38.921875 18.109375 30.90625 
L 18.109375 0 
L 9.078125 0 
L 9.078125 54.6875 
L 18.109375 54.6875 
L 18.109375 46.1875 
Q 21.34375 51.125 25.703125 53.5625 
Q 30.078125 56 35.796875 56 
Q 45.21875 56 50.046875 50.171875 
Q 54.890625 44.34375 54.890625 33.015625 
" id="BitstreamVeraSans-Roman-6e"/>
      <path d="M 31 75.875 
Q 24.46875 64.65625 21.28125 53.65625 
Q 18.109375 42.671875 18.109375 31.390625 
Q 18.109375 20.125 21.3125 9.0625 
Q 24.515625 -2 31 -13.1875 
L 23.1875 -13.1875 
Q 15.875 -1.703125 12.234375 9.375 
Q 8.59375 20.453125 8.59375 31.390625 
Q 8.59375 42.28125 12.203125 53.3125 
Q 15.828125 64.359375 23.1875 75.875 
z
" id="BitstreamVeraSans-Roman-28"/>
      <path d="M 30.609375 48.390625 
Q 23.390625 48.390625 19.1875 42.75 
Q 14.984375 37.109375 14.984375 27.296875 
Q 14.984375 17.484375 19.15625 11.84375 
Q 23.34375 6.203125 30.609375 6.203125 
Q 37.796875 6.203125 41.984375 11.859375 
Q 46.1875 17.53125 46.1875 27.296875 
Q 46.1875 37.015625 41.984375 42.703125 
Q 37.796875 48.390625 30.609375 48.390625 
M 30.609375 56 
Q 42.328125 56 49.015625 48.375 
Q 55.71875 40.765625 55.71875 27.296875 
Q 55.71875 13.875 49.015625 6.21875 
Q 42.328125 -1.421875 30.609375 -1.421875 
Q 18.84375 -1.421875 12.171875 6.21875 
Q 5.515625 13.875 5.515625 27.296875 
Q 5.515625 40.765625 12.171875 48.375 
Q 18.84375 56 30.609375 56 
" id="BitstreamVeraSans-Roman-6f"/>
      <path d="M 9.421875 75.984375 
L 18.40625 75.984375 
L 18.40625 0 
L 9.421875 0 
z
" id="BitstreamVeraSans-Roman-6c"/>
      <path d="M 2.984375 54.6875 
L 12.5 54.6875 
L 29.59375 8.796875 
L 46.6875 54.6875 
L 56.203125 54.6875 
L 35.6875 0 
L 23.484375 0 
z
" id="BitstreamVeraSans-Roman-76"/>
      <path d="M 9.421875 54.6875 
L 18.40625 54.6875 
L 18.40625 0 
L 9.421875 0 
z
M 9.421875 75.984375 
L 18.40625 75.984375 
L 18.40625 64.59375 
L 9.421875 64.59375 
z
" id="BitstreamVeraSans-Roman-69"/>
      <path d="M 4.890625 31.390625 
L 31.203125 31.390625 
L 31.203125 23.390625 
L 4.890625 23.390625 
z
" id="BitstreamVeraSans-Roman-2d"/>
      <path d="M 25.390625 72.90625 
L 33.6875 72.90625 
L 8.296875 -9.28125 
L 0 -9.28125 
z
" id="BitstreamVeraSans-Roman-2f"/>
      <path d="M 56.203125 29.59375 
L 56.203125 25.203125 
L 14.890625 25.203125 
Q 15.484375 15.921875 20.484375 11.0625 
Q 25.484375 6.203125 34.421875 6.203125 
Q 39.59375 6.203125 44.453125 7.46875 
Q 49.3125 8.734375 54.109375 11.28125 
L 54.109375 2.78125 
Q 49.265625 0.734375 44.1875 -0.34375 
Q 39.109375 -1.421875 33.890625 -1.421875 
Q 20.796875 -1.421875 13.15625 6.1875 
Q 5.515625 13.8125 5.515625 26.8125 
Q 5.515625 40.234375 12.765625 48.109375 
Q 20.015625 56 32.328125 56 
Q 43.359375 56 49.78125 48.890625 
Q 56.203125 41.796875 56.203125 29.59375 
M 47.21875 32.234375 
Q 47.125 39.59375 43.09375 43.984375 
Q 39.0625 48.390625 32.421875 48.390625 
Q 24.90625 48.390625 20.390625 44.140625 
Q 15.875 39.890625 15.1875 32.171875 
z
" id="BitstreamVeraSans-Roman-65"/>
      <path d="M 45.40625 46.390625 
L 45.40625 75.984375 
L 54.390625 75.984375 
L 54.390625 0 
L 45.40625 0 
L 45.40625 8.203125 
Q 42.578125 3.328125 38.25 0.953125 
Q 33.9375 -1.421875 27.875 -1.421875 
Q 17.96875 -1.421875 11.734375 6.484375 
Q 5.515625 14.40625 5.515625 27.296875 
Q 5.515625 40.1875 11.734375 48.09375 
Q 17.96875 56 27.875 56 
Q 33.9375 56 38.25 53.625 
Q 42.578125 51.265625 45.40625 46.390625 
M 14.796875 27.296875 
Q 14.796875 17.390625 18.875 11.75 
Q 22.953125 6.109375 30.078125 6.109375 
Q 37.203125 6.109375 41.296875 11.75 
Q 45.40625 17.390625 45.40625 27.296875 
Q 45.40625 37.203125 41.296875 42.84375 
Q 37.203125 48.484375 30.078125 48.484375 
Q 22.953125 48.484375 18.875 42.84375 
Q 14.796875 37.203125 14.796875 27.296875 
" id="BitstreamVeraSans-Roman-64"/>
      <path d="M 45.40625 27.984375 
Q 45.40625 37.75 41.375 43.109375 
Q 37.359375 48.484375 30.078125 48.484375 
Q 22.859375 48.484375 18.828125 43.109375 
Q 14.796875 37.75 14.796875 27.984375 
Q 14.796875 18.265625 18.828125 12.890625 
Q 22.859375 7.515625 30.078125 7.515625 
Q 37.359375 7.515625 41.375 12.890625 
Q 45.40625 18.265625 45.40625 27.984375 
M 54.390625 6.78125 
Q 54.390625 -7.171875 48.1875 -13.984375 
Q 42 -20.796875 29.203125 -20.796875 
Q 24.46875 -20.796875 20.265625 -20.09375 
Q 16.0625 -19.390625 12.109375 -17.921875 
L 12.109375 -9.1875 
Q 16.0625 -11.328125 19.921875 -12.34375 
Q 23.78125 -13.375 27.78125 -13.375 
Q 36.625 -13.375 41.015625 -8.765625 
Q 45.40625 -4.15625 45.40625 5.171875 
L 45.40625 9.625 
Q 42.625 4.78125 38.28125 2.390625 
Q 33.9375 0 27.875 0 
Q 17.828125 0 11.671875 7.65625 
Q 5.515625 15.328125 5.515625 27.984375 
Q 5.515625 40.671875 11.671875 48.328125 
Q 17.828125 56 27.875 56 
Q 33.9375 56 38.28125 53.609375 
Q 42.625 51.21875 45.40625 46.390625 
L 45.40625 54.6875 
L 54.390625 54.6875 
z
" id="BitstreamVeraSans-Roman-67"/>
      <path d="M 37.109375 75.984375 
L 37.109375 68.5 
L 28.515625 68.5 
Q 23.6875 68.5 21.796875 66.546875 
Q 19.921875 64.59375 19.921875 59.515625 
L 19.921875 54.6875 
L 34.71875 54.6875 
L 34.71875 47.703125 
L 19.921875 47.703125 
L 19.921875 0 
L 10.890625 0 
L 10.890625 47.703125 
L 2.296875 47.703125 
L 2.296875 54.6875 
L 10.890625 54.6875 
L 10.890625 58.5 
Q 10.890625 67.625 15.140625 71.796875 
Q 19.390625 75.984375 28.609375 75.984375 
z
" id="BitstreamVeraSans-Roman-66"/>
      <path d="M 34.28125 27.484375 
Q 23.390625 27.484375 19.1875 25 
Q 14.984375 22.515625 14.984375 16.5 
Q 14.984375 11.71875 18.140625 8.90625 
Q 21.296875 6.109375 26.703125 6.109375 
Q 34.1875 6.109375 38.703125 11.40625 
Q 43.21875 16.703125 43.21875 25.484375 
L 43.21875 27.484375 
z
M 52.203125 31.203125 
L 52.203125 0 
L 43.21875 0 
L 43.21875 8.296875 
Q 40.140625 3.328125 35.546875 0.953125 
Q 30.953125 -1.421875 24.3125 -1.421875 
Q 15.921875 -1.421875 10.953125 3.296875 
Q 6 8.015625 6 15.921875 
Q 6 25.140625 12.171875 29.828125 
Q 18.359375 34.515625 30.609375 34.515625 
L 43.21875 34.515625 
L 43.21875 35.40625 
Q 43.21875 41.609375 39.140625 45 
Q 35.0625 48.390625 27.6875 48.390625 
Q 23 48.390625 18.546875 47.265625 
Q 14.109375 46.140625 10.015625 43.890625 
L 10.015625 52.203125 
Q 14.9375 54.109375 19.578125 55.046875 
Q 24.21875 56 28.609375 56 
Q 40.484375 56 46.34375 49.84375 
Q 52.203125 43.703125 52.203125 31.203125 
" id="BitstreamVeraSans-Roman-61"/>
      <path d="M 44.28125 53.078125 
L 44.28125 44.578125 
Q 40.484375 46.53125 36.375 47.5 
Q 32.28125 48.484375 27.875 48.484375 
Q 21.1875 48.484375 17.84375 46.4375 
Q 14.5 44.390625 14.5 40.28125 
Q 14.5 37.15625 16.890625 35.375 
Q 19.28125 33.59375 26.515625 31.984375 
L 29.59375 31.296875 
Q 39.15625 29.25 43.1875 25.515625 
Q 47.21875 21.78125 47.21875 15.09375 
Q 47.21875 7.46875 41.1875 3.015625 
Q 35.15625 -1.421875 24.609375 -1.421875 
Q 20.21875 -1.421875 15.453125 -0.5625 
Q 10.6875 0.296875 5.421875 2 
L 5.421875 11.28125 
Q 10.40625 8.6875 15.234375 7.390625 
Q 20.0625 6.109375 24.8125 6.109375 
Q 31.15625 6.109375 34.5625 8.28125 
Q 37.984375 10.453125 37.984375 14.40625 
Q 37.984375 18.0625 35.515625 20.015625 
Q 33.0625 21.96875 24.703125 23.78125 
L 21.578125 24.515625 
Q 13.234375 26.265625 9.515625 29.90625 
Q 5.8125 33.546875 5.8125 39.890625 
Q 5.8125 47.609375 11.28125 51.796875 
Q 16.75 56 26.8125 56 
Q 31.78125 56 36.171875 55.265625 
Q 40.578125 54.546875 44.28125 53.078125 
" id="BitstreamVeraSans-Roman-73"/>
      <path d="M 8.015625 75.875 
L 15.828125 75.875 
Q 23.140625 64.359375 26.78125 53.3125 
Q 30.421875 42.28125 30.421875 31.390625 
Q 30.421875 20.453125 26.78125 9.375 
Q 23.140625 -1.703125 15.828125 -13.1875 
L 8.015625 -13.1875 
Q 14.5 -2 17.703125 9.0625 
Q 20.90625 20.125 20.90625 31.390625 
Q 20.90625 42.671875 17.703125 53.65625 
Q 14.5 64.65625 8.015625 75.875 
" id="BitstreamVeraSans-Roman-29"/>
     </defs>
     <g transform="translate(158.36171874999997 426.17359374999995)scale(0.17 -0.17)">
      <use xlink:href="#BitstreamVeraSans-Roman-6c"/>
      <use x="27.783203125" xlink:href="#BitstreamVeraSans-Roman-6f"/>
      <use x="88.96484375" xlink:href="#BitstreamVeraSans-Roman-67"/>
      <use x="152.44140625" xlink:href="#BitstreamVeraSans-Roman-31"/>
      <use x="216.064453125" xlink:href="#BitstreamVeraSans-Roman-30"/>
      <use x="279.6875" xlink:href="#BitstreamVeraSans-Roman-28"/>
      <use x="318.701171875" xlink:href="#BitstreamVeraSans-Roman-23"/>
      <use x="402.490234375" xlink:href="#BitstreamVeraSans-Roman-20"/>
      <use x="434.27734375" xlink:href="#BitstreamVeraSans-Roman-66"/>
      <use x="469.404296875" xlink:href="#BitstreamVeraSans-Roman-2d"/>
      <use x="505.48828125" xlink:href="#BitstreamVeraSans-Roman-65"/>
      <use x="567.01171875" xlink:href="#BitstreamVeraSans-Roman-76"/>
      <use x="626.19140625" xlink:href="#BitstreamVeraSans-Roman-61"/>
      <use x="687.470703125" xlink:href="#BitstreamVeraSans-Roman-6c"/>
      <use x="715.25390625" xlink:href="#BitstreamVeraSans-Roman-73"/>
      <use x="767.353515625" xlink:href="#BitstreamVeraSans-Roman-20"/>
      <use x="799.140625" xlink:href="#BitstreamVeraSans-Roman-2f"/>
      <use x="832.83203125" xlink:href="#BitstreamVeraSans-Roman-20"/>
      <use x="864.619140625" xlink:href="#BitstreamVeraSans-Roman-64"/>
      <use x="928.095703125" xlink:href="#BitstreamVeraSans-Roman-69"/>
      <use x="955.87890625" xlink:href="#BitstreamVeraSans-Roman-6d"/>
      <use x="1053.29101562" xlink:href="#BitstreamVeraSans-Roman-65"/>
      <use x="1114.81445312" xlink:href="#BitstreamVeraSans-Roman-6e"/>
      <use x="1178.19335938" xlink:href="#BitstreamVeraSans-Roman-73"/>
      <use x="1230.29296875" xlink:href="#BitstreamVeraSans-Roman-69"/>
      <use x="1258.07617188" xlink:href="#BitstreamVeraSans-Roman-6f"/>
      <use x="1319.2578125" xlink:href="#BitstreamVeraSans-Roman-6e"/>
      <use x="1382.63671875" xlink:href="#BitstreamVeraSans-Roman-29"/>
     </g>
    </g>
   </g>
   <g id="matplotlib.axis_2">
    <g id="ytick_1">
     <g id="line2d_108">
      <path clip-path="url(#p9c2936c51e)" d="M 54.525 384.9 
L 503.88 384.9 
" style="fill:none;stroke:#000000;stroke-dasharray:1.000000,3.000000;stroke-dashoffset:0.0;stroke-width:0.5;"/>
     </g>
     <g id="line2d_109">
      <defs>
       <path d="M 0 0 
L 4 0 
" id="m61a3d2dcb7" style="stroke:#000000;stroke-width:0.5;"/>
      </defs>
      <g>
       <use style="stroke:#000000;stroke-width:0.5;" x="54.52500000000001" xlink:href="#m61a3d2dcb7" y="384.9"/>
      </g>
     </g>
     <g id="line2d_110">
      <defs>
       <path d="M 0 0 
L -4 0 
" id="m78f61e8ab9" style="stroke:#000000;stroke-width:0.5;"/>
      </defs>
      <g>
       <use style="stroke:#000000;stroke-width:0.5;" x="503.88" xlink:href="#m78f61e8ab9" y="384.9"/>
      </g>
     </g>
     <g id="text_11">
      <!-- 0.0 -->
      <defs>
       <path d="M 10.6875 12.40625 
L 21 12.40625 
L 21 0 
L 10.6875 0 
z
" id="BitstreamVeraSans-Roman-2e"/>
      </defs>
      <g transform="translate(25.080000000000013 389.315)scale(0.16 -0.16)">
       <use xlink:href="#BitstreamVeraSans-Roman-30"/>
       <use x="63.623046875" xlink:href="#BitstreamVeraSans-Roman-2e"/>
       <use x="95.41015625" xlink:href="#BitstreamVeraSans-Roman-30"/>
      </g>
     </g>
    </g>
    <g id="ytick_2">
     <g id="line2d_111">
      <path clip-path="url(#p9c2936c51e)" d="M 54.525 310.202617 
L 503.88 310.202617 
" style="fill:none;stroke:#000000;stroke-dasharray:1.000000,3.000000;stroke-dashoffset:0.0;stroke-width:0.5;"/>
     </g>
     <g id="line2d_112">
      <g>
       <use style="stroke:#000000;stroke-width:0.5;" x="54.52500000000001" xlink:href="#m61a3d2dcb7" y="310.2026173904519"/>
      </g>
     </g>
     <g id="line2d_113">
      <g>
       <use style="stroke:#000000;stroke-width:0.5;" x="503.88" xlink:href="#m78f61e8ab9" y="310.2026173904519"/>
      </g>
     </g>
     <g id="text_12">
      <!-- 0.2 -->
      <g transform="translate(25.080000000000013 314.61761739045187)scale(0.16 -0.16)">
       <use xlink:href="#BitstreamVeraSans-Roman-30"/>
       <use x="63.623046875" xlink:href="#BitstreamVeraSans-Roman-2e"/>
       <use x="95.41015625" xlink:href="#BitstreamVeraSans-Roman-32"/>
      </g>
     </g>
    </g>
    <g id="ytick_3">
     <g id="line2d_114">
      <path clip-path="url(#p9c2936c51e)" d="M 54.525 235.505235 
L 503.88 235.505235 
" style="fill:none;stroke:#000000;stroke-dasharray:1.000000,3.000000;stroke-dashoffset:0.0;stroke-width:0.5;"/>
     </g>
     <g id="line2d_115">
      <g>
       <use style="stroke:#000000;stroke-width:0.5;" x="54.52500000000001" xlink:href="#m61a3d2dcb7" y="235.5052347809038"/>
      </g>
     </g>
     <g id="line2d_116">
      <g>
       <use style="stroke:#000000;stroke-width:0.5;" x="503.88" xlink:href="#m78f61e8ab9" y="235.5052347809038"/>
      </g>
     </g>
     <g id="text_13">
      <!-- 0.4 -->
      <g transform="translate(25.080000000000013 239.9202347809038)scale(0.16 -0.16)">
       <use xlink:href="#BitstreamVeraSans-Roman-30"/>
       <use x="63.623046875" xlink:href="#BitstreamVeraSans-Roman-2e"/>
       <use x="95.41015625" xlink:href="#BitstreamVeraSans-Roman-34"/>
      </g>
     </g>
    </g>
    <g id="ytick_4">
     <g id="line2d_117">
      <path clip-path="url(#p9c2936c51e)" d="M 54.525 160.807852 
L 503.88 160.807852 
" style="fill:none;stroke:#000000;stroke-dasharray:1.000000,3.000000;stroke-dashoffset:0.0;stroke-width:0.5;"/>
     </g>
     <g id="line2d_118">
      <g>
       <use style="stroke:#000000;stroke-width:0.5;" x="54.52500000000001" xlink:href="#m61a3d2dcb7" y="160.8078521713557"/>
      </g>
     </g>
     <g id="line2d_119">
      <g>
       <use style="stroke:#000000;stroke-width:0.5;" x="503.88" xlink:href="#m78f61e8ab9" y="160.8078521713557"/>
      </g>
     </g>
     <g id="text_14">
      <!-- 0.6 -->
      <g transform="translate(25.080000000000013 165.22285217135573)scale(0.16 -0.16)">
       <use xlink:href="#BitstreamVeraSans-Roman-30"/>
       <use x="63.623046875" xlink:href="#BitstreamVeraSans-Roman-2e"/>
       <use x="95.41015625" xlink:href="#BitstreamVeraSans-Roman-36"/>
      </g>
     </g>
    </g>
    <g id="ytick_5">
     <g id="line2d_120">
      <path clip-path="url(#p9c2936c51e)" d="M 54.525 86.11047 
L 503.88 86.11047 
" style="fill:none;stroke:#000000;stroke-dasharray:1.000000,3.000000;stroke-dashoffset:0.0;stroke-width:0.5;"/>
     </g>
     <g id="line2d_121">
      <g>
       <use style="stroke:#000000;stroke-width:0.5;" x="54.52500000000001" xlink:href="#m61a3d2dcb7" y="86.11046956180763"/>
      </g>
     </g>
     <g id="line2d_122">
      <g>
       <use style="stroke:#000000;stroke-width:0.5;" x="503.88" xlink:href="#m78f61e8ab9" y="86.11046956180763"/>
      </g>
     </g>
     <g id="text_15">
      <!-- 0.8 -->
      <g transform="translate(25.080000000000013 90.52546956180765)scale(0.16 -0.16)">
       <use xlink:href="#BitstreamVeraSans-Roman-30"/>
       <use x="63.623046875" xlink:href="#BitstreamVeraSans-Roman-2e"/>
       <use x="95.41015625" xlink:href="#BitstreamVeraSans-Roman-38"/>
      </g>
     </g>
    </g>
    <g id="ytick_6">
     <g id="line2d_123">
      <path clip-path="url(#p9c2936c51e)" d="M 54.525 11.413087 
L 503.88 11.413087 
" style="fill:none;stroke:#000000;stroke-dasharray:1.000000,3.000000;stroke-dashoffset:0.0;stroke-width:0.5;"/>
     </g>
     <g id="line2d_124">
      <g>
       <use style="stroke:#000000;stroke-width:0.5;" x="54.52500000000001" xlink:href="#m61a3d2dcb7" y="11.413086952259562"/>
      </g>
     </g>
     <g id="line2d_125">
      <g>
       <use style="stroke:#000000;stroke-width:0.5;" x="503.88" xlink:href="#m78f61e8ab9" y="11.413086952259562"/>
      </g>
     </g>
     <g id="text_16">
      <!-- 1.0 -->
      <g transform="translate(25.080000000000013 15.828086952259582)scale(0.16 -0.16)">
       <use xlink:href="#BitstreamVeraSans-Roman-31"/>
       <use x="63.623046875" xlink:href="#BitstreamVeraSans-Roman-2e"/>
       <use x="95.41015625" xlink:href="#BitstreamVeraSans-Roman-30"/>
      </g>
     </g>
    </g>
    <g id="text_17">
     <!-- Fraction of function,target pairs -->
     <defs>
      <path d="M 9.8125 72.90625 
L 51.703125 72.90625 
L 51.703125 64.59375 
L 19.671875 64.59375 
L 19.671875 43.109375 
L 48.578125 43.109375 
L 48.578125 34.8125 
L 19.671875 34.8125 
L 19.671875 0 
L 9.8125 0 
z
" id="BitstreamVeraSans-Roman-46"/>
      <path d="M 11.71875 12.40625 
L 22.015625 12.40625 
L 22.015625 4 
L 14.015625 -11.625 
L 7.71875 -11.625 
L 11.71875 4 
z
" id="BitstreamVeraSans-Roman-2c"/>
      <path d="M 18.109375 8.203125 
L 18.109375 -20.796875 
L 9.078125 -20.796875 
L 9.078125 54.6875 
L 18.109375 54.6875 
L 18.109375 46.390625 
Q 20.953125 51.265625 25.265625 53.625 
Q 29.59375 56 35.59375 56 
Q 45.5625 56 51.78125 48.09375 
Q 58.015625 40.1875 58.015625 27.296875 
Q 58.015625 14.40625 51.78125 6.484375 
Q 45.5625 -1.421875 35.59375 -1.421875 
Q 29.59375 -1.421875 25.265625 0.953125 
Q 20.953125 3.328125 18.109375 8.203125 
M 48.6875 27.296875 
Q 48.6875 37.203125 44.609375 42.84375 
Q 40.53125 48.484375 33.40625 48.484375 
Q 26.265625 48.484375 22.1875 42.84375 
Q 18.109375 37.203125 18.109375 27.296875 
Q 18.109375 17.390625 22.1875 11.75 
Q 26.265625 6.109375 33.40625 6.109375 
Q 40.53125 6.109375 44.609375 11.75 
Q 48.6875 17.390625 48.6875 27.296875 
" id="BitstreamVeraSans-Roman-70"/>
      <path d="M 18.3125 70.21875 
L 18.3125 54.6875 
L 36.8125 54.6875 
L 36.8125 47.703125 
L 18.3125 47.703125 
L 18.3125 18.015625 
Q 18.3125 11.328125 20.140625 9.421875 
Q 21.96875 7.515625 27.59375 7.515625 
L 36.8125 7.515625 
L 36.8125 0 
L 27.59375 0 
Q 17.1875 0 13.234375 3.875 
Q 9.28125 7.765625 9.28125 18.015625 
L 9.28125 47.703125 
L 2.6875 47.703125 
L 2.6875 54.6875 
L 9.28125 54.6875 
L 9.28125 70.21875 
z
" id="BitstreamVeraSans-Roman-74"/>
      <path d="M 8.5 21.578125 
L 8.5 54.6875 
L 17.484375 54.6875 
L 17.484375 21.921875 
Q 17.484375 14.15625 20.5 10.265625 
Q 23.53125 6.390625 29.59375 6.390625 
Q 36.859375 6.390625 41.078125 11.03125 
Q 45.3125 15.671875 45.3125 23.6875 
L 45.3125 54.6875 
L 54.296875 54.6875 
L 54.296875 0 
L 45.3125 0 
L 45.3125 8.40625 
Q 42.046875 3.421875 37.71875 1 
Q 33.40625 -1.421875 27.6875 -1.421875 
Q 18.265625 -1.421875 13.375 4.4375 
Q 8.5 10.296875 8.5 21.578125 
" id="BitstreamVeraSans-Roman-75"/>
      <path d="M 41.109375 46.296875 
Q 39.59375 47.171875 37.8125 47.578125 
Q 36.03125 48 33.890625 48 
Q 26.265625 48 22.1875 43.046875 
Q 18.109375 38.09375 18.109375 28.8125 
L 18.109375 0 
L 9.078125 0 
L 9.078125 54.6875 
L 18.109375 54.6875 
L 18.109375 46.1875 
Q 20.953125 51.171875 25.484375 53.578125 
Q 30.03125 56 36.53125 56 
Q 37.453125 56 38.578125 55.875 
Q 39.703125 55.765625 41.0625 55.515625 
z
" id="BitstreamVeraSans-Roman-72"/>
      <path d="M 48.78125 52.59375 
L 48.78125 44.1875 
Q 44.96875 46.296875 41.140625 47.34375 
Q 37.3125 48.390625 33.40625 48.390625 
Q 24.65625 48.390625 19.8125 42.84375 
Q 14.984375 37.3125 14.984375 27.296875 
Q 14.984375 17.28125 19.8125 11.734375 
Q 24.65625 6.203125 33.40625 6.203125 
Q 37.3125 6.203125 41.140625 7.25 
Q 44.96875 8.296875 48.78125 10.40625 
L 48.78125 2.09375 
Q 45.015625 0.34375 40.984375 -0.53125 
Q 36.96875 -1.421875 32.421875 -1.421875 
Q 20.0625 -1.421875 12.78125 6.34375 
Q 5.515625 14.109375 5.515625 27.296875 
Q 5.515625 40.671875 12.859375 48.328125 
Q 20.21875 56 33.015625 56 
Q 37.15625 56 41.109375 55.140625 
Q 45.0625 54.296875 48.78125 52.59375 
" id="BitstreamVeraSans-Roman-63"/>
     </defs>
     <g transform="translate(16.544531250000006 331.42848391089103)rotate(-90.0)scale(0.17 -0.17)">
      <use xlink:href="#BitstreamVeraSans-Roman-46"/>
      <use x="57.41015625" xlink:href="#BitstreamVeraSans-Roman-72"/>
      <use x="98.5234375" xlink:href="#BitstreamVeraSans-Roman-61"/>
      <use x="159.802734375" xlink:href="#BitstreamVeraSans-Roman-63"/>
      <use x="214.783203125" xlink:href="#BitstreamVeraSans-Roman-74"/>
      <use x="253.9921875" xlink:href="#BitstreamVeraSans-Roman-69"/>
      <use x="281.775390625" xlink:href="#BitstreamVeraSans-Roman-6f"/>
      <use x="342.95703125" xlink:href="#BitstreamVeraSans-Roman-6e"/>
      <use x="406.3359375" xlink:href="#BitstreamVeraSans-Roman-20"/>
      <use x="438.123046875" xlink:href="#BitstreamVeraSans-Roman-6f"/>
      <use x="499.3046875" xlink:href="#BitstreamVeraSans-Roman-66"/>
      <use x="534.509765625" xlink:href="#BitstreamVeraSans-Roman-20"/>
      <use x="566.296875" xlink:href="#BitstreamVeraSans-Roman-66"/>
      <use x="601.501953125" xlink:href="#BitstreamVeraSans-Roman-75"/>
      <use x="664.880859375" xlink:href="#BitstreamVeraSans-Roman-6e"/>
      <use x="728.259765625" xlink:href="#BitstreamVeraSans-Roman-63"/>
      <use x="783.240234375" xlink:href="#BitstreamVeraSans-Roman-74"/>
      <use x="822.44921875" xlink:href="#BitstreamVeraSans-Roman-69"/>
      <use x="850.232421875" xlink:href="#BitstreamVeraSans-Roman-6f"/>
      <use x="911.4140625" xlink:href="#BitstreamVeraSans-Roman-6e"/>
      <use x="974.79296875" xlink:href="#BitstreamVeraSans-Roman-2c"/>
      <use x="1006.58007812" xlink:href="#BitstreamVeraSans-Roman-74"/>
      <use x="1045.7890625" xlink:href="#BitstreamVeraSans-Roman-61"/>
      <use x="1107.06835938" xlink:href="#BitstreamVeraSans-Roman-72"/>
      <use x="1148.16601562" xlink:href="#BitstreamVeraSans-Roman-67"/>
      <use x="1211.64257812" xlink:href="#BitstreamVeraSans-Roman-65"/>
      <use x="1273.16601562" xlink:href="#BitstreamVeraSans-Roman-74"/>
      <use x="1312.375" xlink:href="#BitstreamVeraSans-Roman-20"/>
      <use x="1344.16210938" xlink:href="#BitstreamVeraSans-Roman-70"/>
      <use x="1407.63867188" xlink:href="#BitstreamVeraSans-Roman-61"/>
      <use x="1468.91796875" xlink:href="#BitstreamVeraSans-Roman-69"/>
      <use x="1496.70117188" xlink:href="#BitstreamVeraSans-Roman-72"/>
      <use x="1537.81445312" xlink:href="#BitstreamVeraSans-Roman-73"/>
     </g>
    </g>
   </g>
   <g id="text_18">
    <!-- DES -->
    <defs>
     <path d="M 9.8125 72.90625 
L 55.90625 72.90625 
L 55.90625 64.59375 
L 19.671875 64.59375 
L 19.671875 43.015625 
L 54.390625 43.015625 
L 54.390625 34.71875 
L 19.671875 34.71875 
L 19.671875 8.296875 
L 56.78125 8.296875 
L 56.78125 0 
L 9.8125 0 
z
" id="BitstreamVeraSans-Roman-45"/>
     <path d="M 19.671875 64.796875 
L 19.671875 8.109375 
L 31.59375 8.109375 
Q 46.6875 8.109375 53.6875 14.9375 
Q 60.6875 21.78125 60.6875 36.53125 
Q 60.6875 51.171875 53.6875 57.984375 
Q 46.6875 64.796875 31.59375 64.796875 
z
M 9.8125 72.90625 
L 30.078125 72.90625 
Q 51.265625 72.90625 61.171875 64.09375 
Q 71.09375 55.28125 71.09375 36.53125 
Q 71.09375 17.671875 61.125 8.828125 
Q 51.171875 0 30.078125 0 
L 9.8125 0 
z
" id="BitstreamVeraSans-Roman-44"/>
     <path d="M 53.515625 70.515625 
L 53.515625 60.890625 
Q 47.90625 63.578125 42.921875 64.890625 
Q 37.9375 66.21875 33.296875 66.21875 
Q 25.25 66.21875 20.875 63.09375 
Q 16.5 59.96875 16.5 54.203125 
Q 16.5 49.359375 19.40625 46.890625 
Q 22.3125 44.4375 30.421875 42.921875 
L 36.375 41.703125 
Q 47.40625 39.59375 52.65625 34.296875 
Q 57.90625 29 57.90625 20.125 
Q 57.90625 9.515625 50.796875 4.046875 
Q 43.703125 -1.421875 29.984375 -1.421875 
Q 24.8125 -1.421875 18.96875 -0.25 
Q 13.140625 0.921875 6.890625 3.21875 
L 6.890625 13.375 
Q 12.890625 10.015625 18.65625 8.296875 
Q 24.421875 6.59375 29.984375 6.59375 
Q 38.421875 6.59375 43.015625 9.90625 
Q 47.609375 13.234375 47.609375 19.390625 
Q 47.609375 24.75 44.3125 27.78125 
Q 41.015625 30.8125 33.5 32.328125 
L 27.484375 33.5 
Q 16.453125 35.6875 11.515625 40.375 
Q 6.59375 45.0625 6.59375 53.421875 
Q 6.59375 63.09375 13.40625 68.65625 
Q 20.21875 74.21875 32.171875 74.21875 
Q 37.3125 74.21875 42.625 73.28125 
Q 47.953125 72.359375 53.515625 70.515625 
" id="BitstreamVeraSans-Roman-53"/>
    </defs>
    <g transform="translate(464.01786290322576 382.12119923904515)scale(0.17 -0.17)">
     <use xlink:href="#BitstreamVeraSans-Roman-44"/>
     <use x="77.001953125" xlink:href="#BitstreamVeraSans-Roman-45"/>
     <use x="140.185546875" xlink:href="#BitstreamVeraSans-Roman-53"/>
    </g>
   </g>
   <g id="text_19">
    <!-- best 2009 -->
    <defs>
     <path d="M 10.984375 1.515625 
L 10.984375 10.5 
Q 14.703125 8.734375 18.5 7.8125 
Q 22.3125 6.890625 25.984375 6.890625 
Q 35.75 6.890625 40.890625 13.453125 
Q 46.046875 20.015625 46.78125 33.40625 
Q 43.953125 29.203125 39.59375 26.953125 
Q 35.25 24.703125 29.984375 24.703125 
Q 19.046875 24.703125 12.671875 31.3125 
Q 6.296875 37.9375 6.296875 49.421875 
Q 6.296875 60.640625 12.9375 67.421875 
Q 19.578125 74.21875 30.609375 74.21875 
Q 43.265625 74.21875 49.921875 64.515625 
Q 56.59375 54.828125 56.59375 36.375 
Q 56.59375 19.140625 48.40625 8.859375 
Q 40.234375 -1.421875 26.421875 -1.421875 
Q 22.703125 -1.421875 18.890625 -0.6875 
Q 15.09375 0.046875 10.984375 1.515625 
M 30.609375 32.421875 
Q 37.25 32.421875 41.125 36.953125 
Q 45.015625 41.5 45.015625 49.421875 
Q 45.015625 57.28125 41.125 61.84375 
Q 37.25 66.40625 30.609375 66.40625 
Q 23.96875 66.40625 20.09375 61.84375 
Q 16.21875 57.28125 16.21875 49.421875 
Q 16.21875 41.5 20.09375 36.953125 
Q 23.96875 32.421875 30.609375 32.421875 
" id="BitstreamVeraSans-Roman-39"/>
     <path d="M 48.6875 27.296875 
Q 48.6875 37.203125 44.609375 42.84375 
Q 40.53125 48.484375 33.40625 48.484375 
Q 26.265625 48.484375 22.1875 42.84375 
Q 18.109375 37.203125 18.109375 27.296875 
Q 18.109375 17.390625 22.1875 11.75 
Q 26.265625 6.109375 33.40625 6.109375 
Q 40.53125 6.109375 44.609375 11.75 
Q 48.6875 17.390625 48.6875 27.296875 
M 18.109375 46.390625 
Q 20.953125 51.265625 25.265625 53.625 
Q 29.59375 56 35.59375 56 
Q 45.5625 56 51.78125 48.09375 
Q 58.015625 40.1875 58.015625 27.296875 
Q 58.015625 14.40625 51.78125 6.484375 
Q 45.5625 -1.421875 35.59375 -1.421875 
Q 29.59375 -1.421875 25.265625 0.953125 
Q 20.953125 3.328125 18.109375 8.203125 
L 18.109375 0 
L 9.078125 0 
L 9.078125 75.984375 
L 18.109375 75.984375 
z
" id="BitstreamVeraSans-Roman-62"/>
    </defs>
    <g transform="translate(464.01786290322576 23.57376271321442)scale(0.17 -0.17)">
     <use xlink:href="#BitstreamVeraSans-Roman-62"/>
     <use x="63.4765625" xlink:href="#BitstreamVeraSans-Roman-65"/>
     <use x="125.0" xlink:href="#BitstreamVeraSans-Roman-73"/>
     <use x="177.099609375" xlink:href="#BitstreamVeraSans-Roman-74"/>
     <use x="216.30859375" xlink:href="#BitstreamVeraSans-Roman-20"/>
     <use x="248.095703125" xlink:href="#BitstreamVeraSans-Roman-32"/>
     <use x="311.71875" xlink:href="#BitstreamVeraSans-Roman-30"/>
     <use x="375.341796875" xlink:href="#BitstreamVeraSans-Roman-30"/>
     <use x="438.96484375" xlink:href="#BitstreamVeraSans-Roman-39"/>
    </g>
   </g>
   <g id="text_20">
    <!-- bbob f20-f24, 3-D -->
    <g transform="translate(59.01855000000001 19.20084189356436)scale(0.102 -0.102)">
     <use xlink:href="#BitstreamVeraSans-Roman-62"/>
     <use x="63.4765625" xlink:href="#BitstreamVeraSans-Roman-62"/>
     <use x="126.953125" xlink:href="#BitstreamVeraSans-Roman-6f"/>
     <use x="188.134765625" xlink:href="#BitstreamVeraSans-Roman-62"/>
     <use x="251.611328125" xlink:href="#BitstreamVeraSans-Roman-20"/>
     <use x="283.3984375" xlink:href="#BitstreamVeraSans-Roman-66"/>
     <use x="318.603515625" xlink:href="#BitstreamVeraSans-Roman-32"/>
     <use x="382.2265625" xlink:href="#BitstreamVeraSans-Roman-30"/>
     <use x="445.849609375" xlink:href="#BitstreamVeraSans-Roman-2d"/>
     <use x="481.93359375" xlink:href="#BitstreamVeraSans-Roman-66"/>
     <use x="517.138671875" xlink:href="#BitstreamVeraSans-Roman-32"/>
     <use x="580.76171875" xlink:href="#BitstreamVeraSans-Roman-34"/>
     <use x="644.384765625" xlink:href="#BitstreamVeraSans-Roman-2c"/>
     <use x="676.171875" xlink:href="#BitstreamVeraSans-Roman-20"/>
     <use x="707.958984375" xlink:href="#BitstreamVeraSans-Roman-33"/>
     <use x="771.58203125" xlink:href="#BitstreamVeraSans-Roman-2d"/>
     <use x="807.666015625" xlink:href="#BitstreamVeraSans-Roman-44"/>
    </g>
    <!-- 51 targets: 100..1e-08 -->
    <defs>
     <path d="M 11.71875 12.40625 
L 22.015625 12.40625 
L 22.015625 0 
L 11.71875 0 
z
M 11.71875 51.703125 
L 22.015625 51.703125 
L 22.015625 39.3125 
L 11.71875 39.3125 
z
" id="BitstreamVeraSans-Roman-3a"/>
    </defs>
    <g transform="translate(59.01855000000001 30.622610643564315)scale(0.102 -0.102)">
     <use xlink:href="#BitstreamVeraSans-Roman-35"/>
     <use x="63.623046875" xlink:href="#BitstreamVeraSans-Roman-31"/>
     <use x="127.24609375" xlink:href="#BitstreamVeraSans-Roman-20"/>
     <use x="159.033203125" xlink:href="#BitstreamVeraSans-Roman-74"/>
     <use x="198.2421875" xlink:href="#BitstreamVeraSans-Roman-61"/>
     <use x="259.521484375" xlink:href="#BitstreamVeraSans-Roman-72"/>
     <use x="300.619140625" xlink:href="#BitstreamVeraSans-Roman-67"/>
     <use x="364.095703125" xlink:href="#BitstreamVeraSans-Roman-65"/>
     <use x="425.619140625" xlink:href="#BitstreamVeraSans-Roman-74"/>
     <use x="464.828125" xlink:href="#BitstreamVeraSans-Roman-73"/>
     <use x="516.927734375" xlink:href="#BitstreamVeraSans-Roman-3a"/>
     <use x="550.619140625" xlink:href="#BitstreamVeraSans-Roman-20"/>
     <use x="582.40625" xlink:href="#BitstreamVeraSans-Roman-31"/>
     <use x="646.029296875" xlink:href="#BitstreamVeraSans-Roman-30"/>
     <use x="709.65234375" xlink:href="#BitstreamVeraSans-Roman-30"/>
     <use x="773.275390625" xlink:href="#BitstreamVeraSans-Roman-2e"/>
     <use x="805.0625" xlink:href="#BitstreamVeraSans-Roman-2e"/>
     <use x="836.849609375" xlink:href="#BitstreamVeraSans-Roman-31"/>
     <use x="900.47265625" xlink:href="#BitstreamVeraSans-Roman-65"/>
     <use x="961.99609375" xlink:href="#BitstreamVeraSans-Roman-2d"/>
     <use x="998.080078125" xlink:href="#BitstreamVeraSans-Roman-30"/>
     <use x="1061.703125" xlink:href="#BitstreamVeraSans-Roman-38"/>
    </g>
    <!-- 15 instances -->
    <g transform="translate(59.01855000000001 42.04437939356433)scale(0.102 -0.102)">
     <use xlink:href="#BitstreamVeraSans-Roman-31"/>
     <use x="63.623046875" xlink:href="#BitstreamVeraSans-Roman-35"/>
     <use x="127.24609375" xlink:href="#BitstreamVeraSans-Roman-20"/>
     <use x="159.033203125" xlink:href="#BitstreamVeraSans-Roman-69"/>
     <use x="186.81640625" xlink:href="#BitstreamVeraSans-Roman-6e"/>
     <use x="250.1953125" xlink:href="#BitstreamVeraSans-Roman-73"/>
     <use x="302.294921875" xlink:href="#BitstreamVeraSans-Roman-74"/>
     <use x="341.50390625" xlink:href="#BitstreamVeraSans-Roman-61"/>
     <use x="402.783203125" xlink:href="#BitstreamVeraSans-Roman-6e"/>
     <use x="466.162109375" xlink:href="#BitstreamVeraSans-Roman-63"/>
     <use x="521.142578125" xlink:href="#BitstreamVeraSans-Roman-65"/>
     <use x="582.666015625" xlink:href="#BitstreamVeraSans-Roman-73"/>
    </g>
   </g>
   <g id="text_21">
    <!-- v2.2.1.10 -->
    <g style="fill:#808080;" transform="translate(255.5696875 379.0480946782178)scale(0.1 -0.1)">
     <use xlink:href="#BitstreamVeraSans-Roman-76"/>
     <use x="59.1796875" xlink:href="#BitstreamVeraSans-Roman-32"/>
     <use x="122.802734375" xlink:href="#BitstreamVeraSans-Roman-2e"/>
     <use x="154.58984375" xlink:href="#BitstreamVeraSans-Roman-32"/>
     <use x="218.212890625" xlink:href="#BitstreamVeraSans-Roman-2e"/>
     <use x="250.0" xlink:href="#BitstreamVeraSans-Roman-31"/>
     <use x="313.623046875" xlink:href="#BitstreamVeraSans-Roman-2e"/>
     <use x="345.41015625" xlink:href="#BitstreamVeraSans-Roman-31"/>
     <use x="409.033203125" xlink:href="#BitstreamVeraSans-Roman-30"/>
    </g>
   </g>
  </g>
 </g>
 <defs>
  <clipPath id="p9c2936c51e">
   <rect height="377.22178217821784" width="449.35499999999996" x="54.52500000000001" y="7.678217821782141"/>
  </clipPath>
 </defs>
</svg>
