<?xml version="1.0" encoding="utf-8" standalone="no"?>
<!DOCTYPE svg PUBLIC "-//W3C//DTD SVG 1.1//EN"
  "http://www.w3.org/Graphics/SVG/1.1/DTD/svg11.dtd">
<!-- Created with matplotlib (http://matplotlib.org/) -->
<svg height="432pt" version="1.1" viewBox="0 0 576 432" width="576pt" xmlns="http://www.w3.org/2000/svg" xmlns:xlink="http://www.w3.org/1999/xlink">
 <defs>
  <style type="text/css">
*{stroke-linecap:butt;stroke-linejoin:round;stroke-miterlimit:100000;}
  </style>
 </defs>
 <g id="figure_1">
  <g id="patch_1">
   <path d="M 0 432 
L 576 432 
L 576 0 
L 0 0 
z
" style="fill:#ffffff;"/>
  </g>
  <g id="axes_1">
   <g id="patch_2">
    <path d="M 3 384 
L 567.24 384 
L 567.24 3 
L 3 3 
z
" style="fill:#ffffff;"/>
   </g>
   <g id="line2d_1">
    <path clip-path="url(#pba855efe5f)" d="M -1 328.673267 
L 257.373896 328.673267 
L 257.373896 323.643564 
L 259.106151 323.643564 
L 259.106604 308.554455 
L 260.155273 308.554455 
L 260.155274 293.465347 
L 261.825687 293.465347 
L 261.825687 288.435644 
L 262.485917 288.435644 
L 262.485917 283.405941 
L 262.699491 283.405941 
L 262.699491 278.376238 
L 262.909919 278.376238 
L 262.909919 268.316832 
L 263.13745 268.316832 
L 263.13745 218.019802 
L 263.722501 218.019802 
L 263.722501 212.990099 
L 264.861356 212.990099 
L 264.861356 202.930693 
L 268.085489 202.930693 
L 268.085489 197.90099 
L 268.970151 197.90099 
L 268.970151 192.871287 
L 269.35271 192.871287 
L 269.35271 187.841584 
L 270.257726 187.841584 
L 270.257726 182.811881 
L 270.596549 182.811881 
L 270.596549 177.782178 
L 271.221975 177.782178 
L 271.221975 172.752475 
L 271.468193 172.752475 
L 271.468193 167.722772 
L 271.611243 167.722772 
L 271.611243 162.693069 
L 271.846455 162.693069 
L 271.846455 157.663366 
L 272.259484 157.663366 
L 272.342484 142.574257 
L 272.383416 142.574257 
L 272.387793 132.514851 
L 272.724423 132.514851 
L 272.724423 127.485149 
L 273.23708 127.485149 
L 273.23708 122.455446 
L 276.947718 122.455446 
L 276.947718 117.425743 
L 277.986689 117.425743 
L 277.986689 112.39604 
L 278.114535 112.39604 
L 278.114535 97.306931 
L 285.08255 97.306931 
L 285.08255 92.277228 
L 291.833664 92.277228 
L 291.833664 87.247525 
L 299.710554 87.247525 
L 299.710554 82.217822 
L 329.139984 82.217822 
L 329.139984 77.188119 
L 329.588713 77.188119 
L 329.588713 72.158416 
L 329.737378 72.158416 
L 329.737378 67.128713 
L 330.134993 67.128713 
L 330.174193 52.039604 
L 330.394802 52.039604 
L 330.499025 36.950495 
L 330.534195 36.950495 
L 330.612269 21.861386 
L 330.94032 21.861386 
L 330.94032 16.831683 
L 331.087804 16.831683 
L 331.127693 6.772277 
L 331.127693 6.772277 
L 567.24 6.772277 
L 567.24 6.772277 
" style="fill:none;stroke:#ff0000;stroke-linecap:square;stroke-width:3.0;"/>
   </g>
   <g id="line2d_2">
    <path clip-path="url(#pba855efe5f)" d="M 290.704776 384 
L 290.704776 378.970297 
L 296.090817 378.970297 
L 296.090817 373.940594 
L 296.671526 373.940594 
L 296.686611 363.881188 
L 297.168676 363.881188 
L 297.168676 358.851485 
L 297.966167 358.851485 
L 297.966167 353.821782 
L 299.524064 353.821782 
L 299.524064 348.792079 
L 299.83654 348.792079 
L 299.901829 338.732673 
L 300.396836 338.732673 
L 300.396836 333.70297 
L 302.250986 333.70297 
L 302.303674 323.643564 
L 302.451494 323.643564 
L 302.451494 318.613861 
L 303.565456 318.613861 
L 303.565456 313.584158 
L 304.466151 313.584158 
L 304.466151 308.554455 
L 329.435204 308.554455 
L 329.435204 303.524752 
L 330.629119 303.524752 
L 330.703187 293.465347 
L 330.800176 293.465347 
L 330.800176 288.435644 
L 331.164021 288.435644 
L 331.246774 273.346535 
L 331.585437 273.346535 
L 331.585437 268.316832 
L 331.70319 268.316832 
L 331.798266 243.168317 
L 331.850701 243.168317 
L 331.889323 223.049505 
L 331.987356 223.049505 
L 332.093766 182.811881 
L 332.115033 182.811881 
L 332.220252 172.752475 
L 332.415768 172.752475 
L 332.439743 157.663366 
L 354.988208 157.663366 
L 354.988208 152.633663 
L 356.061863 152.633663 
L 356.061863 147.60396 
L 356.408924 147.60396 
L 356.418563 137.544554 
L 356.710062 137.544554 
L 356.710062 132.514851 
L 357.391112 132.514851 
L 357.391112 127.485149 
L 357.515713 127.485149 
L 357.597445 112.39604 
L 357.912876 112.39604 
L 357.912876 107.366337 
L 358.172181 107.366337 
L 358.180322 97.306931 
L 358.446483 97.306931 
L 358.446483 92.277228 
L 358.649234 92.277228 
L 358.649234 87.247525 
L 358.955533 87.247525 
L 358.955533 82.217822 
L 416.964282 82.217822 
L 416.964282 77.188119 
L 419.230247 77.188119 
L 419.230247 72.158416 
L 419.682833 72.158416 
L 419.682833 67.128713 
L 420.272484 67.128713 
L 420.272484 62.09901 
L 422.591059 62.09901 
L 422.591059 57.069307 
L 423.974206 57.069307 
L 424.064596 47.009901 
L 424.498105 47.009901 
L 424.498105 41.980198 
L 424.624527 41.980198 
L 424.624527 36.950495 
L 425.685433 36.950495 
L 425.685433 31.920792 
L 426.514492 31.920792 
L 426.514492 26.891089 
L 427.192651 26.891089 
L 427.192651 21.861386 
L 428.123931 21.861386 
L 428.123931 16.831683 
L 429.778027 16.831683 
L 429.778027 11.80198 
L 430.94238 11.80198 
L 430.94238 6.772277 
L 430.94238 6.772277 
L 567.24 6.772277 
L 567.24 6.772277 
" style="fill:none;stroke:#00bfbf;stroke-linecap:square;"/>
   </g>
   <g id="line2d_3">
    <path clip-path="url(#pba855efe5f)" d="M 290.139587 384 
L 290.139587 378.970297 
L 290.704776 378.970297 
L 290.704776 373.940594 
L 293.099114 373.940594 
L 293.099114 368.910891 
L 294.901543 368.910891 
L 294.901543 363.881188 
L 296.090817 363.881188 
L 296.090817 358.851485 
L 296.278299 358.851485 
L 296.278299 353.821782 
L 296.671526 353.821782 
L 296.68563 343.762376 
L 297.168676 343.762376 
L 297.168676 338.732673 
L 297.773132 338.732673 
L 297.773132 333.70297 
L 297.966167 333.70297 
L 297.966167 328.673267 
L 298.484953 328.673267 
L 298.484953 323.643564 
L 298.632388 323.643564 
L 298.632388 318.613861 
L 299.901829 318.613861 
L 299.901829 313.584158 
L 300.187289 313.584158 
L 300.187289 308.554455 
L 329.435204 308.554455 
L 329.435204 303.524752 
L 330.241013 303.524752 
L 330.2629 293.465347 
L 330.629119 293.465347 
L 330.703187 278.376238 
L 330.800176 278.376238 
L 330.904165 268.316832 
L 330.938496 268.316832 
L 331.006688 248.19802 
L 331.075784 248.19802 
L 331.159056 233.108911 
L 331.297075 233.108911 
L 331.297075 228.079208 
L 331.500421 228.079208 
L 331.586363 212.990099 
L 331.783683 212.990099 
L 331.88157 187.841584 
L 331.921885 187.841584 
L 332.024286 172.752475 
L 332.183605 172.752475 
L 332.220252 162.693069 
L 332.439743 162.693069 
L 332.439743 157.663366 
L 354.988208 157.663366 
L 354.988208 152.633663 
L 355.645967 152.633663 
L 355.645967 147.60396 
L 356.061863 147.60396 
L 356.063919 137.544554 
L 356.408924 137.544554 
L 356.418563 127.485149 
L 356.710062 127.485149 
L 356.820137 117.425743 
L 356.828013 117.425743 
L 356.828013 112.39604 
L 357.303234 112.39604 
L 357.391112 102.336634 
L 357.591529 102.336634 
L 357.603768 87.247525 
L 357.927633 87.247525 
L 357.927633 82.217822 
L 412.09373 82.217822 
L 412.09373 77.188119 
L 413.70398 77.188119 
L 413.70398 72.158416 
L 416.964282 72.158416 
L 416.964282 67.128713 
L 418.388373 67.128713 
L 418.434393 57.069307 
L 419.200109 57.069307 
L 419.200109 52.039604 
L 419.682833 52.039604 
L 419.682833 47.009901 
L 420.272484 47.009901 
L 420.272484 41.980198 
L 422.293725 41.980198 
L 422.293725 36.950495 
L 423.974206 36.950495 
L 424.064596 26.891089 
L 426.514492 26.891089 
L 426.514492 21.861386 
L 427.106885 21.861386 
L 427.106885 16.831683 
L 428.123931 16.831683 
L 428.123931 11.80198 
L 430.94238 11.80198 
L 430.94238 6.772277 
L 430.94238 6.772277 
L 567.24 6.772277 
L 567.24 6.772277 
" style="fill:none;stroke:#bf00bf;stroke-linecap:square;"/>
   </g>
   <g id="line2d_4">
    <path clip-path="url(#pba855efe5f)" d="M 287.029664 384 
L 287.029664 378.970297 
L 289.961433 378.970297 
L 289.961433 373.940594 
L 290.139587 373.940594 
L 290.139587 368.910891 
L 291.214439 368.910891 
L 291.214439 363.881188 
L 292.843734 363.881188 
L 292.843734 358.851485 
L 293.099114 358.851485 
L 293.099114 353.821782 
L 293.602406 353.821782 
L 293.602406 348.792079 
L 294.225507 348.792079 
L 294.225507 343.762376 
L 294.537393 343.762376 
L 294.537393 338.732673 
L 295.936531 338.732673 
L 296.018472 323.643564 
L 296.136919 323.643564 
L 296.136919 318.613861 
L 297.642822 318.613861 
L 297.680673 308.554455 
L 329.435204 308.554455 
L 329.435204 303.524752 
L 329.670336 303.524752 
L 329.670336 298.49505 
L 329.889405 298.49505 
L 329.889405 293.465347 
L 330.114146 293.465347 
L 330.163678 283.405941 
L 330.241013 283.405941 
L 330.2629 273.346535 
L 330.357584 273.346535 
L 330.357584 268.316832 
L 330.488429 268.316832 
L 330.527583 253.227723 
L 330.658534 253.227723 
L 330.658534 248.19802 
L 330.800176 248.19802 
L 330.904165 238.138614 
L 331.006688 238.138614 
L 331.095148 223.049505 
L 331.214299 223.049505 
L 331.297075 212.990099 
L 331.357914 212.990099 
L 331.362037 202.930693 
L 331.518372 202.930693 
L 331.567021 187.841584 
L 331.783683 187.841584 
L 331.880587 162.693069 
L 332.218665 162.693069 
L 332.218665 157.663366 
L 354.812827 157.663366 
L 354.820326 142.574257 
L 354.988208 142.574257 
L 354.988208 137.544554 
L 355.645967 137.544554 
L 355.645967 132.514851 
L 355.946628 132.514851 
L 355.946628 127.485149 
L 356.061863 127.485149 
L 356.063919 117.425743 
L 356.418563 117.425743 
L 356.419309 107.366337 
L 356.549042 107.366337 
L 356.549042 102.336634 
L 356.820137 102.336634 
L 356.820137 97.306931 
L 357.292254 97.306931 
L 357.377609 82.217822 
L 406.335569 82.217822 
L 406.335569 77.188119 
L 407.782148 77.188119 
L 407.782148 72.158416 
L 410.801779 72.158416 
L 410.801779 67.128713 
L 412.09373 67.128713 
L 412.09373 62.09901 
L 413.646639 62.09901 
L 413.646639 57.069307 
L 413.856172 57.069307 
L 413.856172 52.039604 
L 415.103172 52.039604 
L 415.103172 47.009901 
L 415.364636 47.009901 
L 415.364636 41.980198 
L 415.518143 41.980198 
L 415.518143 36.950495 
L 416.964282 36.950495 
L 416.964282 31.920792 
L 417.267164 31.920792 
L 417.267164 26.891089 
L 418.434393 26.891089 
L 418.434393 21.861386 
L 419.89601 21.861386 
L 419.89601 16.831683 
L 420.124455 16.831683 
L 420.124455 11.80198 
L 421.41787 11.80198 
L 421.41787 6.772277 
L 421.41787 6.772277 
L 567.24 6.772277 
L 567.24 6.772277 
" style="fill:none;stroke:#000000;stroke-linecap:square;"/>
   </g>
   <g id="line2d_5">
    <path clip-path="url(#pba855efe5f)" d="M 287.029664 384 
L 287.029664 378.970297 
L 287.852969 378.970297 
L 287.852969 373.940594 
L 288.807134 373.940594 
L 288.807134 368.910891 
L 289.285584 368.910891 
L 289.285584 363.881188 
L 289.961433 363.881188 
L 289.961433 358.851485 
L 290.139587 358.851485 
L 290.14633 348.792079 
L 290.323789 348.792079 
L 290.330771 338.732673 
L 290.729773 338.732673 
L 290.729773 333.70297 
L 291.214439 333.70297 
L 291.214439 328.673267 
L 292.990982 328.673267 
L 293.099114 318.613861 
L 293.717588 318.613861 
L 293.717588 313.584158 
L 294.225507 313.584158 
L 294.225507 308.554455 
L 294.976302 308.554455 
L 294.976302 303.524752 
L 320.274647 303.524752 
L 320.274647 298.49505 
L 325.874987 298.49505 
L 325.874987 293.465347 
L 328.018281 293.465347 
L 328.018281 288.435644 
L 328.22388 288.435644 
L 328.22388 283.405941 
L 328.453857 283.405941 
L 328.453857 278.376238 
L 328.833511 278.376238 
L 328.833511 273.346535 
L 328.963265 273.346535 
L 328.963265 268.316832 
L 329.26617 268.316832 
L 329.26617 263.287129 
L 329.435204 263.287129 
L 329.508218 243.168317 
L 329.660475 243.168317 
L 329.700826 218.019802 
L 329.778104 218.019802 
L 329.778104 212.990099 
L 329.90604 212.990099 
L 329.90604 207.960396 
L 330.039897 207.960396 
L 330.045597 197.90099 
L 330.3869 197.90099 
L 330.431175 182.811881 
L 330.512083 182.811881 
L 330.512083 177.782178 
L 330.67833 177.782178 
L 330.683126 167.722772 
L 330.821459 167.722772 
L 330.931878 152.633663 
L 331.349346 152.633663 
L 331.349346 147.60396 
L 339.930132 147.60396 
L 339.930132 142.574257 
L 343.164189 142.574257 
L 343.164189 137.544554 
L 346.669675 137.544554 
L 346.669675 132.514851 
L 347.295313 132.514851 
L 347.295313 127.485149 
L 347.56213 127.485149 
L 347.56213 122.455446 
L 348.042977 122.455446 
L 348.042977 117.425743 
L 348.165504 117.425743 
L 348.22211 107.366337 
L 348.546094 107.366337 
L 348.546094 102.336634 
L 348.81754 102.336634 
L 348.81754 97.306931 
L 349.244067 97.306931 
L 349.244067 92.277228 
L 349.576358 92.277228 
L 349.576358 87.247525 
L 349.761475 87.247525 
L 349.761475 82.217822 
L 349.949098 82.217822 
L 349.955485 72.158416 
L 350.284653 72.158416 
L 350.284653 67.128713 
L 351.206448 67.128713 
L 351.206448 62.09901 
L 351.783808 62.09901 
L 351.889281 52.039604 
L 352.86375 52.039604 
L 352.86375 47.009901 
L 353.91851 47.009901 
L 353.91851 41.980198 
L 358.816317 41.980198 
L 358.816317 36.950495 
L 359.714198 36.950495 
L 359.714198 31.920792 
L 366.548704 31.920792 
L 366.548704 26.891089 
L 368.056648 26.891089 
L 368.056648 21.861386 
L 373.846463 21.861386 
L 373.846463 16.831683 
L 380.632256 16.831683 
L 380.632256 11.80198 
L 382.606606 11.80198 
L 382.606606 6.772277 
L 382.606606 6.772277 
L 567.24 6.772277 
L 567.24 6.772277 
" style="fill:none;stroke:#00bfbf;stroke-linecap:square;"/>
   </g>
   <g id="line2d_6">
    <path clip-path="url(#pba855efe5f)" d="M 280.583199 384 
L 280.583199 378.970297 
L 282.982903 378.970297 
L 282.982903 373.940594 
L 283.568161 373.940594 
L 283.568161 368.910891 
L 283.79165 368.910891 
L 283.79165 363.881188 
L 284.042009 363.881188 
L 284.052994 353.821782 
L 285.39204 353.821782 
L 285.404021 343.762376 
L 285.895241 343.762376 
L 285.895241 338.732673 
L 286.219531 338.732673 
L 286.219531 333.70297 
L 286.367956 333.70297 
L 286.471961 323.643564 
L 286.587597 323.643564 
L 286.633602 308.554455 
L 286.749601 308.554455 
L 286.749601 303.524752 
L 286.877714 303.524752 
L 286.959713 283.405941 
L 287.096785 283.405941 
L 287.096785 278.376238 
L 287.477983 278.376238 
L 287.511844 268.316832 
L 287.606192 268.316832 
L 287.684794 258.257426 
L 287.761394 258.257426 
L 287.761394 253.227723 
L 288.204608 253.227723 
L 288.204608 248.19802 
L 288.516005 248.19802 
L 288.516005 243.168317 
L 288.679583 243.168317 
L 288.679583 238.138614 
L 289.06951 238.138614 
L 289.133248 228.079208 
L 290.115299 228.079208 
L 290.115299 223.049505 
L 291.995988 223.049505 
L 291.995988 218.019802 
L 293.639155 218.019802 
L 293.639155 212.990099 
L 294.00092 212.990099 
L 294.00092 207.960396 
L 297.567161 207.960396 
L 297.567161 202.930693 
L 299.280027 202.930693 
L 299.280027 197.90099 
L 301.214334 197.90099 
L 301.214334 192.871287 
L 301.378315 192.871287 
L 301.378315 187.841584 
L 301.533104 187.841584 
L 301.533104 182.811881 
L 303.061332 182.811881 
L 303.061332 177.782178 
L 304.444113 177.782178 
L 304.444113 172.752475 
L 305.599151 172.752475 
L 305.599151 167.722772 
L 305.882414 167.722772 
L 305.992567 157.663366 
L 307.132339 157.663366 
L 307.132339 152.633663 
L 307.825932 152.633663 
L 307.825932 147.60396 
L 308.950779 147.60396 
L 308.950779 142.574257 
L 309.159581 142.574257 
L 309.159581 137.544554 
L 309.578231 137.544554 
L 309.578231 132.514851 
L 309.840679 132.514851 
L 309.840679 127.485149 
L 311.19945 127.485149 
L 311.19945 122.455446 
L 311.790732 122.455446 
L 311.790732 117.425743 
L 311.998283 117.425743 
L 311.998283 112.39604 
L 315.643223 112.39604 
L 315.643223 107.366337 
L 316.63832 107.366337 
L 316.673646 97.306931 
L 317.389745 97.306931 
L 317.389745 92.277228 
L 322.536683 92.277228 
L 322.536683 87.247525 
L 326.091822 87.247525 
L 326.091822 82.217822 
L 339.926009 82.217822 
L 339.926009 77.188119 
L 340.652033 77.188119 
L 340.652033 72.158416 
L 341.343122 72.158416 
L 341.343122 67.128713 
L 341.63532 67.128713 
L 341.63532 62.09901 
L 342.00055 62.09901 
L 342.00055 57.069307 
L 342.169399 57.069307 
L 342.169399 52.039604 
L 342.339174 52.039604 
L 342.383669 36.950495 
L 342.84881 36.950495 
L 342.84881 31.920792 
L 343.007901 31.920792 
L 343.007901 26.891089 
L 343.175865 26.891089 
L 343.175865 21.861386 
L 343.411041 21.861386 
L 343.411041 16.831683 
L 343.921453 16.831683 
L 343.921453 11.80198 
L 344.552809 11.80198 
L 344.552809 6.772277 
L 344.552809 6.772277 
L 567.24 6.772277 
L 567.24 6.772277 
" style="fill:none;stroke:#bf00bf;stroke-linecap:square;"/>
   </g>
   <g id="line2d_7">
    <path clip-path="url(#pba855efe5f)" d="M -1 373.940594 
L 263.138774 373.940594 
L 263.142069 348.792079 
L 267.405081 348.792079 
L 267.405081 343.762376 
L 274.889244 343.762376 
L 274.889244 338.732673 
L 276.94839 338.732673 
L 276.94839 333.70297 
L 278.11467 333.70297 
L 278.11479 318.613861 
L 278.290876 318.613861 
L 278.290876 313.584158 
L 278.438392 313.584158 
L 278.438392 308.554455 
L 279.273719 308.554455 
L 279.273719 303.524752 
L 280.039582 303.524752 
L 280.039582 298.49505 
L 280.214288 298.49505 
L 280.28073 283.405941 
L 280.583199 283.405941 
L 280.684975 263.287129 
L 280.749085 263.287129 
L 280.749085 258.257426 
L 280.973864 258.257426 
L 280.973864 253.227723 
L 281.480163 253.227723 
L 281.505859 243.168317 
L 282.018499 243.168317 
L 282.018499 238.138614 
L 282.173959 238.138614 
L 282.232151 223.049505 
L 282.389488 223.049505 
L 282.389488 218.019802 
L 282.525934 218.019802 
L 282.525934 212.990099 
L 282.719655 212.990099 
L 282.819357 202.930693 
L 282.842947 202.930693 
L 282.94056 192.871287 
L 282.964323 192.871287 
L 282.982903 182.811881 
L 283.312201 182.811881 
L 283.312201 177.782178 
L 283.79165 177.782178 
L 283.79165 172.752475 
L 283.919609 172.752475 
L 284.005979 162.693069 
L 284.111227 162.693069 
L 284.111227 157.663366 
L 284.521744 157.663366 
L 284.521744 152.633663 
L 290.805098 152.633663 
L 290.805098 147.60396 
L 291.83456 147.60396 
L 291.83456 142.574257 
L 294.870326 142.574257 
L 294.870326 137.544554 
L 297.054291 137.544554 
L 297.145141 127.485149 
L 299.710661 127.485149 
L 299.71076 117.425743 
L 304.506942 117.425743 
L 304.506942 112.39604 
L 308.780909 112.39604 
L 308.780909 107.366337 
L 309.393388 107.366337 
L 309.393388 102.336634 
L 313.353993 102.336634 
L 313.353993 97.306931 
L 314.216676 97.306931 
L 314.216676 92.277228 
L 317.527328 92.277228 
L 317.527328 87.247525 
L 322.647267 87.247525 
L 322.647267 82.217822 
L 335.949109 82.217822 
L 335.949109 77.188119 
L 336.191568 77.188119 
L 336.287153 67.128713 
L 336.378125 67.128713 
L 336.378125 62.09901 
L 336.895928 62.09901 
L 336.984166 52.039604 
L 337.175893 52.039604 
L 337.175893 47.009901 
L 337.500381 47.009901 
L 337.586483 26.891089 
L 337.865753 26.891089 
L 337.865753 21.861386 
L 338.034533 21.861386 
L 338.034533 16.831683 
L 338.323915 16.831683 
L 338.323915 11.80198 
L 338.51106 11.80198 
L 338.51106 6.772277 
L 338.51106 6.772277 
L 567.24 6.772277 
L 567.24 6.772277 
" style="fill:none;stroke:#000000;stroke-linecap:square;"/>
   </g>
   <g id="line2d_8">
    <path clip-path="url(#pba855efe5f)" d="M -1 358.851485 
L 196.359513 358.851485 
L 196.359513 353.821782 
L 263.13745 353.821782 
L 263.13745 323.643564 
L 264.112148 323.643564 
L 264.112148 318.613861 
L 264.67771 318.613861 
L 264.67771 313.584158 
L 266.085576 313.584158 
L 266.085576 308.554455 
L 266.740936 308.554455 
L 266.740936 303.524752 
L 266.900406 303.524752 
L 266.900406 298.49505 
L 267.213615 298.49505 
L 267.213873 288.435644 
L 267.402378 288.435644 
L 267.402378 283.405941 
L 267.520752 283.405941 
L 267.520752 278.376238 
L 267.820823 278.376238 
L 267.820823 273.346535 
L 268.963558 273.346535 
L 268.963558 268.316832 
L 269.235529 268.316832 
L 269.235529 263.287129 
L 269.765195 263.287129 
L 269.765195 258.257426 
L 270.400258 258.257426 
L 270.400258 253.227723 
L 270.768239 253.227723 
L 270.768239 248.19802 
L 271.245551 248.19802 
L 271.245551 243.168317 
L 271.611243 243.168317 
L 271.611243 238.138614 
L 273.882037 238.138614 
L 273.882037 233.108911 
L 276.947718 233.108911 
L 276.947718 228.079208 
L 277.248293 228.079208 
L 277.248293 223.049505 
L 277.576607 223.049505 
L 277.576607 218.019802 
L 277.718454 218.019802 
L 277.718454 212.990099 
L 278.114535 212.990099 
L 278.114535 187.841584 
L 278.290876 187.841584 
L 278.396255 172.752475 
L 278.438222 172.752475 
L 278.438222 167.722772 
L 278.589039 167.722772 
L 278.688077 152.633663 
L 279.088804 152.633663 
L 279.150321 142.574257 
L 279.31408 142.574257 
L 279.400264 132.514851 
L 280.039582 132.514851 
L 280.039582 127.485149 
L 290.803783 127.485149 
L 290.803783 122.455446 
L 291.833664 122.455446 
L 291.833664 117.425743 
L 294.869616 117.425743 
L 294.869616 112.39604 
L 297.144864 112.39604 
L 297.144864 107.366337 
L 299.710554 107.366337 
L 299.710554 92.277228 
L 309.393011 92.277228 
L 309.393011 87.247525 
L 314.216608 87.247525 
L 314.216608 82.217822 
L 331.238311 82.217822 
L 331.238311 77.188119 
L 331.754335 77.188119 
L 331.754335 72.158416 
L 332.531965 72.158416 
L 332.531965 67.128713 
L 333.616151 67.128713 
L 333.643471 57.069307 
L 333.818244 57.069307 
L 333.818244 52.039604 
L 334.185467 52.039604 
L 334.289818 36.950495 
L 334.335528 36.950495 
L 334.342989 26.891089 
L 334.721907 26.891089 
L 334.721907 21.861386 
L 334.923633 21.861386 
L 334.923633 16.831683 
L 335.150814 16.831683 
L 335.229852 6.772277 
L 335.229852 6.772277 
L 567.24 6.772277 
L 567.24 6.772277 
" style="fill:none;stroke:#00bfbf;stroke-linecap:square;"/>
   </g>
   <g id="line2d_9">
    <path clip-path="url(#pba855efe5f)" d="M -1 343.762376 
L 257.373896 343.762376 
L 257.373896 338.732673 
L 259.106151 338.732673 
L 259.106151 328.673267 
L 260.155273 328.673267 
L 260.155274 313.584158 
L 261.133241 313.584158 
L 261.133241 308.554455 
L 262.909919 308.554455 
L 262.909919 303.524752 
L 263.117349 303.524752 
L 263.13745 253.227723 
L 263.72283 253.227723 
L 263.72283 248.19802 
L 264.112148 248.19802 
L 264.112148 243.168317 
L 264.491695 243.168317 
L 264.491695 238.138614 
L 264.861356 238.138614 
L 264.861356 233.108911 
L 266.580246 233.108911 
L 266.580246 228.079208 
L 266.900495 228.079208 
L 266.900495 223.049505 
L 267.402378 223.049505 
L 267.402378 218.019802 
L 271.171762 218.019802 
L 271.171762 212.990099 
L 271.611243 212.990099 
L 271.611243 207.960396 
L 272.259484 207.960396 
L 272.259484 202.930693 
L 272.871758 202.930693 
L 272.871758 197.90099 
L 273.170319 197.90099 
L 273.170319 192.871287 
L 273.418378 192.871287 
L 273.418378 187.841584 
L 273.753979 187.841584 
L 273.75758 177.782178 
L 273.882037 177.782178 
L 273.882037 172.752475 
L 274.323208 172.752475 
L 274.323208 167.722772 
L 274.475603 167.722772 
L 274.539484 152.633663 
L 275.274525 152.633663 
L 275.368931 142.574257 
L 275.681446 142.574257 
L 275.681446 137.544554 
L 276.947718 137.544554 
L 276.947718 127.485149 
L 278.114535 127.485149 
L 278.114535 107.366337 
L 278.438222 107.366337 
L 278.438222 102.336634 
L 290.803783 102.336634 
L 290.803783 92.277228 
L 291.833664 92.277228 
L 291.833664 87.247525 
L 299.710554 87.247525 
L 299.710554 82.217822 
L 329.588713 82.217822 
L 329.588713 77.188119 
L 330.134993 77.188119 
L 330.134993 72.158416 
L 330.448358 72.158416 
L 330.448358 67.128713 
L 330.860209 67.128713 
L 330.949885 57.069307 
L 331.124992 57.069307 
L 331.124992 52.039604 
L 331.238311 52.039604 
L 331.238311 47.009901 
L 331.427549 47.009901 
L 331.427549 41.980198 
L 331.636922 41.980198 
L 331.703938 31.920792 
L 331.754335 31.920792 
L 331.754335 26.891089 
L 332.061263 26.891089 
L 332.061263 21.861386 
L 332.381308 21.861386 
L 332.381308 16.831683 
L 332.531965 16.831683 
L 332.531965 11.80198 
L 332.76908 11.80198 
L 332.76908 6.772277 
L 332.76908 6.772277 
L 567.24 6.772277 
L 567.24 6.772277 
" style="fill:none;stroke:#bf00bf;stroke-linecap:square;"/>
   </g>
   <g id="patch_3">
    <path d="M 3 3 
L 567.24 3 
" style="fill:none;stroke:#000000;stroke-linecap:square;stroke-linejoin:miter;"/>
   </g>
   <g id="patch_4">
    <path d="M 567.24 384 
L 567.24 3 
" style="fill:none;stroke:#000000;stroke-linecap:square;stroke-linejoin:miter;"/>
   </g>
   <g id="patch_5">
    <path d="M 3 384 
L 567.24 384 
" style="fill:none;stroke:#000000;stroke-linecap:square;stroke-linejoin:miter;"/>
   </g>
   <g id="patch_6">
    <path d="M 3 384 
L 3 3 
" style="fill:none;stroke:#000000;stroke-linecap:square;stroke-linejoin:miter;"/>
   </g>
   <g id="matplotlib.axis_1">
    <g id="xtick_1"/>
    <g id="xtick_2">
     <g id="line2d_10">
      <path clip-path="url(#pba855efe5f)" d="M 69.254589 384 
L 69.254589 3 
" style="fill:none;stroke:#000000;stroke-dasharray:1.000000,3.000000;stroke-dashoffset:0.0;stroke-width:0.5;"/>
     </g>
     <g id="line2d_11">
      <defs>
       <path d="M 0 0 
L 0 -4 
" id="m27ccc1c1e3" style="stroke:#000000;stroke-width:0.5;"/>
      </defs>
      <g>
       <use style="stroke:#000000;stroke-width:0.5;" x="69.25458934719217" xlink:href="#m27ccc1c1e3" y="384.0"/>
      </g>
     </g>
     <g id="line2d_12">
      <defs>
       <path d="M 0 0 
L 0 4 
" id="md07456ec6f" style="stroke:#000000;stroke-width:0.5;"/>
      </defs>
      <g>
       <use style="stroke:#000000;stroke-width:0.5;" x="69.25458934719217" xlink:href="#md07456ec6f" y="3.0"/>
      </g>
     </g>
     <g id="text_1">
      <!-- -6 -->
      <defs>
       <path d="M 33.015625 40.375 
Q 26.375 40.375 22.484375 35.828125 
Q 18.609375 31.296875 18.609375 23.390625 
Q 18.609375 15.53125 22.484375 10.953125 
Q 26.375 6.390625 33.015625 6.390625 
Q 39.65625 6.390625 43.53125 10.953125 
Q 47.40625 15.53125 47.40625 23.390625 
Q 47.40625 31.296875 43.53125 35.828125 
Q 39.65625 40.375 33.015625 40.375 
M 52.59375 71.296875 
L 52.59375 62.3125 
Q 48.875 64.0625 45.09375 64.984375 
Q 41.3125 65.921875 37.59375 65.921875 
Q 27.828125 65.921875 22.671875 59.328125 
Q 17.53125 52.734375 16.796875 39.40625 
Q 19.671875 43.65625 24.015625 45.921875 
Q 28.375 48.1875 33.59375 48.1875 
Q 44.578125 48.1875 50.953125 41.515625 
Q 57.328125 34.859375 57.328125 23.390625 
Q 57.328125 12.15625 50.6875 5.359375 
Q 44.046875 -1.421875 33.015625 -1.421875 
Q 20.359375 -1.421875 13.671875 8.265625 
Q 6.984375 17.96875 6.984375 36.375 
Q 6.984375 53.65625 15.1875 63.9375 
Q 23.390625 74.21875 37.203125 74.21875 
Q 40.921875 74.21875 44.703125 73.484375 
Q 48.484375 72.75 52.59375 71.296875 
" id="BitstreamVeraSans-Roman-36"/>
       <path d="M 4.890625 31.390625 
L 31.203125 31.390625 
L 31.203125 23.390625 
L 4.890625 23.390625 
z
" id="BitstreamVeraSans-Roman-2d"/>
      </defs>
      <g transform="translate(59.28427684719217 403.196875)scale(0.2 -0.2)">
       <use xlink:href="#BitstreamVeraSans-Roman-2d"/>
       <use x="36.083984375" xlink:href="#BitstreamVeraSans-Roman-36"/>
      </g>
     </g>
    </g>
    <g id="xtick_3">
     <g id="line2d_13">
      <path clip-path="url(#pba855efe5f)" d="M 135.652644 384 
L 135.652644 3 
" style="fill:none;stroke:#000000;stroke-dasharray:1.000000,3.000000;stroke-dashoffset:0.0;stroke-width:0.5;"/>
     </g>
     <g id="line2d_14">
      <g>
       <use style="stroke:#000000;stroke-width:0.5;" x="135.65264410089986" xlink:href="#m27ccc1c1e3" y="384.0"/>
      </g>
     </g>
     <g id="line2d_15">
      <g>
       <use style="stroke:#000000;stroke-width:0.5;" x="135.65264410089986" xlink:href="#md07456ec6f" y="3.0"/>
      </g>
     </g>
     <g id="text_2">
      <!-- -4 -->
      <defs>
       <path d="M 37.796875 64.3125 
L 12.890625 25.390625 
L 37.796875 25.390625 
z
M 35.203125 72.90625 
L 47.609375 72.90625 
L 47.609375 25.390625 
L 58.015625 25.390625 
L 58.015625 17.1875 
L 47.609375 17.1875 
L 47.609375 0 
L 37.796875 0 
L 37.796875 17.1875 
L 4.890625 17.1875 
L 4.890625 26.703125 
z
" id="BitstreamVeraSans-Roman-34"/>
      </defs>
      <g transform="translate(125.68233160089986 403.196875)scale(0.2 -0.2)">
       <use xlink:href="#BitstreamVeraSans-Roman-2d"/>
       <use x="36.083984375" xlink:href="#BitstreamVeraSans-Roman-34"/>
      </g>
     </g>
    </g>
    <g id="xtick_4">
     <g id="line2d_16">
      <path clip-path="url(#pba855efe5f)" d="M 202.050699 384 
L 202.050699 3 
" style="fill:none;stroke:#000000;stroke-dasharray:1.000000,3.000000;stroke-dashoffset:0.0;stroke-width:0.5;"/>
     </g>
     <g id="line2d_17">
      <g>
       <use style="stroke:#000000;stroke-width:0.5;" x="202.0506988546076" xlink:href="#m27ccc1c1e3" y="384.0"/>
      </g>
     </g>
     <g id="line2d_18">
      <g>
       <use style="stroke:#000000;stroke-width:0.5;" x="202.0506988546076" xlink:href="#md07456ec6f" y="3.0"/>
      </g>
     </g>
     <g id="text_3">
      <!-- -2 -->
      <defs>
       <path d="M 19.1875 8.296875 
L 53.609375 8.296875 
L 53.609375 0 
L 7.328125 0 
L 7.328125 8.296875 
Q 12.9375 14.109375 22.625 23.890625 
Q 32.328125 33.6875 34.8125 36.53125 
Q 39.546875 41.84375 41.421875 45.53125 
Q 43.3125 49.21875 43.3125 52.78125 
Q 43.3125 58.59375 39.234375 62.25 
Q 35.15625 65.921875 28.609375 65.921875 
Q 23.96875 65.921875 18.8125 64.3125 
Q 13.671875 62.703125 7.8125 59.421875 
L 7.8125 69.390625 
Q 13.765625 71.78125 18.9375 73 
Q 24.125 74.21875 28.421875 74.21875 
Q 39.75 74.21875 46.484375 68.546875 
Q 53.21875 62.890625 53.21875 53.421875 
Q 53.21875 48.921875 51.53125 44.890625 
Q 49.859375 40.875 45.40625 35.40625 
Q 44.1875 33.984375 37.640625 27.21875 
Q 31.109375 20.453125 19.1875 8.296875 
" id="BitstreamVeraSans-Roman-32"/>
      </defs>
      <g transform="translate(192.08038635460758 403.196875)scale(0.2 -0.2)">
       <use xlink:href="#BitstreamVeraSans-Roman-2d"/>
       <use x="36.083984375" xlink:href="#BitstreamVeraSans-Roman-32"/>
      </g>
     </g>
    </g>
    <g id="xtick_5">
     <g id="line2d_19">
      <path clip-path="url(#pba855efe5f)" d="M 268.448754 384 
L 268.448754 3 
" style="fill:none;stroke:#000000;stroke-dasharray:1.000000,3.000000;stroke-dashoffset:0.0;stroke-width:0.5;"/>
     </g>
     <g id="line2d_20">
      <g>
       <use style="stroke:#000000;stroke-width:0.5;" x="268.4487536083153" xlink:href="#m27ccc1c1e3" y="384.0"/>
      </g>
     </g>
     <g id="line2d_21">
      <g>
       <use style="stroke:#000000;stroke-width:0.5;" x="268.4487536083153" xlink:href="#md07456ec6f" y="3.0"/>
      </g>
     </g>
     <g id="text_4">
      <!-- 0 -->
      <defs>
       <path d="M 31.78125 66.40625 
Q 24.171875 66.40625 20.328125 58.90625 
Q 16.5 51.421875 16.5 36.375 
Q 16.5 21.390625 20.328125 13.890625 
Q 24.171875 6.390625 31.78125 6.390625 
Q 39.453125 6.390625 43.28125 13.890625 
Q 47.125 21.390625 47.125 36.375 
Q 47.125 51.421875 43.28125 58.90625 
Q 39.453125 66.40625 31.78125 66.40625 
M 31.78125 74.21875 
Q 44.046875 74.21875 50.515625 64.515625 
Q 56.984375 54.828125 56.984375 36.375 
Q 56.984375 17.96875 50.515625 8.265625 
Q 44.046875 -1.421875 31.78125 -1.421875 
Q 19.53125 -1.421875 13.0625 8.265625 
Q 6.59375 17.96875 6.59375 36.375 
Q 6.59375 54.828125 13.0625 64.515625 
Q 19.53125 74.21875 31.78125 74.21875 
" id="BitstreamVeraSans-Roman-30"/>
      </defs>
      <g transform="translate(262.0862536083153 403.196875)scale(0.2 -0.2)">
       <use xlink:href="#BitstreamVeraSans-Roman-30"/>
      </g>
     </g>
    </g>
    <g id="xtick_6">
     <g id="line2d_22">
      <path clip-path="url(#pba855efe5f)" d="M 334.846808 384 
L 334.846808 3 
" style="fill:none;stroke:#000000;stroke-dasharray:1.000000,3.000000;stroke-dashoffset:0.0;stroke-width:0.5;"/>
     </g>
     <g id="line2d_23">
      <g>
       <use style="stroke:#000000;stroke-width:0.5;" x="334.846808362023" xlink:href="#m27ccc1c1e3" y="384.0"/>
      </g>
     </g>
     <g id="line2d_24">
      <g>
       <use style="stroke:#000000;stroke-width:0.5;" x="334.846808362023" xlink:href="#md07456ec6f" y="3.0"/>
      </g>
     </g>
     <g id="text_5">
      <!-- 2 -->
      <g transform="translate(328.484308362023 403.196875)scale(0.2 -0.2)">
       <use xlink:href="#BitstreamVeraSans-Roman-32"/>
      </g>
     </g>
    </g>
    <g id="xtick_7">
     <g id="line2d_25">
      <path clip-path="url(#pba855efe5f)" d="M 401.244863 384 
L 401.244863 3 
" style="fill:none;stroke:#000000;stroke-dasharray:1.000000,3.000000;stroke-dashoffset:0.0;stroke-width:0.5;"/>
     </g>
     <g id="line2d_26">
      <g>
       <use style="stroke:#000000;stroke-width:0.5;" x="401.2448631157307" xlink:href="#m27ccc1c1e3" y="384.0"/>
      </g>
     </g>
     <g id="line2d_27">
      <g>
       <use style="stroke:#000000;stroke-width:0.5;" x="401.2448631157307" xlink:href="#md07456ec6f" y="3.0"/>
      </g>
     </g>
     <g id="text_6">
      <!-- 4 -->
      <g transform="translate(394.8823631157307 403.196875)scale(0.2 -0.2)">
       <use xlink:href="#BitstreamVeraSans-Roman-34"/>
      </g>
     </g>
    </g>
    <g id="xtick_8">
     <g id="line2d_28">
      <path clip-path="url(#pba855efe5f)" d="M 467.642918 384 
L 467.642918 3 
" style="fill:none;stroke:#000000;stroke-dasharray:1.000000,3.000000;stroke-dashoffset:0.0;stroke-width:0.5;"/>
     </g>
     <g id="line2d_29">
      <g>
       <use style="stroke:#000000;stroke-width:0.5;" x="467.6429178694384" xlink:href="#m27ccc1c1e3" y="384.0"/>
      </g>
     </g>
     <g id="line2d_30">
      <g>
       <use style="stroke:#000000;stroke-width:0.5;" x="467.6429178694384" xlink:href="#md07456ec6f" y="3.0"/>
      </g>
     </g>
     <g id="text_7">
      <!-- 6 -->
      <g transform="translate(461.2804178694384 403.196875)scale(0.2 -0.2)">
       <use xlink:href="#BitstreamVeraSans-Roman-36"/>
      </g>
     </g>
    </g>
    <g id="xtick_9">
     <g id="line2d_31">
      <path clip-path="url(#pba855efe5f)" d="M 534.040973 384 
L 534.040973 3 
" style="fill:none;stroke:#000000;stroke-dasharray:1.000000,3.000000;stroke-dashoffset:0.0;stroke-width:0.5;"/>
     </g>
     <g id="line2d_32">
      <g>
       <use style="stroke:#000000;stroke-width:0.5;" x="534.0409726231461" xlink:href="#m27ccc1c1e3" y="384.0"/>
      </g>
     </g>
     <g id="line2d_33">
      <g>
       <use style="stroke:#000000;stroke-width:0.5;" x="534.0409726231461" xlink:href="#md07456ec6f" y="3.0"/>
      </g>
     </g>
     <g id="text_8">
      <!-- 8 -->
      <defs>
       <path d="M 31.78125 34.625 
Q 24.75 34.625 20.71875 30.859375 
Q 16.703125 27.09375 16.703125 20.515625 
Q 16.703125 13.921875 20.71875 10.15625 
Q 24.75 6.390625 31.78125 6.390625 
Q 38.8125 6.390625 42.859375 10.171875 
Q 46.921875 13.96875 46.921875 20.515625 
Q 46.921875 27.09375 42.890625 30.859375 
Q 38.875 34.625 31.78125 34.625 
M 21.921875 38.8125 
Q 15.578125 40.375 12.03125 44.71875 
Q 8.5 49.078125 8.5 55.328125 
Q 8.5 64.0625 14.71875 69.140625 
Q 20.953125 74.21875 31.78125 74.21875 
Q 42.671875 74.21875 48.875 69.140625 
Q 55.078125 64.0625 55.078125 55.328125 
Q 55.078125 49.078125 51.53125 44.71875 
Q 48 40.375 41.703125 38.8125 
Q 48.828125 37.15625 52.796875 32.3125 
Q 56.78125 27.484375 56.78125 20.515625 
Q 56.78125 9.90625 50.3125 4.234375 
Q 43.84375 -1.421875 31.78125 -1.421875 
Q 19.734375 -1.421875 13.25 4.234375 
Q 6.78125 9.90625 6.78125 20.515625 
Q 6.78125 27.484375 10.78125 32.3125 
Q 14.796875 37.15625 21.921875 38.8125 
M 18.3125 54.390625 
Q 18.3125 48.734375 21.84375 45.5625 
Q 25.390625 42.390625 31.78125 42.390625 
Q 38.140625 42.390625 41.71875 45.5625 
Q 45.3125 48.734375 45.3125 54.390625 
Q 45.3125 60.0625 41.71875 63.234375 
Q 38.140625 66.40625 31.78125 66.40625 
Q 25.390625 66.40625 21.84375 63.234375 
Q 18.3125 60.0625 18.3125 54.390625 
" id="BitstreamVeraSans-Roman-38"/>
      </defs>
      <g transform="translate(527.6784726231461 403.196875)scale(0.2 -0.2)">
       <use xlink:href="#BitstreamVeraSans-Roman-38"/>
      </g>
     </g>
    </g>
    <g id="xtick_10"/>
    <g id="xtick_11">
     <g id="line2d_34">
      <defs>
       <path d="M 0 0 
L 0 -2 
" id="m98c21d28d0" style="stroke:#000000;stroke-width:0.5;"/>
      </defs>
      <g>
       <use style="stroke:#000000;stroke-width:0.5;" x="69.25458934719217" xlink:href="#m98c21d28d0" y="384.0"/>
      </g>
     </g>
     <g id="line2d_35">
      <defs>
       <path d="M 0 0 
L 0 2 
" id="m6a07c7bfd6" style="stroke:#000000;stroke-width:0.5;"/>
      </defs>
      <g>
       <use style="stroke:#000000;stroke-width:0.5;" x="69.25458934719217" xlink:href="#m6a07c7bfd6" y="3.0"/>
      </g>
     </g>
    </g>
    <g id="xtick_12">
     <g id="line2d_36">
      <g>
       <use style="stroke:#000000;stroke-width:0.5;" x="135.65264410089986" xlink:href="#m98c21d28d0" y="384.0"/>
      </g>
     </g>
     <g id="line2d_37">
      <g>
       <use style="stroke:#000000;stroke-width:0.5;" x="135.65264410089986" xlink:href="#m6a07c7bfd6" y="3.0"/>
      </g>
     </g>
    </g>
    <g id="xtick_13">
     <g id="line2d_38">
      <g>
       <use style="stroke:#000000;stroke-width:0.5;" x="202.0506988546076" xlink:href="#m98c21d28d0" y="384.0"/>
      </g>
     </g>
     <g id="line2d_39">
      <g>
       <use style="stroke:#000000;stroke-width:0.5;" x="202.0506988546076" xlink:href="#m6a07c7bfd6" y="3.0"/>
      </g>
     </g>
    </g>
    <g id="xtick_14">
     <g id="line2d_40">
      <g>
       <use style="stroke:#000000;stroke-width:0.5;" x="268.4487536083153" xlink:href="#m98c21d28d0" y="384.0"/>
      </g>
     </g>
     <g id="line2d_41">
      <g>
       <use style="stroke:#000000;stroke-width:0.5;" x="268.4487536083153" xlink:href="#m6a07c7bfd6" y="3.0"/>
      </g>
     </g>
    </g>
    <g id="xtick_15">
     <g id="line2d_42">
      <g>
       <use style="stroke:#000000;stroke-width:0.5;" x="334.846808362023" xlink:href="#m98c21d28d0" y="384.0"/>
      </g>
     </g>
     <g id="line2d_43">
      <g>
       <use style="stroke:#000000;stroke-width:0.5;" x="334.846808362023" xlink:href="#m6a07c7bfd6" y="3.0"/>
      </g>
     </g>
    </g>
    <g id="xtick_16">
     <g id="line2d_44">
      <g>
       <use style="stroke:#000000;stroke-width:0.5;" x="401.2448631157307" xlink:href="#m98c21d28d0" y="384.0"/>
      </g>
     </g>
     <g id="line2d_45">
      <g>
       <use style="stroke:#000000;stroke-width:0.5;" x="401.2448631157307" xlink:href="#m6a07c7bfd6" y="3.0"/>
      </g>
     </g>
    </g>
    <g id="xtick_17">
     <g id="line2d_46">
      <g>
       <use style="stroke:#000000;stroke-width:0.5;" x="467.6429178694384" xlink:href="#m98c21d28d0" y="384.0"/>
      </g>
     </g>
     <g id="line2d_47">
      <g>
       <use style="stroke:#000000;stroke-width:0.5;" x="467.6429178694384" xlink:href="#m6a07c7bfd6" y="3.0"/>
      </g>
     </g>
    </g>
    <g id="xtick_18">
     <g id="line2d_48">
      <g>
       <use style="stroke:#000000;stroke-width:0.5;" x="534.0409726231461" xlink:href="#m98c21d28d0" y="384.0"/>
      </g>
     </g>
     <g id="line2d_49">
      <g>
       <use style="stroke:#000000;stroke-width:0.5;" x="534.0409726231461" xlink:href="#m6a07c7bfd6" y="3.0"/>
      </g>
     </g>
    </g>
    <g id="text_9">
     <!-- log10 of Df -->
     <defs>
      <path id="BitstreamVeraSans-Roman-20"/>
      <path d="M 12.40625 8.296875 
L 28.515625 8.296875 
L 28.515625 63.921875 
L 10.984375 60.40625 
L 10.984375 69.390625 
L 28.421875 72.90625 
L 38.28125 72.90625 
L 38.28125 8.296875 
L 54.390625 8.296875 
L 54.390625 0 
L 12.40625 0 
z
" id="BitstreamVeraSans-Roman-31"/>
      <path d="M 30.609375 48.390625 
Q 23.390625 48.390625 19.1875 42.75 
Q 14.984375 37.109375 14.984375 27.296875 
Q 14.984375 17.484375 19.15625 11.84375 
Q 23.34375 6.203125 30.609375 6.203125 
Q 37.796875 6.203125 41.984375 11.859375 
Q 46.1875 17.53125 46.1875 27.296875 
Q 46.1875 37.015625 41.984375 42.703125 
Q 37.796875 48.390625 30.609375 48.390625 
M 30.609375 56 
Q 42.328125 56 49.015625 48.375 
Q 55.71875 40.765625 55.71875 27.296875 
Q 55.71875 13.875 49.015625 6.21875 
Q 42.328125 -1.421875 30.609375 -1.421875 
Q 18.84375 -1.421875 12.171875 6.21875 
Q 5.515625 13.875 5.515625 27.296875 
Q 5.515625 40.765625 12.171875 48.375 
Q 18.84375 56 30.609375 56 
" id="BitstreamVeraSans-Roman-6f"/>
      <path d="M 9.421875 75.984375 
L 18.40625 75.984375 
L 18.40625 0 
L 9.421875 0 
z
" id="BitstreamVeraSans-Roman-6c"/>
      <path d="M 19.671875 64.796875 
L 19.671875 8.109375 
L 31.59375 8.109375 
Q 46.6875 8.109375 53.6875 14.9375 
Q 60.6875 21.78125 60.6875 36.53125 
Q 60.6875 51.171875 53.6875 57.984375 
Q 46.6875 64.796875 31.59375 64.796875 
z
M 9.8125 72.90625 
L 30.078125 72.90625 
Q 51.265625 72.90625 61.171875 64.09375 
Q 71.09375 55.28125 71.09375 36.53125 
Q 71.09375 17.671875 61.125 8.828125 
Q 51.171875 0 30.078125 0 
L 9.8125 0 
z
" id="BitstreamVeraSans-Roman-44"/>
      <path d="M 45.40625 27.984375 
Q 45.40625 37.75 41.375 43.109375 
Q 37.359375 48.484375 30.078125 48.484375 
Q 22.859375 48.484375 18.828125 43.109375 
Q 14.796875 37.75 14.796875 27.984375 
Q 14.796875 18.265625 18.828125 12.890625 
Q 22.859375 7.515625 30.078125 7.515625 
Q 37.359375 7.515625 41.375 12.890625 
Q 45.40625 18.265625 45.40625 27.984375 
M 54.390625 6.78125 
Q 54.390625 -7.171875 48.1875 -13.984375 
Q 42 -20.796875 29.203125 -20.796875 
Q 24.46875 -20.796875 20.265625 -20.09375 
Q 16.0625 -19.390625 12.109375 -17.921875 
L 12.109375 -9.1875 
Q 16.0625 -11.328125 19.921875 -12.34375 
Q 23.78125 -13.375 27.78125 -13.375 
Q 36.625 -13.375 41.015625 -8.765625 
Q 45.40625 -4.15625 45.40625 5.171875 
L 45.40625 9.625 
Q 42.625 4.78125 38.28125 2.390625 
Q 33.9375 0 27.875 0 
Q 17.828125 0 11.671875 7.65625 
Q 5.515625 15.328125 5.515625 27.984375 
Q 5.515625 40.671875 11.671875 48.328125 
Q 17.828125 56 27.875 56 
Q 33.9375 56 38.28125 53.609375 
Q 42.625 51.21875 45.40625 46.390625 
L 45.40625 54.6875 
L 54.390625 54.6875 
z
" id="BitstreamVeraSans-Roman-67"/>
      <path d="M 37.109375 75.984375 
L 37.109375 68.5 
L 28.515625 68.5 
Q 23.6875 68.5 21.796875 66.546875 
Q 19.921875 64.59375 19.921875 59.515625 
L 19.921875 54.6875 
L 34.71875 54.6875 
L 34.71875 47.703125 
L 19.921875 47.703125 
L 19.921875 0 
L 10.890625 0 
L 10.890625 47.703125 
L 2.296875 47.703125 
L 2.296875 54.6875 
L 10.890625 54.6875 
L 10.890625 58.5 
Q 10.890625 67.625 15.140625 71.796875 
Q 19.390625 75.984375 28.609375 75.984375 
z
" id="BitstreamVeraSans-Roman-66"/>
     </defs>
     <g transform="translate(229.9340625 427.55312499999997)scale(0.2 -0.2)">
      <use xlink:href="#BitstreamVeraSans-Roman-6c"/>
      <use x="27.783203125" xlink:href="#BitstreamVeraSans-Roman-6f"/>
      <use x="88.96484375" xlink:href="#BitstreamVeraSans-Roman-67"/>
      <use x="152.44140625" xlink:href="#BitstreamVeraSans-Roman-31"/>
      <use x="216.064453125" xlink:href="#BitstreamVeraSans-Roman-30"/>
      <use x="279.6875" xlink:href="#BitstreamVeraSans-Roman-20"/>
      <use x="311.474609375" xlink:href="#BitstreamVeraSans-Roman-6f"/>
      <use x="372.65625" xlink:href="#BitstreamVeraSans-Roman-66"/>
      <use x="407.861328125" xlink:href="#BitstreamVeraSans-Roman-20"/>
      <use x="439.6484375" xlink:href="#BitstreamVeraSans-Roman-44"/>
      <use x="516.650390625" xlink:href="#BitstreamVeraSans-Roman-66"/>
     </g>
    </g>
   </g>
   <g id="matplotlib.axis_2">
    <g id="ytick_1">
     <g id="line2d_50">
      <path clip-path="url(#pba855efe5f)" d="M 3 384 
L 567.24 384 
" style="fill:none;stroke:#000000;stroke-dasharray:1.000000,3.000000;stroke-dashoffset:0.0;stroke-width:0.5;"/>
     </g>
     <g id="line2d_51">
      <defs>
       <path d="M 0 0 
L 4 0 
" id="m53e28837ba" style="stroke:#000000;stroke-width:0.5;"/>
      </defs>
      <g>
       <use style="stroke:#000000;stroke-width:0.5;" x="3.0" xlink:href="#m53e28837ba" y="384.0"/>
      </g>
     </g>
     <g id="line2d_52">
      <defs>
       <path d="M 0 0 
L -4 0 
" id="me47c2de18a" style="stroke:#000000;stroke-width:0.5;"/>
      </defs>
      <g>
       <use style="stroke:#000000;stroke-width:0.5;" x="567.24" xlink:href="#me47c2de18a" y="384.0"/>
      </g>
     </g>
    </g>
    <g id="ytick_2">
     <g id="line2d_53">
      <path clip-path="url(#pba855efe5f)" d="M 3 308.554455 
L 567.24 308.554455 
" style="fill:none;stroke:#000000;stroke-dasharray:1.000000,3.000000;stroke-dashoffset:0.0;stroke-width:0.5;"/>
     </g>
     <g id="line2d_54">
      <g>
       <use style="stroke:#000000;stroke-width:0.5;" x="3.0" xlink:href="#m53e28837ba" y="308.55445544554453"/>
      </g>
     </g>
     <g id="line2d_55">
      <g>
       <use style="stroke:#000000;stroke-width:0.5;" x="567.24" xlink:href="#me47c2de18a" y="308.55445544554453"/>
      </g>
     </g>
    </g>
    <g id="ytick_3">
     <g id="line2d_56">
      <path clip-path="url(#pba855efe5f)" d="M 3 233.108911 
L 567.24 233.108911 
" style="fill:none;stroke:#000000;stroke-dasharray:1.000000,3.000000;stroke-dashoffset:0.0;stroke-width:0.5;"/>
     </g>
     <g id="line2d_57">
      <g>
       <use style="stroke:#000000;stroke-width:0.5;" x="3.0" xlink:href="#m53e28837ba" y="233.1089108910891"/>
      </g>
     </g>
     <g id="line2d_58">
      <g>
       <use style="stroke:#000000;stroke-width:0.5;" x="567.24" xlink:href="#me47c2de18a" y="233.1089108910891"/>
      </g>
     </g>
    </g>
    <g id="ytick_4">
     <g id="line2d_59">
      <path clip-path="url(#pba855efe5f)" d="M 3 157.663366 
L 567.24 157.663366 
" style="fill:none;stroke:#000000;stroke-dasharray:1.000000,3.000000;stroke-dashoffset:0.0;stroke-width:0.5;"/>
     </g>
     <g id="line2d_60">
      <g>
       <use style="stroke:#000000;stroke-width:0.5;" x="3.0" xlink:href="#m53e28837ba" y="157.66336633663363"/>
      </g>
     </g>
     <g id="line2d_61">
      <g>
       <use style="stroke:#000000;stroke-width:0.5;" x="567.24" xlink:href="#me47c2de18a" y="157.66336633663363"/>
      </g>
     </g>
    </g>
    <g id="ytick_5">
     <g id="line2d_62">
      <path clip-path="url(#pba855efe5f)" d="M 3 82.217822 
L 567.24 82.217822 
" style="fill:none;stroke:#000000;stroke-dasharray:1.000000,3.000000;stroke-dashoffset:0.0;stroke-width:0.5;"/>
     </g>
     <g id="line2d_63">
      <g>
       <use style="stroke:#000000;stroke-width:0.5;" x="3.0" xlink:href="#m53e28837ba" y="82.21782178217819"/>
      </g>
     </g>
     <g id="line2d_64">
      <g>
       <use style="stroke:#000000;stroke-width:0.5;" x="567.24" xlink:href="#me47c2de18a" y="82.21782178217819"/>
      </g>
     </g>
    </g>
    <g id="ytick_6">
     <g id="line2d_65">
      <path clip-path="url(#pba855efe5f)" d="M 3 6.772277 
L 567.24 6.772277 
" style="fill:none;stroke:#000000;stroke-dasharray:1.000000,3.000000;stroke-dashoffset:0.0;stroke-width:0.5;"/>
     </g>
     <g id="line2d_66">
      <g>
       <use style="stroke:#000000;stroke-width:0.5;" x="3.0" xlink:href="#m53e28837ba" y="6.772277227722782"/>
      </g>
     </g>
     <g id="line2d_67">
      <g>
       <use style="stroke:#000000;stroke-width:0.5;" x="567.24" xlink:href="#me47c2de18a" y="6.772277227722782"/>
      </g>
     </g>
    </g>
   </g>
   <g id="text_10">
    <!-- {f20-f24}, 20-D -->
    <defs>
     <path d="M 12.5 -9.28125 
L 15.921875 -9.28125 
Q 22.75 -9.28125 24.828125 -7.171875 
Q 26.90625 -5.078125 26.90625 1.90625 
L 26.90625 14.015625 
Q 26.90625 21.625 29.09375 25.09375 
Q 31.296875 28.5625 36.71875 29.890625 
Q 31.296875 31.109375 29.09375 34.5625 
Q 26.90625 38.03125 26.90625 45.703125 
L 26.90625 57.8125 
Q 26.90625 64.75 24.828125 66.875 
Q 22.75 69 15.921875 69 
L 12.5 69 
L 12.5 75.984375 
L 15.578125 75.984375 
Q 27.734375 75.984375 31.8125 72.390625 
Q 35.890625 68.796875 35.890625 58.015625 
L 35.890625 46.296875 
Q 35.890625 39.015625 38.515625 36.203125 
Q 41.15625 33.40625 48.09375 33.40625 
L 51.125 33.40625 
L 51.125 26.421875 
L 48.09375 26.421875 
Q 41.15625 26.421875 38.515625 23.578125 
Q 35.890625 20.75 35.890625 13.375 
L 35.890625 1.703125 
Q 35.890625 -9.078125 31.8125 -12.6875 
Q 27.734375 -16.3125 15.578125 -16.3125 
L 12.5 -16.3125 
z
" id="BitstreamVeraSans-Roman-7d"/>
     <path d="M 51.125 -9.28125 
L 51.125 -16.3125 
L 48.09375 -16.3125 
Q 35.9375 -16.3125 31.8125 -12.6875 
Q 27.6875 -9.078125 27.6875 1.703125 
L 27.6875 13.375 
Q 27.6875 20.75 25.046875 23.578125 
Q 22.40625 26.421875 15.484375 26.421875 
L 12.5 26.421875 
L 12.5 33.40625 
L 15.484375 33.40625 
Q 22.46875 33.40625 25.078125 36.203125 
Q 27.6875 39.015625 27.6875 46.296875 
L 27.6875 58.015625 
Q 27.6875 68.796875 31.8125 72.390625 
Q 35.9375 75.984375 48.09375 75.984375 
L 51.125 75.984375 
L 51.125 69 
L 47.796875 69 
Q 40.921875 69 38.8125 66.84375 
Q 36.71875 64.703125 36.71875 57.8125 
L 36.71875 45.703125 
Q 36.71875 38.03125 34.5 34.5625 
Q 32.28125 31.109375 26.90625 29.890625 
Q 32.328125 28.5625 34.515625 25.09375 
Q 36.71875 21.625 36.71875 14.015625 
L 36.71875 1.90625 
Q 36.71875 -4.984375 38.8125 -7.125 
Q 40.921875 -9.28125 47.796875 -9.28125 
z
" id="BitstreamVeraSans-Roman-7b"/>
     <path d="M 11.71875 12.40625 
L 22.015625 12.40625 
L 22.015625 4 
L 14.015625 -11.625 
L 7.71875 -11.625 
L 11.71875 4 
z
" id="BitstreamVeraSans-Roman-2c"/>
    </defs>
    <g transform="translate(397.5302 376.38)scale(0.2 -0.2)">
     <use xlink:href="#BitstreamVeraSans-Roman-7b"/>
     <use x="63.623046875" xlink:href="#BitstreamVeraSans-Roman-66"/>
     <use x="98.828125" xlink:href="#BitstreamVeraSans-Roman-32"/>
     <use x="162.451171875" xlink:href="#BitstreamVeraSans-Roman-30"/>
     <use x="226.07421875" xlink:href="#BitstreamVeraSans-Roman-2d"/>
     <use x="262.158203125" xlink:href="#BitstreamVeraSans-Roman-66"/>
     <use x="297.36328125" xlink:href="#BitstreamVeraSans-Roman-32"/>
     <use x="360.986328125" xlink:href="#BitstreamVeraSans-Roman-34"/>
     <use x="424.609375" xlink:href="#BitstreamVeraSans-Roman-7d"/>
     <use x="488.232421875" xlink:href="#BitstreamVeraSans-Roman-2c"/>
     <use x="520.01953125" xlink:href="#BitstreamVeraSans-Roman-20"/>
     <use x="551.806640625" xlink:href="#BitstreamVeraSans-Roman-32"/>
     <use x="615.4296875" xlink:href="#BitstreamVeraSans-Roman-30"/>
     <use x="679.052734375" xlink:href="#BitstreamVeraSans-Roman-2d"/>
     <use x="715.13671875" xlink:href="#BitstreamVeraSans-Roman-44"/>
    </g>
   </g>
   <g id="text_11">
    <!-- v2.2.1.10 -->
    <defs>
     <path d="M 2.984375 54.6875 
L 12.5 54.6875 
L 29.59375 8.796875 
L 46.6875 54.6875 
L 56.203125 54.6875 
L 35.6875 0 
L 23.484375 0 
z
" id="BitstreamVeraSans-Roman-76"/>
     <path d="M 10.6875 12.40625 
L 21 12.40625 
L 21 0 
L 10.6875 0 
z
" id="BitstreamVeraSans-Roman-2e"/>
    </defs>
    <g style="fill:#808080;" transform="translate(261.4871875 378.11031249999996)scale(0.1 -0.1)">
     <use xlink:href="#BitstreamVeraSans-Roman-76"/>
     <use x="59.1796875" xlink:href="#BitstreamVeraSans-Roman-32"/>
     <use x="122.802734375" xlink:href="#BitstreamVeraSans-Roman-2e"/>
     <use x="154.58984375" xlink:href="#BitstreamVeraSans-Roman-32"/>
     <use x="218.212890625" xlink:href="#BitstreamVeraSans-Roman-2e"/>
     <use x="250.0" xlink:href="#BitstreamVeraSans-Roman-31"/>
     <use x="313.623046875" xlink:href="#BitstreamVeraSans-Roman-2e"/>
     <use x="345.41015625" xlink:href="#BitstreamVeraSans-Roman-31"/>
     <use x="409.033203125" xlink:href="#BitstreamVeraSans-Roman-30"/>
    </g>
   </g>
  </g>
 </g>
 <defs>
  <clipPath id="pba855efe5f">
   <rect height="381.0" width="564.24" x="3.0" y="3.0"/>
  </clipPath>
 </defs>
</svg>
