<?xml version="1.0" encoding="utf-8" standalone="no"?>
<!DOCTYPE svg PUBLIC "-//W3C//DTD SVG 1.1//EN"
  "http://www.w3.org/Graphics/SVG/1.1/DTD/svg11.dtd">
<!-- Created with matplotlib (http://matplotlib.org/) -->
<svg height="432pt" version="1.1" viewBox="0 0 576 432" width="576pt" xmlns="http://www.w3.org/2000/svg" xmlns:xlink="http://www.w3.org/1999/xlink">
 <defs>
  <style type="text/css">
*{stroke-linecap:butt;stroke-linejoin:round;stroke-miterlimit:100000;}
  </style>
 </defs>
 <g id="figure_1">
  <g id="patch_1">
   <path d="M 0 432 
L 576 432 
L 576 0 
L 0 0 
z
" style="fill:#ffffff;"/>
  </g>
  <g id="axes_1">
   <g id="patch_2">
    <path d="M 3 384 
L 567.24 384 
L 567.24 3 
L 3 3 
z
" style="fill:#ffffff;"/>
   </g>
   <g id="line2d_1">
    <path clip-path="url(#p9a30001580)" d="M -1 233.108911 
L 117.574496 233.108911 
L 117.574496 228.079208 
L 117.69837 228.079208 
L 117.69837 223.049505 
L 118.493389 223.049505 
L 118.556995 207.960396 
L 118.854648 207.960396 
L 118.854648 202.930693 
L 119.080313 202.930693 
L 119.080313 197.90099 
L 119.438263 197.90099 
L 119.442759 187.841584 
L 119.720113 187.841584 
L 119.720113 182.811881 
L 119.847876 182.811881 
L 119.847876 177.782178 
L 120.115396 177.782178 
L 120.2178 167.722772 
L 120.289071 167.722772 
L 120.289071 162.693069 
L 120.774369 162.693069 
L 120.774369 157.663366 
L 288.363695 157.663366 
L 288.363695 142.574257 
L 291.581013 142.574257 
L 291.581013 102.336634 
L 294.209753 102.336634 
L 294.209753 87.247525 
L 296.432322 87.247525 
L 296.432322 82.217822 
L 301.574916 82.217822 
L 301.574916 67.128713 
L 302.949113 67.128713 
L 302.949113 26.891089 
L 304.203656 26.891089 
L 304.203656 6.772277 
L 304.203656 6.772277 
L 567.24 6.772277 
L 567.24 6.772277 
" style="fill:none;stroke:#ff0000;stroke-linecap:square;stroke-width:3.0;"/>
   </g>
   <g id="line2d_2">
    <path clip-path="url(#p9a30001580)" d="M 333.619694 384 
L 333.619694 378.970297 
L 333.619694 378.970297 
L 333.619694 378.970297 
L 333.663327 378.970297 
L 333.663327 373.940594 
L 336.642382 373.940594 
L 336.642382 368.910891 
L 336.836844 368.910891 
L 336.836844 363.881188 
L 337.131231 363.881188 
L 337.131231 358.851485 
L 337.537914 358.851485 
L 337.537914 353.821782 
L 338.471163 353.821782 
L 338.471163 348.792079 
L 338.674628 348.792079 
L 338.674628 343.762376 
L 339.050046 343.762376 
L 339.050046 338.732673 
L 339.381798 338.732673 
L 339.381798 333.70297 
L 340.258579 333.70297 
L 340.258579 328.673267 
L 341.832297 328.673267 
L 341.832297 323.643564 
L 342.296261 323.643564 
L 342.296261 318.613861 
L 342.791583 318.613861 
L 342.868339 308.554455 
L 348.099602 308.554455 
L 348.099602 303.524752 
L 350.098127 303.524752 
L 350.098127 298.49505 
L 350.417659 298.49505 
L 350.417659 293.465347 
L 350.711482 293.465347 
L 350.738525 283.405941 
L 351.060095 283.405941 
L 351.060095 278.376238 
L 351.256549 278.376238 
L 351.331093 268.316832 
L 351.763526 268.316832 
L 351.763526 263.287129 
L 352.186044 263.287129 
L 352.223873 253.227723 
L 352.346942 253.227723 
L 352.434019 243.168317 
L 352.877455 243.168317 
L 352.963701 233.108911 
L 357.726634 233.108911 
L 357.726634 228.079208 
L 358.561424 228.079208 
L 358.561424 223.049505 
L 361.85841 223.049505 
L 361.937865 212.990099 
L 364.505672 212.990099 
L 364.505672 207.960396 
L 364.657001 207.960396 
L 364.741913 197.90099 
L 364.864294 197.90099 
L 364.864294 192.871287 
L 365.406351 192.871287 
L 365.517191 182.811881 
L 365.695055 182.811881 
L 365.734 172.752475 
L 366.070304 172.752475 
L 366.070304 167.722772 
L 366.365715 167.722772 
L 366.365715 162.693069 
L 367.377921 162.693069 
L 367.456868 152.633663 
L 367.636877 152.633663 
L 367.636877 147.60396 
L 367.788422 147.60396 
L 367.788422 142.574257 
L 368.293955 142.574257 
L 368.37131 132.514851 
L 368.460199 132.514851 
L 368.460199 127.485149 
L 369.020184 127.485149 
L 369.020184 122.455446 
L 369.281165 122.455446 
L 369.281165 117.425743 
L 369.594126 117.425743 
L 369.633255 107.366337 
L 370.190944 107.366337 
L 370.190944 102.336634 
L 370.443603 102.336634 
L 370.443603 97.306931 
L 372.692621 97.306931 
L 372.692621 92.277228 
L 377.847259 92.277228 
L 377.847259 87.247525 
L 381.080952 87.247525 
L 381.080952 82.217822 
L 465.811195 82.217822 
L 465.811195 77.188119 
L 475.12752 77.188119 
L 475.12752 72.158416 
L 479.783374 72.158416 
L 479.783374 67.128713 
L 480.404048 67.128713 
L 480.408566 57.069307 
L 481.383357 57.069307 
L 481.383357 52.039604 
L 482.453087 52.039604 
L 482.453087 47.009901 
L 484.771533 47.009901 
L 484.771533 41.980198 
L 490.665255 41.980198 
L 490.665255 36.950495 
L 492.308986 36.950495 
L 492.308986 31.920792 
L 496.254427 31.920792 
L 496.254427 26.891089 
L 498.663115 26.891089 
L 498.663115 21.861386 
L 500.041788 21.861386 
L 500.041788 16.831683 
L 502.447178 16.831683 
L 502.447178 11.80198 
L 503.892509 11.80198 
L 503.892509 6.772277 
L 503.892509 6.772277 
L 567.24 6.772277 
L 567.24 6.772277 
" style="fill:none;stroke:#00bfbf;stroke-linecap:square;"/>
   </g>
   <g id="line2d_3">
    <path clip-path="url(#p9a30001580)" d="M 333.619694 384 
L 333.619694 378.970297 
L 333.619694 378.970297 
L 333.619694 378.970297 
L 333.663327 378.970297 
L 333.663327 373.940594 
L 335.354773 373.940594 
L 335.354773 368.910891 
L 336.107346 368.910891 
L 336.107346 363.881188 
L 336.314665 363.881188 
L 336.368173 353.821782 
L 336.642382 353.821782 
L 336.642382 348.792079 
L 336.836844 348.792079 
L 336.836844 343.762376 
L 337.131231 343.762376 
L 337.131231 338.732673 
L 337.658961 338.732673 
L 337.658961 333.70297 
L 338.674628 333.70297 
L 338.674628 328.673267 
L 339.050046 328.673267 
L 339.050046 323.643564 
L 339.381798 323.643564 
L 339.381798 318.613861 
L 340.099321 318.613861 
L 340.099321 313.584158 
L 342.296261 313.584158 
L 342.296261 308.554455 
L 348.099602 308.554455 
L 348.099602 303.524752 
L 348.811804 303.524752 
L 348.811804 298.49505 
L 349.615089 298.49505 
L 349.615089 293.465347 
L 350.017919 293.465347 
L 350.098127 283.405941 
L 350.152254 283.405941 
L 350.152254 278.376238 
L 350.404697 278.376238 
L 350.435661 263.287129 
L 350.711482 263.287129 
L 350.738525 253.227723 
L 351.331093 253.227723 
L 351.331093 248.19802 
L 351.763526 248.19802 
L 351.843806 238.138614 
L 352.013841 238.138614 
L 352.013841 233.108911 
L 356.547877 233.108911 
L 356.547877 228.079208 
L 357.568368 228.079208 
L 357.568368 223.049505 
L 357.726634 223.049505 
L 357.726634 218.019802 
L 358.157212 218.019802 
L 358.157212 212.990099 
L 358.561424 212.990099 
L 358.561424 207.960396 
L 359.476222 207.960396 
L 359.476222 202.930693 
L 359.77012 202.930693 
L 359.77012 197.90099 
L 361.412347 197.90099 
L 361.412347 192.871287 
L 361.831978 192.871287 
L 361.831978 187.841584 
L 362.45073 187.841584 
L 362.45073 182.811881 
L 362.762363 182.811881 
L 362.762363 177.782178 
L 364.505672 177.782178 
L 364.505672 172.752475 
L 364.741913 172.752475 
L 364.741913 167.722772 
L 364.864294 167.722772 
L 364.864294 162.693069 
L 365.171166 162.693069 
L 365.171166 157.663366 
L 365.394428 157.663366 
L 365.394428 152.633663 
L 365.734 152.633663 
L 365.734 147.60396 
L 367.189464 147.60396 
L 367.215392 137.544554 
L 367.336273 137.544554 
L 367.377921 127.485149 
L 367.456868 127.485149 
L 367.456868 122.455446 
L 367.788422 122.455446 
L 367.788422 117.425743 
L 368.351364 117.425743 
L 368.351364 112.39604 
L 369.020184 112.39604 
L 369.101734 102.336634 
L 369.281165 102.336634 
L 369.281165 97.306931 
L 369.633255 97.306931 
L 369.633255 92.277228 
L 370.052519 92.277228 
L 370.052519 87.247525 
L 372.645431 87.247525 
L 372.645431 82.217822 
L 465.811195 82.217822 
L 465.811195 77.188119 
L 475.12752 77.188119 
L 475.12752 72.158416 
L 477.23778 72.158416 
L 477.23778 67.128713 
L 478.60201 67.128713 
L 478.60201 62.09901 
L 479.783374 62.09901 
L 479.783374 57.069307 
L 480.404048 57.069307 
L 480.408566 47.009901 
L 481.383357 47.009901 
L 481.383357 41.980198 
L 484.573645 41.980198 
L 484.573645 36.950495 
L 484.771533 36.950495 
L 484.771533 31.920792 
L 487.260185 31.920792 
L 487.260185 26.891089 
L 492.308986 26.891089 
L 492.308986 21.861386 
L 495.129433 21.861386 
L 495.129433 16.831683 
L 497.037733 16.831683 
L 497.037733 11.80198 
L 498.663115 11.80198 
L 498.663115 6.772277 
L 498.663115 6.772277 
L 567.24 6.772277 
L 567.24 6.772277 
" style="fill:none;stroke:#bf00bf;stroke-linecap:square;"/>
   </g>
   <g id="line2d_4">
    <path clip-path="url(#p9a30001580)" d="M 332.065997 384 
L 332.065997 378.970297 
L 332.065997 378.970297 
L 332.065997 378.970297 
L 332.078443 378.970297 
L 332.078443 373.940594 
L 333.235056 373.940594 
L 333.235056 368.910891 
L 333.380688 368.910891 
L 333.380688 363.881188 
L 333.619694 363.881188 
L 333.663327 353.821782 
L 334.122538 353.821782 
L 334.122538 348.792079 
L 334.92696 348.792079 
L 334.92696 343.762376 
L 335.286541 343.762376 
L 335.354773 333.70297 
L 335.61232 333.70297 
L 335.61232 328.673267 
L 336.451438 328.673267 
L 336.451438 323.643564 
L 337.473717 323.643564 
L 337.473717 318.613861 
L 337.658961 318.613861 
L 337.658961 313.584158 
L 338.47496 313.584158 
L 338.47496 308.554455 
L 348.099602 308.554455 
L 348.099602 303.524752 
L 348.811804 303.524752 
L 348.811804 298.49505 
L 349.353404 298.49505 
L 349.353404 293.465347 
L 349.6002 293.465347 
L 349.615089 283.405941 
L 349.971672 283.405941 
L 350.019122 268.316832 
L 350.098127 268.316832 
L 350.098127 263.287129 
L 350.404697 263.287129 
L 350.435661 243.168317 
L 350.541986 243.168317 
L 350.541986 238.138614 
L 350.710199 238.138614 
L 350.710199 233.108911 
L 355.856056 233.108911 
L 355.856056 228.079208 
L 356.547877 228.079208 
L 356.557499 218.019802 
L 357.496359 218.019802 
L 357.568368 207.960396 
L 357.726634 207.960396 
L 357.726634 202.930693 
L 358.157212 202.930693 
L 358.157212 197.90099 
L 358.561424 197.90099 
L 358.594098 187.841584 
L 359.476222 187.841584 
L 359.476222 182.811881 
L 359.77012 182.811881 
L 359.77012 177.782178 
L 360.722976 177.782178 
L 360.722976 172.752475 
L 361.057756 172.752475 
L 361.057756 167.722772 
L 361.341783 167.722772 
L 361.412347 157.663366 
L 361.971382 157.663366 
L 361.971382 152.633663 
L 362.098143 152.633663 
L 362.098143 147.60396 
L 362.230714 147.60396 
L 362.335345 137.544554 
L 364.04186 137.544554 
L 364.145451 127.485149 
L 364.230846 127.485149 
L 364.334232 117.425743 
L 364.428293 117.425743 
L 364.428293 112.39604 
L 364.741913 112.39604 
L 364.741913 107.366337 
L 364.864294 107.366337 
L 364.864294 102.336634 
L 365.394428 102.336634 
L 365.394428 97.306931 
L 365.601518 97.306931 
L 365.601518 92.277228 
L 365.991915 92.277228 
L 365.991915 87.247525 
L 366.69839 87.247525 
L 366.69839 82.217822 
L 465.811195 82.217822 
L 465.811195 77.188119 
L 471.984239 77.188119 
L 471.984239 72.158416 
L 473.252149 72.158416 
L 473.252149 67.128713 
L 475.002923 67.128713 
L 475.002923 62.09901 
L 475.12752 62.09901 
L 475.12752 57.069307 
L 478.60201 57.069307 
L 478.60201 52.039604 
L 479.783374 52.039604 
L 479.783374 47.009901 
L 480.404048 47.009901 
L 480.408566 36.950495 
L 482.942474 36.950495 
L 482.942474 31.920792 
L 483.11205 31.920792 
L 483.11205 26.891089 
L 484.573645 26.891089 
L 484.573645 21.861386 
L 486.666743 21.861386 
L 486.666743 16.831683 
L 487.586154 16.831683 
L 487.586154 11.80198 
L 489.171376 11.80198 
L 489.171376 6.772277 
L 489.171376 6.772277 
L 567.24 6.772277 
L 567.24 6.772277 
" style="fill:none;stroke:#000000;stroke-linecap:square;"/>
   </g>
   <g id="line2d_5">
    <path clip-path="url(#p9a30001580)" d="M 315.444527 384 
L 315.444527 378.970297 
L 316.934282 378.970297 
L 316.934282 373.940594 
L 318.1206 373.940594 
L 318.1206 368.910891 
L 320.249544 368.910891 
L 320.249544 363.881188 
L 324.466399 363.881188 
L 324.466399 358.851485 
L 325.314163 358.851485 
L 325.314163 353.821782 
L 327.119402 353.821782 
L 327.123385 343.762376 
L 327.689046 343.762376 
L 327.689046 338.732673 
L 328.595394 338.732673 
L 328.595394 333.70297 
L 328.866546 333.70297 
L 328.939693 323.643564 
L 329.526141 323.643564 
L 329.526141 318.613861 
L 329.682983 318.613861 
L 329.682983 313.584158 
L 331.671123 313.584158 
L 331.671123 308.554455 
L 344.848602 308.554455 
L 344.848602 303.524752 
L 345.32732 303.524752 
L 345.32732 298.49505 
L 345.667304 298.49505 
L 345.667304 293.465347 
L 345.9506 293.465347 
L 345.991892 283.405941 
L 346.546818 283.405941 
L 346.546818 278.376238 
L 346.693025 278.376238 
L 346.717385 268.316832 
L 346.939442 268.316832 
L 346.939442 263.287129 
L 347.316518 263.287129 
L 347.316518 258.257426 
L 347.673584 258.257426 
L 347.673584 253.227723 
L 348.011247 253.227723 
L 348.074422 238.138614 
L 348.787161 238.138614 
L 348.787161 233.108911 
L 352.103226 233.108911 
L 352.168115 223.049505 
L 352.303105 223.049505 
L 352.303105 218.019802 
L 352.890979 218.019802 
L 352.890979 212.990099 
L 353.46617 212.990099 
L 353.52725 202.930693 
L 353.768938 202.930693 
L 353.768938 197.90099 
L 354.683295 197.90099 
L 354.695288 187.841584 
L 354.870491 187.841584 
L 354.870491 182.811881 
L 355.482641 182.811881 
L 355.482641 177.782178 
L 355.600759 177.782178 
L 355.664725 167.722772 
L 356.33223 167.722772 
L 356.396465 157.663366 
L 356.4992 157.663366 
L 356.557499 147.60396 
L 357.011895 147.60396 
L 357.011895 142.574257 
L 357.209351 142.574257 
L 357.209351 137.544554 
L 357.387752 137.544554 
L 357.387752 132.514851 
L 358.29979 132.514851 
L 358.357674 122.455446 
L 358.583265 122.455446 
L 358.583265 117.425743 
L 358.837651 117.425743 
L 358.837651 112.39604 
L 359.192859 112.39604 
L 359.209405 102.336634 
L 359.325215 102.336634 
L 359.325215 97.306931 
L 360.272495 97.306931 
L 360.272495 92.277228 
L 361.175191 92.277228 
L 361.175191 87.247525 
L 361.825911 87.247525 
L 361.825911 82.217822 
L 465.811195 82.217822 
L 465.811195 77.188119 
L 466.408594 77.188119 
L 466.408594 72.158416 
L 468.714064 72.158416 
L 468.714064 67.128713 
L 469.145203 67.128713 
L 469.145203 62.09901 
L 469.492887 62.09901 
L 469.492887 57.069307 
L 469.83854 57.069307 
L 469.890349 47.009901 
L 470.094864 47.009901 
L 470.094864 41.980198 
L 470.301455 41.980198 
L 470.301455 36.950495 
L 470.850652 36.950495 
L 470.951337 26.891089 
L 472.238912 26.891089 
L 472.238912 21.861386 
L 475.41758 21.861386 
L 475.41758 16.831683 
L 479.345049 16.831683 
L 479.345049 11.80198 
L 484.573645 11.80198 
L 484.573645 6.772277 
L 484.573645 6.772277 
L 567.24 6.772277 
L 567.24 6.772277 
" style="fill:none;stroke:#00bfbf;stroke-linecap:square;"/>
   </g>
   <g id="line2d_6">
    <path clip-path="url(#p9a30001580)" d="M 278.390424 384 
L 278.390424 378.970297 
L 281.438276 378.970297 
L 281.438276 373.940594 
L 281.741631 373.940594 
L 281.741631 368.910891 
L 292.134906 368.910891 
L 292.134906 363.881188 
L 293.32775 363.881188 
L 293.32775 358.851485 
L 293.626204 358.851485 
L 293.626204 353.821782 
L 294.14517 353.821782 
L 294.14517 348.792079 
L 295.149578 348.792079 
L 295.149578 343.762376 
L 295.557114 343.762376 
L 295.557114 338.732673 
L 297.643106 338.732673 
L 297.643106 333.70297 
L 301.145877 333.70297 
L 301.145877 328.673267 
L 302.707693 328.673267 
L 302.707693 323.643564 
L 303.379335 323.643564 
L 303.379335 318.613861 
L 303.727116 318.613861 
L 303.727116 313.584158 
L 305.845967 313.584158 
L 305.845967 308.554455 
L 336.777035 308.554455 
L 336.866879 298.49505 
L 337.101534 298.49505 
L 337.101534 293.465347 
L 337.707196 293.465347 
L 337.735266 283.405941 
L 338.196068 283.405941 
L 338.196068 278.376238 
L 338.702462 278.376238 
L 338.702462 273.346535 
L 339.136212 273.346535 
L 339.136212 268.316832 
L 339.264283 268.316832 
L 339.300855 258.257426 
L 339.444419 258.257426 
L 339.444419 253.227723 
L 339.695645 253.227723 
L 339.798732 238.138614 
L 340.227832 238.138614 
L 340.227832 233.108911 
L 341.133108 233.108911 
L 341.133108 228.079208 
L 341.835073 228.079208 
L 341.835073 223.049505 
L 342.062219 223.049505 
L 342.062219 218.019802 
L 342.779138 218.019802 
L 342.876932 207.960396 
L 342.939816 207.960396 
L 342.939816 202.930693 
L 343.685007 202.930693 
L 343.685007 197.90099 
L 344.250513 197.90099 
L 344.250513 192.871287 
L 344.808433 192.871287 
L 344.808433 187.841584 
L 344.984094 187.841584 
L 344.984094 182.811881 
L 345.499206 182.811881 
L 345.499206 177.782178 
L 345.721743 177.782178 
L 345.744984 167.722772 
L 345.844789 167.722772 
L 345.844789 162.693069 
L 346.331447 162.693069 
L 346.331447 157.663366 
L 347.309019 157.663366 
L 347.309019 152.633663 
L 348.168708 152.633663 
L 348.224436 137.544554 
L 348.83805 137.544554 
L 348.83805 132.514851 
L 349.396048 132.514851 
L 349.396048 127.485149 
L 349.514211 127.485149 
L 349.591815 112.39604 
L 349.720029 112.39604 
L 349.720029 107.366337 
L 350.117675 107.366337 
L 350.17632 97.306931 
L 350.738785 97.306931 
L 350.738785 92.277228 
L 350.85219 92.277228 
L 350.85219 87.247525 
L 353.460625 87.247525 
L 353.460625 82.217822 
L 428.976018 82.217822 
L 428.976018 77.188119 
L 430.336193 77.188119 
L 430.361454 67.128713 
L 432.397381 67.128713 
L 432.397381 62.09901 
L 432.511817 62.09901 
L 432.511817 57.069307 
L 436.545641 57.069307 
L 436.545641 52.039604 
L 436.730819 52.039604 
L 436.730819 47.009901 
L 438.639848 47.009901 
L 438.639848 41.980198 
L 438.755464 41.980198 
L 438.755464 36.950495 
L 439.416551 36.950495 
L 439.416551 31.920792 
L 440.425631 31.920792 
L 440.425631 26.891089 
L 444.862814 26.891089 
L 444.862814 21.861386 
L 445.680316 21.861386 
L 445.680316 16.831683 
L 447.299146 16.831683 
L 447.299146 11.80198 
L 447.580643 11.80198 
L 447.580643 6.772277 
L 447.580643 6.772277 
L 567.24 6.772277 
L 567.24 6.772277 
" style="fill:none;stroke:#bf00bf;stroke-linecap:square;"/>
   </g>
   <g id="line2d_7">
    <path clip-path="url(#p9a30001580)" d="M 131.158075 384 
L 131.158075 378.970297 
L 133.867418 378.970297 
L 133.867418 373.940594 
L 138.033972 373.940594 
L 138.033972 368.910891 
L 138.924358 368.910891 
L 138.924358 363.881188 
L 141.824076 363.881188 
L 141.824076 358.851485 
L 144.011045 358.851485 
L 144.011045 353.821782 
L 144.380876 353.821782 
L 144.380876 348.792079 
L 144.707319 348.792079 
L 144.707319 343.762376 
L 145.903462 343.762376 
L 145.903462 338.732673 
L 146.449419 338.732673 
L 146.449419 333.70297 
L 146.745406 333.70297 
L 146.745406 328.673267 
L 146.93598 328.673267 
L 146.93598 323.643564 
L 150.81743 323.643564 
L 150.81743 318.613861 
L 151.598312 318.613861 
L 151.598312 313.584158 
L 155.375121 313.584158 
L 155.375121 308.554455 
L 264.214634 308.554455 
L 264.233097 293.465347 
L 264.435968 293.465347 
L 264.435968 288.435644 
L 264.990797 288.435644 
L 265.041089 278.376238 
L 265.215954 278.376238 
L 265.257598 268.316832 
L 266.129011 268.316832 
L 266.129011 263.287129 
L 267.162364 263.287129 
L 267.162364 258.257426 
L 268.036136 258.257426 
L 268.036136 253.227723 
L 268.258177 253.227723 
L 268.258177 248.19802 
L 270.396817 248.19802 
L 270.396817 243.168317 
L 278.106419 243.168317 
L 278.106419 238.138614 
L 290.374092 238.138614 
L 290.374092 233.108911 
L 300.38662 233.108911 
L 300.38662 228.079208 
L 315.760419 228.079208 
L 315.760419 223.049505 
L 316.506553 223.049505 
L 316.506553 218.019802 
L 319.697621 218.019802 
L 319.734064 207.960396 
L 322.578997 207.960396 
L 322.578997 202.930693 
L 323.483976 202.930693 
L 323.483976 197.90099 
L 324.332578 197.90099 
L 324.332578 192.871287 
L 325.937296 192.871287 
L 325.937296 187.841584 
L 326.963562 187.841584 
L 326.963562 182.811881 
L 327.32936 182.811881 
L 327.32936 177.782178 
L 327.665391 177.782178 
L 327.665391 172.752475 
L 330.602205 172.752475 
L 330.602205 167.722772 
L 331.359874 167.722772 
L 331.359874 162.693069 
L 331.492587 162.693069 
L 331.492587 157.663366 
L 331.764059 157.663366 
L 331.764059 152.633663 
L 331.893708 152.633663 
L 331.893708 147.60396 
L 332.099456 147.60396 
L 332.114878 137.544554 
L 332.679287 137.544554 
L 332.717555 127.485149 
L 332.978162 127.485149 
L 333.016678 117.425743 
L 333.297538 117.425743 
L 333.324049 107.366337 
L 333.49894 107.366337 
L 333.559742 97.306931 
L 333.624959 97.306931 
L 333.624959 92.277228 
L 333.766811 92.277228 
L 333.774326 82.217822 
L 333.897968 82.217822 
L 333.962984 57.069307 
L 334.324058 57.069307 
L 334.324058 52.039604 
L 334.629355 52.039604 
L 334.707015 41.980198 
L 334.766004 41.980198 
L 334.766004 36.950495 
L 334.927631 36.950495 
L 334.927631 31.920792 
L 335.156633 31.920792 
L 335.156633 26.891089 
L 335.315246 26.891089 
L 335.315246 21.861386 
L 335.648726 21.861386 
L 335.648726 16.831683 
L 336.966636 16.831683 
L 336.966636 11.80198 
L 338.819671 11.80198 
L 338.819671 6.772277 
L 338.819671 6.772277 
L 567.24 6.772277 
L 567.24 6.772277 
" style="fill:none;stroke:#000000;stroke-linecap:square;"/>
   </g>
   <g id="line2d_8">
    <path clip-path="url(#p9a30001580)" d="M -1 278.376238 
L -0.456117 278.376238 
L -0.456117 273.346535 
L -0.061932 273.346535 
L -0.061932 268.316832 
L 0.178622 268.316832 
L 0.178622 263.287129 
L 0.442275 263.287129 
L 0.442275 258.257426 
L 0.675746 258.257426 
L 0.675746 253.227723 
L 0.823551 253.227723 
L 0.823551 248.19802 
L 1.061554 248.19802 
L 1.061554 243.168317 
L 1.21046 243.168317 
L 1.21046 238.138614 
L 2.962547 238.138614 
L 2.962547 233.108911 
L 118.533519 233.108911 
L 118.533519 228.079208 
L 121.965312 228.079208 
L 121.965312 223.049505 
L 122.468273 223.049505 
L 122.578335 212.990099 
L 122.637383 212.990099 
L 122.637383 207.960396 
L 122.812402 207.960396 
L 122.838768 197.90099 
L 122.924283 197.90099 
L 122.941372 182.811881 
L 123.192912 182.811881 
L 123.271564 162.693069 
L 123.336022 162.693069 
L 123.336022 157.663366 
L 294.209753 157.663366 
L 294.209753 152.633663 
L 296.432322 152.633663 
L 296.432322 142.574257 
L 300.055812 142.574257 
L 300.055812 137.544554 
L 301.574916 137.544554 
L 301.574916 117.425743 
L 302.949113 117.425743 
L 302.949113 112.39604 
L 304.20365 112.39604 
L 304.203659 87.247525 
L 305.357719 87.247525 
L 305.357726 62.09901 
L 306.42622 62.09901 
L 306.426225 52.039604 
L 307.420975 52.039604 
L 307.420994 31.920792 
L 308.351496 31.920792 
L 308.351497 21.861386 
L 309.225592 21.861386 
L 309.225592 16.831683 
L 310.049711 16.831683 
L 310.049711 11.80198 
L 311.568812 11.80198 
L 311.568812 6.772277 
L 311.568812 6.772277 
L 567.24 6.772277 
L 567.24 6.772277 
" style="fill:none;stroke:#00bfbf;stroke-linecap:square;"/>
   </g>
   <g id="line2d_9">
    <path clip-path="url(#p9a30001580)" d="M -1 233.108911 
L 118.533519 233.108911 
L 118.556995 223.049505 
L 119.442759 223.049505 
L 119.442759 218.019802 
L 119.847876 218.019802 
L 119.847876 212.990099 
L 120.289071 212.990099 
L 120.289071 207.960396 
L 120.470658 207.960396 
L 120.470658 202.930693 
L 120.587035 202.930693 
L 120.587035 197.90099 
L 120.702516 197.90099 
L 120.786571 187.841584 
L 120.849749 187.841584 
L 120.849749 182.811881 
L 121.243378 182.811881 
L 121.326448 172.752475 
L 121.355416 172.752475 
L 121.355416 167.722772 
L 121.537342 167.722772 
L 121.537342 162.693069 
L 121.751668 162.693069 
L 121.751668 157.663366 
L 288.363695 157.663366 
L 288.363695 152.633663 
L 291.581013 152.633663 
L 291.581013 132.514851 
L 294.209753 132.514851 
L 294.209753 97.306931 
L 296.432322 97.306931 
L 296.432322 87.247525 
L 298.357598 87.247525 
L 298.357598 82.217822 
L 301.574916 82.217822 
L 301.574916 77.188119 
L 302.949113 77.188119 
L 302.949113 67.128713 
L 304.203656 67.128713 
L 304.203656 41.980198 
L 305.357725 41.980198 
L 305.357725 26.891089 
L 306.426225 26.891089 
L 306.426225 11.80198 
L 307.420975 11.80198 
L 307.420975 6.772277 
L 307.420975 6.772277 
L 567.24 6.772277 
L 567.24 6.772277 
" style="fill:none;stroke:#bf00bf;stroke-linecap:square;"/>
   </g>
   <g id="patch_3">
    <path d="M 3 3 
L 567.24 3 
" style="fill:none;stroke:#000000;stroke-linecap:square;stroke-linejoin:miter;"/>
   </g>
   <g id="patch_4">
    <path d="M 567.24 384 
L 567.24 3 
" style="fill:none;stroke:#000000;stroke-linecap:square;stroke-linejoin:miter;"/>
   </g>
   <g id="patch_5">
    <path d="M 3 384 
L 567.24 384 
" style="fill:none;stroke:#000000;stroke-linecap:square;stroke-linejoin:miter;"/>
   </g>
   <g id="patch_6">
    <path d="M 3 384 
L 3 3 
" style="fill:none;stroke:#000000;stroke-linecap:square;stroke-linejoin:miter;"/>
   </g>
   <g id="matplotlib.axis_1">
    <g id="xtick_1"/>
    <g id="xtick_2">
     <g id="line2d_10">
      <path clip-path="url(#p9a30001580)" d="M 69.254589 384 
L 69.254589 3 
" style="fill:none;stroke:#000000;stroke-dasharray:1.000000,3.000000;stroke-dashoffset:0.0;stroke-width:0.5;"/>
     </g>
     <g id="line2d_11">
      <defs>
       <path d="M 0 0 
L 0 -4 
" id="m3d2e1c1842" style="stroke:#000000;stroke-width:0.5;"/>
      </defs>
      <g>
       <use style="stroke:#000000;stroke-width:0.5;" x="69.25458934719217" xlink:href="#m3d2e1c1842" y="384.0"/>
      </g>
     </g>
     <g id="line2d_12">
      <defs>
       <path d="M 0 0 
L 0 4 
" id="mf64166028b" style="stroke:#000000;stroke-width:0.5;"/>
      </defs>
      <g>
       <use style="stroke:#000000;stroke-width:0.5;" x="69.25458934719217" xlink:href="#mf64166028b" y="3.0"/>
      </g>
     </g>
     <g id="text_1">
      <!-- -6 -->
      <defs>
       <path d="M 33.015625 40.375 
Q 26.375 40.375 22.484375 35.828125 
Q 18.609375 31.296875 18.609375 23.390625 
Q 18.609375 15.53125 22.484375 10.953125 
Q 26.375 6.390625 33.015625 6.390625 
Q 39.65625 6.390625 43.53125 10.953125 
Q 47.40625 15.53125 47.40625 23.390625 
Q 47.40625 31.296875 43.53125 35.828125 
Q 39.65625 40.375 33.015625 40.375 
M 52.59375 71.296875 
L 52.59375 62.3125 
Q 48.875 64.0625 45.09375 64.984375 
Q 41.3125 65.921875 37.59375 65.921875 
Q 27.828125 65.921875 22.671875 59.328125 
Q 17.53125 52.734375 16.796875 39.40625 
Q 19.671875 43.65625 24.015625 45.921875 
Q 28.375 48.1875 33.59375 48.1875 
Q 44.578125 48.1875 50.953125 41.515625 
Q 57.328125 34.859375 57.328125 23.390625 
Q 57.328125 12.15625 50.6875 5.359375 
Q 44.046875 -1.421875 33.015625 -1.421875 
Q 20.359375 -1.421875 13.671875 8.265625 
Q 6.984375 17.96875 6.984375 36.375 
Q 6.984375 53.65625 15.1875 63.9375 
Q 23.390625 74.21875 37.203125 74.21875 
Q 40.921875 74.21875 44.703125 73.484375 
Q 48.484375 72.75 52.59375 71.296875 
" id="BitstreamVeraSans-Roman-36"/>
       <path d="M 4.890625 31.390625 
L 31.203125 31.390625 
L 31.203125 23.390625 
L 4.890625 23.390625 
z
" id="BitstreamVeraSans-Roman-2d"/>
      </defs>
      <g transform="translate(59.28427684719217 403.196875)scale(0.2 -0.2)">
       <use xlink:href="#BitstreamVeraSans-Roman-2d"/>
       <use x="36.083984375" xlink:href="#BitstreamVeraSans-Roman-36"/>
      </g>
     </g>
    </g>
    <g id="xtick_3">
     <g id="line2d_13">
      <path clip-path="url(#p9a30001580)" d="M 135.652644 384 
L 135.652644 3 
" style="fill:none;stroke:#000000;stroke-dasharray:1.000000,3.000000;stroke-dashoffset:0.0;stroke-width:0.5;"/>
     </g>
     <g id="line2d_14">
      <g>
       <use style="stroke:#000000;stroke-width:0.5;" x="135.65264410089986" xlink:href="#m3d2e1c1842" y="384.0"/>
      </g>
     </g>
     <g id="line2d_15">
      <g>
       <use style="stroke:#000000;stroke-width:0.5;" x="135.65264410089986" xlink:href="#mf64166028b" y="3.0"/>
      </g>
     </g>
     <g id="text_2">
      <!-- -4 -->
      <defs>
       <path d="M 37.796875 64.3125 
L 12.890625 25.390625 
L 37.796875 25.390625 
z
M 35.203125 72.90625 
L 47.609375 72.90625 
L 47.609375 25.390625 
L 58.015625 25.390625 
L 58.015625 17.1875 
L 47.609375 17.1875 
L 47.609375 0 
L 37.796875 0 
L 37.796875 17.1875 
L 4.890625 17.1875 
L 4.890625 26.703125 
z
" id="BitstreamVeraSans-Roman-34"/>
      </defs>
      <g transform="translate(125.68233160089986 403.196875)scale(0.2 -0.2)">
       <use xlink:href="#BitstreamVeraSans-Roman-2d"/>
       <use x="36.083984375" xlink:href="#BitstreamVeraSans-Roman-34"/>
      </g>
     </g>
    </g>
    <g id="xtick_4">
     <g id="line2d_16">
      <path clip-path="url(#p9a30001580)" d="M 202.050699 384 
L 202.050699 3 
" style="fill:none;stroke:#000000;stroke-dasharray:1.000000,3.000000;stroke-dashoffset:0.0;stroke-width:0.5;"/>
     </g>
     <g id="line2d_17">
      <g>
       <use style="stroke:#000000;stroke-width:0.5;" x="202.0506988546076" xlink:href="#m3d2e1c1842" y="384.0"/>
      </g>
     </g>
     <g id="line2d_18">
      <g>
       <use style="stroke:#000000;stroke-width:0.5;" x="202.0506988546076" xlink:href="#mf64166028b" y="3.0"/>
      </g>
     </g>
     <g id="text_3">
      <!-- -2 -->
      <defs>
       <path d="M 19.1875 8.296875 
L 53.609375 8.296875 
L 53.609375 0 
L 7.328125 0 
L 7.328125 8.296875 
Q 12.9375 14.109375 22.625 23.890625 
Q 32.328125 33.6875 34.8125 36.53125 
Q 39.546875 41.84375 41.421875 45.53125 
Q 43.3125 49.21875 43.3125 52.78125 
Q 43.3125 58.59375 39.234375 62.25 
Q 35.15625 65.921875 28.609375 65.921875 
Q 23.96875 65.921875 18.8125 64.3125 
Q 13.671875 62.703125 7.8125 59.421875 
L 7.8125 69.390625 
Q 13.765625 71.78125 18.9375 73 
Q 24.125 74.21875 28.421875 74.21875 
Q 39.75 74.21875 46.484375 68.546875 
Q 53.21875 62.890625 53.21875 53.421875 
Q 53.21875 48.921875 51.53125 44.890625 
Q 49.859375 40.875 45.40625 35.40625 
Q 44.1875 33.984375 37.640625 27.21875 
Q 31.109375 20.453125 19.1875 8.296875 
" id="BitstreamVeraSans-Roman-32"/>
      </defs>
      <g transform="translate(192.08038635460758 403.196875)scale(0.2 -0.2)">
       <use xlink:href="#BitstreamVeraSans-Roman-2d"/>
       <use x="36.083984375" xlink:href="#BitstreamVeraSans-Roman-32"/>
      </g>
     </g>
    </g>
    <g id="xtick_5">
     <g id="line2d_19">
      <path clip-path="url(#p9a30001580)" d="M 268.448754 384 
L 268.448754 3 
" style="fill:none;stroke:#000000;stroke-dasharray:1.000000,3.000000;stroke-dashoffset:0.0;stroke-width:0.5;"/>
     </g>
     <g id="line2d_20">
      <g>
       <use style="stroke:#000000;stroke-width:0.5;" x="268.4487536083153" xlink:href="#m3d2e1c1842" y="384.0"/>
      </g>
     </g>
     <g id="line2d_21">
      <g>
       <use style="stroke:#000000;stroke-width:0.5;" x="268.4487536083153" xlink:href="#mf64166028b" y="3.0"/>
      </g>
     </g>
     <g id="text_4">
      <!-- 0 -->
      <defs>
       <path d="M 31.78125 66.40625 
Q 24.171875 66.40625 20.328125 58.90625 
Q 16.5 51.421875 16.5 36.375 
Q 16.5 21.390625 20.328125 13.890625 
Q 24.171875 6.390625 31.78125 6.390625 
Q 39.453125 6.390625 43.28125 13.890625 
Q 47.125 21.390625 47.125 36.375 
Q 47.125 51.421875 43.28125 58.90625 
Q 39.453125 66.40625 31.78125 66.40625 
M 31.78125 74.21875 
Q 44.046875 74.21875 50.515625 64.515625 
Q 56.984375 54.828125 56.984375 36.375 
Q 56.984375 17.96875 50.515625 8.265625 
Q 44.046875 -1.421875 31.78125 -1.421875 
Q 19.53125 -1.421875 13.0625 8.265625 
Q 6.59375 17.96875 6.59375 36.375 
Q 6.59375 54.828125 13.0625 64.515625 
Q 19.53125 74.21875 31.78125 74.21875 
" id="BitstreamVeraSans-Roman-30"/>
      </defs>
      <g transform="translate(262.0862536083153 403.196875)scale(0.2 -0.2)">
       <use xlink:href="#BitstreamVeraSans-Roman-30"/>
      </g>
     </g>
    </g>
    <g id="xtick_6">
     <g id="line2d_22">
      <path clip-path="url(#p9a30001580)" d="M 334.846808 384 
L 334.846808 3 
" style="fill:none;stroke:#000000;stroke-dasharray:1.000000,3.000000;stroke-dashoffset:0.0;stroke-width:0.5;"/>
     </g>
     <g id="line2d_23">
      <g>
       <use style="stroke:#000000;stroke-width:0.5;" x="334.846808362023" xlink:href="#m3d2e1c1842" y="384.0"/>
      </g>
     </g>
     <g id="line2d_24">
      <g>
       <use style="stroke:#000000;stroke-width:0.5;" x="334.846808362023" xlink:href="#mf64166028b" y="3.0"/>
      </g>
     </g>
     <g id="text_5">
      <!-- 2 -->
      <g transform="translate(328.484308362023 403.196875)scale(0.2 -0.2)">
       <use xlink:href="#BitstreamVeraSans-Roman-32"/>
      </g>
     </g>
    </g>
    <g id="xtick_7">
     <g id="line2d_25">
      <path clip-path="url(#p9a30001580)" d="M 401.244863 384 
L 401.244863 3 
" style="fill:none;stroke:#000000;stroke-dasharray:1.000000,3.000000;stroke-dashoffset:0.0;stroke-width:0.5;"/>
     </g>
     <g id="line2d_26">
      <g>
       <use style="stroke:#000000;stroke-width:0.5;" x="401.2448631157307" xlink:href="#m3d2e1c1842" y="384.0"/>
      </g>
     </g>
     <g id="line2d_27">
      <g>
       <use style="stroke:#000000;stroke-width:0.5;" x="401.2448631157307" xlink:href="#mf64166028b" y="3.0"/>
      </g>
     </g>
     <g id="text_6">
      <!-- 4 -->
      <g transform="translate(394.8823631157307 403.196875)scale(0.2 -0.2)">
       <use xlink:href="#BitstreamVeraSans-Roman-34"/>
      </g>
     </g>
    </g>
    <g id="xtick_8">
     <g id="line2d_28">
      <path clip-path="url(#p9a30001580)" d="M 467.642918 384 
L 467.642918 3 
" style="fill:none;stroke:#000000;stroke-dasharray:1.000000,3.000000;stroke-dashoffset:0.0;stroke-width:0.5;"/>
     </g>
     <g id="line2d_29">
      <g>
       <use style="stroke:#000000;stroke-width:0.5;" x="467.6429178694384" xlink:href="#m3d2e1c1842" y="384.0"/>
      </g>
     </g>
     <g id="line2d_30">
      <g>
       <use style="stroke:#000000;stroke-width:0.5;" x="467.6429178694384" xlink:href="#mf64166028b" y="3.0"/>
      </g>
     </g>
     <g id="text_7">
      <!-- 6 -->
      <g transform="translate(461.2804178694384 403.196875)scale(0.2 -0.2)">
       <use xlink:href="#BitstreamVeraSans-Roman-36"/>
      </g>
     </g>
    </g>
    <g id="xtick_9">
     <g id="line2d_31">
      <path clip-path="url(#p9a30001580)" d="M 534.040973 384 
L 534.040973 3 
" style="fill:none;stroke:#000000;stroke-dasharray:1.000000,3.000000;stroke-dashoffset:0.0;stroke-width:0.5;"/>
     </g>
     <g id="line2d_32">
      <g>
       <use style="stroke:#000000;stroke-width:0.5;" x="534.0409726231461" xlink:href="#m3d2e1c1842" y="384.0"/>
      </g>
     </g>
     <g id="line2d_33">
      <g>
       <use style="stroke:#000000;stroke-width:0.5;" x="534.0409726231461" xlink:href="#mf64166028b" y="3.0"/>
      </g>
     </g>
     <g id="text_8">
      <!-- 8 -->
      <defs>
       <path d="M 31.78125 34.625 
Q 24.75 34.625 20.71875 30.859375 
Q 16.703125 27.09375 16.703125 20.515625 
Q 16.703125 13.921875 20.71875 10.15625 
Q 24.75 6.390625 31.78125 6.390625 
Q 38.8125 6.390625 42.859375 10.171875 
Q 46.921875 13.96875 46.921875 20.515625 
Q 46.921875 27.09375 42.890625 30.859375 
Q 38.875 34.625 31.78125 34.625 
M 21.921875 38.8125 
Q 15.578125 40.375 12.03125 44.71875 
Q 8.5 49.078125 8.5 55.328125 
Q 8.5 64.0625 14.71875 69.140625 
Q 20.953125 74.21875 31.78125 74.21875 
Q 42.671875 74.21875 48.875 69.140625 
Q 55.078125 64.0625 55.078125 55.328125 
Q 55.078125 49.078125 51.53125 44.71875 
Q 48 40.375 41.703125 38.8125 
Q 48.828125 37.15625 52.796875 32.3125 
Q 56.78125 27.484375 56.78125 20.515625 
Q 56.78125 9.90625 50.3125 4.234375 
Q 43.84375 -1.421875 31.78125 -1.421875 
Q 19.734375 -1.421875 13.25 4.234375 
Q 6.78125 9.90625 6.78125 20.515625 
Q 6.78125 27.484375 10.78125 32.3125 
Q 14.796875 37.15625 21.921875 38.8125 
M 18.3125 54.390625 
Q 18.3125 48.734375 21.84375 45.5625 
Q 25.390625 42.390625 31.78125 42.390625 
Q 38.140625 42.390625 41.71875 45.5625 
Q 45.3125 48.734375 45.3125 54.390625 
Q 45.3125 60.0625 41.71875 63.234375 
Q 38.140625 66.40625 31.78125 66.40625 
Q 25.390625 66.40625 21.84375 63.234375 
Q 18.3125 60.0625 18.3125 54.390625 
" id="BitstreamVeraSans-Roman-38"/>
      </defs>
      <g transform="translate(527.6784726231461 403.196875)scale(0.2 -0.2)">
       <use xlink:href="#BitstreamVeraSans-Roman-38"/>
      </g>
     </g>
    </g>
    <g id="xtick_10"/>
    <g id="xtick_11">
     <g id="line2d_34">
      <defs>
       <path d="M 0 0 
L 0 -2 
" id="m9705475dd3" style="stroke:#000000;stroke-width:0.5;"/>
      </defs>
      <g>
       <use style="stroke:#000000;stroke-width:0.5;" x="69.25458934719217" xlink:href="#m9705475dd3" y="384.0"/>
      </g>
     </g>
     <g id="line2d_35">
      <defs>
       <path d="M 0 0 
L 0 2 
" id="m519abf1811" style="stroke:#000000;stroke-width:0.5;"/>
      </defs>
      <g>
       <use style="stroke:#000000;stroke-width:0.5;" x="69.25458934719217" xlink:href="#m519abf1811" y="3.0"/>
      </g>
     </g>
    </g>
    <g id="xtick_12">
     <g id="line2d_36">
      <g>
       <use style="stroke:#000000;stroke-width:0.5;" x="135.65264410089986" xlink:href="#m9705475dd3" y="384.0"/>
      </g>
     </g>
     <g id="line2d_37">
      <g>
       <use style="stroke:#000000;stroke-width:0.5;" x="135.65264410089986" xlink:href="#m519abf1811" y="3.0"/>
      </g>
     </g>
    </g>
    <g id="xtick_13">
     <g id="line2d_38">
      <g>
       <use style="stroke:#000000;stroke-width:0.5;" x="202.0506988546076" xlink:href="#m9705475dd3" y="384.0"/>
      </g>
     </g>
     <g id="line2d_39">
      <g>
       <use style="stroke:#000000;stroke-width:0.5;" x="202.0506988546076" xlink:href="#m519abf1811" y="3.0"/>
      </g>
     </g>
    </g>
    <g id="xtick_14">
     <g id="line2d_40">
      <g>
       <use style="stroke:#000000;stroke-width:0.5;" x="268.4487536083153" xlink:href="#m9705475dd3" y="384.0"/>
      </g>
     </g>
     <g id="line2d_41">
      <g>
       <use style="stroke:#000000;stroke-width:0.5;" x="268.4487536083153" xlink:href="#m519abf1811" y="3.0"/>
      </g>
     </g>
    </g>
    <g id="xtick_15">
     <g id="line2d_42">
      <g>
       <use style="stroke:#000000;stroke-width:0.5;" x="334.846808362023" xlink:href="#m9705475dd3" y="384.0"/>
      </g>
     </g>
     <g id="line2d_43">
      <g>
       <use style="stroke:#000000;stroke-width:0.5;" x="334.846808362023" xlink:href="#m519abf1811" y="3.0"/>
      </g>
     </g>
    </g>
    <g id="xtick_16">
     <g id="line2d_44">
      <g>
       <use style="stroke:#000000;stroke-width:0.5;" x="401.2448631157307" xlink:href="#m9705475dd3" y="384.0"/>
      </g>
     </g>
     <g id="line2d_45">
      <g>
       <use style="stroke:#000000;stroke-width:0.5;" x="401.2448631157307" xlink:href="#m519abf1811" y="3.0"/>
      </g>
     </g>
    </g>
    <g id="xtick_17">
     <g id="line2d_46">
      <g>
       <use style="stroke:#000000;stroke-width:0.5;" x="467.6429178694384" xlink:href="#m9705475dd3" y="384.0"/>
      </g>
     </g>
     <g id="line2d_47">
      <g>
       <use style="stroke:#000000;stroke-width:0.5;" x="467.6429178694384" xlink:href="#m519abf1811" y="3.0"/>
      </g>
     </g>
    </g>
    <g id="xtick_18">
     <g id="line2d_48">
      <g>
       <use style="stroke:#000000;stroke-width:0.5;" x="534.0409726231461" xlink:href="#m9705475dd3" y="384.0"/>
      </g>
     </g>
     <g id="line2d_49">
      <g>
       <use style="stroke:#000000;stroke-width:0.5;" x="534.0409726231461" xlink:href="#m519abf1811" y="3.0"/>
      </g>
     </g>
    </g>
    <g id="text_9">
     <!-- log10 of Df -->
     <defs>
      <path id="BitstreamVeraSans-Roman-20"/>
      <path d="M 12.40625 8.296875 
L 28.515625 8.296875 
L 28.515625 63.921875 
L 10.984375 60.40625 
L 10.984375 69.390625 
L 28.421875 72.90625 
L 38.28125 72.90625 
L 38.28125 8.296875 
L 54.390625 8.296875 
L 54.390625 0 
L 12.40625 0 
z
" id="BitstreamVeraSans-Roman-31"/>
      <path d="M 30.609375 48.390625 
Q 23.390625 48.390625 19.1875 42.75 
Q 14.984375 37.109375 14.984375 27.296875 
Q 14.984375 17.484375 19.15625 11.84375 
Q 23.34375 6.203125 30.609375 6.203125 
Q 37.796875 6.203125 41.984375 11.859375 
Q 46.1875 17.53125 46.1875 27.296875 
Q 46.1875 37.015625 41.984375 42.703125 
Q 37.796875 48.390625 30.609375 48.390625 
M 30.609375 56 
Q 42.328125 56 49.015625 48.375 
Q 55.71875 40.765625 55.71875 27.296875 
Q 55.71875 13.875 49.015625 6.21875 
Q 42.328125 -1.421875 30.609375 -1.421875 
Q 18.84375 -1.421875 12.171875 6.21875 
Q 5.515625 13.875 5.515625 27.296875 
Q 5.515625 40.765625 12.171875 48.375 
Q 18.84375 56 30.609375 56 
" id="BitstreamVeraSans-Roman-6f"/>
      <path d="M 9.421875 75.984375 
L 18.40625 75.984375 
L 18.40625 0 
L 9.421875 0 
z
" id="BitstreamVeraSans-Roman-6c"/>
      <path d="M 19.671875 64.796875 
L 19.671875 8.109375 
L 31.59375 8.109375 
Q 46.6875 8.109375 53.6875 14.9375 
Q 60.6875 21.78125 60.6875 36.53125 
Q 60.6875 51.171875 53.6875 57.984375 
Q 46.6875 64.796875 31.59375 64.796875 
z
M 9.8125 72.90625 
L 30.078125 72.90625 
Q 51.265625 72.90625 61.171875 64.09375 
Q 71.09375 55.28125 71.09375 36.53125 
Q 71.09375 17.671875 61.125 8.828125 
Q 51.171875 0 30.078125 0 
L 9.8125 0 
z
" id="BitstreamVeraSans-Roman-44"/>
      <path d="M 45.40625 27.984375 
Q 45.40625 37.75 41.375 43.109375 
Q 37.359375 48.484375 30.078125 48.484375 
Q 22.859375 48.484375 18.828125 43.109375 
Q 14.796875 37.75 14.796875 27.984375 
Q 14.796875 18.265625 18.828125 12.890625 
Q 22.859375 7.515625 30.078125 7.515625 
Q 37.359375 7.515625 41.375 12.890625 
Q 45.40625 18.265625 45.40625 27.984375 
M 54.390625 6.78125 
Q 54.390625 -7.171875 48.1875 -13.984375 
Q 42 -20.796875 29.203125 -20.796875 
Q 24.46875 -20.796875 20.265625 -20.09375 
Q 16.0625 -19.390625 12.109375 -17.921875 
L 12.109375 -9.1875 
Q 16.0625 -11.328125 19.921875 -12.34375 
Q 23.78125 -13.375 27.78125 -13.375 
Q 36.625 -13.375 41.015625 -8.765625 
Q 45.40625 -4.15625 45.40625 5.171875 
L 45.40625 9.625 
Q 42.625 4.78125 38.28125 2.390625 
Q 33.9375 0 27.875 0 
Q 17.828125 0 11.671875 7.65625 
Q 5.515625 15.328125 5.515625 27.984375 
Q 5.515625 40.671875 11.671875 48.328125 
Q 17.828125 56 27.875 56 
Q 33.9375 56 38.28125 53.609375 
Q 42.625 51.21875 45.40625 46.390625 
L 45.40625 54.6875 
L 54.390625 54.6875 
z
" id="BitstreamVeraSans-Roman-67"/>
      <path d="M 37.109375 75.984375 
L 37.109375 68.5 
L 28.515625 68.5 
Q 23.6875 68.5 21.796875 66.546875 
Q 19.921875 64.59375 19.921875 59.515625 
L 19.921875 54.6875 
L 34.71875 54.6875 
L 34.71875 47.703125 
L 19.921875 47.703125 
L 19.921875 0 
L 10.890625 0 
L 10.890625 47.703125 
L 2.296875 47.703125 
L 2.296875 54.6875 
L 10.890625 54.6875 
L 10.890625 58.5 
Q 10.890625 67.625 15.140625 71.796875 
Q 19.390625 75.984375 28.609375 75.984375 
z
" id="BitstreamVeraSans-Roman-66"/>
     </defs>
     <g transform="translate(229.9340625 427.55312499999997)scale(0.2 -0.2)">
      <use xlink:href="#BitstreamVeraSans-Roman-6c"/>
      <use x="27.783203125" xlink:href="#BitstreamVeraSans-Roman-6f"/>
      <use x="88.96484375" xlink:href="#BitstreamVeraSans-Roman-67"/>
      <use x="152.44140625" xlink:href="#BitstreamVeraSans-Roman-31"/>
      <use x="216.064453125" xlink:href="#BitstreamVeraSans-Roman-30"/>
      <use x="279.6875" xlink:href="#BitstreamVeraSans-Roman-20"/>
      <use x="311.474609375" xlink:href="#BitstreamVeraSans-Roman-6f"/>
      <use x="372.65625" xlink:href="#BitstreamVeraSans-Roman-66"/>
      <use x="407.861328125" xlink:href="#BitstreamVeraSans-Roman-20"/>
      <use x="439.6484375" xlink:href="#BitstreamVeraSans-Roman-44"/>
      <use x="516.650390625" xlink:href="#BitstreamVeraSans-Roman-66"/>
     </g>
    </g>
   </g>
   <g id="matplotlib.axis_2">
    <g id="ytick_1">
     <g id="line2d_50">
      <path clip-path="url(#p9a30001580)" d="M 3 384 
L 567.24 384 
" style="fill:none;stroke:#000000;stroke-dasharray:1.000000,3.000000;stroke-dashoffset:0.0;stroke-width:0.5;"/>
     </g>
     <g id="line2d_51">
      <defs>
       <path d="M 0 0 
L 4 0 
" id="m8b9d94322c" style="stroke:#000000;stroke-width:0.5;"/>
      </defs>
      <g>
       <use style="stroke:#000000;stroke-width:0.5;" x="3.0" xlink:href="#m8b9d94322c" y="384.0"/>
      </g>
     </g>
     <g id="line2d_52">
      <defs>
       <path d="M 0 0 
L -4 0 
" id="m8e9a989d8f" style="stroke:#000000;stroke-width:0.5;"/>
      </defs>
      <g>
       <use style="stroke:#000000;stroke-width:0.5;" x="567.24" xlink:href="#m8e9a989d8f" y="384.0"/>
      </g>
     </g>
    </g>
    <g id="ytick_2">
     <g id="line2d_53">
      <path clip-path="url(#p9a30001580)" d="M 3 308.554455 
L 567.24 308.554455 
" style="fill:none;stroke:#000000;stroke-dasharray:1.000000,3.000000;stroke-dashoffset:0.0;stroke-width:0.5;"/>
     </g>
     <g id="line2d_54">
      <g>
       <use style="stroke:#000000;stroke-width:0.5;" x="3.0" xlink:href="#m8b9d94322c" y="308.55445544554453"/>
      </g>
     </g>
     <g id="line2d_55">
      <g>
       <use style="stroke:#000000;stroke-width:0.5;" x="567.24" xlink:href="#m8e9a989d8f" y="308.55445544554453"/>
      </g>
     </g>
    </g>
    <g id="ytick_3">
     <g id="line2d_56">
      <path clip-path="url(#p9a30001580)" d="M 3 233.108911 
L 567.24 233.108911 
" style="fill:none;stroke:#000000;stroke-dasharray:1.000000,3.000000;stroke-dashoffset:0.0;stroke-width:0.5;"/>
     </g>
     <g id="line2d_57">
      <g>
       <use style="stroke:#000000;stroke-width:0.5;" x="3.0" xlink:href="#m8b9d94322c" y="233.1089108910891"/>
      </g>
     </g>
     <g id="line2d_58">
      <g>
       <use style="stroke:#000000;stroke-width:0.5;" x="567.24" xlink:href="#m8e9a989d8f" y="233.1089108910891"/>
      </g>
     </g>
    </g>
    <g id="ytick_4">
     <g id="line2d_59">
      <path clip-path="url(#p9a30001580)" d="M 3 157.663366 
L 567.24 157.663366 
" style="fill:none;stroke:#000000;stroke-dasharray:1.000000,3.000000;stroke-dashoffset:0.0;stroke-width:0.5;"/>
     </g>
     <g id="line2d_60">
      <g>
       <use style="stroke:#000000;stroke-width:0.5;" x="3.0" xlink:href="#m8b9d94322c" y="157.66336633663363"/>
      </g>
     </g>
     <g id="line2d_61">
      <g>
       <use style="stroke:#000000;stroke-width:0.5;" x="567.24" xlink:href="#m8e9a989d8f" y="157.66336633663363"/>
      </g>
     </g>
    </g>
    <g id="ytick_5">
     <g id="line2d_62">
      <path clip-path="url(#p9a30001580)" d="M 3 82.217822 
L 567.24 82.217822 
" style="fill:none;stroke:#000000;stroke-dasharray:1.000000,3.000000;stroke-dashoffset:0.0;stroke-width:0.5;"/>
     </g>
     <g id="line2d_63">
      <g>
       <use style="stroke:#000000;stroke-width:0.5;" x="3.0" xlink:href="#m8b9d94322c" y="82.21782178217819"/>
      </g>
     </g>
     <g id="line2d_64">
      <g>
       <use style="stroke:#000000;stroke-width:0.5;" x="567.24" xlink:href="#m8e9a989d8f" y="82.21782178217819"/>
      </g>
     </g>
    </g>
    <g id="ytick_6">
     <g id="line2d_65">
      <path clip-path="url(#p9a30001580)" d="M 3 6.772277 
L 567.24 6.772277 
" style="fill:none;stroke:#000000;stroke-dasharray:1.000000,3.000000;stroke-dashoffset:0.0;stroke-width:0.5;"/>
     </g>
     <g id="line2d_66">
      <g>
       <use style="stroke:#000000;stroke-width:0.5;" x="3.0" xlink:href="#m8b9d94322c" y="6.772277227722782"/>
      </g>
     </g>
     <g id="line2d_67">
      <g>
       <use style="stroke:#000000;stroke-width:0.5;" x="567.24" xlink:href="#m8e9a989d8f" y="6.772277227722782"/>
      </g>
     </g>
    </g>
   </g>
   <g id="text_10">
    <!-- {f1-f5}, 20-D -->
    <defs>
     <path d="M 12.5 -9.28125 
L 15.921875 -9.28125 
Q 22.75 -9.28125 24.828125 -7.171875 
Q 26.90625 -5.078125 26.90625 1.90625 
L 26.90625 14.015625 
Q 26.90625 21.625 29.09375 25.09375 
Q 31.296875 28.5625 36.71875 29.890625 
Q 31.296875 31.109375 29.09375 34.5625 
Q 26.90625 38.03125 26.90625 45.703125 
L 26.90625 57.8125 
Q 26.90625 64.75 24.828125 66.875 
Q 22.75 69 15.921875 69 
L 12.5 69 
L 12.5 75.984375 
L 15.578125 75.984375 
Q 27.734375 75.984375 31.8125 72.390625 
Q 35.890625 68.796875 35.890625 58.015625 
L 35.890625 46.296875 
Q 35.890625 39.015625 38.515625 36.203125 
Q 41.15625 33.40625 48.09375 33.40625 
L 51.125 33.40625 
L 51.125 26.421875 
L 48.09375 26.421875 
Q 41.15625 26.421875 38.515625 23.578125 
Q 35.890625 20.75 35.890625 13.375 
L 35.890625 1.703125 
Q 35.890625 -9.078125 31.8125 -12.6875 
Q 27.734375 -16.3125 15.578125 -16.3125 
L 12.5 -16.3125 
z
" id="BitstreamVeraSans-Roman-7d"/>
     <path d="M 51.125 -9.28125 
L 51.125 -16.3125 
L 48.09375 -16.3125 
Q 35.9375 -16.3125 31.8125 -12.6875 
Q 27.6875 -9.078125 27.6875 1.703125 
L 27.6875 13.375 
Q 27.6875 20.75 25.046875 23.578125 
Q 22.40625 26.421875 15.484375 26.421875 
L 12.5 26.421875 
L 12.5 33.40625 
L 15.484375 33.40625 
Q 22.46875 33.40625 25.078125 36.203125 
Q 27.6875 39.015625 27.6875 46.296875 
L 27.6875 58.015625 
Q 27.6875 68.796875 31.8125 72.390625 
Q 35.9375 75.984375 48.09375 75.984375 
L 51.125 75.984375 
L 51.125 69 
L 47.796875 69 
Q 40.921875 69 38.8125 66.84375 
Q 36.71875 64.703125 36.71875 57.8125 
L 36.71875 45.703125 
Q 36.71875 38.03125 34.5 34.5625 
Q 32.28125 31.109375 26.90625 29.890625 
Q 32.328125 28.5625 34.515625 25.09375 
Q 36.71875 21.625 36.71875 14.015625 
L 36.71875 1.90625 
Q 36.71875 -4.984375 38.8125 -7.125 
Q 40.921875 -9.28125 47.796875 -9.28125 
z
" id="BitstreamVeraSans-Roman-7b"/>
     <path d="M 11.71875 12.40625 
L 22.015625 12.40625 
L 22.015625 4 
L 14.015625 -11.625 
L 7.71875 -11.625 
L 11.71875 4 
z
" id="BitstreamVeraSans-Roman-2c"/>
     <path d="M 10.796875 72.90625 
L 49.515625 72.90625 
L 49.515625 64.59375 
L 19.828125 64.59375 
L 19.828125 46.734375 
Q 21.96875 47.46875 24.109375 47.828125 
Q 26.265625 48.1875 28.421875 48.1875 
Q 40.625 48.1875 47.75 41.5 
Q 54.890625 34.8125 54.890625 23.390625 
Q 54.890625 11.625 47.5625 5.09375 
Q 40.234375 -1.421875 26.90625 -1.421875 
Q 22.3125 -1.421875 17.546875 -0.640625 
Q 12.796875 0.140625 7.71875 1.703125 
L 7.71875 11.625 
Q 12.109375 9.234375 16.796875 8.0625 
Q 21.484375 6.890625 26.703125 6.890625 
Q 35.15625 6.890625 40.078125 11.328125 
Q 45.015625 15.765625 45.015625 23.390625 
Q 45.015625 31 40.078125 35.4375 
Q 35.15625 39.890625 26.703125 39.890625 
Q 22.75 39.890625 18.8125 39.015625 
Q 14.890625 38.140625 10.796875 36.28125 
z
" id="BitstreamVeraSans-Roman-35"/>
    </defs>
    <g transform="translate(422.98019999999997 376.38)scale(0.2 -0.2)">
     <use xlink:href="#BitstreamVeraSans-Roman-7b"/>
     <use x="63.623046875" xlink:href="#BitstreamVeraSans-Roman-66"/>
     <use x="98.828125" xlink:href="#BitstreamVeraSans-Roman-31"/>
     <use x="162.451171875" xlink:href="#BitstreamVeraSans-Roman-2d"/>
     <use x="198.53515625" xlink:href="#BitstreamVeraSans-Roman-66"/>
     <use x="233.740234375" xlink:href="#BitstreamVeraSans-Roman-35"/>
     <use x="297.36328125" xlink:href="#BitstreamVeraSans-Roman-7d"/>
     <use x="360.986328125" xlink:href="#BitstreamVeraSans-Roman-2c"/>
     <use x="392.7734375" xlink:href="#BitstreamVeraSans-Roman-20"/>
     <use x="424.560546875" xlink:href="#BitstreamVeraSans-Roman-32"/>
     <use x="488.18359375" xlink:href="#BitstreamVeraSans-Roman-30"/>
     <use x="551.806640625" xlink:href="#BitstreamVeraSans-Roman-2d"/>
     <use x="587.890625" xlink:href="#BitstreamVeraSans-Roman-44"/>
    </g>
   </g>
   <g id="text_11">
    <!-- v2.2.1.10 -->
    <defs>
     <path d="M 2.984375 54.6875 
L 12.5 54.6875 
L 29.59375 8.796875 
L 46.6875 54.6875 
L 56.203125 54.6875 
L 35.6875 0 
L 23.484375 0 
z
" id="BitstreamVeraSans-Roman-76"/>
     <path d="M 10.6875 12.40625 
L 21 12.40625 
L 21 0 
L 10.6875 0 
z
" id="BitstreamVeraSans-Roman-2e"/>
    </defs>
    <g style="fill:#808080;" transform="translate(261.4871875 378.11031249999996)scale(0.1 -0.1)">
     <use xlink:href="#BitstreamVeraSans-Roman-76"/>
     <use x="59.1796875" xlink:href="#BitstreamVeraSans-Roman-32"/>
     <use x="122.802734375" xlink:href="#BitstreamVeraSans-Roman-2e"/>
     <use x="154.58984375" xlink:href="#BitstreamVeraSans-Roman-32"/>
     <use x="218.212890625" xlink:href="#BitstreamVeraSans-Roman-2e"/>
     <use x="250.0" xlink:href="#BitstreamVeraSans-Roman-31"/>
     <use x="313.623046875" xlink:href="#BitstreamVeraSans-Roman-2e"/>
     <use x="345.41015625" xlink:href="#BitstreamVeraSans-Roman-31"/>
     <use x="409.033203125" xlink:href="#BitstreamVeraSans-Roman-30"/>
    </g>
   </g>
  </g>
 </g>
 <defs>
  <clipPath id="p9a30001580">
   <rect height="381.0" width="564.24" x="3.0" y="3.0"/>
  </clipPath>
 </defs>
</svg>
