<?xml version="1.0" encoding="utf-8" standalone="no"?>
<!DOCTYPE svg PUBLIC "-//W3C//DTD SVG 1.1//EN"
  "http://www.w3.org/Graphics/SVG/1.1/DTD/svg11.dtd">
<!-- Created with matplotlib (http://matplotlib.org/) -->
<svg height="432pt" version="1.1" viewBox="0 0 576 432" width="576pt" xmlns="http://www.w3.org/2000/svg" xmlns:xlink="http://www.w3.org/1999/xlink">
 <defs>
  <style type="text/css">
*{stroke-linecap:butt;stroke-linejoin:round;stroke-miterlimit:100000;}
  </style>
 </defs>
 <g id="figure_1">
  <g id="patch_1">
   <path d="M 0 432 
L 576 432 
L 576 0 
L 0 0 
z
" style="fill:#ffffff;"/>
  </g>
  <g id="axes_1">
   <g id="patch_2">
    <path d="M 3 384 
L 567.24 384 
L 567.24 3 
L 3 3 
z
" style="fill:#ffffff;"/>
   </g>
   <g id="line2d_1">
    <path clip-path="url(#p0e889da335)" d="M -1 228.079208 
L 2.856535 228.079208 
L 2.856535 152.633663 
L 5.739263 152.633663 
L 5.739263 147.60396 
L 62.387515 147.60396 
L 62.387515 142.574257 
L 67.77765 142.574257 
L 67.77765 137.544554 
L 68.212717 137.544554 
L 68.212717 132.514851 
L 70.063181 132.514851 
L 70.063181 127.485149 
L 70.180233 127.485149 
L 70.180233 122.455446 
L 71.529244 122.455446 
L 71.529244 117.425743 
L 72.400005 117.425743 
L 72.400005 112.39604 
L 73.248121 112.39604 
L 73.266182 102.336634 
L 74.006547 102.336634 
L 74.087176 92.277228 
L 74.195314 92.277228 
L 74.195314 87.247525 
L 75.773847 87.247525 
L 75.773847 82.217822 
L 77.490394 82.217822 
L 77.490394 77.188119 
L 78.779484 77.188119 
L 78.779484 72.158416 
L 268.375889 72.158416 
L 268.375889 6.772277 
L 268.375889 6.772277 
L 567.24 6.772277 
L 567.24 6.772277 
" style="fill:none;stroke:#ff0000;stroke-linecap:square;stroke-width:3.0;"/>
   </g>
   <g id="line2d_2">
    <path clip-path="url(#p0e889da335)" d="M 305.665732 384 
L 305.665732 378.970297 
L 306.139608 378.970297 
L 306.139608 373.940594 
L 315.072531 373.940594 
L 315.072531 368.910891 
L 315.612503 368.910891 
L 315.612503 363.881188 
L 318.785907 363.881188 
L 318.785907 358.851485 
L 319.03013 358.851485 
L 319.03013 353.821782 
L 320.2567 353.821782 
L 320.2567 348.792079 
L 320.577111 348.792079 
L 320.577111 343.762376 
L 323.092107 343.762376 
L 323.146086 328.673267 
L 325.390163 328.673267 
L 325.390163 323.643564 
L 326.87194 323.643564 
L 326.981262 313.584158 
L 327.540397 313.584158 
L 327.540397 308.554455 
L 328.963005 308.554455 
L 328.963005 303.524752 
L 329.365607 303.524752 
L 329.365607 298.49505 
L 329.765357 298.49505 
L 329.765357 293.465347 
L 330.489553 293.465347 
L 330.489553 288.435644 
L 331.524687 288.435644 
L 331.524687 283.405941 
L 331.664129 283.405941 
L 331.664129 278.376238 
L 332.763588 278.376238 
L 332.763588 273.346535 
L 333.286287 273.346535 
L 333.286287 268.316832 
L 333.541368 268.316832 
L 333.541368 263.287129 
L 333.770032 263.287129 
L 333.770032 258.257426 
L 334.012703 258.257426 
L 334.012703 253.227723 
L 334.515197 253.227723 
L 334.621476 243.168317 
L 334.744016 243.168317 
L 334.833222 233.108911 
L 337.182366 233.108911 
L 337.191042 223.049505 
L 343.830745 223.049505 
L 343.830745 218.019802 
L 344.155963 218.019802 
L 344.155963 212.990099 
L 344.774124 212.990099 
L 344.774124 207.960396 
L 345.521346 207.960396 
L 345.521346 202.930693 
L 346.710303 202.930693 
L 346.81712 192.871287 
L 347.322642 192.871287 
L 347.322642 187.841584 
L 347.889928 187.841584 
L 347.889928 182.811881 
L 348.704978 182.811881 
L 348.704978 177.782178 
L 349.400733 177.782178 
L 349.400733 172.752475 
L 350.257996 172.752475 
L 350.257996 167.722772 
L 353.123318 167.722772 
L 353.217754 157.663366 
L 353.758576 157.663366 
L 353.758576 152.633663 
L 354.354773 152.633663 
L 354.374825 142.574257 
L 355.486591 142.574257 
L 355.486591 137.544554 
L 356.399548 137.544554 
L 356.399548 132.514851 
L 358.02326 132.514851 
L 358.02326 127.485149 
L 358.894598 127.485149 
L 358.894598 122.455446 
L 360.617599 122.455446 
L 360.617599 117.425743 
L 361.227967 117.425743 
L 361.227967 112.39604 
L 362.856636 112.39604 
L 362.856636 107.366337 
L 363.150069 107.366337 
L 363.150069 102.336634 
L 367.387991 102.336634 
L 367.387991 97.306931 
L 367.610301 97.306931 
L 367.610301 92.277228 
L 376.722152 92.277228 
L 376.722152 87.247525 
L 392.852518 87.247525 
L 392.852518 82.217822 
L 435.459489 82.217822 
L 435.459489 77.188119 
L 441.656343 77.188119 
L 441.656343 72.158416 
L 449.007326 72.158416 
L 449.094649 62.09901 
L 455.178996 62.09901 
L 455.178996 57.069307 
L 456.872356 57.069307 
L 456.872356 52.039604 
L 457.225566 52.039604 
L 457.225566 47.009901 
L 458.079333 47.009901 
L 458.079333 41.980198 
L 468.12366 41.980198 
L 468.12366 36.950495 
L 468.302549 36.950495 
L 468.302549 31.920792 
L 471.12222 31.920792 
L 471.12222 26.891089 
L 472.925874 26.891089 
L 472.925874 21.861386 
L 477.516364 21.861386 
L 477.516364 16.831683 
L 497.430537 16.831683 
L 497.430537 11.80198 
L 507.544677 11.80198 
L 507.544677 6.772277 
L 507.544677 6.772277 
L 567.24 6.772277 
L 567.24 6.772277 
" style="fill:none;stroke:#00bfbf;stroke-linecap:square;"/>
   </g>
   <g id="line2d_3">
    <path clip-path="url(#p0e889da335)" d="M 298.060904 384 
L 298.060904 378.970297 
L 300.288486 378.970297 
L 300.288486 373.940594 
L 304.048585 373.940594 
L 304.048585 368.910891 
L 306.139608 368.910891 
L 306.139608 363.881188 
L 306.527713 363.881188 
L 306.527713 358.851485 
L 311.175845 358.851485 
L 311.243454 343.762376 
L 314.75298 343.762376 
L 314.75298 338.732673 
L 315.612503 338.732673 
L 315.612503 333.70297 
L 319.03013 333.70297 
L 319.03013 328.673267 
L 319.907476 328.673267 
L 319.907476 323.643564 
L 320.251278 323.643564 
L 320.251278 318.613861 
L 321.46811 318.613861 
L 321.46811 313.584158 
L 323.936307 313.584158 
L 323.936307 308.554455 
L 325.390163 308.554455 
L 325.390163 303.524752 
L 326.461624 303.524752 
L 326.461624 298.49505 
L 326.981262 298.49505 
L 326.981262 293.465347 
L 327.540397 293.465347 
L 327.540397 288.435644 
L 327.796373 288.435644 
L 327.796373 283.405941 
L 328.480787 283.405941 
L 328.480787 278.376238 
L 328.963005 278.376238 
L 328.963005 273.346535 
L 329.558104 273.346535 
L 329.558104 268.316832 
L 329.765357 268.316832 
L 329.765357 263.287129 
L 331.061615 263.287129 
L 331.061615 258.257426 
L 331.664129 258.257426 
L 331.664129 253.227723 
L 332.763588 253.227723 
L 332.763588 248.19802 
L 332.955088 248.19802 
L 332.955088 243.168317 
L 333.61498 243.168317 
L 333.629975 233.108911 
L 334.037563 233.108911 
L 334.037563 228.079208 
L 334.515197 228.079208 
L 334.559386 218.019802 
L 336.963033 218.019802 
L 336.963033 212.990099 
L 337.092098 212.990099 
L 337.191042 202.930693 
L 338.051821 202.930693 
L 338.051821 197.90099 
L 340.003975 197.90099 
L 340.003975 192.871287 
L 340.502724 192.871287 
L 340.502724 187.841584 
L 341.637254 187.841584 
L 341.637254 182.811881 
L 341.859711 182.811881 
L 341.859711 177.782178 
L 342.263361 177.782178 
L 342.263361 172.752475 
L 343.602165 172.752475 
L 343.602165 167.722772 
L 343.830745 167.722772 
L 343.830745 162.693069 
L 344.218906 162.693069 
L 344.218906 157.663366 
L 344.774124 157.663366 
L 344.840971 142.574257 
L 345.353217 142.574257 
L 345.402235 132.514851 
L 345.488992 132.514851 
L 345.521346 122.455446 
L 346.277446 122.455446 
L 346.277446 117.425743 
L 346.526168 117.425743 
L 346.526168 112.39604 
L 346.81712 112.39604 
L 346.81712 107.366337 
L 349.095245 107.366337 
L 349.095245 102.336634 
L 351.458089 102.336634 
L 351.458089 97.306931 
L 352.288219 97.306931 
L 352.288219 92.277228 
L 352.419431 92.277228 
L 352.419431 87.247525 
L 352.904178 87.247525 
L 352.904178 82.217822 
L 412.87201 82.217822 
L 412.87201 77.188119 
L 435.459489 77.188119 
L 435.459489 72.158416 
L 441.656343 72.158416 
L 441.656343 67.128713 
L 443.74898 67.128713 
L 443.74898 62.09901 
L 443.952169 62.09901 
L 443.952169 57.069307 
L 447.630365 57.069307 
L 447.630365 52.039604 
L 449.007326 52.039604 
L 449.007326 47.009901 
L 456.872356 47.009901 
L 456.872356 41.980198 
L 457.225566 41.980198 
L 457.225566 36.950495 
L 458.079333 36.950495 
L 458.079333 31.920792 
L 462.313098 31.920792 
L 462.313098 26.891089 
L 465.81014 26.891089 
L 465.81014 21.861386 
L 468.302549 21.861386 
L 468.302549 16.831683 
L 470.588023 16.831683 
L 470.588023 11.80198 
L 472.925874 11.80198 
L 472.925874 6.772277 
L 472.925874 6.772277 
L 567.24 6.772277 
L 567.24 6.772277 
" style="fill:none;stroke:#bf00bf;stroke-linecap:square;"/>
   </g>
   <g id="line2d_4">
    <path clip-path="url(#p0e889da335)" d="M 281.686474 384 
L 281.686474 378.970297 
L 298.060904 378.970297 
L 298.060904 373.940594 
L 300.288486 373.940594 
L 300.288486 368.910891 
L 300.867082 368.910891 
L 300.867082 363.881188 
L 302.949153 363.881188 
L 302.949153 358.851485 
L 303.579941 358.851485 
L 303.579941 353.821782 
L 304.048585 353.821782 
L 304.048585 348.792079 
L 306.139608 348.792079 
L 306.139608 343.762376 
L 306.527713 343.762376 
L 306.527713 338.732673 
L 306.782989 338.732673 
L 306.782989 333.70297 
L 310.918252 333.70297 
L 310.918252 328.673267 
L 311.175845 328.673267 
L 311.175845 323.643564 
L 314.245662 323.643564 
L 314.245662 318.613861 
L 314.709557 318.613861 
L 314.709557 313.584158 
L 314.868411 313.584158 
L 314.868411 308.554455 
L 315.066186 308.554455 
L 315.066186 303.524752 
L 322.013838 303.524752 
L 322.013838 298.49505 
L 323.481932 298.49505 
L 323.481932 293.465347 
L 324.809889 293.465347 
L 324.809889 288.435644 
L 325.136596 288.435644 
L 325.136596 283.405941 
L 326.063311 283.405941 
L 326.149978 268.316832 
L 326.248459 268.316832 
L 326.248459 263.287129 
L 326.461624 263.287129 
L 326.461624 258.257426 
L 326.981262 258.257426 
L 326.981262 253.227723 
L 328.958115 253.227723 
L 328.988238 243.168317 
L 329.765357 243.168317 
L 329.765357 238.138614 
L 331.025422 238.138614 
L 331.025422 233.108911 
L 331.900834 233.108911 
L 331.900834 228.079208 
L 332.01407 228.079208 
L 332.01407 223.049505 
L 332.396923 223.049505 
L 332.50122 212.990099 
L 332.548068 212.990099 
L 332.548068 207.960396 
L 332.763588 207.960396 
L 332.763588 202.930693 
L 333.051009 202.930693 
L 333.082747 192.871287 
L 333.620718 192.871287 
L 333.620718 187.841584 
L 334.231283 187.841584 
L 334.231283 182.811881 
L 334.515197 182.811881 
L 334.559386 172.752475 
L 335.769623 172.752475 
L 335.769623 167.722772 
L 335.883621 167.722772 
L 335.883621 162.693069 
L 336.507522 162.693069 
L 336.507522 157.663366 
L 336.648352 157.663366 
L 336.648352 152.633663 
L 336.963033 152.633663 
L 336.963033 147.60396 
L 338.819201 147.60396 
L 338.819201 142.574257 
L 339.209507 142.574257 
L 339.271371 132.514851 
L 339.607529 132.514851 
L 339.607529 127.485149 
L 340.003975 127.485149 
L 340.003975 122.455446 
L 340.324779 122.455446 
L 340.324779 117.425743 
L 340.502724 117.425743 
L 340.502724 112.39604 
L 341.637254 112.39604 
L 341.637254 107.366337 
L 341.859711 107.366337 
L 341.859711 102.336634 
L 343.789714 102.336634 
L 343.830745 92.277228 
L 344.212686 92.277228 
L 344.253963 82.217822 
L 400.060805 82.217822 
L 400.060805 77.188119 
L 411.701767 77.188119 
L 411.701767 72.158416 
L 412.87201 72.158416 
L 412.87201 67.128713 
L 416.152219 67.128713 
L 416.152219 62.09901 
L 428.508479 62.09901 
L 428.508479 57.069307 
L 433.686403 57.069307 
L 433.686403 52.039604 
L 435.459489 52.039604 
L 435.459489 47.009901 
L 438.912937 47.009901 
L 438.912937 41.980198 
L 441.656343 41.980198 
L 441.656343 36.950495 
L 443.74898 36.950495 
L 443.74898 31.920792 
L 443.952169 31.920792 
L 443.952169 26.891089 
L 447.273538 26.891089 
L 447.273538 21.861386 
L 449.007326 21.861386 
L 449.007326 16.831683 
L 462.313098 16.831683 
L 462.313098 11.80198 
L 468.302549 11.80198 
L 468.302549 6.772277 
L 468.302549 6.772277 
L 567.24 6.772277 
L 567.24 6.772277 
" style="fill:none;stroke:#000000;stroke-linecap:square;"/>
   </g>
   <g id="line2d_5">
    <path clip-path="url(#p0e889da335)" d="M 269.992372 384 
L 269.992372 378.970297 
L 276.161212 378.970297 
L 276.161212 373.940594 
L 283.559447 373.940594 
L 283.559447 368.910891 
L 287.620279 368.910891 
L 287.620279 363.881188 
L 287.799339 363.881188 
L 287.799339 358.851485 
L 288.626892 358.851485 
L 288.626892 353.821782 
L 291.79483 353.821782 
L 291.79483 348.792079 
L 292.731149 348.792079 
L 292.731149 343.762376 
L 292.998164 343.762376 
L 292.998164 338.732673 
L 297.599999 338.732673 
L 297.599999 333.70297 
L 298.060904 333.70297 
L 298.124177 323.643564 
L 299.047562 323.643564 
L 299.047562 318.613861 
L 301.237624 318.613861 
L 301.237624 313.584158 
L 302.327796 313.584158 
L 302.327796 308.554455 
L 311.175845 308.554455 
L 311.175845 303.524752 
L 313.488958 303.524752 
L 313.488958 298.49505 
L 315.066186 298.49505 
L 315.066186 293.465347 
L 316.312554 293.465347 
L 316.312554 288.435644 
L 317.297475 288.435644 
L 317.307262 278.376238 
L 317.846239 278.376238 
L 317.846239 273.346535 
L 318.666685 273.346535 
L 318.666685 268.316832 
L 319.067951 268.316832 
L 319.067951 263.287129 
L 320.084699 263.287129 
L 320.084699 258.257426 
L 320.558271 258.257426 
L 320.558271 253.227723 
L 321.205152 253.227723 
L 321.205152 248.19802 
L 321.847214 248.19802 
L 321.847214 243.168317 
L 322.247285 243.168317 
L 322.247285 238.138614 
L 322.762154 238.138614 
L 322.762154 233.108911 
L 322.98184 233.108911 
L 322.98184 228.079208 
L 323.317932 228.079208 
L 323.335492 218.019802 
L 324.315538 218.019802 
L 324.315538 212.990099 
L 324.761106 212.990099 
L 324.761106 207.960396 
L 325.499992 207.960396 
L 325.499992 202.930693 
L 325.700031 202.930693 
L 325.700031 197.90099 
L 327.052897 197.90099 
L 327.1482 187.841584 
L 327.313768 187.841584 
L 327.313768 182.811881 
L 329.411643 182.811881 
L 329.411643 177.782178 
L 329.639987 177.782178 
L 329.694212 167.722772 
L 329.765357 167.722772 
L 329.77803 157.663366 
L 329.925118 157.663366 
L 329.925118 152.633663 
L 330.264239 152.633663 
L 330.264239 147.60396 
L 330.433561 147.60396 
L 330.433561 142.574257 
L 330.695288 142.574257 
L 330.726679 132.514851 
L 330.996789 132.514851 
L 330.996789 127.485149 
L 331.169428 127.485149 
L 331.169428 122.455446 
L 332.922628 122.455446 
L 332.922628 117.425743 
L 333.366669 117.425743 
L 333.366669 112.39604 
L 333.924284 112.39604 
L 333.924284 107.366337 
L 334.314621 107.366337 
L 334.314621 102.336634 
L 334.515197 102.336634 
L 334.515197 97.306931 
L 334.79779 97.306931 
L 334.79779 92.277228 
L 336.331582 92.277228 
L 336.331582 87.247525 
L 341.859711 87.247525 
L 341.859711 82.217822 
L 393.822129 82.217822 
L 393.822129 77.188119 
L 400.060805 77.188119 
L 400.060805 72.158416 
L 400.54956 72.158416 
L 400.54956 67.128713 
L 407.042957 67.128713 
L 407.042957 62.09901 
L 410.745399 62.09901 
L 410.745399 57.069307 
L 413.280398 57.069307 
L 413.280398 52.039604 
L 416.152219 52.039604 
L 416.152219 47.009901 
L 416.588196 47.009901 
L 416.588196 41.980198 
L 418.838767 41.980198 
L 418.838767 36.950495 
L 422.043131 36.950495 
L 422.043131 31.920792 
L 424.347135 31.920792 
L 424.347135 26.891089 
L 427.919936 26.891089 
L 427.919936 21.861386 
L 434.117032 21.861386 
L 434.117032 16.831683 
L 436.911678 16.831683 
L 436.911678 11.80198 
L 443.74898 11.80198 
L 443.74898 6.772277 
L 443.74898 6.772277 
L 567.24 6.772277 
L 567.24 6.772277 
" style="fill:none;stroke:#00bfbf;stroke-linecap:square;"/>
   </g>
   <g id="line2d_6">
    <path clip-path="url(#p0e889da335)" d="M 219.279646 384 
L 219.279646 378.970297 
L 219.730756 378.970297 
L 219.730756 373.940594 
L 220.730759 373.940594 
L 220.730759 368.910891 
L 227.80059 368.910891 
L 227.80059 363.881188 
L 230.131664 363.881188 
L 230.131664 358.851485 
L 231.218376 358.851485 
L 231.218376 353.821782 
L 231.363996 353.821782 
L 231.363996 348.792079 
L 234.036048 348.792079 
L 234.036048 343.762376 
L 234.998943 343.762376 
L 234.998943 338.732673 
L 236.213243 338.732673 
L 236.213243 333.70297 
L 243.398344 333.70297 
L 243.398344 328.673267 
L 244.238751 328.673267 
L 244.238751 323.643564 
L 245.663455 323.643564 
L 245.663455 318.613861 
L 248.75568 318.613861 
L 248.75568 313.584158 
L 250.991347 313.584158 
L 250.991347 308.554455 
L 293.288012 308.554455 
L 293.288012 303.524752 
L 293.427169 303.524752 
L 293.427169 298.49505 
L 296.218229 298.49505 
L 296.230985 288.435644 
L 297.536798 288.435644 
L 297.536798 283.405941 
L 298.011538 283.405941 
L 298.011538 278.376238 
L 300.577314 278.376238 
L 300.577314 273.346535 
L 302.393779 273.346535 
L 302.393779 268.316832 
L 302.685777 268.316832 
L 302.685777 263.287129 
L 302.804643 263.287129 
L 302.804643 258.257426 
L 303.743407 258.257426 
L 303.743407 253.227723 
L 304.290527 253.227723 
L 304.290527 248.19802 
L 304.617168 248.19802 
L 304.617168 243.168317 
L 304.8332 243.168317 
L 304.8332 238.138614 
L 305.175051 238.138614 
L 305.175051 233.108911 
L 307.662437 233.108911 
L 307.662437 228.079208 
L 308.110828 228.079208 
L 308.110828 223.049505 
L 308.913769 223.049505 
L 308.913769 218.019802 
L 309.677194 218.019802 
L 309.677194 212.990099 
L 309.887444 212.990099 
L 309.887444 207.960396 
L 310.075159 207.960396 
L 310.075159 202.930693 
L 310.305874 202.930693 
L 310.346615 192.871287 
L 311.010386 192.871287 
L 311.010386 187.841584 
L 311.175845 187.841584 
L 311.175845 182.811881 
L 312.390179 182.811881 
L 312.390179 177.782178 
L 312.531791 177.782178 
L 312.531791 172.752475 
L 312.802563 172.752475 
L 312.834665 162.693069 
L 313.31831 162.693069 
L 313.31831 157.663366 
L 313.488958 157.663366 
L 313.488958 152.633663 
L 314.76164 152.633663 
L 314.815601 142.574257 
L 315.200086 142.574257 
L 315.200086 137.544554 
L 315.495072 137.544554 
L 315.531676 127.485149 
L 315.812514 127.485149 
L 315.8702 117.425743 
L 316.591982 117.425743 
L 316.591982 112.39604 
L 317.269967 112.39604 
L 317.269967 107.366337 
L 317.397308 107.366337 
L 317.397308 102.336634 
L 318.479663 102.336634 
L 318.479663 97.306931 
L 319.44917 97.306931 
L 319.44917 92.277228 
L 320.128596 92.277228 
L 320.128596 87.247525 
L 325.804146 87.247525 
L 325.804146 82.217822 
L 329.737898 82.217822 
L 329.737898 77.188119 
L 337.68407 77.188119 
L 337.68407 72.158416 
L 347.237368 72.158416 
L 347.237368 67.128713 
L 352.297579 67.128713 
L 352.297579 62.09901 
L 358.224624 62.09901 
L 358.224624 57.069307 
L 364.46495 57.069307 
L 364.46495 52.039604 
L 366.232863 52.039604 
L 366.232863 47.009901 
L 366.535246 47.009901 
L 366.535246 41.980198 
L 372.43772 41.980198 
L 372.43772 36.950495 
L 376.426639 36.950495 
L 376.426639 31.920792 
L 376.927219 31.920792 
L 376.974572 21.861386 
L 378.419158 21.861386 
L 378.419158 16.831683 
L 384.310528 16.831683 
L 384.310528 11.80198 
L 391.196243 11.80198 
L 391.196243 6.772277 
L 391.196243 6.772277 
L 567.24 6.772277 
L 567.24 6.772277 
" style="fill:none;stroke:#bf00bf;stroke-linecap:square;"/>
   </g>
   <g id="line2d_7">
    <path clip-path="url(#p0e889da335)" d="M -1 313.584158 
L 2.490169 313.584158 
L 2.490169 308.554455 
L 3.363404 308.554455 
L 3.363404 303.524752 
L 4.407062 303.524752 
L 4.506388 288.435644 
L 7.793579 288.435644 
L 7.793579 283.405941 
L 11.74171 283.405941 
L 11.74171 278.376238 
L 12.468511 278.376238 
L 12.468511 273.346535 
L 13.465099 273.346535 
L 13.465099 268.316832 
L 15.25942 268.316832 
L 15.25942 263.287129 
L 25.305741 263.287129 
L 25.305741 258.257426 
L 25.777411 258.257426 
L 25.777411 253.227723 
L 26.442079 253.227723 
L 26.442079 248.19802 
L 32.558195 248.19802 
L 32.558195 243.168317 
L 32.937308 243.168317 
L 32.937308 238.138614 
L 33.173899 238.138614 
L 33.173899 233.108911 
L 107.390753 233.108911 
L 107.390753 228.079208 
L 112.810151 228.079208 
L 112.810151 223.049505 
L 115.624079 223.049505 
L 115.624079 218.019802 
L 117.922568 218.019802 
L 117.922568 212.990099 
L 118.158963 212.990099 
L 118.158963 207.960396 
L 118.780615 207.960396 
L 118.827421 197.90099 
L 121.586294 197.90099 
L 121.586294 192.871287 
L 122.1825 192.871287 
L 122.1825 187.841584 
L 122.568987 187.841584 
L 122.568987 182.811881 
L 122.817721 182.811881 
L 122.817721 177.782178 
L 124.040309 177.782178 
L 124.040309 172.752475 
L 124.980878 172.752475 
L 124.980878 167.722772 
L 125.37419 167.722772 
L 125.37419 162.693069 
L 133.843015 162.693069 
L 133.843015 157.663366 
L 278.530481 157.663366 
L 278.546692 147.60396 
L 284.238085 147.60396 
L 284.307008 137.544554 
L 288.364401 137.544554 
L 288.37872 117.425743 
L 288.743428 117.425743 
L 288.743428 112.39604 
L 288.983504 112.39604 
L 288.983504 107.366337 
L 289.177973 107.366337 
L 289.177973 102.336634 
L 291.58103 102.336634 
L 291.58164 92.277228 
L 292.073169 92.277228 
L 292.073169 87.247525 
L 292.768587 87.247525 
L 292.768587 82.217822 
L 293.007608 82.217822 
L 293.034097 72.158416 
L 293.800698 72.158416 
L 293.800698 67.128713 
L 294.275224 67.128713 
L 294.275224 62.09901 
L 294.498972 62.09901 
L 294.498972 57.069307 
L 295.253295 57.069307 
L 295.253295 52.039604 
L 296.03112 52.039604 
L 296.03112 47.009901 
L 296.144897 47.009901 
L 296.144897 41.980198 
L 296.432314 41.980198 
L 296.44365 11.80198 
L 302.949103 11.80198 
L 302.949103 6.772277 
L 302.949103 6.772277 
L 567.24 6.772277 
L 567.24 6.772277 
" style="fill:none;stroke:#000000;stroke-linecap:square;"/>
   </g>
   <g id="line2d_8">
    <path clip-path="url(#p0e889da335)" d="M -1 228.079208 
L 82.100407 228.079208 
L 82.100407 223.049505 
L 83.40809 223.049505 
L 83.40809 218.019802 
L 84.364628 218.019802 
L 84.364628 212.990099 
L 84.801591 212.990099 
L 84.801591 207.960396 
L 85.686907 207.960396 
L 85.686907 202.930693 
L 86.213591 202.930693 
L 86.213591 197.90099 
L 87.559636 197.90099 
L 87.559636 192.871287 
L 88.071051 192.871287 
L 88.071051 187.841584 
L 88.895884 187.841584 
L 88.895884 182.811881 
L 89.048103 182.811881 
L 89.121378 172.752475 
L 89.688097 172.752475 
L 89.79415 157.663366 
L 91.123403 157.663366 
L 91.123403 152.633663 
L 268.375889 152.633663 
L 268.375889 122.455446 
L 270.644015 122.455446 
L 270.644015 117.425743 
L 272.816284 117.425743 
L 272.816284 112.39604 
L 278.369792 112.39604 
L 278.369792 62.09901 
L 282.204671 62.09901 
L 282.204671 57.069307 
L 284.21585 57.069307 
L 284.215982 26.891089 
L 288.363695 26.891089 
L 288.363695 6.772277 
L 288.363695 6.772277 
L 567.24 6.772277 
L 567.24 6.772277 
" style="fill:none;stroke:#00bfbf;stroke-linecap:square;"/>
   </g>
   <g id="line2d_9">
    <path clip-path="url(#p0e889da335)" d="M -1 182.811881 
L 10.175863 182.811881 
L 10.175863 177.782178 
L 68.212717 177.782178 
L 68.212717 172.752475 
L 71.529244 172.752475 
L 71.529244 167.722772 
L 72.400005 167.722772 
L 72.400005 162.693069 
L 74.087176 162.693069 
L 74.087176 157.663366 
L 74.875489 157.663366 
L 74.875489 152.633663 
L 75.444864 152.633663 
L 75.444864 147.60396 
L 81.291938 147.60396 
L 81.291938 142.574257 
L 81.564323 142.574257 
L 81.564323 137.544554 
L 81.782845 137.544554 
L 81.782845 132.514851 
L 82.051222 132.514851 
L 82.051222 127.485149 
L 83.682983 127.485149 
L 83.682983 122.455446 
L 84.408214 122.455446 
L 84.408214 117.425743 
L 84.606599 117.425743 
L 84.606599 112.39604 
L 84.879999 112.39604 
L 84.879999 107.366337 
L 84.992129 107.366337 
L 84.992129 102.336634 
L 268.375889 102.336634 
L 268.375889 36.950495 
L 278.369792 36.950495 
L 278.369792 6.772277 
L 278.369792 6.772277 
L 567.24 6.772277 
L 567.24 6.772277 
" style="fill:none;stroke:#bf00bf;stroke-linecap:square;"/>
   </g>
   <g id="line2d_10">
    <path clip-path="url(#p0e889da335)" d="M -1 157.663366 
L 5.739263 157.663366 
L 5.739263 152.633663 
L 62.387515 152.633663 
L 62.387515 147.60396 
L 67.77765 147.60396 
L 67.77765 142.574257 
L 68.212717 142.574257 
L 68.212717 137.544554 
L 70.063181 137.544554 
L 70.063181 132.514851 
L 70.180233 132.514851 
L 70.180233 127.485149 
L 71.529244 127.485149 
L 71.529244 122.455446 
L 72.400005 122.455446 
L 72.400005 117.425743 
L 73.266182 117.425743 
L 73.266182 112.39604 
L 74.087176 112.39604 
L 74.087176 107.366337 
L 74.509157 107.366337 
L 74.509157 102.336634 
L 74.875489 102.336634 
L 74.875489 97.306931 
L 77.490394 97.306931 
L 77.490394 92.277228 
L 78.036016 92.277228 
L 78.036016 87.247525 
L 78.735466 87.247525 
L 78.735466 82.217822 
L 80.067615 82.217822 
L 80.067615 77.188119 
L 268.375889 77.188119 
L 268.375889 11.80198 
L 278.369792 11.80198 
L 278.369792 6.772277 
L 278.369792 6.772277 
L 567.24 6.772277 
L 567.24 6.772277 
" style="fill:none;stroke:#000000;stroke-linecap:square;"/>
   </g>
   <g id="patch_3">
    <path d="M 3 3 
L 567.24 3 
" style="fill:none;stroke:#000000;stroke-linecap:square;stroke-linejoin:miter;"/>
   </g>
   <g id="patch_4">
    <path d="M 567.24 384 
L 567.24 3 
" style="fill:none;stroke:#000000;stroke-linecap:square;stroke-linejoin:miter;"/>
   </g>
   <g id="patch_5">
    <path d="M 3 384 
L 567.24 384 
" style="fill:none;stroke:#000000;stroke-linecap:square;stroke-linejoin:miter;"/>
   </g>
   <g id="patch_6">
    <path d="M 3 384 
L 3 3 
" style="fill:none;stroke:#000000;stroke-linecap:square;stroke-linejoin:miter;"/>
   </g>
   <g id="matplotlib.axis_1">
    <g id="xtick_1"/>
    <g id="xtick_2">
     <g id="line2d_11">
      <path clip-path="url(#p0e889da335)" d="M 69.254589 384 
L 69.254589 3 
" style="fill:none;stroke:#000000;stroke-dasharray:1.000000,3.000000;stroke-dashoffset:0.0;stroke-width:0.5;"/>
     </g>
     <g id="line2d_12">
      <defs>
       <path d="M 0 0 
L 0 -4 
" id="ma4df195321" style="stroke:#000000;stroke-width:0.5;"/>
      </defs>
      <g>
       <use style="stroke:#000000;stroke-width:0.5;" x="69.25458934719217" xlink:href="#ma4df195321" y="384.0"/>
      </g>
     </g>
     <g id="line2d_13">
      <defs>
       <path d="M 0 0 
L 0 4 
" id="m3f01387651" style="stroke:#000000;stroke-width:0.5;"/>
      </defs>
      <g>
       <use style="stroke:#000000;stroke-width:0.5;" x="69.25458934719217" xlink:href="#m3f01387651" y="3.0"/>
      </g>
     </g>
     <g id="text_1">
      <!-- -6 -->
      <defs>
       <path d="M 33.015625 40.375 
Q 26.375 40.375 22.484375 35.828125 
Q 18.609375 31.296875 18.609375 23.390625 
Q 18.609375 15.53125 22.484375 10.953125 
Q 26.375 6.390625 33.015625 6.390625 
Q 39.65625 6.390625 43.53125 10.953125 
Q 47.40625 15.53125 47.40625 23.390625 
Q 47.40625 31.296875 43.53125 35.828125 
Q 39.65625 40.375 33.015625 40.375 
M 52.59375 71.296875 
L 52.59375 62.3125 
Q 48.875 64.0625 45.09375 64.984375 
Q 41.3125 65.921875 37.59375 65.921875 
Q 27.828125 65.921875 22.671875 59.328125 
Q 17.53125 52.734375 16.796875 39.40625 
Q 19.671875 43.65625 24.015625 45.921875 
Q 28.375 48.1875 33.59375 48.1875 
Q 44.578125 48.1875 50.953125 41.515625 
Q 57.328125 34.859375 57.328125 23.390625 
Q 57.328125 12.15625 50.6875 5.359375 
Q 44.046875 -1.421875 33.015625 -1.421875 
Q 20.359375 -1.421875 13.671875 8.265625 
Q 6.984375 17.96875 6.984375 36.375 
Q 6.984375 53.65625 15.1875 63.9375 
Q 23.390625 74.21875 37.203125 74.21875 
Q 40.921875 74.21875 44.703125 73.484375 
Q 48.484375 72.75 52.59375 71.296875 
" id="BitstreamVeraSans-Roman-36"/>
       <path d="M 4.890625 31.390625 
L 31.203125 31.390625 
L 31.203125 23.390625 
L 4.890625 23.390625 
z
" id="BitstreamVeraSans-Roman-2d"/>
      </defs>
      <g transform="translate(59.28427684719217 403.196875)scale(0.2 -0.2)">
       <use xlink:href="#BitstreamVeraSans-Roman-2d"/>
       <use x="36.083984375" xlink:href="#BitstreamVeraSans-Roman-36"/>
      </g>
     </g>
    </g>
    <g id="xtick_3">
     <g id="line2d_14">
      <path clip-path="url(#p0e889da335)" d="M 135.652644 384 
L 135.652644 3 
" style="fill:none;stroke:#000000;stroke-dasharray:1.000000,3.000000;stroke-dashoffset:0.0;stroke-width:0.5;"/>
     </g>
     <g id="line2d_15">
      <g>
       <use style="stroke:#000000;stroke-width:0.5;" x="135.65264410089986" xlink:href="#ma4df195321" y="384.0"/>
      </g>
     </g>
     <g id="line2d_16">
      <g>
       <use style="stroke:#000000;stroke-width:0.5;" x="135.65264410089986" xlink:href="#m3f01387651" y="3.0"/>
      </g>
     </g>
     <g id="text_2">
      <!-- -4 -->
      <defs>
       <path d="M 37.796875 64.3125 
L 12.890625 25.390625 
L 37.796875 25.390625 
z
M 35.203125 72.90625 
L 47.609375 72.90625 
L 47.609375 25.390625 
L 58.015625 25.390625 
L 58.015625 17.1875 
L 47.609375 17.1875 
L 47.609375 0 
L 37.796875 0 
L 37.796875 17.1875 
L 4.890625 17.1875 
L 4.890625 26.703125 
z
" id="BitstreamVeraSans-Roman-34"/>
      </defs>
      <g transform="translate(125.68233160089986 403.196875)scale(0.2 -0.2)">
       <use xlink:href="#BitstreamVeraSans-Roman-2d"/>
       <use x="36.083984375" xlink:href="#BitstreamVeraSans-Roman-34"/>
      </g>
     </g>
    </g>
    <g id="xtick_4">
     <g id="line2d_17">
      <path clip-path="url(#p0e889da335)" d="M 202.050699 384 
L 202.050699 3 
" style="fill:none;stroke:#000000;stroke-dasharray:1.000000,3.000000;stroke-dashoffset:0.0;stroke-width:0.5;"/>
     </g>
     <g id="line2d_18">
      <g>
       <use style="stroke:#000000;stroke-width:0.5;" x="202.0506988546076" xlink:href="#ma4df195321" y="384.0"/>
      </g>
     </g>
     <g id="line2d_19">
      <g>
       <use style="stroke:#000000;stroke-width:0.5;" x="202.0506988546076" xlink:href="#m3f01387651" y="3.0"/>
      </g>
     </g>
     <g id="text_3">
      <!-- -2 -->
      <defs>
       <path d="M 19.1875 8.296875 
L 53.609375 8.296875 
L 53.609375 0 
L 7.328125 0 
L 7.328125 8.296875 
Q 12.9375 14.109375 22.625 23.890625 
Q 32.328125 33.6875 34.8125 36.53125 
Q 39.546875 41.84375 41.421875 45.53125 
Q 43.3125 49.21875 43.3125 52.78125 
Q 43.3125 58.59375 39.234375 62.25 
Q 35.15625 65.921875 28.609375 65.921875 
Q 23.96875 65.921875 18.8125 64.3125 
Q 13.671875 62.703125 7.8125 59.421875 
L 7.8125 69.390625 
Q 13.765625 71.78125 18.9375 73 
Q 24.125 74.21875 28.421875 74.21875 
Q 39.75 74.21875 46.484375 68.546875 
Q 53.21875 62.890625 53.21875 53.421875 
Q 53.21875 48.921875 51.53125 44.890625 
Q 49.859375 40.875 45.40625 35.40625 
Q 44.1875 33.984375 37.640625 27.21875 
Q 31.109375 20.453125 19.1875 8.296875 
" id="BitstreamVeraSans-Roman-32"/>
      </defs>
      <g transform="translate(192.08038635460758 403.196875)scale(0.2 -0.2)">
       <use xlink:href="#BitstreamVeraSans-Roman-2d"/>
       <use x="36.083984375" xlink:href="#BitstreamVeraSans-Roman-32"/>
      </g>
     </g>
    </g>
    <g id="xtick_5">
     <g id="line2d_20">
      <path clip-path="url(#p0e889da335)" d="M 268.448754 384 
L 268.448754 3 
" style="fill:none;stroke:#000000;stroke-dasharray:1.000000,3.000000;stroke-dashoffset:0.0;stroke-width:0.5;"/>
     </g>
     <g id="line2d_21">
      <g>
       <use style="stroke:#000000;stroke-width:0.5;" x="268.4487536083153" xlink:href="#ma4df195321" y="384.0"/>
      </g>
     </g>
     <g id="line2d_22">
      <g>
       <use style="stroke:#000000;stroke-width:0.5;" x="268.4487536083153" xlink:href="#m3f01387651" y="3.0"/>
      </g>
     </g>
     <g id="text_4">
      <!-- 0 -->
      <defs>
       <path d="M 31.78125 66.40625 
Q 24.171875 66.40625 20.328125 58.90625 
Q 16.5 51.421875 16.5 36.375 
Q 16.5 21.390625 20.328125 13.890625 
Q 24.171875 6.390625 31.78125 6.390625 
Q 39.453125 6.390625 43.28125 13.890625 
Q 47.125 21.390625 47.125 36.375 
Q 47.125 51.421875 43.28125 58.90625 
Q 39.453125 66.40625 31.78125 66.40625 
M 31.78125 74.21875 
Q 44.046875 74.21875 50.515625 64.515625 
Q 56.984375 54.828125 56.984375 36.375 
Q 56.984375 17.96875 50.515625 8.265625 
Q 44.046875 -1.421875 31.78125 -1.421875 
Q 19.53125 -1.421875 13.0625 8.265625 
Q 6.59375 17.96875 6.59375 36.375 
Q 6.59375 54.828125 13.0625 64.515625 
Q 19.53125 74.21875 31.78125 74.21875 
" id="BitstreamVeraSans-Roman-30"/>
      </defs>
      <g transform="translate(262.0862536083153 403.196875)scale(0.2 -0.2)">
       <use xlink:href="#BitstreamVeraSans-Roman-30"/>
      </g>
     </g>
    </g>
    <g id="xtick_6">
     <g id="line2d_23">
      <path clip-path="url(#p0e889da335)" d="M 334.846808 384 
L 334.846808 3 
" style="fill:none;stroke:#000000;stroke-dasharray:1.000000,3.000000;stroke-dashoffset:0.0;stroke-width:0.5;"/>
     </g>
     <g id="line2d_24">
      <g>
       <use style="stroke:#000000;stroke-width:0.5;" x="334.846808362023" xlink:href="#ma4df195321" y="384.0"/>
      </g>
     </g>
     <g id="line2d_25">
      <g>
       <use style="stroke:#000000;stroke-width:0.5;" x="334.846808362023" xlink:href="#m3f01387651" y="3.0"/>
      </g>
     </g>
     <g id="text_5">
      <!-- 2 -->
      <g transform="translate(328.484308362023 403.196875)scale(0.2 -0.2)">
       <use xlink:href="#BitstreamVeraSans-Roman-32"/>
      </g>
     </g>
    </g>
    <g id="xtick_7">
     <g id="line2d_26">
      <path clip-path="url(#p0e889da335)" d="M 401.244863 384 
L 401.244863 3 
" style="fill:none;stroke:#000000;stroke-dasharray:1.000000,3.000000;stroke-dashoffset:0.0;stroke-width:0.5;"/>
     </g>
     <g id="line2d_27">
      <g>
       <use style="stroke:#000000;stroke-width:0.5;" x="401.2448631157307" xlink:href="#ma4df195321" y="384.0"/>
      </g>
     </g>
     <g id="line2d_28">
      <g>
       <use style="stroke:#000000;stroke-width:0.5;" x="401.2448631157307" xlink:href="#m3f01387651" y="3.0"/>
      </g>
     </g>
     <g id="text_6">
      <!-- 4 -->
      <g transform="translate(394.8823631157307 403.196875)scale(0.2 -0.2)">
       <use xlink:href="#BitstreamVeraSans-Roman-34"/>
      </g>
     </g>
    </g>
    <g id="xtick_8">
     <g id="line2d_29">
      <path clip-path="url(#p0e889da335)" d="M 467.642918 384 
L 467.642918 3 
" style="fill:none;stroke:#000000;stroke-dasharray:1.000000,3.000000;stroke-dashoffset:0.0;stroke-width:0.5;"/>
     </g>
     <g id="line2d_30">
      <g>
       <use style="stroke:#000000;stroke-width:0.5;" x="467.6429178694384" xlink:href="#ma4df195321" y="384.0"/>
      </g>
     </g>
     <g id="line2d_31">
      <g>
       <use style="stroke:#000000;stroke-width:0.5;" x="467.6429178694384" xlink:href="#m3f01387651" y="3.0"/>
      </g>
     </g>
     <g id="text_7">
      <!-- 6 -->
      <g transform="translate(461.2804178694384 403.196875)scale(0.2 -0.2)">
       <use xlink:href="#BitstreamVeraSans-Roman-36"/>
      </g>
     </g>
    </g>
    <g id="xtick_9">
     <g id="line2d_32">
      <path clip-path="url(#p0e889da335)" d="M 534.040973 384 
L 534.040973 3 
" style="fill:none;stroke:#000000;stroke-dasharray:1.000000,3.000000;stroke-dashoffset:0.0;stroke-width:0.5;"/>
     </g>
     <g id="line2d_33">
      <g>
       <use style="stroke:#000000;stroke-width:0.5;" x="534.0409726231461" xlink:href="#ma4df195321" y="384.0"/>
      </g>
     </g>
     <g id="line2d_34">
      <g>
       <use style="stroke:#000000;stroke-width:0.5;" x="534.0409726231461" xlink:href="#m3f01387651" y="3.0"/>
      </g>
     </g>
     <g id="text_8">
      <!-- 8 -->
      <defs>
       <path d="M 31.78125 34.625 
Q 24.75 34.625 20.71875 30.859375 
Q 16.703125 27.09375 16.703125 20.515625 
Q 16.703125 13.921875 20.71875 10.15625 
Q 24.75 6.390625 31.78125 6.390625 
Q 38.8125 6.390625 42.859375 10.171875 
Q 46.921875 13.96875 46.921875 20.515625 
Q 46.921875 27.09375 42.890625 30.859375 
Q 38.875 34.625 31.78125 34.625 
M 21.921875 38.8125 
Q 15.578125 40.375 12.03125 44.71875 
Q 8.5 49.078125 8.5 55.328125 
Q 8.5 64.0625 14.71875 69.140625 
Q 20.953125 74.21875 31.78125 74.21875 
Q 42.671875 74.21875 48.875 69.140625 
Q 55.078125 64.0625 55.078125 55.328125 
Q 55.078125 49.078125 51.53125 44.71875 
Q 48 40.375 41.703125 38.8125 
Q 48.828125 37.15625 52.796875 32.3125 
Q 56.78125 27.484375 56.78125 20.515625 
Q 56.78125 9.90625 50.3125 4.234375 
Q 43.84375 -1.421875 31.78125 -1.421875 
Q 19.734375 -1.421875 13.25 4.234375 
Q 6.78125 9.90625 6.78125 20.515625 
Q 6.78125 27.484375 10.78125 32.3125 
Q 14.796875 37.15625 21.921875 38.8125 
M 18.3125 54.390625 
Q 18.3125 48.734375 21.84375 45.5625 
Q 25.390625 42.390625 31.78125 42.390625 
Q 38.140625 42.390625 41.71875 45.5625 
Q 45.3125 48.734375 45.3125 54.390625 
Q 45.3125 60.0625 41.71875 63.234375 
Q 38.140625 66.40625 31.78125 66.40625 
Q 25.390625 66.40625 21.84375 63.234375 
Q 18.3125 60.0625 18.3125 54.390625 
" id="BitstreamVeraSans-Roman-38"/>
      </defs>
      <g transform="translate(527.6784726231461 403.196875)scale(0.2 -0.2)">
       <use xlink:href="#BitstreamVeraSans-Roman-38"/>
      </g>
     </g>
    </g>
    <g id="xtick_10"/>
    <g id="xtick_11">
     <g id="line2d_35">
      <defs>
       <path d="M 0 0 
L 0 -2 
" id="me3a65192c5" style="stroke:#000000;stroke-width:0.5;"/>
      </defs>
      <g>
       <use style="stroke:#000000;stroke-width:0.5;" x="69.25458934719217" xlink:href="#me3a65192c5" y="384.0"/>
      </g>
     </g>
     <g id="line2d_36">
      <defs>
       <path d="M 0 0 
L 0 2 
" id="m06d437afc0" style="stroke:#000000;stroke-width:0.5;"/>
      </defs>
      <g>
       <use style="stroke:#000000;stroke-width:0.5;" x="69.25458934719217" xlink:href="#m06d437afc0" y="3.0"/>
      </g>
     </g>
    </g>
    <g id="xtick_12">
     <g id="line2d_37">
      <g>
       <use style="stroke:#000000;stroke-width:0.5;" x="135.65264410089986" xlink:href="#me3a65192c5" y="384.0"/>
      </g>
     </g>
     <g id="line2d_38">
      <g>
       <use style="stroke:#000000;stroke-width:0.5;" x="135.65264410089986" xlink:href="#m06d437afc0" y="3.0"/>
      </g>
     </g>
    </g>
    <g id="xtick_13">
     <g id="line2d_39">
      <g>
       <use style="stroke:#000000;stroke-width:0.5;" x="202.0506988546076" xlink:href="#me3a65192c5" y="384.0"/>
      </g>
     </g>
     <g id="line2d_40">
      <g>
       <use style="stroke:#000000;stroke-width:0.5;" x="202.0506988546076" xlink:href="#m06d437afc0" y="3.0"/>
      </g>
     </g>
    </g>
    <g id="xtick_14">
     <g id="line2d_41">
      <g>
       <use style="stroke:#000000;stroke-width:0.5;" x="268.4487536083153" xlink:href="#me3a65192c5" y="384.0"/>
      </g>
     </g>
     <g id="line2d_42">
      <g>
       <use style="stroke:#000000;stroke-width:0.5;" x="268.4487536083153" xlink:href="#m06d437afc0" y="3.0"/>
      </g>
     </g>
    </g>
    <g id="xtick_15">
     <g id="line2d_43">
      <g>
       <use style="stroke:#000000;stroke-width:0.5;" x="334.846808362023" xlink:href="#me3a65192c5" y="384.0"/>
      </g>
     </g>
     <g id="line2d_44">
      <g>
       <use style="stroke:#000000;stroke-width:0.5;" x="334.846808362023" xlink:href="#m06d437afc0" y="3.0"/>
      </g>
     </g>
    </g>
    <g id="xtick_16">
     <g id="line2d_45">
      <g>
       <use style="stroke:#000000;stroke-width:0.5;" x="401.2448631157307" xlink:href="#me3a65192c5" y="384.0"/>
      </g>
     </g>
     <g id="line2d_46">
      <g>
       <use style="stroke:#000000;stroke-width:0.5;" x="401.2448631157307" xlink:href="#m06d437afc0" y="3.0"/>
      </g>
     </g>
    </g>
    <g id="xtick_17">
     <g id="line2d_47">
      <g>
       <use style="stroke:#000000;stroke-width:0.5;" x="467.6429178694384" xlink:href="#me3a65192c5" y="384.0"/>
      </g>
     </g>
     <g id="line2d_48">
      <g>
       <use style="stroke:#000000;stroke-width:0.5;" x="467.6429178694384" xlink:href="#m06d437afc0" y="3.0"/>
      </g>
     </g>
    </g>
    <g id="xtick_18">
     <g id="line2d_49">
      <g>
       <use style="stroke:#000000;stroke-width:0.5;" x="534.0409726231461" xlink:href="#me3a65192c5" y="384.0"/>
      </g>
     </g>
     <g id="line2d_50">
      <g>
       <use style="stroke:#000000;stroke-width:0.5;" x="534.0409726231461" xlink:href="#m06d437afc0" y="3.0"/>
      </g>
     </g>
    </g>
    <g id="text_9">
     <!-- log10 of Df -->
     <defs>
      <path id="BitstreamVeraSans-Roman-20"/>
      <path d="M 12.40625 8.296875 
L 28.515625 8.296875 
L 28.515625 63.921875 
L 10.984375 60.40625 
L 10.984375 69.390625 
L 28.421875 72.90625 
L 38.28125 72.90625 
L 38.28125 8.296875 
L 54.390625 8.296875 
L 54.390625 0 
L 12.40625 0 
z
" id="BitstreamVeraSans-Roman-31"/>
      <path d="M 30.609375 48.390625 
Q 23.390625 48.390625 19.1875 42.75 
Q 14.984375 37.109375 14.984375 27.296875 
Q 14.984375 17.484375 19.15625 11.84375 
Q 23.34375 6.203125 30.609375 6.203125 
Q 37.796875 6.203125 41.984375 11.859375 
Q 46.1875 17.53125 46.1875 27.296875 
Q 46.1875 37.015625 41.984375 42.703125 
Q 37.796875 48.390625 30.609375 48.390625 
M 30.609375 56 
Q 42.328125 56 49.015625 48.375 
Q 55.71875 40.765625 55.71875 27.296875 
Q 55.71875 13.875 49.015625 6.21875 
Q 42.328125 -1.421875 30.609375 -1.421875 
Q 18.84375 -1.421875 12.171875 6.21875 
Q 5.515625 13.875 5.515625 27.296875 
Q 5.515625 40.765625 12.171875 48.375 
Q 18.84375 56 30.609375 56 
" id="BitstreamVeraSans-Roman-6f"/>
      <path d="M 9.421875 75.984375 
L 18.40625 75.984375 
L 18.40625 0 
L 9.421875 0 
z
" id="BitstreamVeraSans-Roman-6c"/>
      <path d="M 19.671875 64.796875 
L 19.671875 8.109375 
L 31.59375 8.109375 
Q 46.6875 8.109375 53.6875 14.9375 
Q 60.6875 21.78125 60.6875 36.53125 
Q 60.6875 51.171875 53.6875 57.984375 
Q 46.6875 64.796875 31.59375 64.796875 
z
M 9.8125 72.90625 
L 30.078125 72.90625 
Q 51.265625 72.90625 61.171875 64.09375 
Q 71.09375 55.28125 71.09375 36.53125 
Q 71.09375 17.671875 61.125 8.828125 
Q 51.171875 0 30.078125 0 
L 9.8125 0 
z
" id="BitstreamVeraSans-Roman-44"/>
      <path d="M 45.40625 27.984375 
Q 45.40625 37.75 41.375 43.109375 
Q 37.359375 48.484375 30.078125 48.484375 
Q 22.859375 48.484375 18.828125 43.109375 
Q 14.796875 37.75 14.796875 27.984375 
Q 14.796875 18.265625 18.828125 12.890625 
Q 22.859375 7.515625 30.078125 7.515625 
Q 37.359375 7.515625 41.375 12.890625 
Q 45.40625 18.265625 45.40625 27.984375 
M 54.390625 6.78125 
Q 54.390625 -7.171875 48.1875 -13.984375 
Q 42 -20.796875 29.203125 -20.796875 
Q 24.46875 -20.796875 20.265625 -20.09375 
Q 16.0625 -19.390625 12.109375 -17.921875 
L 12.109375 -9.1875 
Q 16.0625 -11.328125 19.921875 -12.34375 
Q 23.78125 -13.375 27.78125 -13.375 
Q 36.625 -13.375 41.015625 -8.765625 
Q 45.40625 -4.15625 45.40625 5.171875 
L 45.40625 9.625 
Q 42.625 4.78125 38.28125 2.390625 
Q 33.9375 0 27.875 0 
Q 17.828125 0 11.671875 7.65625 
Q 5.515625 15.328125 5.515625 27.984375 
Q 5.515625 40.671875 11.671875 48.328125 
Q 17.828125 56 27.875 56 
Q 33.9375 56 38.28125 53.609375 
Q 42.625 51.21875 45.40625 46.390625 
L 45.40625 54.6875 
L 54.390625 54.6875 
z
" id="BitstreamVeraSans-Roman-67"/>
      <path d="M 37.109375 75.984375 
L 37.109375 68.5 
L 28.515625 68.5 
Q 23.6875 68.5 21.796875 66.546875 
Q 19.921875 64.59375 19.921875 59.515625 
L 19.921875 54.6875 
L 34.71875 54.6875 
L 34.71875 47.703125 
L 19.921875 47.703125 
L 19.921875 0 
L 10.890625 0 
L 10.890625 47.703125 
L 2.296875 47.703125 
L 2.296875 54.6875 
L 10.890625 54.6875 
L 10.890625 58.5 
Q 10.890625 67.625 15.140625 71.796875 
Q 19.390625 75.984375 28.609375 75.984375 
z
" id="BitstreamVeraSans-Roman-66"/>
     </defs>
     <g transform="translate(229.9340625 427.55312499999997)scale(0.2 -0.2)">
      <use xlink:href="#BitstreamVeraSans-Roman-6c"/>
      <use x="27.783203125" xlink:href="#BitstreamVeraSans-Roman-6f"/>
      <use x="88.96484375" xlink:href="#BitstreamVeraSans-Roman-67"/>
      <use x="152.44140625" xlink:href="#BitstreamVeraSans-Roman-31"/>
      <use x="216.064453125" xlink:href="#BitstreamVeraSans-Roman-30"/>
      <use x="279.6875" xlink:href="#BitstreamVeraSans-Roman-20"/>
      <use x="311.474609375" xlink:href="#BitstreamVeraSans-Roman-6f"/>
      <use x="372.65625" xlink:href="#BitstreamVeraSans-Roman-66"/>
      <use x="407.861328125" xlink:href="#BitstreamVeraSans-Roman-20"/>
      <use x="439.6484375" xlink:href="#BitstreamVeraSans-Roman-44"/>
      <use x="516.650390625" xlink:href="#BitstreamVeraSans-Roman-66"/>
     </g>
    </g>
   </g>
   <g id="matplotlib.axis_2">
    <g id="ytick_1">
     <g id="line2d_51">
      <path clip-path="url(#p0e889da335)" d="M 3 384 
L 567.24 384 
" style="fill:none;stroke:#000000;stroke-dasharray:1.000000,3.000000;stroke-dashoffset:0.0;stroke-width:0.5;"/>
     </g>
     <g id="line2d_52">
      <defs>
       <path d="M 0 0 
L 4 0 
" id="m61b337e01f" style="stroke:#000000;stroke-width:0.5;"/>
      </defs>
      <g>
       <use style="stroke:#000000;stroke-width:0.5;" x="3.0" xlink:href="#m61b337e01f" y="384.0"/>
      </g>
     </g>
     <g id="line2d_53">
      <defs>
       <path d="M 0 0 
L -4 0 
" id="mc74e98431f" style="stroke:#000000;stroke-width:0.5;"/>
      </defs>
      <g>
       <use style="stroke:#000000;stroke-width:0.5;" x="567.24" xlink:href="#mc74e98431f" y="384.0"/>
      </g>
     </g>
    </g>
    <g id="ytick_2">
     <g id="line2d_54">
      <path clip-path="url(#p0e889da335)" d="M 3 308.554455 
L 567.24 308.554455 
" style="fill:none;stroke:#000000;stroke-dasharray:1.000000,3.000000;stroke-dashoffset:0.0;stroke-width:0.5;"/>
     </g>
     <g id="line2d_55">
      <g>
       <use style="stroke:#000000;stroke-width:0.5;" x="3.0" xlink:href="#m61b337e01f" y="308.55445544554453"/>
      </g>
     </g>
     <g id="line2d_56">
      <g>
       <use style="stroke:#000000;stroke-width:0.5;" x="567.24" xlink:href="#mc74e98431f" y="308.55445544554453"/>
      </g>
     </g>
    </g>
    <g id="ytick_3">
     <g id="line2d_57">
      <path clip-path="url(#p0e889da335)" d="M 3 233.108911 
L 567.24 233.108911 
" style="fill:none;stroke:#000000;stroke-dasharray:1.000000,3.000000;stroke-dashoffset:0.0;stroke-width:0.5;"/>
     </g>
     <g id="line2d_58">
      <g>
       <use style="stroke:#000000;stroke-width:0.5;" x="3.0" xlink:href="#m61b337e01f" y="233.1089108910891"/>
      </g>
     </g>
     <g id="line2d_59">
      <g>
       <use style="stroke:#000000;stroke-width:0.5;" x="567.24" xlink:href="#mc74e98431f" y="233.1089108910891"/>
      </g>
     </g>
    </g>
    <g id="ytick_4">
     <g id="line2d_60">
      <path clip-path="url(#p0e889da335)" d="M 3 157.663366 
L 567.24 157.663366 
" style="fill:none;stroke:#000000;stroke-dasharray:1.000000,3.000000;stroke-dashoffset:0.0;stroke-width:0.5;"/>
     </g>
     <g id="line2d_61">
      <g>
       <use style="stroke:#000000;stroke-width:0.5;" x="3.0" xlink:href="#m61b337e01f" y="157.66336633663363"/>
      </g>
     </g>
     <g id="line2d_62">
      <g>
       <use style="stroke:#000000;stroke-width:0.5;" x="567.24" xlink:href="#mc74e98431f" y="157.66336633663363"/>
      </g>
     </g>
    </g>
    <g id="ytick_5">
     <g id="line2d_63">
      <path clip-path="url(#p0e889da335)" d="M 3 82.217822 
L 567.24 82.217822 
" style="fill:none;stroke:#000000;stroke-dasharray:1.000000,3.000000;stroke-dashoffset:0.0;stroke-width:0.5;"/>
     </g>
     <g id="line2d_64">
      <g>
       <use style="stroke:#000000;stroke-width:0.5;" x="3.0" xlink:href="#m61b337e01f" y="82.21782178217819"/>
      </g>
     </g>
     <g id="line2d_65">
      <g>
       <use style="stroke:#000000;stroke-width:0.5;" x="567.24" xlink:href="#mc74e98431f" y="82.21782178217819"/>
      </g>
     </g>
    </g>
    <g id="ytick_6">
     <g id="line2d_66">
      <path clip-path="url(#p0e889da335)" d="M 3 6.772277 
L 567.24 6.772277 
" style="fill:none;stroke:#000000;stroke-dasharray:1.000000,3.000000;stroke-dashoffset:0.0;stroke-width:0.5;"/>
     </g>
     <g id="line2d_67">
      <g>
       <use style="stroke:#000000;stroke-width:0.5;" x="3.0" xlink:href="#m61b337e01f" y="6.772277227722782"/>
      </g>
     </g>
     <g id="line2d_68">
      <g>
       <use style="stroke:#000000;stroke-width:0.5;" x="567.24" xlink:href="#mc74e98431f" y="6.772277227722782"/>
      </g>
     </g>
    </g>
   </g>
   <g id="text_10">
    <!-- {f1-f5}, 5-D -->
    <defs>
     <path d="M 12.5 -9.28125 
L 15.921875 -9.28125 
Q 22.75 -9.28125 24.828125 -7.171875 
Q 26.90625 -5.078125 26.90625 1.90625 
L 26.90625 14.015625 
Q 26.90625 21.625 29.09375 25.09375 
Q 31.296875 28.5625 36.71875 29.890625 
Q 31.296875 31.109375 29.09375 34.5625 
Q 26.90625 38.03125 26.90625 45.703125 
L 26.90625 57.8125 
Q 26.90625 64.75 24.828125 66.875 
Q 22.75 69 15.921875 69 
L 12.5 69 
L 12.5 75.984375 
L 15.578125 75.984375 
Q 27.734375 75.984375 31.8125 72.390625 
Q 35.890625 68.796875 35.890625 58.015625 
L 35.890625 46.296875 
Q 35.890625 39.015625 38.515625 36.203125 
Q 41.15625 33.40625 48.09375 33.40625 
L 51.125 33.40625 
L 51.125 26.421875 
L 48.09375 26.421875 
Q 41.15625 26.421875 38.515625 23.578125 
Q 35.890625 20.75 35.890625 13.375 
L 35.890625 1.703125 
Q 35.890625 -9.078125 31.8125 -12.6875 
Q 27.734375 -16.3125 15.578125 -16.3125 
L 12.5 -16.3125 
z
" id="BitstreamVeraSans-Roman-7d"/>
     <path d="M 51.125 -9.28125 
L 51.125 -16.3125 
L 48.09375 -16.3125 
Q 35.9375 -16.3125 31.8125 -12.6875 
Q 27.6875 -9.078125 27.6875 1.703125 
L 27.6875 13.375 
Q 27.6875 20.75 25.046875 23.578125 
Q 22.40625 26.421875 15.484375 26.421875 
L 12.5 26.421875 
L 12.5 33.40625 
L 15.484375 33.40625 
Q 22.46875 33.40625 25.078125 36.203125 
Q 27.6875 39.015625 27.6875 46.296875 
L 27.6875 58.015625 
Q 27.6875 68.796875 31.8125 72.390625 
Q 35.9375 75.984375 48.09375 75.984375 
L 51.125 75.984375 
L 51.125 69 
L 47.796875 69 
Q 40.921875 69 38.8125 66.84375 
Q 36.71875 64.703125 36.71875 57.8125 
L 36.71875 45.703125 
Q 36.71875 38.03125 34.5 34.5625 
Q 32.28125 31.109375 26.90625 29.890625 
Q 32.328125 28.5625 34.515625 25.09375 
Q 36.71875 21.625 36.71875 14.015625 
L 36.71875 1.90625 
Q 36.71875 -4.984375 38.8125 -7.125 
Q 40.921875 -9.28125 47.796875 -9.28125 
z
" id="BitstreamVeraSans-Roman-7b"/>
     <path d="M 11.71875 12.40625 
L 22.015625 12.40625 
L 22.015625 4 
L 14.015625 -11.625 
L 7.71875 -11.625 
L 11.71875 4 
z
" id="BitstreamVeraSans-Roman-2c"/>
     <path d="M 10.796875 72.90625 
L 49.515625 72.90625 
L 49.515625 64.59375 
L 19.828125 64.59375 
L 19.828125 46.734375 
Q 21.96875 47.46875 24.109375 47.828125 
Q 26.265625 48.1875 28.421875 48.1875 
Q 40.625 48.1875 47.75 41.5 
Q 54.890625 34.8125 54.890625 23.390625 
Q 54.890625 11.625 47.5625 5.09375 
Q 40.234375 -1.421875 26.90625 -1.421875 
Q 22.3125 -1.421875 17.546875 -0.640625 
Q 12.796875 0.140625 7.71875 1.703125 
L 7.71875 11.625 
Q 12.109375 9.234375 16.796875 8.0625 
Q 21.484375 6.890625 26.703125 6.890625 
Q 35.15625 6.890625 40.078125 11.328125 
Q 45.015625 15.765625 45.015625 23.390625 
Q 45.015625 31 40.078125 35.4375 
Q 35.15625 39.890625 26.703125 39.890625 
Q 22.75 39.890625 18.8125 39.015625 
Q 14.890625 38.140625 10.796875 36.28125 
z
" id="BitstreamVeraSans-Roman-35"/>
    </defs>
    <g transform="translate(435.7052 376.38)scale(0.2 -0.2)">
     <use xlink:href="#BitstreamVeraSans-Roman-7b"/>
     <use x="63.623046875" xlink:href="#BitstreamVeraSans-Roman-66"/>
     <use x="98.828125" xlink:href="#BitstreamVeraSans-Roman-31"/>
     <use x="162.451171875" xlink:href="#BitstreamVeraSans-Roman-2d"/>
     <use x="198.53515625" xlink:href="#BitstreamVeraSans-Roman-66"/>
     <use x="233.740234375" xlink:href="#BitstreamVeraSans-Roman-35"/>
     <use x="297.36328125" xlink:href="#BitstreamVeraSans-Roman-7d"/>
     <use x="360.986328125" xlink:href="#BitstreamVeraSans-Roman-2c"/>
     <use x="392.7734375" xlink:href="#BitstreamVeraSans-Roman-20"/>
     <use x="424.560546875" xlink:href="#BitstreamVeraSans-Roman-35"/>
     <use x="488.18359375" xlink:href="#BitstreamVeraSans-Roman-2d"/>
     <use x="524.267578125" xlink:href="#BitstreamVeraSans-Roman-44"/>
    </g>
   </g>
   <g id="text_11">
    <!-- v2.2.1.10 -->
    <defs>
     <path d="M 2.984375 54.6875 
L 12.5 54.6875 
L 29.59375 8.796875 
L 46.6875 54.6875 
L 56.203125 54.6875 
L 35.6875 0 
L 23.484375 0 
z
" id="BitstreamVeraSans-Roman-76"/>
     <path d="M 10.6875 12.40625 
L 21 12.40625 
L 21 0 
L 10.6875 0 
z
" id="BitstreamVeraSans-Roman-2e"/>
    </defs>
    <g style="fill:#808080;" transform="translate(261.4871875 378.11031249999996)scale(0.1 -0.1)">
     <use xlink:href="#BitstreamVeraSans-Roman-76"/>
     <use x="59.1796875" xlink:href="#BitstreamVeraSans-Roman-32"/>
     <use x="122.802734375" xlink:href="#BitstreamVeraSans-Roman-2e"/>
     <use x="154.58984375" xlink:href="#BitstreamVeraSans-Roman-32"/>
     <use x="218.212890625" xlink:href="#BitstreamVeraSans-Roman-2e"/>
     <use x="250.0" xlink:href="#BitstreamVeraSans-Roman-31"/>
     <use x="313.623046875" xlink:href="#BitstreamVeraSans-Roman-2e"/>
     <use x="345.41015625" xlink:href="#BitstreamVeraSans-Roman-31"/>
     <use x="409.033203125" xlink:href="#BitstreamVeraSans-Roman-30"/>
    </g>
   </g>
  </g>
 </g>
 <defs>
  <clipPath id="p0e889da335">
   <rect height="381.0" width="564.24" x="3.0" y="3.0"/>
  </clipPath>
 </defs>
</svg>
