<?xml version="1.0" encoding="utf-8" standalone="no"?>
<!DOCTYPE svg PUBLIC "-//W3C//DTD SVG 1.1//EN"
  "http://www.w3.org/Graphics/SVG/1.1/DTD/svg11.dtd">
<!-- Created with matplotlib (http://matplotlib.org/) -->
<svg height="432pt" version="1.1" viewBox="0 0 576 432" width="576pt" xmlns="http://www.w3.org/2000/svg" xmlns:xlink="http://www.w3.org/1999/xlink">
 <defs>
  <style type="text/css">
*{stroke-linecap:butt;stroke-linejoin:round;stroke-miterlimit:100000;}
  </style>
 </defs>
 <g id="figure_1">
  <g id="patch_1">
   <path d="M 0 432 
L 576 432 
L 576 0 
L 0 0 
z
" style="fill:#ffffff;"/>
  </g>
  <g id="axes_1">
   <g id="patch_2">
    <path d="M 3 384 
L 567.24 384 
L 567.24 3 
L 3 3 
z
" style="fill:#ffffff;"/>
   </g>
   <g id="line2d_1">
    <path clip-path="url(#p66b14f20fb)" d="M -110.875892 384 
M -1 101.079208 
L 2.856535 101.079208 
L 2.856535 94.792079 
L 2.856535 94.792079 
L 2.856535 88.50495 
L 2.856535 88.50495 
L 2.856535 82.217822 
L 2.856535 82.217822 
L 2.856535 75.930693 
L 2.856535 75.930693 
L 2.856535 69.643564 
L 2.856535 69.643564 
L 2.856535 63.356436 
L 2.856535 63.356436 
L 2.856535 57.069307 
L 2.856535 57.069307 
L 2.856535 50.782178 
L 2.856535 50.782178 
L 2.856535 44.49505 
L 2.856535 44.49505 
L 2.856535 38.207921 
L 2.856535 38.207921 
L 2.856535 31.920792 
L 2.856535 31.920792 
L 2.856535 25.633663 
L 2.856535 25.633663 
L 2.856535 19.346535 
L 2.856535 19.346535 
L 2.856535 13.059406 
L 2.856535 13.059406 
L 2.856535 6.772277 
L 2.856535 6.772277 
L 2.856535 6.772277 
L 567.24 6.772277 
" style="fill:none;stroke:#ff0000;stroke-linecap:square;stroke-width:3.0;"/>
   </g>
   <g id="line2d_2">
    <path clip-path="url(#p66b14f20fb)" d="M 355.499333 384 
L 355.499333 377.712871 
L 359.102039 377.712871 
L 359.102039 371.425743 
L 360.210066 371.425743 
L 360.210066 365.138614 
L 360.687731 365.138614 
L 360.687731 358.851485 
L 361.604195 358.851485 
L 361.604195 352.564356 
L 362.360955 352.564356 
L 362.360955 346.277228 
L 362.716292 346.277228 
L 362.716292 339.990099 
L 363.306599 339.990099 
L 363.306599 333.70297 
L 364.735239 333.70297 
L 364.735239 327.415842 
L 366.905572 327.415842 
L 366.905572 321.128713 
L 368.885904 321.128713 
L 368.885904 314.841584 
L 369.544108 314.841584 
L 369.544108 308.554455 
L 370.869302 308.554455 
L 370.869302 302.267327 
L 375.192905 302.267327 
L 375.192905 295.980198 
L 375.674225 295.980198 
L 375.674225 289.693069 
L 412.062218 289.693069 
L 412.062218 283.405941 
L 422.467888 283.405941 
L 422.467888 277.118812 
L 424.241887 277.118812 
L 424.241887 270.831683 
L 424.91857 270.831683 
L 424.91857 264.544554 
L 425.015397 264.544554 
L 425.015397 258.257426 
L 425.101773 258.257426 
L 425.101773 251.970297 
L 425.262025 251.970297 
L 425.262025 245.683168 
L 426.140285 245.683168 
L 426.140285 239.39604 
L 426.643692 239.39604 
L 426.643692 233.108911 
L 427.180929 233.108911 
L 427.180929 226.821782 
L 428.178785 226.821782 
L 428.178785 220.534653 
L 428.249372 220.534653 
L 428.249372 214.247525 
L 428.32022 214.247525 
L 428.32022 207.960396 
L 429.542117 207.960396 
L 429.542117 201.673267 
L 431.992835 201.673267 
L 431.992835 195.386139 
L 433.422817 195.386139 
L 433.422817 189.09901 
L 433.431752 189.09901 
L 433.431752 182.811881 
L 435.104056 182.811881 
L 435.104056 176.524752 
L 437.338481 176.524752 
L 437.338481 170.237624 
L 441.726341 170.237624 
L 441.726341 163.950495 
L 441.909074 163.950495 
L 441.909074 157.663366 
L 442.624891 157.663366 
L 442.624891 151.376238 
L 442.649609 151.376238 
L 442.649609 145.089109 
L 442.889269 145.089109 
L 442.889269 138.80198 
L 442.996518 138.80198 
L 442.996518 132.514851 
L 443.578429 132.514851 
L 443.578429 126.227723 
L 444.751151 126.227723 
L 444.751151 119.940594 
L 444.915249 119.940594 
L 444.915249 113.653465 
L 446.647823 113.653465 
L 446.647823 107.366337 
L 448.951963 107.366337 
L 448.951963 101.079208 
L 450.436907 101.079208 
L 450.436907 94.792079 
L 450.75502 94.792079 
L 450.75502 88.50495 
L 451.522051 88.50495 
L 451.522051 82.217822 
L 453.074523 82.217822 
L 453.074523 75.930693 
L 454.129382 75.930693 
L 454.129382 69.643564 
L 454.485225 69.643564 
L 454.485225 63.356436 
L 456.140705 63.356436 
L 456.140705 57.069307 
L 457.240625 57.069307 
L 457.240625 50.782178 
L 457.523423 50.782178 
L 457.523423 44.49505 
L 457.5902 44.49505 
L 457.5902 38.207921 
L 458.142655 38.207921 
L 458.142655 31.920792 
L 460.067926 31.920792 
L 460.067926 25.633663 
L 463.208276 25.633663 
L 463.208276 19.346535 
L 463.802391 19.346535 
L 463.802391 13.059406 
L 468.89837 13.059406 
L 468.89837 6.772277 
L 468.89837 6.772277 
L 468.89837 6.772277 
L 567.24 6.772277 
" style="fill:none;stroke:#00bfbf;stroke-linecap:square;"/>
   </g>
   <g id="line2d_3">
    <path clip-path="url(#p66b14f20fb)" d="M 350.008531 384 
L 350.008531 377.712871 
L 355.499333 377.712871 
L 355.499333 371.425743 
L 356.610195 371.425743 
L 356.610195 365.138614 
L 358.477958 365.138614 
L 358.477958 358.851485 
L 359.146234 358.851485 
L 359.146234 352.564356 
L 360.210066 352.564356 
L 360.210066 346.277228 
L 360.687731 346.277228 
L 360.687731 339.990099 
L 361.604195 339.990099 
L 361.604195 333.70297 
L 362.360955 333.70297 
L 362.360955 327.415842 
L 362.672078 327.415842 
L 362.672078 321.128713 
L 364.735239 321.128713 
L 364.735239 314.841584 
L 365.783327 314.841584 
L 365.783327 308.554455 
L 368.424363 308.554455 
L 368.424363 302.267327 
L 372.32097 302.267327 
L 372.32097 295.980198 
L 375.645331 295.980198 
L 375.645331 289.693069 
L 412.062218 289.693069 
L 412.062218 283.405941 
L 420.564137 283.405941 
L 420.564137 277.118812 
L 421.742627 277.118812 
L 421.742627 270.831683 
L 424.241887 270.831683 
L 424.241887 264.544554 
L 424.91857 264.544554 
L 424.91857 258.257426 
L 425.015397 258.257426 
L 425.015397 251.970297 
L 425.101773 251.970297 
L 425.101773 245.683168 
L 425.262025 245.683168 
L 425.262025 239.39604 
L 425.322473 239.39604 
L 425.322473 233.108911 
L 426.140285 233.108911 
L 426.140285 226.821782 
L 426.643692 226.821782 
L 426.643692 220.534653 
L 427.065433 220.534653 
L 427.065433 214.247525 
L 427.180929 214.247525 
L 427.180929 207.960396 
L 428.178785 207.960396 
L 428.178785 201.673267 
L 428.32022 201.673267 
L 428.32022 195.386139 
L 428.495977 195.386139 
L 428.495977 189.09901 
L 429.542117 189.09901 
L 429.542117 182.811881 
L 430.895895 182.811881 
L 430.895895 176.524752 
L 433.228856 176.524752 
L 433.228856 170.237624 
L 433.378122 170.237624 
L 433.378122 163.950495 
L 436.924181 163.950495 
L 436.924181 157.663366 
L 437.338481 157.663366 
L 437.338481 151.376238 
L 438.225962 151.376238 
L 438.225962 145.089109 
L 438.435045 145.089109 
L 438.435045 138.80198 
L 438.533474 138.80198 
L 438.533474 132.514851 
L 439.055686 132.514851 
L 439.055686 126.227723 
L 440.85896 126.227723 
L 440.85896 119.940594 
L 441.389536 119.940594 
L 441.389536 113.653465 
L 442.624891 113.653465 
L 442.624891 107.366337 
L 442.649609 107.366337 
L 442.649609 101.079208 
L 442.889269 101.079208 
L 442.889269 94.792079 
L 443.4454 94.792079 
L 443.4454 88.50495 
L 444.915249 88.50495 
L 444.915249 82.217822 
L 446.204026 82.217822 
L 446.204026 75.930693 
L 450.905898 75.930693 
L 450.905898 69.643564 
L 451.090629 69.643564 
L 451.090629 63.356436 
L 451.522051 63.356436 
L 451.522051 57.069307 
L 452.683705 57.069307 
L 452.683705 50.782178 
L 454.129382 50.782178 
L 454.129382 44.49505 
L 454.485225 44.49505 
L 454.485225 38.207921 
L 456.06523 38.207921 
L 456.06523 31.920792 
L 457.523423 31.920792 
L 457.523423 25.633663 
L 459.640578 25.633663 
L 459.640578 19.346535 
L 460.070046 19.346535 
L 460.070046 13.059406 
L 462.036756 13.059406 
L 462.036756 6.772277 
L 462.036756 6.772277 
L 462.036756 6.772277 
L 567.24 6.772277 
" style="fill:none;stroke:#bf00bf;stroke-linecap:square;"/>
   </g>
   <g id="line2d_4">
    <path clip-path="url(#p66b14f20fb)" d="M 350.008531 384 
L 350.008531 377.712871 
L 355.45914 377.712871 
L 355.45914 371.425743 
L 355.499333 371.425743 
L 355.499333 365.138614 
L 356.464232 365.138614 
L 356.464232 358.851485 
L 356.610195 358.851485 
L 356.610195 352.564356 
L 357.970976 352.564356 
L 357.970976 346.277228 
L 358.477958 346.277228 
L 358.477958 339.990099 
L 359.041888 339.990099 
L 359.041888 333.70297 
L 359.146234 333.70297 
L 359.146234 327.415842 
L 361.604195 327.415842 
L 361.604195 321.128713 
L 362.360955 321.128713 
L 362.360955 314.841584 
L 363.247035 314.841584 
L 363.247035 308.554455 
L 364.783802 308.554455 
L 364.783802 302.267327 
L 367.136418 302.267327 
L 367.136418 295.980198 
L 373.244216 295.980198 
L 373.244216 289.693069 
L 408.871855 289.693069 
L 408.871855 283.405941 
L 409.203573 283.405941 
L 409.203573 277.118812 
L 412.062218 277.118812 
L 412.062218 270.831683 
L 416.851857 270.831683 
L 416.851857 264.544554 
L 417.431235 264.544554 
L 417.431235 258.257426 
L 421.572294 258.257426 
L 421.572294 251.970297 
L 421.742627 251.970297 
L 421.742627 245.683168 
L 422.642114 245.683168 
L 422.642114 239.39604 
L 424.91857 239.39604 
L 424.91857 233.108911 
L 425.015397 233.108911 
L 425.015397 226.821782 
L 425.262025 226.821782 
L 425.262025 220.534653 
L 425.322473 220.534653 
L 425.322473 214.247525 
L 425.871789 214.247525 
L 425.871789 207.960396 
L 426.140285 207.960396 
L 426.140285 201.673267 
L 426.643692 201.673267 
L 426.643692 195.386139 
L 426.753585 195.386139 
L 426.753585 189.09901 
L 426.813794 189.09901 
L 426.813794 182.811881 
L 427.065433 182.811881 
L 427.065433 176.524752 
L 428.495977 176.524752 
L 428.495977 170.237624 
L 429.542117 170.237624 
L 429.542117 163.950495 
L 430.105258 163.950495 
L 430.105258 157.663366 
L 430.115132 157.663366 
L 430.115132 151.376238 
L 430.711812 151.376238 
L 430.711812 145.089109 
L 430.958444 145.089109 
L 430.958444 138.80198 
L 433.378122 138.80198 
L 433.378122 132.514851 
L 436.902405 132.514851 
L 436.902405 126.227723 
L 436.917111 126.227723 
L 436.917111 119.940594 
L 436.924181 119.940594 
L 436.924181 113.653465 
L 438.533474 113.653465 
L 438.533474 107.366337 
L 438.948287 107.366337 
L 438.948287 101.079208 
L 438.96608 101.079208 
L 438.96608 94.792079 
L 440.363881 94.792079 
L 440.363881 88.50495 
L 441.389536 88.50495 
L 441.389536 82.217822 
L 441.929758 82.217822 
L 441.929758 75.930693 
L 446.204026 75.930693 
L 446.204026 69.643564 
L 448.821458 69.643564 
L 448.821458 63.356436 
L 449.033201 63.356436 
L 449.033201 57.069307 
L 450.835155 57.069307 
L 450.835155 50.782178 
L 451.090629 50.782178 
L 451.090629 44.49505 
L 451.522051 44.49505 
L 451.522051 38.207921 
L 453.564381 38.207921 
L 453.564381 31.920792 
L 453.601855 31.920792 
L 453.601855 25.633663 
L 459.492773 25.633663 
L 459.492773 19.346535 
L 459.640578 19.346535 
L 459.640578 13.059406 
L 462.036756 13.059406 
L 462.036756 6.772277 
L 462.036756 6.772277 
L 462.036756 6.772277 
L 567.24 6.772277 
" style="fill:none;stroke:#000000;stroke-linecap:square;"/>
   </g>
   <g id="line2d_5">
    <path clip-path="url(#p66b14f20fb)" d="M 337.673632 384 
L 337.673632 377.712871 
L 338.690909 377.712871 
L 338.690909 371.425743 
L 339.291848 371.425743 
L 339.291848 365.138614 
L 339.29746 365.138614 
L 339.29746 358.851485 
L 339.862057 358.851485 
L 339.862057 352.564356 
L 340.280488 352.564356 
L 340.280488 346.277228 
L 340.34351 346.277228 
L 340.34351 339.990099 
L 340.683587 339.990099 
L 340.683587 333.70297 
L 340.747377 333.70297 
L 340.747377 327.415842 
L 340.761689 327.415842 
L 340.761689 321.128713 
L 340.885655 321.128713 
L 340.885655 314.841584 
L 341.016376 314.841584 
L 341.016376 308.554455 
L 341.241763 308.554455 
L 341.241763 302.267327 
L 341.782476 302.267327 
L 341.782476 295.980198 
L 341.822154 295.980198 
L 341.822154 289.693069 
L 341.851843 289.693069 
L 341.851843 283.405941 
L 344.337723 283.405941 
L 344.337723 277.118812 
L 344.447167 277.118812 
L 344.447167 270.831683 
L 345.66488 270.831683 
L 345.66488 264.544554 
L 345.77027 264.544554 
L 345.77027 258.257426 
L 349.985774 258.257426 
L 349.985774 251.970297 
L 350.668302 251.970297 
L 350.668302 245.683168 
L 350.981104 245.683168 
L 350.981104 239.39604 
L 352.109206 239.39604 
L 352.109206 233.108911 
L 352.733873 233.108911 
L 352.733873 226.821782 
L 353.507604 226.821782 
L 353.507604 220.534653 
L 355.865246 220.534653 
L 355.865246 214.247525 
L 356.326845 214.247525 
L 356.326845 207.960396 
L 357.970421 207.960396 
L 357.970421 201.673267 
L 361.351499 201.673267 
L 361.351499 195.386139 
L 361.410641 195.386139 
L 361.410641 189.09901 
L 389.634267 189.09901 
L 389.634267 182.811881 
L 396.498582 182.811881 
L 396.498582 176.524752 
L 398.631081 176.524752 
L 398.631081 170.237624 
L 401.975613 170.237624 
L 401.975613 163.950495 
L 403.526652 163.950495 
L 403.526652 157.663366 
L 403.940546 157.663366 
L 403.940546 151.376238 
L 404.707135 151.376238 
L 404.707135 145.089109 
L 405.618315 145.089109 
L 405.618315 138.80198 
L 406.955718 138.80198 
L 406.955718 132.514851 
L 409.108723 132.514851 
L 409.108723 126.227723 
L 409.481343 126.227723 
L 409.481343 119.940594 
L 409.631476 119.940594 
L 409.631476 113.653465 
L 410.297778 113.653465 
L 410.297778 107.366337 
L 413.069854 107.366337 
L 413.069854 101.079208 
L 413.223872 101.079208 
L 413.223872 94.792079 
L 414.15858 94.792079 
L 414.15858 88.50495 
L 418.752934 88.50495 
L 418.752934 82.217822 
L 420.569784 82.217822 
L 420.569784 75.930693 
L 424.42212 75.930693 
L 424.42212 69.643564 
L 428.322482 69.643564 
L 428.322482 63.356436 
L 435.462559 63.356436 
L 435.462559 57.069307 
L 437.916048 57.069307 
L 437.916048 50.782178 
L 438.3168 50.782178 
L 438.3168 44.49505 
L 440.709021 44.49505 
L 440.709021 38.207921 
L 441.881497 38.207921 
L 441.881497 31.920792 
L 446.484696 31.920792 
L 446.484696 25.633663 
L 449.077215 25.633663 
L 449.077215 19.346535 
L 450.936709 19.346535 
L 450.936709 13.059406 
L 453.873082 13.059406 
L 453.873082 6.772277 
L 453.873082 6.772277 
L 453.873082 6.772277 
L 567.24 6.772277 
" style="fill:none;stroke:#00bfbf;stroke-linecap:square;"/>
   </g>
   <g id="line2d_6">
    <path clip-path="url(#p66b14f20fb)" d="M 314.110317 384 
L 314.110317 377.712871 
L 315.068326 377.712871 
L 315.068326 371.425743 
L 317.306314 371.425743 
L 317.306314 365.138614 
L 318.08512 365.138614 
L 318.08512 358.851485 
L 319.488027 358.851485 
L 319.488027 352.564356 
L 320.143373 352.564356 
L 320.143373 346.277228 
L 320.616415 346.277228 
L 320.616415 339.990099 
L 321.721102 339.990099 
L 321.721102 333.70297 
L 322.307057 333.70297 
L 322.307057 327.415842 
L 324.023179 327.415842 
L 324.023179 321.128713 
L 324.970762 321.128713 
L 324.970762 314.841584 
L 325.604942 314.841584 
L 325.604942 308.554455 
L 326.746646 308.554455 
L 326.746646 302.267327 
L 326.880775 302.267327 
L 326.880775 295.980198 
L 330.217429 295.980198 
L 330.217429 289.693069 
L 337.299403 289.693069 
L 337.299403 283.405941 
L 337.42865 283.405941 
L 337.42865 277.118812 
L 337.673632 277.118812 
L 337.673632 270.831683 
L 337.786406 270.831683 
L 337.786406 264.544554 
L 337.967815 264.544554 
L 337.967815 258.257426 
L 338.653529 258.257426 
L 338.653529 251.970297 
L 338.674712 251.970297 
L 338.674712 245.683168 
L 338.793354 245.683168 
L 338.793354 239.39604 
L 339.144361 239.39604 
L 339.144361 233.108911 
L 339.862057 233.108911 
L 339.862057 226.821782 
L 340.280488 226.821782 
L 340.280488 220.534653 
L 340.57874 220.534653 
L 340.57874 214.247525 
L 340.683587 214.247525 
L 340.683587 207.960396 
L 340.693886 207.960396 
L 340.693886 201.673267 
L 340.747377 201.673267 
L 340.747377 195.386139 
L 340.761689 195.386139 
L 340.761689 189.09901 
L 340.885655 189.09901 
L 340.885655 182.811881 
L 341.016376 182.811881 
L 341.016376 176.524752 
L 341.782476 176.524752 
L 341.782476 170.237624 
L 341.822154 170.237624 
L 341.822154 163.950495 
L 344.627966 163.950495 
L 344.627966 157.663366 
L 345.935666 157.663366 
L 345.935666 151.376238 
L 352.250862 151.376238 
L 352.250862 145.089109 
L 353.769235 145.089109 
L 353.769235 138.80198 
L 355.424908 138.80198 
L 355.424908 132.514851 
L 357.016017 132.514851 
L 357.016017 126.227723 
L 358.075226 126.227723 
L 358.075226 119.940594 
L 359.43871 119.940594 
L 359.43871 113.653465 
L 360.460198 113.653465 
L 360.460198 107.366337 
L 361.21821 107.366337 
L 361.21821 101.079208 
L 361.357865 101.079208 
L 361.357865 94.792079 
L 362.477135 94.792079 
L 362.477135 88.50495 
L 362.95988 88.50495 
L 362.95988 82.217822 
L 365.10271 82.217822 
L 365.10271 75.930693 
L 365.650112 75.930693 
L 365.650112 69.643564 
L 365.650388 69.643564 
L 365.650388 63.356436 
L 366.208308 63.356436 
L 366.208308 57.069307 
L 368.463977 57.069307 
L 368.463977 50.782178 
L 368.518345 50.782178 
L 368.518345 44.49505 
L 386.325908 44.49505 
L 386.325908 38.207921 
L 386.556156 38.207921 
L 386.556156 31.920792 
L 387.744934 31.920792 
L 387.744934 25.633663 
L 403.430535 25.633663 
L 403.430535 19.346535 
L 406.261995 19.346535 
L 406.261995 13.059406 
L 408.374037 13.059406 
L 408.374037 6.772277 
L 408.374037 6.772277 
L 408.374037 6.772277 
L 567.24 6.772277 
" style="fill:none;stroke:#bf00bf;stroke-linecap:square;"/>
   </g>
   <g id="line2d_7">
    <path clip-path="url(#p66b14f20fb)" d="M -23.172671 384 
M -1 365.138614 
L 0.88988 365.138614 
L 0.88988 358.851485 
L 8.214606 358.851485 
L 8.214606 352.564356 
L 9.945982 352.564356 
L 9.945982 346.277228 
L 22.789223 346.277228 
L 22.789223 339.990099 
L 33.450261 339.990099 
L 33.450261 333.70297 
L 33.93285 333.70297 
L 33.93285 327.415842 
L 39.78391 327.415842 
L 39.78391 321.128713 
L 41.044335 321.128713 
L 41.044335 314.841584 
L 42.225824 314.841584 
L 42.225824 308.554455 
L 43.805502 308.554455 
L 43.805502 302.267327 
L 204.949028 302.267327 
L 204.949028 295.980198 
L 213.266801 295.980198 
L 213.266801 289.693069 
L 256.527437 289.693069 
L 256.527437 283.405941 
L 259.556831 283.405941 
L 259.556831 277.118812 
L 260.722052 277.118812 
L 260.722052 270.831683 
L 262.49482 270.831683 
L 262.49482 264.544554 
L 262.857359 264.544554 
L 262.857359 258.257426 
L 263.136744 258.257426 
L 263.136744 251.970297 
L 263.148767 251.970297 
L 263.148767 245.683168 
L 263.547346 245.683168 
L 263.547346 239.39604 
L 263.728688 239.39604 
L 263.728688 233.108911 
L 263.926194 233.108911 
L 263.926194 226.821782 
L 264.194674 226.821782 
L 264.194674 220.534653 
L 264.218441 220.534653 
L 264.218441 214.247525 
L 264.271059 214.247525 
L 264.271059 207.960396 
L 264.402603 207.960396 
L 264.402603 201.673267 
L 266.311661 201.673267 
L 266.311661 195.386139 
L 308.051457 195.386139 
L 308.051457 189.09901 
L 308.60333 189.09901 
L 308.60333 182.811881 
L 309.009907 182.811881 
L 309.009907 176.524752 
L 309.103963 176.524752 
L 309.103963 170.237624 
L 309.146736 170.237624 
L 309.146736 163.950495 
L 309.186267 163.950495 
L 309.186267 157.663366 
L 309.20448 157.663366 
L 309.20448 151.376238 
L 309.285237 151.376238 
L 309.285237 145.089109 
L 309.363549 145.089109 
L 309.363549 138.80198 
L 309.438676 138.80198 
L 309.438676 132.514851 
L 309.499765 132.514851 
L 309.499765 126.227723 
L 309.564638 126.227723 
L 309.564638 119.940594 
L 309.62201 119.940594 
L 309.62201 113.653465 
L 309.655307 113.653465 
L 309.655307 107.366337 
L 309.675996 107.366337 
L 309.675996 101.079208 
L 309.740359 101.079208 
L 309.740359 94.792079 
L 309.744843 94.792079 
L 309.744843 88.50495 
L 309.746729 88.50495 
L 309.746729 82.217822 
L 309.764727 82.217822 
L 309.764727 75.930693 
L 309.937504 75.930693 
L 309.937504 69.643564 
L 309.940902 69.643564 
L 309.940902 63.356436 
L 309.972168 63.356436 
L 309.972168 57.069307 
L 310.016201 57.069307 
L 310.016201 50.782178 
L 310.104783 50.782178 
L 310.104783 44.49505 
L 310.212086 44.49505 
L 310.212086 38.207921 
L 310.215781 38.207921 
L 310.215781 31.920792 
L 310.295734 31.920792 
L 310.295734 25.633663 
L 310.355476 25.633663 
L 310.355476 19.346535 
L 310.448279 19.346535 
L 310.448279 13.059406 
L 311.123559 13.059406 
L 311.123559 6.772277 
L 311.123559 6.772277 
L 311.123559 6.772277 
L 567.24 6.772277 
" style="fill:none;stroke:#000000;stroke-linecap:square;"/>
   </g>
   <g id="line2d_8">
    <path clip-path="url(#p66b14f20fb)" d="M -205.412535 384 
M -1 157.663366 
L -0.957339 157.663366 
L -0.957339 151.376238 
L -0.394091 151.376238 
L -0.394091 145.089109 
L -0.005229 145.089109 
L -0.005229 138.80198 
L 0.253239 138.80198 
L 0.253239 132.514851 
L 0.924501 132.514851 
L 0.924501 126.227723 
L 1.885607 126.227723 
L 1.885607 119.940594 
L 2.546028 119.940594 
L 2.546028 113.653465 
L 3.142425 113.653465 
L 3.142425 107.366337 
L 3.669196 107.366337 
L 3.669196 101.079208 
L 3.778243 101.079208 
L 3.778243 94.792079 
L 4.026811 94.792079 
L 4.026811 88.50495 
L 4.851986 88.50495 
L 4.851986 82.217822 
L 5.073663 82.217822 
L 5.073663 75.930693 
L 5.757789 75.930693 
L 5.757789 69.643564 
L 5.80157 69.643564 
L 5.80157 63.356436 
L 6.204676 63.356436 
L 6.204676 57.069307 
L 6.466425 57.069307 
L 6.466425 50.782178 
L 7.064061 50.782178 
L 7.064061 44.49505 
L 7.677901 44.49505 
L 7.677901 38.207921 
L 8.908427 38.207921 
L 8.908427 31.920792 
L 10.014039 31.920792 
L 10.014039 25.633663 
L 10.082541 25.633663 
L 10.082541 19.346535 
L 11.968925 19.346535 
L 11.968925 13.059406 
L 12.636803 13.059406 
L 12.636803 6.772277 
L 12.636803 6.772277 
L 12.636803 6.772277 
L 567.24 6.772277 
" style="fill:none;stroke:#00bfbf;stroke-linecap:square;"/>
   </g>
   <g id="patch_3">
    <path d="M 3 3 
L 567.24 3 
" style="fill:none;stroke:#000000;stroke-linecap:square;stroke-linejoin:miter;"/>
   </g>
   <g id="patch_4">
    <path d="M 567.24 384 
L 567.24 3 
" style="fill:none;stroke:#000000;stroke-linecap:square;stroke-linejoin:miter;"/>
   </g>
   <g id="patch_5">
    <path d="M 3 384 
L 567.24 384 
" style="fill:none;stroke:#000000;stroke-linecap:square;stroke-linejoin:miter;"/>
   </g>
   <g id="patch_6">
    <path d="M 3 384 
L 3 3 
" style="fill:none;stroke:#000000;stroke-linecap:square;stroke-linejoin:miter;"/>
   </g>
   <g id="matplotlib.axis_1">
    <g id="xtick_1"/>
    <g id="xtick_2">
     <g id="line2d_9">
      <path clip-path="url(#p66b14f20fb)" d="M 69.254589 384 
L 69.254589 3 
" style="fill:none;stroke:#000000;stroke-dasharray:1.000000,3.000000;stroke-dashoffset:0.0;stroke-width:0.5;"/>
     </g>
     <g id="line2d_10">
      <defs>
       <path d="M 0 0 
L 0 -4 
" id="m722e05185b" style="stroke:#000000;stroke-width:0.5;"/>
      </defs>
      <g>
       <use style="stroke:#000000;stroke-width:0.5;" x="69.25458934719217" xlink:href="#m722e05185b" y="384.0"/>
      </g>
     </g>
     <g id="line2d_11">
      <defs>
       <path d="M 0 0 
L 0 4 
" id="m27cf9fd8bd" style="stroke:#000000;stroke-width:0.5;"/>
      </defs>
      <g>
       <use style="stroke:#000000;stroke-width:0.5;" x="69.25458934719217" xlink:href="#m27cf9fd8bd" y="3.0"/>
      </g>
     </g>
     <g id="text_1">
      <!-- -6 -->
      <defs>
       <path d="M 33.015625 40.375 
Q 26.375 40.375 22.484375 35.828125 
Q 18.609375 31.296875 18.609375 23.390625 
Q 18.609375 15.53125 22.484375 10.953125 
Q 26.375 6.390625 33.015625 6.390625 
Q 39.65625 6.390625 43.53125 10.953125 
Q 47.40625 15.53125 47.40625 23.390625 
Q 47.40625 31.296875 43.53125 35.828125 
Q 39.65625 40.375 33.015625 40.375 
M 52.59375 71.296875 
L 52.59375 62.3125 
Q 48.875 64.0625 45.09375 64.984375 
Q 41.3125 65.921875 37.59375 65.921875 
Q 27.828125 65.921875 22.671875 59.328125 
Q 17.53125 52.734375 16.796875 39.40625 
Q 19.671875 43.65625 24.015625 45.921875 
Q 28.375 48.1875 33.59375 48.1875 
Q 44.578125 48.1875 50.953125 41.515625 
Q 57.328125 34.859375 57.328125 23.390625 
Q 57.328125 12.15625 50.6875 5.359375 
Q 44.046875 -1.421875 33.015625 -1.421875 
Q 20.359375 -1.421875 13.671875 8.265625 
Q 6.984375 17.96875 6.984375 36.375 
Q 6.984375 53.65625 15.1875 63.9375 
Q 23.390625 74.21875 37.203125 74.21875 
Q 40.921875 74.21875 44.703125 73.484375 
Q 48.484375 72.75 52.59375 71.296875 
" id="BitstreamVeraSans-Roman-36"/>
       <path d="M 4.890625 31.390625 
L 31.203125 31.390625 
L 31.203125 23.390625 
L 4.890625 23.390625 
z
" id="BitstreamVeraSans-Roman-2d"/>
      </defs>
      <g transform="translate(59.28427684719217 403.196875)scale(0.2 -0.2)">
       <use xlink:href="#BitstreamVeraSans-Roman-2d"/>
       <use x="36.083984375" xlink:href="#BitstreamVeraSans-Roman-36"/>
      </g>
     </g>
    </g>
    <g id="xtick_3">
     <g id="line2d_12">
      <path clip-path="url(#p66b14f20fb)" d="M 135.652644 384 
L 135.652644 3 
" style="fill:none;stroke:#000000;stroke-dasharray:1.000000,3.000000;stroke-dashoffset:0.0;stroke-width:0.5;"/>
     </g>
     <g id="line2d_13">
      <g>
       <use style="stroke:#000000;stroke-width:0.5;" x="135.65264410089986" xlink:href="#m722e05185b" y="384.0"/>
      </g>
     </g>
     <g id="line2d_14">
      <g>
       <use style="stroke:#000000;stroke-width:0.5;" x="135.65264410089986" xlink:href="#m27cf9fd8bd" y="3.0"/>
      </g>
     </g>
     <g id="text_2">
      <!-- -4 -->
      <defs>
       <path d="M 37.796875 64.3125 
L 12.890625 25.390625 
L 37.796875 25.390625 
z
M 35.203125 72.90625 
L 47.609375 72.90625 
L 47.609375 25.390625 
L 58.015625 25.390625 
L 58.015625 17.1875 
L 47.609375 17.1875 
L 47.609375 0 
L 37.796875 0 
L 37.796875 17.1875 
L 4.890625 17.1875 
L 4.890625 26.703125 
z
" id="BitstreamVeraSans-Roman-34"/>
      </defs>
      <g transform="translate(125.68233160089986 403.196875)scale(0.2 -0.2)">
       <use xlink:href="#BitstreamVeraSans-Roman-2d"/>
       <use x="36.083984375" xlink:href="#BitstreamVeraSans-Roman-34"/>
      </g>
     </g>
    </g>
    <g id="xtick_4">
     <g id="line2d_15">
      <path clip-path="url(#p66b14f20fb)" d="M 202.050699 384 
L 202.050699 3 
" style="fill:none;stroke:#000000;stroke-dasharray:1.000000,3.000000;stroke-dashoffset:0.0;stroke-width:0.5;"/>
     </g>
     <g id="line2d_16">
      <g>
       <use style="stroke:#000000;stroke-width:0.5;" x="202.0506988546076" xlink:href="#m722e05185b" y="384.0"/>
      </g>
     </g>
     <g id="line2d_17">
      <g>
       <use style="stroke:#000000;stroke-width:0.5;" x="202.0506988546076" xlink:href="#m27cf9fd8bd" y="3.0"/>
      </g>
     </g>
     <g id="text_3">
      <!-- -2 -->
      <defs>
       <path d="M 19.1875 8.296875 
L 53.609375 8.296875 
L 53.609375 0 
L 7.328125 0 
L 7.328125 8.296875 
Q 12.9375 14.109375 22.625 23.890625 
Q 32.328125 33.6875 34.8125 36.53125 
Q 39.546875 41.84375 41.421875 45.53125 
Q 43.3125 49.21875 43.3125 52.78125 
Q 43.3125 58.59375 39.234375 62.25 
Q 35.15625 65.921875 28.609375 65.921875 
Q 23.96875 65.921875 18.8125 64.3125 
Q 13.671875 62.703125 7.8125 59.421875 
L 7.8125 69.390625 
Q 13.765625 71.78125 18.9375 73 
Q 24.125 74.21875 28.421875 74.21875 
Q 39.75 74.21875 46.484375 68.546875 
Q 53.21875 62.890625 53.21875 53.421875 
Q 53.21875 48.921875 51.53125 44.890625 
Q 49.859375 40.875 45.40625 35.40625 
Q 44.1875 33.984375 37.640625 27.21875 
Q 31.109375 20.453125 19.1875 8.296875 
" id="BitstreamVeraSans-Roman-32"/>
      </defs>
      <g transform="translate(192.08038635460758 403.196875)scale(0.2 -0.2)">
       <use xlink:href="#BitstreamVeraSans-Roman-2d"/>
       <use x="36.083984375" xlink:href="#BitstreamVeraSans-Roman-32"/>
      </g>
     </g>
    </g>
    <g id="xtick_5">
     <g id="line2d_18">
      <path clip-path="url(#p66b14f20fb)" d="M 268.448754 384 
L 268.448754 3 
" style="fill:none;stroke:#000000;stroke-dasharray:1.000000,3.000000;stroke-dashoffset:0.0;stroke-width:0.5;"/>
     </g>
     <g id="line2d_19">
      <g>
       <use style="stroke:#000000;stroke-width:0.5;" x="268.4487536083153" xlink:href="#m722e05185b" y="384.0"/>
      </g>
     </g>
     <g id="line2d_20">
      <g>
       <use style="stroke:#000000;stroke-width:0.5;" x="268.4487536083153" xlink:href="#m27cf9fd8bd" y="3.0"/>
      </g>
     </g>
     <g id="text_4">
      <!-- 0 -->
      <defs>
       <path d="M 31.78125 66.40625 
Q 24.171875 66.40625 20.328125 58.90625 
Q 16.5 51.421875 16.5 36.375 
Q 16.5 21.390625 20.328125 13.890625 
Q 24.171875 6.390625 31.78125 6.390625 
Q 39.453125 6.390625 43.28125 13.890625 
Q 47.125 21.390625 47.125 36.375 
Q 47.125 51.421875 43.28125 58.90625 
Q 39.453125 66.40625 31.78125 66.40625 
M 31.78125 74.21875 
Q 44.046875 74.21875 50.515625 64.515625 
Q 56.984375 54.828125 56.984375 36.375 
Q 56.984375 17.96875 50.515625 8.265625 
Q 44.046875 -1.421875 31.78125 -1.421875 
Q 19.53125 -1.421875 13.0625 8.265625 
Q 6.59375 17.96875 6.59375 36.375 
Q 6.59375 54.828125 13.0625 64.515625 
Q 19.53125 74.21875 31.78125 74.21875 
" id="BitstreamVeraSans-Roman-30"/>
      </defs>
      <g transform="translate(262.0862536083153 403.196875)scale(0.2 -0.2)">
       <use xlink:href="#BitstreamVeraSans-Roman-30"/>
      </g>
     </g>
    </g>
    <g id="xtick_6">
     <g id="line2d_21">
      <path clip-path="url(#p66b14f20fb)" d="M 334.846808 384 
L 334.846808 3 
" style="fill:none;stroke:#000000;stroke-dasharray:1.000000,3.000000;stroke-dashoffset:0.0;stroke-width:0.5;"/>
     </g>
     <g id="line2d_22">
      <g>
       <use style="stroke:#000000;stroke-width:0.5;" x="334.846808362023" xlink:href="#m722e05185b" y="384.0"/>
      </g>
     </g>
     <g id="line2d_23">
      <g>
       <use style="stroke:#000000;stroke-width:0.5;" x="334.846808362023" xlink:href="#m27cf9fd8bd" y="3.0"/>
      </g>
     </g>
     <g id="text_5">
      <!-- 2 -->
      <g transform="translate(328.484308362023 403.196875)scale(0.2 -0.2)">
       <use xlink:href="#BitstreamVeraSans-Roman-32"/>
      </g>
     </g>
    </g>
    <g id="xtick_7">
     <g id="line2d_24">
      <path clip-path="url(#p66b14f20fb)" d="M 401.244863 384 
L 401.244863 3 
" style="fill:none;stroke:#000000;stroke-dasharray:1.000000,3.000000;stroke-dashoffset:0.0;stroke-width:0.5;"/>
     </g>
     <g id="line2d_25">
      <g>
       <use style="stroke:#000000;stroke-width:0.5;" x="401.2448631157307" xlink:href="#m722e05185b" y="384.0"/>
      </g>
     </g>
     <g id="line2d_26">
      <g>
       <use style="stroke:#000000;stroke-width:0.5;" x="401.2448631157307" xlink:href="#m27cf9fd8bd" y="3.0"/>
      </g>
     </g>
     <g id="text_6">
      <!-- 4 -->
      <g transform="translate(394.8823631157307 403.196875)scale(0.2 -0.2)">
       <use xlink:href="#BitstreamVeraSans-Roman-34"/>
      </g>
     </g>
    </g>
    <g id="xtick_8">
     <g id="line2d_27">
      <path clip-path="url(#p66b14f20fb)" d="M 467.642918 384 
L 467.642918 3 
" style="fill:none;stroke:#000000;stroke-dasharray:1.000000,3.000000;stroke-dashoffset:0.0;stroke-width:0.5;"/>
     </g>
     <g id="line2d_28">
      <g>
       <use style="stroke:#000000;stroke-width:0.5;" x="467.6429178694384" xlink:href="#m722e05185b" y="384.0"/>
      </g>
     </g>
     <g id="line2d_29">
      <g>
       <use style="stroke:#000000;stroke-width:0.5;" x="467.6429178694384" xlink:href="#m27cf9fd8bd" y="3.0"/>
      </g>
     </g>
     <g id="text_7">
      <!-- 6 -->
      <g transform="translate(461.2804178694384 403.196875)scale(0.2 -0.2)">
       <use xlink:href="#BitstreamVeraSans-Roman-36"/>
      </g>
     </g>
    </g>
    <g id="xtick_9">
     <g id="line2d_30">
      <path clip-path="url(#p66b14f20fb)" d="M 534.040973 384 
L 534.040973 3 
" style="fill:none;stroke:#000000;stroke-dasharray:1.000000,3.000000;stroke-dashoffset:0.0;stroke-width:0.5;"/>
     </g>
     <g id="line2d_31">
      <g>
       <use style="stroke:#000000;stroke-width:0.5;" x="534.0409726231461" xlink:href="#m722e05185b" y="384.0"/>
      </g>
     </g>
     <g id="line2d_32">
      <g>
       <use style="stroke:#000000;stroke-width:0.5;" x="534.0409726231461" xlink:href="#m27cf9fd8bd" y="3.0"/>
      </g>
     </g>
     <g id="text_8">
      <!-- 8 -->
      <defs>
       <path d="M 31.78125 34.625 
Q 24.75 34.625 20.71875 30.859375 
Q 16.703125 27.09375 16.703125 20.515625 
Q 16.703125 13.921875 20.71875 10.15625 
Q 24.75 6.390625 31.78125 6.390625 
Q 38.8125 6.390625 42.859375 10.171875 
Q 46.921875 13.96875 46.921875 20.515625 
Q 46.921875 27.09375 42.890625 30.859375 
Q 38.875 34.625 31.78125 34.625 
M 21.921875 38.8125 
Q 15.578125 40.375 12.03125 44.71875 
Q 8.5 49.078125 8.5 55.328125 
Q 8.5 64.0625 14.71875 69.140625 
Q 20.953125 74.21875 31.78125 74.21875 
Q 42.671875 74.21875 48.875 69.140625 
Q 55.078125 64.0625 55.078125 55.328125 
Q 55.078125 49.078125 51.53125 44.71875 
Q 48 40.375 41.703125 38.8125 
Q 48.828125 37.15625 52.796875 32.3125 
Q 56.78125 27.484375 56.78125 20.515625 
Q 56.78125 9.90625 50.3125 4.234375 
Q 43.84375 -1.421875 31.78125 -1.421875 
Q 19.734375 -1.421875 13.25 4.234375 
Q 6.78125 9.90625 6.78125 20.515625 
Q 6.78125 27.484375 10.78125 32.3125 
Q 14.796875 37.15625 21.921875 38.8125 
M 18.3125 54.390625 
Q 18.3125 48.734375 21.84375 45.5625 
Q 25.390625 42.390625 31.78125 42.390625 
Q 38.140625 42.390625 41.71875 45.5625 
Q 45.3125 48.734375 45.3125 54.390625 
Q 45.3125 60.0625 41.71875 63.234375 
Q 38.140625 66.40625 31.78125 66.40625 
Q 25.390625 66.40625 21.84375 63.234375 
Q 18.3125 60.0625 18.3125 54.390625 
" id="BitstreamVeraSans-Roman-38"/>
      </defs>
      <g transform="translate(527.6784726231461 403.196875)scale(0.2 -0.2)">
       <use xlink:href="#BitstreamVeraSans-Roman-38"/>
      </g>
     </g>
    </g>
    <g id="xtick_10"/>
    <g id="xtick_11">
     <g id="line2d_33">
      <defs>
       <path d="M 0 0 
L 0 -2 
" id="mb5de065438" style="stroke:#000000;stroke-width:0.5;"/>
      </defs>
      <g>
       <use style="stroke:#000000;stroke-width:0.5;" x="69.25458934719217" xlink:href="#mb5de065438" y="384.0"/>
      </g>
     </g>
     <g id="line2d_34">
      <defs>
       <path d="M 0 0 
L 0 2 
" id="m97c7ecd8d7" style="stroke:#000000;stroke-width:0.5;"/>
      </defs>
      <g>
       <use style="stroke:#000000;stroke-width:0.5;" x="69.25458934719217" xlink:href="#m97c7ecd8d7" y="3.0"/>
      </g>
     </g>
    </g>
    <g id="xtick_12">
     <g id="line2d_35">
      <g>
       <use style="stroke:#000000;stroke-width:0.5;" x="135.65264410089986" xlink:href="#mb5de065438" y="384.0"/>
      </g>
     </g>
     <g id="line2d_36">
      <g>
       <use style="stroke:#000000;stroke-width:0.5;" x="135.65264410089986" xlink:href="#m97c7ecd8d7" y="3.0"/>
      </g>
     </g>
    </g>
    <g id="xtick_13">
     <g id="line2d_37">
      <g>
       <use style="stroke:#000000;stroke-width:0.5;" x="202.0506988546076" xlink:href="#mb5de065438" y="384.0"/>
      </g>
     </g>
     <g id="line2d_38">
      <g>
       <use style="stroke:#000000;stroke-width:0.5;" x="202.0506988546076" xlink:href="#m97c7ecd8d7" y="3.0"/>
      </g>
     </g>
    </g>
    <g id="xtick_14">
     <g id="line2d_39">
      <g>
       <use style="stroke:#000000;stroke-width:0.5;" x="268.4487536083153" xlink:href="#mb5de065438" y="384.0"/>
      </g>
     </g>
     <g id="line2d_40">
      <g>
       <use style="stroke:#000000;stroke-width:0.5;" x="268.4487536083153" xlink:href="#m97c7ecd8d7" y="3.0"/>
      </g>
     </g>
    </g>
    <g id="xtick_15">
     <g id="line2d_41">
      <g>
       <use style="stroke:#000000;stroke-width:0.5;" x="334.846808362023" xlink:href="#mb5de065438" y="384.0"/>
      </g>
     </g>
     <g id="line2d_42">
      <g>
       <use style="stroke:#000000;stroke-width:0.5;" x="334.846808362023" xlink:href="#m97c7ecd8d7" y="3.0"/>
      </g>
     </g>
    </g>
    <g id="xtick_16">
     <g id="line2d_43">
      <g>
       <use style="stroke:#000000;stroke-width:0.5;" x="401.2448631157307" xlink:href="#mb5de065438" y="384.0"/>
      </g>
     </g>
     <g id="line2d_44">
      <g>
       <use style="stroke:#000000;stroke-width:0.5;" x="401.2448631157307" xlink:href="#m97c7ecd8d7" y="3.0"/>
      </g>
     </g>
    </g>
    <g id="xtick_17">
     <g id="line2d_45">
      <g>
       <use style="stroke:#000000;stroke-width:0.5;" x="467.6429178694384" xlink:href="#mb5de065438" y="384.0"/>
      </g>
     </g>
     <g id="line2d_46">
      <g>
       <use style="stroke:#000000;stroke-width:0.5;" x="467.6429178694384" xlink:href="#m97c7ecd8d7" y="3.0"/>
      </g>
     </g>
    </g>
    <g id="xtick_18">
     <g id="line2d_47">
      <g>
       <use style="stroke:#000000;stroke-width:0.5;" x="534.0409726231461" xlink:href="#mb5de065438" y="384.0"/>
      </g>
     </g>
     <g id="line2d_48">
      <g>
       <use style="stroke:#000000;stroke-width:0.5;" x="534.0409726231461" xlink:href="#m97c7ecd8d7" y="3.0"/>
      </g>
     </g>
    </g>
    <g id="text_9">
     <!-- log10 of Df -->
     <defs>
      <path id="BitstreamVeraSans-Roman-20"/>
      <path d="M 12.40625 8.296875 
L 28.515625 8.296875 
L 28.515625 63.921875 
L 10.984375 60.40625 
L 10.984375 69.390625 
L 28.421875 72.90625 
L 38.28125 72.90625 
L 38.28125 8.296875 
L 54.390625 8.296875 
L 54.390625 0 
L 12.40625 0 
z
" id="BitstreamVeraSans-Roman-31"/>
      <path d="M 30.609375 48.390625 
Q 23.390625 48.390625 19.1875 42.75 
Q 14.984375 37.109375 14.984375 27.296875 
Q 14.984375 17.484375 19.15625 11.84375 
Q 23.34375 6.203125 30.609375 6.203125 
Q 37.796875 6.203125 41.984375 11.859375 
Q 46.1875 17.53125 46.1875 27.296875 
Q 46.1875 37.015625 41.984375 42.703125 
Q 37.796875 48.390625 30.609375 48.390625 
M 30.609375 56 
Q 42.328125 56 49.015625 48.375 
Q 55.71875 40.765625 55.71875 27.296875 
Q 55.71875 13.875 49.015625 6.21875 
Q 42.328125 -1.421875 30.609375 -1.421875 
Q 18.84375 -1.421875 12.171875 6.21875 
Q 5.515625 13.875 5.515625 27.296875 
Q 5.515625 40.765625 12.171875 48.375 
Q 18.84375 56 30.609375 56 
" id="BitstreamVeraSans-Roman-6f"/>
      <path d="M 9.421875 75.984375 
L 18.40625 75.984375 
L 18.40625 0 
L 9.421875 0 
z
" id="BitstreamVeraSans-Roman-6c"/>
      <path d="M 19.671875 64.796875 
L 19.671875 8.109375 
L 31.59375 8.109375 
Q 46.6875 8.109375 53.6875 14.9375 
Q 60.6875 21.78125 60.6875 36.53125 
Q 60.6875 51.171875 53.6875 57.984375 
Q 46.6875 64.796875 31.59375 64.796875 
z
M 9.8125 72.90625 
L 30.078125 72.90625 
Q 51.265625 72.90625 61.171875 64.09375 
Q 71.09375 55.28125 71.09375 36.53125 
Q 71.09375 17.671875 61.125 8.828125 
Q 51.171875 0 30.078125 0 
L 9.8125 0 
z
" id="BitstreamVeraSans-Roman-44"/>
      <path d="M 45.40625 27.984375 
Q 45.40625 37.75 41.375 43.109375 
Q 37.359375 48.484375 30.078125 48.484375 
Q 22.859375 48.484375 18.828125 43.109375 
Q 14.796875 37.75 14.796875 27.984375 
Q 14.796875 18.265625 18.828125 12.890625 
Q 22.859375 7.515625 30.078125 7.515625 
Q 37.359375 7.515625 41.375 12.890625 
Q 45.40625 18.265625 45.40625 27.984375 
M 54.390625 6.78125 
Q 54.390625 -7.171875 48.1875 -13.984375 
Q 42 -20.796875 29.203125 -20.796875 
Q 24.46875 -20.796875 20.265625 -20.09375 
Q 16.0625 -19.390625 12.109375 -17.921875 
L 12.109375 -9.1875 
Q 16.0625 -11.328125 19.921875 -12.34375 
Q 23.78125 -13.375 27.78125 -13.375 
Q 36.625 -13.375 41.015625 -8.765625 
Q 45.40625 -4.15625 45.40625 5.171875 
L 45.40625 9.625 
Q 42.625 4.78125 38.28125 2.390625 
Q 33.9375 0 27.875 0 
Q 17.828125 0 11.671875 7.65625 
Q 5.515625 15.328125 5.515625 27.984375 
Q 5.515625 40.671875 11.671875 48.328125 
Q 17.828125 56 27.875 56 
Q 33.9375 56 38.28125 53.609375 
Q 42.625 51.21875 45.40625 46.390625 
L 45.40625 54.6875 
L 54.390625 54.6875 
z
" id="BitstreamVeraSans-Roman-67"/>
      <path d="M 37.109375 75.984375 
L 37.109375 68.5 
L 28.515625 68.5 
Q 23.6875 68.5 21.796875 66.546875 
Q 19.921875 64.59375 19.921875 59.515625 
L 19.921875 54.6875 
L 34.71875 54.6875 
L 34.71875 47.703125 
L 19.921875 47.703125 
L 19.921875 0 
L 10.890625 0 
L 10.890625 47.703125 
L 2.296875 47.703125 
L 2.296875 54.6875 
L 10.890625 54.6875 
L 10.890625 58.5 
Q 10.890625 67.625 15.140625 71.796875 
Q 19.390625 75.984375 28.609375 75.984375 
z
" id="BitstreamVeraSans-Roman-66"/>
     </defs>
     <g transform="translate(229.9340625 427.55312499999997)scale(0.2 -0.2)">
      <use xlink:href="#BitstreamVeraSans-Roman-6c"/>
      <use x="27.783203125" xlink:href="#BitstreamVeraSans-Roman-6f"/>
      <use x="88.96484375" xlink:href="#BitstreamVeraSans-Roman-67"/>
      <use x="152.44140625" xlink:href="#BitstreamVeraSans-Roman-31"/>
      <use x="216.064453125" xlink:href="#BitstreamVeraSans-Roman-30"/>
      <use x="279.6875" xlink:href="#BitstreamVeraSans-Roman-20"/>
      <use x="311.474609375" xlink:href="#BitstreamVeraSans-Roman-6f"/>
      <use x="372.65625" xlink:href="#BitstreamVeraSans-Roman-66"/>
      <use x="407.861328125" xlink:href="#BitstreamVeraSans-Roman-20"/>
      <use x="439.6484375" xlink:href="#BitstreamVeraSans-Roman-44"/>
      <use x="516.650390625" xlink:href="#BitstreamVeraSans-Roman-66"/>
     </g>
    </g>
   </g>
   <g id="matplotlib.axis_2">
    <g id="ytick_1">
     <g id="line2d_49">
      <path clip-path="url(#p66b14f20fb)" d="M 3 384 
L 567.24 384 
" style="fill:none;stroke:#000000;stroke-dasharray:1.000000,3.000000;stroke-dashoffset:0.0;stroke-width:0.5;"/>
     </g>
     <g id="line2d_50">
      <defs>
       <path d="M 0 0 
L 4 0 
" id="m7fa4058a7a" style="stroke:#000000;stroke-width:0.5;"/>
      </defs>
      <g>
       <use style="stroke:#000000;stroke-width:0.5;" x="3.0" xlink:href="#m7fa4058a7a" y="384.0"/>
      </g>
     </g>
     <g id="line2d_51">
      <defs>
       <path d="M 0 0 
L -4 0 
" id="md346be5d49" style="stroke:#000000;stroke-width:0.5;"/>
      </defs>
      <g>
       <use style="stroke:#000000;stroke-width:0.5;" x="567.24" xlink:href="#md346be5d49" y="384.0"/>
      </g>
     </g>
    </g>
    <g id="ytick_2">
     <g id="line2d_52">
      <path clip-path="url(#p66b14f20fb)" d="M 3 308.554455 
L 567.24 308.554455 
" style="fill:none;stroke:#000000;stroke-dasharray:1.000000,3.000000;stroke-dashoffset:0.0;stroke-width:0.5;"/>
     </g>
     <g id="line2d_53">
      <g>
       <use style="stroke:#000000;stroke-width:0.5;" x="3.0" xlink:href="#m7fa4058a7a" y="308.55445544554453"/>
      </g>
     </g>
     <g id="line2d_54">
      <g>
       <use style="stroke:#000000;stroke-width:0.5;" x="567.24" xlink:href="#md346be5d49" y="308.55445544554453"/>
      </g>
     </g>
    </g>
    <g id="ytick_3">
     <g id="line2d_55">
      <path clip-path="url(#p66b14f20fb)" d="M 3 233.108911 
L 567.24 233.108911 
" style="fill:none;stroke:#000000;stroke-dasharray:1.000000,3.000000;stroke-dashoffset:0.0;stroke-width:0.5;"/>
     </g>
     <g id="line2d_56">
      <g>
       <use style="stroke:#000000;stroke-width:0.5;" x="3.0" xlink:href="#m7fa4058a7a" y="233.1089108910891"/>
      </g>
     </g>
     <g id="line2d_57">
      <g>
       <use style="stroke:#000000;stroke-width:0.5;" x="567.24" xlink:href="#md346be5d49" y="233.1089108910891"/>
      </g>
     </g>
    </g>
    <g id="ytick_4">
     <g id="line2d_58">
      <path clip-path="url(#p66b14f20fb)" d="M 3 157.663366 
L 567.24 157.663366 
" style="fill:none;stroke:#000000;stroke-dasharray:1.000000,3.000000;stroke-dashoffset:0.0;stroke-width:0.5;"/>
     </g>
     <g id="line2d_59">
      <g>
       <use style="stroke:#000000;stroke-width:0.5;" x="3.0" xlink:href="#m7fa4058a7a" y="157.66336633663363"/>
      </g>
     </g>
     <g id="line2d_60">
      <g>
       <use style="stroke:#000000;stroke-width:0.5;" x="567.24" xlink:href="#md346be5d49" y="157.66336633663363"/>
      </g>
     </g>
    </g>
    <g id="ytick_5">
     <g id="line2d_61">
      <path clip-path="url(#p66b14f20fb)" d="M 3 82.217822 
L 567.24 82.217822 
" style="fill:none;stroke:#000000;stroke-dasharray:1.000000,3.000000;stroke-dashoffset:0.0;stroke-width:0.5;"/>
     </g>
     <g id="line2d_62">
      <g>
       <use style="stroke:#000000;stroke-width:0.5;" x="3.0" xlink:href="#m7fa4058a7a" y="82.21782178217819"/>
      </g>
     </g>
     <g id="line2d_63">
      <g>
       <use style="stroke:#000000;stroke-width:0.5;" x="567.24" xlink:href="#md346be5d49" y="82.21782178217819"/>
      </g>
     </g>
    </g>
    <g id="ytick_6">
     <g id="line2d_64">
      <path clip-path="url(#p66b14f20fb)" d="M 3 6.772277 
L 567.24 6.772277 
" style="fill:none;stroke:#000000;stroke-dasharray:1.000000,3.000000;stroke-dashoffset:0.0;stroke-width:0.5;"/>
     </g>
     <g id="line2d_65">
      <g>
       <use style="stroke:#000000;stroke-width:0.5;" x="3.0" xlink:href="#m7fa4058a7a" y="6.772277227722782"/>
      </g>
     </g>
     <g id="line2d_66">
      <g>
       <use style="stroke:#000000;stroke-width:0.5;" x="567.24" xlink:href="#md346be5d49" y="6.772277227722782"/>
      </g>
     </g>
    </g>
   </g>
   <g id="text_10">
    <!-- {f6-f9}, 20-D -->
    <defs>
     <path d="M 12.5 -9.28125 
L 15.921875 -9.28125 
Q 22.75 -9.28125 24.828125 -7.171875 
Q 26.90625 -5.078125 26.90625 1.90625 
L 26.90625 14.015625 
Q 26.90625 21.625 29.09375 25.09375 
Q 31.296875 28.5625 36.71875 29.890625 
Q 31.296875 31.109375 29.09375 34.5625 
Q 26.90625 38.03125 26.90625 45.703125 
L 26.90625 57.8125 
Q 26.90625 64.75 24.828125 66.875 
Q 22.75 69 15.921875 69 
L 12.5 69 
L 12.5 75.984375 
L 15.578125 75.984375 
Q 27.734375 75.984375 31.8125 72.390625 
Q 35.890625 68.796875 35.890625 58.015625 
L 35.890625 46.296875 
Q 35.890625 39.015625 38.515625 36.203125 
Q 41.15625 33.40625 48.09375 33.40625 
L 51.125 33.40625 
L 51.125 26.421875 
L 48.09375 26.421875 
Q 41.15625 26.421875 38.515625 23.578125 
Q 35.890625 20.75 35.890625 13.375 
L 35.890625 1.703125 
Q 35.890625 -9.078125 31.8125 -12.6875 
Q 27.734375 -16.3125 15.578125 -16.3125 
L 12.5 -16.3125 
z
" id="BitstreamVeraSans-Roman-7d"/>
     <path d="M 10.984375 1.515625 
L 10.984375 10.5 
Q 14.703125 8.734375 18.5 7.8125 
Q 22.3125 6.890625 25.984375 6.890625 
Q 35.75 6.890625 40.890625 13.453125 
Q 46.046875 20.015625 46.78125 33.40625 
Q 43.953125 29.203125 39.59375 26.953125 
Q 35.25 24.703125 29.984375 24.703125 
Q 19.046875 24.703125 12.671875 31.3125 
Q 6.296875 37.9375 6.296875 49.421875 
Q 6.296875 60.640625 12.9375 67.421875 
Q 19.578125 74.21875 30.609375 74.21875 
Q 43.265625 74.21875 49.921875 64.515625 
Q 56.59375 54.828125 56.59375 36.375 
Q 56.59375 19.140625 48.40625 8.859375 
Q 40.234375 -1.421875 26.421875 -1.421875 
Q 22.703125 -1.421875 18.890625 -0.6875 
Q 15.09375 0.046875 10.984375 1.515625 
M 30.609375 32.421875 
Q 37.25 32.421875 41.125 36.953125 
Q 45.015625 41.5 45.015625 49.421875 
Q 45.015625 57.28125 41.125 61.84375 
Q 37.25 66.40625 30.609375 66.40625 
Q 23.96875 66.40625 20.09375 61.84375 
Q 16.21875 57.28125 16.21875 49.421875 
Q 16.21875 41.5 20.09375 36.953125 
Q 23.96875 32.421875 30.609375 32.421875 
" id="BitstreamVeraSans-Roman-39"/>
     <path d="M 51.125 -9.28125 
L 51.125 -16.3125 
L 48.09375 -16.3125 
Q 35.9375 -16.3125 31.8125 -12.6875 
Q 27.6875 -9.078125 27.6875 1.703125 
L 27.6875 13.375 
Q 27.6875 20.75 25.046875 23.578125 
Q 22.40625 26.421875 15.484375 26.421875 
L 12.5 26.421875 
L 12.5 33.40625 
L 15.484375 33.40625 
Q 22.46875 33.40625 25.078125 36.203125 
Q 27.6875 39.015625 27.6875 46.296875 
L 27.6875 58.015625 
Q 27.6875 68.796875 31.8125 72.390625 
Q 35.9375 75.984375 48.09375 75.984375 
L 51.125 75.984375 
L 51.125 69 
L 47.796875 69 
Q 40.921875 69 38.8125 66.84375 
Q 36.71875 64.703125 36.71875 57.8125 
L 36.71875 45.703125 
Q 36.71875 38.03125 34.5 34.5625 
Q 32.28125 31.109375 26.90625 29.890625 
Q 32.328125 28.5625 34.515625 25.09375 
Q 36.71875 21.625 36.71875 14.015625 
L 36.71875 1.90625 
Q 36.71875 -4.984375 38.8125 -7.125 
Q 40.921875 -9.28125 47.796875 -9.28125 
z
" id="BitstreamVeraSans-Roman-7b"/>
     <path d="M 11.71875 12.40625 
L 22.015625 12.40625 
L 22.015625 4 
L 14.015625 -11.625 
L 7.71875 -11.625 
L 11.71875 4 
z
" id="BitstreamVeraSans-Roman-2c"/>
    </defs>
    <g transform="translate(422.98019999999997 376.38)scale(0.2 -0.2)">
     <use xlink:href="#BitstreamVeraSans-Roman-7b"/>
     <use x="63.623046875" xlink:href="#BitstreamVeraSans-Roman-66"/>
     <use x="98.828125" xlink:href="#BitstreamVeraSans-Roman-36"/>
     <use x="162.451171875" xlink:href="#BitstreamVeraSans-Roman-2d"/>
     <use x="198.53515625" xlink:href="#BitstreamVeraSans-Roman-66"/>
     <use x="233.740234375" xlink:href="#BitstreamVeraSans-Roman-39"/>
     <use x="297.36328125" xlink:href="#BitstreamVeraSans-Roman-7d"/>
     <use x="360.986328125" xlink:href="#BitstreamVeraSans-Roman-2c"/>
     <use x="392.7734375" xlink:href="#BitstreamVeraSans-Roman-20"/>
     <use x="424.560546875" xlink:href="#BitstreamVeraSans-Roman-32"/>
     <use x="488.18359375" xlink:href="#BitstreamVeraSans-Roman-30"/>
     <use x="551.806640625" xlink:href="#BitstreamVeraSans-Roman-2d"/>
     <use x="587.890625" xlink:href="#BitstreamVeraSans-Roman-44"/>
    </g>
   </g>
   <g id="text_11">
    <!-- v2.2.1.10 -->
    <defs>
     <path d="M 2.984375 54.6875 
L 12.5 54.6875 
L 29.59375 8.796875 
L 46.6875 54.6875 
L 56.203125 54.6875 
L 35.6875 0 
L 23.484375 0 
z
" id="BitstreamVeraSans-Roman-76"/>
     <path d="M 10.6875 12.40625 
L 21 12.40625 
L 21 0 
L 10.6875 0 
z
" id="BitstreamVeraSans-Roman-2e"/>
    </defs>
    <g style="fill:#808080;" transform="translate(261.4871875 378.11031249999996)scale(0.1 -0.1)">
     <use xlink:href="#BitstreamVeraSans-Roman-76"/>
     <use x="59.1796875" xlink:href="#BitstreamVeraSans-Roman-32"/>
     <use x="122.802734375" xlink:href="#BitstreamVeraSans-Roman-2e"/>
     <use x="154.58984375" xlink:href="#BitstreamVeraSans-Roman-32"/>
     <use x="218.212890625" xlink:href="#BitstreamVeraSans-Roman-2e"/>
     <use x="250.0" xlink:href="#BitstreamVeraSans-Roman-31"/>
     <use x="313.623046875" xlink:href="#BitstreamVeraSans-Roman-2e"/>
     <use x="345.41015625" xlink:href="#BitstreamVeraSans-Roman-31"/>
     <use x="409.033203125" xlink:href="#BitstreamVeraSans-Roman-30"/>
    </g>
   </g>
  </g>
 </g>
 <defs>
  <clipPath id="p66b14f20fb">
   <rect height="381.0" width="564.24" x="3.0" y="3.0"/>
  </clipPath>
 </defs>
</svg>
