<?xml version="1.0" encoding="utf-8" standalone="no"?>
<!DOCTYPE svg PUBLIC "-//W3C//DTD SVG 1.1//EN"
  "http://www.w3.org/Graphics/SVG/1.1/DTD/svg11.dtd">
<!-- Created with matplotlib (http://matplotlib.org/) -->
<svg height="432pt" version="1.1" viewBox="0 0 576 432" width="576pt" xmlns="http://www.w3.org/2000/svg" xmlns:xlink="http://www.w3.org/1999/xlink">
 <defs>
  <style type="text/css">
*{stroke-linecap:butt;stroke-linejoin:round;stroke-miterlimit:100000;}
  </style>
 </defs>
 <g id="figure_1">
  <g id="patch_1">
   <path d="M 0 432 
L 576 432 
L 576 0 
L 0 0 
z
" style="fill:#ffffff;"/>
  </g>
  <g id="axes_1">
   <g id="patch_2">
    <path d="M 3 384 
L 567.24 384 
L 567.24 3 
L 3 3 
z
" style="fill:#ffffff;"/>
   </g>
   <g id="line2d_1">
    <path clip-path="url(#pba9ba8591e)" d="M -1 338.732673 
L 3.577788 338.732673 
L 3.577788 333.70297 
L 5.092415 333.70297 
L 5.158657 323.643564 
L 5.833706 323.643564 
L 5.833706 318.613861 
L 7.015993 318.613861 
L 7.015993 313.584158 
L 9.582937 313.584158 
L 9.582937 308.554455 
L 44.379945 308.554455 
L 44.379945 303.524752 
L 45.436748 303.524752 
L 45.436748 298.49505 
L 45.860473 298.49505 
L 45.885049 288.435644 
L 46.144034 288.435644 
L 46.152513 278.376238 
L 46.399221 278.376238 
L 46.399221 273.346535 
L 46.648717 273.346535 
L 46.648717 268.316832 
L 46.762385 268.316832 
L 46.762385 263.287129 
L 47.317581 263.287129 
L 47.378301 248.19802 
L 47.53779 248.19802 
L 47.53779 243.168317 
L 47.944795 243.168317 
L 47.944795 238.138614 
L 48.195609 238.138614 
L 48.195609 233.108911 
L 57.171461 233.108911 
L 57.176373 223.049505 
L 57.420651 223.049505 
L 57.420651 218.019802 
L 57.768748 218.019802 
L 57.836986 207.960396 
L 58.549206 207.960396 
L 58.549206 202.930693 
L 58.698524 202.930693 
L 58.698524 197.90099 
L 58.867752 197.90099 
L 58.867752 192.871287 
L 59.060167 192.871287 
L 59.060167 187.841584 
L 59.19278 187.841584 
L 59.19278 182.811881 
L 59.312517 182.811881 
L 59.312517 177.782178 
L 59.614932 177.782178 
L 59.614932 172.752475 
L 59.763474 172.752475 
L 59.763474 167.722772 
L 60.277679 167.722772 
L 60.277679 162.693069 
L 84.489056 162.693069 
L 84.489056 157.663366 
L 167.24869 157.663366 
L 167.24869 152.633663 
L 171.369414 152.633663 
L 171.369414 147.60396 
L 189.607186 147.60396 
L 189.607202 137.544554 
L 202.458263 137.544554 
L 202.458263 132.514851 
L 213.632732 132.514851 
L 213.632732 127.485149 
L 215.178585 127.485149 
L 215.178585 122.455446 
L 219.405808 122.455446 
L 219.405808 117.425743 
L 222.121971 117.425743 
L 222.121971 112.39604 
L 223.663471 112.39604 
L 223.663471 107.366337 
L 223.874025 107.366337 
L 223.874025 102.336634 
L 226.222054 102.336634 
L 226.222054 97.306931 
L 229.466369 97.306931 
L 229.466369 92.277228 
L 230.52993 92.277228 
L 230.52993 87.247525 
L 231.437713 87.247525 
L 231.437713 82.217822 
L 232.614742 82.217822 
L 232.614742 77.188119 
L 233.335388 77.188119 
L 233.335388 72.158416 
L 239.136263 72.158416 
L 239.136263 67.128713 
L 239.967021 67.128713 
L 239.967021 62.09901 
L 241.945729 62.09901 
L 241.945729 57.069307 
L 243.966298 57.069307 
L 243.966298 52.039604 
L 268.375889 52.039604 
L 268.375889 16.831683 
L 278.369792 16.831683 
L 278.369792 6.772277 
L 278.369792 6.772277 
L 567.24 6.772277 
L 567.24 6.772277 
" style="fill:none;stroke:#ff0000;stroke-linecap:square;stroke-width:3.0;"/>
   </g>
   <g id="line2d_2">
    <path clip-path="url(#pba9ba8591e)" d="M 303.112893 384 
L 303.112893 378.970297 
L 304.618751 378.970297 
L 304.618751 373.940594 
L 305.95777 373.940594 
L 305.95777 368.910891 
L 306.717066 368.910891 
L 306.806207 358.851485 
L 307.005551 358.851485 
L 307.005551 353.821782 
L 307.834278 353.821782 
L 307.873209 343.762376 
L 307.958212 343.762376 
L 308.044378 333.70297 
L 308.179936 333.70297 
L 308.179936 328.673267 
L 308.759253 328.673267 
L 308.759253 323.643564 
L 308.973116 323.643564 
L 309.075811 313.584158 
L 310.207674 313.584158 
L 310.246946 303.524752 
L 310.748906 303.524752 
L 310.783116 293.465347 
L 311.361282 293.465347 
L 311.361282 288.435644 
L 311.890939 288.435644 
L 311.890939 283.405941 
L 312.282018 283.405941 
L 312.282018 278.376238 
L 312.401438 278.376238 
L 312.401438 273.346535 
L 313.47372 273.346535 
L 313.562102 263.287129 
L 313.758379 263.287129 
L 313.813235 253.227723 
L 314.986811 253.227723 
L 314.986811 248.19802 
L 318.188985 248.19802 
L 318.188985 243.168317 
L 319.501756 243.168317 
L 319.501756 238.138614 
L 321.634386 238.138614 
L 321.634386 233.108911 
L 322.222657 233.108911 
L 322.222657 228.079208 
L 322.554637 228.079208 
L 322.652247 218.019802 
L 323.342891 218.019802 
L 323.342891 212.990099 
L 323.456884 212.990099 
L 323.456884 207.960396 
L 323.765509 207.960396 
L 323.862031 192.871287 
L 325.65741 192.871287 
L 325.65741 187.841584 
L 326.432251 187.841584 
L 326.432251 182.811881 
L 327.032174 182.811881 
L 327.05759 172.752475 
L 327.912731 172.752475 
L 327.912731 167.722772 
L 328.056778 167.722772 
L 328.056778 162.693069 
L 328.730966 162.693069 
L 328.730966 157.663366 
L 329.079462 157.663366 
L 329.079462 152.633663 
L 329.521928 152.633663 
L 329.521928 147.60396 
L 329.651985 147.60396 
L 329.738424 137.544554 
L 330.162646 137.544554 
L 330.162646 132.514851 
L 330.359761 132.514851 
L 330.359761 127.485149 
L 330.674303 127.485149 
L 330.674303 122.455446 
L 331.382309 122.455446 
L 331.382309 117.425743 
L 331.628892 117.425743 
L 331.628892 112.39604 
L 331.83675 112.39604 
L 331.83675 107.366337 
L 332.103513 107.366337 
L 332.16698 97.306931 
L 337.026928 97.306931 
L 337.026928 92.277228 
L 339.165756 92.277228 
L 339.165756 87.247525 
L 340.892153 87.247525 
L 340.892153 82.217822 
L 359.975994 82.217822 
L 359.975994 77.188119 
L 360.142603 77.188119 
L 360.142603 72.158416 
L 361.253272 72.158416 
L 361.310704 62.09901 
L 361.529456 62.09901 
L 361.529456 57.069307 
L 362.914165 57.069307 
L 362.914165 52.039604 
L 363.996423 52.039604 
L 363.996423 47.009901 
L 364.131273 47.009901 
L 364.209064 36.950495 
L 365.802279 36.950495 
L 365.802279 31.920792 
L 366.421207 31.920792 
L 366.421207 26.891089 
L 367.008149 26.891089 
L 367.008149 21.861386 
L 368.366842 21.861386 
L 368.366842 16.831683 
L 368.852779 16.831683 
L 368.852779 11.80198 
L 371.558306 11.80198 
L 371.558306 6.772277 
L 371.558306 6.772277 
L 567.24 6.772277 
L 567.24 6.772277 
" style="fill:none;stroke:#00bfbf;stroke-linecap:square;"/>
   </g>
   <g id="line2d_3">
    <path clip-path="url(#pba9ba8591e)" d="M 303.112893 384 
L 303.112893 378.970297 
L 304.086724 378.970297 
L 304.086724 373.940594 
L 304.618751 373.940594 
L 304.618751 368.910891 
L 305.46116 368.910891 
L 305.46116 363.881188 
L 305.792916 363.881188 
L 305.792916 358.851485 
L 305.95777 358.851485 
L 305.95777 353.821782 
L 306.717066 353.821782 
L 306.806207 338.732673 
L 307.005551 338.732673 
L 307.005551 333.70297 
L 307.592221 333.70297 
L 307.592221 328.673267 
L 307.804188 328.673267 
L 307.873209 318.613861 
L 307.958212 318.613861 
L 308.044378 308.554455 
L 308.759253 308.554455 
L 308.759253 303.524752 
L 308.973116 303.524752 
L 309.075811 293.465347 
L 309.175312 293.465347 
L 309.175312 288.435644 
L 309.796859 288.435644 
L 309.796859 283.405941 
L 310.207674 283.405941 
L 310.246946 273.346535 
L 310.567846 273.346535 
L 310.63724 263.287129 
L 310.783116 263.287129 
L 310.783116 258.257426 
L 311.013993 258.257426 
L 311.013993 253.227723 
L 311.66242 253.227723 
L 311.66242 248.19802 
L 313.246988 248.19802 
L 313.246988 243.168317 
L 314.519373 243.168317 
L 314.519373 238.138614 
L 317.819219 238.138614 
L 317.819219 233.108911 
L 321.634386 233.108911 
L 321.634386 228.079208 
L 322.222657 228.079208 
L 322.222657 223.049505 
L 322.342492 223.049505 
L 322.342492 218.019802 
L 322.554637 218.019802 
L 322.652247 207.960396 
L 322.677997 207.960396 
L 322.677997 202.930693 
L 323.342891 202.930693 
L 323.342891 197.90099 
L 323.456884 197.90099 
L 323.456884 192.871287 
L 323.636595 192.871287 
L 323.636595 187.841584 
L 323.765509 187.841584 
L 323.862031 177.782178 
L 324.469745 177.782178 
L 324.469745 172.752475 
L 325.49736 172.752475 
L 325.527711 162.693069 
L 325.633684 162.693069 
L 325.739721 147.60396 
L 326.30923 147.60396 
L 326.30923 142.574257 
L 327.032174 142.574257 
L 327.032174 137.544554 
L 328.501428 137.544554 
L 328.501428 132.514851 
L 328.730966 132.514851 
L 328.730966 127.485149 
L 329.21053 127.485149 
L 329.21053 122.455446 
L 329.738424 122.455446 
L 329.738424 117.425743 
L 330.162646 117.425743 
L 330.162646 112.39604 
L 330.359761 112.39604 
L 330.359761 107.366337 
L 330.720381 107.366337 
L 330.720381 102.336634 
L 331.423942 102.336634 
L 331.423942 97.306931 
L 331.628892 97.306931 
L 331.628892 92.277228 
L 336.203476 92.277228 
L 336.203476 87.247525 
L 338.924107 87.247525 
L 338.924107 82.217822 
L 354.659535 82.217822 
L 354.659535 77.188119 
L 356.398868 77.188119 
L 356.398868 72.158416 
L 359.975994 72.158416 
L 359.975994 67.128713 
L 360.690902 67.128713 
L 360.690902 62.09901 
L 361.253272 62.09901 
L 361.310704 52.039604 
L 361.529456 52.039604 
L 361.529456 47.009901 
L 362.914165 47.009901 
L 362.914165 41.980198 
L 363.539684 41.980198 
L 363.539684 36.950495 
L 364.131273 36.950495 
L 364.209064 26.891089 
L 365.802279 26.891089 
L 365.802279 21.861386 
L 366.03022 21.861386 
L 366.03022 16.831683 
L 367.114921 16.831683 
L 367.114921 11.80198 
L 368.659964 11.80198 
L 368.659964 6.772277 
L 368.659964 6.772277 
L 567.24 6.772277 
L 567.24 6.772277 
" style="fill:none;stroke:#bf00bf;stroke-linecap:square;"/>
   </g>
   <g id="line2d_4">
    <path clip-path="url(#pba9ba8591e)" d="M 302.642584 384 
L 302.642584 378.970297 
L 303.10224 378.970297 
L 303.150709 368.910891 
L 303.908911 368.910891 
L 303.908911 363.881188 
L 304.086724 363.881188 
L 304.182874 353.821782 
L 304.351717 353.821782 
L 304.351717 348.792079 
L 304.618751 348.792079 
L 304.618751 343.762376 
L 304.768554 343.762376 
L 304.768554 338.732673 
L 305.46116 338.732673 
L 305.46116 333.70297 
L 305.792916 333.70297 
L 305.847577 318.613861 
L 305.966753 318.613861 
L 305.966753 313.584158 
L 306.221659 313.584158 
L 306.222046 303.524752 
L 306.806207 303.524752 
L 306.806207 298.49505 
L 307.005551 298.49505 
L 307.078427 288.435644 
L 307.654289 288.435644 
L 307.746103 278.376238 
L 307.873209 278.376238 
L 307.873209 273.346535 
L 308.576669 273.346535 
L 308.576669 268.316832 
L 308.973116 268.316832 
L 308.973116 263.287129 
L 309.175312 263.287129 
L 309.175312 258.257426 
L 310.207674 258.257426 
L 310.246946 248.19802 
L 310.534459 248.19802 
L 310.534459 243.168317 
L 311.013993 243.168317 
L 311.013993 238.138614 
L 312.748115 238.138614 
L 312.748115 233.108911 
L 315.951759 233.108911 
L 315.951759 228.079208 
L 319.278301 228.079208 
L 319.278301 223.049505 
L 319.517364 223.049505 
L 319.517364 218.019802 
L 320.631556 218.019802 
L 320.631556 212.990099 
L 321.422903 212.990099 
L 321.422903 207.960396 
L 321.634386 207.960396 
L 321.684255 197.90099 
L 321.759005 197.90099 
L 321.767606 187.841584 
L 321.890324 187.841584 
L 321.890324 182.811881 
L 322.222657 182.811881 
L 322.222657 177.782178 
L 322.342492 177.782178 
L 322.342492 172.752475 
L 322.554637 172.752475 
L 322.611126 162.693069 
L 323.342891 162.693069 
L 323.342891 157.663366 
L 323.593417 157.663366 
L 323.593417 152.633663 
L 323.760176 152.633663 
L 323.765509 142.574257 
L 324.732251 142.574257 
L 324.732251 137.544554 
L 324.990414 137.544554 
L 324.990414 132.514851 
L 325.65741 132.514851 
L 325.739721 122.455446 
L 325.799692 122.455446 
L 325.799692 117.425743 
L 326.004949 117.425743 
L 326.004949 112.39604 
L 327.187676 112.39604 
L 327.187676 107.366337 
L 327.461687 107.366337 
L 327.461687 102.336634 
L 328.901627 102.336634 
L 328.901627 97.306931 
L 331.423942 97.306931 
L 331.423942 92.277228 
L 333.135392 92.277228 
L 333.135392 87.247525 
L 338.495729 87.247525 
L 338.495729 82.217822 
L 354.659535 82.217822 
L 354.659535 77.188119 
L 356.398868 77.188119 
L 356.398868 72.158416 
L 359.013718 72.158416 
L 359.013718 67.128713 
L 359.830674 67.128713 
L 359.830674 62.09901 
L 359.975994 62.09901 
L 359.975994 57.069307 
L 360.369563 57.069307 
L 360.369563 52.039604 
L 360.690902 52.039604 
L 360.690902 47.009901 
L 361.014775 47.009901 
L 361.014775 41.980198 
L 361.253272 41.980198 
L 361.253272 36.950495 
L 361.529456 36.950495 
L 361.529456 31.920792 
L 362.373629 31.920792 
L 362.373629 26.891089 
L 363.81828 26.891089 
L 363.81828 21.861386 
L 364.131273 21.861386 
L 364.209064 11.80198 
L 365.289031 11.80198 
L 365.289031 6.772277 
L 365.289031 6.772277 
L 567.24 6.772277 
L 567.24 6.772277 
" style="fill:none;stroke:#000000;stroke-linecap:square;"/>
   </g>
   <g id="line2d_5">
    <path clip-path="url(#pba9ba8591e)" d="M 290.280409 384 
L 290.280409 378.970297 
L 295.494086 378.970297 
L 295.494086 373.940594 
L 295.616383 373.940594 
L 295.616383 368.910891 
L 295.731528 368.910891 
L 295.731528 363.881188 
L 295.999981 363.881188 
L 295.999981 358.851485 
L 296.182128 358.851485 
L 296.276182 343.762376 
L 296.312574 343.762376 
L 296.348397 333.70297 
L 296.525347 333.70297 
L 296.525347 328.673267 
L 297.034912 328.673267 
L 297.115174 318.613861 
L 298.166718 318.613861 
L 298.166718 313.584158 
L 298.406748 313.584158 
L 298.406748 308.554455 
L 298.583243 308.554455 
L 298.583243 303.524752 
L 298.7602 303.524752 
L 298.7602 298.49505 
L 298.991536 298.49505 
L 298.991536 293.465347 
L 299.1516 293.465347 
L 299.1516 288.435644 
L 299.318168 288.435644 
L 299.318168 283.405941 
L 299.461297 283.405941 
L 299.461297 278.376238 
L 300.721359 278.376238 
L 300.721359 273.346535 
L 301.055323 273.346535 
L 301.056619 263.287129 
L 301.208481 263.287129 
L 301.220421 253.227723 
L 301.901508 253.227723 
L 301.901508 248.19802 
L 304.823866 248.19802 
L 304.823866 243.168317 
L 305.562115 243.168317 
L 305.562115 238.138614 
L 305.759765 238.138614 
L 305.759765 233.108911 
L 313.86701 233.108911 
L 313.86701 228.079208 
L 315.951759 228.079208 
L 315.951759 223.049505 
L 316.139929 223.049505 
L 316.229357 212.990099 
L 316.325878 212.990099 
L 316.325878 207.960396 
L 317.226996 207.960396 
L 317.326056 192.871287 
L 317.559751 192.871287 
L 317.559751 187.841584 
L 317.78095 187.841584 
L 317.78095 182.811881 
L 318.801567 182.811881 
L 318.801567 177.782178 
L 318.946135 177.782178 
L 318.975384 167.722772 
L 319.102825 167.722772 
L 319.102825 162.693069 
L 319.294767 162.693069 
L 319.294767 157.663366 
L 319.517364 157.663366 
L 319.557744 147.60396 
L 320.127948 147.60396 
L 320.127948 142.574257 
L 320.377016 142.574257 
L 320.377016 137.544554 
L 320.693998 137.544554 
L 320.693998 132.514851 
L 320.987072 132.514851 
L 321.017522 122.455446 
L 321.334491 122.455446 
L 321.36817 112.39604 
L 321.712465 112.39604 
L 321.712465 107.366337 
L 321.934473 107.366337 
L 321.934473 102.336634 
L 322.222657 102.336634 
L 322.222657 97.306931 
L 323.006164 97.306931 
L 323.063363 87.247525 
L 325.005392 87.247525 
L 325.005392 82.217822 
L 352.197743 82.217822 
L 352.197743 77.188119 
L 352.35253 77.188119 
L 352.35253 72.158416 
L 353.442895 72.158416 
L 353.442895 67.128713 
L 353.808097 67.128713 
L 353.808097 62.09901 
L 354.160709 62.09901 
L 354.160709 57.069307 
L 354.303903 57.069307 
L 354.303903 52.039604 
L 355.239858 52.039604 
L 355.239858 47.009901 
L 355.950579 47.009901 
L 355.950579 41.980198 
L 356.54373 41.980198 
L 356.54373 36.950495 
L 357.021603 36.950495 
L 357.021603 31.920792 
L 357.152467 31.920792 
L 357.152467 26.891089 
L 357.719295 26.891089 
L 357.719295 21.861386 
L 357.986063 21.861386 
L 357.986063 16.831683 
L 358.55087 16.831683 
L 358.55087 11.80198 
L 360.373485 11.80198 
L 360.373485 6.772277 
L 360.373485 6.772277 
L 567.24 6.772277 
L 567.24 6.772277 
" style="fill:none;stroke:#00bfbf;stroke-linecap:square;"/>
   </g>
   <g id="line2d_6">
    <path clip-path="url(#pba9ba8591e)" d="M 279.57623 384 
L 279.57623 378.970297 
L 280.09778 378.970297 
L 280.09778 373.940594 
L 280.774933 373.940594 
L 280.774933 368.910891 
L 281.99735 368.910891 
L 281.99735 363.881188 
L 282.330029 363.881188 
L 282.330029 358.851485 
L 282.44216 358.851485 
L 282.44216 353.821782 
L 283.849488 353.821782 
L 283.849488 348.792079 
L 284.089198 348.792079 
L 284.093937 338.732673 
L 285.666868 338.732673 
L 285.666868 333.70297 
L 286.102778 333.70297 
L 286.102778 328.673267 
L 287.890306 328.673267 
L 287.890306 323.643564 
L 288.043697 323.643564 
L 288.043697 318.613861 
L 288.585608 318.613861 
L 288.585608 313.584158 
L 289.763764 313.584158 
L 289.763764 308.554455 
L 290.280409 308.554455 
L 290.280409 303.524752 
L 291.375354 303.524752 
L 291.375354 298.49505 
L 291.572905 298.49505 
L 291.572905 293.465347 
L 292.406981 293.465347 
L 292.406981 288.435644 
L 292.821067 288.435644 
L 292.821067 283.405941 
L 293.057554 283.405941 
L 293.057554 278.376238 
L 293.611638 278.376238 
L 293.611638 273.346535 
L 293.737063 273.346535 
L 293.737063 268.316832 
L 294.682435 268.316832 
L 294.722419 258.257426 
L 295.026846 258.257426 
L 295.070614 248.19802 
L 295.405766 248.19802 
L 295.405766 243.168317 
L 295.941011 243.168317 
L 295.941011 238.138614 
L 296.182128 238.138614 
L 296.182128 233.108911 
L 298.641301 233.108911 
L 298.641301 228.079208 
L 299.705972 228.079208 
L 299.705972 223.049505 
L 300.437166 223.049505 
L 300.437166 218.019802 
L 300.972594 218.019802 
L 300.972594 212.990099 
L 301.54106 212.990099 
L 301.54106 207.960396 
L 302.723295 207.960396 
L 302.723295 202.930693 
L 303.956529 202.930693 
L 303.956529 197.90099 
L 304.183318 197.90099 
L 304.183318 192.871287 
L 304.512028 192.871287 
L 304.554594 182.811881 
L 305.550363 182.811881 
L 305.550363 177.782178 
L 306.145226 177.782178 
L 306.145226 172.752475 
L 306.755802 172.752475 
L 306.755802 167.722772 
L 307.342726 167.722772 
L 307.342726 162.693069 
L 309.942913 162.693069 
L 309.942913 157.663366 
L 312.199739 157.663366 
L 312.199739 152.633663 
L 313.104694 152.633663 
L 313.104694 147.60396 
L 313.86701 147.60396 
L 313.86701 142.574257 
L 314.138251 142.574257 
L 314.138251 137.544554 
L 314.554554 137.544554 
L 314.659032 127.485149 
L 315.165461 127.485149 
L 315.221497 117.425743 
L 315.951759 117.425743 
L 315.951759 112.39604 
L 316.092268 112.39604 
L 316.092268 107.366337 
L 316.229357 107.366337 
L 316.229357 102.336634 
L 317.226996 102.336634 
L 317.243445 92.277228 
L 317.868072 92.277228 
L 317.868072 87.247525 
L 318.229345 87.247525 
L 318.229345 82.217822 
L 340.117112 82.217822 
L 340.117112 77.188119 
L 340.519903 77.188119 
L 340.519903 72.158416 
L 341.34823 72.158416 
L 341.34823 67.128713 
L 341.960623 67.128713 
L 342.030533 57.069307 
L 342.522271 57.069307 
L 342.576371 47.009901 
L 342.81921 47.009901 
L 342.81921 41.980198 
L 343.012962 41.980198 
L 343.012962 36.950495 
L 343.498545 36.950495 
L 343.563963 26.891089 
L 344.302811 26.891089 
L 344.302811 21.861386 
L 344.561041 21.861386 
L 344.561041 16.831683 
L 344.966291 16.831683 
L 344.966291 11.80198 
L 345.316754 11.80198 
L 345.316754 6.772277 
L 345.316754 6.772277 
L 567.24 6.772277 
L 567.24 6.772277 
" style="fill:none;stroke:#bf00bf;stroke-linecap:square;"/>
   </g>
   <g id="line2d_7">
    <path clip-path="url(#pba9ba8591e)" d="M 215.313752 384 
L 215.313752 378.970297 
L 217.393629 378.970297 
L 217.4477 368.910891 
L 217.712461 368.910891 
L 217.712461 363.881188 
L 217.998845 363.881188 
L 217.998845 358.851485 
L 218.119017 358.851485 
L 218.119017 353.821782 
L 218.495231 353.821782 
L 218.495231 348.792079 
L 219.001618 348.792079 
L 219.001618 343.762376 
L 219.432154 343.762376 
L 219.432154 338.732673 
L 220.193134 338.732673 
L 220.193134 333.70297 
L 221.050304 333.70297 
L 221.050304 328.673267 
L 221.599738 328.673267 
L 221.599738 323.643564 
L 222.437198 323.643564 
L 222.437198 318.613861 
L 223.523397 318.613861 
L 223.523397 313.584158 
L 224.822956 313.584158 
L 224.822956 308.554455 
L 235.331647 308.554455 
L 235.331647 303.524752 
L 235.99902 303.524752 
L 236.06265 293.465347 
L 236.210565 293.465347 
L 236.210565 288.435644 
L 236.638137 288.435644 
L 236.638137 283.405941 
L 238.333703 283.405941 
L 238.333703 278.376238 
L 239.565925 278.376238 
L 239.565925 273.346535 
L 239.811848 273.346535 
L 239.811848 268.316832 
L 240.045467 268.316832 
L 240.155392 258.257426 
L 240.352107 258.257426 
L 240.352107 253.227723 
L 240.639178 253.227723 
L 240.680919 243.168317 
L 242.340681 243.168317 
L 242.382684 233.108911 
L 277.963153 233.108911 
L 277.963153 228.079208 
L 285.685183 228.079208 
L 285.685183 223.049505 
L 287.609888 223.049505 
L 287.609888 218.019802 
L 287.926165 218.019802 
L 287.926165 212.990099 
L 288.720673 212.990099 
L 288.720673 207.960396 
L 288.832006 207.960396 
L 288.832006 202.930693 
L 289.056054 202.930693 
L 289.056054 197.90099 
L 289.199601 197.90099 
L 289.273234 187.841584 
L 289.501713 187.841584 
L 289.598026 177.782178 
L 290.21556 177.782178 
L 290.287701 167.722772 
L 290.413119 167.722772 
L 290.413119 162.693069 
L 291.227554 162.693069 
L 291.227554 157.663366 
L 306.550107 157.663366 
L 306.550107 152.633663 
L 306.745521 152.633663 
L 306.745521 147.60396 
L 307.457869 147.60396 
L 307.457869 142.574257 
L 307.655201 142.574257 
L 307.655201 137.544554 
L 309.58791 137.544554 
L 309.58791 132.514851 
L 309.931821 132.514851 
L 309.931821 127.485149 
L 311.094812 127.485149 
L 311.094812 122.455446 
L 311.41373 122.455446 
L 311.41373 117.425743 
L 311.626452 117.425743 
L 311.626452 112.39604 
L 312.199739 112.39604 
L 312.199739 107.366337 
L 312.431025 107.366337 
L 312.540253 97.306931 
L 312.76182 97.306931 
L 312.76182 92.277228 
L 313.103812 92.277228 
L 313.105822 82.217822 
L 332.504946 82.217822 
L 332.568695 72.158416 
L 333.21053 72.158416 
L 333.21053 67.128713 
L 333.788495 67.128713 
L 333.788495 62.09901 
L 334.14695 62.09901 
L 334.205932 52.039604 
L 334.575936 52.039604 
L 334.575936 47.009901 
L 334.756752 47.009901 
L 334.839209 36.950495 
L 335.293575 36.950495 
L 335.398382 26.891089 
L 335.45431 26.891089 
L 335.486995 16.831683 
L 335.677304 16.831683 
L 335.677304 11.80198 
L 336.322316 11.80198 
L 336.322316 6.772277 
L 336.322316 6.772277 
L 567.24 6.772277 
L 567.24 6.772277 
" style="fill:none;stroke:#000000;stroke-linecap:square;"/>
   </g>
   <g id="line2d_8">
    <path clip-path="url(#pba9ba8591e)" d="M -1 343.762376 
L 9.582937 343.762376 
L 9.582937 338.732673 
L 47.317673 338.732673 
L 47.384179 328.673267 
L 47.952846 328.673267 
L 47.952846 323.643564 
L 48.44998 323.643564 
L 48.44998 318.613861 
L 48.791277 318.613861 
L 48.791277 313.584158 
L 49.094395 313.584158 
L 49.094395 308.554455 
L 49.578627 308.554455 
L 49.578627 303.524752 
L 50.077988 303.524752 
L 50.188115 288.435644 
L 50.197499 288.435644 
L 50.197499 283.405941 
L 50.382569 283.405941 
L 50.490984 273.346535 
L 50.730369 273.346535 
L 50.730369 268.316832 
L 59.337673 268.316832 
L 59.337673 263.287129 
L 60.301967 263.287129 
L 60.301967 258.257426 
L 60.532609 258.257426 
L 60.559377 248.19802 
L 60.951802 248.19802 
L 60.951802 243.168317 
L 61.184666 243.168317 
L 61.184666 238.138614 
L 61.311208 238.138614 
L 61.311208 233.108911 
L 61.820488 233.108911 
L 61.820488 228.079208 
L 61.969958 228.079208 
L 61.969958 223.049505 
L 63.003919 223.049505 
L 63.078778 212.990099 
L 63.238051 212.990099 
L 63.238051 207.960396 
L 63.666198 207.960396 
L 63.666198 202.930693 
L 63.876879 202.930693 
L 63.876879 197.90099 
L 69.205773 197.90099 
L 69.205773 192.871287 
L 86.648526 192.871287 
L 86.648526 187.841584 
L 167.24874 187.841584 
L 167.24874 182.811881 
L 171.369466 182.811881 
L 171.369466 177.782178 
L 189.607219 177.782178 
L 189.607246 167.722772 
L 202.458278 167.722772 
L 202.458278 162.693069 
L 215.178597 162.693069 
L 215.178597 157.663366 
L 226.677165 157.663366 
L 226.677165 152.633663 
L 231.811576 152.633663 
L 231.811576 147.60396 
L 233.194737 147.60396 
L 233.194737 142.574257 
L 233.967622 142.574257 
L 233.967622 137.544554 
L 236.95167 137.544554 
L 236.95167 132.514851 
L 240.706218 132.514851 
L 240.706218 127.485149 
L 241.882182 127.485149 
L 241.882182 122.455446 
L 242.452047 122.455446 
L 242.452047 117.425743 
L 242.575665 117.425743 
L 242.575665 112.39604 
L 244.015108 112.39604 
L 244.015108 107.366337 
L 247.237487 107.366337 
L 247.237487 102.336634 
L 249.370716 102.336634 
L 249.370716 97.306931 
L 250.995108 97.306931 
L 250.995108 92.277228 
L 259.389959 92.277228 
L 259.389959 87.247525 
L 260.89816 87.247525 
L 260.89816 82.217822 
L 268.375889 82.217822 
L 268.375889 77.188119 
L 278.369792 77.188119 
L 278.369792 57.069307 
L 284.21585 57.069307 
L 284.21585 36.950495 
L 288.363695 36.950495 
L 288.363695 21.861386 
L 291.581013 21.861386 
L 291.581013 11.80198 
L 298.357598 11.80198 
L 298.357598 6.772277 
L 298.357598 6.772277 
L 567.24 6.772277 
L 567.24 6.772277 
" style="fill:none;stroke:#00bfbf;stroke-linecap:square;"/>
   </g>
   <g id="line2d_9">
    <path clip-path="url(#pba9ba8591e)" d="M -1 343.762376 
L 3.577788 343.762376 
L 3.577788 338.732673 
L 5.092415 338.732673 
L 5.092415 333.70297 
L 5.833706 333.70297 
L 5.833706 328.673267 
L 9.582937 328.673267 
L 9.582937 323.643564 
L 45.860473 323.643564 
L 45.860473 318.613861 
L 46.144034 318.613861 
L 46.152513 308.554455 
L 46.648717 308.554455 
L 46.648717 303.524752 
L 46.762385 303.524752 
L 46.762385 298.49505 
L 47.07618 298.49505 
L 47.07618 293.465347 
L 47.332603 293.465347 
L 47.384179 278.376238 
L 47.655222 278.376238 
L 47.655222 273.346535 
L 47.944795 273.346535 
L 48.047143 263.287129 
L 48.195609 263.287129 
L 48.297896 253.227723 
L 48.378043 253.227723 
L 48.378043 248.19802 
L 58.549206 248.19802 
L 58.549206 243.168317 
L 59.012183 243.168317 
L 59.012183 238.138614 
L 59.218776 238.138614 
L 59.295265 223.049505 
L 59.337673 223.049505 
L 59.337673 218.019802 
L 59.65534 218.019802 
L 59.763474 207.960396 
L 59.920394 207.960396 
L 59.967347 197.90099 
L 60.201213 197.90099 
L 60.201213 192.871287 
L 60.559377 192.871287 
L 60.565704 182.811881 
L 60.903607 182.811881 
L 60.903607 177.782178 
L 85.065517 177.782178 
L 85.065517 172.752475 
L 167.248707 172.752475 
L 167.248707 167.722772 
L 171.369426 167.722772 
L 171.369426 162.693069 
L 189.607202 162.693069 
L 189.607202 152.633663 
L 202.458278 152.633663 
L 202.458278 147.60396 
L 215.178592 147.60396 
L 215.178592 142.574257 
L 222.121971 142.574257 
L 222.121971 137.544554 
L 223.663471 137.544554 
L 223.663471 132.514851 
L 223.874025 132.514851 
L 223.874025 127.485149 
L 224.376595 127.485149 
L 224.376595 122.455446 
L 226.222054 122.455446 
L 226.222054 117.425743 
L 229.573591 117.425743 
L 229.573591 112.39604 
L 230.52993 112.39604 
L 230.52993 107.366337 
L 231.461341 107.366337 
L 231.461341 102.336634 
L 232.327351 102.336634 
L 232.327351 97.306931 
L 234.091134 97.306931 
L 234.091134 92.277228 
L 236.833084 92.277228 
L 236.833084 87.247525 
L 239.335667 87.247525 
L 239.335667 82.217822 
L 240.277945 82.217822 
L 240.277945 77.188119 
L 241.969294 77.188119 
L 241.969294 72.158416 
L 244.542966 72.158416 
L 244.542966 67.128713 
L 268.375889 67.128713 
L 268.375889 36.950495 
L 269.175593 36.950495 
L 269.175593 31.920792 
L 278.369792 31.920792 
L 278.369792 11.80198 
L 284.21585 11.80198 
L 284.21585 6.772277 
L 284.21585 6.772277 
L 567.24 6.772277 
L 567.24 6.772277 
" style="fill:none;stroke:#bf00bf;stroke-linecap:square;"/>
   </g>
   <g id="patch_3">
    <path d="M 3 3 
L 567.24 3 
" style="fill:none;stroke:#000000;stroke-linecap:square;stroke-linejoin:miter;"/>
   </g>
   <g id="patch_4">
    <path d="M 567.24 384 
L 567.24 3 
" style="fill:none;stroke:#000000;stroke-linecap:square;stroke-linejoin:miter;"/>
   </g>
   <g id="patch_5">
    <path d="M 3 384 
L 567.24 384 
" style="fill:none;stroke:#000000;stroke-linecap:square;stroke-linejoin:miter;"/>
   </g>
   <g id="patch_6">
    <path d="M 3 384 
L 3 3 
" style="fill:none;stroke:#000000;stroke-linecap:square;stroke-linejoin:miter;"/>
   </g>
   <g id="matplotlib.axis_1">
    <g id="xtick_1"/>
    <g id="xtick_2">
     <g id="line2d_10">
      <path clip-path="url(#pba9ba8591e)" d="M 69.254589 384 
L 69.254589 3 
" style="fill:none;stroke:#000000;stroke-dasharray:1.000000,3.000000;stroke-dashoffset:0.0;stroke-width:0.5;"/>
     </g>
     <g id="line2d_11">
      <defs>
       <path d="M 0 0 
L 0 -4 
" id="mbda953a6a6" style="stroke:#000000;stroke-width:0.5;"/>
      </defs>
      <g>
       <use style="stroke:#000000;stroke-width:0.5;" x="69.25458934719217" xlink:href="#mbda953a6a6" y="384.0"/>
      </g>
     </g>
     <g id="line2d_12">
      <defs>
       <path d="M 0 0 
L 0 4 
" id="md3df1d5b9c" style="stroke:#000000;stroke-width:0.5;"/>
      </defs>
      <g>
       <use style="stroke:#000000;stroke-width:0.5;" x="69.25458934719217" xlink:href="#md3df1d5b9c" y="3.0"/>
      </g>
     </g>
     <g id="text_1">
      <!-- -6 -->
      <defs>
       <path d="M 33.015625 40.375 
Q 26.375 40.375 22.484375 35.828125 
Q 18.609375 31.296875 18.609375 23.390625 
Q 18.609375 15.53125 22.484375 10.953125 
Q 26.375 6.390625 33.015625 6.390625 
Q 39.65625 6.390625 43.53125 10.953125 
Q 47.40625 15.53125 47.40625 23.390625 
Q 47.40625 31.296875 43.53125 35.828125 
Q 39.65625 40.375 33.015625 40.375 
M 52.59375 71.296875 
L 52.59375 62.3125 
Q 48.875 64.0625 45.09375 64.984375 
Q 41.3125 65.921875 37.59375 65.921875 
Q 27.828125 65.921875 22.671875 59.328125 
Q 17.53125 52.734375 16.796875 39.40625 
Q 19.671875 43.65625 24.015625 45.921875 
Q 28.375 48.1875 33.59375 48.1875 
Q 44.578125 48.1875 50.953125 41.515625 
Q 57.328125 34.859375 57.328125 23.390625 
Q 57.328125 12.15625 50.6875 5.359375 
Q 44.046875 -1.421875 33.015625 -1.421875 
Q 20.359375 -1.421875 13.671875 8.265625 
Q 6.984375 17.96875 6.984375 36.375 
Q 6.984375 53.65625 15.1875 63.9375 
Q 23.390625 74.21875 37.203125 74.21875 
Q 40.921875 74.21875 44.703125 73.484375 
Q 48.484375 72.75 52.59375 71.296875 
" id="BitstreamVeraSans-Roman-36"/>
       <path d="M 4.890625 31.390625 
L 31.203125 31.390625 
L 31.203125 23.390625 
L 4.890625 23.390625 
z
" id="BitstreamVeraSans-Roman-2d"/>
      </defs>
      <g transform="translate(59.28427684719217 403.196875)scale(0.2 -0.2)">
       <use xlink:href="#BitstreamVeraSans-Roman-2d"/>
       <use x="36.083984375" xlink:href="#BitstreamVeraSans-Roman-36"/>
      </g>
     </g>
    </g>
    <g id="xtick_3">
     <g id="line2d_13">
      <path clip-path="url(#pba9ba8591e)" d="M 135.652644 384 
L 135.652644 3 
" style="fill:none;stroke:#000000;stroke-dasharray:1.000000,3.000000;stroke-dashoffset:0.0;stroke-width:0.5;"/>
     </g>
     <g id="line2d_14">
      <g>
       <use style="stroke:#000000;stroke-width:0.5;" x="135.65264410089986" xlink:href="#mbda953a6a6" y="384.0"/>
      </g>
     </g>
     <g id="line2d_15">
      <g>
       <use style="stroke:#000000;stroke-width:0.5;" x="135.65264410089986" xlink:href="#md3df1d5b9c" y="3.0"/>
      </g>
     </g>
     <g id="text_2">
      <!-- -4 -->
      <defs>
       <path d="M 37.796875 64.3125 
L 12.890625 25.390625 
L 37.796875 25.390625 
z
M 35.203125 72.90625 
L 47.609375 72.90625 
L 47.609375 25.390625 
L 58.015625 25.390625 
L 58.015625 17.1875 
L 47.609375 17.1875 
L 47.609375 0 
L 37.796875 0 
L 37.796875 17.1875 
L 4.890625 17.1875 
L 4.890625 26.703125 
z
" id="BitstreamVeraSans-Roman-34"/>
      </defs>
      <g transform="translate(125.68233160089986 403.196875)scale(0.2 -0.2)">
       <use xlink:href="#BitstreamVeraSans-Roman-2d"/>
       <use x="36.083984375" xlink:href="#BitstreamVeraSans-Roman-34"/>
      </g>
     </g>
    </g>
    <g id="xtick_4">
     <g id="line2d_16">
      <path clip-path="url(#pba9ba8591e)" d="M 202.050699 384 
L 202.050699 3 
" style="fill:none;stroke:#000000;stroke-dasharray:1.000000,3.000000;stroke-dashoffset:0.0;stroke-width:0.5;"/>
     </g>
     <g id="line2d_17">
      <g>
       <use style="stroke:#000000;stroke-width:0.5;" x="202.0506988546076" xlink:href="#mbda953a6a6" y="384.0"/>
      </g>
     </g>
     <g id="line2d_18">
      <g>
       <use style="stroke:#000000;stroke-width:0.5;" x="202.0506988546076" xlink:href="#md3df1d5b9c" y="3.0"/>
      </g>
     </g>
     <g id="text_3">
      <!-- -2 -->
      <defs>
       <path d="M 19.1875 8.296875 
L 53.609375 8.296875 
L 53.609375 0 
L 7.328125 0 
L 7.328125 8.296875 
Q 12.9375 14.109375 22.625 23.890625 
Q 32.328125 33.6875 34.8125 36.53125 
Q 39.546875 41.84375 41.421875 45.53125 
Q 43.3125 49.21875 43.3125 52.78125 
Q 43.3125 58.59375 39.234375 62.25 
Q 35.15625 65.921875 28.609375 65.921875 
Q 23.96875 65.921875 18.8125 64.3125 
Q 13.671875 62.703125 7.8125 59.421875 
L 7.8125 69.390625 
Q 13.765625 71.78125 18.9375 73 
Q 24.125 74.21875 28.421875 74.21875 
Q 39.75 74.21875 46.484375 68.546875 
Q 53.21875 62.890625 53.21875 53.421875 
Q 53.21875 48.921875 51.53125 44.890625 
Q 49.859375 40.875 45.40625 35.40625 
Q 44.1875 33.984375 37.640625 27.21875 
Q 31.109375 20.453125 19.1875 8.296875 
" id="BitstreamVeraSans-Roman-32"/>
      </defs>
      <g transform="translate(192.08038635460758 403.196875)scale(0.2 -0.2)">
       <use xlink:href="#BitstreamVeraSans-Roman-2d"/>
       <use x="36.083984375" xlink:href="#BitstreamVeraSans-Roman-32"/>
      </g>
     </g>
    </g>
    <g id="xtick_5">
     <g id="line2d_19">
      <path clip-path="url(#pba9ba8591e)" d="M 268.448754 384 
L 268.448754 3 
" style="fill:none;stroke:#000000;stroke-dasharray:1.000000,3.000000;stroke-dashoffset:0.0;stroke-width:0.5;"/>
     </g>
     <g id="line2d_20">
      <g>
       <use style="stroke:#000000;stroke-width:0.5;" x="268.4487536083153" xlink:href="#mbda953a6a6" y="384.0"/>
      </g>
     </g>
     <g id="line2d_21">
      <g>
       <use style="stroke:#000000;stroke-width:0.5;" x="268.4487536083153" xlink:href="#md3df1d5b9c" y="3.0"/>
      </g>
     </g>
     <g id="text_4">
      <!-- 0 -->
      <defs>
       <path d="M 31.78125 66.40625 
Q 24.171875 66.40625 20.328125 58.90625 
Q 16.5 51.421875 16.5 36.375 
Q 16.5 21.390625 20.328125 13.890625 
Q 24.171875 6.390625 31.78125 6.390625 
Q 39.453125 6.390625 43.28125 13.890625 
Q 47.125 21.390625 47.125 36.375 
Q 47.125 51.421875 43.28125 58.90625 
Q 39.453125 66.40625 31.78125 66.40625 
M 31.78125 74.21875 
Q 44.046875 74.21875 50.515625 64.515625 
Q 56.984375 54.828125 56.984375 36.375 
Q 56.984375 17.96875 50.515625 8.265625 
Q 44.046875 -1.421875 31.78125 -1.421875 
Q 19.53125 -1.421875 13.0625 8.265625 
Q 6.59375 17.96875 6.59375 36.375 
Q 6.59375 54.828125 13.0625 64.515625 
Q 19.53125 74.21875 31.78125 74.21875 
" id="BitstreamVeraSans-Roman-30"/>
      </defs>
      <g transform="translate(262.0862536083153 403.196875)scale(0.2 -0.2)">
       <use xlink:href="#BitstreamVeraSans-Roman-30"/>
      </g>
     </g>
    </g>
    <g id="xtick_6">
     <g id="line2d_22">
      <path clip-path="url(#pba9ba8591e)" d="M 334.846808 384 
L 334.846808 3 
" style="fill:none;stroke:#000000;stroke-dasharray:1.000000,3.000000;stroke-dashoffset:0.0;stroke-width:0.5;"/>
     </g>
     <g id="line2d_23">
      <g>
       <use style="stroke:#000000;stroke-width:0.5;" x="334.846808362023" xlink:href="#mbda953a6a6" y="384.0"/>
      </g>
     </g>
     <g id="line2d_24">
      <g>
       <use style="stroke:#000000;stroke-width:0.5;" x="334.846808362023" xlink:href="#md3df1d5b9c" y="3.0"/>
      </g>
     </g>
     <g id="text_5">
      <!-- 2 -->
      <g transform="translate(328.484308362023 403.196875)scale(0.2 -0.2)">
       <use xlink:href="#BitstreamVeraSans-Roman-32"/>
      </g>
     </g>
    </g>
    <g id="xtick_7">
     <g id="line2d_25">
      <path clip-path="url(#pba9ba8591e)" d="M 401.244863 384 
L 401.244863 3 
" style="fill:none;stroke:#000000;stroke-dasharray:1.000000,3.000000;stroke-dashoffset:0.0;stroke-width:0.5;"/>
     </g>
     <g id="line2d_26">
      <g>
       <use style="stroke:#000000;stroke-width:0.5;" x="401.2448631157307" xlink:href="#mbda953a6a6" y="384.0"/>
      </g>
     </g>
     <g id="line2d_27">
      <g>
       <use style="stroke:#000000;stroke-width:0.5;" x="401.2448631157307" xlink:href="#md3df1d5b9c" y="3.0"/>
      </g>
     </g>
     <g id="text_6">
      <!-- 4 -->
      <g transform="translate(394.8823631157307 403.196875)scale(0.2 -0.2)">
       <use xlink:href="#BitstreamVeraSans-Roman-34"/>
      </g>
     </g>
    </g>
    <g id="xtick_8">
     <g id="line2d_28">
      <path clip-path="url(#pba9ba8591e)" d="M 467.642918 384 
L 467.642918 3 
" style="fill:none;stroke:#000000;stroke-dasharray:1.000000,3.000000;stroke-dashoffset:0.0;stroke-width:0.5;"/>
     </g>
     <g id="line2d_29">
      <g>
       <use style="stroke:#000000;stroke-width:0.5;" x="467.6429178694384" xlink:href="#mbda953a6a6" y="384.0"/>
      </g>
     </g>
     <g id="line2d_30">
      <g>
       <use style="stroke:#000000;stroke-width:0.5;" x="467.6429178694384" xlink:href="#md3df1d5b9c" y="3.0"/>
      </g>
     </g>
     <g id="text_7">
      <!-- 6 -->
      <g transform="translate(461.2804178694384 403.196875)scale(0.2 -0.2)">
       <use xlink:href="#BitstreamVeraSans-Roman-36"/>
      </g>
     </g>
    </g>
    <g id="xtick_9">
     <g id="line2d_31">
      <path clip-path="url(#pba9ba8591e)" d="M 534.040973 384 
L 534.040973 3 
" style="fill:none;stroke:#000000;stroke-dasharray:1.000000,3.000000;stroke-dashoffset:0.0;stroke-width:0.5;"/>
     </g>
     <g id="line2d_32">
      <g>
       <use style="stroke:#000000;stroke-width:0.5;" x="534.0409726231461" xlink:href="#mbda953a6a6" y="384.0"/>
      </g>
     </g>
     <g id="line2d_33">
      <g>
       <use style="stroke:#000000;stroke-width:0.5;" x="534.0409726231461" xlink:href="#md3df1d5b9c" y="3.0"/>
      </g>
     </g>
     <g id="text_8">
      <!-- 8 -->
      <defs>
       <path d="M 31.78125 34.625 
Q 24.75 34.625 20.71875 30.859375 
Q 16.703125 27.09375 16.703125 20.515625 
Q 16.703125 13.921875 20.71875 10.15625 
Q 24.75 6.390625 31.78125 6.390625 
Q 38.8125 6.390625 42.859375 10.171875 
Q 46.921875 13.96875 46.921875 20.515625 
Q 46.921875 27.09375 42.890625 30.859375 
Q 38.875 34.625 31.78125 34.625 
M 21.921875 38.8125 
Q 15.578125 40.375 12.03125 44.71875 
Q 8.5 49.078125 8.5 55.328125 
Q 8.5 64.0625 14.71875 69.140625 
Q 20.953125 74.21875 31.78125 74.21875 
Q 42.671875 74.21875 48.875 69.140625 
Q 55.078125 64.0625 55.078125 55.328125 
Q 55.078125 49.078125 51.53125 44.71875 
Q 48 40.375 41.703125 38.8125 
Q 48.828125 37.15625 52.796875 32.3125 
Q 56.78125 27.484375 56.78125 20.515625 
Q 56.78125 9.90625 50.3125 4.234375 
Q 43.84375 -1.421875 31.78125 -1.421875 
Q 19.734375 -1.421875 13.25 4.234375 
Q 6.78125 9.90625 6.78125 20.515625 
Q 6.78125 27.484375 10.78125 32.3125 
Q 14.796875 37.15625 21.921875 38.8125 
M 18.3125 54.390625 
Q 18.3125 48.734375 21.84375 45.5625 
Q 25.390625 42.390625 31.78125 42.390625 
Q 38.140625 42.390625 41.71875 45.5625 
Q 45.3125 48.734375 45.3125 54.390625 
Q 45.3125 60.0625 41.71875 63.234375 
Q 38.140625 66.40625 31.78125 66.40625 
Q 25.390625 66.40625 21.84375 63.234375 
Q 18.3125 60.0625 18.3125 54.390625 
" id="BitstreamVeraSans-Roman-38"/>
      </defs>
      <g transform="translate(527.6784726231461 403.196875)scale(0.2 -0.2)">
       <use xlink:href="#BitstreamVeraSans-Roman-38"/>
      </g>
     </g>
    </g>
    <g id="xtick_10"/>
    <g id="xtick_11">
     <g id="line2d_34">
      <defs>
       <path d="M 0 0 
L 0 -2 
" id="m74f51bc70a" style="stroke:#000000;stroke-width:0.5;"/>
      </defs>
      <g>
       <use style="stroke:#000000;stroke-width:0.5;" x="69.25458934719217" xlink:href="#m74f51bc70a" y="384.0"/>
      </g>
     </g>
     <g id="line2d_35">
      <defs>
       <path d="M 0 0 
L 0 2 
" id="mf8633c6528" style="stroke:#000000;stroke-width:0.5;"/>
      </defs>
      <g>
       <use style="stroke:#000000;stroke-width:0.5;" x="69.25458934719217" xlink:href="#mf8633c6528" y="3.0"/>
      </g>
     </g>
    </g>
    <g id="xtick_12">
     <g id="line2d_36">
      <g>
       <use style="stroke:#000000;stroke-width:0.5;" x="135.65264410089986" xlink:href="#m74f51bc70a" y="384.0"/>
      </g>
     </g>
     <g id="line2d_37">
      <g>
       <use style="stroke:#000000;stroke-width:0.5;" x="135.65264410089986" xlink:href="#mf8633c6528" y="3.0"/>
      </g>
     </g>
    </g>
    <g id="xtick_13">
     <g id="line2d_38">
      <g>
       <use style="stroke:#000000;stroke-width:0.5;" x="202.0506988546076" xlink:href="#m74f51bc70a" y="384.0"/>
      </g>
     </g>
     <g id="line2d_39">
      <g>
       <use style="stroke:#000000;stroke-width:0.5;" x="202.0506988546076" xlink:href="#mf8633c6528" y="3.0"/>
      </g>
     </g>
    </g>
    <g id="xtick_14">
     <g id="line2d_40">
      <g>
       <use style="stroke:#000000;stroke-width:0.5;" x="268.4487536083153" xlink:href="#m74f51bc70a" y="384.0"/>
      </g>
     </g>
     <g id="line2d_41">
      <g>
       <use style="stroke:#000000;stroke-width:0.5;" x="268.4487536083153" xlink:href="#mf8633c6528" y="3.0"/>
      </g>
     </g>
    </g>
    <g id="xtick_15">
     <g id="line2d_42">
      <g>
       <use style="stroke:#000000;stroke-width:0.5;" x="334.846808362023" xlink:href="#m74f51bc70a" y="384.0"/>
      </g>
     </g>
     <g id="line2d_43">
      <g>
       <use style="stroke:#000000;stroke-width:0.5;" x="334.846808362023" xlink:href="#mf8633c6528" y="3.0"/>
      </g>
     </g>
    </g>
    <g id="xtick_16">
     <g id="line2d_44">
      <g>
       <use style="stroke:#000000;stroke-width:0.5;" x="401.2448631157307" xlink:href="#m74f51bc70a" y="384.0"/>
      </g>
     </g>
     <g id="line2d_45">
      <g>
       <use style="stroke:#000000;stroke-width:0.5;" x="401.2448631157307" xlink:href="#mf8633c6528" y="3.0"/>
      </g>
     </g>
    </g>
    <g id="xtick_17">
     <g id="line2d_46">
      <g>
       <use style="stroke:#000000;stroke-width:0.5;" x="467.6429178694384" xlink:href="#m74f51bc70a" y="384.0"/>
      </g>
     </g>
     <g id="line2d_47">
      <g>
       <use style="stroke:#000000;stroke-width:0.5;" x="467.6429178694384" xlink:href="#mf8633c6528" y="3.0"/>
      </g>
     </g>
    </g>
    <g id="xtick_18">
     <g id="line2d_48">
      <g>
       <use style="stroke:#000000;stroke-width:0.5;" x="534.0409726231461" xlink:href="#m74f51bc70a" y="384.0"/>
      </g>
     </g>
     <g id="line2d_49">
      <g>
       <use style="stroke:#000000;stroke-width:0.5;" x="534.0409726231461" xlink:href="#mf8633c6528" y="3.0"/>
      </g>
     </g>
    </g>
    <g id="text_9">
     <!-- log10 of Df -->
     <defs>
      <path id="BitstreamVeraSans-Roman-20"/>
      <path d="M 12.40625 8.296875 
L 28.515625 8.296875 
L 28.515625 63.921875 
L 10.984375 60.40625 
L 10.984375 69.390625 
L 28.421875 72.90625 
L 38.28125 72.90625 
L 38.28125 8.296875 
L 54.390625 8.296875 
L 54.390625 0 
L 12.40625 0 
z
" id="BitstreamVeraSans-Roman-31"/>
      <path d="M 30.609375 48.390625 
Q 23.390625 48.390625 19.1875 42.75 
Q 14.984375 37.109375 14.984375 27.296875 
Q 14.984375 17.484375 19.15625 11.84375 
Q 23.34375 6.203125 30.609375 6.203125 
Q 37.796875 6.203125 41.984375 11.859375 
Q 46.1875 17.53125 46.1875 27.296875 
Q 46.1875 37.015625 41.984375 42.703125 
Q 37.796875 48.390625 30.609375 48.390625 
M 30.609375 56 
Q 42.328125 56 49.015625 48.375 
Q 55.71875 40.765625 55.71875 27.296875 
Q 55.71875 13.875 49.015625 6.21875 
Q 42.328125 -1.421875 30.609375 -1.421875 
Q 18.84375 -1.421875 12.171875 6.21875 
Q 5.515625 13.875 5.515625 27.296875 
Q 5.515625 40.765625 12.171875 48.375 
Q 18.84375 56 30.609375 56 
" id="BitstreamVeraSans-Roman-6f"/>
      <path d="M 9.421875 75.984375 
L 18.40625 75.984375 
L 18.40625 0 
L 9.421875 0 
z
" id="BitstreamVeraSans-Roman-6c"/>
      <path d="M 19.671875 64.796875 
L 19.671875 8.109375 
L 31.59375 8.109375 
Q 46.6875 8.109375 53.6875 14.9375 
Q 60.6875 21.78125 60.6875 36.53125 
Q 60.6875 51.171875 53.6875 57.984375 
Q 46.6875 64.796875 31.59375 64.796875 
z
M 9.8125 72.90625 
L 30.078125 72.90625 
Q 51.265625 72.90625 61.171875 64.09375 
Q 71.09375 55.28125 71.09375 36.53125 
Q 71.09375 17.671875 61.125 8.828125 
Q 51.171875 0 30.078125 0 
L 9.8125 0 
z
" id="BitstreamVeraSans-Roman-44"/>
      <path d="M 45.40625 27.984375 
Q 45.40625 37.75 41.375 43.109375 
Q 37.359375 48.484375 30.078125 48.484375 
Q 22.859375 48.484375 18.828125 43.109375 
Q 14.796875 37.75 14.796875 27.984375 
Q 14.796875 18.265625 18.828125 12.890625 
Q 22.859375 7.515625 30.078125 7.515625 
Q 37.359375 7.515625 41.375 12.890625 
Q 45.40625 18.265625 45.40625 27.984375 
M 54.390625 6.78125 
Q 54.390625 -7.171875 48.1875 -13.984375 
Q 42 -20.796875 29.203125 -20.796875 
Q 24.46875 -20.796875 20.265625 -20.09375 
Q 16.0625 -19.390625 12.109375 -17.921875 
L 12.109375 -9.1875 
Q 16.0625 -11.328125 19.921875 -12.34375 
Q 23.78125 -13.375 27.78125 -13.375 
Q 36.625 -13.375 41.015625 -8.765625 
Q 45.40625 -4.15625 45.40625 5.171875 
L 45.40625 9.625 
Q 42.625 4.78125 38.28125 2.390625 
Q 33.9375 0 27.875 0 
Q 17.828125 0 11.671875 7.65625 
Q 5.515625 15.328125 5.515625 27.984375 
Q 5.515625 40.671875 11.671875 48.328125 
Q 17.828125 56 27.875 56 
Q 33.9375 56 38.28125 53.609375 
Q 42.625 51.21875 45.40625 46.390625 
L 45.40625 54.6875 
L 54.390625 54.6875 
z
" id="BitstreamVeraSans-Roman-67"/>
      <path d="M 37.109375 75.984375 
L 37.109375 68.5 
L 28.515625 68.5 
Q 23.6875 68.5 21.796875 66.546875 
Q 19.921875 64.59375 19.921875 59.515625 
L 19.921875 54.6875 
L 34.71875 54.6875 
L 34.71875 47.703125 
L 19.921875 47.703125 
L 19.921875 0 
L 10.890625 0 
L 10.890625 47.703125 
L 2.296875 47.703125 
L 2.296875 54.6875 
L 10.890625 54.6875 
L 10.890625 58.5 
Q 10.890625 67.625 15.140625 71.796875 
Q 19.390625 75.984375 28.609375 75.984375 
z
" id="BitstreamVeraSans-Roman-66"/>
     </defs>
     <g transform="translate(229.9340625 427.55312499999997)scale(0.2 -0.2)">
      <use xlink:href="#BitstreamVeraSans-Roman-6c"/>
      <use x="27.783203125" xlink:href="#BitstreamVeraSans-Roman-6f"/>
      <use x="88.96484375" xlink:href="#BitstreamVeraSans-Roman-67"/>
      <use x="152.44140625" xlink:href="#BitstreamVeraSans-Roman-31"/>
      <use x="216.064453125" xlink:href="#BitstreamVeraSans-Roman-30"/>
      <use x="279.6875" xlink:href="#BitstreamVeraSans-Roman-20"/>
      <use x="311.474609375" xlink:href="#BitstreamVeraSans-Roman-6f"/>
      <use x="372.65625" xlink:href="#BitstreamVeraSans-Roman-66"/>
      <use x="407.861328125" xlink:href="#BitstreamVeraSans-Roman-20"/>
      <use x="439.6484375" xlink:href="#BitstreamVeraSans-Roman-44"/>
      <use x="516.650390625" xlink:href="#BitstreamVeraSans-Roman-66"/>
     </g>
    </g>
   </g>
   <g id="matplotlib.axis_2">
    <g id="ytick_1">
     <g id="line2d_50">
      <path clip-path="url(#pba9ba8591e)" d="M 3 384 
L 567.24 384 
" style="fill:none;stroke:#000000;stroke-dasharray:1.000000,3.000000;stroke-dashoffset:0.0;stroke-width:0.5;"/>
     </g>
     <g id="line2d_51">
      <defs>
       <path d="M 0 0 
L 4 0 
" id="m55be04da61" style="stroke:#000000;stroke-width:0.5;"/>
      </defs>
      <g>
       <use style="stroke:#000000;stroke-width:0.5;" x="3.0" xlink:href="#m55be04da61" y="384.0"/>
      </g>
     </g>
     <g id="line2d_52">
      <defs>
       <path d="M 0 0 
L -4 0 
" id="mf4b9d3014b" style="stroke:#000000;stroke-width:0.5;"/>
      </defs>
      <g>
       <use style="stroke:#000000;stroke-width:0.5;" x="567.24" xlink:href="#mf4b9d3014b" y="384.0"/>
      </g>
     </g>
    </g>
    <g id="ytick_2">
     <g id="line2d_53">
      <path clip-path="url(#pba9ba8591e)" d="M 3 308.554455 
L 567.24 308.554455 
" style="fill:none;stroke:#000000;stroke-dasharray:1.000000,3.000000;stroke-dashoffset:0.0;stroke-width:0.5;"/>
     </g>
     <g id="line2d_54">
      <g>
       <use style="stroke:#000000;stroke-width:0.5;" x="3.0" xlink:href="#m55be04da61" y="308.55445544554453"/>
      </g>
     </g>
     <g id="line2d_55">
      <g>
       <use style="stroke:#000000;stroke-width:0.5;" x="567.24" xlink:href="#mf4b9d3014b" y="308.55445544554453"/>
      </g>
     </g>
    </g>
    <g id="ytick_3">
     <g id="line2d_56">
      <path clip-path="url(#pba9ba8591e)" d="M 3 233.108911 
L 567.24 233.108911 
" style="fill:none;stroke:#000000;stroke-dasharray:1.000000,3.000000;stroke-dashoffset:0.0;stroke-width:0.5;"/>
     </g>
     <g id="line2d_57">
      <g>
       <use style="stroke:#000000;stroke-width:0.5;" x="3.0" xlink:href="#m55be04da61" y="233.1089108910891"/>
      </g>
     </g>
     <g id="line2d_58">
      <g>
       <use style="stroke:#000000;stroke-width:0.5;" x="567.24" xlink:href="#mf4b9d3014b" y="233.1089108910891"/>
      </g>
     </g>
    </g>
    <g id="ytick_4">
     <g id="line2d_59">
      <path clip-path="url(#pba9ba8591e)" d="M 3 157.663366 
L 567.24 157.663366 
" style="fill:none;stroke:#000000;stroke-dasharray:1.000000,3.000000;stroke-dashoffset:0.0;stroke-width:0.5;"/>
     </g>
     <g id="line2d_60">
      <g>
       <use style="stroke:#000000;stroke-width:0.5;" x="3.0" xlink:href="#m55be04da61" y="157.66336633663363"/>
      </g>
     </g>
     <g id="line2d_61">
      <g>
       <use style="stroke:#000000;stroke-width:0.5;" x="567.24" xlink:href="#mf4b9d3014b" y="157.66336633663363"/>
      </g>
     </g>
    </g>
    <g id="ytick_5">
     <g id="line2d_62">
      <path clip-path="url(#pba9ba8591e)" d="M 3 82.217822 
L 567.24 82.217822 
" style="fill:none;stroke:#000000;stroke-dasharray:1.000000,3.000000;stroke-dashoffset:0.0;stroke-width:0.5;"/>
     </g>
     <g id="line2d_63">
      <g>
       <use style="stroke:#000000;stroke-width:0.5;" x="3.0" xlink:href="#m55be04da61" y="82.21782178217819"/>
      </g>
     </g>
     <g id="line2d_64">
      <g>
       <use style="stroke:#000000;stroke-width:0.5;" x="567.24" xlink:href="#mf4b9d3014b" y="82.21782178217819"/>
      </g>
     </g>
    </g>
    <g id="ytick_6">
     <g id="line2d_65">
      <path clip-path="url(#pba9ba8591e)" d="M 3 6.772277 
L 567.24 6.772277 
" style="fill:none;stroke:#000000;stroke-dasharray:1.000000,3.000000;stroke-dashoffset:0.0;stroke-width:0.5;"/>
     </g>
     <g id="line2d_66">
      <g>
       <use style="stroke:#000000;stroke-width:0.5;" x="3.0" xlink:href="#m55be04da61" y="6.772277227722782"/>
      </g>
     </g>
     <g id="line2d_67">
      <g>
       <use style="stroke:#000000;stroke-width:0.5;" x="567.24" xlink:href="#mf4b9d3014b" y="6.772277227722782"/>
      </g>
     </g>
    </g>
   </g>
   <g id="text_10">
    <!-- {f15-f19}, 20-D -->
    <defs>
     <path d="M 12.5 -9.28125 
L 15.921875 -9.28125 
Q 22.75 -9.28125 24.828125 -7.171875 
Q 26.90625 -5.078125 26.90625 1.90625 
L 26.90625 14.015625 
Q 26.90625 21.625 29.09375 25.09375 
Q 31.296875 28.5625 36.71875 29.890625 
Q 31.296875 31.109375 29.09375 34.5625 
Q 26.90625 38.03125 26.90625 45.703125 
L 26.90625 57.8125 
Q 26.90625 64.75 24.828125 66.875 
Q 22.75 69 15.921875 69 
L 12.5 69 
L 12.5 75.984375 
L 15.578125 75.984375 
Q 27.734375 75.984375 31.8125 72.390625 
Q 35.890625 68.796875 35.890625 58.015625 
L 35.890625 46.296875 
Q 35.890625 39.015625 38.515625 36.203125 
Q 41.15625 33.40625 48.09375 33.40625 
L 51.125 33.40625 
L 51.125 26.421875 
L 48.09375 26.421875 
Q 41.15625 26.421875 38.515625 23.578125 
Q 35.890625 20.75 35.890625 13.375 
L 35.890625 1.703125 
Q 35.890625 -9.078125 31.8125 -12.6875 
Q 27.734375 -16.3125 15.578125 -16.3125 
L 12.5 -16.3125 
z
" id="BitstreamVeraSans-Roman-7d"/>
     <path d="M 10.984375 1.515625 
L 10.984375 10.5 
Q 14.703125 8.734375 18.5 7.8125 
Q 22.3125 6.890625 25.984375 6.890625 
Q 35.75 6.890625 40.890625 13.453125 
Q 46.046875 20.015625 46.78125 33.40625 
Q 43.953125 29.203125 39.59375 26.953125 
Q 35.25 24.703125 29.984375 24.703125 
Q 19.046875 24.703125 12.671875 31.3125 
Q 6.296875 37.9375 6.296875 49.421875 
Q 6.296875 60.640625 12.9375 67.421875 
Q 19.578125 74.21875 30.609375 74.21875 
Q 43.265625 74.21875 49.921875 64.515625 
Q 56.59375 54.828125 56.59375 36.375 
Q 56.59375 19.140625 48.40625 8.859375 
Q 40.234375 -1.421875 26.421875 -1.421875 
Q 22.703125 -1.421875 18.890625 -0.6875 
Q 15.09375 0.046875 10.984375 1.515625 
M 30.609375 32.421875 
Q 37.25 32.421875 41.125 36.953125 
Q 45.015625 41.5 45.015625 49.421875 
Q 45.015625 57.28125 41.125 61.84375 
Q 37.25 66.40625 30.609375 66.40625 
Q 23.96875 66.40625 20.09375 61.84375 
Q 16.21875 57.28125 16.21875 49.421875 
Q 16.21875 41.5 20.09375 36.953125 
Q 23.96875 32.421875 30.609375 32.421875 
" id="BitstreamVeraSans-Roman-39"/>
     <path d="M 51.125 -9.28125 
L 51.125 -16.3125 
L 48.09375 -16.3125 
Q 35.9375 -16.3125 31.8125 -12.6875 
Q 27.6875 -9.078125 27.6875 1.703125 
L 27.6875 13.375 
Q 27.6875 20.75 25.046875 23.578125 
Q 22.40625 26.421875 15.484375 26.421875 
L 12.5 26.421875 
L 12.5 33.40625 
L 15.484375 33.40625 
Q 22.46875 33.40625 25.078125 36.203125 
Q 27.6875 39.015625 27.6875 46.296875 
L 27.6875 58.015625 
Q 27.6875 68.796875 31.8125 72.390625 
Q 35.9375 75.984375 48.09375 75.984375 
L 51.125 75.984375 
L 51.125 69 
L 47.796875 69 
Q 40.921875 69 38.8125 66.84375 
Q 36.71875 64.703125 36.71875 57.8125 
L 36.71875 45.703125 
Q 36.71875 38.03125 34.5 34.5625 
Q 32.28125 31.109375 26.90625 29.890625 
Q 32.328125 28.5625 34.515625 25.09375 
Q 36.71875 21.625 36.71875 14.015625 
L 36.71875 1.90625 
Q 36.71875 -4.984375 38.8125 -7.125 
Q 40.921875 -9.28125 47.796875 -9.28125 
z
" id="BitstreamVeraSans-Roman-7b"/>
     <path d="M 11.71875 12.40625 
L 22.015625 12.40625 
L 22.015625 4 
L 14.015625 -11.625 
L 7.71875 -11.625 
L 11.71875 4 
z
" id="BitstreamVeraSans-Roman-2c"/>
     <path d="M 10.796875 72.90625 
L 49.515625 72.90625 
L 49.515625 64.59375 
L 19.828125 64.59375 
L 19.828125 46.734375 
Q 21.96875 47.46875 24.109375 47.828125 
Q 26.265625 48.1875 28.421875 48.1875 
Q 40.625 48.1875 47.75 41.5 
Q 54.890625 34.8125 54.890625 23.390625 
Q 54.890625 11.625 47.5625 5.09375 
Q 40.234375 -1.421875 26.90625 -1.421875 
Q 22.3125 -1.421875 17.546875 -0.640625 
Q 12.796875 0.140625 7.71875 1.703125 
L 7.71875 11.625 
Q 12.109375 9.234375 16.796875 8.0625 
Q 21.484375 6.890625 26.703125 6.890625 
Q 35.15625 6.890625 40.078125 11.328125 
Q 45.015625 15.765625 45.015625 23.390625 
Q 45.015625 31 40.078125 35.4375 
Q 35.15625 39.890625 26.703125 39.890625 
Q 22.75 39.890625 18.8125 39.015625 
Q 14.890625 38.140625 10.796875 36.28125 
z
" id="BitstreamVeraSans-Roman-35"/>
    </defs>
    <g transform="translate(397.5302 376.38)scale(0.2 -0.2)">
     <use xlink:href="#BitstreamVeraSans-Roman-7b"/>
     <use x="63.623046875" xlink:href="#BitstreamVeraSans-Roman-66"/>
     <use x="98.828125" xlink:href="#BitstreamVeraSans-Roman-31"/>
     <use x="162.451171875" xlink:href="#BitstreamVeraSans-Roman-35"/>
     <use x="226.07421875" xlink:href="#BitstreamVeraSans-Roman-2d"/>
     <use x="262.158203125" xlink:href="#BitstreamVeraSans-Roman-66"/>
     <use x="297.36328125" xlink:href="#BitstreamVeraSans-Roman-31"/>
     <use x="360.986328125" xlink:href="#BitstreamVeraSans-Roman-39"/>
     <use x="424.609375" xlink:href="#BitstreamVeraSans-Roman-7d"/>
     <use x="488.232421875" xlink:href="#BitstreamVeraSans-Roman-2c"/>
     <use x="520.01953125" xlink:href="#BitstreamVeraSans-Roman-20"/>
     <use x="551.806640625" xlink:href="#BitstreamVeraSans-Roman-32"/>
     <use x="615.4296875" xlink:href="#BitstreamVeraSans-Roman-30"/>
     <use x="679.052734375" xlink:href="#BitstreamVeraSans-Roman-2d"/>
     <use x="715.13671875" xlink:href="#BitstreamVeraSans-Roman-44"/>
    </g>
   </g>
   <g id="text_11">
    <!-- v2.2.1.10 -->
    <defs>
     <path d="M 2.984375 54.6875 
L 12.5 54.6875 
L 29.59375 8.796875 
L 46.6875 54.6875 
L 56.203125 54.6875 
L 35.6875 0 
L 23.484375 0 
z
" id="BitstreamVeraSans-Roman-76"/>
     <path d="M 10.6875 12.40625 
L 21 12.40625 
L 21 0 
L 10.6875 0 
z
" id="BitstreamVeraSans-Roman-2e"/>
    </defs>
    <g style="fill:#808080;" transform="translate(261.4871875 378.11031249999996)scale(0.1 -0.1)">
     <use xlink:href="#BitstreamVeraSans-Roman-76"/>
     <use x="59.1796875" xlink:href="#BitstreamVeraSans-Roman-32"/>
     <use x="122.802734375" xlink:href="#BitstreamVeraSans-Roman-2e"/>
     <use x="154.58984375" xlink:href="#BitstreamVeraSans-Roman-32"/>
     <use x="218.212890625" xlink:href="#BitstreamVeraSans-Roman-2e"/>
     <use x="250.0" xlink:href="#BitstreamVeraSans-Roman-31"/>
     <use x="313.623046875" xlink:href="#BitstreamVeraSans-Roman-2e"/>
     <use x="345.41015625" xlink:href="#BitstreamVeraSans-Roman-31"/>
     <use x="409.033203125" xlink:href="#BitstreamVeraSans-Roman-30"/>
    </g>
   </g>
  </g>
 </g>
 <defs>
  <clipPath id="pba9ba8591e">
   <rect height="381.0" width="564.24" x="3.0" y="3.0"/>
  </clipPath>
 </defs>
</svg>
