<?xml version="1.0" encoding="utf-8" standalone="no"?>
<!DOCTYPE svg PUBLIC "-//W3C//DTD SVG 1.1//EN"
  "http://www.w3.org/Graphics/SVG/1.1/DTD/svg11.dtd">
<!-- Created with matplotlib (http://matplotlib.org/) -->
<svg height="432pt" version="1.1" viewBox="0 0 576 432" width="576pt" xmlns="http://www.w3.org/2000/svg" xmlns:xlink="http://www.w3.org/1999/xlink">
 <defs>
  <style type="text/css">
*{stroke-linecap:butt;stroke-linejoin:round;stroke-miterlimit:100000;}
  </style>
 </defs>
 <g id="figure_1">
  <g id="patch_1">
   <path d="M 0 432 
L 576 432 
L 576 0 
L 0 0 
z
" style="fill:#ffffff;"/>
  </g>
  <g id="axes_1">
   <g id="patch_2">
    <path d="M 55.425 384 
L 567.24 384 
L 567.24 7.678218 
L 55.425 7.678218 
z
" style="fill:#ffffff;"/>
   </g>
   <g id="line2d_1"/>
   <g id="line2d_2"/>
   <g id="line2d_3"/>
   <g id="line2d_4"/>
   <g id="line2d_5"/>
   <g id="line2d_6"/>
   <g id="line2d_7"/>
   <g id="line2d_8"/>
   <g id="line2d_9">
    <path clip-path="url(#p9b9ac8bb26)" d="M 359.970329 384 
L 359.970329 379.032056 
L 379.346699 379.032056 
L 379.346699 374.064111 
L 385.871144 374.064111 
L 385.871144 369.096167 
L 386.746508 369.096167 
L 386.746508 364.128223 
L 387.375657 364.128223 
L 387.375657 359.160278 
L 387.696201 359.160278 
L 387.696201 354.192334 
L 388.258181 354.192334 
L 388.258181 349.22439 
L 389.386016 349.22439 
L 389.434077 339.288501 
L 390.638424 339.288501 
L 390.638424 334.320557 
L 391.577233 334.320557 
L 391.577233 329.352612 
L 391.926336 329.352612 
L 391.926336 324.384668 
L 392.229734 324.384668 
L 392.229734 319.416724 
L 392.539732 319.416724 
L 392.539732 314.44878 
L 392.961401 314.44878 
L 393.016465 304.512891 
L 393.161233 304.512891 
L 393.161233 299.544947 
L 394.682104 299.544947 
L 394.682104 294.577002 
L 395.013963 294.577002 
L 395.013963 289.609058 
L 407.84498 289.609058 
L 407.84498 284.641114 
L 410.660364 284.641114 
L 410.660364 279.673169 
L 413.5631 279.673169 
L 413.5631 274.705225 
L 415.883106 274.705225 
L 415.883106 269.737281 
L 417.526034 269.737281 
L 417.526034 264.769336 
L 418.015073 264.769336 
L 418.015073 259.801392 
L 419.785113 259.801392 
L 419.785113 254.833448 
L 420.687705 254.833448 
L 420.707917 244.897559 
L 422.260249 244.897559 
L 422.260249 239.929615 
L 422.806694 239.929615 
L 422.806694 234.96167 
L 423.211601 234.96167 
L 423.211601 229.993726 
L 423.379755 229.993726 
L 423.379755 225.025782 
L 423.773538 225.025782 
L 423.773538 220.057837 
L 423.921149 220.057837 
L 423.921149 215.089893 
L 424.697852 215.089893 
L 424.697852 210.121949 
L 425.559352 210.121949 
L 425.559352 205.154005 
L 426.399058 205.154005 
L 426.399058 200.18606 
L 426.759926 200.18606 
L 426.759926 195.218116 
L 427.965845 195.218116 
L 427.965845 190.250172 
L 430.035074 190.250172 
L 430.035074 185.282227 
L 433.936571 185.282227 
L 433.936571 180.314283 
L 434.103238 180.314283 
L 434.19056 170.378394 
L 434.527832 170.378394 
L 434.527832 165.41045 
L 434.709612 165.41045 
L 434.815948 155.474561 
L 435.811773 155.474561 
L 435.836028 145.538673 
L 440.324066 145.538673 
L 440.324066 140.570728 
L 440.628477 140.570728 
L 440.628477 135.602784 
L 442.57987 135.602784 
L 442.666797 125.666895 
L 443.361588 125.666895 
L 443.361588 120.698951 
L 448.715151 120.698951 
L 448.715151 115.731007 
L 456.409556 115.731007 
L 456.409556 110.763062 
L 457.385658 110.763062 
L 457.385658 105.795118 
L 458.220278 105.795118 
L 458.220278 100.827174 
L 458.432123 100.827174 
L 458.432123 95.859229 
L 460.439588 95.859229 
L 460.439588 90.891285 
L 461.982566 90.891285 
L 461.982566 85.923341 
L 530.858984 85.923341 
L 530.858984 80.955397 
L 535.064667 80.955397 
L 535.064667 75.987452 
L 540.111418 75.987452 
L 540.111418 71.019508 
L 543.945276 71.019508 
L 543.945276 66.051564 
L 549.791414 66.051564 
L 549.791414 61.083619 
L 553.00253 61.083619 
L 553.00253 56.115675 
L 554.513615 56.115675 
L 554.513615 51.147731 
L 554.653971 51.147731 
L 554.731244 41.211842 
L 555.200502 41.211842 
L 555.200502 36.243898 
L 557.407547 36.243898 
L 557.407547 31.275953 
L 558.079997 31.275953 
L 558.079997 26.308009 
L 558.420055 26.308009 
L 558.420055 21.340065 
L 559.415976 21.340065 
L 559.415976 16.37212 
L 560.084322 16.37212 
L 560.084322 11.404176 
L 560.084322 11.404176 
L 567.24 11.404176 
L 567.24 11.404176 
" style="fill:none;stroke:#f5deb3;stroke-linecap:square;"/>
   </g>
   <g id="line2d_10"/>
   <g id="line2d_11"/>
   <g id="line2d_12"/>
   <g id="line2d_13"/>
   <g id="line2d_14"/>
   <g id="line2d_15"/>
   <g id="line2d_16"/>
   <g id="line2d_17"/>
   <g id="line2d_18"/>
   <g id="line2d_19"/>
   <g id="line2d_20"/>
   <g id="line2d_21"/>
   <g id="line2d_22"/>
   <g id="line2d_23"/>
   <g id="line2d_24">
    <path clip-path="url(#p9b9ac8bb26)" d="M 374.593858 384 
L 374.593858 379.032056 
L 377.709876 379.032056 
L 377.750087 369.096167 
L 419.305093 369.096167 
L 419.305093 364.128223 
L 419.436955 364.128223 
L 419.436955 359.160278 
L 422.570984 359.160278 
L 422.570984 354.192334 
L 423.272945 354.192334 
L 423.272945 349.22439 
L 423.608937 349.22439 
L 423.608937 344.256445 
L 426.432238 344.256445 
L 426.432238 339.288501 
L 429.431145 339.288501 
L 429.431145 334.320557 
L 429.611526 334.320557 
L 429.611526 329.352612 
L 445.316492 329.352612 
L 445.316492 324.384668 
L 447.411697 324.384668 
L 447.411697 319.416724 
L 447.917126 319.416724 
L 447.917126 314.44878 
L 448.317562 314.44878 
L 448.317562 309.480835 
L 448.586993 309.480835 
L 448.586993 304.512891 
L 449.237676 304.512891 
L 449.32549 294.577002 
L 449.623097 294.577002 
L 449.623097 289.609058 
L 450.447257 289.609058 
L 450.532782 279.673169 
L 450.896434 279.673169 
L 450.896434 274.705225 
L 451.344 274.705225 
L 451.344 269.737281 
L 451.845835 269.737281 
L 451.845835 264.769336 
L 452.539827 264.769336 
L 452.539827 259.801392 
L 452.858892 259.801392 
L 452.898053 249.865503 
L 453.452385 249.865503 
L 453.452385 244.897559 
L 453.824803 244.897559 
L 453.824803 239.929615 
L 453.960452 239.929615 
L 453.960452 234.96167 
L 454.386496 234.96167 
L 454.386496 229.993726 
L 455.082076 229.993726 
L 455.168313 220.057837 
L 455.638352 220.057837 
L 455.638352 215.089893 
L 456.219003 215.089893 
L 456.227267 205.154005 
L 456.839969 205.154005 
L 456.839969 200.18606 
L 457.10615 200.18606 
L 457.10615 195.218116 
L 457.304715 195.218116 
L 457.304715 190.250172 
L 457.439549 190.250172 
L 457.439549 185.282227 
L 457.700066 185.282227 
L 457.783164 175.346339 
L 458.257217 175.346339 
L 458.307625 165.41045 
L 463.018674 165.41045 
L 463.018674 160.442506 
L 465.092431 160.442506 
L 465.092431 155.474561 
L 465.305171 155.474561 
L 465.305171 150.506617 
L 466.795827 150.506617 
L 466.795827 145.538673 
L 480.606578 145.538673 
L 480.606578 140.570728 
L 481.319995 140.570728 
L 481.319995 135.602784 
L 481.866618 135.602784 
L 481.866618 130.63484 
L 487.194618 130.63484 
L 487.194618 125.666895 
L 489.017134 125.666895 
L 489.017134 120.698951 
L 489.913057 120.698951 
L 489.913057 115.731007 
L 490.530407 115.731007 
L 490.530407 110.763062 
L 491.842296 110.763062 
L 491.842296 105.795118 
L 510.850811 105.795118 
L 510.850811 100.827174 
L 511.414886 100.827174 
L 511.414886 95.859229 
L 512.16797 95.859229 
L 512.16797 90.891285 
L 512.827467 90.891285 
L 512.827467 85.923341 
L 561.174073 85.923341 
L 561.174073 80.955397 
L 576.521209 80.955397 
L 576.521209 75.987452 
L 577 75.987452 
L 577 75.987452 
" style="fill:none;stroke:#f5deb3;stroke-linecap:square;"/>
   </g>
   <g id="line2d_25">
    <path clip-path="url(#p9b9ac8bb26)" d="M 441.230263 384 
L 441.230263 379.032056 
L 441.805311 379.032056 
L 441.805311 374.064111 
L 442.089155 374.064111 
L 442.089155 369.096167 
L 442.476887 369.096167 
L 442.476887 364.128223 
L 443.143203 364.128223 
L 443.143203 359.160278 
L 443.661635 359.160278 
L 443.661635 354.192334 
L 443.661635 354.192334 
L 443.661635 354.192334 
L 567.24 354.192334 
" style="fill:none;stroke:#f5deb3;stroke-linecap:square;"/>
   </g>
   <g id="line2d_26">
    <path clip-path="url(#p9b9ac8bb26)" d="M 478.590728 384 
L 478.590728 379.032056 
L 493.578705 379.032056 
L 493.578705 374.064111 
L 493.578705 374.064111 
L 493.578705 374.064111 
L 567.24 374.064111 
" style="fill:none;stroke:#f5deb3;stroke-linecap:square;"/>
   </g>
   <g id="line2d_27"/>
   <g id="line2d_28">
    <path clip-path="url(#p9b9ac8bb26)" d="M 467.666084 384 
L 467.666084 379.032056 
L 469.252804 379.032056 
L 469.252804 374.064111 
L 496.759834 374.064111 
L 496.759834 369.096167 
L 497.101789 369.096167 
L 497.101789 364.128223 
L 497.458817 364.128223 
L 497.458817 359.160278 
L 497.568966 359.160278 
L 497.568966 354.192334 
L 499.161705 354.192334 
L 499.161705 349.22439 
L 499.380165 349.22439 
L 499.380165 344.256445 
L 500.084591 344.256445 
L 500.084591 339.288501 
L 500.166506 339.288501 
L 500.166506 334.320557 
L 500.382197 334.320557 
L 500.382197 329.352612 
L 500.42691 329.352612 
L 500.42691 324.384668 
L 500.64388 324.384668 
L 500.64388 319.416724 
L 500.646074 319.416724 
L 500.646074 314.44878 
L 501.146411 314.44878 
L 501.146411 309.480835 
L 501.989728 309.480835 
L 501.989728 304.512891 
L 502.088185 304.512891 
L 502.088185 299.544947 
L 502.257557 299.544947 
L 502.257557 294.577002 
L 502.791996 294.577002 
L 502.791996 289.609058 
L 503.094468 289.609058 
L 503.094468 284.641114 
L 503.476111 284.641114 
L 503.476111 279.673169 
L 503.554944 279.673169 
L 503.554944 274.705225 
L 503.595388 274.705225 
L 503.595388 269.737281 
L 503.78954 269.737281 
L 503.78954 264.769336 
L 503.898386 264.769336 
L 503.898386 259.801392 
L 503.96047 259.801392 
L 503.96047 254.833448 
L 504.509023 254.833448 
L 504.509023 249.865503 
L 504.69617 249.865503 
L 504.69617 244.897559 
L 504.851539 244.897559 
L 504.851539 239.929615 
L 505.025021 239.929615 
L 505.025021 234.96167 
L 505.684825 234.96167 
L 505.684825 229.993726 
L 505.711241 229.993726 
L 505.711241 225.025782 
L 507.684845 225.025782 
L 507.684845 220.057837 
L 507.98057 220.057837 
L 507.98057 215.089893 
L 508.330772 215.089893 
L 508.330772 210.121949 
L 509.072065 210.121949 
L 509.072065 205.154005 
L 509.325622 205.154005 
L 509.325622 200.18606 
L 509.47221 200.18606 
L 509.47221 195.218116 
L 509.614012 195.218116 
L 509.614012 190.250172 
L 509.92403 190.250172 
L 509.92403 185.282227 
L 511.038349 185.282227 
L 511.038349 180.314283 
L 511.85596 180.314283 
L 511.85596 175.346339 
L 512.290075 175.346339 
L 512.290075 170.378394 
L 517.423759 170.378394 
L 517.423759 165.41045 
L 521.839784 165.41045 
L 521.839784 160.442506 
L 531.394294 160.442506 
L 531.394294 155.474561 
L 536.325605 155.474561 
L 536.325605 150.506617 
L 538.170999 150.506617 
L 538.170999 145.538673 
L 538.31561 145.538673 
L 538.31561 140.570728 
L 539.009252 140.570728 
L 539.009252 135.602784 
L 539.392184 135.602784 
L 539.392184 130.63484 
L 539.430158 130.63484 
L 539.430158 125.666895 
L 539.566591 125.666895 
L 539.566591 120.698951 
L 540.857425 120.698951 
L 540.857425 115.731007 
L 552.398827 115.731007 
L 552.398827 110.763062 
L 553.698758 110.763062 
L 553.698758 105.795118 
L 555.15518 105.795118 
L 555.15518 100.827174 
L 570.109181 100.827174 
L 570.109181 95.859229 
L 571.444028 95.859229 
L 571.444028 90.891285 
L 577 90.891285 
" style="fill:none;stroke:#f5deb3;stroke-linecap:square;"/>
   </g>
   <g id="line2d_29"/>
   <g id="line2d_30"/>
   <g id="line2d_31">
    <path clip-path="url(#p9b9ac8bb26)" d="M 110.93087 384 
L 110.93087 379.032056 
L 111.859563 379.032056 
L 111.859563 374.064111 
L 113.212413 374.064111 
L 113.212413 369.096167 
L 114.519907 369.096167 
L 114.519907 364.128223 
L 114.946177 364.128223 
L 114.946177 359.160278 
L 115.367838 359.160278 
L 115.367838 354.192334 
L 118.970699 354.192334 
L 118.970699 349.22439 
L 119.351221 349.22439 
L 119.351221 344.256445 
L 119.728067 344.256445 
L 119.728067 339.288501 
L 120.83724 339.288501 
L 120.83724 334.320557 
L 121.200063 334.320557 
L 121.200063 324.384668 
L 121.559543 324.384668 
L 121.559543 319.416724 
L 122.965218 319.416724 
L 122.965218 314.44878 
L 124.653935 314.44878 
L 124.653935 309.480835 
L 125.309467 309.480835 
L 125.309467 304.512891 
L 125.633148 304.512891 
L 125.633148 299.544947 
L 125.954164 299.544947 
L 125.954164 294.577002 
L 128.431394 294.577002 
L 128.431394 289.609058 
L 132.690523 289.609058 
L 132.690523 284.641114 
L 133.224822 284.641114 
L 133.224822 279.673169 
L 136.285472 279.673169 
L 136.285472 274.705225 
L 137.014526 274.705225 
L 137.014526 269.737281 
L 138.200127 269.737281 
L 138.200127 264.769336 
L 141.340015 264.769336 
L 141.340015 254.833448 
L 159.99359 254.833448 
L 159.99359 249.865503 
L 180.263209 249.865503 
L 180.263209 244.897559 
L 188.535203 244.897559 
L 188.535203 239.929615 
L 192.792116 239.929615 
L 192.792116 234.96167 
L 220.878636 234.96167 
L 220.878636 229.993726 
L 230.888902 229.993726 
L 230.888902 225.025782 
L 232.274031 225.025782 
L 232.274031 220.057837 
L 234.787319 220.057837 
L 234.787319 215.089893 
L 235.041667 215.089893 
L 235.041667 210.121949 
L 240.475878 210.121949 
L 240.475878 205.154005 
L 241.859176 205.154005 
L 241.940961 195.218116 
L 243.557328 195.218116 
L 243.557328 190.250172 
L 243.713779 190.250172 
L 243.713779 185.282227 
L 246.091194 185.282227 
L 246.091194 180.314283 
L 246.208541 180.314283 
L 246.208541 175.346339 
L 246.543961 175.346339 
L 246.543961 170.378394 
L 247.561557 170.378394 
L 247.561557 165.41045 
L 248.137313 165.41045 
L 248.137313 160.442506 
L 326.150294 160.442506 
L 326.150294 155.474561 
L 327.386711 155.474561 
L 327.386711 150.506617 
L 328.765468 150.506617 
L 328.765468 145.538673 
L 329.77534 145.538673 
L 329.77534 140.570728 
L 330.753018 140.570728 
L 330.753018 135.602784 
L 331.108438 135.602784 
L 331.108438 130.63484 
L 334.830225 130.63484 
L 334.830225 125.666895 
L 335.125045 125.666895 
L 335.125045 120.698951 
L 336.586827 120.698951 
L 336.586827 115.731007 
L 337.391106 115.731007 
L 337.391106 110.763062 
L 337.629331 110.763062 
L 337.629331 105.795118 
L 339.950713 105.795118 
L 339.950713 100.827174 
L 340.480716 100.827174 
L 340.480716 95.859229 
L 341.923238 95.859229 
L 341.923238 90.891285 
L 348.182999 90.891285 
L 348.182999 85.923341 
L 349.679607 85.923341 
L 349.679607 80.955397 
L 355.900003 80.955397 
L 355.900003 75.987452 
L 356.476326 75.987452 
L 356.476326 71.019508 
L 357.97698 71.019508 
L 357.995325 61.083619 
L 358.245462 61.083619 
L 358.245462 56.115675 
L 358.425627 56.115675 
L 358.425627 51.147731 
L 359.334322 51.147731 
L 359.334322 46.179786 
L 360.761898 46.179786 
L 360.761898 41.211842 
L 362.80946 41.211842 
L 362.80946 36.243898 
L 363.07018 36.243898 
L 363.07018 31.275953 
L 363.704736 31.275953 
L 363.704736 26.308009 
L 363.971721 26.308009 
L 363.971721 21.340065 
L 364.269555 21.340065 
L 364.269555 16.37212 
L 367.622033 16.37212 
L 367.622033 11.404176 
L 367.622033 11.404176 
L 567.24 11.404176 
L 567.24 11.404176 
" style="fill:none;stroke:#000000;stroke-linecap:square;"/>
   </g>
   <g id="line2d_32">
    <path clip-path="url(#p9b9ac8bb26)" d="M -26976.883449 756.595824 
" style="fill:none;stroke:#000000;stroke-linecap:square;"/>
   </g>
   <g id="line2d_33">
    <path clip-path="url(#p9b9ac8bb26)" d="M 304.50458 384 
L 304.50458 379.032056 
L 307.825409 379.032056 
L 307.825409 374.064111 
L 308.027054 374.064111 
L 308.027054 369.096167 
L 308.400494 369.096167 
L 308.400494 364.128223 
L 309.554712 364.128223 
L 309.554712 359.160278 
L 309.99102 359.160278 
L 309.99102 354.192334 
L 310.478922 354.192334 
L 310.478922 349.22439 
L 310.552146 349.22439 
L 310.552146 344.256445 
L 310.838091 344.256445 
L 310.838091 339.288501 
L 311.691757 339.288501 
L 311.691757 334.320557 
L 311.743643 334.320557 
L 311.743643 329.352612 
L 312.521789 329.352612 
L 312.521789 324.384668 
L 314.340599 324.384668 
L 314.340599 319.416724 
L 314.734356 319.416724 
L 314.734356 314.44878 
L 314.784876 314.44878 
L 314.784876 309.480835 
L 325.276695 309.480835 
L 325.276695 304.512891 
L 325.398029 304.512891 
L 325.398029 299.544947 
L 325.90621 299.544947 
L 325.90621 294.577002 
L 326.018035 294.577002 
L 326.018035 289.609058 
L 326.478994 289.609058 
L 326.478994 284.641114 
L 326.544403 284.641114 
L 326.544403 279.673169 
L 326.984451 279.673169 
L 326.984451 274.705225 
L 326.997373 274.705225 
L 326.997373 269.737281 
L 327.68888 269.737281 
L 327.68888 264.769336 
L 328.031887 264.769336 
L 328.031887 259.801392 
L 328.77605 259.801392 
L 328.77605 254.833448 
L 328.83596 254.833448 
L 328.83596 249.865503 
L 329.482042 249.865503 
L 329.482042 244.897559 
L 330.059624 244.897559 
L 330.059624 239.929615 
L 331.211288 239.929615 
L 331.211288 234.96167 
L 346.872483 234.96167 
L 346.872483 229.993726 
L 346.932312 229.993726 
L 346.932312 225.025782 
L 347.36171 225.025782 
L 347.36171 220.057837 
L 348.677338 220.057837 
L 348.677338 215.089893 
L 348.993651 215.089893 
L 348.993651 210.121949 
L 349.300126 210.121949 
L 349.300126 205.154005 
L 350.335449 205.154005 
L 350.335449 200.18606 
L 350.400329 200.18606 
L 350.400329 195.218116 
L 353.497159 195.218116 
L 353.497159 190.250172 
L 354.688507 190.250172 
L 354.688507 185.282227 
L 355.246215 185.282227 
L 355.246215 180.314283 
L 356.337391 180.314283 
L 356.337391 175.346339 
L 356.407789 175.346339 
L 356.407789 170.378394 
L 356.49799 170.378394 
L 356.49799 165.41045 
L 366.6319 165.41045 
L 366.6319 160.442506 
L 402.16015 160.442506 
L 402.16015 155.474561 
L 406.343828 155.474561 
L 406.343828 150.506617 
L 410.517282 150.506617 
L 410.517282 145.538673 
L 411.008403 145.538673 
L 411.008403 140.570728 
L 415.269577 140.570728 
L 415.269577 135.602784 
L 420.193189 135.602784 
L 420.193189 130.63484 
L 421.667441 130.63484 
L 421.667441 125.666895 
L 425.94527 125.666895 
L 425.94527 120.698951 
L 429.844227 120.698951 
L 429.844227 115.731007 
L 451.302942 115.731007 
L 451.302942 110.763062 
L 461.79514 110.763062 
L 461.79514 105.795118 
L 468.05259 105.795118 
L 468.05259 100.827174 
L 474.701613 100.827174 
L 474.701613 95.859229 
L 537.136868 95.859229 
L 537.136868 90.891285 
L 539.222865 90.891285 
L 539.222865 85.923341 
L 553.252092 85.923341 
L 553.252092 80.955397 
L 554.125192 80.955397 
L 554.125192 75.987452 
L 554.125192 75.987452 
L 554.125192 75.987452 
L 567.24 75.987452 
" style="fill:none;stroke:#00bfbf;stroke-linecap:square;"/>
   </g>
   <g id="line2d_34">
    <path clip-path="url(#p9b9ac8bb26)" d="M -26976.883449 756.595824 
" style="fill:none;stroke:#00bfbf;stroke-linecap:square;"/>
   </g>
   <g id="line2d_35">
    <path clip-path="url(#p9b9ac8bb26)" d="M 359.63684 384 
L 359.63684 379.032056 
L 359.825822 379.032056 
L 359.825822 374.064111 
L 360.22469 374.064111 
L 360.22469 369.096167 
L 360.554773 369.096167 
L 360.554773 364.128223 
L 360.561018 364.128223 
L 360.561018 359.160278 
L 360.790622 359.160278 
L 360.790622 354.192334 
L 360.936243 354.192334 
L 360.936243 349.22439 
L 361.061291 349.22439 
L 361.061291 344.256445 
L 361.302531 344.256445 
L 361.302531 339.288501 
L 361.453888 339.288501 
L 361.453888 334.320557 
L 361.666171 334.320557 
L 361.666171 329.352612 
L 361.721524 329.352612 
L 361.721524 324.384668 
L 361.83124 324.384668 
L 361.83124 319.416724 
L 361.933866 319.416724 
L 361.933866 314.44878 
L 362.216201 314.44878 
L 362.216201 309.480835 
L 362.357351 309.480835 
L 362.357351 304.512891 
L 362.551436 304.512891 
L 362.551436 299.544947 
L 362.813881 299.544947 
L 362.813881 294.577002 
L 362.854384 294.577002 
L 362.854384 289.609058 
L 362.944812 289.609058 
L 362.944812 284.641114 
L 364.089559 284.641114 
L 364.089559 279.673169 
L 364.118072 279.673169 
L 364.118072 274.705225 
L 364.66082 274.705225 
L 364.66082 269.737281 
L 365.023839 269.737281 
L 365.023839 264.769336 
L 365.416607 264.769336 
L 365.416607 259.801392 
L 365.925378 259.801392 
L 365.925378 254.833448 
L 365.95598 254.833448 
L 365.95598 249.865503 
L 366.165466 249.865503 
L 366.165466 244.897559 
L 366.178986 244.897559 
L 366.178986 239.929615 
L 366.277542 239.929615 
L 366.277542 234.96167 
L 366.278216 234.96167 
L 366.278216 229.993726 
L 366.369124 229.993726 
L 366.369124 225.025782 
L 366.486654 225.025782 
L 366.486654 220.057837 
L 366.602493 220.057837 
L 366.602493 215.089893 
L 366.777939 215.089893 
L 366.777939 210.121949 
L 367.15945 210.121949 
L 367.15945 205.154005 
L 367.176583 205.154005 
L 367.176583 200.18606 
L 367.239122 200.18606 
L 367.239122 195.218116 
L 368.108795 195.218116 
L 368.108795 190.250172 
L 452.34456 190.250172 
L 452.34456 185.282227 
L 462.556583 185.282227 
L 462.556583 180.314283 
L 475.260057 180.314283 
L 475.260057 175.346339 
L 537.236541 175.346339 
L 537.236541 170.378394 
L 539.331571 170.378394 
L 539.331571 165.41045 
L 554.197204 165.41045 
L 554.197204 160.442506 
L 554.197204 160.442506 
L 554.197204 160.442506 
L 567.24 160.442506 
" style="fill:none;stroke:#bf00bf;stroke-linecap:square;"/>
   </g>
   <g id="line2d_36">
    <path clip-path="url(#p9b9ac8bb26)" d="M -26976.883449 756.595824 
" style="fill:none;stroke:#bf00bf;stroke-linecap:square;"/>
   </g>
   <g id="line2d_37">
    <path clip-path="url(#p9b9ac8bb26)" d="M 373.008498 384 
L 373.008498 379.032056 
L 374.173245 379.032056 
L 374.173245 374.064111 
L 374.633058 374.064111 
L 374.633058 369.096167 
L 374.670589 369.096167 
L 374.670589 364.128223 
L 374.868522 364.128223 
L 374.868522 359.160278 
L 375.415849 359.160278 
L 375.415849 354.192334 
L 376.458917 354.192334 
L 376.458917 349.22439 
L 377.81434 349.22439 
L 377.81434 344.256445 
L 539.502429 344.256445 
L 539.502429 339.288501 
L 539.502429 339.288501 
L 539.502429 339.288501 
L 567.24 339.288501 
" style="fill:none;stroke:#ff0000;stroke-linecap:square;stroke-width:3.0;"/>
   </g>
   <g id="line2d_38">
    <path clip-path="url(#p9b9ac8bb26)" d="M -26976.883449 756.595824 
" style="fill:none;stroke:#ff0000;stroke-linecap:square;stroke-width:3.0;"/>
   </g>
   <g id="line2d_39">
    <path clip-path="url(#p9b9ac8bb26)" d="M 567.24 384 
L 567.24 7.678218 
" style="fill:none;stroke:#000000;stroke-linecap:square;"/>
   </g>
   <g id="patch_3">
    <path d="M 55.425 7.678218 
L 567.24 7.678218 
" style="fill:none;stroke:#000000;stroke-linecap:square;stroke-linejoin:miter;"/>
   </g>
   <g id="patch_4">
    <path d="M 567.24 384 
L 567.24 7.678218 
" style="fill:none;stroke:#000000;stroke-linecap:square;stroke-linejoin:miter;"/>
   </g>
   <g id="patch_5">
    <path d="M 55.425 384 
L 567.24 384 
" style="fill:none;stroke:#000000;stroke-linecap:square;stroke-linejoin:miter;"/>
   </g>
   <g id="patch_6">
    <path d="M 55.425 384 
L 55.425 7.678218 
" style="fill:none;stroke:#000000;stroke-linecap:square;stroke-linejoin:miter;"/>
   </g>
   <g id="matplotlib.axis_1">
    <g id="xtick_1">
     <g id="line2d_40">
      <path clip-path="url(#p9b9ac8bb26)" d="M 55.425 384 
L 55.425 7.678218 
" style="fill:none;stroke:#000000;stroke-dasharray:1.000000,3.000000;stroke-dashoffset:0.0;stroke-width:0.5;"/>
     </g>
     <g id="line2d_41">
      <defs>
       <path d="M 0 0 
L 0 -4 
" id="m334098a54d" style="stroke:#000000;stroke-width:0.5;"/>
      </defs>
      <g>
       <use style="stroke:#000000;stroke-width:0.5;" x="55.425000000000004" xlink:href="#m334098a54d" y="384.0"/>
      </g>
     </g>
     <g id="line2d_42">
      <defs>
       <path d="M 0 0 
L 0 4 
" id="m3ba37c052e" style="stroke:#000000;stroke-width:0.5;"/>
      </defs>
      <g>
       <use style="stroke:#000000;stroke-width:0.5;" x="55.425000000000004" xlink:href="#m3ba37c052e" y="7.678217821782141"/>
      </g>
     </g>
     <g id="text_1">
      <!-- 0 -->
      <defs>
       <path d="M 31.78125 66.40625 
Q 24.171875 66.40625 20.328125 58.90625 
Q 16.5 51.421875 16.5 36.375 
Q 16.5 21.390625 20.328125 13.890625 
Q 24.171875 6.390625 31.78125 6.390625 
Q 39.453125 6.390625 43.28125 13.890625 
Q 47.125 21.390625 47.125 36.375 
Q 47.125 51.421875 43.28125 58.90625 
Q 39.453125 66.40625 31.78125 66.40625 
M 31.78125 74.21875 
Q 44.046875 74.21875 50.515625 64.515625 
Q 56.984375 54.828125 56.984375 36.375 
Q 56.984375 17.96875 50.515625 8.265625 
Q 44.046875 -1.421875 31.78125 -1.421875 
Q 19.53125 -1.421875 13.0625 8.265625 
Q 6.59375 17.96875 6.59375 36.375 
Q 6.59375 54.828125 13.0625 64.515625 
Q 19.53125 74.21875 31.78125 74.21875 
" id="BitstreamVeraSans-Roman-30"/>
      </defs>
      <g transform="translate(49.0625 403.196875)scale(0.2 -0.2)">
       <use xlink:href="#BitstreamVeraSans-Roman-30"/>
      </g>
     </g>
    </g>
    <g id="xtick_2">
     <g id="line2d_43">
      <path clip-path="url(#p9b9ac8bb26)" d="M 145.233334 384 
L 145.233334 7.678218 
" style="fill:none;stroke:#000000;stroke-dasharray:1.000000,3.000000;stroke-dashoffset:0.0;stroke-width:0.5;"/>
     </g>
     <g id="line2d_44">
      <g>
       <use style="stroke:#000000;stroke-width:0.5;" x="145.23333371830162" xlink:href="#m334098a54d" y="384.0"/>
      </g>
     </g>
     <g id="line2d_45">
      <g>
       <use style="stroke:#000000;stroke-width:0.5;" x="145.23333371830162" xlink:href="#m3ba37c052e" y="7.678217821782141"/>
      </g>
     </g>
     <g id="text_2">
      <!-- 1 -->
      <defs>
       <path d="M 12.40625 8.296875 
L 28.515625 8.296875 
L 28.515625 63.921875 
L 10.984375 60.40625 
L 10.984375 69.390625 
L 28.421875 72.90625 
L 38.28125 72.90625 
L 38.28125 8.296875 
L 54.390625 8.296875 
L 54.390625 0 
L 12.40625 0 
z
" id="BitstreamVeraSans-Roman-31"/>
      </defs>
      <g transform="translate(138.8708337183016 403.196875)scale(0.2 -0.2)">
       <use xlink:href="#BitstreamVeraSans-Roman-31"/>
      </g>
     </g>
    </g>
    <g id="xtick_3">
     <g id="line2d_46">
      <path clip-path="url(#p9b9ac8bb26)" d="M 235.041667 384 
L 235.041667 7.678218 
" style="fill:none;stroke:#000000;stroke-dasharray:1.000000,3.000000;stroke-dashoffset:0.0;stroke-width:0.5;"/>
     </g>
     <g id="line2d_47">
      <g>
       <use style="stroke:#000000;stroke-width:0.5;" x="235.04166743660323" xlink:href="#m334098a54d" y="384.0"/>
      </g>
     </g>
     <g id="line2d_48">
      <g>
       <use style="stroke:#000000;stroke-width:0.5;" x="235.04166743660323" xlink:href="#m3ba37c052e" y="7.678217821782141"/>
      </g>
     </g>
     <g id="text_3">
      <!-- 2 -->
      <defs>
       <path d="M 19.1875 8.296875 
L 53.609375 8.296875 
L 53.609375 0 
L 7.328125 0 
L 7.328125 8.296875 
Q 12.9375 14.109375 22.625 23.890625 
Q 32.328125 33.6875 34.8125 36.53125 
Q 39.546875 41.84375 41.421875 45.53125 
Q 43.3125 49.21875 43.3125 52.78125 
Q 43.3125 58.59375 39.234375 62.25 
Q 35.15625 65.921875 28.609375 65.921875 
Q 23.96875 65.921875 18.8125 64.3125 
Q 13.671875 62.703125 7.8125 59.421875 
L 7.8125 69.390625 
Q 13.765625 71.78125 18.9375 73 
Q 24.125 74.21875 28.421875 74.21875 
Q 39.75 74.21875 46.484375 68.546875 
Q 53.21875 62.890625 53.21875 53.421875 
Q 53.21875 48.921875 51.53125 44.890625 
Q 49.859375 40.875 45.40625 35.40625 
Q 44.1875 33.984375 37.640625 27.21875 
Q 31.109375 20.453125 19.1875 8.296875 
" id="BitstreamVeraSans-Roman-32"/>
      </defs>
      <g transform="translate(228.67916743660322 403.196875)scale(0.2 -0.2)">
       <use xlink:href="#BitstreamVeraSans-Roman-32"/>
      </g>
     </g>
    </g>
    <g id="xtick_4">
     <g id="line2d_49">
      <path clip-path="url(#p9b9ac8bb26)" d="M 324.850001 384 
L 324.850001 7.678218 
" style="fill:none;stroke:#000000;stroke-dasharray:1.000000,3.000000;stroke-dashoffset:0.0;stroke-width:0.5;"/>
     </g>
     <g id="line2d_50">
      <g>
       <use style="stroke:#000000;stroke-width:0.5;" x="324.8500011549049" xlink:href="#m334098a54d" y="384.0"/>
      </g>
     </g>
     <g id="line2d_51">
      <g>
       <use style="stroke:#000000;stroke-width:0.5;" x="324.8500011549049" xlink:href="#m3ba37c052e" y="7.678217821782141"/>
      </g>
     </g>
     <g id="text_4">
      <!-- 3 -->
      <defs>
       <path d="M 40.578125 39.3125 
Q 47.65625 37.796875 51.625 33 
Q 55.609375 28.21875 55.609375 21.1875 
Q 55.609375 10.40625 48.1875 4.484375 
Q 40.765625 -1.421875 27.09375 -1.421875 
Q 22.515625 -1.421875 17.65625 -0.515625 
Q 12.796875 0.390625 7.625 2.203125 
L 7.625 11.71875 
Q 11.71875 9.328125 16.59375 8.109375 
Q 21.484375 6.890625 26.8125 6.890625 
Q 36.078125 6.890625 40.9375 10.546875 
Q 45.796875 14.203125 45.796875 21.1875 
Q 45.796875 27.640625 41.28125 31.265625 
Q 36.765625 34.90625 28.71875 34.90625 
L 20.21875 34.90625 
L 20.21875 43.015625 
L 29.109375 43.015625 
Q 36.375 43.015625 40.234375 45.921875 
Q 44.09375 48.828125 44.09375 54.296875 
Q 44.09375 59.90625 40.109375 62.90625 
Q 36.140625 65.921875 28.71875 65.921875 
Q 24.65625 65.921875 20.015625 65.03125 
Q 15.375 64.15625 9.8125 62.3125 
L 9.8125 71.09375 
Q 15.4375 72.65625 20.34375 73.4375 
Q 25.25 74.21875 29.59375 74.21875 
Q 40.828125 74.21875 47.359375 69.109375 
Q 53.90625 64.015625 53.90625 55.328125 
Q 53.90625 49.265625 50.4375 45.09375 
Q 46.96875 40.921875 40.578125 39.3125 
" id="BitstreamVeraSans-Roman-33"/>
      </defs>
      <g transform="translate(318.48750115490486 403.196875)scale(0.2 -0.2)">
       <use xlink:href="#BitstreamVeraSans-Roman-33"/>
      </g>
     </g>
    </g>
    <g id="xtick_5">
     <g id="line2d_52">
      <path clip-path="url(#p9b9ac8bb26)" d="M 414.658335 384 
L 414.658335 7.678218 
" style="fill:none;stroke:#000000;stroke-dasharray:1.000000,3.000000;stroke-dashoffset:0.0;stroke-width:0.5;"/>
     </g>
     <g id="line2d_53">
      <g>
       <use style="stroke:#000000;stroke-width:0.5;" x="414.6583348732065" xlink:href="#m334098a54d" y="384.0"/>
      </g>
     </g>
     <g id="line2d_54">
      <g>
       <use style="stroke:#000000;stroke-width:0.5;" x="414.6583348732065" xlink:href="#m3ba37c052e" y="7.678217821782141"/>
      </g>
     </g>
     <g id="text_5">
      <!-- 4 -->
      <defs>
       <path d="M 37.796875 64.3125 
L 12.890625 25.390625 
L 37.796875 25.390625 
z
M 35.203125 72.90625 
L 47.609375 72.90625 
L 47.609375 25.390625 
L 58.015625 25.390625 
L 58.015625 17.1875 
L 47.609375 17.1875 
L 47.609375 0 
L 37.796875 0 
L 37.796875 17.1875 
L 4.890625 17.1875 
L 4.890625 26.703125 
z
" id="BitstreamVeraSans-Roman-34"/>
      </defs>
      <g transform="translate(408.2958348732065 403.196875)scale(0.2 -0.2)">
       <use xlink:href="#BitstreamVeraSans-Roman-34"/>
      </g>
     </g>
    </g>
    <g id="xtick_6">
     <g id="line2d_55">
      <path clip-path="url(#p9b9ac8bb26)" d="M 504.466669 384 
L 504.466669 7.678218 
" style="fill:none;stroke:#000000;stroke-dasharray:1.000000,3.000000;stroke-dashoffset:0.0;stroke-width:0.5;"/>
     </g>
     <g id="line2d_56">
      <g>
       <use style="stroke:#000000;stroke-width:0.5;" x="504.4666685915081" xlink:href="#m334098a54d" y="384.0"/>
      </g>
     </g>
     <g id="line2d_57">
      <g>
       <use style="stroke:#000000;stroke-width:0.5;" x="504.4666685915081" xlink:href="#m3ba37c052e" y="7.678217821782141"/>
      </g>
     </g>
     <g id="text_6">
      <!-- 5 -->
      <defs>
       <path d="M 10.796875 72.90625 
L 49.515625 72.90625 
L 49.515625 64.59375 
L 19.828125 64.59375 
L 19.828125 46.734375 
Q 21.96875 47.46875 24.109375 47.828125 
Q 26.265625 48.1875 28.421875 48.1875 
Q 40.625 48.1875 47.75 41.5 
Q 54.890625 34.8125 54.890625 23.390625 
Q 54.890625 11.625 47.5625 5.09375 
Q 40.234375 -1.421875 26.90625 -1.421875 
Q 22.3125 -1.421875 17.546875 -0.640625 
Q 12.796875 0.140625 7.71875 1.703125 
L 7.71875 11.625 
Q 12.109375 9.234375 16.796875 8.0625 
Q 21.484375 6.890625 26.703125 6.890625 
Q 35.15625 6.890625 40.078125 11.328125 
Q 45.015625 15.765625 45.015625 23.390625 
Q 45.015625 31 40.078125 35.4375 
Q 35.15625 39.890625 26.703125 39.890625 
Q 22.75 39.890625 18.8125 39.015625 
Q 14.890625 38.140625 10.796875 36.28125 
z
" id="BitstreamVeraSans-Roman-35"/>
      </defs>
      <g transform="translate(498.1041685915081 403.196875)scale(0.2 -0.2)">
       <use xlink:href="#BitstreamVeraSans-Roman-35"/>
      </g>
     </g>
    </g>
    <g id="xtick_7">
     <g id="line2d_58">
      <defs>
       <path d="M 0 0 
L 0 -2 
" id="m3f1508e0ff" style="stroke:#000000;stroke-width:0.5;"/>
      </defs>
      <g>
       <use style="stroke:#000000;stroke-width:0.5;" x="82.46000230980974" xlink:href="#m3f1508e0ff" y="384.0"/>
      </g>
     </g>
     <g id="line2d_59">
      <defs>
       <path d="M 0 0 
L 0 2 
" id="m1914989b7c" style="stroke:#000000;stroke-width:0.5;"/>
      </defs>
      <g>
       <use style="stroke:#000000;stroke-width:0.5;" x="82.46000230980974" xlink:href="#m1914989b7c" y="7.678217821782141"/>
      </g>
     </g>
    </g>
    <g id="xtick_8">
     <g id="line2d_60">
      <g>
       <use style="stroke:#000000;stroke-width:0.5;" x="98.27446486795824" xlink:href="#m3f1508e0ff" y="384.0"/>
      </g>
     </g>
     <g id="line2d_61">
      <g>
       <use style="stroke:#000000;stroke-width:0.5;" x="98.27446486795824" xlink:href="#m1914989b7c" y="7.678217821782141"/>
      </g>
     </g>
    </g>
    <g id="xtick_9">
     <g id="line2d_62">
      <g>
       <use style="stroke:#000000;stroke-width:0.5;" x="109.49500461961944" xlink:href="#m3f1508e0ff" y="384.0"/>
      </g>
     </g>
     <g id="line2d_63">
      <g>
       <use style="stroke:#000000;stroke-width:0.5;" x="109.49500461961944" xlink:href="#m1914989b7c" y="7.678217821782141"/>
      </g>
     </g>
    </g>
    <g id="xtick_10">
     <g id="line2d_64">
      <g>
       <use style="stroke:#000000;stroke-width:0.5;" x="118.1983314084919" xlink:href="#m3f1508e0ff" y="384.0"/>
      </g>
     </g>
     <g id="line2d_65">
      <g>
       <use style="stroke:#000000;stroke-width:0.5;" x="118.1983314084919" xlink:href="#m1914989b7c" y="7.678217821782141"/>
      </g>
     </g>
    </g>
    <g id="xtick_11">
     <g id="line2d_66">
      <g>
       <use style="stroke:#000000;stroke-width:0.5;" x="125.30946717776794" xlink:href="#m3f1508e0ff" y="384.0"/>
      </g>
     </g>
     <g id="line2d_67">
      <g>
       <use style="stroke:#000000;stroke-width:0.5;" x="125.30946717776794" xlink:href="#m1914989b7c" y="7.678217821782141"/>
      </g>
     </g>
    </g>
    <g id="xtick_12">
     <g id="line2d_68">
      <g>
       <use style="stroke:#000000;stroke-width:0.5;" x="131.321846802283" xlink:href="#m3f1508e0ff" y="384.0"/>
      </g>
     </g>
     <g id="line2d_69">
      <g>
       <use style="stroke:#000000;stroke-width:0.5;" x="131.321846802283" xlink:href="#m1914989b7c" y="7.678217821782141"/>
      </g>
     </g>
    </g>
    <g id="xtick_13">
     <g id="line2d_70">
      <g>
       <use style="stroke:#000000;stroke-width:0.5;" x="136.53000692942913" xlink:href="#m3f1508e0ff" y="384.0"/>
      </g>
     </g>
     <g id="line2d_71">
      <g>
       <use style="stroke:#000000;stroke-width:0.5;" x="136.53000692942913" xlink:href="#m1914989b7c" y="7.678217821782141"/>
      </g>
     </g>
    </g>
    <g id="xtick_14">
     <g id="line2d_72">
      <g>
       <use style="stroke:#000000;stroke-width:0.5;" x="141.12392973591648" xlink:href="#m3f1508e0ff" y="384.0"/>
      </g>
     </g>
     <g id="line2d_73">
      <g>
       <use style="stroke:#000000;stroke-width:0.5;" x="141.12392973591648" xlink:href="#m1914989b7c" y="7.678217821782141"/>
      </g>
     </g>
    </g>
    <g id="xtick_15">
     <g id="line2d_74">
      <g>
       <use style="stroke:#000000;stroke-width:0.5;" x="172.26833602811135" xlink:href="#m3f1508e0ff" y="384.0"/>
      </g>
     </g>
     <g id="line2d_75">
      <g>
       <use style="stroke:#000000;stroke-width:0.5;" x="172.26833602811135" xlink:href="#m1914989b7c" y="7.678217821782141"/>
      </g>
     </g>
    </g>
    <g id="xtick_16">
     <g id="line2d_76">
      <g>
       <use style="stroke:#000000;stroke-width:0.5;" x="188.08279858625988" xlink:href="#m3f1508e0ff" y="384.0"/>
      </g>
     </g>
     <g id="line2d_77">
      <g>
       <use style="stroke:#000000;stroke-width:0.5;" x="188.08279858625988" xlink:href="#m1914989b7c" y="7.678217821782141"/>
      </g>
     </g>
    </g>
    <g id="xtick_17">
     <g id="line2d_78">
      <g>
       <use style="stroke:#000000;stroke-width:0.5;" x="199.30333833792108" xlink:href="#m3f1508e0ff" y="384.0"/>
      </g>
     </g>
     <g id="line2d_79">
      <g>
       <use style="stroke:#000000;stroke-width:0.5;" x="199.30333833792108" xlink:href="#m1914989b7c" y="7.678217821782141"/>
      </g>
     </g>
    </g>
    <g id="xtick_18">
     <g id="line2d_80">
      <g>
       <use style="stroke:#000000;stroke-width:0.5;" x="208.00666512679354" xlink:href="#m3f1508e0ff" y="384.0"/>
      </g>
     </g>
     <g id="line2d_81">
      <g>
       <use style="stroke:#000000;stroke-width:0.5;" x="208.00666512679354" xlink:href="#m1914989b7c" y="7.678217821782141"/>
      </g>
     </g>
    </g>
    <g id="xtick_19">
     <g id="line2d_82">
      <g>
       <use style="stroke:#000000;stroke-width:0.5;" x="215.11780089606955" xlink:href="#m3f1508e0ff" y="384.0"/>
      </g>
     </g>
     <g id="line2d_83">
      <g>
       <use style="stroke:#000000;stroke-width:0.5;" x="215.11780089606955" xlink:href="#m1914989b7c" y="7.678217821782141"/>
      </g>
     </g>
    </g>
    <g id="xtick_20">
     <g id="line2d_84">
      <g>
       <use style="stroke:#000000;stroke-width:0.5;" x="221.13018052058462" xlink:href="#m3f1508e0ff" y="384.0"/>
      </g>
     </g>
     <g id="line2d_85">
      <g>
       <use style="stroke:#000000;stroke-width:0.5;" x="221.13018052058462" xlink:href="#m1914989b7c" y="7.678217821782141"/>
      </g>
     </g>
    </g>
    <g id="xtick_21">
     <g id="line2d_86">
      <g>
       <use style="stroke:#000000;stroke-width:0.5;" x="226.33834064773077" xlink:href="#m3f1508e0ff" y="384.0"/>
      </g>
     </g>
     <g id="line2d_87">
      <g>
       <use style="stroke:#000000;stroke-width:0.5;" x="226.33834064773077" xlink:href="#m1914989b7c" y="7.678217821782141"/>
      </g>
     </g>
    </g>
    <g id="xtick_22">
     <g id="line2d_88">
      <g>
       <use style="stroke:#000000;stroke-width:0.5;" x="230.93226345421812" xlink:href="#m3f1508e0ff" y="384.0"/>
      </g>
     </g>
     <g id="line2d_89">
      <g>
       <use style="stroke:#000000;stroke-width:0.5;" x="230.93226345421812" xlink:href="#m1914989b7c" y="7.678217821782141"/>
      </g>
     </g>
    </g>
    <g id="xtick_23">
     <g id="line2d_90">
      <g>
       <use style="stroke:#000000;stroke-width:0.5;" x="262.07666974641296" xlink:href="#m3f1508e0ff" y="384.0"/>
      </g>
     </g>
     <g id="line2d_91">
      <g>
       <use style="stroke:#000000;stroke-width:0.5;" x="262.07666974641296" xlink:href="#m1914989b7c" y="7.678217821782141"/>
      </g>
     </g>
    </g>
    <g id="xtick_24">
     <g id="line2d_92">
      <g>
       <use style="stroke:#000000;stroke-width:0.5;" x="277.8911323045615" xlink:href="#m3f1508e0ff" y="384.0"/>
      </g>
     </g>
     <g id="line2d_93">
      <g>
       <use style="stroke:#000000;stroke-width:0.5;" x="277.8911323045615" xlink:href="#m1914989b7c" y="7.678217821782141"/>
      </g>
     </g>
    </g>
    <g id="xtick_25">
     <g id="line2d_94">
      <g>
       <use style="stroke:#000000;stroke-width:0.5;" x="289.1116720562227" xlink:href="#m3f1508e0ff" y="384.0"/>
      </g>
     </g>
     <g id="line2d_95">
      <g>
       <use style="stroke:#000000;stroke-width:0.5;" x="289.1116720562227" xlink:href="#m1914989b7c" y="7.678217821782141"/>
      </g>
     </g>
    </g>
    <g id="xtick_26">
     <g id="line2d_96">
      <g>
       <use style="stroke:#000000;stroke-width:0.5;" x="297.81499884509515" xlink:href="#m3f1508e0ff" y="384.0"/>
      </g>
     </g>
     <g id="line2d_97">
      <g>
       <use style="stroke:#000000;stroke-width:0.5;" x="297.81499884509515" xlink:href="#m1914989b7c" y="7.678217821782141"/>
      </g>
     </g>
    </g>
    <g id="xtick_27">
     <g id="line2d_98">
      <g>
       <use style="stroke:#000000;stroke-width:0.5;" x="304.9261346143712" xlink:href="#m3f1508e0ff" y="384.0"/>
      </g>
     </g>
     <g id="line2d_99">
      <g>
       <use style="stroke:#000000;stroke-width:0.5;" x="304.9261346143712" xlink:href="#m1914989b7c" y="7.678217821782141"/>
      </g>
     </g>
    </g>
    <g id="xtick_28">
     <g id="line2d_100">
      <g>
       <use style="stroke:#000000;stroke-width:0.5;" x="310.9385142388862" xlink:href="#m3f1508e0ff" y="384.0"/>
      </g>
     </g>
     <g id="line2d_101">
      <g>
       <use style="stroke:#000000;stroke-width:0.5;" x="310.9385142388862" xlink:href="#m1914989b7c" y="7.678217821782141"/>
      </g>
     </g>
    </g>
    <g id="xtick_29">
     <g id="line2d_102">
      <g>
       <use style="stroke:#000000;stroke-width:0.5;" x="316.1466743660324" xlink:href="#m3f1508e0ff" y="384.0"/>
      </g>
     </g>
     <g id="line2d_103">
      <g>
       <use style="stroke:#000000;stroke-width:0.5;" x="316.1466743660324" xlink:href="#m1914989b7c" y="7.678217821782141"/>
      </g>
     </g>
    </g>
    <g id="xtick_30">
     <g id="line2d_104">
      <g>
       <use style="stroke:#000000;stroke-width:0.5;" x="320.7405971725197" xlink:href="#m3f1508e0ff" y="384.0"/>
      </g>
     </g>
     <g id="line2d_105">
      <g>
       <use style="stroke:#000000;stroke-width:0.5;" x="320.7405971725197" xlink:href="#m1914989b7c" y="7.678217821782141"/>
      </g>
     </g>
    </g>
    <g id="xtick_31">
     <g id="line2d_106">
      <g>
       <use style="stroke:#000000;stroke-width:0.5;" x="351.8850034647146" xlink:href="#m3f1508e0ff" y="384.0"/>
      </g>
     </g>
     <g id="line2d_107">
      <g>
       <use style="stroke:#000000;stroke-width:0.5;" x="351.8850034647146" xlink:href="#m1914989b7c" y="7.678217821782141"/>
      </g>
     </g>
    </g>
    <g id="xtick_32">
     <g id="line2d_108">
      <g>
       <use style="stroke:#000000;stroke-width:0.5;" x="367.69946602286313" xlink:href="#m3f1508e0ff" y="384.0"/>
      </g>
     </g>
     <g id="line2d_109">
      <g>
       <use style="stroke:#000000;stroke-width:0.5;" x="367.69946602286313" xlink:href="#m1914989b7c" y="7.678217821782141"/>
      </g>
     </g>
    </g>
    <g id="xtick_33">
     <g id="line2d_110">
      <g>
       <use style="stroke:#000000;stroke-width:0.5;" x="378.9200057745243" xlink:href="#m3f1508e0ff" y="384.0"/>
      </g>
     </g>
     <g id="line2d_111">
      <g>
       <use style="stroke:#000000;stroke-width:0.5;" x="378.9200057745243" xlink:href="#m1914989b7c" y="7.678217821782141"/>
      </g>
     </g>
    </g>
    <g id="xtick_34">
     <g id="line2d_112">
      <g>
       <use style="stroke:#000000;stroke-width:0.5;" x="387.6233325633968" xlink:href="#m3f1508e0ff" y="384.0"/>
      </g>
     </g>
     <g id="line2d_113">
      <g>
       <use style="stroke:#000000;stroke-width:0.5;" x="387.6233325633968" xlink:href="#m1914989b7c" y="7.678217821782141"/>
      </g>
     </g>
    </g>
    <g id="xtick_35">
     <g id="line2d_114">
      <g>
       <use style="stroke:#000000;stroke-width:0.5;" x="394.73446833267286" xlink:href="#m3f1508e0ff" y="384.0"/>
      </g>
     </g>
     <g id="line2d_115">
      <g>
       <use style="stroke:#000000;stroke-width:0.5;" x="394.73446833267286" xlink:href="#m1914989b7c" y="7.678217821782141"/>
      </g>
     </g>
    </g>
    <g id="xtick_36">
     <g id="line2d_116">
      <g>
       <use style="stroke:#000000;stroke-width:0.5;" x="400.74684795718787" xlink:href="#m3f1508e0ff" y="384.0"/>
      </g>
     </g>
     <g id="line2d_117">
      <g>
       <use style="stroke:#000000;stroke-width:0.5;" x="400.74684795718787" xlink:href="#m1914989b7c" y="7.678217821782141"/>
      </g>
     </g>
    </g>
    <g id="xtick_37">
     <g id="line2d_118">
      <g>
       <use style="stroke:#000000;stroke-width:0.5;" x="405.95500808433405" xlink:href="#m3f1508e0ff" y="384.0"/>
      </g>
     </g>
     <g id="line2d_119">
      <g>
       <use style="stroke:#000000;stroke-width:0.5;" x="405.95500808433405" xlink:href="#m1914989b7c" y="7.678217821782141"/>
      </g>
     </g>
    </g>
    <g id="xtick_38">
     <g id="line2d_120">
      <g>
       <use style="stroke:#000000;stroke-width:0.5;" x="410.5489308908214" xlink:href="#m3f1508e0ff" y="384.0"/>
      </g>
     </g>
     <g id="line2d_121">
      <g>
       <use style="stroke:#000000;stroke-width:0.5;" x="410.5489308908214" xlink:href="#m1914989b7c" y="7.678217821782141"/>
      </g>
     </g>
    </g>
    <g id="xtick_39">
     <g id="line2d_122">
      <g>
       <use style="stroke:#000000;stroke-width:0.5;" x="441.69333718301624" xlink:href="#m3f1508e0ff" y="384.0"/>
      </g>
     </g>
     <g id="line2d_123">
      <g>
       <use style="stroke:#000000;stroke-width:0.5;" x="441.69333718301624" xlink:href="#m1914989b7c" y="7.678217821782141"/>
      </g>
     </g>
    </g>
    <g id="xtick_40">
     <g id="line2d_124">
      <g>
       <use style="stroke:#000000;stroke-width:0.5;" x="457.5077997411648" xlink:href="#m3f1508e0ff" y="384.0"/>
      </g>
     </g>
     <g id="line2d_125">
      <g>
       <use style="stroke:#000000;stroke-width:0.5;" x="457.5077997411648" xlink:href="#m1914989b7c" y="7.678217821782141"/>
      </g>
     </g>
    </g>
    <g id="xtick_41">
     <g id="line2d_126">
      <g>
       <use style="stroke:#000000;stroke-width:0.5;" x="468.72833949282597" xlink:href="#m3f1508e0ff" y="384.0"/>
      </g>
     </g>
     <g id="line2d_127">
      <g>
       <use style="stroke:#000000;stroke-width:0.5;" x="468.72833949282597" xlink:href="#m1914989b7c" y="7.678217821782141"/>
      </g>
     </g>
    </g>
    <g id="xtick_42">
     <g id="line2d_128">
      <g>
       <use style="stroke:#000000;stroke-width:0.5;" x="477.4316662816984" xlink:href="#m3f1508e0ff" y="384.0"/>
      </g>
     </g>
     <g id="line2d_129">
      <g>
       <use style="stroke:#000000;stroke-width:0.5;" x="477.4316662816984" xlink:href="#m1914989b7c" y="7.678217821782141"/>
      </g>
     </g>
    </g>
    <g id="xtick_43">
     <g id="line2d_130">
      <g>
       <use style="stroke:#000000;stroke-width:0.5;" x="484.5428020509745" xlink:href="#m3f1508e0ff" y="384.0"/>
      </g>
     </g>
     <g id="line2d_131">
      <g>
       <use style="stroke:#000000;stroke-width:0.5;" x="484.5428020509745" xlink:href="#m1914989b7c" y="7.678217821782141"/>
      </g>
     </g>
    </g>
    <g id="xtick_44">
     <g id="line2d_132">
      <g>
       <use style="stroke:#000000;stroke-width:0.5;" x="490.5551816754895" xlink:href="#m3f1508e0ff" y="384.0"/>
      </g>
     </g>
     <g id="line2d_133">
      <g>
       <use style="stroke:#000000;stroke-width:0.5;" x="490.5551816754895" xlink:href="#m1914989b7c" y="7.678217821782141"/>
      </g>
     </g>
    </g>
    <g id="xtick_45">
     <g id="line2d_134">
      <g>
       <use style="stroke:#000000;stroke-width:0.5;" x="495.76334180263564" xlink:href="#m3f1508e0ff" y="384.0"/>
      </g>
     </g>
     <g id="line2d_135">
      <g>
       <use style="stroke:#000000;stroke-width:0.5;" x="495.76334180263564" xlink:href="#m1914989b7c" y="7.678217821782141"/>
      </g>
     </g>
    </g>
    <g id="xtick_46">
     <g id="line2d_136">
      <g>
       <use style="stroke:#000000;stroke-width:0.5;" x="500.35726460912304" xlink:href="#m3f1508e0ff" y="384.0"/>
      </g>
     </g>
     <g id="line2d_137">
      <g>
       <use style="stroke:#000000;stroke-width:0.5;" x="500.35726460912304" xlink:href="#m1914989b7c" y="7.678217821782141"/>
      </g>
     </g>
    </g>
    <g id="xtick_47">
     <g id="line2d_138">
      <g>
       <use style="stroke:#000000;stroke-width:0.5;" x="531.5016709013179" xlink:href="#m3f1508e0ff" y="384.0"/>
      </g>
     </g>
     <g id="line2d_139">
      <g>
       <use style="stroke:#000000;stroke-width:0.5;" x="531.5016709013179" xlink:href="#m1914989b7c" y="7.678217821782141"/>
      </g>
     </g>
    </g>
    <g id="xtick_48">
     <g id="line2d_140">
      <g>
       <use style="stroke:#000000;stroke-width:0.5;" x="547.3161334594664" xlink:href="#m3f1508e0ff" y="384.0"/>
      </g>
     </g>
     <g id="line2d_141">
      <g>
       <use style="stroke:#000000;stroke-width:0.5;" x="547.3161334594664" xlink:href="#m1914989b7c" y="7.678217821782141"/>
      </g>
     </g>
    </g>
    <g id="xtick_49">
     <g id="line2d_142">
      <g>
       <use style="stroke:#000000;stroke-width:0.5;" x="558.5366732111275" xlink:href="#m3f1508e0ff" y="384.0"/>
      </g>
     </g>
     <g id="line2d_143">
      <g>
       <use style="stroke:#000000;stroke-width:0.5;" x="558.5366732111275" xlink:href="#m1914989b7c" y="7.678217821782141"/>
      </g>
     </g>
    </g>
    <g id="xtick_50">
     <g id="line2d_144">
      <g>
       <use style="stroke:#000000;stroke-width:0.5;" x="567.24" xlink:href="#m3f1508e0ff" y="384.0"/>
      </g>
     </g>
     <g id="line2d_145">
      <g>
       <use style="stroke:#000000;stroke-width:0.5;" x="567.24" xlink:href="#m1914989b7c" y="7.678217821782141"/>
      </g>
     </g>
    </g>
    <g id="text_7">
     <!-- log10 of FEvals / DIM -->
     <defs>
      <path id="BitstreamVeraSans-Roman-20"/>
      <path d="M 9.8125 72.90625 
L 24.515625 72.90625 
L 43.109375 23.296875 
L 61.8125 72.90625 
L 76.515625 72.90625 
L 76.515625 0 
L 66.890625 0 
L 66.890625 64.015625 
L 48.09375 14.015625 
L 38.1875 14.015625 
L 19.390625 64.015625 
L 19.390625 0 
L 9.8125 0 
z
" id="BitstreamVeraSans-Roman-4d"/>
      <path d="M 30.609375 48.390625 
Q 23.390625 48.390625 19.1875 42.75 
Q 14.984375 37.109375 14.984375 27.296875 
Q 14.984375 17.484375 19.15625 11.84375 
Q 23.34375 6.203125 30.609375 6.203125 
Q 37.796875 6.203125 41.984375 11.859375 
Q 46.1875 17.53125 46.1875 27.296875 
Q 46.1875 37.015625 41.984375 42.703125 
Q 37.796875 48.390625 30.609375 48.390625 
M 30.609375 56 
Q 42.328125 56 49.015625 48.375 
Q 55.71875 40.765625 55.71875 27.296875 
Q 55.71875 13.875 49.015625 6.21875 
Q 42.328125 -1.421875 30.609375 -1.421875 
Q 18.84375 -1.421875 12.171875 6.21875 
Q 5.515625 13.875 5.515625 27.296875 
Q 5.515625 40.765625 12.171875 48.375 
Q 18.84375 56 30.609375 56 
" id="BitstreamVeraSans-Roman-6f"/>
      <path d="M 9.421875 75.984375 
L 18.40625 75.984375 
L 18.40625 0 
L 9.421875 0 
z
" id="BitstreamVeraSans-Roman-6c"/>
      <path d="M 9.8125 72.90625 
L 51.703125 72.90625 
L 51.703125 64.59375 
L 19.671875 64.59375 
L 19.671875 43.109375 
L 48.578125 43.109375 
L 48.578125 34.8125 
L 19.671875 34.8125 
L 19.671875 0 
L 9.8125 0 
z
" id="BitstreamVeraSans-Roman-46"/>
      <path d="M 9.8125 72.90625 
L 55.90625 72.90625 
L 55.90625 64.59375 
L 19.671875 64.59375 
L 19.671875 43.015625 
L 54.390625 43.015625 
L 54.390625 34.71875 
L 19.671875 34.71875 
L 19.671875 8.296875 
L 56.78125 8.296875 
L 56.78125 0 
L 9.8125 0 
z
" id="BitstreamVeraSans-Roman-45"/>
      <path d="M 19.671875 64.796875 
L 19.671875 8.109375 
L 31.59375 8.109375 
Q 46.6875 8.109375 53.6875 14.9375 
Q 60.6875 21.78125 60.6875 36.53125 
Q 60.6875 51.171875 53.6875 57.984375 
Q 46.6875 64.796875 31.59375 64.796875 
z
M 9.8125 72.90625 
L 30.078125 72.90625 
Q 51.265625 72.90625 61.171875 64.09375 
Q 71.09375 55.28125 71.09375 36.53125 
Q 71.09375 17.671875 61.125 8.828125 
Q 51.171875 0 30.078125 0 
L 9.8125 0 
z
" id="BitstreamVeraSans-Roman-44"/>
      <path d="M 25.390625 72.90625 
L 33.6875 72.90625 
L 8.296875 -9.28125 
L 0 -9.28125 
z
" id="BitstreamVeraSans-Roman-2f"/>
      <path d="M 2.984375 54.6875 
L 12.5 54.6875 
L 29.59375 8.796875 
L 46.6875 54.6875 
L 56.203125 54.6875 
L 35.6875 0 
L 23.484375 0 
z
" id="BitstreamVeraSans-Roman-76"/>
      <path d="M 45.40625 27.984375 
Q 45.40625 37.75 41.375 43.109375 
Q 37.359375 48.484375 30.078125 48.484375 
Q 22.859375 48.484375 18.828125 43.109375 
Q 14.796875 37.75 14.796875 27.984375 
Q 14.796875 18.265625 18.828125 12.890625 
Q 22.859375 7.515625 30.078125 7.515625 
Q 37.359375 7.515625 41.375 12.890625 
Q 45.40625 18.265625 45.40625 27.984375 
M 54.390625 6.78125 
Q 54.390625 -7.171875 48.1875 -13.984375 
Q 42 -20.796875 29.203125 -20.796875 
Q 24.46875 -20.796875 20.265625 -20.09375 
Q 16.0625 -19.390625 12.109375 -17.921875 
L 12.109375 -9.1875 
Q 16.0625 -11.328125 19.921875 -12.34375 
Q 23.78125 -13.375 27.78125 -13.375 
Q 36.625 -13.375 41.015625 -8.765625 
Q 45.40625 -4.15625 45.40625 5.171875 
L 45.40625 9.625 
Q 42.625 4.78125 38.28125 2.390625 
Q 33.9375 0 27.875 0 
Q 17.828125 0 11.671875 7.65625 
Q 5.515625 15.328125 5.515625 27.984375 
Q 5.515625 40.671875 11.671875 48.328125 
Q 17.828125 56 27.875 56 
Q 33.9375 56 38.28125 53.609375 
Q 42.625 51.21875 45.40625 46.390625 
L 45.40625 54.6875 
L 54.390625 54.6875 
z
" id="BitstreamVeraSans-Roman-67"/>
      <path d="M 37.109375 75.984375 
L 37.109375 68.5 
L 28.515625 68.5 
Q 23.6875 68.5 21.796875 66.546875 
Q 19.921875 64.59375 19.921875 59.515625 
L 19.921875 54.6875 
L 34.71875 54.6875 
L 34.71875 47.703125 
L 19.921875 47.703125 
L 19.921875 0 
L 10.890625 0 
L 10.890625 47.703125 
L 2.296875 47.703125 
L 2.296875 54.6875 
L 10.890625 54.6875 
L 10.890625 58.5 
Q 10.890625 67.625 15.140625 71.796875 
Q 19.390625 75.984375 28.609375 75.984375 
z
" id="BitstreamVeraSans-Roman-66"/>
      <path d="M 34.28125 27.484375 
Q 23.390625 27.484375 19.1875 25 
Q 14.984375 22.515625 14.984375 16.5 
Q 14.984375 11.71875 18.140625 8.90625 
Q 21.296875 6.109375 26.703125 6.109375 
Q 34.1875 6.109375 38.703125 11.40625 
Q 43.21875 16.703125 43.21875 25.484375 
L 43.21875 27.484375 
z
M 52.203125 31.203125 
L 52.203125 0 
L 43.21875 0 
L 43.21875 8.296875 
Q 40.140625 3.328125 35.546875 0.953125 
Q 30.953125 -1.421875 24.3125 -1.421875 
Q 15.921875 -1.421875 10.953125 3.296875 
Q 6 8.015625 6 15.921875 
Q 6 25.140625 12.171875 29.828125 
Q 18.359375 34.515625 30.609375 34.515625 
L 43.21875 34.515625 
L 43.21875 35.40625 
Q 43.21875 41.609375 39.140625 45 
Q 35.0625 48.390625 27.6875 48.390625 
Q 23 48.390625 18.546875 47.265625 
Q 14.109375 46.140625 10.015625 43.890625 
L 10.015625 52.203125 
Q 14.9375 54.109375 19.578125 55.046875 
Q 24.21875 56 28.609375 56 
Q 40.484375 56 46.34375 49.84375 
Q 52.203125 43.703125 52.203125 31.203125 
" id="BitstreamVeraSans-Roman-61"/>
      <path d="M 44.28125 53.078125 
L 44.28125 44.578125 
Q 40.484375 46.53125 36.375 47.5 
Q 32.28125 48.484375 27.875 48.484375 
Q 21.1875 48.484375 17.84375 46.4375 
Q 14.5 44.390625 14.5 40.28125 
Q 14.5 37.15625 16.890625 35.375 
Q 19.28125 33.59375 26.515625 31.984375 
L 29.59375 31.296875 
Q 39.15625 29.25 43.1875 25.515625 
Q 47.21875 21.78125 47.21875 15.09375 
Q 47.21875 7.46875 41.1875 3.015625 
Q 35.15625 -1.421875 24.609375 -1.421875 
Q 20.21875 -1.421875 15.453125 -0.5625 
Q 10.6875 0.296875 5.421875 2 
L 5.421875 11.28125 
Q 10.40625 8.6875 15.234375 7.390625 
Q 20.0625 6.109375 24.8125 6.109375 
Q 31.15625 6.109375 34.5625 8.28125 
Q 37.984375 10.453125 37.984375 14.40625 
Q 37.984375 18.0625 35.515625 20.015625 
Q 33.0625 21.96875 24.703125 23.78125 
L 21.578125 24.515625 
Q 13.234375 26.265625 9.515625 29.90625 
Q 5.8125 33.546875 5.8125 39.890625 
Q 5.8125 47.609375 11.28125 51.796875 
Q 16.75 56 26.8125 56 
Q 31.78125 56 36.171875 55.265625 
Q 40.578125 54.546875 44.28125 53.078125 
" id="BitstreamVeraSans-Roman-73"/>
      <path d="M 9.8125 72.90625 
L 19.671875 72.90625 
L 19.671875 0 
L 9.8125 0 
z
" id="BitstreamVeraSans-Roman-49"/>
     </defs>
     <g transform="translate(206.25906249999997 427.55312499999997)scale(0.2 -0.2)">
      <use xlink:href="#BitstreamVeraSans-Roman-6c"/>
      <use x="27.783203125" xlink:href="#BitstreamVeraSans-Roman-6f"/>
      <use x="88.96484375" xlink:href="#BitstreamVeraSans-Roman-67"/>
      <use x="152.44140625" xlink:href="#BitstreamVeraSans-Roman-31"/>
      <use x="216.064453125" xlink:href="#BitstreamVeraSans-Roman-30"/>
      <use x="279.6875" xlink:href="#BitstreamVeraSans-Roman-20"/>
      <use x="311.474609375" xlink:href="#BitstreamVeraSans-Roman-6f"/>
      <use x="372.65625" xlink:href="#BitstreamVeraSans-Roman-66"/>
      <use x="407.861328125" xlink:href="#BitstreamVeraSans-Roman-20"/>
      <use x="439.6484375" xlink:href="#BitstreamVeraSans-Roman-46"/>
      <use x="497.16796875" xlink:href="#BitstreamVeraSans-Roman-45"/>
      <use x="560.3515625" xlink:href="#BitstreamVeraSans-Roman-76"/>
      <use x="619.53125" xlink:href="#BitstreamVeraSans-Roman-61"/>
      <use x="680.810546875" xlink:href="#BitstreamVeraSans-Roman-6c"/>
      <use x="708.59375" xlink:href="#BitstreamVeraSans-Roman-73"/>
      <use x="760.693359375" xlink:href="#BitstreamVeraSans-Roman-20"/>
      <use x="792.48046875" xlink:href="#BitstreamVeraSans-Roman-2f"/>
      <use x="826.171875" xlink:href="#BitstreamVeraSans-Roman-20"/>
      <use x="857.958984375" xlink:href="#BitstreamVeraSans-Roman-44"/>
      <use x="934.9609375" xlink:href="#BitstreamVeraSans-Roman-49"/>
      <use x="964.453125" xlink:href="#BitstreamVeraSans-Roman-4d"/>
     </g>
    </g>
   </g>
   <g id="matplotlib.axis_2">
    <g id="ytick_1">
     <g id="line2d_146">
      <path clip-path="url(#p9b9ac8bb26)" d="M 55.425 384 
L 567.24 384 
" style="fill:none;stroke:#000000;stroke-dasharray:1.000000,3.000000;stroke-dashoffset:0.0;stroke-width:0.5;"/>
     </g>
     <g id="line2d_147">
      <defs>
       <path d="M 0 0 
L 4 0 
" id="ma6ed56e2fc" style="stroke:#000000;stroke-width:0.5;"/>
      </defs>
      <g>
       <use style="stroke:#000000;stroke-width:0.5;" x="55.425000000000004" xlink:href="#ma6ed56e2fc" y="384.0"/>
      </g>
     </g>
     <g id="line2d_148">
      <defs>
       <path d="M 0 0 
L -4 0 
" id="m10fbab8ce9" style="stroke:#000000;stroke-width:0.5;"/>
      </defs>
      <g>
       <use style="stroke:#000000;stroke-width:0.5;" x="567.24" xlink:href="#m10fbab8ce9" y="384.0"/>
      </g>
     </g>
     <g id="text_8">
      <!-- 0.0 -->
      <defs>
       <path d="M 10.6875 12.40625 
L 21 12.40625 
L 21 0 
L 10.6875 0 
z
" id="BitstreamVeraSans-Roman-2e"/>
      </defs>
      <g transform="translate(25.980000000000004 388.41499999999996)scale(0.16 -0.16)">
       <use xlink:href="#BitstreamVeraSans-Roman-30"/>
       <use x="63.623046875" xlink:href="#BitstreamVeraSans-Roman-2e"/>
       <use x="95.41015625" xlink:href="#BitstreamVeraSans-Roman-30"/>
      </g>
     </g>
    </g>
    <g id="ytick_2">
     <g id="line2d_149">
      <path clip-path="url(#p9b9ac8bb26)" d="M 55.425 309.480835 
L 567.24 309.480835 
" style="fill:none;stroke:#000000;stroke-dasharray:1.000000,3.000000;stroke-dashoffset:0.0;stroke-width:0.5;"/>
     </g>
     <g id="line2d_150">
      <g>
       <use style="stroke:#000000;stroke-width:0.5;" x="55.425000000000004" xlink:href="#ma6ed56e2fc" y="309.48083521223407"/>
      </g>
     </g>
     <g id="line2d_151">
      <g>
       <use style="stroke:#000000;stroke-width:0.5;" x="567.24" xlink:href="#m10fbab8ce9" y="309.48083521223407"/>
      </g>
     </g>
     <g id="text_9">
      <!-- 0.2 -->
      <g transform="translate(25.980000000000004 313.8958352122341)scale(0.16 -0.16)">
       <use xlink:href="#BitstreamVeraSans-Roman-30"/>
       <use x="63.623046875" xlink:href="#BitstreamVeraSans-Roman-2e"/>
       <use x="95.41015625" xlink:href="#BitstreamVeraSans-Roman-32"/>
      </g>
     </g>
    </g>
    <g id="ytick_3">
     <g id="line2d_152">
      <path clip-path="url(#p9b9ac8bb26)" d="M 55.425 234.96167 
L 567.24 234.96167 
" style="fill:none;stroke:#000000;stroke-dasharray:1.000000,3.000000;stroke-dashoffset:0.0;stroke-width:0.5;"/>
     </g>
     <g id="line2d_153">
      <g>
       <use style="stroke:#000000;stroke-width:0.5;" x="55.425000000000004" xlink:href="#ma6ed56e2fc" y="234.96167042446817"/>
      </g>
     </g>
     <g id="line2d_154">
      <g>
       <use style="stroke:#000000;stroke-width:0.5;" x="567.24" xlink:href="#m10fbab8ce9" y="234.96167042446817"/>
      </g>
     </g>
     <g id="text_10">
      <!-- 0.4 -->
      <g transform="translate(25.980000000000004 239.37667042446813)scale(0.16 -0.16)">
       <use xlink:href="#BitstreamVeraSans-Roman-30"/>
       <use x="63.623046875" xlink:href="#BitstreamVeraSans-Roman-2e"/>
       <use x="95.41015625" xlink:href="#BitstreamVeraSans-Roman-34"/>
      </g>
     </g>
    </g>
    <g id="ytick_4">
     <g id="line2d_155">
      <path clip-path="url(#p9b9ac8bb26)" d="M 55.425 160.442506 
L 567.24 160.442506 
" style="fill:none;stroke:#000000;stroke-dasharray:1.000000,3.000000;stroke-dashoffset:0.0;stroke-width:0.5;"/>
     </g>
     <g id="line2d_156">
      <g>
       <use style="stroke:#000000;stroke-width:0.5;" x="55.425000000000004" xlink:href="#ma6ed56e2fc" y="160.44250563670224"/>
      </g>
     </g>
     <g id="line2d_157">
      <g>
       <use style="stroke:#000000;stroke-width:0.5;" x="567.24" xlink:href="#m10fbab8ce9" y="160.44250563670224"/>
      </g>
     </g>
     <g id="text_11">
      <!-- 0.6 -->
      <defs>
       <path d="M 33.015625 40.375 
Q 26.375 40.375 22.484375 35.828125 
Q 18.609375 31.296875 18.609375 23.390625 
Q 18.609375 15.53125 22.484375 10.953125 
Q 26.375 6.390625 33.015625 6.390625 
Q 39.65625 6.390625 43.53125 10.953125 
Q 47.40625 15.53125 47.40625 23.390625 
Q 47.40625 31.296875 43.53125 35.828125 
Q 39.65625 40.375 33.015625 40.375 
M 52.59375 71.296875 
L 52.59375 62.3125 
Q 48.875 64.0625 45.09375 64.984375 
Q 41.3125 65.921875 37.59375 65.921875 
Q 27.828125 65.921875 22.671875 59.328125 
Q 17.53125 52.734375 16.796875 39.40625 
Q 19.671875 43.65625 24.015625 45.921875 
Q 28.375 48.1875 33.59375 48.1875 
Q 44.578125 48.1875 50.953125 41.515625 
Q 57.328125 34.859375 57.328125 23.390625 
Q 57.328125 12.15625 50.6875 5.359375 
Q 44.046875 -1.421875 33.015625 -1.421875 
Q 20.359375 -1.421875 13.671875 8.265625 
Q 6.984375 17.96875 6.984375 36.375 
Q 6.984375 53.65625 15.1875 63.9375 
Q 23.390625 74.21875 37.203125 74.21875 
Q 40.921875 74.21875 44.703125 73.484375 
Q 48.484375 72.75 52.59375 71.296875 
" id="BitstreamVeraSans-Roman-36"/>
      </defs>
      <g transform="translate(25.980000000000004 164.85750563670223)scale(0.16 -0.16)">
       <use xlink:href="#BitstreamVeraSans-Roman-30"/>
       <use x="63.623046875" xlink:href="#BitstreamVeraSans-Roman-2e"/>
       <use x="95.41015625" xlink:href="#BitstreamVeraSans-Roman-36"/>
      </g>
     </g>
    </g>
    <g id="ytick_5">
     <g id="line2d_158">
      <path clip-path="url(#p9b9ac8bb26)" d="M 55.425 85.923341 
L 567.24 85.923341 
" style="fill:none;stroke:#000000;stroke-dasharray:1.000000,3.000000;stroke-dashoffset:0.0;stroke-width:0.5;"/>
     </g>
     <g id="line2d_159">
      <g>
       <use style="stroke:#000000;stroke-width:0.5;" x="55.425000000000004" xlink:href="#ma6ed56e2fc" y="85.92334084893633"/>
      </g>
     </g>
     <g id="line2d_160">
      <g>
       <use style="stroke:#000000;stroke-width:0.5;" x="567.24" xlink:href="#m10fbab8ce9" y="85.92334084893633"/>
      </g>
     </g>
     <g id="text_12">
      <!-- 0.8 -->
      <defs>
       <path d="M 31.78125 34.625 
Q 24.75 34.625 20.71875 30.859375 
Q 16.703125 27.09375 16.703125 20.515625 
Q 16.703125 13.921875 20.71875 10.15625 
Q 24.75 6.390625 31.78125 6.390625 
Q 38.8125 6.390625 42.859375 10.171875 
Q 46.921875 13.96875 46.921875 20.515625 
Q 46.921875 27.09375 42.890625 30.859375 
Q 38.875 34.625 31.78125 34.625 
M 21.921875 38.8125 
Q 15.578125 40.375 12.03125 44.71875 
Q 8.5 49.078125 8.5 55.328125 
Q 8.5 64.0625 14.71875 69.140625 
Q 20.953125 74.21875 31.78125 74.21875 
Q 42.671875 74.21875 48.875 69.140625 
Q 55.078125 64.0625 55.078125 55.328125 
Q 55.078125 49.078125 51.53125 44.71875 
Q 48 40.375 41.703125 38.8125 
Q 48.828125 37.15625 52.796875 32.3125 
Q 56.78125 27.484375 56.78125 20.515625 
Q 56.78125 9.90625 50.3125 4.234375 
Q 43.84375 -1.421875 31.78125 -1.421875 
Q 19.734375 -1.421875 13.25 4.234375 
Q 6.78125 9.90625 6.78125 20.515625 
Q 6.78125 27.484375 10.78125 32.3125 
Q 14.796875 37.15625 21.921875 38.8125 
M 18.3125 54.390625 
Q 18.3125 48.734375 21.84375 45.5625 
Q 25.390625 42.390625 31.78125 42.390625 
Q 38.140625 42.390625 41.71875 45.5625 
Q 45.3125 48.734375 45.3125 54.390625 
Q 45.3125 60.0625 41.71875 63.234375 
Q 38.140625 66.40625 31.78125 66.40625 
Q 25.390625 66.40625 21.84375 63.234375 
Q 18.3125 60.0625 18.3125 54.390625 
" id="BitstreamVeraSans-Roman-38"/>
      </defs>
      <g transform="translate(25.980000000000004 90.33834084893635)scale(0.16 -0.16)">
       <use xlink:href="#BitstreamVeraSans-Roman-30"/>
       <use x="63.623046875" xlink:href="#BitstreamVeraSans-Roman-2e"/>
       <use x="95.41015625" xlink:href="#BitstreamVeraSans-Roman-38"/>
      </g>
     </g>
    </g>
    <g id="ytick_6">
     <g id="line2d_161">
      <path clip-path="url(#p9b9ac8bb26)" d="M 55.425 11.404176 
L 567.24 11.404176 
" style="fill:none;stroke:#000000;stroke-dasharray:1.000000,3.000000;stroke-dashoffset:0.0;stroke-width:0.5;"/>
     </g>
     <g id="line2d_162">
      <g>
       <use style="stroke:#000000;stroke-width:0.5;" x="55.425000000000004" xlink:href="#ma6ed56e2fc" y="11.40417606117046"/>
      </g>
     </g>
     <g id="line2d_163">
      <g>
       <use style="stroke:#000000;stroke-width:0.5;" x="567.24" xlink:href="#m10fbab8ce9" y="11.40417606117046"/>
      </g>
     </g>
     <g id="text_13">
      <!-- 1.0 -->
      <g transform="translate(25.980000000000004 15.81917606117048)scale(0.16 -0.16)">
       <use xlink:href="#BitstreamVeraSans-Roman-31"/>
       <use x="63.623046875" xlink:href="#BitstreamVeraSans-Roman-2e"/>
       <use x="95.41015625" xlink:href="#BitstreamVeraSans-Roman-30"/>
      </g>
     </g>
    </g>
    <g id="text_14">
     <!-- proportion of trials -->
     <defs>
      <path d="M 54.890625 33.015625 
L 54.890625 0 
L 45.90625 0 
L 45.90625 32.71875 
Q 45.90625 40.484375 42.875 44.328125 
Q 39.84375 48.1875 33.796875 48.1875 
Q 26.515625 48.1875 22.3125 43.546875 
Q 18.109375 38.921875 18.109375 30.90625 
L 18.109375 0 
L 9.078125 0 
L 9.078125 54.6875 
L 18.109375 54.6875 
L 18.109375 46.1875 
Q 21.34375 51.125 25.703125 53.5625 
Q 30.078125 56 35.796875 56 
Q 45.21875 56 50.046875 50.171875 
Q 54.890625 44.34375 54.890625 33.015625 
" id="BitstreamVeraSans-Roman-6e"/>
      <path d="M 9.421875 54.6875 
L 18.40625 54.6875 
L 18.40625 0 
L 9.421875 0 
z
M 9.421875 75.984375 
L 18.40625 75.984375 
L 18.40625 64.59375 
L 9.421875 64.59375 
z
" id="BitstreamVeraSans-Roman-69"/>
      <path d="M 18.3125 70.21875 
L 18.3125 54.6875 
L 36.8125 54.6875 
L 36.8125 47.703125 
L 18.3125 47.703125 
L 18.3125 18.015625 
Q 18.3125 11.328125 20.140625 9.421875 
Q 21.96875 7.515625 27.59375 7.515625 
L 36.8125 7.515625 
L 36.8125 0 
L 27.59375 0 
Q 17.1875 0 13.234375 3.875 
Q 9.28125 7.765625 9.28125 18.015625 
L 9.28125 47.703125 
L 2.6875 47.703125 
L 2.6875 54.6875 
L 9.28125 54.6875 
L 9.28125 70.21875 
z
" id="BitstreamVeraSans-Roman-74"/>
      <path d="M 41.109375 46.296875 
Q 39.59375 47.171875 37.8125 47.578125 
Q 36.03125 48 33.890625 48 
Q 26.265625 48 22.1875 43.046875 
Q 18.109375 38.09375 18.109375 28.8125 
L 18.109375 0 
L 9.078125 0 
L 9.078125 54.6875 
L 18.109375 54.6875 
L 18.109375 46.1875 
Q 20.953125 51.171875 25.484375 53.578125 
Q 30.03125 56 36.53125 56 
Q 37.453125 56 38.578125 55.875 
Q 39.703125 55.765625 41.0625 55.515625 
z
" id="BitstreamVeraSans-Roman-72"/>
      <path d="M 18.109375 8.203125 
L 18.109375 -20.796875 
L 9.078125 -20.796875 
L 9.078125 54.6875 
L 18.109375 54.6875 
L 18.109375 46.390625 
Q 20.953125 51.265625 25.265625 53.625 
Q 29.59375 56 35.59375 56 
Q 45.5625 56 51.78125 48.09375 
Q 58.015625 40.1875 58.015625 27.296875 
Q 58.015625 14.40625 51.78125 6.484375 
Q 45.5625 -1.421875 35.59375 -1.421875 
Q 29.59375 -1.421875 25.265625 0.953125 
Q 20.953125 3.328125 18.109375 8.203125 
M 48.6875 27.296875 
Q 48.6875 37.203125 44.609375 42.84375 
Q 40.53125 48.484375 33.40625 48.484375 
Q 26.265625 48.484375 22.1875 42.84375 
Q 18.109375 37.203125 18.109375 27.296875 
Q 18.109375 17.390625 22.1875 11.75 
Q 26.265625 6.109375 33.40625 6.109375 
Q 40.53125 6.109375 44.609375 11.75 
Q 48.6875 17.390625 48.6875 27.296875 
" id="BitstreamVeraSans-Roman-70"/>
     </defs>
     <g transform="translate(16.820624999999996 289.06723391089105)rotate(-90.0)scale(0.2 -0.2)">
      <use xlink:href="#BitstreamVeraSans-Roman-70"/>
      <use x="63.4765625" xlink:href="#BitstreamVeraSans-Roman-72"/>
      <use x="104.55859375" xlink:href="#BitstreamVeraSans-Roman-6f"/>
      <use x="165.740234375" xlink:href="#BitstreamVeraSans-Roman-70"/>
      <use x="229.216796875" xlink:href="#BitstreamVeraSans-Roman-6f"/>
      <use x="290.3984375" xlink:href="#BitstreamVeraSans-Roman-72"/>
      <use x="331.51171875" xlink:href="#BitstreamVeraSans-Roman-74"/>
      <use x="370.720703125" xlink:href="#BitstreamVeraSans-Roman-69"/>
      <use x="398.50390625" xlink:href="#BitstreamVeraSans-Roman-6f"/>
      <use x="459.685546875" xlink:href="#BitstreamVeraSans-Roman-6e"/>
      <use x="523.064453125" xlink:href="#BitstreamVeraSans-Roman-20"/>
      <use x="554.8515625" xlink:href="#BitstreamVeraSans-Roman-6f"/>
      <use x="616.033203125" xlink:href="#BitstreamVeraSans-Roman-66"/>
      <use x="651.23828125" xlink:href="#BitstreamVeraSans-Roman-20"/>
      <use x="683.025390625" xlink:href="#BitstreamVeraSans-Roman-74"/>
      <use x="722.234375" xlink:href="#BitstreamVeraSans-Roman-72"/>
      <use x="763.34765625" xlink:href="#BitstreamVeraSans-Roman-69"/>
      <use x="791.130859375" xlink:href="#BitstreamVeraSans-Roman-61"/>
      <use x="852.41015625" xlink:href="#BitstreamVeraSans-Roman-6c"/>
      <use x="880.193359375" xlink:href="#BitstreamVeraSans-Roman-73"/>
     </g>
    </g>
   </g>
   <g id="text_15">
    <!-- {f15-f19}, 20-D -->
    <defs>
     <path d="M 11.71875 12.40625 
L 22.015625 12.40625 
L 22.015625 4 
L 14.015625 -11.625 
L 7.71875 -11.625 
L 11.71875 4 
z
" id="BitstreamVeraSans-Roman-2c"/>
     <path d="M 12.5 -9.28125 
L 15.921875 -9.28125 
Q 22.75 -9.28125 24.828125 -7.171875 
Q 26.90625 -5.078125 26.90625 1.90625 
L 26.90625 14.015625 
Q 26.90625 21.625 29.09375 25.09375 
Q 31.296875 28.5625 36.71875 29.890625 
Q 31.296875 31.109375 29.09375 34.5625 
Q 26.90625 38.03125 26.90625 45.703125 
L 26.90625 57.8125 
Q 26.90625 64.75 24.828125 66.875 
Q 22.75 69 15.921875 69 
L 12.5 69 
L 12.5 75.984375 
L 15.578125 75.984375 
Q 27.734375 75.984375 31.8125 72.390625 
Q 35.890625 68.796875 35.890625 58.015625 
L 35.890625 46.296875 
Q 35.890625 39.015625 38.515625 36.203125 
Q 41.15625 33.40625 48.09375 33.40625 
L 51.125 33.40625 
L 51.125 26.421875 
L 48.09375 26.421875 
Q 41.15625 26.421875 38.515625 23.578125 
Q 35.890625 20.75 35.890625 13.375 
L 35.890625 1.703125 
Q 35.890625 -9.078125 31.8125 -12.6875 
Q 27.734375 -16.3125 15.578125 -16.3125 
L 12.5 -16.3125 
z
" id="BitstreamVeraSans-Roman-7d"/>
     <path d="M 10.984375 1.515625 
L 10.984375 10.5 
Q 14.703125 8.734375 18.5 7.8125 
Q 22.3125 6.890625 25.984375 6.890625 
Q 35.75 6.890625 40.890625 13.453125 
Q 46.046875 20.015625 46.78125 33.40625 
Q 43.953125 29.203125 39.59375 26.953125 
Q 35.25 24.703125 29.984375 24.703125 
Q 19.046875 24.703125 12.671875 31.3125 
Q 6.296875 37.9375 6.296875 49.421875 
Q 6.296875 60.640625 12.9375 67.421875 
Q 19.578125 74.21875 30.609375 74.21875 
Q 43.265625 74.21875 49.921875 64.515625 
Q 56.59375 54.828125 56.59375 36.375 
Q 56.59375 19.140625 48.40625 8.859375 
Q 40.234375 -1.421875 26.421875 -1.421875 
Q 22.703125 -1.421875 18.890625 -0.6875 
Q 15.09375 0.046875 10.984375 1.515625 
M 30.609375 32.421875 
Q 37.25 32.421875 41.125 36.953125 
Q 45.015625 41.5 45.015625 49.421875 
Q 45.015625 57.28125 41.125 61.84375 
Q 37.25 66.40625 30.609375 66.40625 
Q 23.96875 66.40625 20.09375 61.84375 
Q 16.21875 57.28125 16.21875 49.421875 
Q 16.21875 41.5 20.09375 36.953125 
Q 23.96875 32.421875 30.609375 32.421875 
" id="BitstreamVeraSans-Roman-39"/>
     <path d="M 51.125 -9.28125 
L 51.125 -16.3125 
L 48.09375 -16.3125 
Q 35.9375 -16.3125 31.8125 -12.6875 
Q 27.6875 -9.078125 27.6875 1.703125 
L 27.6875 13.375 
Q 27.6875 20.75 25.046875 23.578125 
Q 22.40625 26.421875 15.484375 26.421875 
L 12.5 26.421875 
L 12.5 33.40625 
L 15.484375 33.40625 
Q 22.46875 33.40625 25.078125 36.203125 
Q 27.6875 39.015625 27.6875 46.296875 
L 27.6875 58.015625 
Q 27.6875 68.796875 31.8125 72.390625 
Q 35.9375 75.984375 48.09375 75.984375 
L 51.125 75.984375 
L 51.125 69 
L 47.796875 69 
Q 40.921875 69 38.8125 66.84375 
Q 36.71875 64.703125 36.71875 57.8125 
L 36.71875 45.703125 
Q 36.71875 38.03125 34.5 34.5625 
Q 32.28125 31.109375 26.90625 29.890625 
Q 32.328125 28.5625 34.515625 25.09375 
Q 36.71875 21.625 36.71875 14.015625 
L 36.71875 1.90625 
Q 36.71875 -4.984375 38.8125 -7.125 
Q 40.921875 -9.28125 47.796875 -9.28125 
z
" id="BitstreamVeraSans-Roman-7b"/>
     <path d="M 4.890625 31.390625 
L 31.203125 31.390625 
L 31.203125 23.390625 
L 4.890625 23.390625 
z
" id="BitstreamVeraSans-Roman-2d"/>
    </defs>
    <g transform="translate(232.11999999999998 30.401528465346473)scale(0.2 -0.2)">
     <use xlink:href="#BitstreamVeraSans-Roman-7b"/>
     <use x="63.623046875" xlink:href="#BitstreamVeraSans-Roman-66"/>
     <use x="98.828125" xlink:href="#BitstreamVeraSans-Roman-31"/>
     <use x="162.451171875" xlink:href="#BitstreamVeraSans-Roman-35"/>
     <use x="226.07421875" xlink:href="#BitstreamVeraSans-Roman-2d"/>
     <use x="262.158203125" xlink:href="#BitstreamVeraSans-Roman-66"/>
     <use x="297.36328125" xlink:href="#BitstreamVeraSans-Roman-31"/>
     <use x="360.986328125" xlink:href="#BitstreamVeraSans-Roman-39"/>
     <use x="424.609375" xlink:href="#BitstreamVeraSans-Roman-7d"/>
     <use x="488.232421875" xlink:href="#BitstreamVeraSans-Roman-2c"/>
     <use x="520.01953125" xlink:href="#BitstreamVeraSans-Roman-20"/>
     <use x="551.806640625" xlink:href="#BitstreamVeraSans-Roman-32"/>
     <use x="615.4296875" xlink:href="#BitstreamVeraSans-Roman-30"/>
     <use x="679.052734375" xlink:href="#BitstreamVeraSans-Roman-2d"/>
     <use x="715.13671875" xlink:href="#BitstreamVeraSans-Roman-44"/>
    </g>
   </g>
   <g id="text_16">
    <!-- absolute targets -->
    <defs>
     <path d="M 56.203125 29.59375 
L 56.203125 25.203125 
L 14.890625 25.203125 
Q 15.484375 15.921875 20.484375 11.0625 
Q 25.484375 6.203125 34.421875 6.203125 
Q 39.59375 6.203125 44.453125 7.46875 
Q 49.3125 8.734375 54.109375 11.28125 
L 54.109375 2.78125 
Q 49.265625 0.734375 44.1875 -0.34375 
Q 39.109375 -1.421875 33.890625 -1.421875 
Q 20.796875 -1.421875 13.15625 6.1875 
Q 5.515625 13.8125 5.515625 26.8125 
Q 5.515625 40.234375 12.765625 48.109375 
Q 20.015625 56 32.328125 56 
Q 43.359375 56 49.78125 48.890625 
Q 56.203125 41.796875 56.203125 29.59375 
M 47.21875 32.234375 
Q 47.125 39.59375 43.09375 43.984375 
Q 39.0625 48.390625 32.421875 48.390625 
Q 24.90625 48.390625 20.390625 44.140625 
Q 15.875 39.890625 15.1875 32.171875 
z
" id="BitstreamVeraSans-Roman-65"/>
     <path d="M 8.5 21.578125 
L 8.5 54.6875 
L 17.484375 54.6875 
L 17.484375 21.921875 
Q 17.484375 14.15625 20.5 10.265625 
Q 23.53125 6.390625 29.59375 6.390625 
Q 36.859375 6.390625 41.078125 11.03125 
Q 45.3125 15.671875 45.3125 23.6875 
L 45.3125 54.6875 
L 54.296875 54.6875 
L 54.296875 0 
L 45.3125 0 
L 45.3125 8.40625 
Q 42.046875 3.421875 37.71875 1 
Q 33.40625 -1.421875 27.6875 -1.421875 
Q 18.265625 -1.421875 13.375 4.4375 
Q 8.5 10.296875 8.5 21.578125 
" id="BitstreamVeraSans-Roman-75"/>
     <path d="M 48.6875 27.296875 
Q 48.6875 37.203125 44.609375 42.84375 
Q 40.53125 48.484375 33.40625 48.484375 
Q 26.265625 48.484375 22.1875 42.84375 
Q 18.109375 37.203125 18.109375 27.296875 
Q 18.109375 17.390625 22.1875 11.75 
Q 26.265625 6.109375 33.40625 6.109375 
Q 40.53125 6.109375 44.609375 11.75 
Q 48.6875 17.390625 48.6875 27.296875 
M 18.109375 46.390625 
Q 20.953125 51.265625 25.265625 53.625 
Q 29.59375 56 35.59375 56 
Q 45.5625 56 51.78125 48.09375 
Q 58.015625 40.1875 58.015625 27.296875 
Q 58.015625 14.40625 51.78125 6.484375 
Q 45.5625 -1.421875 35.59375 -1.421875 
Q 29.59375 -1.421875 25.265625 0.953125 
Q 20.953125 3.328125 18.109375 8.203125 
L 18.109375 0 
L 9.078125 0 
L 9.078125 75.984375 
L 18.109375 75.984375 
z
" id="BitstreamVeraSans-Roman-62"/>
    </defs>
    <g transform="translate(55.425000000000004 756.5958239388295)scale(0.14 -0.14)">
     <use xlink:href="#BitstreamVeraSans-Roman-61"/>
     <use x="61.279296875" xlink:href="#BitstreamVeraSans-Roman-62"/>
     <use x="124.755859375" xlink:href="#BitstreamVeraSans-Roman-73"/>
     <use x="176.85546875" xlink:href="#BitstreamVeraSans-Roman-6f"/>
     <use x="238.037109375" xlink:href="#BitstreamVeraSans-Roman-6c"/>
     <use x="265.8203125" xlink:href="#BitstreamVeraSans-Roman-75"/>
     <use x="329.19921875" xlink:href="#BitstreamVeraSans-Roman-74"/>
     <use x="368.408203125" xlink:href="#BitstreamVeraSans-Roman-65"/>
     <use x="429.931640625" xlink:href="#BitstreamVeraSans-Roman-20"/>
     <use x="461.71875" xlink:href="#BitstreamVeraSans-Roman-74"/>
     <use x="500.927734375" xlink:href="#BitstreamVeraSans-Roman-61"/>
     <use x="562.20703125" xlink:href="#BitstreamVeraSans-Roman-72"/>
     <use x="603.3046875" xlink:href="#BitstreamVeraSans-Roman-67"/>
     <use x="666.78125" xlink:href="#BitstreamVeraSans-Roman-65"/>
     <use x="728.3046875" xlink:href="#BitstreamVeraSans-Roman-74"/>
     <use x="767.513671875" xlink:href="#BitstreamVeraSans-Roman-73"/>
    </g>
   </g>
   <g id="text_17">
    <!-- v2.2.1.10 -->
    <g style="fill:#808080;" transform="translate(287.6996875 378.1570946782178)scale(0.1 -0.1)">
     <use xlink:href="#BitstreamVeraSans-Roman-76"/>
     <use x="59.1796875" xlink:href="#BitstreamVeraSans-Roman-32"/>
     <use x="122.802734375" xlink:href="#BitstreamVeraSans-Roman-2e"/>
     <use x="154.58984375" xlink:href="#BitstreamVeraSans-Roman-32"/>
     <use x="218.212890625" xlink:href="#BitstreamVeraSans-Roman-2e"/>
     <use x="250.0" xlink:href="#BitstreamVeraSans-Roman-31"/>
     <use x="313.623046875" xlink:href="#BitstreamVeraSans-Roman-2e"/>
     <use x="345.41015625" xlink:href="#BitstreamVeraSans-Roman-31"/>
     <use x="409.033203125" xlink:href="#BitstreamVeraSans-Roman-30"/>
    </g>
   </g>
   <g id="legend_1">
    <g id="patch_7">
     <path d="M 65.425 141.103218 
L 202.646875 141.103218 
L 202.646875 17.678218 
L 65.425 17.678218 
z
" style="fill:#ffffff;opacity:0.2;stroke:#000000;stroke-linejoin:miter;"/>
    </g>
    <g id="line2d_164">
     <path d="M 79.425 33.875093 
L 107.425 33.875093 
" style="fill:none;stroke:#000000;stroke-linecap:square;"/>
    </g>
    <g id="line2d_165"/>
    <g id="text_18">
     <!-- 1: 5/5 -->
     <defs>
      <path d="M 11.71875 12.40625 
L 22.015625 12.40625 
L 22.015625 0 
L 11.71875 0 
z
M 11.71875 51.703125 
L 22.015625 51.703125 
L 22.015625 39.3125 
L 11.71875 39.3125 
z
" id="BitstreamVeraSans-Roman-3a"/>
     </defs>
     <g transform="translate(129.425 40.87509282178212)scale(0.2 -0.2)">
      <use xlink:href="#BitstreamVeraSans-Roman-31"/>
      <use x="63.623046875" xlink:href="#BitstreamVeraSans-Roman-3a"/>
      <use x="97.314453125" xlink:href="#BitstreamVeraSans-Roman-20"/>
      <use x="129.1015625" xlink:href="#BitstreamVeraSans-Roman-35"/>
      <use x="192.724609375" xlink:href="#BitstreamVeraSans-Roman-2f"/>
      <use x="226.416015625" xlink:href="#BitstreamVeraSans-Roman-35"/>
     </g>
    </g>
    <g id="line2d_166">
     <path d="M 79.425 63.231343 
L 107.425 63.231343 
" style="fill:none;stroke:#00bfbf;stroke-linecap:square;"/>
    </g>
    <g id="line2d_167"/>
    <g id="text_19">
     <!-- -1: 5/5 -->
     <g transform="translate(129.425 70.2313428217821)scale(0.2 -0.2)">
      <use xlink:href="#BitstreamVeraSans-Roman-2d"/>
      <use x="36.083984375" xlink:href="#BitstreamVeraSans-Roman-31"/>
      <use x="99.70703125" xlink:href="#BitstreamVeraSans-Roman-3a"/>
      <use x="133.3984375" xlink:href="#BitstreamVeraSans-Roman-20"/>
      <use x="165.185546875" xlink:href="#BitstreamVeraSans-Roman-35"/>
      <use x="228.80859375" xlink:href="#BitstreamVeraSans-Roman-2f"/>
      <use x="262.5" xlink:href="#BitstreamVeraSans-Roman-35"/>
     </g>
    </g>
    <g id="line2d_168">
     <path d="M 79.425 92.587593 
L 107.425 92.587593 
" style="fill:none;stroke:#bf00bf;stroke-linecap:square;"/>
    </g>
    <g id="line2d_169"/>
    <g id="text_20">
     <!-- -4: 4/5 -->
     <g transform="translate(129.425 99.5875928217821)scale(0.2 -0.2)">
      <use xlink:href="#BitstreamVeraSans-Roman-2d"/>
      <use x="36.083984375" xlink:href="#BitstreamVeraSans-Roman-34"/>
      <use x="99.70703125" xlink:href="#BitstreamVeraSans-Roman-3a"/>
      <use x="133.3984375" xlink:href="#BitstreamVeraSans-Roman-20"/>
      <use x="165.185546875" xlink:href="#BitstreamVeraSans-Roman-34"/>
      <use x="228.80859375" xlink:href="#BitstreamVeraSans-Roman-2f"/>
      <use x="262.5" xlink:href="#BitstreamVeraSans-Roman-35"/>
     </g>
    </g>
    <g id="line2d_170">
     <path d="M 79.425 121.943843 
L 107.425 121.943843 
" style="fill:none;stroke:#ff0000;stroke-linecap:square;stroke-width:3.0;"/>
    </g>
    <g id="line2d_171"/>
    <g id="text_21">
     <!-- -8: 2/5 -->
     <g transform="translate(129.425 128.94384282178214)scale(0.2 -0.2)">
      <use xlink:href="#BitstreamVeraSans-Roman-2d"/>
      <use x="36.083984375" xlink:href="#BitstreamVeraSans-Roman-38"/>
      <use x="99.70703125" xlink:href="#BitstreamVeraSans-Roman-3a"/>
      <use x="133.3984375" xlink:href="#BitstreamVeraSans-Roman-20"/>
      <use x="165.185546875" xlink:href="#BitstreamVeraSans-Roman-32"/>
      <use x="228.80859375" xlink:href="#BitstreamVeraSans-Roman-2f"/>
      <use x="262.5" xlink:href="#BitstreamVeraSans-Roman-35"/>
     </g>
    </g>
   </g>
  </g>
 </g>
 <defs>
  <clipPath id="p9b9ac8bb26">
   <rect height="376.32178217821786" width="511.815" x="55.425000000000004" y="7.678217821782141"/>
  </clipPath>
 </defs>
</svg>
