<?xml version="1.0" encoding="utf-8" standalone="no"?>
<!DOCTYPE svg PUBLIC "-//W3C//DTD SVG 1.1//EN"
  "http://www.w3.org/Graphics/SVG/1.1/DTD/svg11.dtd">
<!-- Created with matplotlib (http://matplotlib.org/) -->
<svg height="432pt" version="1.1" viewBox="0 0 576 432" width="576pt" xmlns="http://www.w3.org/2000/svg" xmlns:xlink="http://www.w3.org/1999/xlink">
 <defs>
  <style type="text/css">
*{stroke-linecap:butt;stroke-linejoin:round;stroke-miterlimit:100000;}
  </style>
 </defs>
 <g id="figure_1">
  <g id="patch_1">
   <path d="M 0 432 
L 576 432 
L 576 0 
L 0 0 
z
" style="fill:#ffffff;"/>
  </g>
  <g id="axes_1">
   <g id="patch_2">
    <path d="M 55.425 384 
L 567.24 384 
L 567.24 7.678218 
L 55.425 7.678218 
z
" style="fill:#ffffff;"/>
   </g>
   <g id="line2d_1"/>
   <g id="line2d_2"/>
   <g id="line2d_3">
    <path clip-path="url(#p906658348e)" d="M 234.014166 384 
L 234.014166 379.032056 
L 273.889921 379.032056 
L 273.889921 374.064111 
L 291.512922 374.064111 
L 291.512922 369.096167 
L 320.560333 369.096167 
L 320.560333 364.128223 
L 326.458414 364.128223 
L 326.458414 359.160278 
L 326.849437 359.160278 
L 326.849437 354.192334 
L 329.292819 354.192334 
L 329.292819 349.22439 
L 338.057006 349.22439 
L 338.057006 344.256445 
L 349.672384 344.256445 
L 349.672384 339.288501 
L 357.787183 339.288501 
L 357.787183 334.320557 
L 358.789199 334.320557 
L 358.789199 329.352612 
L 363.741447 329.352612 
L 363.741447 324.384668 
L 377.446472 324.384668 
L 377.446472 319.416724 
L 410.257924 319.416724 
L 410.257924 314.44878 
L 412.252875 314.44878 
L 412.252875 309.480835 
L 413.339426 309.480835 
L 413.339426 304.512891 
L 413.339426 304.512891 
L 413.339426 304.512891 
L 567.24 304.512891 
" style="fill:none;stroke:#f5deb3;stroke-linecap:square;"/>
   </g>
   <g id="line2d_4">
    <path clip-path="url(#p906658348e)" d="M 267.730808 384 
L 267.730808 379.032056 
L 277.531954 379.032056 
L 277.531954 374.064111 
L 282.772903 374.064111 
L 282.772903 369.096167 
L 302.664636 369.096167 
L 302.664636 364.128223 
L 306.123178 364.128223 
L 306.123178 359.160278 
L 350.492396 359.160278 
L 350.492396 354.192334 
L 353.347175 354.192334 
L 353.347175 349.22439 
L 357.201977 349.22439 
L 357.201977 344.256445 
L 362.966835 344.256445 
L 362.966835 339.288501 
L 365.001553 339.288501 
L 365.001553 334.320557 
L 370.845387 334.320557 
L 370.845387 329.352612 
L 373.590748 329.352612 
L 373.590748 324.384668 
L 375.076218 324.384668 
L 375.076218 319.416724 
L 378.930243 319.416724 
L 378.930243 314.44878 
L 383.220302 314.44878 
L 383.220302 309.480835 
L 383.391526 309.480835 
L 383.391526 304.512891 
L 384.73324 304.512891 
L 384.73324 299.544947 
L 387.592898 299.544947 
L 387.592898 294.577002 
L 390.375804 294.577002 
L 390.375804 289.609058 
L 390.548789 289.609058 
L 390.548789 284.641114 
L 393.129748 284.641114 
L 393.129748 279.673169 
L 393.434718 279.673169 
L 393.434718 274.705225 
L 399.30556 274.705225 
L 399.30556 269.737281 
L 403.002438 269.737281 
L 403.002438 264.769336 
L 403.495737 264.769336 
L 403.495737 259.801392 
L 406.453489 259.801392 
L 406.453489 254.833448 
L 406.453489 254.833448 
L 406.453489 254.833448 
L 567.24 254.833448 
" style="fill:none;stroke:#f5deb3;stroke-linecap:square;"/>
   </g>
   <g id="line2d_5">
    <path clip-path="url(#p906658348e)" d="M 232.876491 384 
L 232.876491 379.032056 
L 278.033883 379.032056 
L 278.033883 374.064111 
L 281.413035 374.064111 
L 281.413035 369.096167 
L 285.748072 369.096167 
L 285.748072 364.128223 
L 301.69164 364.128223 
L 301.69164 359.160278 
L 308.670127 359.160278 
L 308.670127 354.192334 
L 323.35317 354.192334 
L 323.35317 349.22439 
L 324.246658 349.22439 
L 324.246658 344.256445 
L 335.189428 344.256445 
L 335.189428 339.288501 
L 352.712777 339.288501 
L 352.712777 334.320557 
L 365.261912 334.320557 
L 365.261912 329.352612 
L 371.274192 329.352612 
L 371.274192 324.384668 
L 372.460024 324.384668 
L 372.460024 319.416724 
L 386.729351 319.416724 
L 386.729351 314.44878 
L 390.926174 314.44878 
L 390.926174 309.480835 
L 398.090312 309.480835 
L 398.090312 304.512891 
L 401.999417 304.512891 
L 401.999417 299.544947 
L 402.316477 299.544947 
L 402.316477 294.577002 
L 407.044893 294.577002 
L 407.044893 289.609058 
L 417.665664 289.609058 
L 417.665664 284.641114 
L 431.738495 284.641114 
L 431.738495 279.673169 
L 438.769522 279.673169 
L 438.769522 274.705225 
L 441.132652 274.705225 
L 441.132652 269.737281 
L 451.733834 269.737281 
L 451.733834 264.769336 
L 451.733834 264.769336 
L 451.733834 264.769336 
L 567.24 264.769336 
" style="fill:none;stroke:#f5deb3;stroke-linecap:square;"/>
   </g>
   <g id="line2d_6"/>
   <g id="line2d_7">
    <path clip-path="url(#p906658348e)" d="M 239.461856 384 
L 239.461856 379.032056 
L 312.22641 379.032056 
L 312.22641 374.064111 
L 313.234839 374.064111 
L 313.234839 369.096167 
L 352.827162 369.096167 
L 352.827162 364.128223 
L 355.189816 364.128223 
L 355.189816 359.160278 
L 385.349571 359.160278 
L 385.349571 354.192334 
L 391.648007 354.192334 
L 391.648007 349.22439 
L 396.573004 349.22439 
L 396.573004 344.256445 
L 400.068738 344.256445 
L 400.068738 339.288501 
L 422.96415 339.288501 
L 422.96415 334.320557 
L 442.805783 334.320557 
L 442.805783 329.352612 
L 448.806504 329.352612 
L 448.806504 324.384668 
L 451.708952 324.384668 
L 451.708952 319.416724 
L 459.296694 319.416724 
L 459.296694 314.44878 
L 496.801728 314.44878 
L 496.801728 309.480835 
L 506.951886 309.480835 
L 506.951886 304.512891 
L 564.445741 304.512891 
L 564.445741 299.544947 
L 571.96199 299.544947 
L 571.96199 294.577002 
L 575.321736 294.577002 
L 575.321736 289.609058 
L 577 289.609058 
" style="fill:none;stroke:#f5deb3;stroke-linecap:square;"/>
   </g>
   <g id="line2d_8"/>
   <g id="line2d_9">
    <path clip-path="url(#p906658348e)" d="M 239.287345 384 
L 239.287345 379.032056 
L 240.54368 379.032056 
L 240.54368 374.064111 
L 289.281939 374.064111 
L 289.281939 369.096167 
L 321.092204 369.096167 
L 321.092204 364.128223 
L 345.257231 364.128223 
L 345.257231 359.160278 
L 348.363775 359.160278 
L 348.363775 354.192334 
L 386.774819 354.192334 
L 386.774819 349.22439 
L 404.323693 349.22439 
L 404.323693 344.256445 
L 421.254987 344.256445 
L 421.254987 339.288501 
L 424.980254 339.288501 
L 424.980254 334.320557 
L 425.556992 334.320557 
L 425.556992 329.352612 
L 425.786962 329.352612 
L 425.786962 324.384668 
L 440.493365 324.384668 
L 440.493365 319.416724 
L 440.78299 319.416724 
L 440.78299 314.44878 
L 441.717902 314.44878 
L 441.717902 309.480835 
L 442.428404 309.480835 
L 442.428404 304.512891 
L 444.394892 304.512891 
L 444.394892 299.544947 
L 456.215912 299.544947 
L 456.215912 294.577002 
L 456.750064 294.577002 
L 456.750064 289.609058 
L 462.939465 289.609058 
L 462.939465 284.641114 
L 464.043476 284.641114 
L 464.043476 279.673169 
L 464.449173 279.673169 
L 464.449173 274.705225 
L 465.187897 274.705225 
L 465.187897 269.737281 
L 474.019312 269.737281 
L 474.019312 264.769336 
L 475.875537 264.769336 
L 475.875537 259.801392 
L 478.070352 259.801392 
L 478.070352 254.833448 
L 481.645358 254.833448 
L 481.645358 249.865503 
L 481.740083 249.865503 
L 481.740083 244.897559 
L 483.801467 244.897559 
L 483.801467 239.929615 
L 484.441522 239.929615 
L 484.441522 234.96167 
L 484.560934 234.96167 
L 484.560934 229.993726 
L 501.484396 229.993726 
L 501.484396 225.025782 
L 507.009591 225.025782 
L 507.009591 220.057837 
L 515.325354 220.057837 
L 515.325354 215.089893 
L 515.719173 215.089893 
L 515.719173 210.121949 
L 518.008982 210.121949 
L 518.008982 205.154005 
L 518.183018 205.154005 
L 518.183018 200.18606 
L 519.692957 200.18606 
L 519.692957 195.218116 
L 548.421585 195.218116 
L 548.421585 190.250172 
L 548.469452 190.250172 
L 548.469452 185.282227 
L 548.753214 185.282227 
L 548.753214 180.314283 
L 548.854988 180.314283 
L 548.854988 175.346339 
L 548.884291 175.346339 
L 548.884291 170.378394 
L 549.341579 170.378394 
L 549.341579 165.41045 
L 549.712157 165.41045 
L 549.712157 160.442506 
L 550.152135 160.442506 
L 550.152135 155.474561 
L 550.286451 155.474561 
L 550.286451 150.506617 
L 557.372858 150.506617 
L 557.372858 145.538673 
L 563.749299 145.538673 
L 563.749299 140.570728 
L 570.558657 140.570728 
L 570.558657 135.602784 
L 570.558657 135.602784 
" style="fill:none;stroke:#f5deb3;stroke-linecap:square;"/>
   </g>
   <g id="line2d_10">
    <path clip-path="url(#p906658348e)" d="M 435.288896 384 
L 435.288896 379.032056 
L 478.523694 379.032056 
L 478.523694 374.064111 
L 478.523694 374.064111 
L 478.523694 374.064111 
L 567.24 374.064111 
" style="fill:none;stroke:#f5deb3;stroke-linecap:square;"/>
   </g>
   <g id="line2d_11">
    <path clip-path="url(#p906658348e)" d="M 267.170089 384 
L 267.170089 379.032056 
L 289.701982 379.032056 
L 289.701982 374.064111 
L 311.609691 374.064111 
L 311.609691 369.096167 
L 312.96335 369.096167 
L 312.96335 364.128223 
L 322.440808 364.128223 
L 322.440808 359.160278 
L 337.447622 359.160278 
L 337.447622 354.192334 
L 348.088534 354.192334 
L 348.088534 349.22439 
L 361.921807 349.22439 
L 361.921807 344.256445 
L 362.172782 344.256445 
L 362.172782 339.288501 
L 371.801459 339.288501 
L 371.801459 334.320557 
L 372.348821 334.320557 
L 372.348821 329.352612 
L 372.947178 329.352612 
L 372.947178 324.384668 
L 379.720086 324.384668 
L 379.720086 319.416724 
L 390.671984 319.416724 
L 390.671984 314.44878 
L 394.092155 314.44878 
L 394.092155 309.480835 
L 395.530409 309.480835 
L 395.530409 304.512891 
L 397.893281 304.512891 
L 397.893281 299.544947 
L 406.747923 299.544947 
L 406.747923 294.577002 
L 407.837548 294.577002 
L 407.837548 289.609058 
L 409.414052 289.609058 
L 409.414052 284.641114 
L 416.818255 284.641114 
L 416.818255 279.673169 
L 420.990619 279.673169 
L 420.990619 274.705225 
L 422.986997 274.705225 
L 422.986997 269.737281 
L 426.789515 269.737281 
L 426.789515 264.769336 
L 431.708654 264.769336 
L 431.708654 259.801392 
L 449.67073 259.801392 
L 449.67073 254.833448 
L 453.836161 254.833448 
L 453.836161 249.865503 
L 459.566847 249.865503 
L 459.566847 244.897559 
L 467.847575 244.897559 
L 467.847575 239.929615 
L 480.17007 239.929615 
L 480.17007 234.96167 
L 480.17007 234.96167 
L 480.17007 234.96167 
L 567.24 234.96167 
" style="fill:none;stroke:#f5deb3;stroke-linecap:square;"/>
   </g>
   <g id="line2d_12">
    <path clip-path="url(#p906658348e)" d="M 281.204604 384 
L 281.204604 379.032056 
L 368.200032 379.032056 
L 368.200032 374.064111 
L 368.200032 374.064111 
L 368.200032 374.064111 
L 567.24 374.064111 
" style="fill:none;stroke:#f5deb3;stroke-linecap:square;"/>
   </g>
   <g id="line2d_13"/>
   <g id="line2d_14">
    <path clip-path="url(#p906658348e)" d="M 218.029143 384 
L 218.029143 379.032056 
L 250.213817 379.032056 
L 250.213817 374.064111 
L 280.274041 374.064111 
L 280.274041 369.096167 
L 295.777425 369.096167 
L 295.777425 364.128223 
L 304.903376 364.128223 
L 304.903376 359.160278 
L 308.248562 359.160278 
L 308.248562 354.192334 
L 312.976573 354.192334 
L 312.976573 349.22439 
L 325.773119 349.22439 
L 325.773119 344.256445 
L 334.962869 344.256445 
L 334.962869 339.288501 
L 346.733635 339.288501 
L 346.733635 334.320557 
L 357.777124 334.320557 
L 357.777124 329.352612 
L 373.716303 329.352612 
L 373.716303 324.384668 
L 381.329506 324.384668 
L 381.329506 319.416724 
L 397.362136 319.416724 
L 397.362136 314.44878 
L 399.222795 314.44878 
L 399.222795 309.480835 
L 400.16783 309.480835 
L 400.16783 304.512891 
L 403.205425 304.512891 
L 403.205425 299.544947 
L 404.323693 299.544947 
L 404.323693 294.577002 
L 405.314016 294.577002 
L 405.314016 289.609058 
L 408.851189 289.609058 
L 408.851189 284.641114 
L 413.071019 284.641114 
L 413.071019 279.673169 
L 413.655653 279.673169 
L 413.655653 274.705225 
L 413.655653 274.705225 
L 413.655653 274.705225 
L 567.24 274.705225 
" style="fill:none;stroke:#f5deb3;stroke-linecap:square;"/>
   </g>
   <g id="line2d_15"/>
   <g id="line2d_16">
    <path clip-path="url(#p906658348e)" d="M 329.969083 384 
L 329.969083 379.032056 
L 365.904963 379.032056 
L 365.904963 374.064111 
L 375.275855 374.064111 
L 375.275855 369.096167 
L 377.487462 369.096167 
L 377.487462 364.128223 
L 387.094783 364.128223 
L 387.094783 359.160278 
L 412.725003 359.160278 
L 412.725003 354.192334 
L 438.868714 354.192334 
L 438.868714 349.22439 
L 438.974033 349.22439 
L 438.974033 344.256445 
L 447.542258 344.256445 
L 447.542258 339.288501 
L 462.070045 339.288501 
L 462.070045 334.320557 
L 472.814661 334.320557 
L 472.814661 329.352612 
L 485.498093 329.352612 
L 485.498093 324.384668 
L 488.078214 324.384668 
L 488.078214 319.416724 
L 488.932914 319.416724 
L 488.932914 314.44878 
L 489.580304 314.44878 
L 489.580304 309.480835 
L 490.679959 309.480835 
L 490.679959 304.512891 
L 499.565424 304.512891 
L 499.565424 299.544947 
L 508.999247 299.544947 
L 508.999247 294.577002 
L 510.390667 294.577002 
L 510.390667 289.609058 
L 529.040271 289.609058 
L 529.040271 284.641114 
L 531.796433 284.641114 
L 531.796433 279.673169 
L 532.173504 279.673169 
L 532.173504 274.705225 
L 536.638955 274.705225 
L 536.638955 269.737281 
L 541.954444 269.737281 
L 541.954444 264.769336 
L 546.12592 264.769336 
L 546.12592 259.801392 
L 547.935348 259.801392 
L 547.935348 254.833448 
L 560.558581 254.833448 
L 560.558581 249.865503 
L 562.378326 249.865503 
L 562.378326 244.897559 
L 573.445067 244.897559 
L 573.445067 239.929615 
L 573.445067 239.929615 
" style="fill:none;stroke:#f5deb3;stroke-linecap:square;"/>
   </g>
   <g id="line2d_17"/>
   <g id="line2d_18">
    <path clip-path="url(#p906658348e)" d="M 209.045787 384 
L 209.045787 379.032056 
L 261.179096 379.032056 
L 261.179096 374.064111 
L 269.840494 374.064111 
L 269.840494 369.096167 
L 275.19322 369.096167 
L 275.19322 364.128223 
L 278.574174 364.128223 
L 278.574174 359.160278 
L 283.936929 359.160278 
L 283.936929 354.192334 
L 284.467744 354.192334 
L 284.467744 349.22439 
L 294.213648 349.22439 
L 294.213648 344.256445 
L 298.572068 344.256445 
L 298.572068 339.288501 
L 308.943773 339.288501 
L 308.943773 334.320557 
L 314.424765 334.320557 
L 314.424765 329.352612 
L 316.197833 329.352612 
L 316.197833 324.384668 
L 326.407854 324.384668 
L 326.407854 319.416724 
L 327.645337 319.416724 
L 327.645337 314.44878 
L 328.657721 314.44878 
L 328.657721 309.480835 
L 331.493556 309.480835 
L 331.493556 304.512891 
L 332.517817 304.512891 
L 332.517817 299.544947 
L 350.114657 299.544947 
L 350.114657 294.577002 
L 364.186419 294.577002 
L 364.186419 289.609058 
L 365.12952 289.609058 
L 365.12952 284.641114 
L 374.943636 284.641114 
L 374.943636 279.673169 
L 376.079026 279.673169 
L 376.079026 274.705225 
L 376.079026 274.705225 
L 376.079026 274.705225 
L 567.24 274.705225 
" style="fill:none;stroke:#f5deb3;stroke-linecap:square;"/>
   </g>
   <g id="line2d_19">
    <path clip-path="url(#p906658348e)" d="M 388.581097 384 
L 388.581097 379.032056 
L 393.455212 379.032056 
L 393.455212 374.064111 
L 396.763228 374.064111 
L 396.763228 369.096167 
L 401.715648 369.096167 
L 401.715648 364.128223 
L 401.800345 364.128223 
L 401.800345 359.160278 
L 402.082424 359.160278 
L 402.082424 354.192334 
L 403.658707 354.192334 
L 403.658707 349.22439 
L 404.340973 349.22439 
L 404.340973 344.256445 
L 405.039471 344.256445 
L 405.039471 339.288501 
L 405.127217 339.288501 
L 405.127217 334.320557 
L 412.778043 334.320557 
L 412.778043 329.352612 
L 422.328874 329.352612 
L 422.328874 324.384668 
L 430.281342 324.384668 
L 430.281342 319.416724 
L 434.51201 319.416724 
L 434.51201 314.44878 
L 458.246439 314.44878 
L 458.246439 309.480835 
L 539.862847 309.480835 
L 539.862847 304.512891 
L 539.862847 304.512891 
L 539.862847 304.512891 
L 567.24 304.512891 
" style="fill:none;stroke:#f5deb3;stroke-linecap:square;"/>
   </g>
   <g id="line2d_20">
    <path clip-path="url(#p906658348e)" d="M 247.969677 384 
L 247.969677 379.032056 
L 254.455167 379.032056 
L 254.455167 374.064111 
L 297.986237 374.064111 
L 297.986237 369.096167 
L 305.362472 369.096167 
L 305.362472 364.128223 
L 312.169765 364.128223 
L 312.169765 359.160278 
L 315.039002 359.160278 
L 315.039002 354.192334 
L 317.230869 354.192334 
L 317.230869 349.22439 
L 317.521402 349.22439 
L 317.521402 344.256445 
L 331.598678 344.256445 
L 331.598678 339.288501 
L 345.452054 339.288501 
L 345.452054 334.320557 
L 348.631789 334.320557 
L 348.631789 329.352612 
L 351.087081 329.352612 
L 351.087081 324.384668 
L 351.259868 324.384668 
L 351.259868 319.416724 
L 351.882078 319.416724 
L 351.882078 314.44878 
L 353.419427 314.44878 
L 353.419427 309.480835 
L 361.019653 309.480835 
L 361.019653 304.512891 
L 361.239676 304.512891 
L 361.239676 299.544947 
L 362.387903 299.544947 
L 362.387903 294.577002 
L 363.73785 294.577002 
L 363.73785 289.609058 
L 368.739221 289.609058 
L 368.739221 284.641114 
L 372.015623 284.641114 
L 372.015623 279.673169 
L 377.874481 279.673169 
L 377.874481 274.705225 
L 395.809969 274.705225 
L 395.809969 269.737281 
L 410.738071 269.737281 
L 410.738071 264.769336 
L 428.315728 264.769336 
L 428.315728 259.801392 
L 428.849581 259.801392 
L 428.849581 254.833448 
L 435.113612 254.833448 
L 435.113612 249.865503 
L 438.332394 249.865503 
L 438.332394 244.897559 
L 438.332394 244.897559 
L 438.332394 244.897559 
L 567.24 244.897559 
" style="fill:none;stroke:#f5deb3;stroke-linecap:square;"/>
   </g>
   <g id="line2d_21">
    <path clip-path="url(#p906658348e)" d="M 409.586559 384 
L 409.586559 379.032056 
L 409.586559 379.032056 
L 409.586559 379.032056 
L 567.24 379.032056 
" style="fill:none;stroke:#f5deb3;stroke-linecap:square;"/>
   </g>
   <g id="line2d_22">
    <path clip-path="url(#p906658348e)" d="M 348.954777 384 
L 348.954777 379.032056 
L 376.049125 379.032056 
L 376.049125 374.064111 
L 386.189676 374.064111 
L 386.189676 369.096167 
L 388.659796 369.096167 
L 388.659796 364.128223 
L 391.666296 364.128223 
L 391.666296 359.160278 
L 397.869294 359.160278 
L 397.869294 354.192334 
L 408.426106 354.192334 
L 408.426106 349.22439 
L 408.669253 349.22439 
L 408.669253 344.256445 
L 411.585732 344.256445 
L 411.585732 339.288501 
L 411.585732 339.288501 
L 411.585732 339.288501 
L 567.24 339.288501 
" style="fill:none;stroke:#f5deb3;stroke-linecap:square;"/>
   </g>
   <g id="line2d_23">
    <path clip-path="url(#p906658348e)" d="M 326.325319 384 
L 326.325319 379.032056 
L 326.325319 379.032056 
L 326.325319 379.032056 
L 567.24 379.032056 
" style="fill:none;stroke:#f5deb3;stroke-linecap:square;"/>
   </g>
   <g id="line2d_24">
    <path clip-path="url(#p906658348e)" d="M 390.507516 384 
L 390.507516 379.032056 
L 397.487728 379.032056 
L 397.487728 374.064111 
L 400.463886 374.064111 
L 400.463886 369.096167 
L 441.723456 369.096167 
L 441.723456 364.128223 
L 441.761436 364.128223 
L 441.761436 359.160278 
L 443.060063 359.160278 
L 443.060063 354.192334 
L 443.205067 354.192334 
L 443.205067 349.22439 
L 443.417697 349.22439 
L 443.417697 344.256445 
L 447.820163 344.256445 
L 447.820163 339.288501 
L 451.228179 339.288501 
L 451.228179 334.320557 
L 453.303155 334.320557 
L 453.303155 329.352612 
L 456.913963 329.352612 
L 456.913963 324.384668 
L 478.580921 324.384668 
L 478.580921 319.416724 
L 489.56339 319.416724 
L 489.56339 314.44878 
L 492.222499 314.44878 
L 492.222499 309.480835 
L 538.025619 309.480835 
L 538.025619 304.512891 
L 539.511705 304.512891 
L 539.511705 299.544947 
L 546.212721 299.544947 
L 546.212721 294.577002 
L 565.152431 294.577002 
L 565.152431 289.609058 
L 566.283733 289.609058 
L 566.283733 284.641114 
L 566.858585 284.641114 
L 566.858585 279.673169 
L 568.508577 279.673169 
L 568.508577 274.705225 
L 572.115176 274.705225 
L 572.115176 269.737281 
L 577 269.737281 
" style="fill:none;stroke:#f5deb3;stroke-linecap:square;"/>
   </g>
   <g id="line2d_25">
    <path clip-path="url(#p906658348e)" d="M 394.430033 384 
L 394.430033 379.032056 
L 394.88758 379.032056 
L 394.88758 374.064111 
L 396.052991 374.064111 
L 396.052991 369.096167 
L 396.052991 369.096167 
L 396.052991 369.096167 
L 567.24 369.096167 
" style="fill:none;stroke:#f5deb3;stroke-linecap:square;"/>
   </g>
   <g id="line2d_26">
    <path clip-path="url(#p906658348e)" d="M 306.705093 384 
L 306.705093 379.81353 
L 383.797618 379.81353 
L 383.797618 375.62706 
L 411.501452 375.62706 
L 411.501452 371.44059 
L 413.853445 371.44059 
L 413.853445 367.25412 
L 442.737491 367.25412 
L 442.737491 363.06765 
L 448.800897 363.06765 
L 448.800897 358.88118 
L 448.800897 358.88118 
L 448.800897 358.88118 
L 567.24 358.88118 
" style="fill:none;stroke:#f5deb3;stroke-linecap:square;"/>
   </g>
   <g id="line2d_27"/>
   <g id="line2d_28">
    <path clip-path="url(#p906658348e)" d="M 386.563783 384 
L 386.563783 379.032056 
L 386.761264 379.032056 
L 386.761264 374.064111 
L 389.311011 374.064111 
L 389.311011 369.096167 
L 430.933168 369.096167 
L 430.933168 364.128223 
L 431.463024 364.128223 
L 431.463024 359.160278 
L 463.974915 359.160278 
L 463.974915 354.192334 
L 466.717263 354.192334 
L 466.717263 349.22439 
L 467.700188 349.22439 
L 467.700188 344.256445 
L 485.641504 344.256445 
L 485.641504 339.288501 
L 492.038171 339.288501 
L 492.038171 334.320557 
L 493.408227 334.320557 
L 493.408227 329.352612 
L 494.830456 329.352612 
L 494.830456 324.384668 
L 499.467628 324.384668 
L 499.467628 319.416724 
L 505.014216 319.416724 
L 505.014216 314.44878 
L 506.766106 314.44878 
L 506.766106 309.480835 
L 507.087164 309.480835 
L 507.087164 304.512891 
L 514.730052 304.512891 
L 514.730052 299.544947 
L 522.472357 299.544947 
L 522.472357 294.577002 
L 533.984281 294.577002 
L 533.984281 289.609058 
L 535.674731 289.609058 
L 535.674731 284.641114 
L 536.027374 284.641114 
L 536.027374 279.673169 
L 543.414747 279.673169 
L 543.414747 274.705225 
L 550.01531 274.705225 
L 550.01531 269.737281 
L 554.60884 269.737281 
L 554.60884 264.769336 
L 564.138978 264.769336 
L 564.138978 259.801392 
L 565.098684 259.801392 
L 565.098684 254.833448 
L 568.386687 254.833448 
L 568.386687 249.865503 
L 568.386687 249.865503 
" style="fill:none;stroke:#f5deb3;stroke-linecap:square;"/>
   </g>
   <g id="line2d_29">
    <path clip-path="url(#p906658348e)" d="M 350.200273 384 
L 350.200273 379.032056 
L 375.004054 379.032056 
L 375.004054 374.064111 
L 375.004054 374.064111 
L 375.004054 374.064111 
L 567.24 374.064111 
" style="fill:none;stroke:#f5deb3;stroke-linecap:square;"/>
   </g>
   <g id="line2d_30">
    <path clip-path="url(#p906658348e)" d="M 293.662234 384 
L 293.662234 379.032056 
L 320.142316 379.032056 
L 320.142316 374.064111 
L 346.705806 374.064111 
L 346.705806 369.096167 
L 354.020376 369.096167 
L 354.020376 364.128223 
L 377.797785 364.128223 
L 377.797785 359.160278 
L 385.655558 359.160278 
L 385.655558 354.192334 
L 397.678977 354.192334 
L 397.678977 349.22439 
L 411.90849 349.22439 
L 411.90849 344.256445 
L 412.888192 344.256445 
L 412.888192 339.288501 
L 413.830345 339.288501 
L 413.830345 334.320557 
L 413.830345 334.320557 
L 413.830345 334.320557 
L 567.24 334.320557 
" style="fill:none;stroke:#f5deb3;stroke-linecap:square;"/>
   </g>
   <g id="line2d_31">
    <path clip-path="url(#p906658348e)" d="M -61.418336 384 
M -1 354.192334 
L 1.354995 354.192334 
L 1.354995 349.22439 
L 1.354995 349.22439 
L 1.354995 344.256445 
L 19.686671 344.256445 
L 19.686671 339.288501 
L 28.389998 339.288501 
L 28.389998 334.320557 
L 35.501133 334.320557 
L 35.501133 329.352612 
L 35.501133 329.352612 
L 35.501133 324.384668 
L 41.513513 324.384668 
L 41.513513 319.416724 
L 44.20446 319.416724 
L 44.20446 314.44878 
L 49.086231 314.44878 
L 49.086231 309.480835 
L 111.39798 309.480835 
L 111.39798 304.512891 
L 148.77305 304.512891 
L 148.77305 299.544947 
L 149.653522 299.544947 
L 149.653522 294.577002 
L 168.482612 294.577002 
L 168.482612 289.609058 
L 173.136182 289.609058 
L 173.136182 284.641114 
L 178.55832 284.641114 
L 178.55832 279.673169 
L 180.579667 279.673169 
L 180.579667 274.705225 
L 182.048744 274.705225 
L 182.048744 269.737281 
L 182.501399 269.737281 
L 182.501399 264.769336 
L 183.756106 264.769336 
L 183.756106 259.801392 
L 185.87637 259.801392 
L 185.87637 254.833448 
L 187.625085 254.833448 
L 187.625085 249.865503 
L 193.420753 249.865503 
L 193.420753 244.897559 
L 197.7619 244.897559 
L 197.7619 239.929615 
L 216.11259 239.929615 
L 216.11259 234.96167 
L 216.772347 234.96167 
L 216.772347 229.993726 
L 218.835209 229.993726 
L 218.835209 225.025782 
L 221.21367 225.025782 
L 221.21367 220.057837 
L 222.92688 220.057837 
L 222.92688 215.089893 
L 223.350258 215.089893 
L 223.350258 210.121949 
L 225.049679 210.121949 
L 225.049679 205.154005 
L 230.736758 205.154005 
L 230.736758 200.18606 
L 231.57696 200.18606 
L 231.57696 195.218116 
L 233.672295 195.218116 
L 233.672295 190.250172 
L 234.392745 190.250172 
L 234.392745 185.282227 
L 236.552647 185.282227 
L 236.552647 180.314283 
L 236.87028 180.314283 
L 236.87028 175.346339 
L 237.129932 175.346339 
L 237.129932 170.378394 
L 238.420766 170.378394 
L 238.420766 165.41045 
L 238.438645 165.41045 
L 238.438645 160.442506 
L 239.980754 160.442506 
L 239.980754 155.474561 
L 244.98866 155.474561 
L 244.98866 150.506617 
L 246.29632 150.506617 
L 246.29632 145.538673 
L 247.674569 145.538673 
L 247.674569 140.570728 
L 248.525685 140.570728 
L 248.525685 135.602784 
L 250.985925 135.602784 
L 250.985925 130.63484 
L 261.516875 130.63484 
L 261.516875 125.666895 
L 264.376934 125.666895 
L 264.376934 120.698951 
L 355.450535 120.698951 
L 355.450535 115.731007 
L 355.843661 115.731007 
L 355.843661 110.763062 
L 356.938184 110.763062 
L 356.938184 105.795118 
L 381.122248 105.795118 
L 381.122248 100.827174 
L 396.796845 100.827174 
L 396.796845 95.859229 
L 435.011209 95.859229 
L 435.011209 90.891285 
L 450.846652 90.891285 
L 450.846652 85.923341 
L 450.846652 85.923341 
L 450.846652 85.923341 
L 567.24 85.923341 
" style="fill:none;stroke:#000000;stroke-linecap:square;"/>
   </g>
   <g id="line2d_32">
    <path clip-path="url(#p906658348e)" d="M -26976.883449 756.595824 
" style="fill:none;stroke:#000000;stroke-linecap:square;"/>
   </g>
   <g id="line2d_33">
    <path clip-path="url(#p906658348e)" d="M 259.130673 384 
L 259.130673 379.032056 
L 268.79581 379.032056 
L 268.79581 374.064111 
L 358.224747 374.064111 
L 358.224747 369.096167 
L 380.364329 369.096167 
L 380.364329 364.128223 
L 405.272114 364.128223 
L 405.272114 359.160278 
L 414.212919 359.160278 
L 414.212919 354.192334 
L 416.58322 354.192334 
L 416.58322 349.22439 
L 439.784998 349.22439 
L 439.784998 344.256445 
L 528.378702 344.256445 
L 528.378702 339.288501 
L 528.67448 339.288501 
L 528.67448 334.320557 
L 544.033987 334.320557 
L 544.033987 329.352612 
L 544.033987 329.352612 
L 544.033987 329.352612 
L 567.24 329.352612 
" style="fill:none;stroke:#00bfbf;stroke-linecap:square;"/>
   </g>
   <g id="line2d_34">
    <path clip-path="url(#p906658348e)" d="M -26976.883449 756.595824 
" style="fill:none;stroke:#00bfbf;stroke-linecap:square;"/>
   </g>
   <g id="line2d_35">
    <path clip-path="url(#p906658348e)" d="M 287.468662 384 
L 287.468662 379.032056 
L 295.143548 379.032056 
L 295.143548 374.064111 
L 361.896168 374.064111 
L 361.896168 369.096167 
L 382.939403 369.096167 
L 382.939403 364.128223 
L 406.346724 364.128223 
L 406.346724 359.160278 
L 415.289154 359.160278 
L 415.289154 354.192334 
L 417.404627 354.192334 
L 417.404627 349.22439 
L 440.436107 349.22439 
L 440.436107 344.256445 
L 528.436558 344.256445 
L 528.436558 339.288501 
L 528.716958 339.288501 
L 528.716958 334.320557 
L 544.065547 334.320557 
L 544.065547 329.352612 
L 544.065547 329.352612 
L 544.065547 329.352612 
L 567.24 329.352612 
" style="fill:none;stroke:#bf00bf;stroke-linecap:square;"/>
   </g>
   <g id="line2d_36">
    <path clip-path="url(#p906658348e)" d="M -26976.883449 756.595824 
" style="fill:none;stroke:#bf00bf;stroke-linecap:square;"/>
   </g>
   <g id="line2d_37">
    <path clip-path="url(#p906658348e)" d="M 321.688889 384 
L 321.688889 379.032056 
L 323.219194 379.032056 
L 323.219194 374.064111 
L 368.46036 374.064111 
L 368.46036 369.096167 
L 386.576205 369.096167 
L 386.576205 364.128223 
L 408.254124 364.128223 
L 408.254124 359.160278 
L 416.902854 359.160278 
L 416.902854 354.192334 
L 419.005324 354.192334 
L 419.005324 349.22439 
L 441.388312 349.22439 
L 441.388312 344.256445 
L 528.530428 344.256445 
L 528.530428 339.288501 
L 528.817719 339.288501 
L 528.817719 334.320557 
L 544.138163 334.320557 
L 544.138163 329.352612 
L 544.138163 329.352612 
L 544.138163 329.352612 
L 567.24 329.352612 
" style="fill:none;stroke:#ff0000;stroke-linecap:square;stroke-width:3.0;"/>
   </g>
   <g id="line2d_38">
    <path clip-path="url(#p906658348e)" d="M -26976.883449 756.595824 
" style="fill:none;stroke:#ff0000;stroke-linecap:square;stroke-width:3.0;"/>
   </g>
   <g id="line2d_39">
    <path clip-path="url(#p906658348e)" d="M 567.24 384 
L 567.24 7.678218 
" style="fill:none;stroke:#000000;stroke-linecap:square;"/>
   </g>
   <g id="patch_3">
    <path d="M 55.425 7.678218 
L 567.24 7.678218 
" style="fill:none;stroke:#000000;stroke-linecap:square;stroke-linejoin:miter;"/>
   </g>
   <g id="patch_4">
    <path d="M 567.24 384 
L 567.24 7.678218 
" style="fill:none;stroke:#000000;stroke-linecap:square;stroke-linejoin:miter;"/>
   </g>
   <g id="patch_5">
    <path d="M 55.425 384 
L 567.24 384 
" style="fill:none;stroke:#000000;stroke-linecap:square;stroke-linejoin:miter;"/>
   </g>
   <g id="patch_6">
    <path d="M 55.425 384 
L 55.425 7.678218 
" style="fill:none;stroke:#000000;stroke-linecap:square;stroke-linejoin:miter;"/>
   </g>
   <g id="matplotlib.axis_1">
    <g id="xtick_1">
     <g id="line2d_40">
      <path clip-path="url(#p906658348e)" d="M 55.425 384 
L 55.425 7.678218 
" style="fill:none;stroke:#000000;stroke-dasharray:1.000000,3.000000;stroke-dashoffset:0.0;stroke-width:0.5;"/>
     </g>
     <g id="line2d_41">
      <defs>
       <path d="M 0 0 
L 0 -4 
" id="m988ef605c7" style="stroke:#000000;stroke-width:0.5;"/>
      </defs>
      <g>
       <use style="stroke:#000000;stroke-width:0.5;" x="55.425000000000004" xlink:href="#m988ef605c7" y="384.0"/>
      </g>
     </g>
     <g id="line2d_42">
      <defs>
       <path d="M 0 0 
L 0 4 
" id="mc2fafab208" style="stroke:#000000;stroke-width:0.5;"/>
      </defs>
      <g>
       <use style="stroke:#000000;stroke-width:0.5;" x="55.425000000000004" xlink:href="#mc2fafab208" y="7.678217821782141"/>
      </g>
     </g>
     <g id="text_1">
      <!-- 0 -->
      <defs>
       <path d="M 31.78125 66.40625 
Q 24.171875 66.40625 20.328125 58.90625 
Q 16.5 51.421875 16.5 36.375 
Q 16.5 21.390625 20.328125 13.890625 
Q 24.171875 6.390625 31.78125 6.390625 
Q 39.453125 6.390625 43.28125 13.890625 
Q 47.125 21.390625 47.125 36.375 
Q 47.125 51.421875 43.28125 58.90625 
Q 39.453125 66.40625 31.78125 66.40625 
M 31.78125 74.21875 
Q 44.046875 74.21875 50.515625 64.515625 
Q 56.984375 54.828125 56.984375 36.375 
Q 56.984375 17.96875 50.515625 8.265625 
Q 44.046875 -1.421875 31.78125 -1.421875 
Q 19.53125 -1.421875 13.0625 8.265625 
Q 6.59375 17.96875 6.59375 36.375 
Q 6.59375 54.828125 13.0625 64.515625 
Q 19.53125 74.21875 31.78125 74.21875 
" id="BitstreamVeraSans-Roman-30"/>
      </defs>
      <g transform="translate(49.0625 403.196875)scale(0.2 -0.2)">
       <use xlink:href="#BitstreamVeraSans-Roman-30"/>
      </g>
     </g>
    </g>
    <g id="xtick_2">
     <g id="line2d_43">
      <path clip-path="url(#p906658348e)" d="M 145.233334 384 
L 145.233334 7.678218 
" style="fill:none;stroke:#000000;stroke-dasharray:1.000000,3.000000;stroke-dashoffset:0.0;stroke-width:0.5;"/>
     </g>
     <g id="line2d_44">
      <g>
       <use style="stroke:#000000;stroke-width:0.5;" x="145.23333371830162" xlink:href="#m988ef605c7" y="384.0"/>
      </g>
     </g>
     <g id="line2d_45">
      <g>
       <use style="stroke:#000000;stroke-width:0.5;" x="145.23333371830162" xlink:href="#mc2fafab208" y="7.678217821782141"/>
      </g>
     </g>
     <g id="text_2">
      <!-- 1 -->
      <defs>
       <path d="M 12.40625 8.296875 
L 28.515625 8.296875 
L 28.515625 63.921875 
L 10.984375 60.40625 
L 10.984375 69.390625 
L 28.421875 72.90625 
L 38.28125 72.90625 
L 38.28125 8.296875 
L 54.390625 8.296875 
L 54.390625 0 
L 12.40625 0 
z
" id="BitstreamVeraSans-Roman-31"/>
      </defs>
      <g transform="translate(138.8708337183016 403.196875)scale(0.2 -0.2)">
       <use xlink:href="#BitstreamVeraSans-Roman-31"/>
      </g>
     </g>
    </g>
    <g id="xtick_3">
     <g id="line2d_46">
      <path clip-path="url(#p906658348e)" d="M 235.041667 384 
L 235.041667 7.678218 
" style="fill:none;stroke:#000000;stroke-dasharray:1.000000,3.000000;stroke-dashoffset:0.0;stroke-width:0.5;"/>
     </g>
     <g id="line2d_47">
      <g>
       <use style="stroke:#000000;stroke-width:0.5;" x="235.04166743660323" xlink:href="#m988ef605c7" y="384.0"/>
      </g>
     </g>
     <g id="line2d_48">
      <g>
       <use style="stroke:#000000;stroke-width:0.5;" x="235.04166743660323" xlink:href="#mc2fafab208" y="7.678217821782141"/>
      </g>
     </g>
     <g id="text_3">
      <!-- 2 -->
      <defs>
       <path d="M 19.1875 8.296875 
L 53.609375 8.296875 
L 53.609375 0 
L 7.328125 0 
L 7.328125 8.296875 
Q 12.9375 14.109375 22.625 23.890625 
Q 32.328125 33.6875 34.8125 36.53125 
Q 39.546875 41.84375 41.421875 45.53125 
Q 43.3125 49.21875 43.3125 52.78125 
Q 43.3125 58.59375 39.234375 62.25 
Q 35.15625 65.921875 28.609375 65.921875 
Q 23.96875 65.921875 18.8125 64.3125 
Q 13.671875 62.703125 7.8125 59.421875 
L 7.8125 69.390625 
Q 13.765625 71.78125 18.9375 73 
Q 24.125 74.21875 28.421875 74.21875 
Q 39.75 74.21875 46.484375 68.546875 
Q 53.21875 62.890625 53.21875 53.421875 
Q 53.21875 48.921875 51.53125 44.890625 
Q 49.859375 40.875 45.40625 35.40625 
Q 44.1875 33.984375 37.640625 27.21875 
Q 31.109375 20.453125 19.1875 8.296875 
" id="BitstreamVeraSans-Roman-32"/>
      </defs>
      <g transform="translate(228.67916743660322 403.196875)scale(0.2 -0.2)">
       <use xlink:href="#BitstreamVeraSans-Roman-32"/>
      </g>
     </g>
    </g>
    <g id="xtick_4">
     <g id="line2d_49">
      <path clip-path="url(#p906658348e)" d="M 324.850001 384 
L 324.850001 7.678218 
" style="fill:none;stroke:#000000;stroke-dasharray:1.000000,3.000000;stroke-dashoffset:0.0;stroke-width:0.5;"/>
     </g>
     <g id="line2d_50">
      <g>
       <use style="stroke:#000000;stroke-width:0.5;" x="324.8500011549049" xlink:href="#m988ef605c7" y="384.0"/>
      </g>
     </g>
     <g id="line2d_51">
      <g>
       <use style="stroke:#000000;stroke-width:0.5;" x="324.8500011549049" xlink:href="#mc2fafab208" y="7.678217821782141"/>
      </g>
     </g>
     <g id="text_4">
      <!-- 3 -->
      <defs>
       <path d="M 40.578125 39.3125 
Q 47.65625 37.796875 51.625 33 
Q 55.609375 28.21875 55.609375 21.1875 
Q 55.609375 10.40625 48.1875 4.484375 
Q 40.765625 -1.421875 27.09375 -1.421875 
Q 22.515625 -1.421875 17.65625 -0.515625 
Q 12.796875 0.390625 7.625 2.203125 
L 7.625 11.71875 
Q 11.71875 9.328125 16.59375 8.109375 
Q 21.484375 6.890625 26.8125 6.890625 
Q 36.078125 6.890625 40.9375 10.546875 
Q 45.796875 14.203125 45.796875 21.1875 
Q 45.796875 27.640625 41.28125 31.265625 
Q 36.765625 34.90625 28.71875 34.90625 
L 20.21875 34.90625 
L 20.21875 43.015625 
L 29.109375 43.015625 
Q 36.375 43.015625 40.234375 45.921875 
Q 44.09375 48.828125 44.09375 54.296875 
Q 44.09375 59.90625 40.109375 62.90625 
Q 36.140625 65.921875 28.71875 65.921875 
Q 24.65625 65.921875 20.015625 65.03125 
Q 15.375 64.15625 9.8125 62.3125 
L 9.8125 71.09375 
Q 15.4375 72.65625 20.34375 73.4375 
Q 25.25 74.21875 29.59375 74.21875 
Q 40.828125 74.21875 47.359375 69.109375 
Q 53.90625 64.015625 53.90625 55.328125 
Q 53.90625 49.265625 50.4375 45.09375 
Q 46.96875 40.921875 40.578125 39.3125 
" id="BitstreamVeraSans-Roman-33"/>
      </defs>
      <g transform="translate(318.48750115490486 403.196875)scale(0.2 -0.2)">
       <use xlink:href="#BitstreamVeraSans-Roman-33"/>
      </g>
     </g>
    </g>
    <g id="xtick_5">
     <g id="line2d_52">
      <path clip-path="url(#p906658348e)" d="M 414.658335 384 
L 414.658335 7.678218 
" style="fill:none;stroke:#000000;stroke-dasharray:1.000000,3.000000;stroke-dashoffset:0.0;stroke-width:0.5;"/>
     </g>
     <g id="line2d_53">
      <g>
       <use style="stroke:#000000;stroke-width:0.5;" x="414.6583348732065" xlink:href="#m988ef605c7" y="384.0"/>
      </g>
     </g>
     <g id="line2d_54">
      <g>
       <use style="stroke:#000000;stroke-width:0.5;" x="414.6583348732065" xlink:href="#mc2fafab208" y="7.678217821782141"/>
      </g>
     </g>
     <g id="text_5">
      <!-- 4 -->
      <defs>
       <path d="M 37.796875 64.3125 
L 12.890625 25.390625 
L 37.796875 25.390625 
z
M 35.203125 72.90625 
L 47.609375 72.90625 
L 47.609375 25.390625 
L 58.015625 25.390625 
L 58.015625 17.1875 
L 47.609375 17.1875 
L 47.609375 0 
L 37.796875 0 
L 37.796875 17.1875 
L 4.890625 17.1875 
L 4.890625 26.703125 
z
" id="BitstreamVeraSans-Roman-34"/>
      </defs>
      <g transform="translate(408.2958348732065 403.196875)scale(0.2 -0.2)">
       <use xlink:href="#BitstreamVeraSans-Roman-34"/>
      </g>
     </g>
    </g>
    <g id="xtick_6">
     <g id="line2d_55">
      <path clip-path="url(#p906658348e)" d="M 504.466669 384 
L 504.466669 7.678218 
" style="fill:none;stroke:#000000;stroke-dasharray:1.000000,3.000000;stroke-dashoffset:0.0;stroke-width:0.5;"/>
     </g>
     <g id="line2d_56">
      <g>
       <use style="stroke:#000000;stroke-width:0.5;" x="504.4666685915081" xlink:href="#m988ef605c7" y="384.0"/>
      </g>
     </g>
     <g id="line2d_57">
      <g>
       <use style="stroke:#000000;stroke-width:0.5;" x="504.4666685915081" xlink:href="#mc2fafab208" y="7.678217821782141"/>
      </g>
     </g>
     <g id="text_6">
      <!-- 5 -->
      <defs>
       <path d="M 10.796875 72.90625 
L 49.515625 72.90625 
L 49.515625 64.59375 
L 19.828125 64.59375 
L 19.828125 46.734375 
Q 21.96875 47.46875 24.109375 47.828125 
Q 26.265625 48.1875 28.421875 48.1875 
Q 40.625 48.1875 47.75 41.5 
Q 54.890625 34.8125 54.890625 23.390625 
Q 54.890625 11.625 47.5625 5.09375 
Q 40.234375 -1.421875 26.90625 -1.421875 
Q 22.3125 -1.421875 17.546875 -0.640625 
Q 12.796875 0.140625 7.71875 1.703125 
L 7.71875 11.625 
Q 12.109375 9.234375 16.796875 8.0625 
Q 21.484375 6.890625 26.703125 6.890625 
Q 35.15625 6.890625 40.078125 11.328125 
Q 45.015625 15.765625 45.015625 23.390625 
Q 45.015625 31 40.078125 35.4375 
Q 35.15625 39.890625 26.703125 39.890625 
Q 22.75 39.890625 18.8125 39.015625 
Q 14.890625 38.140625 10.796875 36.28125 
z
" id="BitstreamVeraSans-Roman-35"/>
      </defs>
      <g transform="translate(498.1041685915081 403.196875)scale(0.2 -0.2)">
       <use xlink:href="#BitstreamVeraSans-Roman-35"/>
      </g>
     </g>
    </g>
    <g id="xtick_7">
     <g id="line2d_58">
      <defs>
       <path d="M 0 0 
L 0 -2 
" id="m3ed3853bcb" style="stroke:#000000;stroke-width:0.5;"/>
      </defs>
      <g>
       <use style="stroke:#000000;stroke-width:0.5;" x="82.46000230980974" xlink:href="#m3ed3853bcb" y="384.0"/>
      </g>
     </g>
     <g id="line2d_59">
      <defs>
       <path d="M 0 0 
L 0 2 
" id="me2df5dd807" style="stroke:#000000;stroke-width:0.5;"/>
      </defs>
      <g>
       <use style="stroke:#000000;stroke-width:0.5;" x="82.46000230980974" xlink:href="#me2df5dd807" y="7.678217821782141"/>
      </g>
     </g>
    </g>
    <g id="xtick_8">
     <g id="line2d_60">
      <g>
       <use style="stroke:#000000;stroke-width:0.5;" x="98.27446486795824" xlink:href="#m3ed3853bcb" y="384.0"/>
      </g>
     </g>
     <g id="line2d_61">
      <g>
       <use style="stroke:#000000;stroke-width:0.5;" x="98.27446486795824" xlink:href="#me2df5dd807" y="7.678217821782141"/>
      </g>
     </g>
    </g>
    <g id="xtick_9">
     <g id="line2d_62">
      <g>
       <use style="stroke:#000000;stroke-width:0.5;" x="109.49500461961944" xlink:href="#m3ed3853bcb" y="384.0"/>
      </g>
     </g>
     <g id="line2d_63">
      <g>
       <use style="stroke:#000000;stroke-width:0.5;" x="109.49500461961944" xlink:href="#me2df5dd807" y="7.678217821782141"/>
      </g>
     </g>
    </g>
    <g id="xtick_10">
     <g id="line2d_64">
      <g>
       <use style="stroke:#000000;stroke-width:0.5;" x="118.1983314084919" xlink:href="#m3ed3853bcb" y="384.0"/>
      </g>
     </g>
     <g id="line2d_65">
      <g>
       <use style="stroke:#000000;stroke-width:0.5;" x="118.1983314084919" xlink:href="#me2df5dd807" y="7.678217821782141"/>
      </g>
     </g>
    </g>
    <g id="xtick_11">
     <g id="line2d_66">
      <g>
       <use style="stroke:#000000;stroke-width:0.5;" x="125.30946717776794" xlink:href="#m3ed3853bcb" y="384.0"/>
      </g>
     </g>
     <g id="line2d_67">
      <g>
       <use style="stroke:#000000;stroke-width:0.5;" x="125.30946717776794" xlink:href="#me2df5dd807" y="7.678217821782141"/>
      </g>
     </g>
    </g>
    <g id="xtick_12">
     <g id="line2d_68">
      <g>
       <use style="stroke:#000000;stroke-width:0.5;" x="131.321846802283" xlink:href="#m3ed3853bcb" y="384.0"/>
      </g>
     </g>
     <g id="line2d_69">
      <g>
       <use style="stroke:#000000;stroke-width:0.5;" x="131.321846802283" xlink:href="#me2df5dd807" y="7.678217821782141"/>
      </g>
     </g>
    </g>
    <g id="xtick_13">
     <g id="line2d_70">
      <g>
       <use style="stroke:#000000;stroke-width:0.5;" x="136.53000692942913" xlink:href="#m3ed3853bcb" y="384.0"/>
      </g>
     </g>
     <g id="line2d_71">
      <g>
       <use style="stroke:#000000;stroke-width:0.5;" x="136.53000692942913" xlink:href="#me2df5dd807" y="7.678217821782141"/>
      </g>
     </g>
    </g>
    <g id="xtick_14">
     <g id="line2d_72">
      <g>
       <use style="stroke:#000000;stroke-width:0.5;" x="141.12392973591648" xlink:href="#m3ed3853bcb" y="384.0"/>
      </g>
     </g>
     <g id="line2d_73">
      <g>
       <use style="stroke:#000000;stroke-width:0.5;" x="141.12392973591648" xlink:href="#me2df5dd807" y="7.678217821782141"/>
      </g>
     </g>
    </g>
    <g id="xtick_15">
     <g id="line2d_74">
      <g>
       <use style="stroke:#000000;stroke-width:0.5;" x="172.26833602811135" xlink:href="#m3ed3853bcb" y="384.0"/>
      </g>
     </g>
     <g id="line2d_75">
      <g>
       <use style="stroke:#000000;stroke-width:0.5;" x="172.26833602811135" xlink:href="#me2df5dd807" y="7.678217821782141"/>
      </g>
     </g>
    </g>
    <g id="xtick_16">
     <g id="line2d_76">
      <g>
       <use style="stroke:#000000;stroke-width:0.5;" x="188.08279858625988" xlink:href="#m3ed3853bcb" y="384.0"/>
      </g>
     </g>
     <g id="line2d_77">
      <g>
       <use style="stroke:#000000;stroke-width:0.5;" x="188.08279858625988" xlink:href="#me2df5dd807" y="7.678217821782141"/>
      </g>
     </g>
    </g>
    <g id="xtick_17">
     <g id="line2d_78">
      <g>
       <use style="stroke:#000000;stroke-width:0.5;" x="199.30333833792108" xlink:href="#m3ed3853bcb" y="384.0"/>
      </g>
     </g>
     <g id="line2d_79">
      <g>
       <use style="stroke:#000000;stroke-width:0.5;" x="199.30333833792108" xlink:href="#me2df5dd807" y="7.678217821782141"/>
      </g>
     </g>
    </g>
    <g id="xtick_18">
     <g id="line2d_80">
      <g>
       <use style="stroke:#000000;stroke-width:0.5;" x="208.00666512679354" xlink:href="#m3ed3853bcb" y="384.0"/>
      </g>
     </g>
     <g id="line2d_81">
      <g>
       <use style="stroke:#000000;stroke-width:0.5;" x="208.00666512679354" xlink:href="#me2df5dd807" y="7.678217821782141"/>
      </g>
     </g>
    </g>
    <g id="xtick_19">
     <g id="line2d_82">
      <g>
       <use style="stroke:#000000;stroke-width:0.5;" x="215.11780089606955" xlink:href="#m3ed3853bcb" y="384.0"/>
      </g>
     </g>
     <g id="line2d_83">
      <g>
       <use style="stroke:#000000;stroke-width:0.5;" x="215.11780089606955" xlink:href="#me2df5dd807" y="7.678217821782141"/>
      </g>
     </g>
    </g>
    <g id="xtick_20">
     <g id="line2d_84">
      <g>
       <use style="stroke:#000000;stroke-width:0.5;" x="221.13018052058462" xlink:href="#m3ed3853bcb" y="384.0"/>
      </g>
     </g>
     <g id="line2d_85">
      <g>
       <use style="stroke:#000000;stroke-width:0.5;" x="221.13018052058462" xlink:href="#me2df5dd807" y="7.678217821782141"/>
      </g>
     </g>
    </g>
    <g id="xtick_21">
     <g id="line2d_86">
      <g>
       <use style="stroke:#000000;stroke-width:0.5;" x="226.33834064773077" xlink:href="#m3ed3853bcb" y="384.0"/>
      </g>
     </g>
     <g id="line2d_87">
      <g>
       <use style="stroke:#000000;stroke-width:0.5;" x="226.33834064773077" xlink:href="#me2df5dd807" y="7.678217821782141"/>
      </g>
     </g>
    </g>
    <g id="xtick_22">
     <g id="line2d_88">
      <g>
       <use style="stroke:#000000;stroke-width:0.5;" x="230.93226345421812" xlink:href="#m3ed3853bcb" y="384.0"/>
      </g>
     </g>
     <g id="line2d_89">
      <g>
       <use style="stroke:#000000;stroke-width:0.5;" x="230.93226345421812" xlink:href="#me2df5dd807" y="7.678217821782141"/>
      </g>
     </g>
    </g>
    <g id="xtick_23">
     <g id="line2d_90">
      <g>
       <use style="stroke:#000000;stroke-width:0.5;" x="262.07666974641296" xlink:href="#m3ed3853bcb" y="384.0"/>
      </g>
     </g>
     <g id="line2d_91">
      <g>
       <use style="stroke:#000000;stroke-width:0.5;" x="262.07666974641296" xlink:href="#me2df5dd807" y="7.678217821782141"/>
      </g>
     </g>
    </g>
    <g id="xtick_24">
     <g id="line2d_92">
      <g>
       <use style="stroke:#000000;stroke-width:0.5;" x="277.8911323045615" xlink:href="#m3ed3853bcb" y="384.0"/>
      </g>
     </g>
     <g id="line2d_93">
      <g>
       <use style="stroke:#000000;stroke-width:0.5;" x="277.8911323045615" xlink:href="#me2df5dd807" y="7.678217821782141"/>
      </g>
     </g>
    </g>
    <g id="xtick_25">
     <g id="line2d_94">
      <g>
       <use style="stroke:#000000;stroke-width:0.5;" x="289.1116720562227" xlink:href="#m3ed3853bcb" y="384.0"/>
      </g>
     </g>
     <g id="line2d_95">
      <g>
       <use style="stroke:#000000;stroke-width:0.5;" x="289.1116720562227" xlink:href="#me2df5dd807" y="7.678217821782141"/>
      </g>
     </g>
    </g>
    <g id="xtick_26">
     <g id="line2d_96">
      <g>
       <use style="stroke:#000000;stroke-width:0.5;" x="297.81499884509515" xlink:href="#m3ed3853bcb" y="384.0"/>
      </g>
     </g>
     <g id="line2d_97">
      <g>
       <use style="stroke:#000000;stroke-width:0.5;" x="297.81499884509515" xlink:href="#me2df5dd807" y="7.678217821782141"/>
      </g>
     </g>
    </g>
    <g id="xtick_27">
     <g id="line2d_98">
      <g>
       <use style="stroke:#000000;stroke-width:0.5;" x="304.9261346143712" xlink:href="#m3ed3853bcb" y="384.0"/>
      </g>
     </g>
     <g id="line2d_99">
      <g>
       <use style="stroke:#000000;stroke-width:0.5;" x="304.9261346143712" xlink:href="#me2df5dd807" y="7.678217821782141"/>
      </g>
     </g>
    </g>
    <g id="xtick_28">
     <g id="line2d_100">
      <g>
       <use style="stroke:#000000;stroke-width:0.5;" x="310.9385142388862" xlink:href="#m3ed3853bcb" y="384.0"/>
      </g>
     </g>
     <g id="line2d_101">
      <g>
       <use style="stroke:#000000;stroke-width:0.5;" x="310.9385142388862" xlink:href="#me2df5dd807" y="7.678217821782141"/>
      </g>
     </g>
    </g>
    <g id="xtick_29">
     <g id="line2d_102">
      <g>
       <use style="stroke:#000000;stroke-width:0.5;" x="316.1466743660324" xlink:href="#m3ed3853bcb" y="384.0"/>
      </g>
     </g>
     <g id="line2d_103">
      <g>
       <use style="stroke:#000000;stroke-width:0.5;" x="316.1466743660324" xlink:href="#me2df5dd807" y="7.678217821782141"/>
      </g>
     </g>
    </g>
    <g id="xtick_30">
     <g id="line2d_104">
      <g>
       <use style="stroke:#000000;stroke-width:0.5;" x="320.7405971725197" xlink:href="#m3ed3853bcb" y="384.0"/>
      </g>
     </g>
     <g id="line2d_105">
      <g>
       <use style="stroke:#000000;stroke-width:0.5;" x="320.7405971725197" xlink:href="#me2df5dd807" y="7.678217821782141"/>
      </g>
     </g>
    </g>
    <g id="xtick_31">
     <g id="line2d_106">
      <g>
       <use style="stroke:#000000;stroke-width:0.5;" x="351.8850034647146" xlink:href="#m3ed3853bcb" y="384.0"/>
      </g>
     </g>
     <g id="line2d_107">
      <g>
       <use style="stroke:#000000;stroke-width:0.5;" x="351.8850034647146" xlink:href="#me2df5dd807" y="7.678217821782141"/>
      </g>
     </g>
    </g>
    <g id="xtick_32">
     <g id="line2d_108">
      <g>
       <use style="stroke:#000000;stroke-width:0.5;" x="367.69946602286313" xlink:href="#m3ed3853bcb" y="384.0"/>
      </g>
     </g>
     <g id="line2d_109">
      <g>
       <use style="stroke:#000000;stroke-width:0.5;" x="367.69946602286313" xlink:href="#me2df5dd807" y="7.678217821782141"/>
      </g>
     </g>
    </g>
    <g id="xtick_33">
     <g id="line2d_110">
      <g>
       <use style="stroke:#000000;stroke-width:0.5;" x="378.9200057745243" xlink:href="#m3ed3853bcb" y="384.0"/>
      </g>
     </g>
     <g id="line2d_111">
      <g>
       <use style="stroke:#000000;stroke-width:0.5;" x="378.9200057745243" xlink:href="#me2df5dd807" y="7.678217821782141"/>
      </g>
     </g>
    </g>
    <g id="xtick_34">
     <g id="line2d_112">
      <g>
       <use style="stroke:#000000;stroke-width:0.5;" x="387.6233325633968" xlink:href="#m3ed3853bcb" y="384.0"/>
      </g>
     </g>
     <g id="line2d_113">
      <g>
       <use style="stroke:#000000;stroke-width:0.5;" x="387.6233325633968" xlink:href="#me2df5dd807" y="7.678217821782141"/>
      </g>
     </g>
    </g>
    <g id="xtick_35">
     <g id="line2d_114">
      <g>
       <use style="stroke:#000000;stroke-width:0.5;" x="394.73446833267286" xlink:href="#m3ed3853bcb" y="384.0"/>
      </g>
     </g>
     <g id="line2d_115">
      <g>
       <use style="stroke:#000000;stroke-width:0.5;" x="394.73446833267286" xlink:href="#me2df5dd807" y="7.678217821782141"/>
      </g>
     </g>
    </g>
    <g id="xtick_36">
     <g id="line2d_116">
      <g>
       <use style="stroke:#000000;stroke-width:0.5;" x="400.74684795718787" xlink:href="#m3ed3853bcb" y="384.0"/>
      </g>
     </g>
     <g id="line2d_117">
      <g>
       <use style="stroke:#000000;stroke-width:0.5;" x="400.74684795718787" xlink:href="#me2df5dd807" y="7.678217821782141"/>
      </g>
     </g>
    </g>
    <g id="xtick_37">
     <g id="line2d_118">
      <g>
       <use style="stroke:#000000;stroke-width:0.5;" x="405.95500808433405" xlink:href="#m3ed3853bcb" y="384.0"/>
      </g>
     </g>
     <g id="line2d_119">
      <g>
       <use style="stroke:#000000;stroke-width:0.5;" x="405.95500808433405" xlink:href="#me2df5dd807" y="7.678217821782141"/>
      </g>
     </g>
    </g>
    <g id="xtick_38">
     <g id="line2d_120">
      <g>
       <use style="stroke:#000000;stroke-width:0.5;" x="410.5489308908214" xlink:href="#m3ed3853bcb" y="384.0"/>
      </g>
     </g>
     <g id="line2d_121">
      <g>
       <use style="stroke:#000000;stroke-width:0.5;" x="410.5489308908214" xlink:href="#me2df5dd807" y="7.678217821782141"/>
      </g>
     </g>
    </g>
    <g id="xtick_39">
     <g id="line2d_122">
      <g>
       <use style="stroke:#000000;stroke-width:0.5;" x="441.69333718301624" xlink:href="#m3ed3853bcb" y="384.0"/>
      </g>
     </g>
     <g id="line2d_123">
      <g>
       <use style="stroke:#000000;stroke-width:0.5;" x="441.69333718301624" xlink:href="#me2df5dd807" y="7.678217821782141"/>
      </g>
     </g>
    </g>
    <g id="xtick_40">
     <g id="line2d_124">
      <g>
       <use style="stroke:#000000;stroke-width:0.5;" x="457.5077997411648" xlink:href="#m3ed3853bcb" y="384.0"/>
      </g>
     </g>
     <g id="line2d_125">
      <g>
       <use style="stroke:#000000;stroke-width:0.5;" x="457.5077997411648" xlink:href="#me2df5dd807" y="7.678217821782141"/>
      </g>
     </g>
    </g>
    <g id="xtick_41">
     <g id="line2d_126">
      <g>
       <use style="stroke:#000000;stroke-width:0.5;" x="468.72833949282597" xlink:href="#m3ed3853bcb" y="384.0"/>
      </g>
     </g>
     <g id="line2d_127">
      <g>
       <use style="stroke:#000000;stroke-width:0.5;" x="468.72833949282597" xlink:href="#me2df5dd807" y="7.678217821782141"/>
      </g>
     </g>
    </g>
    <g id="xtick_42">
     <g id="line2d_128">
      <g>
       <use style="stroke:#000000;stroke-width:0.5;" x="477.4316662816984" xlink:href="#m3ed3853bcb" y="384.0"/>
      </g>
     </g>
     <g id="line2d_129">
      <g>
       <use style="stroke:#000000;stroke-width:0.5;" x="477.4316662816984" xlink:href="#me2df5dd807" y="7.678217821782141"/>
      </g>
     </g>
    </g>
    <g id="xtick_43">
     <g id="line2d_130">
      <g>
       <use style="stroke:#000000;stroke-width:0.5;" x="484.5428020509745" xlink:href="#m3ed3853bcb" y="384.0"/>
      </g>
     </g>
     <g id="line2d_131">
      <g>
       <use style="stroke:#000000;stroke-width:0.5;" x="484.5428020509745" xlink:href="#me2df5dd807" y="7.678217821782141"/>
      </g>
     </g>
    </g>
    <g id="xtick_44">
     <g id="line2d_132">
      <g>
       <use style="stroke:#000000;stroke-width:0.5;" x="490.5551816754895" xlink:href="#m3ed3853bcb" y="384.0"/>
      </g>
     </g>
     <g id="line2d_133">
      <g>
       <use style="stroke:#000000;stroke-width:0.5;" x="490.5551816754895" xlink:href="#me2df5dd807" y="7.678217821782141"/>
      </g>
     </g>
    </g>
    <g id="xtick_45">
     <g id="line2d_134">
      <g>
       <use style="stroke:#000000;stroke-width:0.5;" x="495.76334180263564" xlink:href="#m3ed3853bcb" y="384.0"/>
      </g>
     </g>
     <g id="line2d_135">
      <g>
       <use style="stroke:#000000;stroke-width:0.5;" x="495.76334180263564" xlink:href="#me2df5dd807" y="7.678217821782141"/>
      </g>
     </g>
    </g>
    <g id="xtick_46">
     <g id="line2d_136">
      <g>
       <use style="stroke:#000000;stroke-width:0.5;" x="500.35726460912304" xlink:href="#m3ed3853bcb" y="384.0"/>
      </g>
     </g>
     <g id="line2d_137">
      <g>
       <use style="stroke:#000000;stroke-width:0.5;" x="500.35726460912304" xlink:href="#me2df5dd807" y="7.678217821782141"/>
      </g>
     </g>
    </g>
    <g id="xtick_47">
     <g id="line2d_138">
      <g>
       <use style="stroke:#000000;stroke-width:0.5;" x="531.5016709013179" xlink:href="#m3ed3853bcb" y="384.0"/>
      </g>
     </g>
     <g id="line2d_139">
      <g>
       <use style="stroke:#000000;stroke-width:0.5;" x="531.5016709013179" xlink:href="#me2df5dd807" y="7.678217821782141"/>
      </g>
     </g>
    </g>
    <g id="xtick_48">
     <g id="line2d_140">
      <g>
       <use style="stroke:#000000;stroke-width:0.5;" x="547.3161334594664" xlink:href="#m3ed3853bcb" y="384.0"/>
      </g>
     </g>
     <g id="line2d_141">
      <g>
       <use style="stroke:#000000;stroke-width:0.5;" x="547.3161334594664" xlink:href="#me2df5dd807" y="7.678217821782141"/>
      </g>
     </g>
    </g>
    <g id="xtick_49">
     <g id="line2d_142">
      <g>
       <use style="stroke:#000000;stroke-width:0.5;" x="558.5366732111275" xlink:href="#m3ed3853bcb" y="384.0"/>
      </g>
     </g>
     <g id="line2d_143">
      <g>
       <use style="stroke:#000000;stroke-width:0.5;" x="558.5366732111275" xlink:href="#me2df5dd807" y="7.678217821782141"/>
      </g>
     </g>
    </g>
    <g id="xtick_50">
     <g id="line2d_144">
      <g>
       <use style="stroke:#000000;stroke-width:0.5;" x="567.24" xlink:href="#m3ed3853bcb" y="384.0"/>
      </g>
     </g>
     <g id="line2d_145">
      <g>
       <use style="stroke:#000000;stroke-width:0.5;" x="567.24" xlink:href="#me2df5dd807" y="7.678217821782141"/>
      </g>
     </g>
    </g>
    <g id="text_7">
     <!-- log10 of FEvals / DIM -->
     <defs>
      <path id="BitstreamVeraSans-Roman-20"/>
      <path d="M 9.8125 72.90625 
L 24.515625 72.90625 
L 43.109375 23.296875 
L 61.8125 72.90625 
L 76.515625 72.90625 
L 76.515625 0 
L 66.890625 0 
L 66.890625 64.015625 
L 48.09375 14.015625 
L 38.1875 14.015625 
L 19.390625 64.015625 
L 19.390625 0 
L 9.8125 0 
z
" id="BitstreamVeraSans-Roman-4d"/>
      <path d="M 30.609375 48.390625 
Q 23.390625 48.390625 19.1875 42.75 
Q 14.984375 37.109375 14.984375 27.296875 
Q 14.984375 17.484375 19.15625 11.84375 
Q 23.34375 6.203125 30.609375 6.203125 
Q 37.796875 6.203125 41.984375 11.859375 
Q 46.1875 17.53125 46.1875 27.296875 
Q 46.1875 37.015625 41.984375 42.703125 
Q 37.796875 48.390625 30.609375 48.390625 
M 30.609375 56 
Q 42.328125 56 49.015625 48.375 
Q 55.71875 40.765625 55.71875 27.296875 
Q 55.71875 13.875 49.015625 6.21875 
Q 42.328125 -1.421875 30.609375 -1.421875 
Q 18.84375 -1.421875 12.171875 6.21875 
Q 5.515625 13.875 5.515625 27.296875 
Q 5.515625 40.765625 12.171875 48.375 
Q 18.84375 56 30.609375 56 
" id="BitstreamVeraSans-Roman-6f"/>
      <path d="M 9.421875 75.984375 
L 18.40625 75.984375 
L 18.40625 0 
L 9.421875 0 
z
" id="BitstreamVeraSans-Roman-6c"/>
      <path d="M 9.8125 72.90625 
L 51.703125 72.90625 
L 51.703125 64.59375 
L 19.671875 64.59375 
L 19.671875 43.109375 
L 48.578125 43.109375 
L 48.578125 34.8125 
L 19.671875 34.8125 
L 19.671875 0 
L 9.8125 0 
z
" id="BitstreamVeraSans-Roman-46"/>
      <path d="M 9.8125 72.90625 
L 55.90625 72.90625 
L 55.90625 64.59375 
L 19.671875 64.59375 
L 19.671875 43.015625 
L 54.390625 43.015625 
L 54.390625 34.71875 
L 19.671875 34.71875 
L 19.671875 8.296875 
L 56.78125 8.296875 
L 56.78125 0 
L 9.8125 0 
z
" id="BitstreamVeraSans-Roman-45"/>
      <path d="M 19.671875 64.796875 
L 19.671875 8.109375 
L 31.59375 8.109375 
Q 46.6875 8.109375 53.6875 14.9375 
Q 60.6875 21.78125 60.6875 36.53125 
Q 60.6875 51.171875 53.6875 57.984375 
Q 46.6875 64.796875 31.59375 64.796875 
z
M 9.8125 72.90625 
L 30.078125 72.90625 
Q 51.265625 72.90625 61.171875 64.09375 
Q 71.09375 55.28125 71.09375 36.53125 
Q 71.09375 17.671875 61.125 8.828125 
Q 51.171875 0 30.078125 0 
L 9.8125 0 
z
" id="BitstreamVeraSans-Roman-44"/>
      <path d="M 25.390625 72.90625 
L 33.6875 72.90625 
L 8.296875 -9.28125 
L 0 -9.28125 
z
" id="BitstreamVeraSans-Roman-2f"/>
      <path d="M 2.984375 54.6875 
L 12.5 54.6875 
L 29.59375 8.796875 
L 46.6875 54.6875 
L 56.203125 54.6875 
L 35.6875 0 
L 23.484375 0 
z
" id="BitstreamVeraSans-Roman-76"/>
      <path d="M 45.40625 27.984375 
Q 45.40625 37.75 41.375 43.109375 
Q 37.359375 48.484375 30.078125 48.484375 
Q 22.859375 48.484375 18.828125 43.109375 
Q 14.796875 37.75 14.796875 27.984375 
Q 14.796875 18.265625 18.828125 12.890625 
Q 22.859375 7.515625 30.078125 7.515625 
Q 37.359375 7.515625 41.375 12.890625 
Q 45.40625 18.265625 45.40625 27.984375 
M 54.390625 6.78125 
Q 54.390625 -7.171875 48.1875 -13.984375 
Q 42 -20.796875 29.203125 -20.796875 
Q 24.46875 -20.796875 20.265625 -20.09375 
Q 16.0625 -19.390625 12.109375 -17.921875 
L 12.109375 -9.1875 
Q 16.0625 -11.328125 19.921875 -12.34375 
Q 23.78125 -13.375 27.78125 -13.375 
Q 36.625 -13.375 41.015625 -8.765625 
Q 45.40625 -4.15625 45.40625 5.171875 
L 45.40625 9.625 
Q 42.625 4.78125 38.28125 2.390625 
Q 33.9375 0 27.875 0 
Q 17.828125 0 11.671875 7.65625 
Q 5.515625 15.328125 5.515625 27.984375 
Q 5.515625 40.671875 11.671875 48.328125 
Q 17.828125 56 27.875 56 
Q 33.9375 56 38.28125 53.609375 
Q 42.625 51.21875 45.40625 46.390625 
L 45.40625 54.6875 
L 54.390625 54.6875 
z
" id="BitstreamVeraSans-Roman-67"/>
      <path d="M 37.109375 75.984375 
L 37.109375 68.5 
L 28.515625 68.5 
Q 23.6875 68.5 21.796875 66.546875 
Q 19.921875 64.59375 19.921875 59.515625 
L 19.921875 54.6875 
L 34.71875 54.6875 
L 34.71875 47.703125 
L 19.921875 47.703125 
L 19.921875 0 
L 10.890625 0 
L 10.890625 47.703125 
L 2.296875 47.703125 
L 2.296875 54.6875 
L 10.890625 54.6875 
L 10.890625 58.5 
Q 10.890625 67.625 15.140625 71.796875 
Q 19.390625 75.984375 28.609375 75.984375 
z
" id="BitstreamVeraSans-Roman-66"/>
      <path d="M 34.28125 27.484375 
Q 23.390625 27.484375 19.1875 25 
Q 14.984375 22.515625 14.984375 16.5 
Q 14.984375 11.71875 18.140625 8.90625 
Q 21.296875 6.109375 26.703125 6.109375 
Q 34.1875 6.109375 38.703125 11.40625 
Q 43.21875 16.703125 43.21875 25.484375 
L 43.21875 27.484375 
z
M 52.203125 31.203125 
L 52.203125 0 
L 43.21875 0 
L 43.21875 8.296875 
Q 40.140625 3.328125 35.546875 0.953125 
Q 30.953125 -1.421875 24.3125 -1.421875 
Q 15.921875 -1.421875 10.953125 3.296875 
Q 6 8.015625 6 15.921875 
Q 6 25.140625 12.171875 29.828125 
Q 18.359375 34.515625 30.609375 34.515625 
L 43.21875 34.515625 
L 43.21875 35.40625 
Q 43.21875 41.609375 39.140625 45 
Q 35.0625 48.390625 27.6875 48.390625 
Q 23 48.390625 18.546875 47.265625 
Q 14.109375 46.140625 10.015625 43.890625 
L 10.015625 52.203125 
Q 14.9375 54.109375 19.578125 55.046875 
Q 24.21875 56 28.609375 56 
Q 40.484375 56 46.34375 49.84375 
Q 52.203125 43.703125 52.203125 31.203125 
" id="BitstreamVeraSans-Roman-61"/>
      <path d="M 44.28125 53.078125 
L 44.28125 44.578125 
Q 40.484375 46.53125 36.375 47.5 
Q 32.28125 48.484375 27.875 48.484375 
Q 21.1875 48.484375 17.84375 46.4375 
Q 14.5 44.390625 14.5 40.28125 
Q 14.5 37.15625 16.890625 35.375 
Q 19.28125 33.59375 26.515625 31.984375 
L 29.59375 31.296875 
Q 39.15625 29.25 43.1875 25.515625 
Q 47.21875 21.78125 47.21875 15.09375 
Q 47.21875 7.46875 41.1875 3.015625 
Q 35.15625 -1.421875 24.609375 -1.421875 
Q 20.21875 -1.421875 15.453125 -0.5625 
Q 10.6875 0.296875 5.421875 2 
L 5.421875 11.28125 
Q 10.40625 8.6875 15.234375 7.390625 
Q 20.0625 6.109375 24.8125 6.109375 
Q 31.15625 6.109375 34.5625 8.28125 
Q 37.984375 10.453125 37.984375 14.40625 
Q 37.984375 18.0625 35.515625 20.015625 
Q 33.0625 21.96875 24.703125 23.78125 
L 21.578125 24.515625 
Q 13.234375 26.265625 9.515625 29.90625 
Q 5.8125 33.546875 5.8125 39.890625 
Q 5.8125 47.609375 11.28125 51.796875 
Q 16.75 56 26.8125 56 
Q 31.78125 56 36.171875 55.265625 
Q 40.578125 54.546875 44.28125 53.078125 
" id="BitstreamVeraSans-Roman-73"/>
      <path d="M 9.8125 72.90625 
L 19.671875 72.90625 
L 19.671875 0 
L 9.8125 0 
z
" id="BitstreamVeraSans-Roman-49"/>
     </defs>
     <g transform="translate(206.25906249999997 427.55312499999997)scale(0.2 -0.2)">
      <use xlink:href="#BitstreamVeraSans-Roman-6c"/>
      <use x="27.783203125" xlink:href="#BitstreamVeraSans-Roman-6f"/>
      <use x="88.96484375" xlink:href="#BitstreamVeraSans-Roman-67"/>
      <use x="152.44140625" xlink:href="#BitstreamVeraSans-Roman-31"/>
      <use x="216.064453125" xlink:href="#BitstreamVeraSans-Roman-30"/>
      <use x="279.6875" xlink:href="#BitstreamVeraSans-Roman-20"/>
      <use x="311.474609375" xlink:href="#BitstreamVeraSans-Roman-6f"/>
      <use x="372.65625" xlink:href="#BitstreamVeraSans-Roman-66"/>
      <use x="407.861328125" xlink:href="#BitstreamVeraSans-Roman-20"/>
      <use x="439.6484375" xlink:href="#BitstreamVeraSans-Roman-46"/>
      <use x="497.16796875" xlink:href="#BitstreamVeraSans-Roman-45"/>
      <use x="560.3515625" xlink:href="#BitstreamVeraSans-Roman-76"/>
      <use x="619.53125" xlink:href="#BitstreamVeraSans-Roman-61"/>
      <use x="680.810546875" xlink:href="#BitstreamVeraSans-Roman-6c"/>
      <use x="708.59375" xlink:href="#BitstreamVeraSans-Roman-73"/>
      <use x="760.693359375" xlink:href="#BitstreamVeraSans-Roman-20"/>
      <use x="792.48046875" xlink:href="#BitstreamVeraSans-Roman-2f"/>
      <use x="826.171875" xlink:href="#BitstreamVeraSans-Roman-20"/>
      <use x="857.958984375" xlink:href="#BitstreamVeraSans-Roman-44"/>
      <use x="934.9609375" xlink:href="#BitstreamVeraSans-Roman-49"/>
      <use x="964.453125" xlink:href="#BitstreamVeraSans-Roman-4d"/>
     </g>
    </g>
   </g>
   <g id="matplotlib.axis_2">
    <g id="ytick_1">
     <g id="line2d_146">
      <path clip-path="url(#p906658348e)" d="M 55.425 384 
L 567.24 384 
" style="fill:none;stroke:#000000;stroke-dasharray:1.000000,3.000000;stroke-dashoffset:0.0;stroke-width:0.5;"/>
     </g>
     <g id="line2d_147">
      <defs>
       <path d="M 0 0 
L 4 0 
" id="m8243fcfb14" style="stroke:#000000;stroke-width:0.5;"/>
      </defs>
      <g>
       <use style="stroke:#000000;stroke-width:0.5;" x="55.425000000000004" xlink:href="#m8243fcfb14" y="384.0"/>
      </g>
     </g>
     <g id="line2d_148">
      <defs>
       <path d="M 0 0 
L -4 0 
" id="m3ce388c449" style="stroke:#000000;stroke-width:0.5;"/>
      </defs>
      <g>
       <use style="stroke:#000000;stroke-width:0.5;" x="567.24" xlink:href="#m3ce388c449" y="384.0"/>
      </g>
     </g>
     <g id="text_8">
      <!-- 0.0 -->
      <defs>
       <path d="M 10.6875 12.40625 
L 21 12.40625 
L 21 0 
L 10.6875 0 
z
" id="BitstreamVeraSans-Roman-2e"/>
      </defs>
      <g transform="translate(25.980000000000004 388.41499999999996)scale(0.16 -0.16)">
       <use xlink:href="#BitstreamVeraSans-Roman-30"/>
       <use x="63.623046875" xlink:href="#BitstreamVeraSans-Roman-2e"/>
       <use x="95.41015625" xlink:href="#BitstreamVeraSans-Roman-30"/>
      </g>
     </g>
    </g>
    <g id="ytick_2">
     <g id="line2d_149">
      <path clip-path="url(#p906658348e)" d="M 55.425 309.480835 
L 567.24 309.480835 
" style="fill:none;stroke:#000000;stroke-dasharray:1.000000,3.000000;stroke-dashoffset:0.0;stroke-width:0.5;"/>
     </g>
     <g id="line2d_150">
      <g>
       <use style="stroke:#000000;stroke-width:0.5;" x="55.425000000000004" xlink:href="#m8243fcfb14" y="309.48083521223407"/>
      </g>
     </g>
     <g id="line2d_151">
      <g>
       <use style="stroke:#000000;stroke-width:0.5;" x="567.24" xlink:href="#m3ce388c449" y="309.48083521223407"/>
      </g>
     </g>
     <g id="text_9">
      <!-- 0.2 -->
      <g transform="translate(25.980000000000004 313.8958352122341)scale(0.16 -0.16)">
       <use xlink:href="#BitstreamVeraSans-Roman-30"/>
       <use x="63.623046875" xlink:href="#BitstreamVeraSans-Roman-2e"/>
       <use x="95.41015625" xlink:href="#BitstreamVeraSans-Roman-32"/>
      </g>
     </g>
    </g>
    <g id="ytick_3">
     <g id="line2d_152">
      <path clip-path="url(#p906658348e)" d="M 55.425 234.96167 
L 567.24 234.96167 
" style="fill:none;stroke:#000000;stroke-dasharray:1.000000,3.000000;stroke-dashoffset:0.0;stroke-width:0.5;"/>
     </g>
     <g id="line2d_153">
      <g>
       <use style="stroke:#000000;stroke-width:0.5;" x="55.425000000000004" xlink:href="#m8243fcfb14" y="234.96167042446817"/>
      </g>
     </g>
     <g id="line2d_154">
      <g>
       <use style="stroke:#000000;stroke-width:0.5;" x="567.24" xlink:href="#m3ce388c449" y="234.96167042446817"/>
      </g>
     </g>
     <g id="text_10">
      <!-- 0.4 -->
      <g transform="translate(25.980000000000004 239.37667042446813)scale(0.16 -0.16)">
       <use xlink:href="#BitstreamVeraSans-Roman-30"/>
       <use x="63.623046875" xlink:href="#BitstreamVeraSans-Roman-2e"/>
       <use x="95.41015625" xlink:href="#BitstreamVeraSans-Roman-34"/>
      </g>
     </g>
    </g>
    <g id="ytick_4">
     <g id="line2d_155">
      <path clip-path="url(#p906658348e)" d="M 55.425 160.442506 
L 567.24 160.442506 
" style="fill:none;stroke:#000000;stroke-dasharray:1.000000,3.000000;stroke-dashoffset:0.0;stroke-width:0.5;"/>
     </g>
     <g id="line2d_156">
      <g>
       <use style="stroke:#000000;stroke-width:0.5;" x="55.425000000000004" xlink:href="#m8243fcfb14" y="160.44250563670224"/>
      </g>
     </g>
     <g id="line2d_157">
      <g>
       <use style="stroke:#000000;stroke-width:0.5;" x="567.24" xlink:href="#m3ce388c449" y="160.44250563670224"/>
      </g>
     </g>
     <g id="text_11">
      <!-- 0.6 -->
      <defs>
       <path d="M 33.015625 40.375 
Q 26.375 40.375 22.484375 35.828125 
Q 18.609375 31.296875 18.609375 23.390625 
Q 18.609375 15.53125 22.484375 10.953125 
Q 26.375 6.390625 33.015625 6.390625 
Q 39.65625 6.390625 43.53125 10.953125 
Q 47.40625 15.53125 47.40625 23.390625 
Q 47.40625 31.296875 43.53125 35.828125 
Q 39.65625 40.375 33.015625 40.375 
M 52.59375 71.296875 
L 52.59375 62.3125 
Q 48.875 64.0625 45.09375 64.984375 
Q 41.3125 65.921875 37.59375 65.921875 
Q 27.828125 65.921875 22.671875 59.328125 
Q 17.53125 52.734375 16.796875 39.40625 
Q 19.671875 43.65625 24.015625 45.921875 
Q 28.375 48.1875 33.59375 48.1875 
Q 44.578125 48.1875 50.953125 41.515625 
Q 57.328125 34.859375 57.328125 23.390625 
Q 57.328125 12.15625 50.6875 5.359375 
Q 44.046875 -1.421875 33.015625 -1.421875 
Q 20.359375 -1.421875 13.671875 8.265625 
Q 6.984375 17.96875 6.984375 36.375 
Q 6.984375 53.65625 15.1875 63.9375 
Q 23.390625 74.21875 37.203125 74.21875 
Q 40.921875 74.21875 44.703125 73.484375 
Q 48.484375 72.75 52.59375 71.296875 
" id="BitstreamVeraSans-Roman-36"/>
      </defs>
      <g transform="translate(25.980000000000004 164.85750563670223)scale(0.16 -0.16)">
       <use xlink:href="#BitstreamVeraSans-Roman-30"/>
       <use x="63.623046875" xlink:href="#BitstreamVeraSans-Roman-2e"/>
       <use x="95.41015625" xlink:href="#BitstreamVeraSans-Roman-36"/>
      </g>
     </g>
    </g>
    <g id="ytick_5">
     <g id="line2d_158">
      <path clip-path="url(#p906658348e)" d="M 55.425 85.923341 
L 567.24 85.923341 
" style="fill:none;stroke:#000000;stroke-dasharray:1.000000,3.000000;stroke-dashoffset:0.0;stroke-width:0.5;"/>
     </g>
     <g id="line2d_159">
      <g>
       <use style="stroke:#000000;stroke-width:0.5;" x="55.425000000000004" xlink:href="#m8243fcfb14" y="85.92334084893633"/>
      </g>
     </g>
     <g id="line2d_160">
      <g>
       <use style="stroke:#000000;stroke-width:0.5;" x="567.24" xlink:href="#m3ce388c449" y="85.92334084893633"/>
      </g>
     </g>
     <g id="text_12">
      <!-- 0.8 -->
      <defs>
       <path d="M 31.78125 34.625 
Q 24.75 34.625 20.71875 30.859375 
Q 16.703125 27.09375 16.703125 20.515625 
Q 16.703125 13.921875 20.71875 10.15625 
Q 24.75 6.390625 31.78125 6.390625 
Q 38.8125 6.390625 42.859375 10.171875 
Q 46.921875 13.96875 46.921875 20.515625 
Q 46.921875 27.09375 42.890625 30.859375 
Q 38.875 34.625 31.78125 34.625 
M 21.921875 38.8125 
Q 15.578125 40.375 12.03125 44.71875 
Q 8.5 49.078125 8.5 55.328125 
Q 8.5 64.0625 14.71875 69.140625 
Q 20.953125 74.21875 31.78125 74.21875 
Q 42.671875 74.21875 48.875 69.140625 
Q 55.078125 64.0625 55.078125 55.328125 
Q 55.078125 49.078125 51.53125 44.71875 
Q 48 40.375 41.703125 38.8125 
Q 48.828125 37.15625 52.796875 32.3125 
Q 56.78125 27.484375 56.78125 20.515625 
Q 56.78125 9.90625 50.3125 4.234375 
Q 43.84375 -1.421875 31.78125 -1.421875 
Q 19.734375 -1.421875 13.25 4.234375 
Q 6.78125 9.90625 6.78125 20.515625 
Q 6.78125 27.484375 10.78125 32.3125 
Q 14.796875 37.15625 21.921875 38.8125 
M 18.3125 54.390625 
Q 18.3125 48.734375 21.84375 45.5625 
Q 25.390625 42.390625 31.78125 42.390625 
Q 38.140625 42.390625 41.71875 45.5625 
Q 45.3125 48.734375 45.3125 54.390625 
Q 45.3125 60.0625 41.71875 63.234375 
Q 38.140625 66.40625 31.78125 66.40625 
Q 25.390625 66.40625 21.84375 63.234375 
Q 18.3125 60.0625 18.3125 54.390625 
" id="BitstreamVeraSans-Roman-38"/>
      </defs>
      <g transform="translate(25.980000000000004 90.33834084893635)scale(0.16 -0.16)">
       <use xlink:href="#BitstreamVeraSans-Roman-30"/>
       <use x="63.623046875" xlink:href="#BitstreamVeraSans-Roman-2e"/>
       <use x="95.41015625" xlink:href="#BitstreamVeraSans-Roman-38"/>
      </g>
     </g>
    </g>
    <g id="ytick_6">
     <g id="line2d_161">
      <path clip-path="url(#p906658348e)" d="M 55.425 11.404176 
L 567.24 11.404176 
" style="fill:none;stroke:#000000;stroke-dasharray:1.000000,3.000000;stroke-dashoffset:0.0;stroke-width:0.5;"/>
     </g>
     <g id="line2d_162">
      <g>
       <use style="stroke:#000000;stroke-width:0.5;" x="55.425000000000004" xlink:href="#m8243fcfb14" y="11.40417606117046"/>
      </g>
     </g>
     <g id="line2d_163">
      <g>
       <use style="stroke:#000000;stroke-width:0.5;" x="567.24" xlink:href="#m3ce388c449" y="11.40417606117046"/>
      </g>
     </g>
     <g id="text_13">
      <!-- 1.0 -->
      <g transform="translate(25.980000000000004 15.81917606117048)scale(0.16 -0.16)">
       <use xlink:href="#BitstreamVeraSans-Roman-31"/>
       <use x="63.623046875" xlink:href="#BitstreamVeraSans-Roman-2e"/>
       <use x="95.41015625" xlink:href="#BitstreamVeraSans-Roman-30"/>
      </g>
     </g>
    </g>
    <g id="text_14">
     <!-- proportion of trials -->
     <defs>
      <path d="M 54.890625 33.015625 
L 54.890625 0 
L 45.90625 0 
L 45.90625 32.71875 
Q 45.90625 40.484375 42.875 44.328125 
Q 39.84375 48.1875 33.796875 48.1875 
Q 26.515625 48.1875 22.3125 43.546875 
Q 18.109375 38.921875 18.109375 30.90625 
L 18.109375 0 
L 9.078125 0 
L 9.078125 54.6875 
L 18.109375 54.6875 
L 18.109375 46.1875 
Q 21.34375 51.125 25.703125 53.5625 
Q 30.078125 56 35.796875 56 
Q 45.21875 56 50.046875 50.171875 
Q 54.890625 44.34375 54.890625 33.015625 
" id="BitstreamVeraSans-Roman-6e"/>
      <path d="M 9.421875 54.6875 
L 18.40625 54.6875 
L 18.40625 0 
L 9.421875 0 
z
M 9.421875 75.984375 
L 18.40625 75.984375 
L 18.40625 64.59375 
L 9.421875 64.59375 
z
" id="BitstreamVeraSans-Roman-69"/>
      <path d="M 18.3125 70.21875 
L 18.3125 54.6875 
L 36.8125 54.6875 
L 36.8125 47.703125 
L 18.3125 47.703125 
L 18.3125 18.015625 
Q 18.3125 11.328125 20.140625 9.421875 
Q 21.96875 7.515625 27.59375 7.515625 
L 36.8125 7.515625 
L 36.8125 0 
L 27.59375 0 
Q 17.1875 0 13.234375 3.875 
Q 9.28125 7.765625 9.28125 18.015625 
L 9.28125 47.703125 
L 2.6875 47.703125 
L 2.6875 54.6875 
L 9.28125 54.6875 
L 9.28125 70.21875 
z
" id="BitstreamVeraSans-Roman-74"/>
      <path d="M 41.109375 46.296875 
Q 39.59375 47.171875 37.8125 47.578125 
Q 36.03125 48 33.890625 48 
Q 26.265625 48 22.1875 43.046875 
Q 18.109375 38.09375 18.109375 28.8125 
L 18.109375 0 
L 9.078125 0 
L 9.078125 54.6875 
L 18.109375 54.6875 
L 18.109375 46.1875 
Q 20.953125 51.171875 25.484375 53.578125 
Q 30.03125 56 36.53125 56 
Q 37.453125 56 38.578125 55.875 
Q 39.703125 55.765625 41.0625 55.515625 
z
" id="BitstreamVeraSans-Roman-72"/>
      <path d="M 18.109375 8.203125 
L 18.109375 -20.796875 
L 9.078125 -20.796875 
L 9.078125 54.6875 
L 18.109375 54.6875 
L 18.109375 46.390625 
Q 20.953125 51.265625 25.265625 53.625 
Q 29.59375 56 35.59375 56 
Q 45.5625 56 51.78125 48.09375 
Q 58.015625 40.1875 58.015625 27.296875 
Q 58.015625 14.40625 51.78125 6.484375 
Q 45.5625 -1.421875 35.59375 -1.421875 
Q 29.59375 -1.421875 25.265625 0.953125 
Q 20.953125 3.328125 18.109375 8.203125 
M 48.6875 27.296875 
Q 48.6875 37.203125 44.609375 42.84375 
Q 40.53125 48.484375 33.40625 48.484375 
Q 26.265625 48.484375 22.1875 42.84375 
Q 18.109375 37.203125 18.109375 27.296875 
Q 18.109375 17.390625 22.1875 11.75 
Q 26.265625 6.109375 33.40625 6.109375 
Q 40.53125 6.109375 44.609375 11.75 
Q 48.6875 17.390625 48.6875 27.296875 
" id="BitstreamVeraSans-Roman-70"/>
     </defs>
     <g transform="translate(16.820624999999996 289.06723391089105)rotate(-90.0)scale(0.2 -0.2)">
      <use xlink:href="#BitstreamVeraSans-Roman-70"/>
      <use x="63.4765625" xlink:href="#BitstreamVeraSans-Roman-72"/>
      <use x="104.55859375" xlink:href="#BitstreamVeraSans-Roman-6f"/>
      <use x="165.740234375" xlink:href="#BitstreamVeraSans-Roman-70"/>
      <use x="229.216796875" xlink:href="#BitstreamVeraSans-Roman-6f"/>
      <use x="290.3984375" xlink:href="#BitstreamVeraSans-Roman-72"/>
      <use x="331.51171875" xlink:href="#BitstreamVeraSans-Roman-74"/>
      <use x="370.720703125" xlink:href="#BitstreamVeraSans-Roman-69"/>
      <use x="398.50390625" xlink:href="#BitstreamVeraSans-Roman-6f"/>
      <use x="459.685546875" xlink:href="#BitstreamVeraSans-Roman-6e"/>
      <use x="523.064453125" xlink:href="#BitstreamVeraSans-Roman-20"/>
      <use x="554.8515625" xlink:href="#BitstreamVeraSans-Roman-6f"/>
      <use x="616.033203125" xlink:href="#BitstreamVeraSans-Roman-66"/>
      <use x="651.23828125" xlink:href="#BitstreamVeraSans-Roman-20"/>
      <use x="683.025390625" xlink:href="#BitstreamVeraSans-Roman-74"/>
      <use x="722.234375" xlink:href="#BitstreamVeraSans-Roman-72"/>
      <use x="763.34765625" xlink:href="#BitstreamVeraSans-Roman-69"/>
      <use x="791.130859375" xlink:href="#BitstreamVeraSans-Roman-61"/>
      <use x="852.41015625" xlink:href="#BitstreamVeraSans-Roman-6c"/>
      <use x="880.193359375" xlink:href="#BitstreamVeraSans-Roman-73"/>
     </g>
    </g>
   </g>
   <g id="text_15">
    <!-- {f20-f24}, 20-D -->
    <defs>
     <path d="M 11.71875 12.40625 
L 22.015625 12.40625 
L 22.015625 4 
L 14.015625 -11.625 
L 7.71875 -11.625 
L 11.71875 4 
z
" id="BitstreamVeraSans-Roman-2c"/>
     <path d="M 12.5 -9.28125 
L 15.921875 -9.28125 
Q 22.75 -9.28125 24.828125 -7.171875 
Q 26.90625 -5.078125 26.90625 1.90625 
L 26.90625 14.015625 
Q 26.90625 21.625 29.09375 25.09375 
Q 31.296875 28.5625 36.71875 29.890625 
Q 31.296875 31.109375 29.09375 34.5625 
Q 26.90625 38.03125 26.90625 45.703125 
L 26.90625 57.8125 
Q 26.90625 64.75 24.828125 66.875 
Q 22.75 69 15.921875 69 
L 12.5 69 
L 12.5 75.984375 
L 15.578125 75.984375 
Q 27.734375 75.984375 31.8125 72.390625 
Q 35.890625 68.796875 35.890625 58.015625 
L 35.890625 46.296875 
Q 35.890625 39.015625 38.515625 36.203125 
Q 41.15625 33.40625 48.09375 33.40625 
L 51.125 33.40625 
L 51.125 26.421875 
L 48.09375 26.421875 
Q 41.15625 26.421875 38.515625 23.578125 
Q 35.890625 20.75 35.890625 13.375 
L 35.890625 1.703125 
Q 35.890625 -9.078125 31.8125 -12.6875 
Q 27.734375 -16.3125 15.578125 -16.3125 
L 12.5 -16.3125 
z
" id="BitstreamVeraSans-Roman-7d"/>
     <path d="M 51.125 -9.28125 
L 51.125 -16.3125 
L 48.09375 -16.3125 
Q 35.9375 -16.3125 31.8125 -12.6875 
Q 27.6875 -9.078125 27.6875 1.703125 
L 27.6875 13.375 
Q 27.6875 20.75 25.046875 23.578125 
Q 22.40625 26.421875 15.484375 26.421875 
L 12.5 26.421875 
L 12.5 33.40625 
L 15.484375 33.40625 
Q 22.46875 33.40625 25.078125 36.203125 
Q 27.6875 39.015625 27.6875 46.296875 
L 27.6875 58.015625 
Q 27.6875 68.796875 31.8125 72.390625 
Q 35.9375 75.984375 48.09375 75.984375 
L 51.125 75.984375 
L 51.125 69 
L 47.796875 69 
Q 40.921875 69 38.8125 66.84375 
Q 36.71875 64.703125 36.71875 57.8125 
L 36.71875 45.703125 
Q 36.71875 38.03125 34.5 34.5625 
Q 32.28125 31.109375 26.90625 29.890625 
Q 32.328125 28.5625 34.515625 25.09375 
Q 36.71875 21.625 36.71875 14.015625 
L 36.71875 1.90625 
Q 36.71875 -4.984375 38.8125 -7.125 
Q 40.921875 -9.28125 47.796875 -9.28125 
z
" id="BitstreamVeraSans-Roman-7b"/>
     <path d="M 4.890625 31.390625 
L 31.203125 31.390625 
L 31.203125 23.390625 
L 4.890625 23.390625 
z
" id="BitstreamVeraSans-Roman-2d"/>
    </defs>
    <g transform="translate(232.11999999999998 30.401528465346473)scale(0.2 -0.2)">
     <use xlink:href="#BitstreamVeraSans-Roman-7b"/>
     <use x="63.623046875" xlink:href="#BitstreamVeraSans-Roman-66"/>
     <use x="98.828125" xlink:href="#BitstreamVeraSans-Roman-32"/>
     <use x="162.451171875" xlink:href="#BitstreamVeraSans-Roman-30"/>
     <use x="226.07421875" xlink:href="#BitstreamVeraSans-Roman-2d"/>
     <use x="262.158203125" xlink:href="#BitstreamVeraSans-Roman-66"/>
     <use x="297.36328125" xlink:href="#BitstreamVeraSans-Roman-32"/>
     <use x="360.986328125" xlink:href="#BitstreamVeraSans-Roman-34"/>
     <use x="424.609375" xlink:href="#BitstreamVeraSans-Roman-7d"/>
     <use x="488.232421875" xlink:href="#BitstreamVeraSans-Roman-2c"/>
     <use x="520.01953125" xlink:href="#BitstreamVeraSans-Roman-20"/>
     <use x="551.806640625" xlink:href="#BitstreamVeraSans-Roman-32"/>
     <use x="615.4296875" xlink:href="#BitstreamVeraSans-Roman-30"/>
     <use x="679.052734375" xlink:href="#BitstreamVeraSans-Roman-2d"/>
     <use x="715.13671875" xlink:href="#BitstreamVeraSans-Roman-44"/>
    </g>
   </g>
   <g id="text_16">
    <!-- absolute targets -->
    <defs>
     <path d="M 56.203125 29.59375 
L 56.203125 25.203125 
L 14.890625 25.203125 
Q 15.484375 15.921875 20.484375 11.0625 
Q 25.484375 6.203125 34.421875 6.203125 
Q 39.59375 6.203125 44.453125 7.46875 
Q 49.3125 8.734375 54.109375 11.28125 
L 54.109375 2.78125 
Q 49.265625 0.734375 44.1875 -0.34375 
Q 39.109375 -1.421875 33.890625 -1.421875 
Q 20.796875 -1.421875 13.15625 6.1875 
Q 5.515625 13.8125 5.515625 26.8125 
Q 5.515625 40.234375 12.765625 48.109375 
Q 20.015625 56 32.328125 56 
Q 43.359375 56 49.78125 48.890625 
Q 56.203125 41.796875 56.203125 29.59375 
M 47.21875 32.234375 
Q 47.125 39.59375 43.09375 43.984375 
Q 39.0625 48.390625 32.421875 48.390625 
Q 24.90625 48.390625 20.390625 44.140625 
Q 15.875 39.890625 15.1875 32.171875 
z
" id="BitstreamVeraSans-Roman-65"/>
     <path d="M 8.5 21.578125 
L 8.5 54.6875 
L 17.484375 54.6875 
L 17.484375 21.921875 
Q 17.484375 14.15625 20.5 10.265625 
Q 23.53125 6.390625 29.59375 6.390625 
Q 36.859375 6.390625 41.078125 11.03125 
Q 45.3125 15.671875 45.3125 23.6875 
L 45.3125 54.6875 
L 54.296875 54.6875 
L 54.296875 0 
L 45.3125 0 
L 45.3125 8.40625 
Q 42.046875 3.421875 37.71875 1 
Q 33.40625 -1.421875 27.6875 -1.421875 
Q 18.265625 -1.421875 13.375 4.4375 
Q 8.5 10.296875 8.5 21.578125 
" id="BitstreamVeraSans-Roman-75"/>
     <path d="M 48.6875 27.296875 
Q 48.6875 37.203125 44.609375 42.84375 
Q 40.53125 48.484375 33.40625 48.484375 
Q 26.265625 48.484375 22.1875 42.84375 
Q 18.109375 37.203125 18.109375 27.296875 
Q 18.109375 17.390625 22.1875 11.75 
Q 26.265625 6.109375 33.40625 6.109375 
Q 40.53125 6.109375 44.609375 11.75 
Q 48.6875 17.390625 48.6875 27.296875 
M 18.109375 46.390625 
Q 20.953125 51.265625 25.265625 53.625 
Q 29.59375 56 35.59375 56 
Q 45.5625 56 51.78125 48.09375 
Q 58.015625 40.1875 58.015625 27.296875 
Q 58.015625 14.40625 51.78125 6.484375 
Q 45.5625 -1.421875 35.59375 -1.421875 
Q 29.59375 -1.421875 25.265625 0.953125 
Q 20.953125 3.328125 18.109375 8.203125 
L 18.109375 0 
L 9.078125 0 
L 9.078125 75.984375 
L 18.109375 75.984375 
z
" id="BitstreamVeraSans-Roman-62"/>
    </defs>
    <g transform="translate(55.425000000000004 756.5958239388295)scale(0.14 -0.14)">
     <use xlink:href="#BitstreamVeraSans-Roman-61"/>
     <use x="61.279296875" xlink:href="#BitstreamVeraSans-Roman-62"/>
     <use x="124.755859375" xlink:href="#BitstreamVeraSans-Roman-73"/>
     <use x="176.85546875" xlink:href="#BitstreamVeraSans-Roman-6f"/>
     <use x="238.037109375" xlink:href="#BitstreamVeraSans-Roman-6c"/>
     <use x="265.8203125" xlink:href="#BitstreamVeraSans-Roman-75"/>
     <use x="329.19921875" xlink:href="#BitstreamVeraSans-Roman-74"/>
     <use x="368.408203125" xlink:href="#BitstreamVeraSans-Roman-65"/>
     <use x="429.931640625" xlink:href="#BitstreamVeraSans-Roman-20"/>
     <use x="461.71875" xlink:href="#BitstreamVeraSans-Roman-74"/>
     <use x="500.927734375" xlink:href="#BitstreamVeraSans-Roman-61"/>
     <use x="562.20703125" xlink:href="#BitstreamVeraSans-Roman-72"/>
     <use x="603.3046875" xlink:href="#BitstreamVeraSans-Roman-67"/>
     <use x="666.78125" xlink:href="#BitstreamVeraSans-Roman-65"/>
     <use x="728.3046875" xlink:href="#BitstreamVeraSans-Roman-74"/>
     <use x="767.513671875" xlink:href="#BitstreamVeraSans-Roman-73"/>
    </g>
   </g>
   <g id="text_17">
    <!-- v2.2.1.10 -->
    <g style="fill:#808080;" transform="translate(287.6996875 378.1570946782178)scale(0.1 -0.1)">
     <use xlink:href="#BitstreamVeraSans-Roman-76"/>
     <use x="59.1796875" xlink:href="#BitstreamVeraSans-Roman-32"/>
     <use x="122.802734375" xlink:href="#BitstreamVeraSans-Roman-2e"/>
     <use x="154.58984375" xlink:href="#BitstreamVeraSans-Roman-32"/>
     <use x="218.212890625" xlink:href="#BitstreamVeraSans-Roman-2e"/>
     <use x="250.0" xlink:href="#BitstreamVeraSans-Roman-31"/>
     <use x="313.623046875" xlink:href="#BitstreamVeraSans-Roman-2e"/>
     <use x="345.41015625" xlink:href="#BitstreamVeraSans-Roman-31"/>
     <use x="409.033203125" xlink:href="#BitstreamVeraSans-Roman-30"/>
    </g>
   </g>
   <g id="legend_1">
    <g id="patch_7">
     <path d="M 65.425 141.103218 
L 202.646875 141.103218 
L 202.646875 17.678218 
L 65.425 17.678218 
z
" style="fill:#ffffff;opacity:0.2;stroke:#000000;stroke-linejoin:miter;"/>
    </g>
    <g id="line2d_164">
     <path d="M 79.425 33.875093 
L 107.425 33.875093 
" style="fill:none;stroke:#000000;stroke-linecap:square;"/>
    </g>
    <g id="line2d_165"/>
    <g id="text_18">
     <!-- 1: 4/5 -->
     <defs>
      <path d="M 11.71875 12.40625 
L 22.015625 12.40625 
L 22.015625 0 
L 11.71875 0 
z
M 11.71875 51.703125 
L 22.015625 51.703125 
L 22.015625 39.3125 
L 11.71875 39.3125 
z
" id="BitstreamVeraSans-Roman-3a"/>
     </defs>
     <g transform="translate(129.425 40.87509282178212)scale(0.2 -0.2)">
      <use xlink:href="#BitstreamVeraSans-Roman-31"/>
      <use x="63.623046875" xlink:href="#BitstreamVeraSans-Roman-3a"/>
      <use x="97.314453125" xlink:href="#BitstreamVeraSans-Roman-20"/>
      <use x="129.1015625" xlink:href="#BitstreamVeraSans-Roman-34"/>
      <use x="192.724609375" xlink:href="#BitstreamVeraSans-Roman-2f"/>
      <use x="226.416015625" xlink:href="#BitstreamVeraSans-Roman-35"/>
     </g>
    </g>
    <g id="line2d_166">
     <path d="M 79.425 63.231343 
L 107.425 63.231343 
" style="fill:none;stroke:#00bfbf;stroke-linecap:square;"/>
    </g>
    <g id="line2d_167"/>
    <g id="text_19">
     <!-- -1: 1/5 -->
     <g transform="translate(129.425 70.2313428217821)scale(0.2 -0.2)">
      <use xlink:href="#BitstreamVeraSans-Roman-2d"/>
      <use x="36.083984375" xlink:href="#BitstreamVeraSans-Roman-31"/>
      <use x="99.70703125" xlink:href="#BitstreamVeraSans-Roman-3a"/>
      <use x="133.3984375" xlink:href="#BitstreamVeraSans-Roman-20"/>
      <use x="165.185546875" xlink:href="#BitstreamVeraSans-Roman-31"/>
      <use x="228.80859375" xlink:href="#BitstreamVeraSans-Roman-2f"/>
      <use x="262.5" xlink:href="#BitstreamVeraSans-Roman-35"/>
     </g>
    </g>
    <g id="line2d_168">
     <path d="M 79.425 92.587593 
L 107.425 92.587593 
" style="fill:none;stroke:#bf00bf;stroke-linecap:square;"/>
    </g>
    <g id="line2d_169"/>
    <g id="text_20">
     <!-- -4: 1/5 -->
     <g transform="translate(129.425 99.5875928217821)scale(0.2 -0.2)">
      <use xlink:href="#BitstreamVeraSans-Roman-2d"/>
      <use x="36.083984375" xlink:href="#BitstreamVeraSans-Roman-34"/>
      <use x="99.70703125" xlink:href="#BitstreamVeraSans-Roman-3a"/>
      <use x="133.3984375" xlink:href="#BitstreamVeraSans-Roman-20"/>
      <use x="165.185546875" xlink:href="#BitstreamVeraSans-Roman-31"/>
      <use x="228.80859375" xlink:href="#BitstreamVeraSans-Roman-2f"/>
      <use x="262.5" xlink:href="#BitstreamVeraSans-Roman-35"/>
     </g>
    </g>
    <g id="line2d_170">
     <path d="M 79.425 121.943843 
L 107.425 121.943843 
" style="fill:none;stroke:#ff0000;stroke-linecap:square;stroke-width:3.0;"/>
    </g>
    <g id="line2d_171"/>
    <g id="text_21">
     <!-- -8: 1/5 -->
     <g transform="translate(129.425 128.94384282178214)scale(0.2 -0.2)">
      <use xlink:href="#BitstreamVeraSans-Roman-2d"/>
      <use x="36.083984375" xlink:href="#BitstreamVeraSans-Roman-38"/>
      <use x="99.70703125" xlink:href="#BitstreamVeraSans-Roman-3a"/>
      <use x="133.3984375" xlink:href="#BitstreamVeraSans-Roman-20"/>
      <use x="165.185546875" xlink:href="#BitstreamVeraSans-Roman-31"/>
      <use x="228.80859375" xlink:href="#BitstreamVeraSans-Roman-2f"/>
      <use x="262.5" xlink:href="#BitstreamVeraSans-Roman-35"/>
     </g>
    </g>
   </g>
  </g>
 </g>
 <defs>
  <clipPath id="p906658348e">
   <rect height="376.32178217821786" width="511.815" x="55.425000000000004" y="7.678217821782141"/>
  </clipPath>
 </defs>
</svg>
